<svg xmlns="http://www.w3.org/2000/svg" width="20.25" height="25.448" viewBox="0 0 20.25 25.448">
  <path id="Tracé_475" data-name="Tracé 475" d="M62.859,7.809c-.025.045-.03.07-.064.136a.568.568,0,0,1-.039.09c-.123.281-.246.567-.37.849-.02.04-.02.05-.039.1-.212.482-.375.874-.582,1.356a1.184,1.184,0,0,0-.054.141c-.059.141-.133.316-.2.482-.015.03-.039.1-.049.116-.025.055-.015.05-.044.116-.025.045-.015.045-.039.09a1.06,1.06,0,0,1-.049.116c.064-.161.064-.166.143-.347.025-.055.015-.05.044-.116.049-.116.094-.231.143-.347,0-.02.015-.04.025-.07.1-.241.2-.467.256-.623.059-.131.123-.3.222-.527.015-.035-.015.02,0-.025a.455.455,0,0,1,.025-.045.19.19,0,0,1,.025-.07c.01-.01.01-.02.02-.045s.03-.06.054-.116c.044-.105.069-.161.113-.276.039-.08.108-.246.163-.367a.616.616,0,0,0,.025-.07c-.025.055-.044.105-.069.161,0-.005,0-.005-.02.02.01,0-.035.08-.049.116s-.035.075-.049.116c0,.02-.015.04-.025.07-.03.07-.059.141-.089.206,0,.02-.02.055-.035.1l-.118.276a.542.542,0,0,0-.035.1c-.02.035-.039.1-.079.186l-.089.206c-.069.161-.1.251-.153.367,0,.02-.02.055-.035.1-.2.482-.38.929-.606,1.476-.015.04-.015.05-.035.1s-.044.116-.084.206c-.089.216-.2.492-.266.673-.039.085-.074.181-.113.276s-.074.191-.113.276c-.02.045-.035.09-.054.141a1.16,1.16,0,0,1-.049.116c-.015.035-.03.08-.044.116s-.025.065-.035.1-.025.05-.039.09c-.01.025-.015.05-.035.1s-.035.075-.049.116c-.03.065-.02.06-.044.116s-.039.105-.059.141c-.025.06-.049.126-.074.186s-.059.151-.074.186c0,.01-.044.116-.059.166-.222.562-.453,1.155-.68,1.743-.069.176-.143.362-.207.537a.7.7,0,0,0-.049.116,1.9,1.9,0,0,1-.074.186c.074-.186.1-.256.163-.417.025-.055.015-.055.044-.116s.044-.11.064-.161a1.02,1.02,0,0,0,.049-.141q-.03.06-.059.136c-.039.1-.03.1-.059.166a.41.41,0,0,0-.039.09c-.015.05-.03.065-.054.141s-.064.161-.1.281l-.118.3c-.02.055-.02.07-.049.141s-.03.065-.054.141c-.3.768-.611,1.6-.917,2.4-.039.1-.074.2-.133.352-.1.266-.2.527-.3.793-.03.09-.039.105-.079.211a.7.7,0,0,0-.049.116c-.035.08-.03.09-.059.166-.054.126-.113.3-.187.487-.035.085-.108.266-.148.4-.059.161-.138.362-.182.492-.025.055-.03.075-.074.186-.054.161-.089.246-.133.377s-.084.221-.148.4a.415.415,0,0,1-.02.07c-.094.231-.173.482-.237.628.02-.015-.039.11-.054.166a.662.662,0,0,1-.025.07.305.305,0,0,1-.025.07c-.064.171-.1.271-.163.442-.039.121-.1.291-.148.427-.039.105-.03.09-.069.186-.015.055-.039.121-.054.166s-.03.075-.044.116a1.133,1.133,0,0,1-.039.121c-.049.136-.094.256-.143.4-.01.035-.02.06-.03.1-.025.05-.035.1-.069.186,0,.035-.069.186-.059.191.064-.171.133-.372.2-.562.039-.105.03-.09.069-.186.015-.05.03-.1.044-.146a1.285,1.285,0,0,0,.049-.141,1.759,1.759,0,0,0,.079-.211c.01-.01.01-.03.025-.07.01-.015.025-.05.025-.045-.059.156-.089.251-.138.372-.074.226-.173.5-.242.708a1.02,1.02,0,0,0-.049.141.884.884,0,0,1,.049-.116.8.8,0,0,1,.039-.121c.025-.06.044-.126.069-.186a2.727,2.727,0,0,1,.1-.281,1.02,1.02,0,0,1,.049-.141c.01-.025.01-.015.015-.02.02-.055.015-.055.039-.116.015-.035.03-.09.039-.09a1.4,1.4,0,0,1-.044.141c-.035.08-.03.09-.059.166-.094.251-.143.392-.227.633-.025.06-.044.126-.069.186s-.054.136-.044.141c.025-.055.059-.171.074-.186-.03.09-.079.216-.108.306a.352.352,0,0,0-.03.07c0,.005.02-.035.01.005s-.025.075-.02.07c.01-.025.015-.02.015-.02.054-.166.094-.266.158-.447a.566.566,0,0,1,.054-.11c-.054.146-.079.241-.148.422a1.194,1.194,0,0,1-.069.186c0,.025-.02.065-.025.1.015-.015-.044.11-.03.1l.059-.166c0-.03.039-.11.044-.141a1.5,1.5,0,0,1,.108-.276c0,.03-.03.09-.035.121a.7.7,0,0,1-.025.1.685.685,0,0,0-.044.141.209.209,0,0,1,.02-.045c-.035.105-.049.166-.1.306.015-.015-.054.161-.015.075-.01,0,.03-.085.039-.121.03-.1.084-.241.118-.357-.01.055.01-.025.039-.09a.475.475,0,0,1-.035.121c-.01.035-.015.06-.035.121s-.064.171-.064.186c.025-.06.049-.141.059-.136-.02.055-.015.05-.039.116-.01.045.02-.03,0,.05-.01.03-.01.04-.02.07-.064.191-.133.392-.168.522.1-.306.2-.608.311-.924a.4.4,0,0,1,.039-.09c.015-.035.03-.09.039-.09.039-.11.054-.136.079-.211a.086.086,0,0,1,.01-.025c.02-.055.044-.11.044-.09s-.044.121-.054.166l-.059.166c-.015.045,0,.02-.02.075-.059.156-.079.236-.143.4.025-.03-.03.08-.02.075q.052-.151.044-.09c.025-.07.025-.04.049-.116a.74.74,0,0,1,.049-.116c-.054.161-.1.281-.163.447a.522.522,0,0,0-.02.07.305.305,0,0,1-.025.07,1.865,1.865,0,0,1-.069.186,1.867,1.867,0,0,1-.059.191,1.381,1.381,0,0,1,.054-.141c-.02.06-.035.1-.039.121q.074-.2.133-.377c.025-.055.049-.126.079-.211.01-.02.01-.015.015-.02a1.488,1.488,0,0,1,.069-.186c-.01.03-.03.085-.039.121a1.02,1.02,0,0,0-.049.141c-.025.06-.054.161-.089.231a.95.95,0,0,0,.079-.186c.044-.116.044-.116.079-.211.01-.005,0,.02,0,.03a1.382,1.382,0,0,1,.054-.141c-.02.055,0,.03-.02.075-.01.03-.01.04-.02.07a.752.752,0,0,0-.044.141c.015-.035.03-.09.039-.09-.03.1-.079.226-.1.306a2.732,2.732,0,0,0-.094.286c.02-.06.015-.025.015-.02-.044.136-.089.261-.123.382-.039.1-.039.121-.074.211-.01.045-.044.131-.054.166.049-.126.064-.191.108-.306-.015.065.015-.035.025-.045.035-.105.044-.121.074-.211,0,.02.039-.11.039-.09-.015.04-.015.05-.03.1a.315.315,0,0,0-.03.1c-.01.02-.03.06-.025.07a.315.315,0,0,0-.03.1c.025-.075.044-.11.064-.161a.6.6,0,0,1,.064-.161c-.01.035-.049.121-.039.116.015-.04.03-.08.044-.116a1.391,1.391,0,0,1,.054-.141c.02-.055.039-.105.059-.166.049-.11.089-.241.133-.352.025-.05,0,.03.015-.02,0,.01.039-.105.035-.065-.025.05-.035.1-.069.186,0,.02-.054.151-.054.166a.906.906,0,0,1,.069-.161c-.039.1-.039.121-.074.211a.315.315,0,0,0-.03.1c0,.005-.015.045-.01.05.035-.085.064-.2.094-.256-.03.105-.074.231-.113.357-.025.07.02-.035.015-.02-.03.08-.025.09-.049.166s-.059.166-.069.216c.015-.035.03-.09.039-.09a.475.475,0,0,1-.035.121c.025-.035.015-.01,0,.055,0,.02-.015.055-.01.05.02-.03.02-.06.03-.07-.015.06-.039.141-.054.191a1.085,1.085,0,0,0,.044-.141.755.755,0,0,1,.039-.116c.01,0-.015.065-.03.121s0,.035-.02.07a.413.413,0,0,0-.025.07c.049-.126.079-.221.113-.331.03-.08.03-.09.059-.166s.03-.1.044-.116a1.69,1.69,0,0,1-.1.331.192.192,0,0,1-.02.07c-.015.04-.015.05-.03.1s-.025.085-.044.146c-.02.075-.079.236-.089.286.118-.311.128-.412.246-.733-.015.075.03-.075.03-.07.035-.065,0,.04,0,.05.059-.136.094-.266.138-.4a1.467,1.467,0,0,1,.089-.231c0,.01-.049.151-.049.166.02-.04.059-.156.074-.186,0,.045-.079.226-.089.286a.209.209,0,0,1,.02-.045c-.02.065-.025.06-.044.116,0,0,0,.005,0,.025.015.015-.089.221-.054.166-.01.06.025-.055.044-.116s.035-.121.049-.141a1.84,1.84,0,0,1-.074.236c.01-.005.025-.045-.01.05.02-.03.079-.226.1-.256,0,.03-.064.186-.064.216a.4.4,0,0,0,.025-.07.372.372,0,0,1,.035-.1c-.01.03-.025.065-.035.1,0,.01-.069.2-.03.121,0-.005,0-.025.01-.025-.01.04-.035.116-.049.166-.01.005-.01.04-.035.1a.523.523,0,0,0-.02.07l.059-.166a.273.273,0,0,0,.03-.065c.025-.08.049-.151.079-.236s.035-.1.054-.141a.934.934,0,0,1-.03.1c-.01.025,0,.02-.01.05s-.03.08-.044.116c0,0,.01,0,0,.025l-.054.166c.064-.181.1-.326.173-.492a.8.8,0,0,1,.039-.121c.02-.045.02-.08.035-.1-.015.06-.074.216-.094.286a.922.922,0,0,1,.044-.116.413.413,0,0,0-.025.07c.015-.045.064-.151.069-.186a1.488,1.488,0,0,1,.069-.186.888.888,0,0,0-.044.141c-.01.035-.049.121-.039.121a.25.25,0,0,1,.03-.07c.039-.126.089-.226.128-.352,0,.015,0,.025,0,.025a.677.677,0,0,1,.079-.156c-.02.065-.03.1-.064.186-.01.04.015.005-.01.075.01.005.039-.07.044-.065-.015.05-.059.2-.035.146a1.719,1.719,0,0,1,.094-.231c.015-.015-.025.08-.015.075.02-.045.035-.1.054-.141.02-.06-.039.08,0-.025a.542.542,0,0,0,.035-.1c.039-.1.044-.116.1-.256.035-.08.084-.221.089-.181-.025.06-.044.126-.069.186,0-.015-.044.131-.049.116.015-.04.044-.116.03-.1-.035.07-.035.1-.074.186,0,.04.039-.105.039-.065-.01.025,0,.02,0,.025-.039.116-.094.246-.118.326.025-.035.025-.03.039-.04.035-.105.1-.281.153-.422,0,0,.03-.075.035-.065s.02-.045.025-.045a1.02,1.02,0,0,0,.049-.141c-.015.06-.035.065-.015.02.025-.065.039-.1.064-.161a1.736,1.736,0,0,1,.094-.231c-.059.156-.089.241-.123.326,0,.04.03-.06.039-.065-.03.08-.069.191-.089.231.01,0-.03.085-.039.121l-.044.116c-.015.03-.044.11-.054.11s.079-.211.044-.141-.049.131-.079.211c-.02.055-.054.141-.059.166.02-.04.02-.06.054-.141.02-.035,0,.005.01.005.02-.06.039-.116.049-.116-.015.04-.015.045-.01.05.015-.04.02-.06.025-.07.015-.03.039-.09.044-.065-.025.075-.044.105-.064.161,0,.02-.01.045-.015.045,0,.02-.01.045-.015.045-.015.05-.059.151-.059.166.025-.07.035-.085.054-.141s.044-.126.069-.186c.035-.075.094-.251.113-.276-.044.116-.089.231-.128.352-.02.05-.03.065-.059.136-.015.055-.03.105-.039.146.035-.085.064-.156.1-.256.01-.005.039-.1.049-.116.035-.085.084-.221.1-.251-.025.08-.044.146-.03.151a.914.914,0,0,0,.054-.141c.01-.02.015-.01.025-.045a.086.086,0,0,1,.01-.025c0-.02.01-.02.01-.02.02-.065.025-.06.044-.116.01-.015.035-.09.039-.09.035-.105.079-.191.094-.256-.039.105-.059.136-.1.256-.01.005-.044.11-.044.09.03-.065.064-.161.1-.256.02-.05.035-.075.064-.161a.7.7,0,0,1,.035-.121.352.352,0,0,0,.03-.07.523.523,0,0,1,.039-.121c.015-.025.02-.02.025-.015a.832.832,0,0,1-.049.141c0,.02-.015.04-.025.07,0-.01-.01.01-.01.02s0-.005,0,0,.049-.126.069-.161.035-.1.054-.141c.01-.03.054-.146.025-.07a.628.628,0,0,1-.059.136c.02-.05,0-.035.02-.07s0-.02.01-.05c.069-.181.084-.206.163-.417a.937.937,0,0,0,.059-.161c-.015.04-.02.045-.025.045.044-.11.039-.105.079-.211s.079-.2.133-.352c.015-.04.02-.045.039-.09a.305.305,0,0,1,.025-.07c.039-.1.123-.316.173-.442l.168-.442c.044-.105.113-.3.168-.442,0-.025-.025.05-.039.09l-.044.116-.1.256c-.01.02-.015.035-.03.07-.025.07-.054.141-.079.211-.044.1-.118.316-.153.367a.413.413,0,0,0,.025-.07c-.025.055-.069.181-.094.231a.259.259,0,0,1-.02.07c-.02.04-.02.06-.054.141l-.059.166c-.01.03-.025.06-.035.1a.086.086,0,0,0-.01.025c-.02.06-.039.1-.044.09.03-.085.059-.151.079-.211,0-.025.02-.065.025-.1a.906.906,0,0,0,.044-.116.454.454,0,0,0,.035-.1c-.049.11-.113.3-.168.442-.01.015-.049.131-.059.136l.1-.281c0-.01.02-.04.035-.1q.022-.045.015-.045c-.03.045-.049.131-.079.181a.509.509,0,0,1,.044-.116c.02-.055.039-.116.049-.116.025-.09.049-.131.074-.211a.455.455,0,0,1,.025-.045s-.01,0,0-.025c.02-.055.01.02.035-.065.01-.02.03-.06.025-.07-.01.02-.035.085-.035.065.054-.136.118-.321.158-.417a.631.631,0,0,1,.054-.166c-.01.005.01-.05.025-.1a.346.346,0,0,1,.059-.136,1.407,1.407,0,0,0-.074.211c.025-.07.035-.085.054-.141,0-.025.054-.146.074-.211s.059-.156.089-.231c.015-.05.054-.156.074-.211a.307.307,0,0,0,.039-.09c-.015.04-.02.045-.01.02.039-.1.03-.08.069-.186.079-.2.153-.417.237-.628.01-.025.02-.05.039-.09.143-.372.266-.713.419-1.12a1.391,1.391,0,0,0,.054-.141.988.988,0,0,1,.044-.116c.02-.06.049-.131.069-.186a.718.718,0,0,1,.039-.09.616.616,0,0,0,.025-.07.055.055,0,0,0,.01-.02.162.162,0,0,1,.015-.045.055.055,0,0,0,.01-.02c.025-.06.039-.116.069-.186s.064-.161.089-.231c.01,0,.025-.08.03-.07a1.117,1.117,0,0,1-.039.116l-.044.116c-.039.105-.069.186-.128.352-.025.085-.1.266-.113.331.054-.146.108-.3.153-.422s.079-.211.113-.3.069-.186.108-.281c.039-.11.064-.161.089-.231.01-.035,0,0,0,0a.213.213,0,0,0,.015-.045c.064-.146.163-.432.227-.578a.471.471,0,0,1,.035-.1c.177-.467.409-1.055.542-1.416.059-.141.084-.226.148-.372a.612.612,0,0,1,.035-.1.661.661,0,0,1,.025-.07c.025-.07.03-.065.059-.141.054-.141.084-.206.118-.3.02-.055.03-.065.059-.136,0-.02-.035.08-.02.02s.069-.171.089-.231c.01-.025.015-.02.035-.065a.6.6,0,0,1,.03-.1c.059-.146.118-.3.163-.417.069-.166.153-.4.246-.623.02-.05.044-.105.069-.161.035-.085.084-.231.143-.372.025-.055.064-.171.074-.186-.015.035-.074.191-.044.116.1-.256.217-.522.3-.763a.6.6,0,0,0,.044-.116c-.015.035,0,0,0-.025.035-.09.069-.171.094-.231.113-.281.217-.537.315-.783a1.133,1.133,0,0,1,.044-.116c.069-.156.168-.427.251-.623.025-.055.015-.05.044-.116.049-.121.094-.231.128-.321.232-.578.493-1.205.749-1.813.01-.01.044-.11.054-.11.084-.221.192-.437.306-.7a.662.662,0,0,1,.025-.07c.079-.171.187-.427.281-.633.074-.151.163-.367.227-.517.01-.015.025-.045.044-.085a.906.906,0,0,0,.044-.116s.044-.1.064-.136.039-.09.064-.136.044-.11.089-.2c0,.005.01-.01.015-.02.01-.04.143-.306.2-.422.084-.176.168-.336.246-.487l.118-.226.059-.11.03-.055,0-.015,0-.005a.554.554,0,0,1,.084-.126.131.131,0,0,1,.03-.025c.015-.005.025.005.035.015a.531.531,0,0,1,.049.06s0,.005.01.01a.46.46,0,0,1,.039.065.2.2,0,0,1,.025.045c.015.025.025.045.039.07l.069.126c.015.025.044.075.069.126a1.015,1.015,0,0,1,.064.131c-.02-.03-.054-.116-.059-.105.02.05.035.06.064.131.094.186.108.221.192.392l.118.241a1.7,1.7,0,0,0,.1.2A.5.5,0,0,1,65.8,7.3c.059.141.153.331.212.472.025.055.049.11.064.136,0,.01.01.045.02.045a.13.13,0,0,0,.02.045c.025.06.054.121.079.181l.163.362a1.032,1.032,0,0,0,.044.116c.025.055.025.045.054.11.064.156.128.286.168.387.177.407.35.819.523,1.23.025.055.015.05.044.116a1.2,1.2,0,0,1,.059.136c.035.09.094.226.128.321.03.07.025.04.054.11.059.136.113.276.173.412a.41.41,0,0,1,.03.065c.168.412.34.829.508,1.24.01.015.049.131.059.136a.212.212,0,0,1-.015-.045c.049.11.079.2.128.321.03.075-.015-.06.02.02.094.241.256.633.36.9.02.05.02.03.035.065a1.25,1.25,0,0,0,.059.166.445.445,0,0,0,.049.116.663.663,0,0,1-.025-.07.661.661,0,0,1,.025.07c.039.1.113.266.138.347,0,.005.02.045.025.045s.015.025.02.045,0,.02.015.05c.025.005-.03-.1-.064-.186s-.089-.221-.108-.281c0-.005-.025-.055-.039-.09s-.03-.075-.044-.116a.319.319,0,0,1-.02-.07.767.767,0,0,1-.059-.136c0-.005,0,.005.015.02s-.054-.126-.039-.116a1.54,1.54,0,0,1-.079-.211,1.183,1.183,0,0,1,.054.141.319.319,0,0,1,.039.09.3.3,0,0,1,.03.07c-.01-.025-.02-.045-.03-.07,0,0,.054.156.049.116.01,0-.03-.08-.044-.116s-.035-.09-.054-.136c0-.02-.02-.055-.035-.1-.03-.08-.059-.141-.084-.206a.143.143,0,0,0,0-.025,1.328,1.328,0,0,1-.069-.186l.064.161a1.7,1.7,0,0,1,.079.181c.025.055.015.05.044.116a.9.9,0,0,0,.039.09c0,.005.015.045.02.045.03.07.059.151.064.136l-.1-.256c-.02-.045,0-.03-.03-.1l-.084-.206a1.035,1.035,0,0,1-.059-.166c.044.121.108.286.158.392.01.03.03.085.054.141a.812.812,0,0,0,.039.116c.025.065-.015-.06.025.045.03.07.025.07.054.141s.054.141.084.206c.015.04.03.075.044.116a.13.13,0,0,0,.02.045l.163.417c0,.02.02.055.035.1l.108.276c.025.055.015.05.044.116s.044.105.069.161.03.075.059.166c.02.055.044.105.064.161.01.03.025.06.035.09a.13.13,0,0,0,.01.025c.035.09.084.211.118.3a.213.213,0,0,1,.015.045.948.948,0,0,0,.059.136c0,.01.01.04.03.1.03.085.044.11.074.186a1.873,1.873,0,0,0-.084-.211c0-.01-.01-.04-.01-.05a.25.25,0,0,1-.02-.045c-.025-.07-.054-.141-.084-.206a.7.7,0,0,1-.049-.141c.148.372.207.537.35.9.02.045.01.05.03.1,0-.03.03.07.054.11.049.146.143.377.212.557.039.1.059.156.113.3.025.025-.079-.191-.054-.166.01.04.049.136.079.211.035.116.049.141.1.281,0-.005-.01-.02-.015-.02a.18.18,0,0,0,.02.045.457.457,0,0,0,.025.045.416.416,0,0,0,.02.07c.03.07.03.085.049.141.059.156.108.271.153.392.039.1.079.206.123.326.015.04.02.05.035.1,0-.01.01.01.01.02a.972.972,0,0,0,.054.141c0,.025.054.146.079.211.01.04.03.07.059.166.1.261.222.567.3.793.01.01.044.116.064.161.025.06.049.126.069.186a.305.305,0,0,0,.025.07c.049.131.1.261.153.4a.305.305,0,0,0,.025.07c.025.07.054.141.079.211l.035.1c0,.02.015.045.02.045.059.156.084.231.133.347a.471.471,0,0,0,.035.1l.187.487c.025.055.015.05.039.116.153.407.325.869.463,1.235a.744.744,0,0,1,.03.07c.01.02.01.035.025.07a.055.055,0,0,1,.01.02c.01.02.015.05.035.1,0,.005,0,0,.01.02s.03.1.049.141.02.045.039.09.015.05.039.116a1.394,1.394,0,0,0,.079.181c-.049-.126-.094-.251-.133-.347-.059-.166-.123-.326-.182-.492-.03-.075-.059-.156-.089-.231-.01-.01-.01-.03-.025-.07s-.03-.075-.044-.116c-.02-.055-.025-.05-.044-.116-.039-.11-.054-.141-.1-.281-.02-.045-.035-.1-.054-.141a.882.882,0,0,1-.035-.1l.079.211c.025.055.059.171.074.186-.049-.161-.128-.347-.192-.512-.138-.362-.281-.743-.434-1.14a.305.305,0,0,0-.025-.07c-.108-.281-.168-.457-.246-.653a.471.471,0,0,0-.035-.1c-.044-.116-.049-.126-.1-.256-.035-.1-.069-.186-.108-.281-.069-.186-.143-.372-.212-.557a.305.305,0,0,0-.025-.07c-.054-.146-.113-.3-.168-.442-.025-.055-.015-.05-.039-.116-.059-.146-.1-.271-.177-.462a.212.212,0,0,1-.015-.045c-.035-.1-.113-.271-.113-.306.054.136.059.156.1.256,0,.005,0,.01.015.05,0-.015,0-.03,0,0,.03.085.044.1.074.186.02.055-.015-.025,0,.025a.739.739,0,0,0,.049.116.934.934,0,0,1-.03-.1,1.117,1.117,0,0,1,.039.116.171.171,0,0,1,.025.07c.01.035.049.121.039.116-.01-.035-.049-.121-.039-.116a.4.4,0,0,1-.025-.07,1.655,1.655,0,0,0,.094.256.583.583,0,0,0,.035.1c.02.045,0,.03.03.1,0,0,.015.025.02.045a.763.763,0,0,1,.044.09.582.582,0,0,0,.035.1c.02.065.064.176.1.281.01.01.054.146.069.161.01.045.059.156.084.236.01.025.015.02.035.065.069.176.1.286.153.422.025.04.064.176.1.256a2.526,2.526,0,0,0,.1.256c-.035-.1-.03-.08-.069-.186,0-.02-.049-.131-.049-.141.049.126.118.316.148.372-.02-.045-.03-.075-.02-.07.044.116.054.141.1.281a1.549,1.549,0,0,0,.064.161,1.02,1.02,0,0,1,.049.141c-.015-.05-.069-.176-.039-.09a.365.365,0,0,1,.025.07.294.294,0,0,1,.025.07c0,.005-.01-.045.01-.005.039.121.059.156.113.3s.069.186.133.347c.054.141.084.231.123.326a.471.471,0,0,0,.035.1c.064.166.1.276.148.4a.305.305,0,0,0,.025.07c.02.06.044.1.035.1.1.241.237.613.325.864.03.07.069.176.108.281.01.035.044.121.069.186,0,.02.049.146.049.116-.044-.1-.074-.216-.118-.326s-.064-.171-.1-.281c-.03-.075-.03-.07-.069-.186a.4.4,0,0,0-.02-.045l-.01-.02a.162.162,0,0,0-.015-.045c-.059-.161-.108-.276-.187-.487-.02-.065-.074-.181-.074-.211.054.136.138.357.222.583.01.01.01.03.025.07.015.01.054.136.079.181.059.161.128.316.153.422a.209.209,0,0,0-.02-.045c.02.04.02.08.035.1a.431.431,0,0,1,.03.065c.079.221.158.4.217.583.025.055.054.131.079.186.01.005.064.176.074.186-.01-.03,0-.025,0,0a.611.611,0,0,0,.035.1.431.431,0,0,1,.03.065c.039.121.1.266.153.422.01,0,.03.08.035.1,0-.005,0,.005.015.02a1.1,1.1,0,0,0,.039.116c.01,0-.015-.06-.035-.121s-.025-.075-.035-.121c0,.015-.02-.03-.03-.07l-.079-.211a.471.471,0,0,0-.035-.1,1.559,1.559,0,0,0-.074-.186c-.044-.136-.133-.362-.2-.537-.039-.116-.084-.226-.163-.447a1.891,1.891,0,0,1-.069-.186c0-.005.035.07.039.065-.01-.03-.035-.1-.059-.166a.171.171,0,0,1-.025-.07c-.074-.216-.187-.5-.256-.7-.02-.055-.025-.05-.044-.116a.471.471,0,0,0-.035-.1c-.02-.045-.035-.1-.064-.161a.242.242,0,0,0-.025-.07.611.611,0,0,0-.035-.1c-.025-.07-.054-.141-.079-.211-.084-.251-.143-.387-.246-.678-.025-.07-.03-.065-.054-.141-.015-.045-.049-.136-.054-.166s-.025-.07-.035-.1a.409.409,0,0,1-.03-.065c0-.035-.059-.161-.084-.236-.02-.045-.035-.1-.054-.141s-.049-.121-.039-.116c.079.191.177.467.266.7,0,0-.02-.04-.025-.045.03.085.049.11.074.186.035.1.064.176.118.326.02.055.025.05.044.116.1.271.232.618.345.934l.113.3s-.01,0,0,.025.015.01.025.045a.611.611,0,0,0,.035.1c.03.085.064.171.1.256.015.035.03.09.039.09-.015-.04-.03-.075-.044-.116-.069-.181-.1-.276-.158-.422-.015-.04-.015-.05-.035-.1-.044-.11-.059-.166-.089-.231-.01-.03-.01-.04-.02-.07a.242.242,0,0,1-.025-.07c-.039-.1-.03-.08-.069-.186-.02-.045,0-.03-.03-.1-.035-.1-.074-.191-.084-.236.044.11.059.161.094.256.025.07.03.065.054.141s.049.131.069.186a.9.9,0,0,1,.039.09c0,.025.064.166.064.191a.21.21,0,0,0-.02-.045c.035.1.089.256.133.352.01.045.094.246.123.326.01.03.025.065.035.1s0,.02,0,.025c.01.025.01.015.01.02.059.151.118.316.192.512.064.181.133.377.212.583.025.055.054.141.079.186s.044.121.069.186c.025.035-.035-.1-.025-.1-.03-.07-.03-.085-.049-.141.03.06-.01-.035-.01-.05-.113-.311-.212-.552-.325-.859a.471.471,0,0,0-.035-.1c0-.005-.015-.045-.02-.045.01.035,0,0-.01-.02-.025-.065.03.05-.01-.05a1.819,1.819,0,0,1-.089-.261.25.25,0,0,0,.03.07c-.01-.035-.049-.121-.039-.116a2.746,2.746,0,0,1,.138.347c.054.141.1.281.158.422.025.065.02.06.039.116.015.02.039.1.059.136.054.156.1.266.153.4,0-.005-.02-.045-.025-.045.02.045.035.1.054.141.03.075.035.065.064.136s.054.141.079.211a.454.454,0,0,0,.025.045c0,.015.025.1.035.1-.03-.075-.01-.04,0-.025a.686.686,0,0,1-.044-.141c-.02-.065-.074-.186-.074-.211a1.381,1.381,0,0,1,.054.141l.059.161c.015.05.059.146.02.045-.01-.03-.025-.06-.035-.1l-.025-.07c-.015-.04-.015-.05-.035-.1-.01-.02-.015-.035-.03-.07-.015-.05-.054-.156-.074-.211-.059-.161-.143-.367-.182-.492a.411.411,0,0,1-.039-.09c-.01-.025,0-.02-.01-.05a3.632,3.632,0,0,1-.133-.347.171.171,0,0,1-.025-.07.4.4,0,0,1,.025.07h0c-.044-.126-.113-.3-.168-.442a1.135,1.135,0,0,0-.039-.121c-.025-.07-.054-.141-.079-.211-.01-.03-.035-.1-.059-.166.01,0-.054-.141-.049-.141a2.9,2.9,0,0,0,.128.326c-.015-.04-.015-.05,0-.025a.4.4,0,0,0,.039.09c.113.3.182.477.276.748.074.191.074.2.143.372h0a1.287,1.287,0,0,1,.059.166c.02.055.025.05.044.116.039.11.035.1.079.211a.557.557,0,0,0,.044.116c-.015-.04-.015-.05,0-.025a.617.617,0,0,1,.025.07.171.171,0,0,1,.025.07.4.4,0,0,1-.025-.07h0c.025.065.064.186.079.211-.015-.04-.03-.08-.044-.116,0,.005.02.045.025.045,0-.02-.049-.131-.044-.141a1.021,1.021,0,0,1-.049-.141c.059.156.069.191.123.326l.128.352a.718.718,0,0,0,.039.09.242.242,0,0,0,.025.07.661.661,0,0,0,.025.07c.035.1.069.186.1.281.059.186.133.362.222.608a.426.426,0,0,0,.035.1c-.025-.08-.084-.236-.128-.352-.01-.04-.049-.126-.064-.191a.209.209,0,0,0,.02.045c-.035-.1-.054-.131-.079-.211.015.025.015.02,0-.025a1.977,1.977,0,0,1-.084-.236c-.01-.025-.025-.06-.044-.116-.025-.075-.054-.156-.089-.261,0-.02-.015-.045-.01-.05-.02-.055-.074-.181-.054-.166.035.1.069.186.1.281,0-.015.035.085.044.09-.02-.06-.035-.116-.074-.211,0,.01.015.025.015.02-.039-.105-.049-.141-.079-.211-.01-.035-.03-.1-.054-.166,0-.02-.054-.146-.054-.166-.03-.085-.035-.1-.074-.211-.015-.06-.044-.11-.054-.166.035.08.079.211.108.306-.01-.045.025.03,0-.05.01,0-.059-.151-.035-.121.108.291.187.512.291.793.015.04.015.05.035.1.039.1.074.2.113.3.02.055.015.05.039.116.054.146.089.251.128.352a.933.933,0,0,0,.03.1,1.437,1.437,0,0,1,.064.186c0-.005.049.146.059.141-.163-.447-.375-1.03-.527-1.451a.661.661,0,0,0-.03-.1c-.044-.121-.064-.191-.1-.281-.02-.065-.074-.186-.074-.211.069.186.128.321.192.487-.01-.005,0,.02.01.05a.541.541,0,0,1,.035.1c0-.01.01.015.025.045.074.2.138.387.2.562.03.085.064.171.094.256s.049.151.069.186a.977.977,0,0,0-.039-.121c0,.01-.01-.01-.01-.02a.554.554,0,0,0-.025-.07c0,.005,0-.01-.01-.02a.306.306,0,0,0-.025-.07.055.055,0,0,1-.01-.02.4.4,0,0,1-.025-.07c-.01-.035-.015-.06-.02-.075-.02-.05-.064-.171-.1-.256-.01-.02,0-.02,0-.025-.035-.1-.064-.186-.1-.281,0,0-.03-.08-.039-.09.015.01-.054-.141-.035-.121.03.08.035.116.074.211a.493.493,0,0,1,.044.116,1.033,1.033,0,0,1,.054.166c0-.005.039.075.02.02s.01.025.015.02c-.025-.07-.03-.08-.01-.05-.025-.06-.044-.126-.069-.186.01.005,0-.01-.01-.05-.084-.221-.143-.407-.217-.608-.02-.065-.074-.186-.074-.211a.25.25,0,0,0,.03.07l-.035-.1a.371.371,0,0,1-.044-.116c.01.03.015.02.025.045a.3.3,0,0,0,.025.07.25.25,0,0,1,.03.07c.074.211.187.5.271.748a.719.719,0,0,0,.039.09c.025.08.089.236.128.352.049.146.123.341.173.467.01.025,0,.02.01.05s.03.075.049.116c.03.1.084.216.108.306.015.035,0-.02.015.02.035.1.074.191.094.256.02.04.059.156.089.231.03.1.108.3.143.4l.153.422a.509.509,0,0,0,.044.116c-.02-.065-.039-.126-.064-.191s-.069-.181-.094-.256c-.025-.055-.054-.151-.094-.256-.02-.055-.025-.05-.044-.116-.03-.09-.084-.231-.128-.352.01.01-.03-.085-.025-.1.044.126.1.281.133.377,0-.02.039.11.039.09-.044-.116-.079-.216-.108-.306-.025-.06-.044-.126-.069-.186-.01-.03-.035-.1-.059-.166,0-.02-.049-.131-.044-.141.064.166.084.241.138.372.03.09.1.261.123.352.01.01.039.11.049.116-.1-.276-.163-.462-.271-.748-.025-.075-.059-.176-.089-.261s-.064-.171-.094-.256c.015.015-.044-.11-.03-.1.044.11.054.156.089.231a.623.623,0,0,0,.044.116c-.025-.07-.03-.08-.01-.05-.035-.1-.059-.146-.1-.256-.01-.035,0,0,0,0-.025-.075-.035-.08-.064-.161a1.869,1.869,0,0,1-.059-.191,1.119,1.119,0,0,0,.059.136c0,.01,0,0,.01.02.03.08.049.131.074.186s.059.171.079.236a1.47,1.47,0,0,0,.074.211c-.035-.09-.03-.11-.069-.216,0-.005-.03-.08-.03-.1s-.02-.06-.03-.1c.01.01-.015-.045-.01-.05-.03-.08-.059-.156-.089-.231a.153.153,0,0,0-.02-.07c.01.035,0,.005-.01-.02.015.015-.01-.05,0-.05a.25.25,0,0,0,.03.07c-.079-.231-.182-.507-.266-.753-.025-.06-.044-.126-.069-.186a1.019,1.019,0,0,1-.049-.141,1.163,1.163,0,0,1,.1.256c.025.06.044.126.069.186s.035.1.049.141l.01.02a.676.676,0,0,0,.03.07c-.025-.07-.054-.141-.079-.211-.015-.045-.03-.085-.044-.141-.03-.08-.049-.131-.069-.186s-.059-.151-.059-.166-.015-.035-.03-.07c0-.005,0-.025-.01-.025-.02-.055-.03-.09-.059-.166-.015-.045-.035-.1-.025-.1.02.08.074.2.094.256,0-.02.039.11.039.09a.213.213,0,0,1-.015-.045c.025.065.02.06.039.116a.677.677,0,0,1,.03.07c0,.01.039.116.059.166a1.379,1.379,0,0,0,.054.141.413.413,0,0,1-.025-.07c.025.075.044.105.064.161.054.141.1.281.158.422l.079.211c.015.04.03.075.044.116s.02.045.01.02a2.092,2.092,0,0,1-.089-.261.305.305,0,0,0-.025-.07,1.02,1.02,0,0,1-.049-.141c-.035-.09,0,.005-.01-.05.03.07.069.2.089.231-.01-.05-.03-.075-.039-.116s-.059-.151-.059-.166c.044.121.054.136.089.231.01.02.015.035.03.07s.015.05.03.1c.03.06.044.136.074.186-.025-.075-.079-.211-.089-.261.015.035.069.191.044.116s-.049-.131-.069-.186-.059-.151-.059-.166.089.241.064.161c-.054-.151-.084-.241-.143-.4a.415.415,0,0,0-.02-.07c-.03-.075-.025-.09-.064-.191,0-.015-.015-.055-.01-.05a1.206,1.206,0,0,0-.059-.136c0-.03-.079-.206-.084-.236a1.419,1.419,0,0,1-.069-.186c-.064-.156-.1-.266-.168-.442A.212.212,0,0,1,73.724,25c-.02-.055-.039-.11-.059-.161s-.064-.186-.089-.261c0,.005-.015-.035,0,0,.03.06.039.105.074.186s.03.075.059.166a.4.4,0,0,0,.039.09c-.01,0,.03.085.039.116s.02.06.025.07c.015.04.03.08.044.116a.365.365,0,0,0,.025.07c-.01-.035,0-.005.01.02s.044.121.044.116c-.039-.1-.074-.2-.113-.3-.01-.035-.049-.121-.039-.116a.454.454,0,0,1-.035-.1c.015.025.089.241.074.186-.094-.241-.153-.422-.242-.653-.015-.035,0-.02-.02-.07a1.36,1.36,0,0,1-.059-.166c.03.085.049.11.074.186s.089.231.108.306c.064.161.113.316.158.422a.615.615,0,0,0,.025.07.242.242,0,0,1,.025.07.412.412,0,0,1,.025.07c.03.075.059.156.089.236l-.01.005a.28.28,0,0,1,.03.1c.025.07.079.2.084.236-.03-.08-.059-.156-.089-.231s-.074-.2-.089-.231c.059.166.123.326.182.492a.233.233,0,0,0,.035.065c.015.035.03.09.039.09,0-.02-.054-.166-.025-.1s.069.186.113.3.089.231.128.352c0,.015.01.025.01.02l-.079-.211c.01.005-.049-.131-.025-.1a1.965,1.965,0,0,0,.079.211c.049.121.084.241.108.281-.054-.141-.079-.226-.138-.377-.01-.04-.03-.1-.044-.146a1.691,1.691,0,0,1-.064-.161c-.025-.08-.084-.226-.108-.306-.025-.06-.044-.126-.069-.186s-.064-.176-.069-.211c.049.11.113.3.168.442a.305.305,0,0,0,.025.07c.064.166.079.211.128.352.025.065.02.06.039.116a.9.9,0,0,1,.039.09.25.25,0,0,0,.03.07c-.025-.07-.054-.141-.079-.211a.47.47,0,0,0-.035-.1c-.03-.085-.064-.171-.094-.256-.015-.05-.064-.171-.074-.211.113.3.2.552.311.844.025.075.069.2.108.306l.015.045-.015-.045a.18.18,0,0,0-.02-.045c-.015-.04-.03-.08-.044-.116a.933.933,0,0,0-.03-.1c-.03-.08-.059-.156-.089-.231-.02-.055-.015-.055-.039-.116-.044-.116-.094-.251-.108-.306.03.07.044.146.059.166,0-.015-.039-.11-.039-.121.039.1.074.2.113.3.02.045.035.1.054.141a.921.921,0,0,0,.044.116c-.015-.04-.03-.075-.044-.116,0-.01-.02-.04-.015-.05l-.044-.116a.882.882,0,0,1-.035-.1.209.209,0,0,0,.02.045c-.02-.055-.015-.055-.039-.121,0,.005.02.045.025.045-.02-.055-.069-.166-.069-.186.02.055.039.085.064.161.015.035.069.191.044.116-.02-.045-.035-.1-.054-.141,0-.02-.054-.151-.054-.166a.25.25,0,0,0,.03.07c-.039-.1-.035-.11-.064-.191-.118-.336-.242-.653-.325-.889,0,.005-.015-.035,0,0a.25.25,0,0,1,.03.07.413.413,0,0,1,.025.07c.015.03.039.1.064.161.015.035,0-.005,0,0a.209.209,0,0,0,.02.045c.02.065.025.045.039.09.069.171.153.4.232.608.02.045.035.085.059.136a2.851,2.851,0,0,0,.118.3c-.025-.065-.044-.121-.02-.07l-.232-.633c-.015-.035-.015-.045-.025-.07a.055.055,0,0,1-.01-.02.273.273,0,0,0-.015-.05c0-.015-.01-.025-.01-.02a.161.161,0,0,0-.015-.045c-.108-.3-.217-.573-.35-.934a.305.305,0,0,0-.025-.07c-.084-.216-.163-.437-.246-.653a.583.583,0,0,0-.035-.1c-.01-.02-.01-.02,0-.025.025.04.084.211.128.326.1.271.173.477.276.748.02.055.039.11.059.161.015.035.044.121.044.116l-.123-.326c-.02-.055-.039-.11-.059-.161a.32.32,0,0,1-.03-.1c.02.055.035.09.044.116.03.1.044.11.074.211.015.04.054.126.064.161s0,.01.02.045.015.05.035.1c.059.141.113.316.2.537.02.075.069.191.089.261a1.286,1.286,0,0,1,.049.141,1.381,1.381,0,0,0,.054.141c-.094-.271-.2-.557-.286-.824-.01,0-.035-.1,0,0,.01,0-.03-.085-.039-.121,0,.005.02.045.025.045-.039-.1-.035-.1-.079-.211,0-.005-.035-.1-.015-.075.039.1.074.2.113.306a.3.3,0,0,1,.03.07.364.364,0,0,0,.025.07c-.02-.065-.044-.136-.069-.211-.074-.2-.1-.271-.168-.442-.025-.065-.02-.06-.039-.116a.461.461,0,0,1-.044-.116c0-.02-.025-.065-.02-.07-.064-.161-.177-.462-.276-.723-.025-.055-.015-.05-.039-.116s-.03-.065-.054-.141-.084-.226-.108-.306c-.173-.447-.3-.809-.453-1.215,0-.02-.054-.141-.035-.121,0-.01,0-.015-.01-.025,0,.005-.015-.035,0,0,.01,0-.039-.09-.049-.141a.543.543,0,0,1-.035-.1c0,.01-.02-.03-.044-.09,0,.005.02.045.025.045-.035-.1-.049-.121-.084-.211s-.044-.131-.079-.211c-.01-.03-.01-.04-.02-.07-.03-.055-.049-.146-.084-.211,0-.02-.074-.191-.074-.211-.148-.357-.306-.814-.429-1.115-.064-.171-.177-.457-.286-.743-.02-.055-.03-.065-.054-.141s-.02-.07-.049-.141c-.069-.171-.084-.216-.153-.4-.015-.04-.025-.05-.039-.09a.6.6,0,0,0-.039-.09c.035.1.044.116.089.231.015.04.015.05.035.1a1.02,1.02,0,0,1,.049.141c.1.241.222.578.335.859a.9.9,0,0,1,.039.09c.113.291.168.457.246.653s.177.472.261.7a.471.471,0,0,0,.035.1c.049.126.094.246.143.372.015.04.015.05.035.1.025.06.049.126.069.186s.015.05.039.116a.882.882,0,0,1,.035.1c-.035-.1-.094-.241-.113-.306-.015-.025-.035-.085-.049-.116-.03-.075-.049-.141-.079-.211-.069-.186-.148-.392-.222-.583,0-.02-.02-.04-.03-.07-.025-.065-.044-.121-.069-.186s-.039-.11-.064-.161-.089-.226-.113-.3c0-.01-.01-.03,0-.025a.322.322,0,0,0-.02-.045c-.074-.2-.192-.5-.276-.723a.18.18,0,0,0-.02-.045h0c-.01-.03-.02-.04-.02-.045-.02-.055-.025-.07-.044-.116s-.035-.085-.049-.116c-.074-.186-.143-.372-.2-.537-.02-.045-.044-.1-.059-.136a.24.24,0,0,0-.015-.045l-.01-.02c-.01-.03-.025-.07-.044-.116-.015-.015-.049-.131-.074-.186a1.249,1.249,0,0,1-.059-.166c.02.05.02.03.035.065s0,.025.02.07a1.179,1.179,0,0,1,.054.136l.035.1c.01.025.01.01,0,0l-.064-.161c-.01-.025,0-.02-.015-.05,0,0-.015-.03-.02-.045-.02-.045,0-.035-.03-.1a.9.9,0,0,0-.059-.136c-.069-.2-.153-.4-.237-.6-.015-.035-.03-.085-.044-.116l-.064-.161c0,.01,0-.02,0-.025-.035-.1-.108-.271-.148-.372-.015-.04-.02-.05-.035-.1,0-.02-.02-.035-.03-.07a.144.144,0,0,0,0-.025c-.01-.02-.025-.055-.049-.116-.035-.08-.064-.161-.089-.231-.015-.04-.03-.08-.044-.116s-.035-.085-.049-.116c-.054-.136-.1-.281-.158-.392-.084-.251-.271-.693-.38-.979-.03-.06-.049-.126-.074-.186-.01-.025-.025-.05-.039-.09s-.02-.05-.035-.1-.025-.045-.039-.09a.143.143,0,0,0,0-.025c-.015-.04-.064-.166-.094-.231-.025-.05,0-.01-.039-.09a.782.782,0,0,0-.039-.1c-.03-.08-.025-.06-.044-.116s-.064-.156-.094-.231c-.044-.116-.049-.11-.084-.206-.069-.151-.108-.261-.182-.437-.069-.151-.108-.276-.163-.392-.015-.045-.02-.06-.039-.116-.089-.2-.143-.331-.207-.507-.03-.06-.03-.07-.059-.136s-.054-.131-.069-.161a.616.616,0,0,0-.025-.07.352.352,0,0,1-.03-.07s-.015-.03-.02-.045c0-.03-.049-.121-.059-.166-.039-.1-.035-.08-.079-.186-.118-.261-.237-.573-.36-.854a.327.327,0,0,1-.03-.07c0,.005-.025-.03-.039-.065s0-.02-.015-.05a.552.552,0,0,1-.064-.136c-.015-.04-.039-.1-.044-.116C67.7,9,67.7,9,67.661,8.914c-.1-.251-.276-.623-.409-.939-.039-.08-.069-.166-.113-.251,0-.025-.039-.1-.054-.141-.044-.09-.074-.161-.133-.3-.02-.04-.02-.05-.039-.09s-.035-.08-.074-.161c-.03-.06-.059-.121-.084-.181-.153-.321-.306-.638-.468-.954a.934.934,0,0,1-.079-.161c-.03-.055-.039-.065-.074-.136a.3.3,0,0,0-.02-.04.376.376,0,0,0-.035-.06c-.074-.131-.123-.211-.168-.281-.025-.035-.044-.07-.074-.116a1.541,1.541,0,0,0-.1-.136,1.424,1.424,0,0,0-.37-.367.645.645,0,0,0-.2-.085.7.7,0,0,0-.118-.025c-.039.005-.084.015-.118.02a.6.6,0,0,0-.2.085,1.2,1.2,0,0,0-.1.07c-.03.03-.064.05-.094.085a2.327,2.327,0,0,0-.34.452c-.054.085-.1.171-.153.256l-.059.105-.044.08c-.059.105-.113.216-.168.321-.108.216-.217.427-.315.643-.02.04-.02.05-.039.09a.748.748,0,0,0-.044.09c-.02.04-.02.05-.039.09a.66.66,0,0,0-.035.065c0-.01,0,.015-.01.025l-.079.161a.568.568,0,0,1-.039.09c-.035.07-.02.045-.054.116a1.161,1.161,0,0,0-.059.141c0-.005,0-.015.01-.025.02-.045.059-.141.059-.11-.035.07-.128.3-.108.226-.03.07-.064.126-.074.161.015-.04.02-.04.025-.045-.02.04-.059.141-.059.11C62.874,7.779,62.869,7.794,62.859,7.809Zm1.257-2.546a2.563,2.563,0,0,1,.2-.316c0,.01.089-.11.123-.151s.015-.01,0,.005l-.074.09a.592.592,0,0,0-.064.09l-.064.09C64.2,5.132,64.156,5.2,64.116,5.263Zm.513-.643a.7.7,0,0,1,.251-.136A1.041,1.041,0,0,0,64.629,4.62Zm.281-.136c-.015,0,.02-.01.03-.01S64.92,4.479,64.91,4.484Zm.458.11c-.015-.01.02.01.03.015S65.378,4.6,65.368,4.595ZM63.791,5.85a1.771,1.771,0,0,1-.1.206c-.039.075-.074.151-.113.226a1.218,1.218,0,0,0-.054.116.422.422,0,0,1-.035.07,1.687,1.687,0,0,0-.094.206c-.064.131-.118.251-.173.367-.035.06-.074.156-.118.251a.25.25,0,0,1,.02-.045c.015-.05.049-.1.074-.161,0,.01,0-.02.01-.025a.4.4,0,0,1,.02-.045.385.385,0,0,1,.035-.065c.01-.025.03-.075.059-.136,0-.01.015-.03.015-.02.025-.055.049-.105.074-.161C63.52,6.382,63.648,6.121,63.791,5.85Zm.039-.065a.437.437,0,0,1,.035-.07c.01-.02.025-.045.035-.07a.438.438,0,0,1-.035.07A.462.462,0,0,0,63.83,5.785Zm.094-.186c-.01.01,0-.02.01-.025S63.929,5.594,63.924,5.6Zm1.73-.723a.42.42,0,0,1,.049.06Zm.237.336.044.075C65.93,5.3,65.768,5.016,65.891,5.212Zm.059.11a.9.9,0,0,1,.064.105.553.553,0,0,1,.039.075.2.2,0,0,1,.025.045c.03.055.059.11.069.136-.01-.005-.059-.11-.089-.156-.015-.025-.039-.075-.054-.1A1.114,1.114,0,0,0,65.95,5.323Zm.232.4c.044.09.128.251.187.367-.015-.02-.064-.126-.108-.2C66.231,5.83,66.162,5.72,66.182,5.725Zm.207.412c0-.015.01.015.015.02S66.389,6.146,66.389,6.136Zm1.489,3.294c.03.07.035.085.054.141.01,0,.039.1,0,0A.973.973,0,0,1,67.877,9.431ZM71,17.2c0-.01.01.015.01.02S71.008,17.215,71,17.2ZM57.634,20.846c0,.01,0-.02,0-.025S57.639,20.841,57.634,20.846ZM65.423,4.64c0-.005.035.025.054.045C65.472,4.685,65.442,4.655,65.423,4.64ZM55.835,25.627a.663.663,0,0,1,.025-.07c.01-.03.025-.06.035-.1a.661.661,0,0,1-.025.07C55.86,25.567,55.845,25.6,55.835,25.627Zm-.1.256c.015-.02-.015.055-.03.1A.7.7,0,0,1,55.737,25.883Zm.207-.537a.661.661,0,0,1,.025-.07A.662.662,0,0,1,55.944,25.346Zm15.192-7.789c0,.025-.035-.07-.049-.116C71.1,17.461,71.111,17.5,71.136,17.557Zm-2.346-5.886c-.01-.005-.049-.121-.064-.136-.025-.06-.054-.131-.069-.161-.049-.121-.1-.246-.153-.372a.321.321,0,0,1-.035-.1c-.02-.035-.059-.136-.089-.206.01,0,.015.03.044.09a.327.327,0,0,1,.03.07c0,.01.01.03,0,.025.01.03.039.075.059.141.064.156.148.367.2.482A1.708,1.708,0,0,1,68.789,11.671ZM58.66,18.2c0,.015-.01.03-.025.07-.01.02,0,.02,0,.025-.02.05-.044.116-.074.186a.143.143,0,0,1,0,.025c0,.005,0,0-.01.02-.015.035-.015.045-.025.07-.02.05-.039.1-.074.186-.044.11-.089.226-.123.326a1.429,1.429,0,0,1,.074-.211C58.472,18.691,58.576,18.42,58.66,18.2Zm9.573-7.89a1.192,1.192,0,0,1-.064-.136C68.168,10.149,68.208,10.265,68.232,10.31Zm.015.05s.015.025.02.045C68.267,10.405,68.252,10.375,68.247,10.36Zm.039.09c.015.015.054.131.079.181,0,.02-.044-.11-.044-.09A.8.8,0,0,1,68.287,10.45Zm.582,1.406c.1.256.133.336.242.6-.044-.09-.1-.251-.158-.367-.03-.07-.025-.07-.054-.141C68.883,11.912,68.848,11.836,68.868,11.857ZM58.7,18.1a.662.662,0,0,1,.025-.07A.662.662,0,0,1,58.7,18.1Zm.035-.09s.01-.03.015-.05l.02-.045c.015-.04.03-.075.044-.116a.612.612,0,0,1-.035.1C58.768,17.933,58.753,17.973,58.738,18.014Zm.242-.628c.02-.02-.03.09-.049.141a1.323,1.323,0,0,1-.059.141c-.01.03-.025.06-.035.09s0-.015.015-.045.03-.075.044-.116C58.926,17.521,58.95,17.456,58.98,17.386Zm10.174-4.811a.352.352,0,0,1,.03.07A.25.25,0,0,1,69.154,12.575Zm4.673,12.118c-.015-.025-.054-.146-.084-.211-.015-.045-.035-.085-.054-.141a.068.068,0,0,1,0-.025c-.015-.04-.02-.04-.03-.07a.09.09,0,0,0,0-.025.9.9,0,0,0-.039-.09.306.306,0,0,0-.025-.07c-.039-.105-.079-.2-.118-.3-.074-.186-.153-.4-.222-.583-.035-.1-.1-.286-.153-.422s-.069-.176-.1-.281c0-.025.025.05.039.09s.03.06.025.07c.044.105.1.271.148.4s.059.156.108.281c.064.171.148.4.242.653C73.625,24.171,73.758,24.492,73.827,24.693Zm-17.948.869c0,.01,0-.02,0-.025S55.88,25.557,55.88,25.562Zm.039-.116a.662.662,0,0,1,.025-.07C55.949,25.381,55.929,25.421,55.919,25.446ZM59,17.341s.01-.03.015-.05C59.019,17.3,59.01,17.32,59,17.341Zm9.341-6.725c0-.01.01.015.01.02S68.351,10.621,68.346,10.616ZM55.82,25.727s.01-.03.015-.045A.432.432,0,0,0,55.82,25.727Zm.035-.1s.01-.03.015-.045ZM67.039,7.588c0-.01.01.015.015.02S67.039,7.593,67.039,7.588Zm6.955,17.547c.025.09-.039-.085-.059-.136C73.955,25.019,73.97,25.1,73.995,25.135ZM67.1,7.723s.015.025.025.045C67.118,7.769,67.1,7.743,67.1,7.723Zm.089.206c.015.02.064.146.094.206.015.04.035.075.049.116l.03.07c0,.005,0-.01-.015-.02C67.266,8.1,67.256,8.085,67.187,7.929ZM69.8,14.252c.059.146.094.231.148.372.266.683.419,1.035.646,1.647.03.075.044.1.074.186s.069.191.079.211c0-.005.01.015.01.02.049.116.089.231.143.372a1.84,1.84,0,0,1-.094-.231l-.118-.3-.108-.276c-.035-.07-.059-.161-.094-.231a1.741,1.741,0,0,1-.059-.166c-.01-.04-.049-.116-.084-.211a.264.264,0,0,0-.03-.07c-.02-.045-.035-.09-.054-.141s-.03-.075-.044-.116c-.01,0-.025-.08-.03-.07-.064-.171-.128-.326-.192-.487s-.123-.316-.182-.462a.3.3,0,0,0-.025-.07c-.02-.025-.044-.126,0,0C69.795,14.227,69.795,14.232,69.8,14.252Zm1.129,2.878c.015.015.049.131.074.186a1.038,1.038,0,0,1,.059.166C71.022,17.351,70.968,17.23,70.934,17.13Zm-1.242-3.154c0,.015.015.03.02.045S69.642,13.845,69.691,13.976Zm.035.09c0-.01.01.015.01.02S69.726,14.076,69.726,14.066Zm4.037,10.541s.015.03.02.045S73.768,24.628,73.763,24.607Zm-18.5,2.827c0,.01,0-.02,0-.025S55.263,27.43,55.263,27.435Zm18.751-2.014c0-.01.01.015.01.02S74.014,25.426,74.014,25.421Zm-.108-.276c0-.01.049.126.025.07C73.931,25.22,73.906,25.145,73.906,25.145Zm.035.09s.015.03.02.045C73.955,25.28,73.945,25.255,73.94,25.235Zm.049.141c.015.03,0,.015,0,0C73.98,25.346,73.99,25.361,73.99,25.376ZM55.268,27.465c0,.01,0-.02,0-.025S55.268,27.46,55.268,27.465Zm18.554-2.506s.015.03.02.045a.4.4,0,0,1,.025.07s-.015-.03-.02-.045A.619.619,0,0,0,73.822,24.959Zm0,.005c0-.01.01.015.01.02S73.822,24.969,73.817,24.964Zm-15.34-5.851c0,.01,0-.02,0-.025S58.477,19.108,58.477,19.113Zm10.978-5.369c0,.025-.039-.09-.059-.136C69.41,13.629,69.435,13.7,69.455,13.745Zm.163.417c0-.01.01.015.01.02S69.622,14.172,69.617,14.162ZM69.47,13.8s.015.03.02.045A.21.21,0,0,1,69.47,13.8Zm.025.07s.015.025.02.045A.25.25,0,0,0,69.494,13.865Zm.03.07c0-.01.01.015.01.02S69.524,13.941,69.524,13.936Zm.03.065c0-.01.01.015.01.02S69.553,14.011,69.553,14Zm.015.05s.015.03.02.045A.25.25,0,0,0,69.568,14.051ZM55.125,28.1c0,.01,0-.02,0-.025S55.13,28.1,55.125,28.1ZM66.645,7.161s.015.025.025.045C66.665,7.206,66.655,7.181,66.645,7.161Zm.054.116s.015.025.025.045C66.719,7.322,66.7,7.291,66.7,7.276Zm7.463,18.863a.18.18,0,0,0,.02.045C74.172,26.194,74.113,26.014,74.162,26.139Zm.02.07c0,.005.079.191.059.166A1.52,1.52,0,0,1,74.182,26.209Zm-1.02-2.7c0-.015.01.015.01.02S73.167,23.513,73.162,23.508Zm.587,1.562a.054.054,0,0,1,.01.025A.086.086,0,0,1,73.748,25.069Zm.3.793c.01.03,0,.015,0,0C73.995,25.742,74.044,25.833,74.044,25.863Zm.015.05a.351.351,0,0,1,.03.07A.575.575,0,0,1,74.059,25.913ZM55.544,27.118s.01-.03.015-.05C55.559,27.068,55.549,27.1,55.544,27.118Zm-.173.467c0,.01,0-.02,0-.025S55.377,27.58,55.372,27.586Zm-.035.1.015-.045C55.357,27.631,55.347,27.661,55.337,27.681Zm18.327-2.767a.086.086,0,0,1,.01.025A.086.086,0,0,1,73.664,24.914Zm-.256-.673a.25.25,0,0,1,.03.07l.025.07a.25.25,0,0,1-.03-.07A.294.294,0,0,0,73.408,24.241Zm.1.306s.015.025.02.045C73.526,24.592,73.517,24.567,73.507,24.547Zm.73,2.175s.015.025.02.045C74.256,26.767,74.246,26.742,74.236,26.722Zm-.5-1.22c0-.02.113.286.03.1-.02-.025-.044-.126,0,0C73.783,25.612,73.738,25.511,73.738,25.5Zm.3.874a.921.921,0,0,1,.044.116c.02.045.035.1.054.141s.03.09.059.166a.493.493,0,0,1-.044-.116c-.02-.045-.035-.1-.054-.141S74.064,26.451,74.034,26.375Zm-18.781,2.31c.025-.03-.03.08-.02.075-.025.06-.049.136-.064.161,0-.01.02-.06.03-.1S55.229,28.746,55.253,28.685ZM73.97,26.561c.01.03.025.06.035.1.025.075-.02-.04-.03-.07a.137.137,0,0,0,.01.05C73.975,26.616,73.955,26.536,73.97,26.561ZM55.16,29.022s.01-.03.015-.045C55.18,28.977,55.165,29.007,55.16,29.022Zm-.01.025a.428.428,0,0,1-.039.121C55.12,29.147,55.13,29.107,55.15,29.047ZM74.064,26.9s.015.03.02.045A.251.251,0,0,0,74.064,26.9Zm-18.815,2c.02-.02-.03.1-.044.141-.039.1,0,.005.015-.045S55.234,28.941,55.249,28.9Zm.01-.02c0,.01,0-.02,0-.025S55.263,28.871,55.258,28.876Zm.02-.045a.662.662,0,0,1,.025-.07S55.288,28.8,55.278,28.831Zm18.3-3.164s.015.025.02.045C73.6,25.717,73.586,25.687,73.581,25.667ZM55.145,29.208a.662.662,0,0,1,.025-.07S55.155,29.177,55.145,29.208Zm18.426-3.536c0-.01.01.015.01.02S73.571,25.682,73.571,25.672Zm-1.676-4.234a1.369,1.369,0,0,1,.074.186c.025.075-.02-.04-.03-.07S71.91,21.474,71.895,21.439Zm.261.7a.6.6,0,0,1,.049.141,1.689,1.689,0,0,1-.064-.161C72.112,22.016,72.215,22.287,72.156,22.137Zm.059.161c0-.01.01.015.01.02S72.22,22.307,72.215,22.3Zm.025.045c.03.07.03.085.049.141.049.136.108.271.133.352.044.121.1.261.128.352a.623.623,0,0,1-.044-.116c-.01,0-.03-.08-.035-.1a.4.4,0,0,0-.039-.09c-.025-.07-.064-.181-.1-.281l-.064-.161C72.255,22.4,72.22,22.322,72.24,22.343Zm-.123-.3c0-.015.01.015.01.02S72.122,22.051,72.117,22.046Zm.449,1.185a.25.25,0,0,1,.03.07A.25.25,0,0,1,72.565,23.231Zm.069.186s.015.025.02.045C72.654,23.467,72.644,23.437,72.634,23.417Zm.035.1s.015.025.02.045A.25.25,0,0,0,72.669,23.513Zm.035.1s.015.03.02.045A.25.25,0,0,0,72.7,23.608Zm.069.186c0-.01.01.015.01.02S72.772,23.8,72.772,23.794Zm.02.045a.25.25,0,0,1,.03.07.4.4,0,0,1,.025.07l.059.161a.25.25,0,0,1-.03-.07.4.4,0,0,1-.025-.07C72.831,23.95,72.812,23.894,72.792,23.839Zm.631,1.7s.015.03.02.045C73.443,25.587,73.433,25.562,73.423,25.542Zm.128.352c-.03-.09.03.045.02.045.01.035.049.121.039.116-.01-.035-.049-.121-.039-.116C73.566,25.923,73.556,25.893,73.551,25.893Zm-.73-1.933c0-.015.01.015.01.02S72.822,23.97,72.822,23.96Zm-17.4,4.821a1.359,1.359,0,0,1,.059-.166C55.48,28.655,55.446,28.715,55.426,28.781Zm0,.131c-.01.055-.054.151,0,0Zm17.095-5.579a.086.086,0,0,1,.01.025A.086.086,0,0,1,72.516,23.332Zm.035.1s.015.025.02.045A.25.25,0,0,0,72.55,23.427Zm.163.417a1.222,1.222,0,0,1-.069-.161C72.649,23.658,72.688,23.789,72.713,23.844Zm-.138-.347a.352.352,0,0,1,.03.07A.574.574,0,0,1,72.575,23.5Zm.054.141c0-.01.01.015.01.02S72.629,23.643,72.629,23.638Zm.128.347c0-.015.01.015.01.02S72.762,23.995,72.757,23.985Zm-17.164,4.51c-.01.035-.03.1-.054.166C55.52,28.675,55.574,28.55,55.594,28.495Zm17.391-3.9a.628.628,0,0,1-.059-.136A1.4,1.4,0,0,1,72.984,24.592Zm-.232-.578c0-.01.01.015.01.02S72.757,24.02,72.753,24.015Zm-.133-.347a.25.25,0,0,1,.03.07.4.4,0,0,1,.025.07.352.352,0,0,1-.03-.07Zm.276.743s.015.025.02.045C72.915,24.457,72.905,24.432,72.9,24.412Zm-1.75-4.605s.015.03.02.045C71.16,19.852,71.15,19.826,71.146,19.806Zm.044.116a1.38,1.38,0,0,1,.054.141c.015.04.049.116.03.1C71.249,20.068,71.219,20.007,71.19,19.922Zm.242.653c.02.03.064.161.094.231s.059.156.089.231c-.015-.02-.039-.1-.059-.136C71.5,20.751,71.486,20.715,71.431,20.575Zm.187.487a.352.352,0,0,1,.03.07A.25.25,0,0,1,71.619,21.062Zm-.306-.788c0-.01.01.015.01.02S71.313,20.283,71.313,20.273Zm.35.959c-.01-.01-.044-.116-.064-.161h0c-.059-.131-.138-.362-.207-.532,0-.02.054.126.079.186,0,.02.02.045.015.045.015.03.039.1.064.161.01.02.02.045.02.045.015.04.025.075.035.1,0-.005,0-.005,0-.025,0,0,0,0,.01.02a.4.4,0,0,1,.025.07.209.209,0,0,1-.02-.045c0,.035.044.126.054.166.025.06.02.015.044.09-.03-.055.01.05.025.1.01.025.025.045.035.065a1.553,1.553,0,0,0,.064.161c-.025-.045,0,.01.01.05-.02-.03-.054-.141-.074-.186,0,0,.01.015.015.02-.02-.065-.025-.045-.035-.065s-.035-.1-.059-.166h0C71.693,21.293,71.638,21.157,71.663,21.233Zm.187.462a.351.351,0,0,1,.03.07A.575.575,0,0,1,71.85,21.695Zm.059.141a.615.615,0,0,1,.025.07c.02.06.084.2.064.191C71.988,22.051,71.895,21.835,71.91,21.835Zm.286.768s.015.03.02.045l.02.045c.015.04.03.075.044.116.025.07.054.141.079.211,0-.005-.025-.055-.039-.09s-.03-.075-.044-.116C72.25,22.739,72.22,22.674,72.2,22.6Zm-.187-.487a.352.352,0,0,1,.03.07c.01.03.025.06.035.1a1.551,1.551,0,0,0,.064.161.25.25,0,0,1-.03-.07c-.01-.03-.025-.06-.035-.09C72.048,22.222,72.028,22.167,72.008,22.117Zm.133.347s.015.025.02.045C72.156,22.508,72.146,22.483,72.141,22.463Zm.025.07c0-.01.01.015.01.02S72.166,22.538,72.166,22.533Zm-.887-2.325c0-.015.01.015.01.02S71.279,20.213,71.279,20.208Zm.044.116s.015.025.02.045C71.343,20.369,71.333,20.344,71.323,20.324Zm.035.1c0-.01.01.015.01.02S71.362,20.424,71.358,20.419Zm.015.045s.015.025.02.045C71.387,20.509,71.377,20.484,71.372,20.464Zm1.1,2.913s.015.025.02.045a.4.4,0,0,1,.025.07s-.015-.03-.02-.045S72.486,23.4,72.476,23.377Zm-.5-1.276c0-.015.01.015.01.02S71.979,22.106,71.979,22.1Zm.025.07a.315.315,0,0,1,.039.09c.02.045.035.1.054.141s.01.04,0,0A2.22,2.22,0,0,1,72,22.172Zm.2.537a.352.352,0,0,1,.03.07A.574.574,0,0,1,72.2,22.709Zm.281.743c-.01-.01-.1-.241-.054-.116-.02-.03-.035-.105-.059-.161,0,0,.015.03.02.045,0-.02-.049-.131-.069-.186s-.044-.126-.079-.211c-.01-.035,0-.005.01.02a.4.4,0,0,1,.025.07c.01.035.049.121.039.116.01.02.015.035.03.07C72.383,23.191,72.437,23.332,72.481,23.452Zm0,.025a.319.319,0,0,1,.02.045A.251.251,0,0,1,72.486,23.477Zm.035.1a1.02,1.02,0,0,1,.069.186C72.58,23.724,72.545,23.638,72.521,23.573Zm-.311-.819c.025.045.079.2.1.256.01.02.015.035.03.07A2.118,2.118,0,0,1,72.21,22.754Zm.8,2.124s.015.03.02.045C73.024,24.924,73.014,24.894,73.009,24.879Zm-.449-1.19c-.025-.035-.064-.181-.118-.3-.025-.075.035.08.044.116A1.457,1.457,0,0,1,72.56,23.688Zm.153.447a.25.25,0,0,1,.03.07C72.738,24.2,72.728,24.166,72.713,24.135Zm.035.1c0-.015.01.015.01.02S72.753,24.236,72.748,24.231Zm.108.276a.351.351,0,0,1,.03.07A.25.25,0,0,1,72.856,24.507Zm-.182-.357a1.381,1.381,0,0,1-.054-.141c-.02-.055-.039-.11-.059-.161-.049-.126-.079-.216-.133-.352a.718.718,0,0,0-.039-.09.144.144,0,0,0,0-.025c-.039-.1-.094-.251-.148-.4-.035-.09-.049-.11-.084-.206-.039-.11-.064-.176-.1-.281,0,.015-.025-.09-.039-.09,0-.015-.044-.11-.039-.121-.069-.166-.143-.382-.207-.532a1.02,1.02,0,0,0-.049-.141c-.02-.045-.035-.09-.054-.141-.039-.105-.054-.141-.079-.211.01.01.044.116.064.161.03.075.039.11.059.166s.054.141.074.186.039.1.069.186c.074.216.2.532.276.748.069.176.133.357.2.537.035.09.044.131.084.236.02.045.035.1.054.141a.364.364,0,0,0,.025.07A3.543,3.543,0,0,1,72.674,24.15ZM71.52,21.077s.015.025.02.045C71.535,21.122,71.525,21.092,71.52,21.077ZM72.693,24.2a.351.351,0,0,1,.03.07A.25.25,0,0,1,72.693,24.2ZM71.6,21.313c.015.04.049.126.035.121C71.624,21.388,71.589,21.308,71.6,21.313ZM55.86,28.2s.01-.03.015-.05C55.875,28.153,55.865,28.178,55.86,28.2Zm.049-.141c0,.01,0-.02,0-.025S55.914,28.053,55.909,28.058Zm15.655-6.815c0-.01.01.015.01.02S71.569,21.253,71.565,21.243Zm.118.306a.739.739,0,0,1,.049.116c-.01-.015-.015-.02-.02-.02-.01-.025,0-.02,0-.025A.745.745,0,0,1,71.683,21.549Zm.734,1.954a.25.25,0,0,1,.03.07C72.442,23.568,72.432,23.533,72.417,23.5Zm.044.116s.015.03.02.045a.4.4,0,0,1,.025.07s-.015-.03-.02-.045A.617.617,0,0,0,72.462,23.618Zm-.784-2.069a.319.319,0,0,1,.02.045C71.683,21.574,71.673,21.554,71.678,21.549Zm-.163-.417c0-.01.01.015.01.02S71.515,21.137,71.515,21.132Zm.1.256a1.454,1.454,0,0,1-.069-.161A.774.774,0,0,1,71.614,21.388Zm-.217-.557a.352.352,0,0,1,.03.07l.035.1a.352.352,0,0,1-.03-.07C71.422,20.891,71.407,20.861,71.4,20.831ZM56.175,27.385c.015-.005-.03.07-.025.1-.02.04-.044.126-.049.116C56.131,27.515,56.156,27.42,56.175,27.385Zm14.956-7.227a.25.25,0,0,1,.03.07C71.155,20.223,71.146,20.188,71.131,20.158Zm-1.208-3.109a.18.18,0,0,0,.02.045C69.938,17.1,69.874,16.924,69.923,17.049Zm.483,1.256a.25.25,0,0,1,.03.07A.575.575,0,0,1,70.406,18.3Zm.084.211s.015.025.02.045C70.5,18.561,70.495,18.531,70.49,18.516ZM58.581,21.032c.015-.015-.044.11-.03.1C58.517,21.208,58.566,21.062,58.581,21.032Zm1.622-4.2a.662.662,0,0,1,.025-.07A.662.662,0,0,1,60.2,16.828Zm.108-.276c0,.005-.039.1-.049.141C60.257,16.668,60.281,16.637,60.311,16.552Zm8.119-3.269c0-.01.01.015.01.02S68.43,13.293,68.43,13.283Zm.907,2.29a.25.25,0,0,1,.03.07C69.361,15.638,69.351,15.6,69.336,15.573Zm.049.116a.352.352,0,0,1,.03.07A.572.572,0,0,1,69.386,15.688Zm.044.116a.738.738,0,0,1,.049.116c.01.035.049.121.044.116C69.479,15.919,69.45,15.874,69.43,15.8Zm.833,2.129s-.039-.1-.059-.136c-.03-.07-.03-.085-.049-.141-.035-.1-.074-.186-.108-.276-.015-.035,0,0,.01.02a.4.4,0,0,1,.025.07c.02.055.044.11.064.161C70.189,17.737,70.234,17.858,70.263,17.933Zm-12.318,4.8c.015-.005-.039.121-.039.146a.915.915,0,0,0-.054.141c0-.005,0-.005-.015.02a.6.6,0,0,1,.03-.1A1.114,1.114,0,0,1,57.945,22.734Zm.577-1.537c.03-.04-.025.085-.025.1-.035.085-.064.171-.1.256.01-.04.044-.126.054-.166C58.482,21.3,58.5,21.253,58.522,21.2Zm.818-2.139a.471.471,0,0,1,.035-.1A.28.28,0,0,1,59.34,19.058Zm.794-2.039c.02-.02-.035.1-.044.116a1.053,1.053,0,0,1-.054.141c-.074.216-.217.552-.291.768a.739.739,0,0,0-.049.116c-.01.02-.03.06-.025.07-.039.1-.054.131-.094.231-.069.181-.118.286-.182.462-.015.035,0,0,0-.025a.4.4,0,0,0,.025-.07c.02-.045.035-.1.054-.141.035-.09.074-.186.108-.276s.039-.085.064-.161c.069-.2.187-.472.286-.743,0,0,0-.02.015-.05s.02-.055.025-.07c0,0,0,.005,0,0,.02-.04.035-.1.064-.161.02-.045.035-.1.054-.141S60.124,17.024,60.133,17.019ZM70.52,18.606l.02.045c0,.015-.02-.03-.035-.065C70.51,18.591,70.52,18.611,70.52,18.606Zm-13.733,7.2c0,.01,0-.02,0-.025S56.791,25.8,56.786,25.808Zm.035-.09a.9.9,0,0,1,.054-.141C56.87,25.607,56.841,25.657,56.821,25.717Zm1.129-3.008c.054-.151.1-.251.133-.352.01.01-.039.105-.049.166s-.025.045-.039.09S57.95,22.734,57.95,22.709Zm12.614-3.982a.18.18,0,0,0,.02.045C70.574,18.777,70.515,18.6,70.564,18.727Zm-13.669,6.8c0,.01,0-.02,0-.025S56.9,25.526,56.895,25.532Zm.025-.07c.02-.055.035-.09.044-.116C56.974,25.341,56.915,25.506,56.92,25.461Zm.73-1.933a.661.661,0,0,1,.025-.07C57.674,23.462,57.659,23.5,57.649,23.528Zm.035-.1s.01-.03.015-.05a.18.18,0,0,1,.02-.045A.849.849,0,0,0,57.684,23.432Zm-.34.914c.01-.01-.025.09-.035.1-.02.06-.02.075-.039.09a1.539,1.539,0,0,1-.079.211c-.015.045-.039.11-.054.166a.094.094,0,0,1-.015.02,1.109,1.109,0,0,1,.044-.116c.02-.045.035-.1.054-.141s.049-.121.039-.116C57.289,24.492,57.309,24.442,57.344,24.346ZM59.1,19.711c-.01.04-.039.121-.074.211-.015.015.044-.11.03-.1C59.069,19.791,59.084,19.751,59.1,19.711Zm.074-.186c0,.01,0-.02,0-.025S59.172,19.52,59.172,19.525Zm.025-.07.015-.045S59.207,19.44,59.2,19.455Zm.035-.09s.01-.03.015-.05c.069-.176.138-.357.207-.532,0,.01,0,.02,0,.025-.01.03-.02.04-.02.045-.035.09-.049.126-.089.231,0-.005,0,.015,0,.025C59.31,19.159,59.276,19.284,59.231,19.364Zm-2.144,5.655c0,.055-.089.236-.108.306a.747.747,0,0,1,.069-.186C57.072,25.08,57.063,25.085,57.087,25.019Zm1.883-4.957a.13.13,0,0,1,.01-.025A.13.13,0,0,1,58.97,20.063Zm-1.587,4.188c.025-.045.025-.075.044-.116C57.432,24.135,57.373,24.291,57.383,24.251Zm1.3-3.42c0,.01,0-.02,0-.025S58.684,20.826,58.679,20.831Zm-2.341,6.217a.4.4,0,0,1,.039-.09C56.382,26.953,56.333,27.088,56.338,27.048Zm15.936-3.782s.015.03.02.045A.25.25,0,0,0,72.274,23.267ZM56.318,27.123c0,.01,0-.02,0-.025S56.318,27.113,56.318,27.123Zm.148-.4a.662.662,0,0,1,.025-.07C56.491,26.661,56.476,26.7,56.466,26.727Zm.054-.141c.01-.03.01-.015,0,0C56.51,26.616,56.51,26.6,56.52,26.586Zm.015-.045a.594.594,0,0,1,.049-.116C56.565,26.486,56.545,26.546,56.535,26.541Zm1.232-3.264a.661.661,0,0,1,.025-.07A.662.662,0,0,1,57.767,23.277Zm.035-.09a.661.661,0,0,1,.025-.07C57.827,23.121,57.812,23.156,57.8,23.186Zm.044-.116s.01-.03.015-.05a.4.4,0,0,0,.025-.07s-.01.03-.015.045A.448.448,0,0,0,57.846,23.071ZM56.713,26.1c0,.01,0-.02,0-.025S56.713,26.094,56.713,26.1Zm.015-.045s.01-.03.015-.045l.02-.045A.949.949,0,0,1,56.727,26.054Zm.089-.236a.662.662,0,0,1,.025-.07A.661.661,0,0,1,56.816,25.818Zm.049-.136c0,.01,0-.02,0-.025S56.87,25.672,56.865,25.682Zm.981-2.586a2.847,2.847,0,0,1-.123.326c-.049.131-.094.261-.128.352-.015.045-.039.1-.054.141a.321.321,0,0,1-.02.045.089.089,0,0,1,0,.025c0,.01-.044.126-.054.141a.2.2,0,0,0-.02.045c0,.015-.015.025-.01.02-.02.055-.039.11-.074.211-.025.065-.049.131-.084.211a1.02,1.02,0,0,1,.049-.141,1.285,1.285,0,0,0,.049-.141.466.466,0,0,0,.044-.116c.025-.07.03-.065.054-.141a1.02,1.02,0,0,1,.049-.141c.02-.055.039-.11.059-.161.039-.11.084-.216.123-.326a1.12,1.12,0,0,0,.039-.116C57.792,23.231,57.8,23.2,57.846,23.1Zm-.611,1.632a.661.661,0,0,1,.025-.07A.662.662,0,0,1,57.235,24.728ZM68.656,14l.02.045C68.671,14.051,68.607,13.87,68.656,14Zm.251.653a.25.25,0,0,1,.03.07c.01.03.025.06.035.09a.351.351,0,0,1-.03-.07C68.932,14.709,68.918,14.679,68.908,14.649ZM57.151,25.014c0,.03-.044.121-.054.166-.039.1-.079.206-.113.3a.6.6,0,0,1-.039.09.43.43,0,0,1-.044.116c0,.025-.025.09-.03.07.059-.176.168-.432.2-.537A1.073,1.073,0,0,0,57.151,25.014ZM68.267,13.082s.015.025.02.045C68.287,13.127,68.277,13.1,68.267,13.082Zm-2.79-6.443c-.044-.06-.03-.075,0,0Zm0,.025a.292.292,0,0,1,.039.06.987.987,0,0,1,.049.11c.02.045.044.085.064.131,0-.005-.03-.055-.044-.085C65.556,6.809,65.516,6.734,65.482,6.664ZM56.727,26.215c0,.01,0-.02,0-.025S56.727,26.2,56.727,26.215Zm.039-.121c0-.005.015-.045.02-.045S56.777,26.069,56.767,26.094Zm.054-.141c-.015.075-.039.075,0,0Zm.592-1.582c0,.01,0-.02,0-.025S57.417,24.366,57.413,24.371Zm-1.227,3.284.015-.045C56.215,27.611,56.141,27.786,56.185,27.656Zm.567-1.512c0,.01,0-.02,0-.025S56.757,26.139,56.752,26.144Zm.168-.442c0,.01,0-.02,0-.025S56.925,25.692,56.92,25.7Zm.049-.141c.015-.04.02-.04.03-.07C57.008,25.481,56.964,25.6,56.969,25.562Zm.044-.121a.4.4,0,0,1,.039-.09C57.058,25.346,57.008,25.481,57.013,25.441Zm.074-.186c0-.005.015-.035.01-.02S57.067,25.3,57.087,25.255Zm4.121-10.727c0-.035.064-.161.089-.231,0,.03-.044.121-.059.166A.273.273,0,0,0,61.208,14.528Zm.1-.256c0,.01,0-.02,0-.025S61.312,14.267,61.307,14.272ZM63.357,9.3l.015-.045S63.362,9.275,63.357,9.3ZM57.4,24.422c0,.01,0-.02,0-.025S57.408,24.412,57.4,24.422Zm-1.208,3.239a.661.661,0,0,1,.025-.07A.662.662,0,0,1,56.195,27.661Zm1.084-2.913a.18.18,0,0,1,.02-.045c.01-.01,0,.035-.02.07C57.274,24.768,57.284,24.748,57.279,24.748Zm.153-.4c0-.005.015-.045.02-.045S57.442,24.326,57.432,24.351Zm-1.015,2.727c0,.01,0-.02,0-.025S56.417,27.073,56.417,27.078Zm1-2.682c0,.01,0-.02,0-.025S57.422,24.392,57.417,24.4Zm1.464-3.862a.612.612,0,0,1,.035-.1c.015-.025.015-.05.049-.116A1.561,1.561,0,0,1,58.881,20.535ZM56.244,27.55s.01-.03.015-.05C56.264,27.5,56.254,27.53,56.244,27.55Zm.039-.1c0,.01,0-.02,0-.025S56.284,27.45,56.284,27.455Zm.025-.07s.01-.03.015-.045C56.328,27.339,56.318,27.37,56.308,27.385Zm.079-.181c.015-.04.02-.04.03-.07a.2.2,0,0,1-.025.07Zm-.049.141c.015-.03.02-.04.03-.04l-.025.07C56.333,27.37,56.343,27.339,56.338,27.344Zm.094-.261c.01-.03.025-.06.035-.1l.01.005C56.456,27.048,56.437,27.1,56.432,27.083Zm.33-.884c0-.005,0-.025.01-.025S56.767,26.2,56.762,26.2Zm-.384,1.05c0,.01,0-.02,0-.025S56.377,27.244,56.377,27.249Zm.419-1.09a1.058,1.058,0,0,1-.059.161,1.486,1.486,0,0,1-.059.166c-.02.055-.035.085-.064.161-.015.04-.039.1-.049.116-.03.08-.069.2-.079.186a1.363,1.363,0,0,1,.084-.206C56.639,26.546,56.732,26.32,56.8,26.159Zm-.508,1.326a.718.718,0,0,1,.039-.09C56.333,27.385,56.284,27.525,56.289,27.485Zm-.054.191c0-.04.044-.105.069-.186A1.178,1.178,0,0,1,56.234,27.676Zm.173-.467s.049-.156.044-.116C56.432,27.149,56.432,27.144,56.407,27.209Zm-.074.211a.18.18,0,0,1,.02-.045S56.284,27.55,56.333,27.42Zm-.079.236c0,.01,0-.02,0-.025S56.259,27.651,56.254,27.656Zm.518-1.371s.01-.03.015-.05C56.791,26.24,56.782,26.265,56.772,26.285Z" transform="translate(-54.8 -4.473)"/>
</svg>
