<?xml version="1.0" encoding="utf-8"?>
<svg version="1.1" id="Calque_1" xmlns="http://www.w3.org/2000/svg" xmlns:xlink="http://www.w3.org/1999/xlink" x="0px" y="0px" width="20" height="20"
	 viewBox="0 0 137 138" style="enable-background:new 0 0 137 138;" xml:space="preserve">
<style type="text/css">
	.st0{fill:#000;}
	.st1{fill:#000;}
	.st2{fill:#fff;}
</style>
<g>
	<path class="st0" d="M13.14,5c0.16,0,0.32,0,0.48,0c0.41,0.22,0.86,0.11,1.29,0.11c36.35,0.01,72.7,0.01,109.05,0
		c0.43,0,0.88,0.11,1.29-0.11c0.08,0,0.16,0,0.24,0c0.14,0.09,0.29,0.1,0.45,0.12c4.8,0.55,8.02,4.13,8.03,9.01
		c0.02,15,0.01,30,0.01,45.01c0,21.43-0.09,42.85,0.06,64.28c0.04,6.12-4.73,10.56-10.54,10.55c-36.12-0.04-72.24-0.01-108.36-0.02
		c-3.66,0-6.66-1.34-8.84-4.39c-1.06-1.48-1.08-3.18-1.19-4.87c0-36.88,0-73.77,0-110.65c-0.2-3.46,1.1-6.13,4.08-8.01
		C10.43,5.25,11.84,5.37,13.14,5z"/>
	<path class="st1" d="M5.2,124.76c0,0-0.1,0.01-0.1,0.01L5,124.74C5,87.7,5,50.66,5,13.62c0.05-0.17,0.12-0.17,0.2-0.01
		c0.01,0.44,0.04,0.88,0.04,1.31c0,36.17,0,72.35,0,108.52C5.24,123.88,5.21,124.32,5.2,124.76z"/>
	<path class="st2" d="M5.2,13.61L5.1,13.6L5,13.62C5,10.75,5,7.87,5,5c2.71,0,5.43,0,8.14,0c-0.51,0.4-1.17,0.36-1.74,0.59
		C7.75,7.04,5.69,9.72,5.2,13.61z"/>
	<path class="st2" d="M73.69,61.52c0.96-1.57,2.05-3.03,3.39-4.28c4.02-3.78,8.78-5.65,14.32-5.59c3.49,0.03,6.93,0.33,10.24,1.53
		c6.82,2.47,10.11,7.78,11.63,14.5c1,4.42,1.2,8.92,1.2,13.43c0.01,10.61-0.04,21.23-0.01,31.84c0,1.07-0.28,1.32-1.33,1.31
		c-5.51-0.05-11.02-0.05-16.53,0c-0.91,0.01-1.12-0.25-1.12-1.13c0.03-10.18,0.03-20.35,0.01-30.53c-0.01-2.27-0.15-4.54-0.66-6.77
		c-1.12-4.92-3.77-7.19-8.81-7.51c-5.75-0.37-9.68,2.47-11.1,8.02c-0.54,2.1-0.74,4.23-0.74,6.4c0,10.06-0.02,20.11,0.03,30.17
		c0.01,1.14-0.34,1.37-1.4,1.36c-5.51-0.05-11.02-0.05-16.53,0c-0.91,0.01-1.13-0.26-1.13-1.14c0.02-19.59,0.03-39.19,0-58.78
		c0-0.97,0.31-1.19,1.23-1.19c5.27,0.04,10.54,0.04,15.81,0c0.95-0.01,1.23,0.26,1.21,1.2c-0.06,2.34-0.02,4.69-0.02,7.03
		C73.49,61.44,73.59,61.48,73.69,61.52z"/>
	<path class="st2" d="M24.2,83.72c0-9.74,0.02-19.47-0.03-29.21c-0.01-1.14,0.34-1.37,1.4-1.36c5.43,0.05,10.86,0.05,16.28,0
		c1-0.01,1.37,0.18,1.37,1.29c-0.04,19.51-0.03,39.03-0.01,58.54c0,0.95-0.18,1.3-1.23,1.29c-5.55-0.05-11.1-0.05-16.64,0
		c-0.98,0.01-1.17-0.31-1.17-1.22C24.22,103.28,24.2,93.5,24.2,83.72z"/>
	<path class="st2" d="M33.77,44.75c-6,0.03-11-4.91-11.04-10.9c-0.05-6.01,4.89-11.05,10.85-11.09c6.12-0.04,11.13,4.87,11.15,10.9
		C44.74,39.76,39.84,44.73,33.77,44.75z"/>
</g>
</svg>
