<svg xmlns="http://www.w3.org/2000/svg" xmlns:xlink="http://www.w3.org/1999/xlink" width="610" height="427.083" viewBox="0 0 610 427.083">
  <defs>
    <clipPath id="clip-path">
      <path id="Tracé_23068" data-name="Tracé 23068" d="M386.218,383.525C249.364,381.186,154.62,311,83.269,203.394c-2.339-4.679-7.018-8.188,1.17-12.867,45.618-24.563,81.878-61.993,121.647-94.745,35.091-28.073,70.181-60.824,125.156-33.921,36.26,17.545,77.2,18.715,112.29,0,37.43-21.054,69.012-4.679,95.914,15.206,50.3,36.26,92.405,83.048,146.211,113.46,7.018,3.509,3.509,8.188,1.17,11.7C614.307,309.835,520.732,381.186,386.218,383.525Z" transform="translate(-79.804 -51.844)"/>
    </clipPath>
  </defs>
  <g id="illustration_malikafavre_logo_ondulation" transform="translate(-79.804 -43.687)">
    <g id="Groupe_486" data-name="Groupe 486" transform="translate(79.804 139.088)">
      <g id="Groupe_485" data-name="Groupe 485" clip-path="url(#clip-path)">
        <path id="Tracé_23037" data-name="Tracé 23037" d="M140.576,53.739c9.357-1.17,23.394-2.339,33.921,5.848s9.358,18.715,7.018,25.733c-1.17,5.848-1.17,8.188,2.339,10.527s5.848,2.339,14.036,1.17a63.494,63.494,0,0,1,21.054,0V80.642h0c-8.188,1.17-10.527,1.17-14.036-1.17s-3.509-4.679-2.339-10.527c1.17-4.679,2.339-11.7-1.17-17.545H124.2l1.17,1.17C130.048,54.909,132.388,54.909,140.576,53.739Z" transform="translate(395.097 -56.588)" fill="#e3191b"/>
        <path id="Tracé_23038" data-name="Tracé 23038" d="M123.809,75.763c-1.17,5.848-1.17,8.188,2.339,10.527S132,88.63,140.185,87.46c9.357-1.17,23.394-2.339,33.921,5.848s9.358,18.715,7.018,25.733c-1.17,5.848-1.17,8.188,2.339,10.527s5.848,2.339,14.036,1.17c9.358-1.17,23.394-2.339,33.921,5.848s9.357,18.715,7.018,25.733c-1.17,5.848-1.17,8.188,2.339,10.527s5.849,2.339,14.036,1.17c2.339,0,4.679,0,7.018-1.17V155.3c-2.339-2.339-2.339-4.679-1.17-10.527,1.17-7.018,3.509-17.545-7.018-25.733s-24.564-7.018-33.921-5.848c-8.188,1.17-10.527,1.17-14.036-1.17s-3.509-4.679-2.339-10.527c1.17-7.018,3.509-17.545-7.018-25.733s-24.563-7.018-33.921-5.848c-8.188,1.17-10.527,1.17-14.036-1.17s-3.509-4.679-2.339-10.527c0-2.339,1.17-4.679,1.17-7.018H120.3C126.149,60.557,124.979,69.915,123.809,75.763Z" transform="translate(353.379 -58.727)" fill="#e3191b"/>
        <path id="Tracé_23039" data-name="Tracé 23039" d="M112.64,62.027c-1.17,5.848-1.17,8.188,2.339,10.527s5.848,2.339,14.036,1.17c9.357-1.17,23.394-2.339,33.921,5.848s9.358,18.715,7.018,25.733c-1.17,5.848-1.17,8.188,2.339,10.527s5.848,2.339,14.036,1.17c9.358-1.17,23.394-2.339,33.921,5.848s9.358,18.715,7.018,25.733c-1.17,5.848-1.17,8.188,2.339,10.527s5.848,2.339,14.036,1.17c9.358-1.17,23.394-2.339,33.921,5.848s9.358,18.715,7.018,25.733c-1.17,5.848-1.17,8.188,2.339,10.527s5.848,2.339,14.036,1.17c9.358-1.17,23.394-2.339,33.921,5.848s9.357,18.715,7.018,25.733c-1.17,5.848-1.17,8.188,2.339,10.527,2.339,1.17,3.509,2.339,5.849,2.339V190.693c-9.358-4.679-21.054-3.509-28.072-2.339-8.188,1.17-10.527,1.17-14.036-1.17s-3.509-4.679-2.339-10.527c1.17-7.018,3.509-17.545-7.018-25.733s-24.563-7.018-33.921-5.848c-8.188,1.17-10.527,1.17-14.036-1.17s-3.509-4.679-2.339-10.527c1.17-7.018,3.509-17.545-7.018-25.733s-24.563-7.018-33.921-5.848c-8.188,1.17-10.527,1.17-14.036-1.17s-3.509-4.679-2.339-10.527c1.17-7.018,3.509-17.545-7.018-25.733s-24.563-7.018-33.921-5.848c-8.188,1.17-10.527,1.17-14.036-1.17-2.339-1.17-2.339-3.509-2.339-5.848H113.809C113.809,55.009,113.809,58.518,112.64,62.027Z" transform="translate(263.956 -55.518)" fill="#e3191b"/>
        <path id="Tracé_23040" data-name="Tracé 23040" d="M105.911,62.027c3.509,2.339,5.848,2.339,14.036,1.17,9.357-1.17,23.394-2.339,33.921,5.848s9.358,18.715,7.018,25.733c-1.17,5.848-1.17,8.188,2.339,10.527s5.848,2.339,14.036,1.17c9.358-1.17,23.394-2.339,33.921,5.848s9.358,18.715,7.018,25.733c-1.17,5.848-1.17,8.188,2.339,10.527s5.848,2.339,14.036,1.17c9.358-1.17,23.394-2.339,33.921,5.848s9.358,18.715,7.018,25.733c-1.17,5.848-1.17,8.188,2.339,10.527s5.848,2.339,14.036,1.17c9.358-1.17,23.394-2.339,33.921,5.848s9.357,18.715,7.018,25.733c-1.17,5.848-1.17,8.188,2.339,10.527s5.848,2.339,14.036,1.17c9.358-1.17,23.394-2.339,33.921,5.848s9.358,18.715,7.018,25.733c-1.17,5.848-1.17,8.188,2.339,10.527s5.848,2.339,14.036,1.17c9.357-1.17,23.394-2.339,33.921,5.848a1.146,1.146,0,0,1,1.17,1.17V263.213c-4.679,0-9.358,0-14.036,1.17-8.188,1.17-10.527,1.17-14.036-1.17s-3.509-4.679-2.339-10.527c1.17-7.018,3.509-17.545-7.018-25.733s-24.563-7.018-33.921-5.848c-8.188,1.17-10.527,1.17-14.036-1.17s-3.509-4.679-2.339-10.527c1.17-7.018,3.509-17.545-7.018-25.733s-24.563-7.018-33.921-5.848c-8.188,1.17-10.527,1.17-14.036-1.17s-3.509-4.679-2.339-10.527c1.17-7.018,3.509-17.545-7.018-25.733s-24.563-7.018-33.921-5.848c-8.188,1.17-10.527,1.17-14.036-1.17s-3.509-4.679-2.339-10.527c1.17-7.018,3.509-17.545-7.018-25.733s-24.563-7.018-33.921-5.848c-8.188,1.17-10.527,1.17-14.036-1.17s-3.509-4.679-2.339-10.527c1.17-7.018,3.509-17.545-7.018-25.733-1.17-1.17-2.339-1.17-3.509-2.339H103.571v1.17C103.571,57.348,102.4,59.688,105.911,62.027Z" transform="translate(172.431 -55.518)" fill="#e3191b"/>
        <path id="Tracé_23041" data-name="Tracé 23041" d="M109.036,52.256c9.358-1.17,23.394-2.339,33.921,5.848s9.357,18.715,7.018,25.733c-1.17,5.848-1.17,8.188,2.339,10.527s5.848,2.339,14.036,1.17c9.358-1.17,23.394-2.339,33.921,5.848s9.358,18.715,7.018,25.733c-1.17,5.848-1.17,8.188,2.339,10.527s5.848,2.339,14.036,1.17c9.357-1.17,23.394-2.339,33.921,5.848s9.358,18.715,7.018,25.733c-1.17,5.848-1.17,8.188,2.339,10.527s5.848,2.339,14.036,1.17c9.358-1.17,23.394-2.339,33.921,5.848s9.357,18.715,7.018,25.733c-1.17,5.848-1.17,8.188,2.339,10.527s5.848,2.339,14.036,1.17c9.358-1.17,23.394-2.339,33.921,5.848s9.358,18.715,7.018,25.733c-1.17,5.848-1.17,8.188,2.339,10.527s5.848,2.339,14.036,1.17c9.357-1.17,23.394-2.339,33.921,5.848s9.358,18.715,7.018,25.733c-1.17,5.848-1.17,8.188,2.339,10.527s5.848,2.339,14.036,1.17c9.358-1.17,23.394-2.339,33.921,5.848s9.358,18.715,7.018,25.733c-1.17,5.848-1.17,8.188,2.339,10.527s5.848,2.339,14.036,1.17a56.674,56.674,0,0,1,19.885,0V340c-7.018,1.17-10.527,1.17-12.867-1.17-3.509-2.339-3.509-4.679-2.339-10.527,1.17-7.018,3.509-17.545-7.018-25.733s-24.564-7.018-33.921-5.848c-8.188,1.17-10.527,1.17-14.036-1.17s-3.509-4.679-2.339-10.527c1.17-7.018,3.509-17.545-7.018-25.733s-24.563-7.018-33.921-5.848c-8.188,1.17-10.527,1.17-14.036-1.17s-3.509-4.679-2.339-10.527c1.17-7.018,3.509-17.545-7.018-25.733s-24.563-7.018-33.921-5.848c-8.188,1.17-10.527,1.17-14.036-1.17s-3.509-4.679-2.339-10.527c1.17-7.018,3.509-17.545-7.018-25.733s-24.563-7.018-33.921-5.848c-8.188,1.17-10.527,1.17-14.036-1.17s-3.509-4.679-2.339-10.527c1.17-7.018,3.509-17.545-7.018-25.733s-24.563-7.018-33.921-5.848c-8.188,1.17-10.527,1.17-14.036-1.17s-3.509-4.679-2.339-10.527c1.17-7.018,3.509-17.545-7.018-25.733s-24.563-7.018-33.921-5.848c-8.188,1.17-10.527,1.17-14.036-1.17s-3.509-4.679-2.339-10.527c1.17-4.679,2.339-10.527,0-16.376H95C98.509,53.426,102.018,53.426,109.036,52.256Z" transform="translate(82.748 -56.275)" fill="#e3191b"/>
        <path id="Tracé_23042" data-name="Tracé 23042" d="M94.409,75.763c-1.17,5.848-1.17,8.188,2.339,10.527s5.848,2.339,14.036,1.17c9.357-1.17,23.394-2.339,33.921,5.848s9.358,18.715,7.018,25.733c-1.17,5.848-1.17,8.188,2.339,10.527s5.849,2.339,14.036,1.17c9.358-1.17,23.394-2.339,33.921,5.848s9.358,18.715,7.018,25.733c-1.17,5.848-1.17,8.188,2.339,10.527s5.848,2.339,14.036,1.17c9.358-1.17,23.394-2.339,33.921,5.848s9.358,18.715,7.018,25.733c-1.17,5.848-1.17,8.188,2.339,10.527s5.849,2.339,14.036,1.17c9.358-1.17,23.394-2.339,33.921,5.848s9.357,18.715,7.018,25.733c-1.17,5.848-1.17,8.188,2.339,10.527s5.848,2.339,14.036,1.17c9.358-1.17,23.394-2.339,33.921,5.848s9.358,18.715,7.018,25.733c-1.17,5.848-1.17,8.188,2.339,10.527s5.848,2.339,14.036,1.17c9.357-1.17,23.394-2.339,33.921,5.848s9.358,18.715,7.018,25.733c-1.17,5.849-1.17,8.188,2.339,10.527s5.849,2.339,14.036,1.17c9.358-1.17,23.394-2.339,33.921,5.848s9.358,18.715,7.018,25.733c-1.17,5.848-1.17,8.188,2.339,10.527s5.848,2.339,14.036,1.17c9.358-1.17,23.394-2.339,33.921,5.848s9.358,18.715,7.018,25.733c-1.17,5.848-1.17,8.188,2.339,10.527s5.848,2.339,14.036,1.17h5.848V411.464c-1.17-2.339-1.17-4.679,0-9.358V388.07c-1.17-3.509-3.509-7.018-8.188-10.527-10.527-8.188-24.564-7.018-33.921-5.848-8.188,1.17-10.527,1.17-14.036-1.17S515.5,365.846,516.666,360c1.17-7.018,3.509-17.545-7.018-25.733s-24.563-7.018-33.921-5.849c-8.188,1.17-10.527,1.17-14.036-1.17s-3.509-4.679-2.339-10.527c1.17-7.018,3.509-17.545-7.018-25.733s-24.563-7.018-33.921-5.848c-8.188,1.17-10.527,1.17-14.036-1.17s-3.509-4.679-2.339-10.527c1.17-7.018,3.509-17.545-7.018-25.733s-24.563-7.018-33.921-5.848c-8.188,1.17-10.527,1.17-14.036-1.17s-3.509-4.679-2.339-10.527c1.17-7.018,3.509-17.545-7.018-25.733s-24.563-7.018-33.921-5.848c-8.188,1.17-10.527,1.17-14.036-1.17s-3.509-4.679-2.339-10.527c1.17-7.018,3.509-17.545-7.018-25.733s-24.563-7.018-33.921-5.848c-8.188,1.17-10.527,1.17-14.036-1.17s-3.509-4.679-2.339-10.527c1.17-7.018,3.509-17.545-7.018-25.733s-24.563-7.018-33.921-5.848c-8.188,1.17-10.527,1.17-14.036-1.17s-3.509-4.679-2.339-10.527c1.17-7.018,3.509-17.545-7.018-25.733s-24.563-7.018-33.921-5.848c-8.188,1.17-10.527,1.17-14.036-1.17s-3.509-4.679-2.339-10.527c0-1.17,1.17-3.509,1.17-5.848H90.9C97.918,60.557,95.579,69.915,94.409,75.763Z" transform="translate(38.891 -58.727)" fill="#e3191b"/>
        <path id="Tracé_23043" data-name="Tracé 23043" d="M83.34,61.927c-1.17,5.848-1.17,8.188,2.339,10.527s5.848,2.339,14.036,1.17c9.358-1.17,23.394-2.339,33.921,5.848s9.358,18.715,7.018,25.733c-1.17,5.848-1.17,8.188,2.339,10.527s5.848,2.339,14.036,1.17c9.357-1.17,23.394-2.339,33.921,5.848s9.358,18.715,7.018,25.733c-1.17,5.848-1.17,8.188,2.339,10.527s5.848,2.339,14.036,1.17c9.358-1.17,23.394-2.339,33.921,5.848s9.358,18.715,7.018,25.733c-1.17,5.848-1.17,8.188,2.339,10.527s5.848,2.339,14.036,1.17c9.358-1.17,23.394-2.339,33.921,5.848s9.358,18.715,7.018,25.733c-1.17,5.848-1.17,8.188,2.339,10.527s5.848,2.339,14.036,1.17c9.358-1.17,23.394-2.339,33.921,5.848s9.357,18.715,7.018,25.733c-1.17,5.848-1.17,8.188,2.339,10.527s5.849,2.339,14.036,1.17c9.358-1.17,23.394-2.339,33.921,5.848s9.358,18.715,7.018,25.733c-1.17,5.848-1.17,8.188,2.339,10.527s5.848,2.339,14.036,1.17c9.357-1.17,23.394-2.339,33.921,5.849s9.358,18.715,7.018,25.733c-1.17,5.848-1.17,8.188,2.339,10.527s5.849,2.339,14.036,1.17c9.358-1.17,23.394-2.339,33.921,5.848s9.358,18.715,7.018,25.733c-1.17,5.848-1.17,8.188,2.339,10.527s5.848,2.339,14.036,1.17c9.358-1.17,23.394-2.339,33.921,5.848s9.358,18.715,7.018,25.733c-1.17,5.849-1.17,8.188,2.339,10.527s5.848,2.339,14.036,1.17c9.358-1.17,23.394-2.339,33.921,5.849s9.357,18.715,7.018,25.733c-1.17,5.849-1.17,8.188,2.339,10.527,1.17,1.17,3.509,1.17,4.679,2.339V450.263c-9.357-3.509-19.885-2.339-26.9-2.339-8.188,1.17-10.527,1.17-14.036-1.17s-3.509-4.679-2.339-10.527c1.17-7.018,3.509-17.545-7.018-25.733s-24.563-7.018-33.921-5.849c-8.188,1.17-10.527,1.17-14.036-1.17s-3.509-4.679-2.339-10.527c1.17-7.018,3.509-17.545-7.018-25.733s-24.563-7.018-33.921-5.848c-8.188,1.17-10.527,1.17-14.036-1.17s-3.509-4.679-2.339-10.527c1.17-7.018,3.509-17.545-7.018-25.733s-24.563-7.018-33.921-5.848c-8.188,1.17-10.527,1.17-14.036-1.17s-3.509-4.679-2.339-10.527c1.17-7.018,3.509-17.545-7.018-25.733s-24.563-7.018-33.921-5.848c-8.188,1.17-10.527,1.17-14.036-1.17s-3.509-4.679-2.339-10.527c1.17-7.018,3.509-17.545-7.018-25.733s-24.563-7.018-33.921-5.848c-8.188,1.17-10.527,1.17-14.036-1.17s-3.509-4.679-2.339-10.527c1.17-7.018,3.509-17.545-7.018-25.733s-24.563-7.018-33.921-5.848c-8.188,1.17-10.527,1.17-14.036-1.17s-3.509-4.679-2.339-10.527c1.17-7.018,3.509-17.545-7.018-25.733s-24.563-7.018-33.921-5.848c-8.188,1.17-10.527,1.17-14.036-1.17s-3.509-4.679-2.339-10.527c1.17-7.018,3.509-17.545-7.018-25.733s-24.563-7.018-33.921-5.848c-8.188,1.17-10.527,1.17-14.036-1.17S160.539,95.848,161.709,90c1.17-7.018,3.509-17.545-7.018-25.733s-24.563-7.018-33.921-5.848c-8.188,1.17-10.527,1.17-14.036-1.17-2.339-1.17-2.339-3.509-2.339-5.848H84.509C84.509,54.909,83.34,59.588,83.34,61.927Z" transform="translate(-49.463 -56.588)" fill="#e3191b"/>
        <path id="Tracé_23044" data-name="Tracé 23044" d="M92.166,107.445c9.357-1.17,23.394-2.339,33.921,5.848s9.358,18.715,7.018,25.733c-1.17,5.848-1.17,8.188,2.339,10.527s5.848,2.339,14.036,1.17c9.358-1.17,23.394-2.339,33.921,5.848s9.357,18.715,7.018,25.733c-1.17,5.848-1.17,8.188,2.339,10.527s5.848,2.339,14.036,1.17c9.358-1.17,23.394-2.339,33.921,5.848s9.358,18.715,7.018,25.733c-1.17,5.848-1.17,8.188,2.339,10.527s5.848,2.339,14.036,1.17c9.357-1.17,23.394-2.339,33.921,5.848s9.358,18.715,7.018,25.733c-1.17,5.848-1.17,8.188,2.339,10.527s5.849,2.339,14.036,1.17c9.358-1.17,23.394-2.339,33.921,5.848s9.358,18.715,7.018,25.733c-1.17,5.849-1.17,8.188,2.339,10.527s5.848,2.339,14.036,1.17c9.358-1.17,23.394-2.339,33.921,5.848s9.358,18.715,7.018,25.733c-1.17,5.848-1.17,8.188,2.339,10.527s5.848,2.339,14.036,1.17c9.358-1.17,23.394-2.339,33.921,5.848s9.357,18.715,7.018,25.733c-1.17,5.848-1.17,8.188,2.339,10.527s5.848,2.339,14.036,1.17c9.358-1.17,23.394-2.339,33.921,5.848s9.358,18.715,7.018,25.733c-1.17,5.849-1.17,8.188,2.339,10.527s5.848,2.339,14.036,1.17c9.357-1.17,23.394-2.339,33.921,5.848s9.358,18.715,7.018,25.733c-1.17,5.848-1.17,8.188,2.339,10.527s5.848,2.339,14.036,1.17c9.358-1.17,23.394-2.339,33.921,5.848,7.018,5.848,9.358,11.7,8.188,17.545h19.885c-1.17-2.339,0-3.509,0-8.188,1.17-7.018,3.509-17.545-7.018-25.733s-24.563-7.018-33.921-5.848c-8.188,1.17-10.527,1.17-14.036-1.17s-3.509-4.679-2.339-10.527c1.17-7.018,3.509-17.545-7.018-25.733s-24.563-7.018-33.921-5.849c-8.188,1.17-10.527,1.17-14.036-1.17s-3.509-4.679-2.339-10.527c1.17-7.018,3.509-17.545-7.018-25.733s-24.563-7.018-33.921-5.848c-8.188,1.17-10.527,1.17-14.036-1.17s-3.509-4.679-2.339-10.527c1.17-7.018,3.509-17.545-7.018-25.733s-24.563-7.018-33.921-5.848c-8.188,1.17-10.527,1.17-14.036-1.17s-3.509-4.679-2.339-10.527c1.17-7.018,3.509-17.545-7.018-25.733s-24.563-7.018-33.921-5.848c-8.188,1.17-10.527,1.17-14.036-1.17s-3.509-4.679-2.339-10.527c1.17-7.018,3.509-17.545-7.018-25.733s-24.563-7.018-33.921-5.848c-8.188,1.17-10.527,1.17-14.036-1.17s-3.509-4.679-2.339-10.527c1.17-7.018,3.509-17.545-7.018-25.733s-24.563-7.018-33.921-5.848c-8.188,1.17-10.527,1.17-14.036-1.17s-3.509-4.679-2.339-10.527c1.17-7.018,3.509-17.545-7.018-25.733s-24.563-7.018-33.921-7.018c-8.188,1.17-10.527,1.17-14.036-1.17s-3.509-4.679-2.339-10.527c1.17-7.018,3.509-17.545-7.018-25.733s-24.563-7.018-33.921-5.848c-8.188,1.17-10.527,1.17-14.036-1.17s-3.509-4.679-2.339-10.527c1.17-7.018,3.509-17.545-7.018-25.733S122.578,88.73,113.221,89.9c-8.188,1.17-10.527,1.17-14.036-1.17S95.676,84.051,96.845,78.2c1.17-7.018,3.509-17.545-7.018-25.733-1.17,0-1.17-1.17-2.339-1.17H79.3v54.975C81.639,108.615,85.148,107.445,92.166,107.445Z" transform="translate(-85.192 -57.658)" fill="#e3191b"/>
        <path id="Tracé_23045" data-name="Tracé 23045" d="M89.827,104.66c-1.17,5.848-1.17,8.188,2.339,10.527s5.848,2.339,14.036,1.17c9.358-1.17,23.394-2.339,33.921,5.848s9.358,18.715,7.018,25.733c-1.17,5.848-1.17,8.188,2.339,10.527s5.848,2.339,14.036,1.17c9.358-1.17,23.394-2.339,33.921,5.848s9.357,18.715,7.018,25.733c-1.17,5.848-1.17,8.188,2.339,10.527s5.849,2.339,14.036,1.17c9.358-1.17,23.394-2.339,33.921,5.848s9.358,18.715,7.018,25.733c-1.17,5.848-1.17,8.188,2.339,10.527s5.848,2.339,14.036,1.17c9.357-1.17,23.394-2.339,33.921,5.849s9.358,18.715,7.018,25.733c-1.17,5.848-1.17,8.188,2.339,10.527s5.849,2.339,14.036,1.17c9.358-1.17,23.394-2.339,33.921,5.848s9.357,18.715,7.018,25.733c-1.17,5.848-1.17,8.188,2.339,10.527s5.848,2.339,14.036,1.17c9.358-1.17,23.394-2.339,33.921,5.848s9.358,18.715,7.018,25.733c-1.17,5.849-1.17,8.188,2.339,10.527s5.848,2.339,14.036,1.17c9.358-1.17,23.394-2.339,33.921,5.849s9.357,18.715,7.018,25.733c-1.17,5.848-1.17,8.188,2.339,10.527s5.849,2.339,14.036,1.17c9.358-1.17,23.394-2.339,33.921,5.848s9.358,18.715,7.018,25.733V454.4h73.69l-1.17-1.17c-10.527-8.188-24.563-7.018-33.921-5.849-8.188,1.17-10.527,1.17-14.036-1.17s-3.509-4.679-2.339-10.527c1.17-7.018,3.509-17.545-7.018-25.733s-24.563-7.018-33.921-5.848c-8.188,1.17-10.527,1.17-14.036-1.17s-3.509-4.679-2.339-10.527c1.17-7.018,3.509-17.545-7.018-25.733s-24.563-7.018-33.921-5.848c-8.188,1.17-10.527,1.17-14.036-1.17s-3.509-4.679-2.339-10.527c1.17-7.018,3.509-17.545-7.018-25.733s-24.563-7.018-33.921-5.849c-8.188,1.17-10.527,1.17-14.036-1.17s-3.509-4.679-2.339-10.527c1.17-7.018,3.509-17.545-7.018-25.733s-24.563-7.018-33.921-5.848c-8.188,1.17-10.527,1.17-14.036-1.17s-3.509-4.679-2.339-10.527c1.17-7.018,3.509-17.545-7.018-25.733s-24.563-7.018-33.921-5.848c-8.188,1.17-10.527,1.17-14.036-1.17s-3.509-4.679-2.339-10.527c1.17-7.018,3.509-17.545-7.018-25.733s-24.563-7.018-33.921-5.848c-8.188,1.17-10.527,1.17-14.036-1.17s-3.509-4.679-2.339-10.527c1.17-7.018,3.509-17.545-7.018-25.733s-24.563-7.018-33.921-5.848c-8.188,1.17-10.527,1.17-14.036-1.17s-3.509-4.679-2.339-10.527c1.17-7.018,3.509-17.545-7.018-25.733s-24.563-7.018-33.921-5.848c-8.188,1.17-10.527,1.17-14.036-1.17s-3.509-4.679-2.339-10.527c1.17-7.018,3.509-17.545-7.018-25.733A35.141,35.141,0,0,0,79.3,57.873V77.757c1.17,1.17,2.339,1.17,3.509,2.339C93.336,87.115,92.167,97.642,89.827,104.66Z" transform="translate(-85.192 8.29)" fill="#e3191b"/>
        <path id="Tracé_23046" data-name="Tracé 23046" d="M103.963,112.514c-1.17,5.848-1.17,8.188,2.339,10.527s5.848,2.339,14.036,1.17c9.357-1.17,23.394-2.339,33.921,5.848s9.358,18.715,7.018,25.733c-1.17,5.848-1.17,8.188,2.339,10.527s5.848,2.339,14.036,1.17c9.358-1.17,23.394-2.339,33.921,5.849s9.357,18.715,7.018,25.733c-1.17,5.849-1.17,8.188,2.339,10.527s5.848,2.339,14.036,1.17c9.358-1.17,23.394-2.339,33.921,5.848s9.358,18.715,7.018,25.733c-1.17,5.848-1.17,8.188,2.339,10.527s5.848,2.339,14.036,1.17c9.357-1.17,23.394-2.339,33.921,5.848s9.358,18.715,7.018,25.733c-1.17,5.848-1.17,8.188,2.339,10.527s5.849,2.339,14.036,1.17c9.358-1.17,23.394-2.339,33.921,5.849s9.358,18.715,7.018,25.733c-1.17,5.848-1.17,8.188,2.339,10.527s5.848,2.339,14.036,1.17c9.358-1.17,23.394-2.339,33.921,5.848s9.358,18.715,7.018,25.733c-1.17,5.848-1.17,8.188,2.339,10.527s5.849,2.339,14.036,1.17c7.018-1.17,17.545-2.339,28.072,2.339h36.26c-1.17-4.679-3.509-8.188-8.188-12.867-10.527-8.188-24.563-7.018-33.921-5.848-8.188,1.17-10.527,1.17-14.036-1.17s-3.509-4.679-2.339-10.527c1.17-7.018,3.509-17.545-7.018-25.733s-24.563-7.018-33.921-5.849c-8.188,1.17-10.527,1.17-14.036-1.17s-3.509-4.679-2.339-10.527c1.17-7.018,3.509-17.545-7.018-25.733s-24.563-7.018-33.921-5.848c-8.188,1.17-10.527,1.17-14.036-1.17s-3.509-4.679-2.339-10.527c1.17-7.018,3.509-17.545-7.018-25.733s-24.563-7.018-33.921-5.848c-8.188,1.17-10.527,1.17-14.036-1.17s-3.509-4.679-2.339-10.527c1.17-7.018,3.509-17.545-7.018-25.733s-24.563-7.018-33.921-5.848c-8.188,1.17-10.527,1.17-14.036-1.17s-3.509-4.679-2.339-10.527c1.17-7.018,3.509-17.545-7.018-25.733s-24.563-7.018-33.921-5.848c-8.188,1.17-10.527,1.17-14.036-1.17s-3.509-4.679-2.339-10.527c1.17-7.018,3.509-17.545-7.018-25.733s-24.563-7.018-33.921-5.848c-8.188,1.17-10.527,1.17-14.036-1.17s-3.509-4.679-2.339-10.527c1.17-7.018,3.509-17.545-7.018-25.733s-24.563-7.018-33.921-5.848H79.4V79.762c5.848,0,12.867,2.339,18.715,5.848C107.472,94.968,105.133,105.5,103.963,112.514Z" transform="translate(-84.123 75.297)" fill="#e3191b"/>
        <path id="Tracé_23047" data-name="Tracé 23047" d="M113.121,124.515c10.527,8.188,9.357,18.715,7.018,25.733-1.17,5.848-1.17,8.188,2.339,10.527s5.848,2.339,14.036,1.17c9.358-1.17,23.394-2.339,33.921,5.848s9.358,18.715,7.018,25.733c-1.17,5.848-1.17,8.188,2.339,10.527s5.848,2.339,14.036,1.17c9.357-1.17,23.394-2.339,33.921,5.848s9.358,18.715,7.018,25.733c-1.17,5.848-1.17,8.188,2.339,10.527s5.848,2.339,14.036,1.17c9.358-1.17,23.394-2.339,33.921,5.848s9.358,18.715,7.018,25.733c-1.17,5.848-1.17,8.188,2.339,10.527s5.848,2.339,14.036,1.17c9.358-1.17,23.394-2.339,33.921,5.849s9.358,18.715,7.018,25.733c-1.17,5.849-1.17,8.188,2.339,10.527s5.848,2.339,14.036,1.17c9.358-1.17,23.394-2.339,33.921,5.848,3.509,2.339,4.679,4.679,7.018,7.018h23.394c1.17-7.018,2.339-16.376-8.188-23.394-10.527-8.188-24.563-7.018-33.921-5.849-8.188,1.17-10.527,1.17-14.036-1.17s-3.509-4.679-2.339-10.527c1.17-7.018,3.509-17.545-7.018-25.733s-24.563-7.018-33.921-5.848c-8.188,1.17-10.527,1.17-14.036-1.17s-3.509-4.679-2.339-10.527c1.17-7.018,3.509-17.545-7.018-25.733s-24.563-7.018-33.921-5.848c-8.188,1.17-10.527,1.17-14.036-1.17s-3.509-4.679-2.339-10.527c1.17-7.018,3.509-17.545-7.018-25.733s-24.563-7.018-33.921-5.848c-8.188,1.17-10.527,1.17-14.036-1.17s-3.509-4.679-2.339-10.527c1.17-7.018,3.509-17.545-7.018-25.733s-24.563-7.018-33.921-5.848c-8.188,1.17-11.7,1.17-15.206-1.17s-3.509-4.679-2.339-10.527c1.17-7.018,3.509-17.545-7.018-25.733s-24.563-5.849-33.921-5.849c-8.188,1.17-10.527,1.17-14.036-1.17s-3.509-4.679-2.339-10.527S87.388,75.388,79.2,67.2v51.466C88.557,117.5,102.594,116.327,113.121,124.515Z" transform="translate(-86.262 112.423)" fill="#e3191b"/>
        <path id="Tracé_23048" data-name="Tracé 23048" d="M92.266,132.554c9.358-1.17,23.394-2.339,33.921,5.848s9.358,18.715,7.018,25.733c-1.17,5.848-1.17,8.188,2.339,10.527s5.848,2.339,14.036,1.17c9.358-1.17,23.394-2.339,33.921,5.848s9.358,18.715,7.018,25.733c-1.17,5.848-1.17,8.188,2.339,10.527s5.848,2.339,14.036,1.17c9.358-1.17,23.394-2.339,33.921,5.849s9.357,18.715,7.018,25.733c-1.17,5.848-1.17,8.188,2.339,10.527s5.848,2.339,14.036,1.17c9.358-1.17,23.394-2.339,33.921,5.848,8.188,5.849,9.358,12.867,8.188,18.715h21.054c-1.17-2.339-1.17-4.679,0-9.358,1.17-7.018,3.509-17.545-7.018-25.733s-24.563-7.018-33.921-5.848c-8.188,1.17-10.527,1.17-14.036-1.17s-3.509-4.679-2.339-10.527c1.17-7.018,3.509-17.545-7.018-25.733s-24.563-7.018-33.921-5.848c-8.188,1.17-10.527,1.17-14.036-1.17s-3.509-4.679-2.339-10.527c1.17-7.018,3.509-17.545-7.018-25.733s-24.563-7.018-33.921-5.848c-8.188,1.17-10.527,1.17-14.036-1.17s-3.509-4.679-2.339-10.527c1.17-7.018,3.509-17.545-7.018-25.733s-24.563-7.018-33.921-5.849c-8.188,1.17-10.527,1.17-14.036-1.17s-3.509-4.679-2.339-10.527c1.17-7.018,3.509-17.545-7.018-25.733A54.635,54.635,0,0,0,79.4,72.9v57.315C80.57,133.724,84.079,133.724,92.266,132.554Z" transform="translate(-84.123 173.395)" fill="#e3191b"/>
        <path id="Tracé_23049" data-name="Tracé 23049" d="M92.066,127.63c-1.17,5.848-1.17,8.188,2.339,10.527s5.848,2.339,14.036,1.17c9.358-1.17,23.394-2.339,33.921,5.848s9.357,18.715,7.018,25.733c-1.17,5.849-1.17,8.188,2.339,10.527s5.848,2.339,14.036,1.17c9.358-1.17,23.394-2.339,33.921,5.848s9.358,18.715,7.018,25.733a4.3,4.3,0,0,1-1.17,3.509h74.86l-2.339-2.339c-10.527-8.188-24.563-7.018-33.921-5.848-8.188,1.17-10.527,1.17-14.036-1.17s-3.509-4.679-2.339-10.527c1.17-7.018,3.509-17.545-7.018-25.733s-24.563-7.018-33.921-5.848c-8.188,1.17-10.527,1.17-14.036-1.17s-3.509-4.679-2.339-10.527c1.17-7.018,3.509-17.545-7.018-25.733s-24.563-7.018-33.921-5.848c-8.188,1.17-10.527,1.17-14.036-1.17s-3.509-4.679-2.339-10.527c1.17-7.018,3.509-17.545-7.018-25.733-8.188-5.848-18.715-7.018-26.9-5.848V99.557a16.146,16.146,0,0,1,4.679,3.509C95.576,110.085,94.406,120.612,92.066,127.63Z" transform="translate(-86.262 241.482)" fill="#e3191b"/>
        <path id="Tracé_23050" data-name="Tracé 23050" d="M106.2,134.414c-1.17,5.848-1.17,8.188,2.339,10.527s5.848,2.339,14.036,1.17,19.885-2.339,29.242,2.339h33.921c-1.17-4.679-2.339-9.358-8.188-12.867-10.527-8.188-24.563-7.018-33.921-5.848-8.188,1.17-10.527,1.17-14.036-1.17s-3.509-4.679-2.339-10.527c1.17-7.018,3.509-17.545-7.018-25.733s-24.563-7.018-33.921-5.848c-3.509,0-5.848,0-7.018,1.17v14.036a39.431,39.431,0,0,1,19.885,5.848C109.712,116.868,107.372,127.4,106.2,134.414Z" transform="translate(-85.192 309.558)" fill="#e3191b"/>
        <g id="Groupe_484" data-name="Groupe 484" transform="translate(-7.062 -6.358)">
          <path id="Tracé_23051" data-name="Tracé 23051" d="M131.64,68.945c-1.17,5.848-1.17,8.188,2.339,10.527s5.849,2.339,14.036,1.17h0V51.4H131.64C133.979,57.248,132.81,64.267,131.64,68.945Z" transform="translate(474.258 -50.23)" fill="#fff"/>
          <path id="Tracé_23052" data-name="Tracé 23052" d="M125.379,67.876c3.509,2.339,5.848,2.339,14.036,1.17,9.358-1.17,23.394-2.339,33.921,5.848s9.358,18.715,7.018,25.733c-1.17,5.848-1.17,8.188,2.339,10.527s5.848,2.339,14.036,1.17c9.358-1.17,23.394-2.339,33.921,5.848s9.358,18.715,7.018,25.733c-1.17,5.848-1.17,8.188,1.17,10.527V97.118q-12.282-1.754-21.054,0c-8.188,1.17-10.527,1.17-14.036-1.17s-3.509-4.679-2.339-10.527c1.17-7.018,3.509-17.545-7.018-25.733s-24.563-7.018-33.921-5.848c-8.188,1.17-10.527,1.17-14.036-1.17l-1.17-1.17H124.209c0,2.339-1.17,4.679-1.17,7.018C121.87,63.2,121.87,65.536,125.379,67.876Z" transform="translate(382.265 -49.161)" fill="#fff"/>
          <path id="Tracé_23053" data-name="Tracé 23053" d="M117.209,56.179c3.509,2.339,5.848,2.339,14.036,1.17,9.358-1.17,23.394-2.339,33.921,5.848s9.358,18.715,7.018,25.733c-1.17,5.848-1.17,8.188,2.339,10.527s5.848,2.339,14.036,1.17c9.357-1.17,23.394-2.339,33.921,5.848s9.358,18.715,7.018,25.733c-1.17,5.848-1.17,8.188,2.339,10.527s5.849,2.339,14.036,1.17c9.358-1.17,23.394-2.339,33.921,5.848s9.357,18.715,7.018,25.733c-1.17,5.848-1.17,8.188,2.339,10.527s5.848,2.339,14.036,1.17,18.715-2.339,28.072,2.339V170.808c-2.339,0-4.679,0-7.018,1.17-8.188,1.17-10.527,1.17-14.036-1.17s-3.509-4.679-2.339-10.527c1.17-7.018,3.509-17.545-7.018-25.733s-24.563-7.018-33.921-5.848c-8.188,1.17-10.527,1.17-14.036-1.17s-3.509-4.679-2.339-10.527c1.17-7.018,3.509-17.545-7.018-25.733s-24.563-7.018-33.921-5.848c-8.188,1.17-10.527,1.17-14.036-1.17s-3.509-4.679-2.339-10.527,3.509-15.206-4.679-22.224H113.7C114.87,52.67,114.87,55.009,117.209,56.179Z" transform="translate(289.842 -49.161)" fill="#fff"/>
          <path id="Tracé_23054" data-name="Tracé 23054" d="M119.827,79.472c-1.17,5.848-1.17,8.188,2.339,10.527s5.849,2.339,14.036,1.17C145.56,90,159.6,88.83,170.124,97.018s9.358,18.715,7.018,25.733c-1.17,5.848-1.17,8.188,2.339,10.527s5.848,2.339,14.036,1.17c9.358-1.17,23.394-2.339,33.921,5.848s9.358,18.715,7.018,25.733c-1.17,5.848-1.17,8.188,2.339,10.527s5.849,2.339,14.036,1.17c9.358-1.17,23.394-2.339,33.921,5.848s9.357,18.715,7.018,25.733c-1.17,5.848-1.17,8.188,2.339,10.527s5.848,2.339,14.036,1.17c9.358-1.17,23.394-2.339,33.921,5.848s9.358,18.715,7.018,25.733c-1.17,5.848-1.17,8.188,2.339,10.527s5.848,2.339,14.036,1.17c3.509,0,8.188-1.17,14.036-1.17V249.077c-2.339,0-4.679,0-5.848-2.339-3.509-2.339-3.509-4.679-2.339-10.527,1.17-7.018,3.509-17.545-7.018-25.733s-24.564-7.018-33.921-5.848c-8.188,1.17-10.527,1.17-14.036-1.17s-3.509-4.679-2.339-10.527c1.17-7.018,3.509-17.545-7.018-25.733s-24.563-7.018-33.921-5.848c-8.188,1.17-10.527,1.17-14.036-1.17s-3.509-4.679-2.339-10.527c1.17-7.018,3.509-17.545-7.018-25.733s-24.563-7.018-33.921-5.848c-8.188,1.17-10.527,1.17-14.036-1.17s-3.509-4.679-2.339-10.527c1.17-7.018,3.509-17.545-7.018-25.733s-24.563-7.018-33.921-5.848c-8.188,1.17-10.527,1.17-14.036-1.17s-3.509-4.679-2.339-10.527c1.17-3.509,1.17-7.018,1.17-11.7H109.3c1.17,1.17,2.339,1.17,3.509,2.339C123.336,61.927,121,72.454,119.827,79.472Z" transform="translate(242.776 -50.23)" fill="#fff"/>
          <path id="Tracé_23055" data-name="Tracé 23055" d="M102.67,68.845c-1.17,5.848-1.17,8.188,2.339,10.527s5.848,2.339,14.036,1.17c9.358-1.17,23.394-2.339,33.921,5.848s9.358,18.715,7.018,25.733c-1.17,5.848-1.17,8.188,2.339,10.527s5.848,2.339,14.036,1.17c9.357-1.17,23.394-2.339,33.921,5.848s9.358,18.715,7.018,25.733c-1.17,5.848-1.17,8.188,2.339,10.527s5.848,2.339,14.036,1.17c9.358-1.17,23.394-2.339,33.921,5.848s9.357,18.715,7.018,25.733c-1.17,5.848-1.17,8.188,2.339,10.527s5.848,2.339,14.036,1.17c9.358-1.17,23.394-2.339,33.921,5.848s9.358,18.715,7.018,25.733c-1.17,5.848-1.17,8.188,2.339,10.527s5.848,2.339,14.036,1.17c9.358-1.17,23.394-2.339,33.921,5.848s9.357,18.715,7.018,25.733c-1.17,5.848-1.17,8.188,2.339,10.527s5.849,2.339,14.036,1.17c9.357-1.17,23.394-2.339,33.921,5.848s9.358,18.715,7.018,25.733c-1.17,5.848-1.17,8.188,2.339,10.527s5.848,2.339,12.867,1.17V287.577a1.146,1.146,0,0,1-1.17-1.17c-10.527-8.188-24.563-7.018-33.921-5.848-8.188,1.17-10.527,1.17-14.036-1.17s-3.509-4.679-2.339-10.527c1.17-7.018,3.509-17.545-7.018-25.733s-24.563-7.018-33.921-5.848c-8.188,1.17-10.527,1.17-14.036-1.17s-3.509-4.679-2.339-10.527c1.17-7.018,3.509-17.545-7.018-25.733S321.4,192.832,312.043,194c-8.188,1.17-10.527,1.17-14.036-1.17s-3.509-4.679-2.339-10.527c1.17-7.018,3.509-17.545-7.018-25.733s-24.563-7.018-33.921-5.848c-8.188,1.17-10.527,1.17-14.036-1.17s-3.509-4.679-2.339-10.527c1.17-7.018,3.509-17.545-7.018-25.733s-24.563-7.018-33.921-5.848c-8.188,1.17-10.527,1.17-14.036-1.17s-3.509-4.679-2.339-10.527c1.17-7.018,3.509-17.545-7.018-25.733S149.457,63,140.1,64.167c-8.188,1.17-10.527,1.17-14.036-1.17s-3.509-4.679-2.339-10.527V51.3H101.5C105.009,58.318,103.839,64.167,102.67,68.845Z" transform="translate(159.34 -51.3)" fill="#fff"/>
          <path id="Tracé_23056" data-name="Tracé 23056" d="M95.339,67.776c3.509,2.339,5.849,2.339,14.036,1.17,9.358-1.17,23.394-2.339,33.921,5.848s9.358,18.715,7.018,25.733c-1.17,5.848-1.17,8.188,2.339,10.527s5.848,2.339,14.036,1.17c9.357-1.17,23.394-2.339,33.921,5.848s9.358,18.715,7.018,25.733c-1.17,5.848-1.17,8.188,2.339,10.527s5.849,2.339,14.036,1.17c9.358-1.17,23.394-2.339,33.921,5.848s9.358,18.715,7.018,25.733c-1.17,5.848-1.17,8.188,2.339,10.527s5.848,2.339,14.036,1.17c9.358-1.17,23.394-2.339,33.921,5.848s9.358,18.715,7.018,25.733c-1.17,5.848-1.17,8.188,2.339,10.527s5.848,2.339,14.036,1.17c9.358-1.17,23.394-2.339,33.921,5.848s9.357,18.715,7.018,25.733c-1.17,5.848-1.17,8.188,2.339,10.527s5.848,2.339,14.036,1.17c9.358-1.17,23.394-2.339,33.921,5.848s9.358,18.715,7.018,25.733c-1.17,5.848-1.17,8.188,2.339,10.527s5.848,2.339,14.036,1.17c9.357-1.17,23.394-2.339,33.921,5.849s9.358,18.715,7.018,25.733c-1.17,5.848-1.17,8.188,2.339,10.527s5.849,2.339,14.036,1.17c9.358-1.17,23.394-2.339,33.921,5.848,4.679,3.509,7.018,7.018,8.188,10.527V355.519c-7.018-1.17-15.206,0-19.885,0-8.188,1.17-10.527,1.17-14.036-1.17s-3.509-4.679-2.339-10.527c1.17-7.018,3.509-17.545-7.018-25.733s-24.563-7.018-33.921-5.848c-8.188,1.17-10.527,1.17-14.036-1.17s-3.509-4.679-2.339-10.527c1.17-7.018,3.509-17.545-7.018-25.733s-24.563-7.018-33.921-5.848c-8.188,1.17-10.527,1.17-14.036-1.17s-3.509-4.679-2.339-10.527c1.17-7.018,3.509-17.545-7.018-25.733s-24.563-7.018-33.921-5.848c-8.188,1.17-10.527,1.17-14.036-1.17s-3.509-4.679-2.339-10.527c1.17-7.018,3.509-17.545-7.018-25.733s-24.563-7.018-33.921-5.848c-8.188,1.17-10.527,1.17-14.036-1.17s-3.509-4.679-2.339-10.527c1.17-7.018,3.509-17.545-7.018-25.733s-24.563-7.018-33.921-5.848c-8.188,1.17-10.527,1.17-14.036-1.17s-3.509-4.679-2.339-10.527c1.17-7.018,3.509-17.545-7.018-25.733s-24.563-7.018-33.921-5.848c-8.188,1.17-10.527,1.17-14.036-1.17S171.369,90,172.538,84.151c1.17-7.018,3.509-17.545-7.018-25.733S140.957,51.4,131.6,52.57c-8.188,1.17-10.527,1.17-14.036-1.17H95.339c0,2.339-1.17,4.679-1.17,5.848C93,63.1,91.83,65.436,95.339,67.776Z" transform="translate(68.417 -50.23)" fill="#fff"/>
          <path id="Tracé_23057" data-name="Tracé 23057" d="M133.635,91.627V82.27C132.465,88.118,131.3,90.458,133.635,91.627Z" transform="translate(488.638 267.467)" fill="#fff"/>
          <path id="Tracé_23058" data-name="Tracé 23058" d="M87.809,57.248c3.509,2.339,5.848,2.339,14.036,1.17,9.358-1.17,23.394-2.339,33.921,5.848S145.124,82.982,142.784,90c-1.17,5.848-1.17,8.188,2.339,10.527s5.848,2.339,14.036,1.17c9.357-1.17,23.394-2.339,33.921,5.848s9.358,18.715,7.018,25.733c-1.17,5.848-1.17,8.188,2.339,10.527s5.848,2.339,14.036,1.17c9.358-1.17,23.394-2.339,33.921,5.848s9.358,18.715,7.018,25.733c-1.17,5.848-1.17,8.188,2.339,10.527s5.848,2.339,14.036,1.17c9.358-1.17,23.394-2.339,33.921,5.848s9.358,18.715,7.018,25.733c-1.17,5.848-1.17,8.188,2.339,10.527s5.848,2.339,14.036,1.17c9.358-1.17,23.394-2.339,33.921,5.848s9.357,18.715,7.018,25.733c-1.17,5.848-1.17,8.188,2.339,10.527s5.848,2.339,14.036,1.17c9.358-1.17,23.394-2.339,33.921,5.848s9.358,18.715,7.018,25.733c-1.17,5.849-1.17,8.188,2.339,10.527s5.848,2.339,14.036,1.17c9.357-1.17,23.394-2.339,33.921,5.848s9.358,18.715,7.018,25.733c-1.17,5.848-1.17,8.188,2.339,10.527s5.849,2.339,14.036,1.17c9.358-1.17,23.394-2.339,33.921,5.848s9.358,18.715,7.018,25.733c-1.17,5.848-1.17,8.188,2.339,10.527s5.848,2.339,14.036,1.17c9.358-1.17,23.394-2.339,33.921,5.848s9.358,18.715,7.018,25.733c-1.17,5.849-1.17,8.188,2.339,10.527s5.848,2.339,14.036,1.17c7.018-1.17,17.545-2.339,26.9,2.339V431.548h-5.849c-8.188,1.17-10.527,1.17-14.036-1.17s-3.509-4.679-2.339-10.527c1.17-7.018,3.509-17.545-7.018-25.733s-24.563-7.018-33.921-5.848c-8.188,1.17-10.527,1.17-14.036-1.17s-3.509-4.679-2.339-10.527c1.17-7.018,3.509-17.545-7.018-25.733s-24.563-7.018-33.921-5.848c-8.188,1.17-10.527,1.17-14.036-1.17s-3.509-4.679-2.339-10.527c1.17-7.018,3.509-17.545-7.018-25.733s-24.563-7.018-33.921-5.849c-8.188,1.17-10.527,1.17-14.036-1.17s-3.509-4.679-2.339-10.527c1.17-7.018,3.509-17.545-7.018-25.733s-24.563-7.018-33.921-5.848c-8.188,1.17-10.527,1.17-14.036-1.17s-3.509-4.679-2.339-10.527c1.17-7.018,3.509-17.545-7.018-25.733s-24.563-7.018-33.921-5.848c-8.188,1.17-10.527,1.17-14.036-1.17s-3.509-4.679-2.339-10.527c1.17-7.018,3.509-17.545-7.018-25.733s-24.563-7.018-33.921-5.848c-8.188,1.17-10.527,1.17-14.036-1.17s-3.509-4.679-2.339-10.527c1.17-7.018,3.509-17.545-7.018-25.733s-24.563-7.018-33.921-5.848c-8.188,1.17-10.527,1.17-14.036-1.17s-3.509-4.679-2.339-10.527c1.17-7.018,3.509-17.545-7.018-25.733s-24.563-7.018-33.921-5.848c-8.188,1.17-10.527,1.17-14.036-1.17s-3.509-4.679-2.339-10.527,2.339-14.036-3.509-22.224H84.3C85.47,53.739,86.639,54.909,87.809,57.248Z" transform="translate(-24.646 -50.23)" fill="#fff"/>
          <path id="Tracé_23059" data-name="Tracé 23059" d="M89.357,78.3c-1.17,5.848-1.17,8.188,2.339,10.527s5.848,2.339,14.036,1.17c9.358-1.17,23.394-2.339,33.921,5.848s9.358,18.715,7.018,25.733c-1.17,5.848-1.17,8.188,2.339,10.527s5.848,2.339,14.036,1.17c9.357-1.17,23.394-2.339,33.921,5.848s9.358,18.715,7.018,25.733c-1.17,5.848-1.17,8.188,2.339,10.527s5.849,2.339,14.036,1.17c9.358-1.17,23.394-2.339,33.921,5.848s9.357,18.715,7.018,25.733c-1.17,5.848-1.17,8.188,2.339,10.527s5.848,2.339,14.036,1.17c9.358-1.17,23.394-2.339,33.921,5.848s9.358,18.715,7.018,25.733c-1.17,5.848-1.17,8.188,2.339,10.527s5.848,2.339,14.036,1.17c9.357-1.17,23.394-2.339,33.921,5.848s9.358,18.715,7.018,25.733c-1.17,5.848-1.17,8.188,2.339,10.527s5.848,2.339,14.036,1.17c9.358-1.17,23.394-2.339,33.921,5.849s9.358,18.715,7.018,25.733c-1.17,5.848-1.17,8.188,2.339,10.527s5.848,2.339,14.036,1.17c9.357-1.17,23.394-2.339,33.921,5.848s9.358,18.715,7.018,25.733c-1.17,5.848-1.17,8.188,2.339,10.527s5.849,2.339,14.036,1.17c9.358-1.17,23.394-2.339,33.921,5.848s9.357,18.715,7.018,25.733c-1.17,5.849-1.17,8.188,2.339,10.527s5.848,2.339,14.036,1.17c9.358-1.17,23.394-2.339,33.921,5.849s9.358,18.715,7.018,25.733c-1.17,5.848-1.17,8.188,2.339,10.527s5.848,2.339,14.036,1.17c9.357-1.17,23.394-2.339,33.921,5.848s9.357,18.715,7.018,25.733c-1.17,3.509-1.17,5.848,0,8.188h29.242v-11.7c-2.339,0-3.509-1.17-4.679-2.339-3.509-2.339-3.509-4.679-2.339-10.527,1.17-7.018,3.509-17.545-7.018-25.733s-24.563-7.018-33.921-5.849c-8.188,1.17-10.527,1.17-14.036-1.17s-3.509-4.679-2.339-10.527c1.17-7.018,3.509-17.545-7.018-25.733s-24.563-7.018-33.921-5.848c-8.188,1.17-10.527,1.17-14.036-1.17S568.929,414,570.1,408.154c1.17-7.018,3.509-17.545-7.018-25.733s-24.563-7.018-33.921-5.848c-8.188,1.17-10.527,1.17-14.036-1.17s-3.509-4.679-2.339-10.527c1.17-7.018,3.509-17.545-7.018-25.733s-24.563-7.018-33.921-5.848c-8.188,1.17-10.527,1.17-14.036-1.17s-3.509-4.679-2.339-10.527c1.17-7.018,3.509-17.545-7.018-25.733s-24.563-7.018-33.921-5.848c-8.188,1.17-10.527,1.17-14.036-1.17s-3.509-4.679-2.339-10.527c1.17-7.018,3.509-17.545-7.018-25.733s-24.563-7.018-33.921-5.848c-8.188,1.17-10.527,1.17-14.036-1.17s-3.509-4.679-2.339-10.527c1.17-7.018,3.509-17.545-7.018-25.733s-24.563-7.018-33.921-5.848c-8.188,1.17-10.527,1.17-14.036-1.17s-3.509-4.679-2.339-10.527c1.17-7.018,3.509-17.545-7.018-25.733s-24.563-7.018-33.921-5.848c-8.188,1.17-10.527,1.17-14.036-1.17s-3.509-4.679-2.339-10.527c1.17-7.018,3.509-17.545-7.018-25.733s-24.563-7.018-33.921-5.848c-8.188,1.17-10.527,1.17-14.036-1.17s-3.509-4.679-2.339-10.527c1.17-7.018,3.509-17.545-7.018-25.733s-24.563-7.018-33.921-5.848c-8.188,1.17-10.527,1.17-14.036-1.17s-3.509-4.679-2.339-10.527c1.17-3.509,1.17-7.018,1.17-10.527H80c1.17,0,1.17,1.17,2.339,1.17C92.867,60.758,90.527,71.285,89.357,78.3Z" transform="translate(-70.643 -50.23)" fill="#fff"/>
          <path id="Tracé_23060" data-name="Tracé 23060" d="M104.933,78.981c10.527,8.188,9.358,18.715,7.018,25.733,0,5.848,0,8.188,2.339,10.527,3.509,2.339,5.849,2.339,14.036,1.17,9.358-1.17,23.394-2.339,33.921,5.848s9.357,18.715,7.018,25.733c-1.17,5.848-1.17,8.188,2.339,10.527s5.848,2.339,14.036,1.17c9.358-1.17,23.394-2.339,33.921,5.848s9.358,18.715,7.018,25.733c-1.17,5.848-1.17,8.188,2.339,10.527s5.848,2.339,14.036,1.17c9.357-1.17,23.394-2.339,33.921,5.848s9.358,18.715,7.018,25.733c-1.17,5.848-1.17,8.188,2.339,10.527s5.849,2.339,14.036,1.17c9.358-1.17,23.394-2.339,33.921,5.848s9.358,18.715,7.018,25.733c-1.17,5.848-1.17,8.188,2.339,10.527s5.848,2.339,14.036,1.17c9.358-1.17,23.394-2.339,33.921,5.849s9.358,18.715,7.018,25.733c-1.17,5.848-1.17,8.188,2.339,10.527s5.848,2.339,14.036,1.17c9.358-1.17,23.394-2.339,33.921,5.848s9.357,18.715,7.018,25.733c-1.17,5.848-1.17,8.188,2.339,10.527s5.848,2.339,14.036,1.17c9.358-1.17,23.394-2.339,33.921,5.848s9.358,18.715,7.018,25.733c-1.17,5.849-1.17,8.188,2.339,10.527s5.848,2.339,14.036,1.17c9.357-1.17,23.394-2.339,33.921,5.848s9.358,18.715,7.018,25.733c-1.17,5.849-1.17,8.188,2.339,10.527s5.848,2.339,14.036,1.17c9.358-1.17,23.394-2.339,33.921,5.848a1.146,1.146,0,0,1,1.17,1.17h28.073c0-5.849-1.17-11.7-8.188-17.545-10.527-8.188-24.563-7.018-33.921-5.849-8.188,1.17-10.527,1.17-14.036-1.17s-3.509-4.679-2.339-10.527c1.17-7.018,3.509-17.545-7.018-25.733s-24.563-7.018-33.921-5.848c-8.188,1.17-10.527,1.17-14.036-1.17s-3.509-4.679-2.339-10.527c1.17-7.018,3.509-17.545-7.018-25.733s-24.563-7.018-33.921-5.848c-8.188,1.17-10.527,1.17-14.036-1.17s-3.509-4.679-2.339-10.527c1.17-7.018,3.509-17.545-7.018-25.733s-24.563-7.018-33.921-5.849c-8.188,1.17-10.527,1.17-14.036-1.17s-3.509-4.679-2.339-10.527c1.17-7.018,3.509-17.545-7.018-25.733s-24.563-7.018-33.921-5.848c-8.188,1.17-10.527,1.17-14.036-1.17s-3.509-4.679-2.339-10.527c1.17-7.018,3.509-17.545-7.018-25.733s-24.563-7.018-33.921-5.848c-8.188,1.17-10.527,1.17-14.036-1.17s-3.509-4.679-2.339-10.527c1.17-7.018,3.509-17.545-7.018-25.733s-24.563-7.018-33.921-5.848c-8.188,1.17-10.527,1.17-14.036-1.17s-3.509-4.679-2.339-10.527c1.17-7.018,3.509-17.545-7.018-25.733s-24.563-7.018-33.921-5.848c-8.188,1.17-10.527,1.17-14.036-1.17s-3.509-4.679-2.339-10.527c1.17-7.018,3.509-17.545-7.018-25.733s-24.563-7.018-33.921-5.848c-8.188,1.17-10.527,1.17-14.036-1.17s-3.509-4.679-2.339-10.527c1.17-7.018,3.509-17.545-7.018-25.733s-24.563-7.018-33.921-5.848c-7.018,1.17-10.527,1.17-12.867,0V71.962C88.557,71.962,97.915,73.132,104.933,78.981Z" transform="translate(-79.2 -1.781)" fill="#fff"/>
          <path id="Tracé_23061" data-name="Tracé 23061" d="M119.069,120.993c10.527,8.188,9.357,18.715,7.018,25.733-1.17,5.848-1.17,8.188,2.339,10.527s5.848,2.339,14.036,1.17c9.358-1.17,23.394-2.339,33.921,5.848S185.742,182.987,183.4,190c-1.17,5.848-1.17,8.188,2.339,10.527s5.848,2.339,14.036,1.17c9.357-1.17,23.394-2.339,33.921,5.848s9.358,18.715,7.018,25.733c-1.17,5.848-1.17,8.188,2.339,10.527s5.848,2.339,14.036,1.17c9.358-1.17,23.394-2.339,33.921,5.849s9.357,18.715,7.018,25.733c-1.17,5.849-1.17,8.188,2.339,10.527s5.848,2.339,14.036,1.17c9.358-1.17,23.394-2.339,33.921,5.848s9.358,18.715,7.018,25.733c-1.17,5.848-1.17,8.188,2.339,10.527s5.848,2.339,14.036,1.17c9.357-1.17,23.394-2.339,33.921,5.848S415,356.1,412.66,363.119c-1.17,5.848-1.17,8.188,2.339,10.527s5.849,2.339,14.036,1.17c9.358-1.17,23.394-2.339,33.921,5.848s9.358,18.715,7.018,25.733c-1.17,5.849-1.17,8.188,2.339,10.527s5.848,2.339,14.036,1.17c9.357-1.17,23.394-2.339,33.921,5.848a22.239,22.239,0,0,1,8.188,12.867h19.885V433.3c1.17-7.018,3.509-17.545-7.018-25.733s-24.563-7.018-33.921-5.849c-8.188,1.17-10.527,1.17-14.036-1.17s-3.509-4.679-2.339-10.527c1.17-7.018,3.509-17.545-7.018-25.733s-24.563-7.018-33.921-5.848c-8.188,1.17-10.527,1.17-14.036-1.17s-3.509-4.679-2.339-10.527c1.17-7.018,3.509-17.545-7.018-25.733s-24.563-7.018-33.921-5.848c-8.188,1.17-10.527,1.17-14.036-1.17s-3.509-4.679-2.339-10.527c1.17-7.018,3.509-17.545-7.018-25.733s-24.563-7.018-33.921-5.849c-8.188,1.17-10.527,1.17-14.036-1.17s-3.509-4.679-2.339-10.527c1.17-7.018,3.509-17.545-7.018-25.733s-24.563-7.018-33.921-5.848c-8.188,1.17-10.527,1.17-14.036-1.17s-3.509-4.679-2.339-10.527c1.17-7.018,3.509-17.545-7.018-25.733s-24.563-7.018-33.921-5.848c-8.188,1.17-10.527,1.17-14.036-1.17s-3.509-4.679-2.339-10.527c1.17-7.018,3.509-17.545-7.018-25.733s-24.563-7.018-33.921-5.848c-8.188,1.17-10.527,1.17-14.036-1.17s-3.509-4.679-2.339-10.527c1.17-7.018,3.509-17.545-7.018-25.733S115.56,97.6,106.2,98.769c-8.188,1.17-10.527,1.17-14.036-1.17s-3.509-4.679-2.339-10.527c1.17-7.018,3.509-17.545-7.018-25.733C81.639,60.17,80.47,59,79.3,59v56.145h5.848C94.506,115.145,108.542,112.806,119.069,120.993Z" transform="translate(-78.13 31.066)" fill="#fff"/>
          <path id="Tracé_23062" data-name="Tracé 23062" d="M83.979,113.057c-1.17,5.848-1.17,8.188,2.339,10.527s5.848,2.339,14.036,1.17c9.358-1.17,23.394-2.339,33.921,5.848s9.358,18.715,7.018,25.733c-1.17,5.848-1.17,8.188,2.339,10.527s5.848,2.339,14.036,1.17c9.358-1.17,23.394-2.339,33.921,5.848s9.358,18.715,7.018,25.733c-1.17,5.848-1.17,8.188,2.339,10.527s5.848,2.339,14.036,1.17c9.358-1.17,23.394-2.339,33.921,5.848s9.357,18.715,7.018,25.733c-1.17,5.849-1.17,8.188,2.339,10.527s5.849,2.339,14.036,1.17c9.358-1.17,23.394-2.339,33.921,5.848s9.358,18.715,7.018,25.733c-1.17,5.848-1.17,8.188,2.339,10.527s5.848,2.339,14.036,1.17c9.357-1.17,23.394-2.339,33.921,5.848s9.358,18.715,7.018,25.733c-1.17,5.848-1.17,8.188,2.339,10.527s5.849,2.339,14.036,1.17c9.358-1.17,23.394-2.339,33.921,5.848,9.358,7.018,9.358,16.376,8.188,23.394h64.333c-9.357-3.509-19.885-2.339-28.072-2.339-8.188,1.17-10.527,1.17-14.036-1.17s-3.509-4.679-2.339-10.527c1.17-7.018,3.509-17.545-7.018-25.733s-24.563-7.018-33.921-5.848c-8.188,1.17-10.527,1.17-14.036-1.17s-3.509-4.679-2.339-10.527c1.17-7.018,3.509-17.545-7.018-25.733s-24.563-7.018-33.921-5.848c-8.188,1.17-10.527,1.17-14.036-1.17s-3.509-4.679-2.339-10.527c1.17-7.018,3.509-17.545-7.018-25.733s-24.563-7.018-33.921-5.849c-8.188,1.17-10.527,1.17-14.036-1.17s-3.509-4.679-2.339-10.527c1.17-7.018,3.509-17.545-7.018-25.733s-24.563-7.018-33.921-5.848c-8.188,1.17-10.527,1.17-14.036-1.17s-3.509-4.679-2.339-10.527c1.17-7.018,3.509-17.545-7.018-25.733s-24.563-7.018-33.921-5.848c-8.188,1.17-10.527,1.17-14.036-1.17s-3.509-4.679-2.339-10.527c1.17-7.018,3.509-17.545-7.018-25.733s-24.563-7.018-33.921-5.848c-8.188,1.17-10.527,1.17-14.036-1.17s-3.509-4.679-2.339-10.527c1.17-7.018,3.509-17.545-7.018-25.733C92.167,66.27,85.148,65.1,79.3,65.1V89.663C86.318,97.851,85.148,107.209,83.979,113.057Z" transform="translate(-78.13 96.317)" fill="#fff"/>
          <path id="Tracé_23063" data-name="Tracé 23063" d="M99.085,119.144c-1.17,5.848-1.17,8.188,2.339,10.527s5.848,2.339,14.036,1.17c9.357-1.17,23.394-2.339,33.921,5.848s9.358,18.715,7.018,25.733c-1.17,5.848-1.17,8.188,2.339,10.527s5.849,2.339,14.036,1.17c9.358-1.17,23.394-2.339,33.921,5.848s9.358,18.715,7.018,25.733c-1.17,5.848-1.17,8.188,2.339,10.527s5.848,2.339,14.036,1.17c9.358-1.17,23.394-2.339,33.921,5.848s9.358,18.715,7.018,25.733c-1.17,5.848-1.17,8.188,2.339,10.527s5.848,2.339,14.036,1.17c9.358-1.17,23.394-2.339,33.921,5.848s9.357,18.715,7.018,25.733c-1.17,4.679-1.17,7.018,0,9.358h77.2q-1.755-3.509-7.018-7.018c-10.527-8.188-24.563-7.018-33.921-5.848-8.188,1.17-10.527,1.17-14.036-1.17s-3.509-4.679-2.339-10.527c1.17-7.018,3.509-17.545-7.018-25.733s-24.563-7.018-33.921-5.849c-8.188,1.17-10.527,1.17-14.036-1.17s-3.509-4.679-2.339-10.527c1.17-7.018,3.509-17.545-7.018-25.733s-24.563-7.018-33.921-5.848c-8.188,1.17-10.527,1.17-14.036-1.17s-3.509-4.679-2.339-10.527c1.17-7.018,3.509-17.545-7.018-25.733-9.357-9.358-23.394-7.018-32.751-5.848-8.188,1.17-10.527,1.17-14.036-1.17s-3.509-4.679-2.339-10.527c1.17-7.018,3.509-17.545-7.018-25.733s-24.563-7.018-33.921-5.848c-8.188,1.17-10.527,1.17-14.036-1.17s-3.509-4.679-2.339-10.527c1.17-7.018,3.509-17.545-7.018-25.733S88.558,71.187,79.2,72.356V88.732c4.679,1.17,8.188,2.339,11.7,5.848C102.594,102.768,100.254,112.126,99.085,119.144Z" transform="translate(-79.2 165.09)" fill="#fff"/>
          <path id="Tracé_23064" data-name="Tracé 23064" d="M106.1,101.294c10.527,8.188,9.358,18.715,7.018,25.733-1.17,5.848-1.17,8.188,2.339,10.527s5.848,2.339,14.036,1.17c9.358-1.17,23.394-2.339,33.921,5.848s9.358,18.715,7.018,25.733c-1.17,5.848-1.17,8.188,2.339,10.527s5.848,2.339,14.036,1.17c9.358-1.17,23.394-2.339,33.921,5.848s9.357,18.715,7.018,25.733c-1.17,5.848-1.17,8.188,2.339,10.527s5.849,2.339,14.036,1.17c9.358-1.17,23.394-2.339,33.921,5.848,1.17,1.17,2.339,1.17,2.339,2.339h26.9c0-5.848-1.17-12.867-8.188-18.715-10.527-8.188-24.563-7.018-33.921-5.848-8.188,1.17-10.527,1.17-14.036-1.17s-3.509-4.679-2.339-10.527c1.17-7.018,3.509-17.545-7.018-25.733s-24.563-7.018-33.921-5.848c-8.188,1.17-10.527,1.17-14.036-1.17s-3.509-4.679-2.339-10.527c1.17-7.018,3.509-17.545-7.018-25.733s-24.563-7.018-33.921-5.848c-8.188,1.17-10.527,1.17-14.036-1.17s-3.509-4.679-2.339-10.527c1.17-7.018,3.509-17.545-7.018-25.733S102.594,77.9,93.236,79.07c-8.188,1.17-10.527,1.17-14.036-1.17V94.276C88.557,94.276,97.915,94.276,106.1,101.294Z" transform="translate(-79.2 233.237)" fill="#fff"/>
          <path id="Tracé_23065" data-name="Tracé 23065" d="M85.248,138.215c9.358-1.17,23.394-2.339,33.921,5.848s9.358,18.715,7.018,25.733c-1.17,5.848-1.17,8.188,2.339,10.527s5.848,2.339,14.036,1.17c9.357-1.17,23.394-2.339,33.921,5.848,5.849,4.679,8.188,9.358,8.188,12.867h19.885a4.3,4.3,0,0,1,1.17-3.509c1.17-7.018,3.509-17.545-7.018-25.733s-24.563-7.018-33.921-5.848c-8.188,1.17-10.527,1.17-14.036-1.17s-3.509-4.679-2.339-10.527c1.17-7.018,3.509-17.545-7.018-25.733s-24.563-7.018-33.921-5.848c-8.188,1.17-10.527,1.17-14.036-1.17s-3.509-4.679-2.339-10.527c1.17-7.018,3.509-17.545-7.018-25.733-1.17-1.17-3.509-2.339-4.679-3.509v57.315Z" transform="translate(-77.061 265.327)" fill="#fff"/>
          <path id="Tracé_23066" data-name="Tracé 23066" d="M151.82,132.818c-10.527-4.679-21.054-3.509-29.242-2.339s-10.527,1.17-14.036-1.17-3.509-4.679-2.339-10.527c1.17-7.018,3.509-17.545-7.018-25.733C93.336,88.37,86.318,87.2,79.3,87.2v23.394c8.188,7.018,7.018,16.376,5.848,23.394H151.82Z" transform="translate(-78.13 332.718)" fill="#fff"/>
        </g>
        <path id="Tracé_23067" data-name="Tracé 23067" d="M79.3,89.1v23.394h5.848C86.318,105.476,87.488,97.288,79.3,89.1Z" transform="translate(-85.192 346.684)" fill="#e3191b"/>
      </g>
    </g>
    <path id="Tracé_23069" data-name="Tracé 23069" d="M141.345,76.586c-11.7,0-17.545-5.848-17.545-15.206,0-10.527,4.679-16.376,15.206-17.545s17.545,4.679,17.545,16.376C155.382,70.737,149.533,75.416,141.345,76.586Z" transform="translate(470.622)" fill="#060607"/>
    <path id="Tracé_23070" data-name="Tracé 23070" d="M431.888,64.439,500.9,104.209c-25.733,15.206-51.466,24.563-80.708,23.394-24.563-1.17-50.3-3.509-74.86-3.509-15.206,0-30.412,1.17-43.278,9.357-4.679,2.339-8.188,3.509-14.036,1.17-23.394-14.036-49.127-10.527-74.86-8.188-43.278,4.679-85.387,4.679-125.156-21.054,26.9-15.206,52.636-29.242,78.369-43.278C237.72,93.682,312.58,74.967,385.1,78.476,402.646,77.306,416.682,66.779,431.888,64.439Z" transform="translate(87.674 196.957)" fill="#111210"/>
    <path id="Tracé_23071" data-name="Tracé 23071" d="M360.219,90.914c-12.867,17.545-31.582,18.715-50.3,18.715-52.636,1.17-104.1,1.17-156.738,0-21.054,0-42.109-4.679-58.484-22.224,18.715-17.545,36.26-31.582,66.672-24.563,44.448,10.527,90.066,8.188,134.514-2.339,10.527-2.339,18.715,0,28.073,7.018C336.825,75.708,348.522,82.726,360.219,90.914Z" transform="translate(159.343 170.482)" fill="#fefefe"/>
  </g>
</svg>
