<?xml version="1.0" encoding="utf-8"?>
<!-- Generator: Adobe Illustrator 22.0.1, SVG Export Plug-In . SVG Version: 6.00 Build 0)  -->
<svg version="1.1" id="Calque_1" xmlns="http://www.w3.org/2000/svg" xmlns:xlink="http://www.w3.org/1999/xlink" x="0px" y="0px"
	 width="360.1px" height="396px" viewBox="0 0 360.1 396" style="enable-background:new 0 0 360.1 396;" xml:space="preserve">
<g>
	<path d="M197.2,216.9c-6.4-4.9-10.5-11.3-10.9-19.8c-4.7,2.5-5.8,6.8-7.4,11.5c-3.2-15.4,12.5-30,28.1-28.8
		c-0.6,0.9-1.9,0.2-2.4,1.5c2.5,0.8,5,1.8,7.6,2.4c4.4,1.1,7.2,4.4,9.1,7.9c1.6,3-0.2,6.4-2.4,8.8c-0.8,0.9-1.2,2.1-2.6,2.9
		c-0.6-2.5,0.8-5.3-2-8.4c0,5,0,9-0.8,12.9c-0.7,3.7-1.9,7.2-5,9.5c6.3-11.4,5.9-16.2-1.8-19.4c-0.1,0.3-0.2,0.6-0.1,0.8
		c2.5,5.1-0.9,9.7-7.1,9.4c-2.4-0.1-3.3,2.1-4.7,3.4c-1.1,1,0.9,1.9,1.3,2.8C196.5,215.2,196.9,216.1,197.2,216.9z M199.7,194.4
		c2.4-0.2,5,3.8,7.3-0.5c-1.4-0.8-3.2-0.5-4.3-1.6c0.5-0.9,2.3,0.1,2.1-1.3c-0.2-1-1.2-1.7-2.5-1.3c-3.1,0.8-5.9,3.1-9.6,1.6
		c-1.3-0.5-4,4.5-3.4,6.1c0.2,0.5,0.6,1.1,1.2,0.7c2.8-2,7.2,0,9.3-3.8L199.7,194.4z M196.5,204.7c0.3-2.9-1.3-4.8-3.8-4.8
		c-2.3,0-3,2.6-3,4.5c0,2.2,1,4.4,3.6,4.4C196.1,209,196.4,206.8,196.5,204.7z"/>
	<path d="M176.7,124.1c12.1,14,27.2,25.1,37.9,40.9c0.8-2.5-1.4-3.8-0.7-6.1c3.2,7.3,5.1,14.7,7.6,21.9c5.7,16,6.7,32.6,6.5,49.4
		c-0.1,9.7,0,19.3-0.8,29c-0.4,4.8-0.2,9.8-2.6,14.2l0.1,0.1c0.3-2.6,0.5-5.3,0.8-7.9c-3.6,4.7-7.6,8.9-11.9,12.7
		c-7.9,6.8-14.1,14.8-19.5,23.8c-2.2,3.7-4,7.1-4.7,11.2c-1.3,7.3-5.7,12.7-10.9,17.2c-3.5,3.1-8.8,3.6-13.4,4.5
		c-2.6,0.5-5.4,1.9-8.8,0.6c5.7-1.6,11-2.9,16.1-4.5c10.5-3.2,20.2-21.2,15.7-31c-3.9,3.9-6.7,4.5-11.5,2.5c-4.1-1.8-8.2-3.6-12.5-5
		c-4.2-1.4-8.6-2-12.6-3.8c0.3-0.8,0.8-1,1.3-0.8c6.8,2,13.8,3.5,20.2,6.3c5.1,2.3,9.2,1.2,13.6-0.9c0.5-0.2,1-0.5,1.4-0.8
		c13.3-10.3,26.8-20.3,36.5-34.4c1.4-2,1.5-4.1,1.7-6.2c2.2-23.4,1.3-46.7-3.8-69.7c-1.1-5.1-2.7-10.3-4.8-15.1
		c-2.4-5.4-6.8-9.5-10.3-14.2c-6.8-8.9-15.3-16.2-23-24.3C181.5,130.8,178.1,128.2,176.7,124.1L176.7,124.1z"/>
	<path d="M116.9,231c-2.1-3.2-2.1-6.9-2.2-10.6c0-0.9,0.6-2.4-1.2-2.5c-1.1-0.1-2.1,0.3-2.7,1.4c-2.1,4-3.3,8-1.5,12.5
		c0.4,1,1.6,2.2,0,3.2c-1.5,0.9-2.2-0.6-3-1.3c-2.4-1.9-3.4-4.4-3.1-7.5c0.3-2.7,0.2-5.6,0.7-8c0.8-3.8,4.9-5.8,8.9-5.8
		c6.7,0,13.1,2,19.2,4.7c2.4,1,3.1,3.7,5.4,4.8c-1.1,1.2-1.6-0.7-2.4,0c5,9.1,5.6,12.4,3.1,16.3c-1-9.3-2.4-12.4-6.1-13.4
		c1,2,1.9,3.9,2.2,6c0.2,1.8,0.3,3.6-1.5,4.7c-1.8,1-3.1-0.3-4.4-1.1c-1.6-0.9-2.1-2.8-3.3-4.2c-3,7.9-3,7.9,2.3,13.5
		c-4.8-1.6-6.8-4.1-10.6-12.8c0.9,0.6,1.8,1.2,2.7,1.7c0.9,0.5,0.7,2.7,2.5,1.7c1.2-0.7,1.1-2.1,1.2-3.2c0.1-0.8-0.1-1.6-0.2-2.4
		c-0.4-2.2-1.7-4.1-3.9-4c-2.6,0.1-2.1,2.6-2.2,4.4C117,229.7,117,230.4,116.9,231z"/>
	<path d="M280.9,126c8.7,12.6,11.3,27.4,16.1,41.4c7.2,21.1,9.3,43.3,13.8,64.9c1.6,7.6,2.6,15.3,4.1,22.9c1.6,8,3.9,15.8,10.5,21.5
		c-4-1.8-6.1-5.4-7.8-9.1c-3.4-7.4-4.4-15.4-5.8-23.3c-5.6-30.2-10.7-60.6-20.4-89.8c-2.8-8.4-6.3-16.5-9.5-24.7
		C281.4,128.6,280.3,127.6,280.9,126z"/>
	<path d="M217.7,327.2c5-12,8.4-24.4,10.1-37.4c-3.7,11.8-7.8,23.4-14,34.3c11.8-25.5,18.5-52.2,20.6-80
		C235.9,262.6,225.6,315.3,217.7,327.2z"/>
	<path d="M100.7,234.5c4.4,4.8,7.7,10.5,10.3,16.4c1.9,4.3,5.1,7.7,6.4,12.7c3.8,14.2,13.6,23.2,28.3,26.9c-2.1,2.7-15.4-4-19.1-7.8
		c-4.7-4.8-9.2-9.9-10.5-16.6"/>
	<path d="M100,235.9c1,2,1.9,4.1,2.9,6.2c-1.6-0.4-1.9-1.8-2.5-3c-5.7-10.7-9.7-22.1-10.4-34.2c-0.3-5.1-1.7-10.4,0.7-15.4
		c-0.8,3.9,0.7,4.6,4.3,3.4c3.6-1.1,7.4-1.6,11.2-2.2c3-0.4,6.2-0.6,9.5,1.9c-7.9-0.2-15,0.1-22,2.3c-2.3,0.8-3.2,1.7-3.2,4.3
		c0.1,7.1,1.4,14,3,21c1.6,0.1,1.3-1.9,2.7-2.3c0.4,1.6-1.3,2.5-1.3,3.9c1,1,1.6-0.8,2.5-0.3l0,0c-1.8,2.8-0.5,5.3,0.7,7.8"/>
	<path d="M59.9,188.5c-1.5,22,6.6,43.6,2.6,65.7C65,239.5,59.4,188.5,59.9,188.5z"/>
	<path d="M176.8,124c-3.7,2.2-3.4,6.2-3.7,9.5c-1,11.5-2.6,22.8-5.6,33.9c-0.5,1.7,0,4.3-3,4.5l0,0c3.3-5,3.9-10.9,4.8-16.5
		c2.3-13.1,3.1-26.4,2.1-39.9C172.7,118.7,175.4,120.9,176.8,124C176.7,124.1,176.8,124,176.8,124z"/>
	<path d="M67,138.3c28.4-53.5,74.4-63.7,85.3-65.7c8.3-1.5,16.6-3,25-3.7c2.3-0.2,5.4,0.9,7.7-1.5c-1.7,2-3.4,4-5.5,6.5
		c0.2-4.6-2.7-4-5.2-3.7c-17.2,2-33,5.3-49.2,11.7C77.6,109.1,68.7,139.1,67,138.3z"/>
	<path d="M306.8,267.1c-1.6,0.4-1.5,1.8-1.6,2.9c-0.2,2.5-0.7,4.9-1.7,7.1c-2.9,6.2-6,12.3-9.5,18.4c4.7-8.4,4.3-17.8,6.2-26.8
		c-0.3,4.5-0.6,8.9-0.9,13.4c6.7-9.7,5.2-20.6,5.2-31.8C306.6,256.1,304.9,261.9,306.8,267.1L306.8,267.1z"/>
	<path d="M235.6,324.3c-0.7-1.8,0.7-2.9-0.4-4.7c-2.4,2.2-4.7,4.3-7.1,6.5c4.2-5.4,9.4-9.7,13.4-15.3c3.8-5.4,6.7-11.3,8.4-17.7
		C248.1,305,241.3,314.5,235.6,324.3z"/>
	<path d="M92.6,356.7c1.5,0.1,2.3-1.4,3.8-0.8c-1.5,1.6-3.4,2.1-5.5,2.6c7.9-20.4,3.1-40.9,0.8-62.4
		C95.9,311.7,98.8,343.3,92.6,356.7z"/>
	<path d="M224.7,273.4c0.5,5.5-1.5,10.7-2.8,15.9c-3.2,12.8-6.9,25.4-12.4,37.4c-1,2.2-1.9,4.4-3.7,6.1c5.5-11.5,9.6-23.5,12.9-35.7
		C220.8,289.2,222.7,281.4,224.7,273.4C224.8,273.5,224.7,273.4,224.7,273.4z"/>
	<path d="M56.7,165.7c0.9-4.5,2.3-9,3.4-13.6c1.2,0.7,0.7,1.3,0.5,1.9c-4.6,12.7-5.3,26-5.3,39.3c0,7,0.9,14.1-0.1,21.2
		C55.2,214.6,53.5,181.9,56.7,165.7z"/>
	<path d="M99.5,352.7c5.3-13.4,6.8-27,4.1-41.1c1.5,4,2.8,8.1,4.4,12c1.7,4.1,3.7,8,5.4,12c-3.5-3.9-5-8.9-7.6-13.5
		C105.7,332.8,105.1,343.4,99.5,352.7z"/>
	<path d="M260.7,236.5c-1.5-16.8-2.9-33.6-8.2-49.7c-0.4-1.4-0.4-1.4,0.9-1.7c0.3-0.1,0.4-0.5,0.6-0.8c0.1,0.7,0.2,1.3,0.3,2
		C257.9,202.8,260.3,219.5,260.7,236.5z"/>
	<path d="M164.5,171.9c1.3,1.4,2.4,0.9,3.9,0.1c4.9-2.7,9-7,14.8-8.2c-4.8,3.3-9.5,6.7-14.4,9.8c-2.9,1.9-6.3,5-7.8,5.8
		c-1.4,0.7-3.1,1-4.1,2.4C157.6,179.5,164.1,175,164.5,171.9L164.5,171.9z"/>
	<path d="M233.9,129.9c8.7,15.5,12.3,32.7,17.1,49.6C245.3,162.9,241.4,145.8,233.9,129.9z"/>
	<path d="M97.4,221.4c5.1-5.3,10.1-10.5,15.2-15.8c6.2-6.3,10.6-13.7,14.5-21.7c0.9,1.3-0.1,2-0.4,2.8c-3,8.8-8.9,15.5-15.3,21.8
		C106.9,213,103.2,218.4,97.4,221.4L97.4,221.4z"/>
	<path d="M291.5,237.9c1.4,12,2.4,24.1,1.9,36.2c-0.1,2.1-0.4,4.3-0.9,6.4C292.6,266.3,292.3,252.1,291.5,237.9z"/>
	<path d="M79.4,274.4c-4.3-7.4-10.6-32.9-10.5-41.9C71.5,246.7,74.7,260.7,79.4,274.4z"/>
	<path d="M207.6,89.7c1.4-1.1,2.1-1.6,3.1-2.4c0,0.6,0.1,0.9,0,1.2c-0.5,1-1,2-1.6,2.8c-0.6,0.9,0.9,2.7-1.3,2.8
		c0.2-1.5-1.6-2.3-1.3-4.1c0.9-4.7,2-9.3,3.5-13.8c1.2-3.6,2.3-7.2,3.4-10.9c0.3-1,0.6-2.1,1.8-1.1s-0.6,1-0.8,1.6
		c-1.6,5.1-3.3,10.3-4.8,15.4C208.9,83.8,208.4,86.3,207.6,89.7z"/>
	<path d="M125.2,340c4.4,0.7,8.7-0.1,13.8-1c-4.5-2.4-8.7-3.7-11.8-6.9c7.4,4.5,15.5,7,24.9,9.1c-1.5,0.2-1.9,0.4-2.3,0.3
		c-7.6-2.3-15-1.8-22.4,0.7C126.2,342.5,125.4,341.2,125.2,340L125.2,340z"/>
	<path d="M76.6,206.3c-4.1-13.8-6-27.7-2.7-42C71.1,178.6,73.4,192.5,76.6,206.3z"/>
	<path d="M78.9,234.2c4.2,10.6,7.6,21.4,9.2,32.8C85.3,256,81.9,245.2,78.9,234.2z"/>
	<path d="M253.3,259.7c0.1-12,1-23.8-0.3-35.5c0.9,3.8,1.4,7.7,1.3,11.6c0,3.9,0.1,7.9-0.1,11.8
		C254.1,251.6,253.7,255.6,253.3,259.7z"/>
	<path d="M77.3,237c2.2,11.1,4.3,21.5,10.1,31.9C82.3,263.8,77,246.6,77.3,237z"/>
	<path d="M306.7,267.2c2.2,0.9,3.2,3.1,4.8,4.7c5,4.9,8.2,6.8,16.4,9.4C320.9,281.7,310.1,274.4,306.7,267.2
		C306.8,267.1,306.7,267.2,306.7,267.2z"/>
	<path d="M323.4,363.8c6,6.4,8.2,14.4,9.2,22.8c-1.2-4-2.4-8-3.7-11.9C327.7,370.8,325.2,367.4,323.4,363.8z"/>
	<path d="M236.4,21.9c3.6,5.5,6.7,11.3,7.8,18C242.2,33.6,237.5,28.5,236.4,21.9L236.4,21.9z"/>
	<path d="M222.3,60.2c-1.4,2-2.2,3.3-3.5,5.2c4.4-0.5,8-1,11.7-1.4c0,0.2,0.1,0.4,0.1,0.5c-4.6,0.8-9.2,1.5-14.1,2.3
		C217.8,64.2,218.5,61.6,222.3,60.2z"/>
	<path d="M59.8,147.8c-0.6-1.3-14-34.3-14.7-35.6C36.6,96,27.4,79.4,31.7,63C23.8,83.7,55.3,130.3,59.8,147.8z"/>
	<path d="M103.9,88.3c-1.6-0.9-18.2-6.2-18.9-6.4C64,76.4,48.5,74.7,33.3,63C50.1,74.3,81.3,80.5,103.9,88.3z"/>
	<path d="M198.9,52.8c-4.2,4.4-8.4,8.8-12.6,13.2c-0.2-0.2-0.5-0.4-0.7-0.7c4.2-4.4,8.4-8.9,12.6-13.3
		C198.5,52.3,198.7,52.5,198.9,52.8z"/>
	<path d="M150.9,332.2c-3.9-0.9-6.5-5.5-6.7-11.7C146.4,324.6,147.9,328.6,150.9,332.2z"/>
	<path d="M160.1,175.3c-2.7-5.4,2.2-9,3.1-13.5C163.3,166.6,160.6,170.7,160.1,175.3C160,175.3,160.1,175.3,160.1,175.3z"/>
	<path d="M320.4,360.9c-4.1-2.8-8.6-5.1-12.9-7.5C312.5,354.6,316.8,357.2,320.4,360.9z"/>
	<path d="M222,109.5c4.4,0.9,6.7,2.9,7.5,6.7C227.5,113.9,224.8,112.3,222,109.5z"/>
	<path d="M125.2,339.9c-4.3-3.3-5.5-8.4-7.2-13.1C120.2,331.4,122.9,335.5,125.2,339.9C125.2,340,125.2,339.9,125.2,339.9z"/>
	<path d="M140.2,178.6c-1.3,4.2-2.8,7.7-4.9,10.8C137.4,186.3,135.8,181.6,140.2,178.6z"/>
	<path d="M254,317.7c-2.2,5-6.9,4.2-10.7,5.3C246.8,321.3,250.3,319.5,254,317.7z"/>
	<path d="M116,342.9c-3.8,1.7-7.5,3.3-11.3,5C108,345.1,111.7,343.3,116,342.9z"/>
	<path d="M248.8,81.5c-3.7,0.1-7.4-0.2-11.1,0C241.4,81,245.1,80.7,248.8,81.5z"/>
	<path d="M182.5,358.9c-2.4-2.1-4.8-4.3-7.1-6.4C179,353.1,180.9,355.8,182.5,358.9z"/>
	<path d="M220.6,26.1c-0.8,4.2-3.8,6.7-6.7,9.4C215.6,32,218.8,29.5,220.6,26.1z"/>
	<path d="M236.4,21.9c-2.7-3.4-1.8-7.8-3.4-11.5C234.2,14.2,236.1,17.8,236.4,21.9L236.4,21.9z"/>
	<path d="M199.8,194.3c-2.7,0.3-5.4,1.5-8.9,0c3.4-1.6,6.1-2.4,8.8,0.1C199.7,194.4,199.8,194.3,199.8,194.3z"/>
	<path d="M112.6,88.3c-0.2-0.1-3.9-1.9-5.8-2.5c-3.9-1.3-5.2-1.5-7.5-2.2C110,86.9,110,87.6,112.6,88.3z"/>
	<path d="M102.9,88.5c-0.1-0.1-0.6-1.3-0.7-1.3c-1-1.8-1.7-2.7-2.9-3.6C100.6,84.6,101.8,86.9,102.9,88.5z"/>
</g>
<g>
	<g>
		<g>
			<g>
				<path d="M162.3,263.8c0.9,2,2.2,3.9,3.7,5.5c2.6,3.5,6.2,6.4,10.2,8.5c-4.1-1.8-7.9-4.5-10.9-8C164,268,163,265.9,162.3,263.8z"
					/>
			</g>
		</g>
	</g>
	<g>
		<g>
			<g>
				<path d="M162.5,264.1c-0.1-0.3,0.1-0.5,0.2-0.7c0.2-0.2,0.3-0.4,0.5-0.6c0.4-0.3,0.8-0.6,1.2-0.9c0.9-0.6,1.8-1.1,2.7-1.5
					c1.8-0.9,3.8-1.7,5.7-2.4c1-0.2,2-0.4,3.1-0.6c0.5-0.1,1.1-0.1,1.6-0.1c0.3,0,0.6,0,0.9,0.1c0.1,0,0.3,0.1,0.5,0.2
					c0.1,0.1,0.2,0.1,0.3,0.2s0.2,0.2,0.2,0.4c0,0.1,0,0.3,0,0.4s-0.1,0.2-0.1,0.3c-0.1,0.2-0.2,0.3-0.3,0.4
					c-0.2,0.2-0.4,0.4-0.6,0.6c-0.4,0.3-0.9,0.6-1.4,0.8c-0.9,0.5-1.9,0.9-2.8,1.3c-1.9,0.8-3.9,1.4-5.9,1.9c-1,0.2-2,0.4-3,0.6
					c-0.5,0.1-1,0.1-1.5,0.1c-0.3,0-0.5,0-0.8-0.1C162.9,264.5,162.6,264.4,162.5,264.1c0.1,0.2,0.4,0.3,0.6,0.4c0.2,0,0.5,0,0.8,0
					c0.5,0,1-0.1,1.5-0.2c1-0.2,2-0.4,3-0.7c1.9-0.6,3.8-1.3,5.7-2.2c0.9-0.4,1.8-0.9,2.7-1.4c0.4-0.3,0.8-0.5,1.2-0.8
					c0.2-0.2,0.4-0.3,0.5-0.5c0.1-0.1,0.1-0.1,0.1-0.2l0,0c0.1,0,0.1,0,0.1,0c-0.1,0-0.1,0-0.1,0.1c-0.1,0.1,0,0-0.1,0
					s-0.1,0-0.2-0.1c-0.2,0-0.4,0-0.7,0c-0.5,0-1,0.1-1.4,0.2c-1,0.2-1.9,0.4-2.9,0.7c-2,0.4-3.9,1-5.8,1.7
					c-0.9,0.3-1.9,0.7-2.8,1.2c-0.4,0.2-0.9,0.5-1.3,0.8c-0.2,0.1-0.4,0.3-0.6,0.5C162.6,263.6,162.4,263.9,162.5,264.1z"/>
			</g>
		</g>
	</g>
	<g>
		<g>
			<g>
				<path d="M185.6,271.2c0.8-2.4,1.4-4.8,1.7-7.3c0.2-1.2,0.3-2.5,0.2-3.7s-0.4-2.4-1-3c-0.3-0.3-0.6-0.4-1-0.5h0.1
					c-4.7,0.2-9.4,0.7-13.9,2.1c-2.3,0.7-4.4,1.6-6.5,2.8c-1,0.6-2,1.3-2.8,2.1c-0.9,0.8-1.7,1.7-2.2,2.7c0.5-1.1,1.3-2,2.1-2.9
					c0.8-0.8,1.8-1.6,2.8-2.3c2-1.3,4.2-2.4,6.4-3.2c4.5-1.6,9.3-2.4,14.1-2.8h0.1h0.1c0.6,0.1,1.3,0.3,1.7,0.8c0.6,0.6,0.8,1.3,1,2
					c0.1,0.7,0.2,1.4,0.1,2c0,1.3-0.3,2.6-0.6,3.8C187.4,266.5,186.6,268.9,185.6,271.2z"/>
			</g>
		</g>
	</g>
</g>
</svg>
