<?xml version="1.0" encoding="utf-8"?>
<!-- Generator: Adobe Illustrator 22.0.1, SVG Export Plug-In . SVG Version: 6.00 Build 0)  -->
<svg version="1.1" xmlns="http://www.w3.org/2000/svg" xmlns:xlink="http://www.w3.org/1999/xlink" x="0px" y="0px" width="360.1px"
	 height="396px" viewBox="0 0 360.1 396" style="enable-background:new 0 0 360.1 396;" xml:space="preserve">
<style type="text/css">
	.st0{fill:#FFFFFF;}
</style>
<g id="Calque_2">
	<polygon class="st0" points="160.1,327.5 180.1,342.5 192.1,347.5 197.1,349.5 201.1,349.5 204.6,347 221.1,338.5 228.1,334.5 
		250.6,320 190.6,325 	"/>
</g>
<g id="Calque_1">
	<g>
		<path d="M138.4,222.7c-1.9,19.1-4,38.2-3.3,57.4c-0.5-18.4-2.4-36.9,1.4-55.2"/>
		<path d="M137.8,330.3c1.6-3.8-1.8-6.1,0.5-9.1c3.7,9.2,6.4,18.7,14.1,25.2c-17.2-10.3-23.5-27.5-29-45.7c-1,8.8-4,17.3-2.1,26.4
			c-10.5-12.5-4.4-80.5,1.3-102.8C120.4,260.3,119.8,296,137.8,330.3z"/>
		<path d="M305.3,64.1c-6.8,6.5-16.1,8-23.6,12.6c-7.4,4.5-13.2,2.5-20,0.2c-14.9-5-29.8-10.2-45.2-14.1c-5.3-1.3-10.2-5.4-16-6.6
			c22,0.5,41.2,11.1,61.3,18c7.4,2.5,13.8,3.1,20.8-0.2C290,70.4,297.7,67.3,305.3,64.1z"/>
		<path d="M62.4,130.6c-16.7,37.4-22.3,78.4-36,116.8C36.7,208,43.3,167.4,62.4,130.6z"/>
		<path d="M326.5,363.8c-23.2-12.5-36.7-62.9-23.4-89.8C294,308.4,302.7,338.1,326.5,363.8z"/>
		<path d="M317.2,346.2c-15.3-30.1-15-61.3-4.5-93.2c-3.9-1.9-4.2,5.4-7.8,2.6c4.4-6.2,4.4-6.2,10.5-7.2
			C302.1,290.3,305.4,317.7,317.2,346.2z"/>
		<path d="M325.2,233.9c4.3-14.7,7.1-29.5,8.8-44.4c1.7-14.9-1.4-29.3-5.1-45.4C340.9,161.2,335.8,219.4,325.2,233.9z"/>
		<g>
			<path d="M204.1,347.7c15.4-6.4,30.2-14.1,44.4-22.8c4.5-2.7,8.6-6.3,9.4-12.2c-5.8,5.9-13,10-20,14.1
				c-11.4,6.8-22.9,13.5-34.4,20.2c-4.4,2.1-8.5,0.9-12.4-1.1c-21.7-11.3-42.4-23.9-56.1-48c1.7,7.4-2.2,15.5,3.7,17.9
				c9.9,4,16,12.1,24.2,17.8c6.4,4.4,11.7,12.6,10.4,19c-3.4,17.9,9.5,25.7,18.6,36c-2.8-4.8-6.6-8.9-10.2-13.2
				c-4.1-5-7.5-10.4-6.1-17.4c0.5-2.5,1.1-5.2,4-2.4c4.6,4.3,10.1,3.4,16.5,3.8c-2.9-2.1-5.8-3.3-4.9-6.7c1.1-4.3,4.2-1.6,6.4-1.6
				C200.6,351,203.1,350.9,204.1,347.7"/>
			<path d="M258,312.3c0,0.1,0,0.3-0.1,0.4c0.1-0.1,0.2-0.1,0.2-0.2L258,312.3z"/>
		</g>
		<path d="M211.4,129.5c-12.3,12-22,26.4-35.6,37.2C185.5,152.2,197.7,140.2,211.4,129.5z"/>
		<path d="M309.7,134.1c10,22.2,8.8,44.3-0.1,66.4C316.2,178.4,317.5,156.2,309.7,134.1z"/>
		<path d="M288.7,188.7c0.5,11.8-2.2,24.4,8.1,34.2c-4.8-0.5-4.2-5-7.5-6.5c-3.6,3.2-0.9,7.9-2.9,12.5c0.5-11.1,1.5-21.5-10.6-26.8
			C287.7,205.7,287.7,205.7,288.7,188.7z"/>
		<path d="M258.2,312.5c7.5-21.3,12.4-43.7,27.9-61.3c0,0-0.2-0.2-0.2-0.2c-9.3,20.4-18.6,40.9-28,61.3
			C258,312.3,258.2,312.5,258.2,312.5z"/>
		<path d="M150.4,69.2c-3.2-19-3.1-38.5-8-56.6C147.5,18.1,152,47.2,150.4,69.2z"/>
		<path d="M160.3,183.3c1-1.6,1.9-3.3,2.9-5c-2.9-1.6-5,1.7-8.2,0.5c12.5-9.5,28.6-0.8,41.6-8.4c-3.1,5.5-5,9.6-13.7,6.1
			C175.6,173.6,165.8,174,160.3,183.3z"/>
		<path d="M338.2,61.5c3.3,15.5-8.3,28.7-6.2,44C330.9,90.3,337.4,76.3,338.2,61.5z"/>
		<path d="M66.5,124.1c4.8-11.4,9.6-23,18.9-31.8C81,104,71.9,113,66.5,124.1z"/>
		<path d="M106.5,290.6c0.7,12.7,2.7,25.1,5.2,37.4C105.4,316.2,105.3,303.4,106.5,290.6z"/>
		<path d="M93.3,77c1.7-12.6,6.1-24.2,13.1-35C102.1,53.7,97.7,65.3,93.3,77z"/>
		<path d="M325.7,208.3c0.4,10.2-4.5,18.8-7.7,27.9c-1.1,3.2-1.8-0.2-2.4-0.7c-0.6-0.5-4.1,1.3-1.9-1.1
			C320.6,226.9,322.7,217.5,325.7,208.3z"/>
		<path d="M178.4,56.4c5.7-1.2,10.8,2.4,16.5,1.8c3.5-0.3,7,0,9.3,3.4c-7.7,0.3-16.2-5.4-22.5,2.9c-1-2.5-2.2-5.4-3.3-8.3
			L178.4,56.4z"/>
		<path d="M272.2,140.7c-4.6,2.2-2.8,8-7.7,12.3c4.9-12.9,6.7-24.6,4.5-36.6c3.4,7.9,2.5,16.2,3,24.4L272.2,140.7z"/>
		<path d="M272.1,140.9c5.8,12.2,8,25.4,11.1,38.4c-0.8,0.2-1.5,0.4-2.3,0.6c-2.9-13-5.8-26.1-8.7-39.1
			C272.2,140.7,272.1,140.9,272.1,140.9z"/>
		<path d="M278.4,361.9c-4.3-10-2-20.8-2.1-31.4C277.6,340.8,275.4,351.4,278.4,361.9z"/>
		<path d="M16.6,295.7c-1.4-9.1-2.2-18.3,5-26.4c0.6,5.4-3.2,9-3.6,13.7C17.6,287.2,15.4,291.2,16.6,295.7z"/>
		<path d="M178.5,56.2c-2.9-9.8-10.5-17.3-13.1-27.3l-0.2,0.2c6.3,8.2,13.5,15.8,13.2,27.2C178.4,56.4,178.5,56.2,178.5,56.2z"/>
		<path d="M253.9,146c-0.4,9.5-3,18.2-7.5,26.4C248.8,163.6,251.3,154.8,253.9,146z"/>
		<path d="M165.4,29c-6.2-6.5-9.5-14.5-11.9-23c3.3,8,10.1,14.3,11.7,23.1C165.3,29.1,165.4,29,165.4,29z"/>
		<path d="M188,71c5.3,0.3,10.6,0.6,16.7,1C198,78.7,193.3,72,188,71z"/>
	</g>
	<path d="M184.2,241.5c0.6-1.2,3.1-2.4,1.7-3.6c-1.8-1.5-2.9-4.4-5.9-4.2c-7.8,0.3-12.1-5.4-8.9-11.8c0.1-0.2-0.1-0.6-0.2-1
		c-9.7,4-10.2,10.1-2.3,24.5c-4-2.9-5.4-7.3-6.3-12c-1-4.9-1.1-9.9-1-16.2c-3.6,3.9-1.8,7.4-2.5,10.6c-1.8-1.1-2.3-2.6-3.3-3.7
		c-2.7-3.1-5-7.3-3-11.1c2.4-4.5,5.9-8.6,11.5-10c3.2-0.8,6.4-2,9.6-3.1c-0.5-1.7-2.2-0.7-3-1.9c19.6-1.5,39.4,16.8,35.3,36.2
		c-2-5.8-3.4-11.4-9.4-14.5c-0.6,10.7-5.7,18.7-13.8,24.9C183.2,243.6,183.7,242.6,184.2,241.5z M179.5,216.2
		c2.6,4.8,8.2,2.2,11.7,4.8c0.7,0.5,1.2-0.3,1.5-0.9c0.8-2.1-2.6-8.4-4.2-7.7c-4.6,1.9-8.1-0.9-12-2c-1.6-0.4-3,0.4-3.2,1.7
		c-0.3,1.8,2,0.5,2.7,1.7c-1.4,1.4-3.6,1.1-5.4,2c2.8,5.4,6.2,0.4,9.1,0.6L179.5,216.2z M187.7,234.6c3.3-0.1,4.6-2.8,4.6-5.6
		c0-2.5-0.9-5.8-3.8-5.7c-3.1,0-5.1,2.4-4.7,6C183.9,231.9,184.2,234.7,187.7,234.6z"/>
	<path d="M268.9,253.3c2.7-4.1,2.7-8.7,2.8-13.3c0-1.2-0.7-3,1.5-3.2c1.4-0.1,2.7,0.4,3.4,1.8c2.7,5,4.2,10.1,1.9,15.7
		c-0.5,1.3-2,2.7,0,4c1.9,1.2,2.8-0.8,3.8-1.6c3.1-2.4,4.3-5.5,3.8-9.5c-0.4-3.4-0.3-7.1-0.9-10.1c-1.1-4.8-6.2-7.3-11.3-7.3
		c-8.5-0.1-16.5,2.6-24.2,5.9c-3,1.3-3.9,4.6-6.8,6c1.4,1.5,2-0.9,3.1,0c-6.3,11.5-7,15.6-3.9,20.5c1.3-11.8,3-15.6,7.7-16.9
		c-1.2,2.5-2.4,4.9-2.7,7.5c-0.3,2.3-0.4,4.6,1.9,5.9c2.2,1.3,3.9-0.4,5.6-1.4c2-1.2,2.6-3.5,4.1-5.2c3.8,10,3.8,10-2.9,17
		c6-2,8.6-5.2,13.3-16.2c-1.1,0.7-2.2,1.5-3.4,2.1c-1.1,0.6-0.9,3.4-3.2,2.1c-1.5-0.9-1.4-2.6-1.6-4.1c-0.1-1,0.1-2,0.3-3
		c0.5-2.7,2.1-5.1,4.9-5c3.3,0.1,2.7,3.2,2.7,5.5C268.8,251.6,268.9,252.4,268.9,253.3z"/>
	<g>
		<g>
			<g>
				<g>
					<path d="M218,304.6c-1.1,3.1-2.6,6.1-4.6,8.9c-4.3,5.2-9.8,9.2-15.9,11.9c5.9-3,11.2-7.2,15.2-12.4
						C214.8,310.5,216.6,307.7,218,304.6z"/>
				</g>
			</g>
		</g>
		<g>
			<g>
				<g>
					<path d="M217.7,305.1c0.1-0.4-0.2-0.7-0.4-1c-0.3-0.3-0.5-0.5-0.8-0.7c-0.6-0.4-1.3-0.8-1.9-1.2c-1.3-0.7-2.7-1.3-4.1-1.8
						c-2.8-1.1-5.7-2-8.6-2.6c-1.4-0.4-2.9-0.8-4.3-1c-0.7-0.1-1.5-0.2-2.2-0.2c-0.4,0-0.7,0-1,0.1c-0.3,0-0.6,0.2-0.5,0.2
						c0,0,0.1,0.3,0.3,0.5c0.2,0.2,0.5,0.5,0.7,0.7c0.6,0.5,1.2,0.9,1.8,1.2c1.3,0.8,2.6,1.4,4,2.1c2.7,1.2,5.5,2.3,8.4,3.1
						c1.4,0.4,2.9,0.8,4.4,1c0.7,0.1,1.5,0.2,2.2,0.2c0.4,0,0.8,0,1.1-0.1C217.1,305.6,217.5,305.5,217.7,305.1
						c-0.1,0.4-0.6,0.5-0.9,0.6c-0.4,0.1-0.8,0.1-1.1,0.1c-0.8,0-1.5-0.1-2.3-0.2c-1.5-0.2-3-0.5-4.5-0.9c-2.9-0.7-5.8-1.7-8.6-2.8
						c-1.4-0.6-2.8-1.2-4.1-2c-0.7-0.4-1.3-0.8-2-1.2c-0.3-0.2-0.6-0.5-0.9-0.8c-0.1-0.2-0.3-0.3-0.4-0.6c-0.1-0.2-0.2-0.6-0.1-0.9
						c0.1-0.4,0.4-0.6,0.7-0.7c0.2-0.1,0.5-0.2,0.7-0.2c0.4-0.1,0.8-0.1,1.2-0.1c0.8,0,1.6,0.1,2.3,0.2c1.5,0.2,3,0.5,4.5,0.9
						c2.9,0.9,5.7,2,8.5,3.3c1.4,0.7,2.7,1.4,4,2.2c0.6,0.4,1.3,0.8,1.8,1.3c0.3,0.2,0.6,0.5,0.8,0.8
						C217.6,304.4,217.8,304.7,217.7,305.1z"/>
				</g>
			</g>
		</g>
		<g>
			<g>
				<g>
					<path d="M183.6,315.6c-1.4-3.4-2.6-6.9-3.4-10.6c-0.4-1.8-0.7-3.7-0.7-5.6c0-1,0-1.9,0.2-2.9c0.2-1,0.6-2,1.4-2.8
						c0.7-0.6,1.5-1,2.4-1.1l0.1,0l0.1,0c7,0.6,14.1,1.6,20.7,4c3.3,1.1,6.6,2.6,9.5,4.6c1.5,1,2.9,2.1,4.1,3.3
						c1.3,1.2,2.4,2.6,3.1,4.2c-0.8-1.6-2-2.9-3.3-4.1c-1.3-1.2-2.7-2.2-4.2-3.1c-3-1.8-6.2-3.2-9.5-4.2c-6.7-2.1-13.6-2.9-20.6-3.3
						l0.1,0c-0.6,0.1-1.2,0.4-1.6,0.8c-1.1,1-1.5,2.9-1.6,4.6c-0.1,1.8,0.1,3.6,0.4,5.4C181.5,308.5,182.4,312.1,183.6,315.6z"/>
				</g>
			</g>
		</g>
	</g>
</g>
</svg>
