<svg id="Calque_1" data-name="Calque 1" xmlns="http://www.w3.org/2000/svg" viewBox="0 0 142.32 36.5"><defs><style>.cls-1{fill:#faea25;}.cls-2{isolation:isolate;}</style></defs><title>logo2</title><path class="cls-1" d="M189.7,394.74c0-.05-.1,0,0,.05S189.75,394.74,189.7,394.74Z" transform="translate(-121.06 -379.23)"/><path class="cls-1" d="M189.5,394.79h-.15C189,394.74,189.5,394.94,189.5,394.79Z" transform="translate(-121.06 -379.23)"/><path class="cls-1" d="M145.59,395.14c-.15,0-.25.05-.25.1C145.49,395.29,145.59,395.24,145.59,395.14Z" transform="translate(-121.06 -379.23)"/><path class="cls-1" d="M143.43,395.29c.1.1.2,0,.25-.05-.15,0-.35.05-.45-.05,0,.1-.1.1,0,.2S143.33,395.34,143.43,395.29Z" transform="translate(-121.06 -379.23)"/><path class="cls-1" d="M144,395.19c-.1.05-.25.05-.3.1C143.88,395.34,144,395.34,144,395.19Z" transform="translate(-121.06 -379.23)"/><path class="cls-1" d="M144.49,395.24s.15,0,.15-.05S144.49,395.19,144.49,395.24Z" transform="translate(-121.06 -379.23)"/><path class="cls-1" d="M143.08,395.29c-.2,0-.25-.05-.4-.05s-.45-.1-.5.05c.25-.05.2.15.4.1S143,395.39,143.08,395.29Z" transform="translate(-121.06 -379.23)"/><path class="cls-1" d="M150.8,395.29c-.25,0-.55,0-.7-.05C150.1,395.54,150.75,395.49,150.8,395.29Z" transform="translate(-121.06 -379.23)"/><path class="cls-1" d="M138.27,395.34s-.1,0-.05.05S138.32,395.34,138.27,395.34Z" transform="translate(-121.06 -379.23)"/><path class="cls-1" d="M140.38,395.59c.05-.2.4,0,.45-.2-.15-.1-.5.05-.85,0C139.93,395.64,140.33,395.44,140.38,395.59Z" transform="translate(-121.06 -379.23)"/><path class="cls-1" d="M145.39,395.39c0,.05.1.05.15,0S145.44,395.29,145.39,395.39Z" transform="translate(-121.06 -379.23)"/><path class="cls-1" d="M146.74,395.39c0-.05.1,0,.15-.05S146.74,395.34,146.74,395.39Z" transform="translate(-121.06 -379.23)"/><path class="cls-1" d="M148.5,395.39c.05-.05.15,0,.15-.05S148.5,395.34,148.5,395.39Z" transform="translate(-121.06 -379.23)"/><path class="cls-1" d="M132.36,395.44a.3.3,0,0,0,.15-.05S132.36,395.39,132.36,395.44Z" transform="translate(-121.06 -379.23)"/><path class="cls-1" d="M133.06,395.49c.1.1.35.05.5,0s.35,0,.5.05h.65a4.85,4.85,0,0,0,.85,0h.26c.1,0,.1.1.15,0s.4.1.45,0c-.2-.1-.2,0-.56,0a2.2,2.2,0,0,0-.85-.05c-.15.05-.1-.1-.3-.05h-.55c-.3-.05-.35,0-.7-.05H133c-.15.05-.35,0-.4.1C132.81,395.49,132.91,395.64,133.06,395.49Z" transform="translate(-121.06 -379.23)"/><path class="cls-1" d="M138.72,395.54c.5,0,.75-.05,1.1-.05.06-.25-.35-.05-.55-.1,0,.05,0,.05-.05.05h-.65c-.1.1-.45-.05-.55.1A1.05,1.05,0,0,0,138.72,395.54Z" transform="translate(-121.06 -379.23)"/><path class="cls-1" d="M143.84,395.44s.1-.05,0-.05S143.79,395.39,143.84,395.44Z" transform="translate(-121.06 -379.23)"/><path class="cls-1" d="M144.54,395.44c.05,0,.1-.05.05-.05S144.49,395.39,144.54,395.44Z" transform="translate(-121.06 -379.23)"/><path class="cls-1" d="M144.84,395.39c0-.05-.1,0-.05.05S144.89,395.39,144.84,395.39Z" transform="translate(-121.06 -379.23)"/><path class="cls-1" d="M146.39,395.44c.1,0,.2,0,.2-.05S146.39,395.39,146.39,395.44Z" transform="translate(-121.06 -379.23)"/><path class="cls-1" d="M137.17,395.64c0-.35-.3-.05-.4-.2,0,.2-.3.05-.15.3A2.13,2.13,0,0,0,137.17,395.64Z" transform="translate(-121.06 -379.23)"/><path class="cls-1" d="M137.67,395.49c0-.05-.1,0,0,.05S137.72,395.54,137.67,395.49Z" transform="translate(-121.06 -379.23)"/><path class="cls-1" d="M137.37,395.54c0-.05-.1,0-.05,0S137.42,395.59,137.37,395.54Z" transform="translate(-121.06 -379.23)"/><path class="cls-1" d="M134.56,395.79c.25,0,0-.2,0,0Z" transform="translate(-121.06 -379.23)"/><path class="cls-1" d="M134.11,395.89a.64.64,0,0,0,.45-.1C134.41,395.79,134.11,395.74,134.11,395.89Z" transform="translate(-121.06 -379.23)"/><path class="cls-1" d="M136.17,395.79c0-.05-.1,0,0,0S136.22,395.84,136.17,395.79Z" transform="translate(-121.06 -379.23)"/><path class="cls-1" d="M135.16,395.89a.17.17,0,0,0,.15-.05C135.26,395.84,135.16,395.84,135.16,395.89Z" transform="translate(-121.06 -379.23)"/><path class="cls-1" d="M135.51,395.84s-.1,0,0,.05S135.56,395.89,135.51,395.84Z" transform="translate(-121.06 -379.23)"/><path class="cls-1" d="M134,396.09c.15.05.3.05.3-.1-.15.05-.15-.05-.15-.1-.15,0-.05.05,0,.05a1.08,1.08,0,0,0-.45.2c-.1,0-.2,0-.2.05S133.86,396.19,134,396.09Z" transform="translate(-121.06 -379.23)"/><path class="cls-1" d="M134.81,396c.05-.05.15,0,.15-.05S134.81,395.94,134.81,396Z" transform="translate(-121.06 -379.23)"/><path class="cls-1" d="M133.21,396.19a.61.61,0,0,0,.45-.2C133.51,396,133.21,395.94,133.21,396.19Z" transform="translate(-121.06 -379.23)"/><path class="cls-1" d="M134.81,396h-.2c-.05,0-.15,0-.15.05h.2C134.71,396,134.81,396,134.81,396Z" transform="translate(-121.06 -379.23)"/><path class="cls-1" d="M132.16,396.24a.29.29,0,0,0,.3-.2c-.3-.05-.4.15-.7.15,0,.15-.35.05-.3.35.25,0,.4-.1.65-.1C132.11,396.34,132.11,396.24,132.16,396.24Z" transform="translate(-121.06 -379.23)"/><path class="cls-1" d="M166.39,396h-.3c-.05,0-.3-.1-.3,0h.3S166.39,396.19,166.39,396Z" transform="translate(-121.06 -379.23)"/><path class="cls-1" d="M166.54,396.09c.05,0,.15,0,.15,0S166.54,396,166.54,396.09Z" transform="translate(-121.06 -379.23)"/><path class="cls-1" d="M167.34,396.09a.17.17,0,0,0,.15,0C167.44,396,167.34,396,167.34,396.09Z" transform="translate(-121.06 -379.23)"/><path class="cls-1" d="M165.29,396.14c.1,0,.25.05.25-.05h-.4C164.89,396.09,165.14,396.19,165.29,396.14Z" transform="translate(-121.06 -379.23)"/><path class="cls-1" d="M164.64,396.19h.2c0-.05-.1-.05-.15-.05h-.4s-.3-.1-.3.05S164.39,396.14,164.64,396.19Z" transform="translate(-121.06 -379.23)"/><path class="cls-1" d="M164,396.19h-.46c-.15,0-.4-.1-.4.05h.46C163.73,396.24,164,396.34,164,396.19Z" transform="translate(-121.06 -379.23)"/><path class="cls-1" d="M132.26,396.34s0,0,0,0S132.26,396.39,132.26,396.34Z" transform="translate(-121.06 -379.23)"/><path class="cls-1" d="M162.33,396.29h.4c.05,0,.15,0,.15-.05h-.65c0,.1-.15.1-.15.2C162.28,396.54,162.23,396.34,162.33,396.29Z" transform="translate(-121.06 -379.23)"/><path class="cls-1" d="M163.08,396.29c0-.05-.1,0-.05,0S163.13,396.29,163.08,396.29Z" transform="translate(-121.06 -379.23)"/><path class="cls-1" d="M144.19,396.39a.29.29,0,0,0,.2-.05C144.29,396.34,144.19,396.34,144.19,396.39Z" transform="translate(-121.06 -379.23)"/><path class="cls-1" d="M144.69,396.39a.17.17,0,0,0,.15-.05C144.79,396.34,144.69,396.34,144.69,396.39Z" transform="translate(-121.06 -379.23)"/><rect class="cls-1" x="24.73" y="17.12" width="0.15" height="0.1"/><path class="cls-1" d="M146.49,396.34h-.15C146,396.29,146.49,396.49,146.49,396.34Z" transform="translate(-121.06 -379.23)"/><path class="cls-1" d="M146.74,396.44a.29.29,0,0,0,.2-.05C146.84,396.39,146.74,396.39,146.74,396.44Z" transform="translate(-121.06 -379.23)"/><path class="cls-1" d="M131.25,396.49c-.1-.05-.25-.05-.25.05S131.2,396.59,131.25,396.49Z" transform="translate(-121.06 -379.23)"/><path class="cls-1" d="M193.6,398s-.07,0,0,0h.07S193.62,398,193.6,398Z" transform="translate(-121.06 -379.23)"/><path class="cls-1" d="M218.87,398.08h0Z" transform="translate(-121.06 -379.23)"/><path class="cls-1" d="M236.46,414.34s0,0,.07-.06h-.24C236.36,414.29,236.38,414.34,236.46,414.34Z" transform="translate(-121.06 -379.23)"/><path class="cls-1" d="M203.94,398h0l0,0Z" transform="translate(-121.06 -379.23)"/><path class="cls-1" d="M216.4,398.2h.06a0,0,0,0,0,0,0S216.4,398.18,216.4,398.2Z" transform="translate(-121.06 -379.23)"/><path class="cls-1" d="M217.56,398.2c.15,0,.4.08.45,0h0a1.1,1.1,0,0,0-.51,0c-.15-.08-.63-.11-.65,0h.7Z" transform="translate(-121.06 -379.23)"/><polygon class="cls-1" points="122.92 34.76 122.92 34.76 122.93 34.76 122.92 34.76 122.92 34.76"/><path class="cls-1" d="M211.5,397.88c-.05,0-.2,0-.2,0h0C211.21,398,211.51,397.92,211.5,397.88Z" transform="translate(-121.06 -379.23)"/><polygon class="cls-1" points="131.74 34.88 131.75 34.88 131.74 34.88 131.74 34.88"/><path class="cls-1" d="M213.21,397.92s.35.12.4,0h0c-.25,0-.35-.12-.5,0,0-.08-.1-.08-.25-.08v.08a1.36,1.36,0,0,0-.4,0c-.15,0-.4-.08-.4,0s.2,0,.2,0A7.53,7.53,0,0,0,213.21,397.92Z" transform="translate(-121.06 -379.23)"/><polygon class="cls-1" points="127.84 34.8 127.84 34.8 127.84 34.8 127.84 34.8 127.84 34.8"/><path class="cls-1" d="M252.1,414.1h0a0,0,0,0,1,0,0Z" transform="translate(-121.06 -379.23)"/><path class="cls-1" d="M200.83,396.84h-.2c-.1,0-.2,0-.2,0h.2C200.73,396.88,200.83,396.88,200.83,396.84Z" transform="translate(-121.06 -379.23)"/><path class="cls-1" d="M192,397.08h0C191.91,397,191.91,397.08,192,397.08Z" transform="translate(-121.06 -379.23)"/><path class="cls-1" d="M202.93,397.4c0-.08.35,0,.4-.08h0c-.31,0-.51,0-.75,0h-.86c-.1.12-.6,0-.7.08A13.43,13.43,0,0,0,202.93,397.4Z" transform="translate(-121.06 -379.23)"/><polygon class="cls-1" points="140.67 27.85 140.67 27.85 140.67 27.85 140.67 27.85"/><path class="cls-1" d="M200.78,397.36c.05,0,.1,0,.05,0S200.73,397.32,200.78,397.36Z" transform="translate(-121.06 -379.23)"/><path class="cls-1" d="M201,396.84s-.1,0,0,0h0S201,396.84,201,396.84Z" transform="translate(-121.06 -379.23)"/><path class="cls-1" d="M216.65,398h-.2C216.53,398,216.59,398.05,216.65,398Z" transform="translate(-121.06 -379.23)"/><polygon class="cls-1" points="79.72 18.14 79.72 18.14 79.72 18.14 79.72 18.14"/><path class="cls-1" d="M242.88,398.35c-.23-.06-.23,0-.25.12l.11,0C242.92,398.51,242.92,398.5,242.88,398.35Z" transform="translate(-121.06 -379.23)"/><path class="cls-1" d="M228.38,398.2H228v.08h.38S228.39,398.24,228.38,398.2Z" transform="translate(-121.06 -379.23)"/><path class="cls-1" d="M252.6,414.18a.24.24,0,0,0,.2-.08C252.71,414.1,252.61,414.11,252.6,414.18Z" transform="translate(-121.06 -379.23)"/><path class="cls-1" d="M223.34,398.16a.52.52,0,0,0-.39,0l.36,0h0Z" transform="translate(-121.06 -379.23)"/><path class="cls-1" d="M239.47,398.43c.1,0,.2,0,.2,0s-.35,0-.4,0,.07,0,0,.05l.21,0S239.48,398.45,239.47,398.43Z" transform="translate(-121.06 -379.23)"/><path class="cls-1" d="M233.25,398.48h0Z" transform="translate(-121.06 -379.23)"/><path class="cls-1" d="M230.34,398.28h0s0,0,0,0h0S230.38,398.21,230.34,398.28Z" transform="translate(-121.06 -379.23)"/><path class="cls-1" d="M253.45,398.4s-.15,0-.15,0h0C253.36,398.44,253.46,398.44,253.45,398.4Z" transform="translate(-121.06 -379.23)"/><path class="cls-1" d="M218.22,414.06a.28.28,0,0,0,.2,0c-.1,0-.2,0-.2,0Z" transform="translate(-121.06 -379.23)"/><path class="cls-1" d="M218.62,414.1c0,.16.3,0,0,0Z" transform="translate(-121.06 -379.23)"/><path class="cls-1" d="M218.22,414.14a.2.2,0,0,0,.15,0c-.05,0-.15,0-.15,0Z" transform="translate(-121.06 -379.23)"/><path class="cls-1" d="M216.92,414.1a.3.3,0,0,1,.2-.08h0A.26.26,0,0,1,216.92,414.1Z" transform="translate(-121.06 -379.23)"/><path class="cls-1" d="M218.62,414.1h0C218.57,413.94,218.32,414.14,218.62,414.1Z" transform="translate(-121.06 -379.23)"/><path class="cls-1" d="M243.42,398.4c.1,0,.2,0,.2,0h-.25c-.2,0-.35,0-.4.08h0C243.09,398.56,243.24,398.4,243.42,398.4Z" transform="translate(-121.06 -379.23)"/><path class="cls-1" d="M237.82,397.2h0c-.15,0-.2-.08-.25,0C237.67,397.32,237.82,397.32,237.82,397.2Z" transform="translate(-121.06 -379.23)"/><path class="cls-1" d="M252.16,414.22c.1,0,.2,0,.19,0s-.2,0-.2,0Z" transform="translate(-121.06 -379.23)"/><path class="cls-1" d="M180.28,414.06h0s.1,0,.05,0S180.23,414,180.28,414.06Z" transform="translate(-121.06 -379.23)"/><path class="cls-1" d="M216.87,397.64a.34.34,0,0,0,.2,0c-.1,0-.2,0-.2,0Z" transform="translate(-121.06 -379.23)"/><path class="cls-1" d="M216.52,397.84s.15,0,.15,0S216.53,397.8,216.52,397.84Z" transform="translate(-121.06 -379.23)"/><path class="cls-1" d="M216.07,414.06h0c.05,0,.1,0,.05,0S216,414,216.07,414.06Z" transform="translate(-121.06 -379.23)"/><path class="cls-1" d="M214.31,414h0s.1,0,.05,0S214.26,414,214.31,414Z" transform="translate(-121.06 -379.23)"/><path class="cls-1" d="M210.75,414.1h0c.05,0,.1,0,.05,0S210.7,414.06,210.75,414.1Z" transform="translate(-121.06 -379.23)"/><path class="cls-1" d="M208.4,414.1s.15,0,.14,0-.15,0-.15,0Z" transform="translate(-121.06 -379.23)"/><path class="cls-1" d="M240.38,397.56s-.1,0,0,0h0S240.43,397.56,240.38,397.56Z" transform="translate(-121.06 -379.23)"/><polygon class="cls-1" points="95.45 18.62 95.46 18.61 95.45 18.61 95.45 18.62"/><path class="cls-1" d="M248.55,397.6c-.1,0-.05,0,0,0S248.6,397.52,248.55,397.6Z" transform="translate(-121.06 -379.23)"/><path class="cls-1" d="M246,414.06a.19.19,0,0,0,.15,0c-.05,0-.15,0-.15,0Z" transform="translate(-121.06 -379.23)"/><path class="cls-1" d="M251.15,414.14h0s.05.08,0,0l0,0S251.15,414.13,251.15,414.14Z" transform="translate(-121.06 -379.23)"/><path class="cls-1" d="M247.19,414.1h0a.18.18,0,0,0,.14,0C247.29,414.06,247.19,414.06,247.19,414.1Z" transform="translate(-121.06 -379.23)"/><path class="cls-1" d="M245,398l0,0s0,0,0,0h0S245,398.08,245,398Z" transform="translate(-121.06 -379.23)"/><path class="cls-1" d="M250.05,414.22h0s.1,0,0,0S250,414.18,250.05,414.22Z" transform="translate(-121.06 -379.23)"/><path class="cls-1" d="M131.35,413.86h0c.1,0,.25,0,.3,0h-.15C131.45,413.82,131.35,413.82,131.35,413.86Z" transform="translate(-121.06 -379.23)"/><path class="cls-1" d="M247.7,397.6v.12c.1,0,.1,0,.15,0S247.85,397.56,247.7,397.6Z" transform="translate(-121.06 -379.23)"/><path class="cls-1" d="M212,397.88h0c-.15,0-.5-.08-.46.08C211.75,398,212,398,212,397.88Z" transform="translate(-121.06 -379.23)"/><path class="cls-1" d="M213.76,397.88c.4,0,.75.16.9,0h0C214.31,397.88,214,397.68,213.76,397.88Z" transform="translate(-121.06 -379.23)"/><path class="cls-1" d="M248.2,397.56c-.1,0-.2,0-.2,0h0C248.1,397.6,248.2,397.6,248.2,397.56Z" transform="translate(-121.06 -379.23)"/><polygon class="cls-1" points="127.04 18.5 127.04 18.5 127.03 18.49 127.04 18.5"/><path class="cls-1" d="M240,414.14h0s.1,0,0,0S240,414.1,240,414.14Z" transform="translate(-121.06 -379.23)"/><path class="cls-1" d="M248.1,397.72c0,.08.05,0,.15,0S248.1,397.64,248.1,397.72Z" transform="translate(-121.06 -379.23)"/><path class="cls-1" d="M249,399.56l0,0h0v-.05Z" transform="translate(-121.06 -379.23)"/><path class="cls-1" d="M208.39,397.84c0,.16.26,0,0,0Z" transform="translate(-121.06 -379.23)"/><path class="cls-1" d="M232.88,398.52h-.16l0,0A.42.42,0,0,1,232.88,398.52Z" transform="translate(-121.06 -379.23)"/><polygon class="cls-1" points="87.03 18.58 87.04 18.58 87.03 18.57 87.03 18.58"/><path class="cls-1" d="M213.51,397.88c.05,0,.15,0,.15,0S213.52,397.84,213.51,397.88Z" transform="translate(-121.06 -379.23)"/><path class="cls-1" d="M201.38,397.8s-.1,0,0,0Z" transform="translate(-121.06 -379.23)"/><path class="cls-1" d="M228.25,414.12s0,0,0,0,0,0,0,0,0,0,0,0,0,0,0,0Z" transform="translate(-121.06 -379.23)"/><path class="cls-1" d="M201.13,397.84h0s.1,0,.05,0S201.08,397.8,201.13,397.84Z" transform="translate(-121.06 -379.23)"/><path class="cls-1" d="M208.6,397.52c-.1,0-.15,0-.25,0h0C208.25,397.64,208.6,397.64,208.6,397.52Z" transform="translate(-121.06 -379.23)"/><path class="cls-1" d="M236.53,414.28l0,0,0,0Z" transform="translate(-121.06 -379.23)"/><path class="cls-1" d="M198.37,397.92a.55.55,0,0,0-.25,0c-.25,0-.7-.12-.75.08.19,0,.56-.06.72,0h.49c.2,0,.2-.08.4,0h.24s-.16,0-.2-.08A3.55,3.55,0,0,0,198.37,397.92Z" transform="translate(-121.06 -379.23)"/><path class="cls-1" d="M234.11,398.51v0a2.13,2.13,0,0,0-.7,0,.21.21,0,0,0-.13,0v0A2.89,2.89,0,0,0,234.11,398.51Z" transform="translate(-121.06 -379.23)"/><path class="cls-1" d="M208,397.6c.1,0,.19,0,.2,0S208,397.56,208,397.6Z" transform="translate(-121.06 -379.23)"/><path class="cls-1" d="M198.12,398h0Z" transform="translate(-121.06 -379.23)"/><path class="cls-1" d="M237.58,398.51a.83.83,0,0,1,.23,0A.29.29,0,0,0,237.58,398.51Z" transform="translate(-121.06 -379.23)"/><path class="cls-1" d="M239,397.67h.08c.24-.11.34-.23.64-.15,0-.08,0-.16.05-.2h0c-.4-.08-.8,0-1.06-.12a.19.19,0,0,1-.15,0h-.5c0,.16.1.16.25.16,0,.16.15.12.2.2s-.14,0-.14,0h0A2.21,2.21,0,0,1,239,397.67Z" transform="translate(-121.06 -379.23)"/><path class="cls-1" d="M202.48,397.92s-.15,0-.15,0h.2c.05,0,.15,0,.15,0Z" transform="translate(-121.06 -379.23)"/><path class="cls-1" d="M250.89,399.48s-.15,0-.15,0h0C250.81,399.48,250.91,399.52,250.89,399.48Z" transform="translate(-121.06 -379.23)"/><path class="cls-1" d="M249.33,399.52a.3.3,0,0,0,.2.08h.4c0-.08.35,0,.4-.08-.15-.08-.55,0-.7-.08,0,.12-.4,0-.45,0s-.05.16-.15.16h0C249.23,399.64,249.23,399.56,249.33,399.52Z" transform="translate(-121.06 -379.23)"/><path class="cls-1" d="M208.65,397.6h0s.1,0,0,0S208.6,397.56,208.65,397.6Z" transform="translate(-121.06 -379.23)"/><path class="cls-1" d="M239.1,398.48h0c.15-.12-.1,0-.15-.16a4.69,4.69,0,0,1,.75,0c.15-.08-.1-.16.05-.2.05.16.2-.08.3,0a1.39,1.39,0,0,1,.4,0,2.55,2.55,0,0,0,1.2.28c-.1-.32.46-.16.7-.2.05-.16-.15-.08-.25-.08s-.1-.12-.25-.08h0s-.1.12-.15,0,0,0,.15,0c-.05-.12,0-.12,0-.2-.25,0-.3.16-.55.16s-.15-.2-.4-.16c-.05,0-.15.08-.2.16a.28.28,0,0,1-.2.08c-.05,0-.2-.08-.05-.08s-.15,0-.15-.08-.05-.16-.15-.24c0,.16,0,.28-.25.24a.46.46,0,0,1-.15-.16c-.1,0,.05,0,.05-.08h-1l-.39,0h0c-.33,0-.65-.05-1-.05-.1-.08-.2.08-.25-.08a.94.94,0,0,1-.5,0c-.15,0-.15-.08-.3,0h-2.61c-.05-.08-.1,0-.2,0h-2.25s-.2,0-.25,0,0,0-.26,0H229.3c-.05.08,0,0-.05,0-.8,0-1.9,0-2.86,0-.45.08-.9,0-1.2.08a.51.51,0,0,0-.25,0h-1.75c-.15,0-.2,0-.45,0h-.35c-.25,0-.66,0-1,0-.1,0-.15,0-.05,0h.8a.46.46,0,0,0,.26,0h.7c.25.08.7,0,1,.08s.7,0,1.15,0a7.53,7.53,0,0,0,.95,0c.1,0,.15,0,.25,0a4.49,4.49,0,0,0,1.1,0,12.84,12.84,0,0,0,1.86,0s0-.12.2-.08a1.06,1.06,0,0,0,.45.16,9.32,9.32,0,0,1,1.4,0c.05,0,.05-.12.2-.08s.35,0,.4,0c-.1,0-.2,0-.2,0h.25s0-.08.05-.08.1,0,.2,0,.25.08.45,0,.25,0,.4,0,.35,0,.45.08c0-.12.25,0,.4,0h.4a2.1,2.1,0,0,0,.75,0,.32.32,0,0,0,.3,0c.36,0,.76,0,1.4,0,0,.08.15.12.15.24s.3,0,.3.16c-.25.08-.55-.12-.6,0a4.78,4.78,0,0,1,.76,0c.15,0,.45,0,.45.16s-.55,0-.3.08.38,0,.43.05C238.39,398.46,238.76,398.48,239.1,398.48Zm0-.56a.15.15,0,0,1-.21.07l0,0h0S239.07,397.88,239.12,397.92Z" transform="translate(-121.06 -379.23)"/><path class="cls-1" d="M248.53,399.6h0a3.42,3.42,0,0,0,.45,0C248.91,399.43,248.66,399.5,248.53,399.6Z" transform="translate(-121.06 -379.23)"/><path class="cls-1" d="M235.67,414.31c-.06,0-.11.06-.11,0a0,0,0,0,1,0,0h-.1c-.1,0-.35,0-.3,0s-.05,0-.05,0h0c0,.24.62.14.75.1s.1,0,.2,0a.45.45,0,0,1,.19-.15,2.59,2.59,0,0,0-.47.05A.1.1,0,0,1,235.67,414.31Z" transform="translate(-121.06 -379.23)"/><path class="cls-1" d="M236.25,414.27h0Z" transform="translate(-121.06 -379.23)"/><polygon class="cls-1" points="116.75 19.3 116.75 19.3 116.75 19.3 116.75 19.3"/><path class="cls-1" d="M238.16,398.55c.05,0,0,0,0,0S238.11,398.55,238.16,398.55Z" transform="translate(-121.06 -379.23)"/><path class="cls-1" d="M238.11,398.51l0,0h0c-.1,0-.15,0-.25,0A.45.45,0,0,0,238.11,398.51Z" transform="translate(-121.06 -379.23)"/><polygon class="cls-1" points="86.88 18.38 86.89 18.37 86.88 18.38 86.88 18.38"/><path class="cls-1" d="M227.08,398.16h0c-.21,0-.17.08-.37,0s-.35.08,0,0S227.08,398.28,227.08,398.16Z" transform="translate(-121.06 -379.23)"/><polygon class="cls-1" points="75.9 18.66 75.91 18.65 75.91 18.65 75.9 18.66"/><path class="cls-1" d="M194.81,397.88h-.15C194.31,397.88,194.81,398,194.81,397.88Z" transform="translate(-121.06 -379.23)"/><path class="cls-1" d="M216.73,398l0,0c.1.08.4,0,.7,0,.1,0,.15,0,.25,0h.05l-.2,0A6.77,6.77,0,0,0,216.73,398Z" transform="translate(-121.06 -379.23)"/><path class="cls-1" d="M208,398.14l.21,0,.05-.06h.19l-.14,0c.1,0,.25,0,.25,0-.5-.08-1.1-.12-1.6-.2l-.2,0h-.5c-.15,0-.4.08-.4,0s.65,0,.45,0a4.69,4.69,0,0,1-.75,0c-.1,0-.15,0-.25,0l-.2,0-.2,0c-.06,0-.16,0-.26,0a6,6,0,0,0-.85,0l-.2,0h-.45l-.2,0s0,0-.05,0a1.54,1.54,0,0,0-.3,0c-.05,0-.15,0-.25,0s-.4-.08-.55,0a11.73,11.73,0,0,1,1.19,0s0,0,0,0h0s.1,0,.05,0h.06a7,7,0,0,1,.79,0,1.05,1.05,0,0,0-.35.08c.2,0,.48.07.5-.07h.11c0,.12.21.06.29.06s-.15,0-.25,0v0l.31,0c.1,0,.4-.12.5,0-.2,0-.25,0-.4.08h.25c0,.08.1.08.2.08s.2,0,.2,0-.15,0-.15,0c.2-.08.25,0,.45,0,0,0,.1,0,.2,0s-.05.07-.06.07.24,0,.2-.07h.06c.1,0,.15,0,.25,0s.6,0,.85,0l.2,0c.11,0,.16,0,.26,0s-.05,0-.05.08c.2,0,.55-.12.65,0s-.35,0-.3.08h.09C208,398.09,208,398.11,208,398.14Zm-3.85-.26h0Zm1.6.12h0Z" transform="translate(-121.06 -379.23)"/><path class="cls-1" d="M216.32,397.9h-.19c-.1,0-.25,0-.3,0h-.76s0,0,0,0,.4,0,.4,0h-1.56c-.1,0-.25,0-.25,0,.2,0,.4,0,.5,0,.05-.08.1,0,.2,0s.15,0,.25,0h1.84a.38.38,0,0,0-.19,0Z" transform="translate(-121.06 -379.23)"/><path class="cls-1" d="M197,397.88a.34.34,0,0,0,.2,0C197.07,397.84,197,397.84,197,397.88Z" transform="translate(-121.06 -379.23)"/><path class="cls-1" d="M222.14,398.11c-.95,0-1.65-.08-2.51-.08-.1,0-.15-.12-.3-.08-.75,0-1.65,0-2.45-.08l-.43,0a.64.64,0,0,0,.22.06h0s0,0,0,0h.08s.09-.07.13,0a9.06,9.06,0,0,1,1.16,0h0s-.1,0-.15,0-.11,0-.15.07a2.17,2.17,0,0,0,.25,0s.4.12.45,0-.2,0-.2,0l.64,0-.13-.07h0c.05-.08.5,0,.55,0s-.21.06-.35.08c.87.05,1.7.12,2.6.15.1,0,.15,0,.25,0h1a.14.14,0,0,1-.12-.11.91.91,0,0,0,.33,0,5.23,5.23,0,0,0-.56,0C222.29,398.15,222.24,398.11,222.14,398.11Zm-3.57-.11h0s.05-.08.05,0S218.62,398,218.57,398Z" transform="translate(-121.06 -379.23)"/><path class="cls-1" d="M202.78,397.92s-.1,0-.05,0h0S202.83,398,202.78,397.92Z" transform="translate(-121.06 -379.23)"/><path class="cls-1" d="M222.87,398.08h0a.41.41,0,0,0,.19,0C223,398,222.87,398,222.87,398.08Z" transform="translate(-121.06 -379.23)"/><path class="cls-1" d="M224.33,397.88s-.1,0-.05,0h0S224.39,397.92,224.33,397.88Z" transform="translate(-121.06 -379.23)"/><polygon class="cls-1" points="72.89 18.7 72.9 18.69 72.9 18.69 72.89 18.7"/><path class="cls-1" d="M194.16,397.88c-.1,0-.19,0-.2,0A.34.34,0,0,0,194.16,397.88Z" transform="translate(-121.06 -379.23)"/><path class="cls-1" d="M232,398.48h-.41s0,0,0,0,.29,0,.39,0Z" transform="translate(-121.06 -379.23)"/><path class="cls-1" d="M241.92,398.4h0s.1,0,0,0S241.87,398.36,241.92,398.4Z" transform="translate(-121.06 -379.23)"/><path class="cls-1" d="M242.07,398.4a.28.28,0,0,0,.3,0h0C242.23,398.28,242,398.4,242.07,398.4Z" transform="translate(-121.06 -379.23)"/><path class="cls-1" d="M232.48,398.51l.24,0A.36.36,0,0,0,232.48,398.51Z" transform="translate(-121.06 -379.23)"/><path class="cls-1" d="M232.48,398.51h-.18A.37.37,0,0,0,232.48,398.51Z" transform="translate(-121.06 -379.23)"/><path class="cls-1" d="M208.1,397.8c0,.08.2,0,.29,0S208.2,397.84,208.1,397.8Z" transform="translate(-121.06 -379.23)"/><path class="cls-1" d="M235.41,398c0-.07,0-.11-.14-.15S235.27,398,235.41,398Z" transform="translate(-121.06 -379.23)"/><path class="cls-1" d="M235.26,397.84h0Z" transform="translate(-121.06 -379.23)"/><path class="cls-1" d="M200.38,397.84c.1,0,.25,0,.25,0h-.4C199.93,397.76,200.23,397.88,200.38,397.84Z" transform="translate(-121.06 -379.23)"/><path class="cls-1" d="M203.48,398a1.43,1.43,0,0,0,.29,0h-.33S203.48,398,203.48,398Z" transform="translate(-121.06 -379.23)"/><path class="cls-1" d="M229.29,398.32h.14a.22.22,0,0,1,.12-.05,1.46,1.46,0,0,1,.55,0,0,0,0,0,0,0,0h0c-.2,0-.25-.12-.51,0s-.43-.06-.48,0h0C229.34,398.27,229.32,398.29,229.29,398.32Z" transform="translate(-121.06 -379.23)"/><path class="cls-1" d="M235.22,398c.05-.12,0-.16-.21-.16,0,0,0,0-.15,0s-.05.08-.05.16c.2,0,.25-.16.4,0Z" transform="translate(-121.06 -379.23)"/><path class="cls-1" d="M250.59,399.56c-.1,0-.2,0-.2,0h0A.41.41,0,0,0,250.59,399.56Z" transform="translate(-121.06 -379.23)"/><path class="cls-1" d="M244,399.44h0s.1,0,0,0S243.92,399.4,244,399.44Z" transform="translate(-121.06 -379.23)"/><path class="cls-1" d="M236.56,414.25c.08,0,.18,0,.24,0a.11.11,0,0,0-.07-.06C236.62,414.17,236.59,414.21,236.56,414.25Z" transform="translate(-121.06 -379.23)"/><path class="cls-1" d="M242.68,398.52h0Z" transform="translate(-121.06 -379.23)"/><path class="cls-1" d="M244.37,399.52h0s.1,0,0,0S244.32,399.48,244.37,399.52Z" transform="translate(-121.06 -379.23)"/><path class="cls-1" d="M243,399.64a.22.22,0,0,0,.13,0s-.15,0-.15,0Z" transform="translate(-121.06 -379.23)"/><path class="cls-1" d="M243.17,399.52s-.1,0,0,0h0C243.19,399.55,243.24,399.52,243.17,399.52Z" transform="translate(-121.06 -379.23)"/><path class="cls-1" d="M245.87,399.6h0c.05,0,.1-.05,0,0S245.82,399.56,245.87,399.6Z" transform="translate(-121.06 -379.23)"/><path class="cls-1" d="M209,397.84h0c-.15,0-.35-.08-.25.08S209,397.92,209,397.84Z" transform="translate(-121.06 -379.23)"/><path class="cls-1" d="M246.14,399.6c.05,0,.15,0,.13,0s-.15,0-.15,0Z" transform="translate(-121.06 -379.23)"/><path class="cls-1" d="M242.17,398.52s0,0,0,0l.11,0Z" transform="translate(-121.06 -379.23)"/><path class="cls-1" d="M242.38,398.53h-.09l0,0S242.37,398.55,242.38,398.53Z" transform="translate(-121.06 -379.23)"/><path class="cls-1" d="M245.17,399.44h.2s.15,0,.15,0h-.2S245.17,399.4,245.17,399.44Z" transform="translate(-121.06 -379.23)"/><path class="cls-1" d="M244.82,399.52s-.15,0-.15,0h0C244.74,399.55,244.84,399.55,244.82,399.52Z" transform="translate(-121.06 -379.23)"/><polygon class="cls-1" points="85.48 18.57 85.48 18.57 85.48 18.58 85.48 18.57"/><path class="cls-1" d="M206.59,397.76s-.09,0,0,0S206.64,397.76,206.59,397.76Z" transform="translate(-121.06 -379.23)"/><polygon class="cls-1" points="85.64 18.57 85.63 18.57 85.63 18.58 85.64 18.57"/><path class="cls-1" d="M211.1,397.8h-.3c-.15-.08-.25.12-.25,0h-.3c-.05,0-.3-.08-.3,0h0C210.3,397.84,210.9,398,211.1,397.8Z" transform="translate(-121.06 -379.23)"/><path class="cls-1" d="M245.57,399.91h0Z" transform="translate(-121.06 -379.23)"/><path class="cls-1" d="M263.07,407.4a2.27,2.27,0,0,0-.86-.08c0-.12-.25-.12-.45-.16,0,0,0,0,0-.09s-.09,0-.14,0,.09,0,.14,0a.1.1,0,0,0,0-.07c-.1,0-.45,0-.4-.16a.86.86,0,0,1,.55,0H263c.1,0,.25,0,.25,0h-.3s-.1,0-.15,0-.05-.12-.2-.08c-.35,0-.5-.08-.85,0-.1-.08-.35-.12-.45-.2h-.4c-.05-.08-.15-.08-.25-.08h-.5c-.1,0-.3,0-.25-.16h.2s0,0,0,0a0,0,0,0,0,0,0c.1,0,.35,0,.3,0-.25,0-.15,0-.05-.08a6.92,6.92,0,0,1-1.2-.16,7.26,7.26,0,0,1-1.4,0c-.2,0-.35.08-.45,0s.45,0,.45-.08-.4,0-.4-.16c.1,0,.5,0,.3,0s-.45,0-.45-.08c.4,0,.7-.12,1-.16a4.8,4.8,0,0,0,.85,0c.15,0,.4,0,.15,0s-.25-.08-.5,0-.3,0-.4-.08a.81.81,0,0,1,.25-.08c.1,0,.35,0,.3,0s-.35,0-.5-.08-.25-.16-.2-.32c-.15,0-.35,0-.45-.08s-.4,0-.4-.16c.3,0,.7,0,.85-.08-.1,0-.1,0-.15-.08a8.59,8.59,0,0,0,1,.08,3.22,3.22,0,0,0,.76-.08c0,.12.15-.08.25,0a1.36,1.36,0,0,1,.4,0c-.05-.12.3,0,.25-.08s-.45,0-.55-.16h.15c0-.2-.3.08-.3-.16.1,0,.25,0,.3-.08-.2,0-.41,0-.61,0,.08.11.24.09.32.12h0c-.05.2-.5.08-.75.08a8.36,8.36,0,0,0-1,0c-.05,0-.05.08-.05.16-.15,0-.1-.08-.15-.16-.25,0-.2.12-.4.08-.45,0-.9-.12-1.4-.16v-.16c-.15,0-.1.12-.25.08,0-.12.05-.16.2-.16s.35,0,.3,0l0,0c-.08,0-.19,0-.3,0a.56.56,0,0,0-.19,0s0,0,0,0,0,0,0,0h0s0,0,0-.05-.2,0-.2,0,.25,0,.45,0,.15.08.3,0h.06s0,0,0,0,.05,0,.05,0h.48s-.07,0-.08,0-.3,0-.4,0h-.09l-.11.09s.09,0,.1,0,.1-.12.25-.08a.25.25,0,0,1,.3.08c.15,0,.25-.08.45,0a1.06,1.06,0,0,1,.4.08c.2,0,.55,0,.9,0a6.34,6.34,0,0,0,.75.07.26.26,0,0,1-.05-.15c-.25.08-.25,0-.5,0h-.55c-.1,0-.1,0-.2,0a2.91,2.91,0,0,1-.51,0s0,0,0,0h-.28s.07,0,.08,0h.24a.14.14,0,0,1,.11,0c.1.08.4,0,.56,0s0,0,0,.08a7,7,0,0,1,1.3,0c0-.24-.26,0-.46-.16s-.1.12-.25.08-.25,0-.25-.2a.68.68,0,0,1-.4,0c.05.08-.35.08-.3,0s.25,0,.25,0c-.25,0-.5,0-.3-.2-.2,0-.1.16-.25.16a.57.57,0,0,1-.15-.16c-.2,0,0,.16-.25.08s-.7,0-.85-.2a.51.51,0,0,0,.3,0c.15,0,.15.08.3,0h.2s-.1,0-.15,0-.2-.08-.45,0c0-.12-.35,0-.3-.2-.2,0-.1.2-.3.16s-.15-.08-.3,0c0-.08-.2,0-.2-.08-.2,0-.4,0-.5,0s-.25,0-.3-.08c.1,0,.1,0,.15-.08a.94.94,0,0,1-.5,0c-.35,0-.9.08-1.1-.08a.52.52,0,0,0,.3,0,5,5,0,0,0,1.55,0c.05.08.3,0,.3.08a4.53,4.53,0,0,1,1.1,0c.13,0,.16.05.27,0h0a.91.91,0,0,0,.65.05c.05,0,.25.15.25,0a3.6,3.6,0,0,1-.56-.08s0,0,0,0-.6,0-.75-.08-.5,0-.5-.08c.25-.16.75.12.9-.08-.3,0-.9.08-1-.08.1-.08.3,0,.45,0s.2,0,.25-.08h-.9c-.1-.08-.3-.08-.4-.2-.05.16-.2,0-.3,0s-.25,0-.4,0h-.5c.05-.12-.3,0-.25-.08a10,10,0,0,0,1.1,0c.2,0,.2.08.4,0h.45c0-.08.3,0,.3-.08h-.55c-.1-.08-.35,0-.5,0s-.4,0-.4-.08.45,0,.45-.08a2,2,0,0,0-.55,0c0-.12-.3,0-.3-.16a11,11,0,0,0,1.15,0s0,.08.15.08.15-.08.2-.16a.32.32,0,0,0,.2.08c.05,0,.05-.12.2-.08a.3.3,0,0,0,.26,0,.32.32,0,0,0,.3,0c.2-.08.3.08.4-.08.25,0,.25-.08.45,0,0-.12.05-.16.2-.16s.25,0,.25,0c-.3,0-.35-.08-.55-.08,0,0-.1,0-.2,0a.59.59,0,0,0-.45,0,1.44,1.44,0,0,0-.46-.08.89.89,0,0,0-.28,0s0,0,0,0-.09,0-.05.05H256c0-.08-.2-.08-.3-.08a8.26,8.26,0,0,1-1.1-.08h-.5a.42.42,0,0,0-.25,0h-.45c-.1,0-.4.08-.3-.08.3.08.55,0,.85,0,.15,0,.15-.08.26-.08s.15,0,.25,0a.43.43,0,0,0,.25,0c.35,0,.35,0,.55,0s.55,0,.7.08c-.05-.12.35,0,.3-.08-.25,0-.3,0-.45-.08-.25.08-.4,0-.75,0,0-.08-.2,0-.26-.08a.28.28,0,0,0-.2-.08c-.15,0-.2.08-.3.08-.05-.2-.55,0-.7-.16h-1.2a4.65,4.65,0,0,0-.75,0h-.09s0,0,0,0h-.08a.37.37,0,0,1-.16,0v0h0l.13,0h-.28c-.06,0-.25,0-.37,0-.65,0-1.16,0-1.8,0h-.15s-.1,0-.4,0c-.1,0-.2,0-.25,0s-.1,0-.2,0-.1,0-.15,0-.2,0-.4,0a4.09,4.09,0,0,0-.7,0,4.74,4.74,0,0,0-1.3-.08s0,0,0,0h-.12v-.08h.15v.07a.28.28,0,0,1,.17-.07.11.11,0,0,0,.15,0,2.23,2.23,0,0,0,.45.08c.2,0,.45,0,.55,0,0-.08.15,0,.25,0h.25c1.19.11,2.63-.05,3.68.06,0,0,0-.06.09-.06s.05,0,.15,0l0,0c.05-.08.12,0,.19,0a2.82,2.82,0,0,1,.82,0c.1,0,0,0,0,0a1,1,0,0,0,.3,0,3.53,3.53,0,0,0,.65,0V400c.15,0,.2.08.4,0a.46.46,0,0,0,.26,0c.2,0,.1-.12.3-.08a4,4,0,0,0,1.3,0c0,.08.3,0,.3.08a8.74,8.74,0,0,1,1.35.08c.2,0,.2-.08.45,0a2.11,2.11,0,0,0,.75,0c.1,0-.05-.08,0-.08h.25c.05,0,.05,0,0,0h-.5c-.15-.08-.6,0-.75-.08h-.9c-.15.08-.45-.08-.65,0a.26.26,0,0,0-.3-.08c-.25,0-.45,0-.85,0h-.9c-.15,0-.15-.08-.3,0-.35,0-.4,0-.86,0-.7-.12-1.75,0-2.45-.08-.6.08-1.3,0-1.9,0-.15,0-.4,0-.5-.08,0,.12-.45,0-.5.08,0-.08-.1,0-.15,0s-.1,0-.2,0-.25,0-.4,0a.51.51,0,0,1-.3,0c0,.16-.2-.12-.2,0a2.53,2.53,0,0,0-.55,0h-1.37c-.05,0-.1,0-.2,0h-.85c-.15,0-.15.08-.3,0-.8,0-1.6.08-2.31,0-.15,0-.2.08-.4,0a8.67,8.67,0,0,0-1.35,0c-.15,0-.15-.12-.25-.16s-.2-.2-.25,0c0,0,.15,0,.15,0s-.15,0-.15,0a.61.61,0,0,0-.3,0c-.1,0-.15-.12-.3-.16s-.3,0-.5,0c0,.12-.25,0-.3,0s-.15,0-.2-.08c.1,0,.25,0,.25,0s-.45,0-.5,0a3,3,0,0,1,1,.08c.05-.08.05,0,.15,0s.1-.12.15,0,.05-.08.15-.08a.32.32,0,0,0,.3,0c.05,0,.05.12.2.08,0-.08,0-.08.15-.08s.1,0,.2,0,.25,0,.3,0h1.1s.1,0,.2,0a6.78,6.78,0,0,0,1.35,0,4.82,4.82,0,0,0,.76,0c.8,0,1.85-.08,2.7,0,.1,0,.2,0,.3,0s.25,0,.4,0a.79.79,0,0,0,.2,0l0,0c.15,0,.25,0,.4,0s.15,0,.25,0c.3,0,.55.08.9,0,.2,0,.1,0,.4,0h.25c.15,0,.15,0,.3-.08.05.12.4,0,.46.08.1-.08.15,0,.4,0s.15-.08.3,0a8,8,0,0,0,1.1,0c.25.08.3,0,.55,0s.15,0,.25,0,.3.12.3,0-.1,0-.15-.08c.1,0,.25,0,.25.16.1-.08.15,0,.3,0a3.39,3.39,0,0,1,.55,0c.3-.08.5,0,.9,0,.7-.27,1.93.08,2.83,0l0,0h0c0,.05.1.05.13,0a.17.17,0,0,1-.1,0,1.93,1.93,0,0,0,.36-.06c.15,0,.15.08.3,0h.5c.1,0,.15,0,.25,0s.55.08.7,0c-.85,0-1.56-.2-2.46-.2-.05,0-.1,0-.2,0h-.45s-.1,0-.2,0h-.3c-.1-.08-.35,0-.5,0,0-.12-.4,0-.3-.16a1.58,1.58,0,0,0,.75,0c0,.08.2,0,.25.08s.15,0,.26,0,.1,0,.15,0l1,.08h.4c.05,0,.45.08.5,0-.56,0-1-.16-1.6-.16a8.33,8.33,0,0,0-.86-.08h-.65c-.1,0-.25,0-.25,0-.15,0-.2,0-.2-.08a4.11,4.11,0,0,1,.7,0,1.58,1.58,0,0,0,.65,0c.15,0,.1.12.25.08s.3,0,.45,0-.1,0-.2,0h-.25c-.85-.12-1.85-.16-2.75-.24h-2.81c0-.12.15-.24-.05-.16s.2.08,0,.16-.15-.28-.4-.08c0,0-.1,0,0,0-.1-.28-.8-.08-.9-.32v-.28a3.35,3.35,0,0,1-.95,0,1,1,0,0,1-.4-.2c-.05.08-.2.12-.4.08a.55.55,0,0,0-.25,0c-.2,0-.2-.28-.5-.24,0,.28.2.4.05.56a3.33,3.33,0,0,0,1.2-.24v.28c.05,0,.25,0,.2.16a.42.42,0,0,0,.25,0c-.1.08,0,.08,0,.16.25,0,.55,0,.75-.08-.05.24.3,0,.3.08s-.3,0-.45,0-.05,0-.15,0h-.2c-.9.16-1.9-.08-3,0-.15,0-.2-.2-.45-.2h-.05a.18.18,0,0,1-.05.16c0-.08,0-.12.05-.16s-.15,0-.15-.08h-.15c-.1,0,.1.24-.2.2-.05-.08.2-.16,0-.2s0,.28-.15.28h-1.3s0,0-.06,0,0,0,0,0-.14,0-.12,0a.13.13,0,0,0-.09,0s0,0,0-.06-.07,0-.11,0,0,.08-.05.08-.07,0-.09,0a.34.34,0,0,1,.2,0h0a.08.08,0,0,0,0,.05h0c-.13,0-.36,0-.39,0h-.1c-.05,0-.05-.08-.15-.08s0,.09-.05.09,0,.12,0,.16-.16-.07-.17-.14,0,0,0,.05-.15,0-.3,0h0c.06,0,.13,0,.11-.06s-.1,0-.2,0,0,.07,0,.08a.35.35,0,0,1-.12,0s-.06,0-.13,0a.19.19,0,0,0,.12,0h0s0,0,.09,0,.3,0,.45,0a.24.24,0,0,0,0,.1.82.82,0,0,1,.18,0,.22.22,0,0,1,0-.16c-.25,0-.25.08-.45,0a6.79,6.79,0,0,0-1.56,0,.51.51,0,0,0-.25,0l-.15,0a.36.36,0,0,0,.22.06,2,2,0,0,1,.49,0s0,.07,0,.11h.14a.2.2,0,0,1,.1,0,0,0,0,0,0,0,0c.12,0,.22,0,.31,0s.17,0,.27,0H241a.81.81,0,0,1-.22,0s0,0,0,.05-.2,0-.27-.05h-.13s0,.08-.15.05a.09.09,0,0,1,0-.05h-.06a.85.85,0,0,0-.39-.07,2.65,2.65,0,0,0-.37.12,2.55,2.55,0,0,0-.55,0c-.2,0-.2-.08-.3-.08a2,2,0,0,1-.55,0c-.2,0-.15.08-.3,0h-.45c-.05,0-.1,0-.05,0s-.1,0-.15,0a.77.77,0,0,1-.45,0h-.25c-.1,0-.25,0-.15,0h1.15a.59.59,0,0,0,.27,0h-.72c-.05-.12-.4,0-.45-.08.1-.2.4,0,.65,0,.1,0,0,0-.05,0h-.2c0-.12-.25,0-.4,0s0,.2-.25.16-.25.08-.25,0,.35,0,.3,0c-.4,0-.5-.2-.9-.24-.2.08-.4.12-.55.2s-.4-.08-.5,0c0-.16-.26-.08-.3,0,.13,0,.11.06.14.14a2.86,2.86,0,0,0,.65,0c.05.16-.15.08-.25.08h-.4c-.15,0-.15,0-.25,0-.27-.07-.5.11-.57-.09H233c0,.12-.25,0-.3,0s-.15,0-.25,0-.19-.08-.29,0h0a.3.3,0,0,1,.15-.05c-.13,0-.11.08-.25,0s0,0-.08-.05-.39.06-.63.06c0-.1.18,0,.24-.05h0c-.1,0-.15,0-.25,0a6.26,6.26,0,0,1-1.3,0c-.1-.08-.45,0-.5-.16a.61.61,0,0,1,.3,0c.05,0,.05,0,.05,0l.2,0,.05,0c.15,0,.15,0,.3,0s.15,0,.25,0,.05,0,.05,0h.4c.1,0,.3,0,.4,0a1.58,1.58,0,0,0-.75,0c-.06-.1-.18-.07-.31-.05v0h-.29c-.09.07-.33,0-.46,0h-.21c-.05.05-.08.11-.18.11s0-.08,0-.11h-.15s0,0,0-.05c-.21,0,.08.16-.11.16s-.1-.08-.2-.08c.05.16-.2.08-.3.08s.15,0,.15-.08c-.2,0-.2.08-.3.08s0-.08,0-.16h-.09c-.06.06-.26,0-.38,0h0a24.91,24.91,0,0,1-2.59-.09c-.5.08-1.3-.08-1.9,0l-.18,0c0,.05-.19,0-.19.07a1.86,1.86,0,0,0-.26,0c.11,0,.19,0,.22.08a17.7,17.7,0,0,0-2.06,0,2.84,2.84,0,0,1-.65,0h-.75c-.05,0-.05,0-.15,0s0,0-.05,0H219c-.1,0-.15,0-.25,0s-.3,0-.46,0-.15-.12-.3-.08c-.41,0-.57,0-.85,0h-.45s.15,0,.15-.08c-.2,0-.55-.08-.65,0,.09,0,.26,0,.3,0h.09s-.06,0-.09,0h0c-.2,0,.1.08,0,.16h-1.3c-.1,0-.15-.12-.3-.08a2.07,2.07,0,0,1-.7,0h-1.85c-.1.08-.4,0-.5.08-.05-.12-.4,0-.55,0h-1.86c-.1,0-.15,0-.25,0s-.15,0-.3,0-.3,0-.3-.08a3.29,3.29,0,0,0,.7,0h.45c.1,0,.2-.16.25,0,.15,0,.15-.08.3,0h.45c0-.12-.25,0-.3,0h-.85c-.25.08-.25,0-.45,0s-.15,0-.4,0a.48.48,0,0,0-.31,0h.11a.53.53,0,0,1-.35.05s-.06.05-.15,0a.1.1,0,0,1-.06-.05h-.1l0,0c-.1,0-.15,0-.25,0h-2c-.13,0-.32-.06-.38,0h-.42c.05,0,.05-.08,0-.08h-.83c-.08.13-.49.06-.73.06,0,0,0-.06.08-.08-1.37,0-2.73,0-4,0,0,0,0,0-.05.08.15,0,.4-.08.45.08a1.18,1.18,0,0,1,.46,0h.85c-.05.16-.45,0-.55.16a12.06,12.06,0,0,0-1.7,0c0-.2.2,0,.25-.08s-.25,0-.4,0-.2,0-.3,0-.15,0-.25,0h-.25s-.1-.08-.15,0c-.15-.12-.25.08-.4,0-.1,0-.3,0-.4.08-.5-.12-1.4,0-1.9-.08h-1.07s.1,0,.2,0h.8c.1,0,.15,0,.15-.08a1.77,1.77,0,0,1,.4.08c.76,0,1.29,0,1.94-.05h-.42c-.1,0-.1,0-.2,0l-.2,0s-.15,0-.25,0a11.22,11.22,0,0,0-1.16,0,1.34,1.34,0,0,1-.4,0c-.15,0-.3,0-.45,0s-.36,0-.6,0c0,0-.06,0-.06,0h0s0,0,0,0h0a1.27,1.27,0,0,0-.55,0c-.15-.08-.4,0-.5-.16.85-.08,1.25,0,2,0,.05,0,.05-.12.2-.08a2.55,2.55,0,0,1,.55,0h2.85c.1,0,.15,0,.26,0s.3,0,.55,0c.6-.08,1.15.12,1.8,0,.15,0,.1,0,.3,0h.75c.1,0,.25,0,.3-.08.05.12.15-.08.25,0l0,0s0,0,0,0h.2c.8,0,1.8.08,2.56,0a.67.67,0,0,0,.3-.08c-1.5,0-3.36,0-4.57,0,0,0,0-.08-.05-.08h-.9a1.63,1.63,0,0,0-.45-.08c-2.05,0-3.36.08-5.31.16-.1,0-.25,0-.3.08a3.09,3.09,0,0,0-1.45,0c0-.12-.26,0-.3,0h-.4c-.1,0-.15,0-.26,0a.51.51,0,0,0-.25,0c-.15,0-.15.08-.3,0-.55,0-1.25,0-1.7,0-.2-.12-.3,0-.5,0,0,.08-.15,0-.25,0s-.1,0-.2,0-.15-.08-.3,0a4.34,4.34,0,0,1-1.3.08c-.15,0-.15.08-.3,0h-.4c-.1,0-.25,0-.25,0-.1-.08-.4,0-.65,0a10.73,10.73,0,0,1-1.7,0c-.1,0-.3,0-.4,0-.4.12-1.15,0-1.6.08-.75,0-.95.08-1.7,0-.6.12-1.5,0-2.11.08a3.83,3.83,0,0,0-.9,0s0,0,0,0,0,.08,0,0c-.2,0-.2-.08-.4,0,0,0,0,0,0,0a0,0,0,0,1,0,0c-.43-.79-.69-.79-1.29-.71h-.3c-.1,0-.15.08-.2,0h-1.95c-.05,0-.1,0-.2,0h-1.3c-.2-.08-.25,0-.5,0h-.55c-.15,0-.15-.08-.3,0a3.64,3.64,0,0,1-.66,0c-.7,0-1.2-.08-1.9,0-.1,0-.15,0-.25,0h-.5c-.1,0-.15,0-.25,0s-.5.08-.55,0,.2,0,.2,0c-1,0-2.21,0-3.16,0-.1,0-.15,0-.25,0a.43.43,0,0,0-.25,0h-.55c-.15,0-.45.08-.5,0,.15,0,.3,0,.3-.08a2.55,2.55,0,0,0-.55,0h-1.27c-.1,0-.2.16-.25,0s.2,0,.2-.08a5,5,0,0,0-1.15.08c-.15,0-.5.08-.55,0a1.1,1.1,0,0,0,.4-.08,14.29,14.29,0,0,1-2.36,0h-1.15s0-.08-.15-.08-.3,0-.45,0-.15,0-.25,0a2.55,2.55,0,0,1-1.1,0h-1.2c-.05,0-.1,0-.2,0h-2.52c-.1-.16-.15-.16-.25-.16-2.35,0-4.16.08-6.51,0-.5.12-1.36,0-1.86.08-.65,0-1.1.08-1.7,0-.15.08-.35,0-.5.08h-.7a19,19,0,0,1-2.26.2c-.1,0-.15,0-.25,0a5.09,5.09,0,0,0-1.1,0,2.1,2.1,0,0,0-.75,0,6.59,6.59,0,0,1-1.6.16c-.15-.08-.15,0-.25,0s-.25,0-.3,0-.05.08-.15.08h-.25c.1.2-.2.08-.15.24s.45.08.7.16c0,.48,1,.12,1.2.4a3.7,3.7,0,0,1-1.15,0c-.1.2.4,0,.4.16.15,0,.45-.08.5,0-.1.08-.35,0-.45.08h-.5c0,.2.45.08.45.24H131c0,.2.3.12.3.28-.2,0-.6-.08-.7,0,.45,0,.8.16,1.2.2.15,0,.29.08.46.13h0l.13,0c.1.12.4,0,.4.24.3,0,.35.08.55.08s.5,0,.5.08c-.15.08-.4,0-.55.08,0-.08-.05-.08-.15-.08s0,.12-.2.08h-.5a.57.57,0,0,1-.15-.16c-.4,0-.4-.24-.76-.2,0,.12-.1.12-.05.24s.36,0,.4.2c-.15,0-.05.16-.05.24a.4.4,0,0,1-.25.24c0,.12.05.32,0,.4-.35,0-.5.08-.9,0a6.93,6.93,0,0,0-.75.2c-.1,0-.3,0-.4.08a1.1,1.1,0,0,0-.4.08c.45,0,1-.16,1.3,0-.25.08-.55.08-.75.16a1.6,1.6,0,0,0-.65.08c.15,0,.1.08.2.08h.05c-.06,0-.1,0-.1.06a.7.7,0,0,0,.25.05c0-.06,0-.1-.07-.11h.17c-.05.12.1.08.15.16s.15,0,.15,0,0,0,0,0,0,.2.2.16c0,0,0,0,0,0,.3.08.45-.2.65,0-.1.12-.35.12-.55.16,0,.12.1.16,0,.2s-.25-.08-.6,0c-.1.24.4.08.45.2-.15.16.05.32.05.48a.44.44,0,0,1-.25,0c0,.08,0,.24-.15.2s-.05.12-.15.16a.79.79,0,0,0,0,.48c-.15,0-.2,0-.2.08-.15.08-.1.28-.3.32s.2.16,0,.2.25.12.05.16-.25,0-.25.08.3,0,.25.08c.3,0-.05-.08.15-.08s.1.16.25,0a2.27,2.27,0,0,0,.3.32c-.3,0-.1,0-.05.16-.2,0-.25,0-.4.08-.05-.12-.35,0-.3,0s.2.08.3.08a0,0,0,0,1,0,0s0,0,0,0h0c0,.08-.1.12-.25.08s-.05.12-.15.16c-.05-.12-.2.08-.4,0,0,.12-.35,0-.25.16s.25,0,.4.08.45,0,.4.2c-.15,0-.45,0-.5,0a.32.32,0,0,1,.2.08,2.5,2.5,0,0,0-.55,0c-.2,0-.15-.08-.3,0,0,.12-.25,0-.4,0h-.2s0,0,0,0,.4,0,.4,0-.3,0-.25.08a3.78,3.78,0,0,1,.75,0c.05,0,.4-.12.45,0-.1.08-.2.08-.4.08s-.3,0-.45,0c0,.08,0,.12,0,.16a1.33,1.33,0,0,0-.4,0s-.35-.12-.4,0a14.45,14.45,0,0,1,1.6.16c.2,0,.55-.08.55.08a8.1,8.1,0,0,1-1.1.16c0,.24.65,0,.85.2a1.6,1.6,0,0,1-.65.08c0,.16-.15,0-.2.08s-.25,0-.3.08c-.3,0-.4.08-.7,0-.15.12-.5.08-.7.16-.15-.16-.3,0-.65,0-.05.24.4.08.5.24a.6.6,0,0,1,.5.2,1,1,0,0,0-.5.08,2.21,2.21,0,0,1,.95.16h.7s0,.08,0,.08a5.43,5.43,0,0,0,.9,0c.05.12.45,0,.4.16a4.41,4.41,0,0,0-1.3.2h-.56c-.15,0-.4,0-.45,0,.25,0,.3.12.4.2a.46.46,0,0,1,.3.08c.1,0,.35,0,.3,0s-.35-.12-.4.08c.1.12.45.08.75.08.15,0,.1.08.2.08s.15-.08.25-.16c.1.12.36.12.66.08,0,.16-.15.08-.15.24s.15.2,0,.24a3.85,3.85,0,0,1-1,0c-.15,0-.15.08-.3,0s-.45-.16-.55,0a3,3,0,0,0,.9,0c.3.16.76,0,.9.2s-.1.16-.05.28.2.08.2.24c-.1,0-.2,0-.2,0,.15,0,.15.12.15.24a2.52,2.52,0,0,1-.55.08c0,.12,0,.08,0,.16s-.25,0-.2.08a2,2,0,0,0,.55,0c-.05.16.35,0,.25.24s-.5,0-.5.16.4.08.2.2,0,0,0,.08-.2,0-.2,0,.4,0,.46.08c-.2,0-.46,0-.5.16.15.08.6-.12.7.08-.05,0-.15,0-.2.08a.27.27,0,0,1,.25.28c-.1,0-.3,0-.4.08h.3c.2.2.9,0,.75.48-.25,0-.45-.08-.7-.08-.05.08.05.12.05.2s-.2,0-.2,0c.2.08.25.24.65.2a2.13,2.13,0,0,0,.55.2c.3,0,.4.08.7,0v.16h.45c.1.08.05.2.25.2s0-.2.2-.16a.23.23,0,0,1,.2,0l.2,0c.15,0,.3.08.45.08a9,9,0,0,0,1.16,0,10.57,10.57,0,0,1,2.25,0c.1,0,.15,0,.25,0a10.76,10.76,0,0,0,1.7,0c.1,0,.15,0,.26,0,.7,0,1.35,0,2,.08a8.34,8.34,0,0,1,1,0,6,6,0,0,0,.85,0h.45c.15,0,.15,0,.25,0l.05,0h.2c.26-.08.26,0,.46,0a5.36,5.36,0,0,0,1.2,0c0,.08.15,0,.25,0h.25c.1,0,.15,0,.25,0,1.8,0,3.36-.08,5.11-.08.05,0,.1,0,.2,0a6.64,6.64,0,0,0,1,0c.05.12.3,0,.45,0h.5s.1,0,.2,0h1.8a.44.44,0,0,1,.25,0c.8,0,1.5,0,2.31,0h.15c0,.08,0,0,.15,0s.2,0,.3,0,.25,0,.4,0,.25,0,.4,0a3.53,3.53,0,0,1,.65,0h.75a.44.44,0,0,0,.25,0,11.51,11.51,0,0,1,1.66,0l.2,0h.95s0,0,.05,0,0,0,.05,0h.7c.1,0,.15,0,.25,0s.15,0,.25,0c.55,0,1.1,0,1.66,0,.05,0,.1,0,.2,0,2.25,0,4.51-.12,6.86,0,.3,0,.2,0,.45,0a10.76,10.76,0,0,0,1.7,0s.1,0,.2,0a5.94,5.94,0,0,1,1.46,0h.55c.15,0,.15.08.3,0s.65,0,.95,0h.15c.05.08,0,0,.25,0h.15v0c.1,0,.1,0,.15,0s0,0,.15,0,0,0,0,0l.2,0s0-.08,0,0a.17.17,0,0,0,.2,0c.15,0,.1,0,.4,0,1.2,0,2.56,0,4,0,.05,0,.15,0,.25,0h1c.05,0,.05-.08.15-.08a1.74,1.74,0,0,0,.5.08c.2,0,.25-.08.4-.08.1.16.5,0,.7.16h.9a4.82,4.82,0,0,0,.76,0c.1,0,.15,0,.25,0s.05,0,.15,0,.1,0,.15,0,.15,0,.25,0,.15.08.25,0,.55.08.65,0c-.1,0-.15,0-.05,0s.1,0,.2,0c.6.16,1.2-.08,1.65,0a.46.46,0,0,1,.26,0,6,6,0,0,1,.85,0,4.7,4.7,0,0,1,.75,0c.15,0,.15-.08.3,0h.75c.1,0,.15,0,.25,0h.45c.1,0,.1,0,.2,0s0,0,.05,0,.15,0,.3,0h5.32c.1,0,.4,0,.4,0a3,3,0,0,0,.9,0c.4,0,.55,0,.85,0s.1,0,.3,0a2.11,2.11,0,0,1,.75,0c0-.12.2,0,.25,0s.1.08.25,0a5.94,5.94,0,0,1,1.46,0c.2,0,.15-.08.3,0s.25,0,.3,0h2.4c.15,0,.2.08.4,0s.1-.12.3-.08.05,0,.15,0,.1,0,.05,0l.2,0c.1,0,.2,0,.3,0s.2,0,.3,0a2.69,2.69,0,0,0,.85,0,3.14,3.14,0,0,0,1.1,0c.15,0,.15.08.3,0a1.38,1.38,0,0,1,.7,0c0-.08,0-.08.15-.08s.1.12.26.08.35,0,.5,0c.4.08,1.2,0,1.7.08.4-.08.85,0,1.3,0,0,0,.4.12.45,0s-.35,0-.45-.08-.26,0-.4,0c.05-.12.3,0,.45,0h.45c.15,0,.15.08.25.08s.15,0,.25,0,.1,0,.2,0,.15.16.4.08c.05,0,.05-.12.2-.08s.4,0,.45,0,.2-.08.4,0,.25.16.3,0c0,0,0,0,0,0,.25.12.35,0,.65,0a6.08,6.08,0,0,1,.95.16c.05-.08.05,0,.15,0s.05-.08.15-.08a1.07,1.07,0,0,0,.4,0,.46.46,0,0,0,.26,0c.25-.08.4.08.65,0,0,.08.2,0,.2.08s.1,0,.2,0a2.11,2.11,0,0,1,.75,0,.3.3,0,0,1,.2-.08c0,.12.25,0,.4,0a.61.61,0,0,1,.3,0c0-.12.25,0,.4,0s.15.2.4.2l0,0h0s0,0,0,0h0c0-.05,0-.15.19-.12s.2-.08.4,0a8.14,8.14,0,0,0,.85.08c.15,0,.15-.08.25-.08s.3.08.4.16c0-.08.15-.08.25-.08s.4,0,.5,0,.2,0,.2.08c.15.08.2-.2.26,0v.2c.2,0,.1-.24.3-.24,0,.12.45,0,.45.08-.25,0,0,.08-.15.16.45,0,.4,0,.75,0,0-.12-.2-.28-.25-.16a.22.22,0,0,1-.3,0c.15-.16.4,0,.55-.08a.43.43,0,0,0,.25,0h.75a.24.24,0,0,1,.15,0,1.06,1.06,0,0,1,.5,0s.3-.12.3,0-.15.12-.3.16.37,0,.53,0v-.06a2.09,2.09,0,0,0,.5,0s0,0,0,.06a.19.19,0,0,1,.09,0,.25.25,0,0,1,.19,0s0,0,0-.08c.46,0,.61-.07,1-.08,0,0,0,0,0,0a.39.39,0,0,1,.43,0c0-.12.1-.16.2-.2.15.16.2,0,.45,0,.2.12.35-.08.55,0s.1-.12.25-.08c-.2.16.2,0,.2.2-.1,0-.2,0-.2,0a.52.52,0,0,0,.3,0s-.1-.12,0-.16.4,0,.45,0,.3,0,.4.08.05-.08.15-.08.25,0,.4,0,.3,0,.45.16a.26.26,0,0,1,.25-.16c.15,0,.25,0,.5,0s.2,0,.3,0,.1,0,.25,0,.25,0,.4,0,0,0,0,0,.1.08.2,0,.1,0,0,0c.1,0,.1,0,.2,0s.1-.08.2,0,.1.08.2.08a.19.19,0,0,1,.15-.08l.35,0c-.05,0,0-.08,0,0s0,0,0,0l.3,0,.2,0a2.46,2.46,0,0,0,.26,0c.05,0,.05,0,.05,0s.15,0,.25,0a4.09,4.09,0,0,1,.7,0c.15,0,.2-.08.4,0l.11,0s-.07,0-.07.08a.24.24,0,0,0,.2-.08h0l0,0c.15,0,.1.12.25.08,0-.12.25,0,.3,0h.4c.15,0,.05.2.25.16,0-.12.05-.16.2-.16s.65,0,1,0c0,0,.07,0,.1,0s0-.07,0,0,0,0,0,0c.14,0,.32,0,.44.06s.2-.16.25,0a3,3,0,0,1-.9,0s.1,0,.2,0h.65c.15,0,.15.08.3,0s-.3-.08,0-.16.1-.08.2-.08c-.05.12.1.08.2.08s.15-.08.3,0,.15,0,.2,0c-.1.2.3,0,.25.16.15,0,.15-.08.26-.08s.2.16.2,0,0-.08,0,0h0l0,0h0c0-.08.15,0,.25,0s0,.09,0,.1a.18.18,0,0,0,.1,0c0-.08.25,0,.4-.08h0a.32.32,0,0,1,.17,0s-.07,0-.16,0a.5.5,0,0,0,.22,0c.1,0,.15,0,.25,0s.15-.12.3-.08c0-.16.1-.16.2-.2a23.51,23.51,0,0,0,3.66.2,2.13,2.13,0,0,1,.55-.2h.2c.05,0,.05,0,0,0s-.55.08-.5-.08c.15,0,.15.08.3,0-.05-.12.3,0,.25-.08a6.32,6.32,0,0,0-1.15,0c-.1-.12-.4-.08-.5-.2.25,0,0,0,0-.08s.15,0,.15-.08c-.2,0-.4,0-.56-.08s-.25,0-.25,0-.15.08-.2,0,.15-.08.25-.16.15-.08.26-.16a1.31,1.31,0,0,0,.75-.16.94.94,0,0,0,.5,0c.2,0,.4,0,.4-.16-.2,0-.55.08-.65,0a7.77,7.77,0,0,1,2.1,0c.15,0,.2-.12.4-.08s.3,0,.5,0a2.8,2.8,0,0,1,1,0c.05,0,0-.16.2-.16s.2,0,.45,0c0,0,.15,0,.15-.08s-.05,0,0,0a8.19,8.19,0,0,0,1.4,0c0-.2-.4-.12-.65-.16s-.5-.08-.55-.24a.51.51,0,0,1-.3,0c-.1,0-.35,0-.3,0s.25,0,.25,0-.25,0-.25,0c-.4,0-1,.08-1.15-.16.2,0,.25-.08.5,0a.26.26,0,0,1,.25-.16c.45,0,.85-.08,1.35,0,.05-.08.3,0,.3-.08h-.29s0,0,0,0-.15,0-.17-.07a.3.3,0,0,0,.2-.08,1.23,1.23,0,0,1-.7-.16c-.15,0-.15,0-.25,0s-.25,0-.25,0,.4,0,.5-.16h-.15c-.15,0-.25,0-.25-.08s.05-.2-.2-.16-.35,0-.5,0c-.55-.12-1.2-.16-1.7-.28a1.34,1.34,0,0,1-.76-.16c.15,0,.6,0,1,0,.1-.08,0-.08,0-.16s.2,0,.2,0a.46.46,0,0,1-.3-.08c.05,0,.15,0,.15-.16s-.35,0-.3-.2a6.45,6.45,0,0,1,1.7,0c.1-.08.3,0,.45,0s.2.08.4,0,.25-.08.5,0c.05-.08.35,0,.4-.08-.35,0-.5-.08-.85,0,0,0-.1,0-.2,0s-.1-.12-.26-.08c.05,0,.05-.08-.05-.08a.34.34,0,0,0-.3,0c-.1,0-.25,0-.25,0s.2,0,.2-.08c-.5,0-.75-.16-1.3-.08,0,0-.1,0-.15,0s-.05-.16-.2-.16c.05,0,.05-.12.05-.2h-.3c0-.16-.35-.08-.3-.24s.35,0,.3,0,0-.16.15-.08c-.05-.16-.4,0-.45-.16.2-.16.8,0,1.1-.16.3.12.6,0,.9,0,0-.2-.35,0-.5-.08a2.09,2.09,0,0,0-.5,0c-.1-.12-.5,0-.55-.08h1.3s0-.12.2-.08.3,0,.45,0,.05.12.2.08c.45-.08.7.08,1.3,0,.05,0,.1,0,.2,0h.75c.1,0,.15,0,.26,0C263.37,407.48,263.62,407.36,263.07,407.4ZM254.7,402c.07,0,0,0,0,0h0C254.6,402,254.7,401.92,254.7,402Zm-10.17-3.4c.06,0,0,0,0,0h0S244.53,398.52,244.53,398.56Zm-.4,0h.2s-.1,0-.2,0h-.2S244,398.56,244.13,398.56Zm-.56,0h.27s-.1,0-.2,0h-.27S243.47,398.56,243.57,398.56Zm-5.46.08h.2s-.1,0-.15,0H238S238.06,398.64,238.11,398.64Zm-.2,0a.41.41,0,0,1-.19,0h0S237.81,398.64,237.91,398.64Zm-.3,0c.06,0,0,.08,0,0h0C237.51,398.68,237.61,398.64,237.61,398.68Zm-.25,0c0,.16-.19,0-.29,0h0C237.11,398.52,237.26,398.72,237.36,398.68Zm-108.08,2.76h0Zm-1.39,5.11s.1,0,.15,0S127.94,406.55,127.89,406.55Zm.1,2.56s0-.08,0,0S128,409.15,128,409.11Zm.21,0h0s.1,0,.15,0A.23.23,0,0,1,128.2,409.11Zm2.25-7h0c-.05,0,0-.08,0,0S130.5,402.12,130.45,402.08Zm2.59-1.56c0,.12-.3,0-.3.08-.2-.08-.3,0-.6,0-.1-.2.4,0,.4-.16.22.08.32,0,.52.08Zm.35-.52c-.1.08-.1.24-.2.28s-.2-.12-.2-.24a.45.45,0,0,1,.42,0Zm15.91-2.4h.15a.63.63,0,0,1-.3,0S149.25,397.6,149.3,397.6Zm.1.2s0-.08,0,0S149.45,397.8,149.4,397.8Zm.35-.2v.08c-.05,0-.1,0-.05,0h0s-.1,0,0,0c-.05-.08-.05-.16.1-.12Zm.25.12c-.1,0-.05-.08-.15-.08h0c.05-.12.2,0,.15.08.1,0,.1-.12.3-.08C150.3,397.72,150.05,397.88,150,397.72Zm12.12.12c-.05-.08-.05,0-.15,0h-1.1c-.65.08-1.35.08-2,.16h-1.2s-.15-.08-.2,0a.17.17,0,0,1-.2,0s-.1,0,0,0c-.15,0-.35.12-.45,0a2.07,2.07,0,0,0-.7,0c-.2,0-.15-.12-.25-.16s-.1.12-.15,0h-.3a2,2,0,0,1-.55,0c-.4.08-.6,0-.95,0a3.8,3.8,0,0,0-1,0,6.17,6.17,0,0,0-.86,0c-.25,0-.3,0-.5-.08a2.55,2.55,0,0,1-1.1,0c.15-.08.1-.08-.1-.08h0s0,0,.05,0c.85,0,1.95,0,2.86,0,.2,0,.25.08.45,0s.2,0,.4,0a6,6,0,0,0,.85,0c.2,0,.25.08.45,0h.4c.1,0,.35,0,.3,0a.91.91,0,0,0,.4,0c.2,0,.1.12.3.08s.15-.08.25-.08.1,0,.25,0c.45,0,.85,0,1.3,0,0,0,0,0,0,0a1.43,1.43,0,0,1,.5,0c.25,0,.6,0,.85.08a4.17,4.17,0,0,1,.7,0c.86,0,1.06,0,1.86,0C162.52,397.92,162.27,397.8,162.12,397.84Zm27.68,8.91c-.05,0,0-.08,0,0S189.8,406.75,189.8,406.75Zm4.55-8.59H194a8.87,8.87,0,0,1-2.06,0h-1.14c-.25,0-.1-.08.05,0h1.59c-.1-.12.4,0,.4,0a.47.47,0,0,1,.4,0c.3-.08.35,0,.7,0h.86C194.75,398.24,194.49,398.16,194.35,398.16Zm.6,0c.06,0,0,0,0,0h0C194.85,398.12,195,398.08,195,398.12Zm0,2.88h0c-.05,0,0-.08,0,0S194.91,401,194.91,401Zm0-.16h0c0-.08.15,0,.15,0S194.91,400.92,194.91,400.84Zm1.66-2.56h0c-.05,0,0-.08,0,0S196.57,398.28,196.57,398.28Zm1.6.88h0s.1,0,.15,0S198.22,399.16,198.17,399.16Zm.2,0h0s.1,0,.2,0A.41.41,0,0,1,198.37,399.16Zm.3,0h0s.1,0,.15,0S198.72,399.16,198.67,399.16Zm.2,0h0c-.05,0,0-.08,0,0S198.87,399.2,198.87,399.16Zm.3,0h0s.05-.08.05,0S199.22,399.24,199.17,399.2Zm1.24,0h-.2s.1,0,.2,0h.2S200.51,399.2,200.41,399.2Zm1.17-1.08h0s.1,0,.15,0A.23.23,0,0,1,201.58,398.12Zm.75,0h0s.05-.08.05,0S202.33,398.12,202.33,398.12Zm2-.08h.25s-.1,0-.2,0h-.25S204.23,398,204.33,398Zm-1.65.08c-.15,0,.4-.12.4,0h0S202.82,398.16,202.68,398.12Zm.15.84h0s.05-.08.05,0S202.88,399,202.83,399Zm.14.16c-.05,0-.05,0,0,0h.45s.1,0,.15,0,0,0,.05,0,.1,0,.2,0,.15.08.3,0h.5c.1,0,.4,0,.4,0Zm2.62,0h0c-.05,0,0-.08,0,0S205.59,399.08,205.59,399.08Zm2,0h-.44c-.1,0-.35,0-.3,0a.32.32,0,0,1-.3,0c-.2,0-.35-.08-.65-.08h0c.05-.08.2-.08.3-.08a3.53,3.53,0,0,0,.65,0,0,0,0,0,0,0,0s0,0,0,0,.05.08.15.08.05,0,.05,0,.3,0,.45,0h.2S207.63,399,207.58,399Zm7.48,14.7c0-.08.15,0,.15,0S215.06,413.78,215.06,413.74Zm1.16,0c-.05,0,.05-.08.05,0S216.22,413.78,216.22,413.78ZM228.7,398.6h0c-.05,0,.05-.08.05,0S228.7,398.6,228.7,398.6Zm.1,0h0s.05-.08.05,0S228.85,398.6,228.8,398.6Zm.55,0h0c0-.08.4-.08.3,0S229.5,398.56,229.35,398.6Zm6.57-.12h0c0,.08-.1.12-.26.08S235.82,398.52,235.92,398.48Zm-.47.2h1.46c0,.12-.25,0-.4,0h-1.26S235.35,398.68,235.45,398.68Zm1,.44h0s.05-.08.05,0S236.47,399.12,236.42,399.12Zm-1.57-.44c0,.08-.14,0-.19,0h0S234.75,398.68,234.85,398.68Zm-.35,0c.06,0,0,.08,0,0h0S234.5,398.64,234.5,398.68Zm-1.4,0h.65s-.1,0-.2,0h-.65S233,398.68,233.1,398.68Zm.1.32h.5v0a.86.86,0,0,1,.45,0c.15,0,0,0,.2,0l.2,0s.1,0,.15,0c.3,0,.45,0,.7,0h.2c.05,0,.05,0,.05,0s.4-.12.4.08a3.74,3.74,0,0,1-.75,0h-1.54v0c-.35,0-.55,0-.95,0h0C232.75,398.92,233.05,399,233.2,399Zm-1.74,14.58h-.66s.1,0,.2,0h.66S231.56,413.58,231.46,413.58Zm-.12-14.86c-.2,0-.4,0-.5,0h.85c0-.08.05,0,.05,0h1c.1,0,0,0-.05,0Zm7.23,14.86c-1.25.12-2.91,0-4.16.08-.7-.08-1.65,0-2.45,0,0-.08.15,0,.25,0s.1,0,.2,0c.55,0,1.15,0,1.7,0,.15,0,.3,0,.45,0,1.25.08,2.51-.12,3.76,0h.4C238.82,413.58,238.67,413.58,238.57,413.58Zm15.93-10.22c.06,0,0,0,0,0h0S254.5,403.32,254.5,403.36Zm-1,0h.2s-.1,0-.15,0h-.2S253.49,403.36,253.54,403.36Zm.76-2.64c.06,0,0,0,0,0h0C254.2,400.72,254.3,400.68,254.3,400.72Zm-1.25.08c.15,0,.15.08.3,0s.25,0,.25,0c.26,0,.56,0,.56.12h0a5.05,5.05,0,0,0-1.1-.08,1.73,1.73,0,0,0-.75,0s-.1,0-.15,0C252.25,400.64,252.7,400.88,253.05,400.8Zm-1.26,0s-.08,0-.13,0h0S251.74,400.76,251.79,400.76Zm.32,1.08h0c-.15-.12-.25,0-.5,0C251.61,401.75,252.11,401.68,252.11,401.84Zm-.92,0c.07,0,.27-.12.37,0h0c0,.2-.4,0-.55.08h-.7c0-.08.2,0,.2-.08.2,0,.15,0,.3,0S250.94,401.84,251.19,401.8Zm-.33-.12h0c0,.12-.15.12-.25,0a2.18,2.18,0,0,0-.45.16,6.78,6.78,0,0,0-.9,0c-.1,0-.1,0-.15-.08A6.18,6.18,0,0,1,250.86,401.68Zm-5.74-1.84s-.08,0-.13,0h0S245.07,399.84,245.12,399.84ZM241.43,414c-.05,0,0-.08,0,0S241.43,414,241.43,414Zm5.16-.08s.1,0,.15,0S246.64,413.9,246.59,413.9Zm.45,0h0a.42.42,0,0,0,.25,0C247.34,414,246.94,414,247,413.86Zm3.11-.12c-.05,0,0-.08,0,0Zm2.26.36h0s.1,0,.15,0S252.46,414.1,252.41,414.1Zm1.75-.32c-.25,0-.3.12-.45,0h-1.1c-.1,0-.15,0-.25,0s-.05-.12-.2-.08c-.8,0-1.7,0-2.45,0-.15.08-.7-.12-.86,0s-.2-.12-.3,0a.16.16,0,0,1-.2,0c-.1,0-.15-.08-.4,0,0,0,0,.08,0,0a3.83,3.83,0,0,0-1.35,0h-.25c-.1-.08-.2,0-.4,0l-.2,0s0,0,0,0c-.3,0-1,0-1.35,0-.1,0-.15,0-.25,0s-.2,0-.3,0c-.25,0-.6,0-1,0h-1.1a5.48,5.48,0,0,0-.7,0c0,.12-.1-.08-.25,0-.6,0-1.26,0-1.8,0-.05-.2.35,0,.5-.08H240a8.15,8.15,0,0,0,1.1,0c.55.08.75,0,1.3,0a2.07,2.07,0,0,1,.7,0c.15-.16.45.12.55,0,.25,0,.45.12.75,0,.05,0,.1-.08.2,0a9.63,9.63,0,0,0,1.2,0c.15,0,.15,0,.25,0a.71.71,0,0,0,.2,0c.65,0,1.55,0,2.31,0,.2,0,.35,0,.5,0h.2s.1,0,0,0c.1,0,.1,0,.2,0s.35,0,.5,0a.13.13,0,0,1,.15,0s0,0,0,0a2.09,2.09,0,0,0,.5,0c.05,0,.05,0,.2,0H252a18.1,18.1,0,0,1,2.55.16C254.51,413.9,254.31,413.82,254.16,413.78Zm.56-10.39h0s.1,0,.15,0S254.77,403.35,254.72,403.39Zm.2,0h0s.1,0,.15,0S255,403.35,254.92,403.39Zm.6-.11c.17,0,.19.08.38,0C255.82,403.39,255.48,403.51,255.52,403.28Zm.2.51h0s.05-.08.05,0S255.72,403.83,255.72,403.79Zm3.26,3.48a1.07,1.07,0,0,1-.4,0c.11-.11.5,0,.7,0C259.33,407.35,259.08,407.27,259,407.27Zm.55,0h-.2s.1,0,.15,0h.2S259.58,407.27,259.53,407.27Zm1.55-.16h-.75a2.07,2.07,0,0,0-.7,0c-.1,0-.25,0-.4-.08s-.65-.08-1-.16c.2-.16.45,0,.7-.08.3.08.5,0,.9,0,0-.12-.25,0-.4,0h-.4a3,3,0,0,0-.85,0,.28.28,0,0,1,.2-.08c.48,0,1,0,1.57.06-.27,0,.16.18.18,0l.7,0v.16c.3-.08.35,0,.4.2h0C261.13,407,261.18,407.11,261.08,407.11Z" transform="translate(-121.06 -379.23)"/><path class="cls-1" d="M253,400c-.05,0-.15,0-.15,0h0S253,400,253,400Z" transform="translate(-121.06 -379.23)"/><path class="cls-1" d="M209.85,397.76c-.15,0-.2-.08-.4,0h0C209.35,397.88,209.8,397.84,209.85,397.76Z" transform="translate(-121.06 -379.23)"/><path class="cls-1" d="M209.09,398h-.2s-.15,0-.15,0h.2C209,398,209.09,398,209.09,398Z" transform="translate(-121.06 -379.23)"/><path class="cls-1" d="M246.28,399.4s-.1,0-.05,0h0S246.34,399.44,246.28,399.4Z" transform="translate(-121.06 -379.23)"/><path class="cls-1" d="M251.26,400l-.19,0s0,0-.11,0h-.3c.05.08.3,0,.45,0h.1s0,0,0,0Z" transform="translate(-121.06 -379.23)"/><path class="cls-1" d="M206.7,397.8a.23.23,0,0,1,.14,0S206.71,397.76,206.7,397.8Z" transform="translate(-121.06 -379.23)"/><path class="cls-1" d="M251.5,414.18a.3.3,0,0,1,.11-.06.21.21,0,0,0-.18,0S251.47,414.15,251.5,414.18Z" transform="translate(-121.06 -379.23)"/><path class="cls-1" d="M243.37,399.6a.32.32,0,0,1-.2.08.27.27,0,0,1,.22-.08Z" transform="translate(-121.06 -379.23)"/><path class="cls-1" d="M248.1,399.55a.16.16,0,0,0,.13,0s-.15,0-.15,0Z" transform="translate(-121.06 -379.23)"/><path class="cls-1" d="M247.23,399.56c-.2,0,.15,0,.25,0s.4.08.45,0h0C247.7,399.55,247.44,399.44,247.23,399.56Z" transform="translate(-121.06 -379.23)"/><path class="cls-1" d="M248.35,399.55a.15.15,0,0,0,.13,0s-.15,0-.15,0Z" transform="translate(-121.06 -379.23)"/><polygon class="cls-1" points="92.44 18.66 92.45 18.65 92.45 18.65 92.44 18.66"/><path class="cls-1" d="M236.86,414.17v0h0Z" transform="translate(-121.06 -379.23)"/><path class="cls-1" d="M247.83,399.52l0,0S247.78,399.48,247.83,399.52Z" transform="translate(-121.06 -379.23)"/><path class="cls-1" d="M237,414.28c.1,0,.25,0,.3-.08-.14-.11-.33,0-.43,0a.08.08,0,0,1-.06.09S236.86,414.33,237,414.28Z" transform="translate(-121.06 -379.23)"/><path class="cls-1" d="M239.3,398.48h0Z" transform="translate(-121.06 -379.23)"/><path class="cls-1" d="M246.68,399.4h0s0,0,0,0Z" transform="translate(-121.06 -379.23)"/><path class="cls-1" d="M246.48,399.6c.25-.08.35,0,.65,0,0-.19-.32-.13-.44-.19C246.72,399.55,246.44,399.48,246.48,399.6Z" transform="translate(-121.06 -379.23)"/><path class="cls-1" d="M222.83,396.69c.15-.05.1.1.3.05h.45c0-.1-.3,0-.4-.05s-.1-.1-.3-.05h-.55c-.05,0-.15,0-.05.05Z" transform="translate(-121.06 -379.23)"/><path class="cls-1" d="M171.4,396.69c0-.05-.1,0-.05.05S171.45,396.74,171.4,396.69Z" transform="translate(-121.06 -379.23)"/><path class="cls-1" d="M180.38,396.69c0-.05-.1,0,0,.05S180.43,396.74,180.38,396.69Z" transform="translate(-121.06 -379.23)"/><path class="cls-1" d="M223.84,396.74a.17.17,0,0,0,.15-.05C223.94,396.69,223.84,396.69,223.84,396.74Z" transform="translate(-121.06 -379.23)"/><path class="cls-1" d="M224.39,396.69c-.1-.05-.45,0-.25.1C224.09,396.64,224.44,396.84,224.39,396.69Z" transform="translate(-121.06 -379.23)"/><path class="cls-1" d="M171.91,396.74c0-.05-.1,0,0,.05S172,396.79,171.91,396.74Z" transform="translate(-121.06 -379.23)"/><path class="cls-1" d="M181.58,396.79s.15,0,.15-.05S181.58,396.74,181.58,396.79Z" transform="translate(-121.06 -379.23)"/><path class="cls-1" d="M211.06,396.84c.4.05.8-.1,1,0-.05-.15.3.05.25-.1a11.85,11.85,0,0,1-1.46,0C210.8,396.89,210.9,396.84,211.06,396.84Z" transform="translate(-121.06 -379.23)"/><path class="cls-1" d="M213.26,396.74h-.2c-.05,0-.15,0-.15.05h.2S213.26,396.79,213.26,396.74Z" transform="translate(-121.06 -379.23)"/><path class="cls-1" d="M214.91,396.79c.16-.05.41.1.46-.05h-1.76c-.1,0-.2,0-.2.05h1.5Z" transform="translate(-121.06 -379.23)"/><path class="cls-1" d="M216.08,396.94a12,12,0,0,1,1.8.05,9.63,9.63,0,0,1,1.2-.05,4,4,0,0,0,1.15.05c0,.1.15.05.25.05.25,0,.35-.1.55,0s.3.1.3-.05c-.8-.1-1.75-.1-2.55-.15h-.85c-.35,0-.45-.1-.65,0,0,0-.05,0-.05,0H217c-.2,0-.25.1-.45.05h-.85c-.1,0-.25,0-.15.05Z" transform="translate(-121.06 -379.23)"/><path class="cls-1" d="M224.64,396.79c.05,0,.15,0,.15-.05S224.64,396.74,224.64,396.79Z" transform="translate(-121.06 -379.23)"/><path class="cls-1" d="M225,396.74c0-.05-.1,0,0,.05S225.09,396.79,225,396.74Z" transform="translate(-121.06 -379.23)"/><path class="cls-1" d="M225.39,396.74c-.1,0-.2,0-.2.05S225.34,396.84,225.39,396.74Z" transform="translate(-121.06 -379.23)"/><path class="cls-1" d="M244.74,396.74c0-.05-.1,0-.05.05S244.79,396.79,244.74,396.74Z" transform="translate(-121.06 -379.23)"/><path class="cls-1" d="M245.89,396.74c0-.05-.1,0,0,.05S245.94,396.79,245.89,396.74Z" transform="translate(-121.06 -379.23)"/><path class="cls-1" d="M159.52,396.84s-.1,0-.05.05S159.57,396.84,159.52,396.84Z" transform="translate(-121.06 -379.23)"/><path class="cls-1" d="M207.8,396.84s-.1,0-.05.05S207.85,396.84,207.8,396.84Z" transform="translate(-121.06 -379.23)"/><path class="cls-1" d="M243.54,396.79a.28.28,0,0,0,.15.3C243.69,396.94,243.69,396.79,243.54,396.79Z" transform="translate(-121.06 -379.23)"/><path class="cls-1" d="M183.38,396.94v-.05c-.15.05-.45-.1-.5.05A.85.85,0,0,0,183.38,396.94Z" transform="translate(-121.06 -379.23)"/><path class="cls-1" d="M210.75,396.89c0-.05-.1,0-.05.05S210.8,396.89,210.75,396.89Z" transform="translate(-121.06 -379.23)"/><path class="cls-1" d="M214.36,396.94c.1,0,.2,0,.2-.05h-.25C214,396.84,214.16,397,214.36,396.94Z" transform="translate(-121.06 -379.23)"/><path class="cls-1" d="M215.22,396.89h-.46s-.15,0-.15.05H215C215.07,396.94,215.22,397,215.22,396.89Z" transform="translate(-121.06 -379.23)"/><rect class="cls-1" x="122.93" y="17.67" width="0.15" height="0.1"/><path class="cls-1" d="M183.69,396.94c0-.05-.1,0-.05.05S183.74,396.94,183.69,396.94Z" transform="translate(-121.06 -379.23)"/><path class="cls-1" d="M184,396.94c0-.05-.1,0,0,.05S184.09,396.94,184,396.94Z" transform="translate(-121.06 -379.23)"/><path class="cls-1" d="M184.14,396.94c0-.05-.1,0,0,.05S184.19,396.94,184.14,396.94Z" transform="translate(-121.06 -379.23)"/><path class="cls-1" d="M207.9,397c.1,0,.2,0,.2-.05S207.9,397,207.9,397Z" transform="translate(-121.06 -379.23)"/><path class="cls-1" d="M242.58,397c-.1,0-.15.05-.2.15a.32.32,0,0,0-.2.1.23.23,0,0,0,.11,0A.28.28,0,0,0,242.58,397Z" transform="translate(-121.06 -379.23)"/><path class="cls-1" d="M249.45,397c0-.05-.1,0,0,.05S249.5,397,249.45,397Z" transform="translate(-121.06 -379.23)"/><path class="cls-1" d="M252.46,397c0-.05-.1,0-.05.05S252.51,397,252.46,397Z" transform="translate(-121.06 -379.23)"/><path class="cls-1" d="M207,397.09s.15,0,.15,0S207,397,207,397.09Z" transform="translate(-121.06 -379.23)"/><path class="cls-1" d="M185.09,397.14c0-.05-.1,0-.05.05S185.14,397.14,185.09,397.14Z" transform="translate(-121.06 -379.23)"/><path class="cls-1" d="M203.13,397.09H203C202.63,397.09,203.13,397.29,203.13,397.09Z" transform="translate(-121.06 -379.23)"/><path class="cls-1" d="M205.69,397.09h-.15C205.19,397.09,205.69,397.29,205.69,397.09Z" transform="translate(-121.06 -379.23)"/><path class="cls-1" d="M209.75,397.14c0-.05-.1,0-.05.05S209.8,397.14,209.75,397.14Z" transform="translate(-121.06 -379.23)"/><path class="cls-1" d="M244.29,397.24c.05-.05.15,0,.15-.05S244.29,397.19,244.29,397.24Z" transform="translate(-121.06 -379.23)"/><path class="cls-1" d="M244.64,397.24c0-.05-.15-.1-.15,0S244.59,397.3,244.64,397.24Z" transform="translate(-121.06 -379.23)"/><path class="cls-1" d="M183.08,397.29c.1-.05.4.06.46-.05C183.38,397.29,183.13,397.14,183.08,397.29Z" transform="translate(-121.06 -379.23)"/><path class="cls-1" d="M193.76,397.29c.05,0,.2,0,.2-.05S193.76,397.24,193.76,397.29Z" transform="translate(-121.06 -379.23)"/><path class="cls-1" d="M208,397.29c.1,0,.25,0,.25-.05h-.45C207.45,397.24,207.85,397.34,208,397.29Z" transform="translate(-121.06 -379.23)"/><path class="cls-1" d="M208.75,397.29c.1,0,.25,0,.25-.05h-.45C208.25,397.24,208.6,397.34,208.75,397.29Z" transform="translate(-121.06 -379.23)"/><path class="cls-1" d="M213.21,397.39c-.1,0-.2.15,0,.1s0-.2.15-.2.25,0,.25-.05a3.41,3.41,0,0,0-.55.05c-.15,0-.45-.05-.25,0S213.21,397.24,213.21,397.39Z" transform="translate(-121.06 -379.23)"/><path class="cls-1" d="M214.06,397.24c-.15.05-.35-.2-.45,0h0C213.76,397.2,214,397.4,214.06,397.24Z" transform="translate(-121.06 -379.23)"/><path class="cls-1" d="M214.76,397.25h-.3c-.05,0-.3-.1-.3.05h.3S214.76,397.4,214.76,397.25Z" transform="translate(-121.06 -379.23)"/><path class="cls-1" d="M209.9,397.29h-.15C209.4,397.29,209.9,397.44,209.9,397.29Z" transform="translate(-121.06 -379.23)"/><path class="cls-1" d="M211.2,397.29h-.6c-.1,0-.2,0-.2,0h.4C211,397.34,211.2,397.44,211.2,397.29Z" transform="translate(-121.06 -379.23)"/><path class="cls-1" d="M212.31,397.29h-.95c-.05,0-.15,0-.15,0h.85C212.16,397.34,212.31,397.39,212.31,397.29Z" transform="translate(-121.06 -379.23)"/><path class="cls-1" d="M214.91,397.34c.05,0,.1,0,.05,0S214.86,397.29,214.91,397.34Z" transform="translate(-121.06 -379.23)"/><path class="cls-1" d="M205.19,397.45h.2c.1,0,.05-.05,0-.05s-.4.05-.2.1C205.14,397.45,205.14,397.39,205.19,397.45Z" transform="translate(-121.06 -379.23)"/><path class="cls-1" d="M213.36,397.39c0,.11,0,.06.15,0S213.36,397.29,213.36,397.39Z" transform="translate(-121.06 -379.23)"/><path class="cls-1" d="M213.61,397.39c0,.06.1,0,0-.05S213.56,397.34,213.61,397.39Z" transform="translate(-121.06 -379.23)"/><path class="cls-1" d="M211.35,397.45c-.2,0-.4-.05-.4.1.1,0,.15-.05.2-.05S211.65,397.45,211.35,397.45Z" transform="translate(-121.06 -379.23)"/><path class="cls-1" d="M211.56,397.5c.05-.05.15,0,.2-.05S211.56,397.45,211.56,397.5Z" transform="translate(-121.06 -379.23)"/><path class="cls-1" d="M212.21,397.49c0-.05-.15-.1-.15,0C212.11,397.44,212.16,397.55,212.21,397.49Z" transform="translate(-121.06 -379.23)"/><path class="cls-1" d="M212.61,397.44c.1,0,.25.05.25-.05h-.4C212.16,397.39,212.41,397.49,212.61,397.44Z" transform="translate(-121.06 -379.23)"/><path class="cls-1" d="M212.91,397.49s.1-.05.05-.05S212.86,397.44,212.91,397.49Z" transform="translate(-121.06 -379.23)"/><path class="cls-1" d="M176.22,397.55h.05C176.27,397.5,176.22,397.5,176.22,397.55Z" transform="translate(-121.06 -379.23)"/><path class="cls-1" d="M243,397.55c0-.05.1,0,.15-.05S243,397.5,243,397.55Z" transform="translate(-121.06 -379.23)"/><path class="cls-1" d="M243.59,397.6c0-.05-.05-.05-.05,0S243.59,397.65,243.59,397.6Z" transform="translate(-121.06 -379.23)"/><path class="cls-1" d="M218.72,397.7c0,.05.1,0,.05-.05S218.67,397.65,218.72,397.7Z" transform="translate(-121.06 -379.23)"/><path class="cls-1" d="M242.53,397.7c0,.05.1,0,.05-.05S242.48,397.65,242.53,397.7Z" transform="translate(-121.06 -379.23)"/><path class="cls-1" d="M219,397.8c.05.05.2.05.4.05s-.15-.05-.25-.05S219,397.7,219,397.8Z" transform="translate(-121.06 -379.23)"/><path class="cls-1" d="M218.82,397.8c-.1,0-.2,0-.2.05S218.82,397.85,218.82,397.8Z" transform="translate(-121.06 -379.23)"/><path class="cls-1" d="M242.83,398.1a.26.26,0,0,0-.05-.3c-.1,0-.2,0-.2.05S242.48,398.15,242.83,398.1Z" transform="translate(-121.06 -379.23)"/><path class="cls-1" d="M126.74,397.85c0-.05-.1,0,0,0S126.79,397.85,126.74,397.85Z" transform="translate(-121.06 -379.23)"/><path class="cls-1" d="M243.39,397.85c0-.05-.1,0,0,0S243.44,397.85,243.39,397.85Z" transform="translate(-121.06 -379.23)"/><path class="cls-1" d="M233.6,398a.27.27,0,0,0-.39,0H233l-.05-.05c-.1,0-.1.05-.15.05h-.2c-.05,0,0-.05-.05-.05h0a.1.1,0,0,0-.14.05c-.1,0-.15-.1-.3-.05a.26.26,0,0,0-.2.1c.44.05,1.2,0,1.8.1A.23.23,0,0,0,233.6,398Z" transform="translate(-121.06 -379.23)"/><path class="cls-1" d="M233.81,398a.31.31,0,0,1,.25.05C234.16,397.85,233.81,397.85,233.81,398Z" transform="translate(-121.06 -379.23)"/><path class="cls-1" d="M244.69,398.1c.25,0,0-.2,0,0Z" transform="translate(-121.06 -379.23)"/><path class="cls-1" d="M245.94,398h-.25v.1C245.79,398.1,246,398.2,245.94,398Z" transform="translate(-121.06 -379.23)"/><path class="cls-1" d="M245.59,398.2c-.05,0-.05.05,0,.05S245.64,398.1,245.59,398.2Z" transform="translate(-121.06 -379.23)"/><path class="cls-1" d="M239.88,398.2c0-.05-.1,0,0,.05S239.93,398.25,239.88,398.2Z" transform="translate(-121.06 -379.23)"/><path class="cls-1" d="M240.08,398.3c.1,0,.25.05.2-.1h-.15C240.13,398.25,240.08,398.25,240.08,398.3Z" transform="translate(-121.06 -379.23)"/><path class="cls-1" d="M256.67,398.9c-.05-.1-.35,0-.45,0S256.52,398.85,256.67,398.9Z" transform="translate(-121.06 -379.23)"/><path class="cls-1" d="M256.72,398.9c.1,0,0,0,0,0Z" transform="translate(-121.06 -379.23)"/><path class="cls-1" d="M256.72,398.9h-.05C256.67,399,256.72,399,256.72,398.9Z" transform="translate(-121.06 -379.23)"/><path class="cls-1" d="M257.22,398.9H257s-.15,0-.15.05h.2C257.12,399,257.22,399,257.22,398.9Z" transform="translate(-121.06 -379.23)"/><path class="cls-1" d="M257.27,398.9s-.1,0,0,.05S257.32,399,257.27,398.9Z" transform="translate(-121.06 -379.23)"/><path class="cls-1" d="M259.18,399.7c-.1,0-.2,0-.2.05A.29.29,0,0,0,259.18,399.7Z" transform="translate(-121.06 -379.23)"/><path class="cls-1" d="M258.07,399.13c.1.1.2-.05.3.05,0-.25-.4-.1-.5-.2s-.4-.1-.4,0a.17.17,0,0,1,.15.05C257.82,399,257.87,399.18,258.07,399.13Z" transform="translate(-121.06 -379.23)"/><path class="cls-1" d="M121.08,399.36s.1-.05,0-.05S121,399.31,121.08,399.36Z" transform="translate(-121.06 -379.23)"/><path class="cls-1" d="M259.08,399.4c.1,0,.2,0,.2,0h-.2C258.88,399.3,258.88,399.45,259.08,399.4Z" transform="translate(-121.06 -379.23)"/><path class="cls-1" d="M257.37,399.85c-.05,0-.15,0-.15,0S257.37,399.9,257.37,399.85Z" transform="translate(-121.06 -379.23)"/><path class="cls-1" d="M260.93,400.55c0-.05-.1,0-.05.05S261,400.55,260.93,400.55Z" transform="translate(-121.06 -379.23)"/><path class="cls-1" d="M262,400.76c.05-.05.1,0,.15-.05S262,400.71,262,400.76Z" transform="translate(-121.06 -379.23)"/><path class="cls-1" d="M128.55,401.26c0-.05.15,0,.15-.05S128.55,401.21,128.55,401.26Z" transform="translate(-121.06 -379.23)"/><path class="cls-1" d="M129,401.5c0-.05-.1,0-.05.05S129.05,401.5,129,401.5Z" transform="translate(-121.06 -379.23)"/><path class="cls-1" d="M127.19,401.58c0-.05-.1,0,0,.05S127.24,401.63,127.19,401.58Z" transform="translate(-121.06 -379.23)"/><path class="cls-1" d="M128,401.63a.21.21,0,0,0,.15-.05C128.1,401.58,128,401.58,128,401.63Z" transform="translate(-121.06 -379.23)"/><path class="cls-1" d="M257.32,401.62c0-.05-.15-.1-.15,0S257.27,401.73,257.32,401.62Z" transform="translate(-121.06 -379.23)"/><path class="cls-1" d="M258,401.75c0,.05.1.05.15,0C258.07,401.75,258.07,401.65,258,401.75Z" transform="translate(-121.06 -379.23)"/><path class="cls-1" d="M258.52,401.78s-.15,0-.15.05S258.52,401.83,258.52,401.78Z" transform="translate(-121.06 -379.23)"/><path class="cls-1" d="M257.72,402s.45.1.45,0S257.82,401.89,257.72,402Z" transform="translate(-121.06 -379.23)"/><path class="cls-1" d="M258.63,402.08c.05,0,.1-.05.05-.05S258.58,402,258.63,402.08Z" transform="translate(-121.06 -379.23)"/><path class="cls-1" d="M257.57,402.58s.1-.05.05-.05S257.52,402.53,257.57,402.58Z" transform="translate(-121.06 -379.23)"/><path class="cls-1" d="M258.63,402.81c0-.05-.1,0-.05.05S258.68,402.86,258.63,402.81Z" transform="translate(-121.06 -379.23)"/><path class="cls-1" d="M262.89,402.85h-.15C262.39,402.85,262.89,403,262.89,402.85Z" transform="translate(-121.06 -379.23)"/><path class="cls-1" d="M260.28,403.07c.05,0,.15,0,.15-.05S260.28,403,260.28,403.07Z" transform="translate(-121.06 -379.23)"/><path class="cls-1" d="M260.58,403.07a.17.17,0,0,0,.15-.05C260.68,403,260.58,403,260.58,403.07Z" transform="translate(-121.06 -379.23)"/><path class="cls-1" d="M260.43,403.19c0-.05-.3-.15-.3,0S260.43,403.34,260.43,403.19Z" transform="translate(-121.06 -379.23)"/><path class="cls-1" d="M262.38,403.52s-.1,0-.05.05S262.43,403.52,262.38,403.52Z" transform="translate(-121.06 -379.23)"/><path class="cls-1" d="M260.89,403.72c.1,0,.1,0,.2,0a.91.91,0,0,1,.7.1c-.05-.2.35.06.25-.2a3.31,3.31,0,0,0-.55.05c-.1-.05-.3-.05-.45-.1s-.35-.1-.3.1l0,0A.09.09,0,0,0,260.89,403.72Z" transform="translate(-121.06 -379.23)"/><path class="cls-1" d="M261.08,403.85c.2-.05.2.1.4,0C261.53,403.7,261.08,403.75,261.08,403.85Z" transform="translate(-121.06 -379.23)"/><path class="cls-1" d="M262.89,403.8c-.05,0-.15,0-.15.05S262.89,403.85,262.89,403.8Z" transform="translate(-121.06 -379.23)"/><path class="cls-1" d="M261.63,403.84s-.1,0-.05.05S261.68,403.89,261.63,403.84Z" transform="translate(-121.06 -379.23)"/><path class="cls-1" d="M128.85,403.93c0-.05-.15-.05-.15,0S128.8,404,128.85,403.93Z" transform="translate(-121.06 -379.23)"/><path class="cls-1" d="M128.35,404c0-.05,0-.05,0,0S128.35,404.06,128.35,404Z" transform="translate(-121.06 -379.23)"/><path class="cls-1" d="M261.08,404c0-.05-.1,0-.05.05Z" transform="translate(-121.06 -379.23)"/><path class="cls-1" d="M128.5,404.31c.05,0,.05,0,.05-.05-.15.05-.15-.05-.2-.1S128.3,404.36,128.5,404.31Z" transform="translate(-121.06 -379.23)"/><path class="cls-1" d="M259.28,404.35h.2c0-.1-.05-.1-.2-.1Z" transform="translate(-121.06 -379.23)"/><path class="cls-1" d="M260,404.29c.05,0-.15.1-.15.1S260.23,404.39,260,404.29Z" transform="translate(-121.06 -379.23)"/><path class="cls-1" d="M127.79,404.59s-.1,0-.05.05S127.84,404.64,127.79,404.59Z" transform="translate(-121.06 -379.23)"/><path class="cls-1" d="M128.2,404.63c-.1,0-.1-.05-.2-.05C127.89,404.73,128.2,404.78,128.2,404.63Z" transform="translate(-121.06 -379.23)"/><path class="cls-1" d="M128.55,404.58c-.1,0-.25-.05-.25.05S128.55,404.73,128.55,404.58Z" transform="translate(-121.06 -379.23)"/><path class="cls-1" d="M129.05,404.58h-.15C128.55,404.58,129,404.73,129.05,404.58Z" transform="translate(-121.06 -379.23)"/><path class="cls-1" d="M126.39,404.63c0-.05-.1,0,0,.05S126.39,404.68,126.39,404.63Z" transform="translate(-121.06 -379.23)"/><path class="cls-1" d="M259.78,404.76c.05,0,.1-.05.05-.05S259.73,404.71,259.78,404.76Z" transform="translate(-121.06 -379.23)"/><path class="cls-1" d="M129.25,404.75c0-.05-.1,0-.05.05S129.3,404.75,129.25,404.75Z" transform="translate(-121.06 -379.23)"/><path class="cls-1" d="M259.18,404.88c-.1,0-.1-.1-.15,0S259.13,405,259.18,404.88Z" transform="translate(-121.06 -379.23)"/><path class="cls-1" d="M128.9,405c-.3-.05-.55-.05-.55.15s.15,0,.3-.05S128.9,405.09,128.9,405Z" transform="translate(-121.06 -379.23)"/><path class="cls-1" d="M261.83,405c-.1,0-.2,0-.2,0S261.83,405.09,261.83,405Z" transform="translate(-121.06 -379.23)"/><path class="cls-1" d="M129,405.12c0-.05-.05-.05-.05,0S129,405.22,129,405.12Z" transform="translate(-121.06 -379.23)"/><path class="cls-1" d="M259.68,405.27c0-.1-.05-.15-.15-.2C259.53,405.17,259.58,405.22,259.68,405.27Z" transform="translate(-121.06 -379.23)"/><path class="cls-1" d="M259.93,405.12c-.05,0-.15,0-.15.05S259.93,405.17,259.93,405.12Z" transform="translate(-121.06 -379.23)"/><path class="cls-1" d="M128.55,405.3s.1-.05,0-.05S128.5,405.25,128.55,405.3Z" transform="translate(-121.06 -379.23)"/><path class="cls-1" d="M257.87,405.66c.25.1,0-.15,0,0Z" transform="translate(-121.06 -379.23)"/><path class="cls-1" d="M258.43,405.75c.05-.05.15,0,.15-.05S258.43,405.7,258.43,405.75Z" transform="translate(-121.06 -379.23)"/><path class="cls-1" d="M128.45,405.82c-.1,0-.2,0-.2.05A.29.29,0,0,0,128.45,405.82Z" transform="translate(-121.06 -379.23)"/><path class="cls-1" d="M260.73,406s.1-.05,0-.05S260.68,406,260.73,406Z" transform="translate(-121.06 -379.23)"/><path class="cls-1" d="M127,406.21c-.2,0,.1-.1.05-.2s-.25.05-.4.1-.45-.05-.3.05C126.64,406.06,126.79,406.41,127,406.21Z" transform="translate(-121.06 -379.23)"/><path class="cls-1" d="M126.14,406.24c0-.05.1,0,.15-.05S126.14,406.19,126.14,406.24Z" transform="translate(-121.06 -379.23)"/><path class="cls-1" d="M127.19,406.19c0-.05-.1,0,0,.05S127.24,406.19,127.19,406.19Z" transform="translate(-121.06 -379.23)"/><path class="cls-1" d="M126,406.28c-.3-.2-.15.2,0,0Z" transform="translate(-121.06 -379.23)"/><path class="cls-1" d="M126.54,406.6c-.3-.1-.55,0-1-.05,0,.1.1.1.1.15C126,406.55,126.39,406.85,126.54,406.6Z" transform="translate(-121.06 -379.23)"/><path class="cls-1" d="M126.74,406.6l0,0C126.74,406.7,126.79,406.65,126.74,406.6Z" transform="translate(-121.06 -379.23)"/><path class="cls-1" d="M260.28,406.74c.05,0,.1-.05.05-.05S260.23,406.69,260.28,406.74Z" transform="translate(-121.06 -379.23)"/><path class="cls-1" d="M259.88,407.36a.05.05,0,0,0,.05-.05c0-.05-.1,0-.05.05Z" transform="translate(-121.06 -379.23)"/><path class="cls-1" d="M258.53,407.8c.05.1.05,0,0,0Z" transform="translate(-121.06 -379.23)"/><path class="cls-1" d="M260.73,408.17c0-.05-.1,0-.05.05S260.78,408.17,260.73,408.17Z" transform="translate(-121.06 -379.23)"/><path class="cls-1" d="M127.54,408.47s.1-.05,0-.05S127.49,408.42,127.54,408.47Z" transform="translate(-121.06 -379.23)"/><path class="cls-1" d="M127.44,408.46h-.2c-.1,0-.2,0-.2.05h.2C127.34,408.51,127.44,408.51,127.44,408.46Z" transform="translate(-121.06 -379.23)"/><path class="cls-1" d="M260.43,408.49c-.05.4.5-.1,0,0Z" transform="translate(-121.06 -379.23)"/><path class="cls-1" d="M127.09,409s-.15,0-.15.05S127.09,409,127.09,409Z" transform="translate(-121.06 -379.23)"/><path class="cls-1" d="M124.59,409.16s.1.1.15,0S124.59,409.06,124.59,409.16Z" transform="translate(-121.06 -379.23)"/><path class="cls-1" d="M126.89,409.11h-.15C126.39,409.11,126.89,409.31,126.89,409.11Z" transform="translate(-121.06 -379.23)"/><path class="cls-1" d="M261.33,409.37c0,.05.1,0,.05-.05S261.28,409.32,261.33,409.37Z" transform="translate(-121.06 -379.23)"/><path class="cls-1" d="M260.88,409.52a2.13,2.13,0,0,0,.55.1c.2-.1.4.2.55,0a.87.87,0,0,0-.65-.1C261.28,409.47,260.93,409.37,260.88,409.52Z" transform="translate(-121.06 -379.23)"/><path class="cls-1" d="M261.84,409.94c.15.05.15-.05.15-.1a5,5,0,0,0-.86,0c-.05,0-.1-.05-.2-.05-.35.05-.75-.15-.85.05a1.44,1.44,0,0,0,.5.1c-.15.15,0,.1.05.2.3.05.4-.1.7,0h0c.05.09.05,0,0,0s0-.1.11-.19c.3,0,0,.25.25.2S261.74,409.94,261.84,409.94Z" transform="translate(-121.06 -379.23)"/><path class="cls-1" d="M262.18,409.86c-.1,0-.2,0-.2.05S262.13,410,262.18,409.86Z" transform="translate(-121.06 -379.23)"/><path class="cls-1" d="M259.23,410h-.15C258.73,409.93,259.23,410.13,259.23,410Z" transform="translate(-121.06 -379.23)"/><path class="cls-1" d="M262.84,410s-.15,0-.15.05A.27.27,0,0,0,262.84,410Z" transform="translate(-121.06 -379.23)"/><path class="cls-1" d="M262.23,411.06a.17.17,0,0,0,.15-.05C262.33,411,262.23,411,262.23,411.06Z" transform="translate(-121.06 -379.23)"/><path class="cls-1" d="M128.35,411.35c.05,0,.1,0,.05-.05S128.3,411.3,128.35,411.35Z" transform="translate(-121.06 -379.23)"/><path class="cls-1" d="M128.2,411.34s-.15,0-.15.05A.17.17,0,0,0,128.2,411.34Z" transform="translate(-121.06 -379.23)"/><path class="cls-1" d="M261.63,410.86c-.3-.1-.05.15,0,0Z" transform="translate(-121.06 -379.23)"/><path class="cls-1" d="M259.48,412.66c0-.05.1.06.15,0S259.48,412.56,259.48,412.66Z" transform="translate(-121.06 -379.23)"/><path class="cls-1" d="M260.38,413s.1,0,.05,0S260.33,413,260.38,413Z" transform="translate(-121.06 -379.23)"/><path class="cls-1" d="M130.75,413.87c-.2-.1-.25,0-.35-.05s-.15.05-.2.1-.2,0-.2.1c.15.15.35,0,.5-.1S130.75,414,130.75,413.87Z" transform="translate(-121.06 -379.23)"/><path class="cls-1" d="M257.92,414h.25c.1,0,.2,0,.2,0h-.25C258,414,257.92,414,257.92,414Z" transform="translate(-121.06 -379.23)"/><path class="cls-1" d="M220.63,414.12h0a0,0,0,0,0,0,.05h0a0,0,0,0,1,0,.05c-.1,0-.15-.05-.25-.05s-.1.05-.2.05-.15,0-.15,0h.6c.1.1.3.05.5.05C221.18,414.07,220.78,414.22,220.63,414.12Z" transform="translate(-121.06 -379.23)"/><path class="cls-1" d="M227.55,414.17c0-.05,0-.1,0-.05Z" transform="translate(-121.06 -379.23)"/><path class="cls-1" d="M221.88,414.22c0-.1-.3-.1-.3,0H222C222.28,414.27,222,414.17,221.88,414.22Z" transform="translate(-121.06 -379.23)"/><path class="cls-1" d="M222.78,414.27c.15,0,.4.1.4,0S222.88,414.12,222.78,414.27Z" transform="translate(-121.06 -379.23)"/><path class="cls-1" d="M223.29,414.27c.2,0,.6.1.75,0-.25-.05-.25,0-.5-.05C223.59,414.32,223.24,414.12,223.29,414.27Z" transform="translate(-121.06 -379.23)"/><path class="cls-1" d="M224.79,414.17c0,.05-.1.05-.15.1.1,0,.1.05.2,0S224.84,414.17,224.79,414.17Z" transform="translate(-121.06 -379.23)"/><path class="cls-1" d="M225.89,414.37c0-.1,0-.15.05-.2-.15,0-.3,0-.35.15S225.74,414.37,225.89,414.37Z" transform="translate(-121.06 -379.23)"/><path class="cls-1" d="M227.3,414.17c-.05,0-.15,0-.15.05S227.3,414.22,227.3,414.17Z" transform="translate(-121.06 -379.23)"/><path class="cls-1" d="M227.55,414.17c-.25-.1,0,.15,0,0Z" transform="translate(-121.06 -379.23)"/><path class="cls-1" d="M228.9,414.32c.1,0,.1.15.3.1,0-.2.35.05.25-.2C229.15,414.27,229,414.07,228.9,414.32Z" transform="translate(-121.06 -379.23)"/><path class="cls-1" d="M238.68,414.22c-.11,0-.11-.1-.26-.05S238.63,414.32,238.68,414.22Z" transform="translate(-121.06 -379.23)"/><path class="cls-1" d="M240.68,414.22s.1-.05,0-.05S240.63,414.17,240.68,414.22Z" transform="translate(-121.06 -379.23)"/><path class="cls-1" d="M241.88,414.22s.05,0,.15,0S241.88,414.12,241.88,414.22Z" transform="translate(-121.06 -379.23)"/><path class="cls-1" d="M242.18,414.22s.1,0,.15,0C242.23,414.22,242.23,414.12,242.18,414.22Z" transform="translate(-121.06 -379.23)"/><path class="cls-1" d="M222.68,414.27c-.1-.2-.35.05,0,0Z" transform="translate(-121.06 -379.23)"/><path class="cls-1" d="M224.34,414.22c-.1,0-.2,0-.2,0S224.34,414.27,224.34,414.22Z" transform="translate(-121.06 -379.23)"/><path class="cls-1" d="M225.19,414.27c.4.15.15-.2,0,0Z" transform="translate(-121.06 -379.23)"/><path class="cls-1" d="M228.7,414.22s-.15,0-.15,0S228.7,414.27,228.7,414.22Z" transform="translate(-121.06 -379.23)"/><path class="cls-1" d="M230.1,414.27c0,.05.05.05.05,0S230.1,414.22,230.1,414.27Z" transform="translate(-121.06 -379.23)"/><path class="cls-1" d="M231.1,414.37c.11,0,.26.05.26-.05-.15-.05,0,0,0-.1-.15,0-.25,0-.31-.05Z" transform="translate(-121.06 -379.23)"/><path class="cls-1" d="M233.11,414.27s.1,0,0,0S233.06,414.22,233.11,414.27Z" transform="translate(-121.06 -379.23)"/><path class="cls-1" d="M237.67,414.22c0,.25.1.1.25.15s.1,0,.2,0,.1.05,0,.05c.1-.05.15-.1.15-.2C238,414.22,237.92,414.32,237.67,414.22Z" transform="translate(-121.06 -379.23)"/><path class="cls-1" d="M239.78,414.22c-.05,0-.15,0-.15,0S239.78,414.27,239.78,414.22Z" transform="translate(-121.06 -379.23)"/><path class="cls-1" d="M239.88,414.27c.05,0,.1,0,.05,0S239.83,414.22,239.88,414.27Z" transform="translate(-121.06 -379.23)"/><path class="cls-1" d="M241.33,414.22c-.05,0-.15,0-.15,0A.17.17,0,0,0,241.33,414.22Z" transform="translate(-121.06 -379.23)"/><path class="cls-1" d="M241.53,414.42c0-.15.1-.15.15-.2h-.2A.35.35,0,0,0,241.53,414.42Z" transform="translate(-121.06 -379.23)"/><path class="cls-1" d="M242.79,414.27s.1,0,.05,0S242.74,414.22,242.79,414.27Z" transform="translate(-121.06 -379.23)"/><path class="cls-1" d="M243.39,414.22s-.15,0-.15,0A.17.17,0,0,0,243.39,414.22Z" transform="translate(-121.06 -379.23)"/><path class="cls-1" d="M243.69,414.22c-.05,0-.15,0-.15,0S243.69,414.27,243.69,414.22Z" transform="translate(-121.06 -379.23)"/><path class="cls-1" d="M248.5,414.27c-.1,0-.25,0-.15.05s.3.1.3-.05S248.55,414.17,248.5,414.27Z" transform="translate(-121.06 -379.23)"/><path class="cls-1" d="M222.68,414.27c0,.1,0,0,0,0Z" transform="translate(-121.06 -379.23)"/><path class="cls-1" d="M233.51,414.32c.05,0,.2.25.3.05C233.66,414.42,233.61,414.12,233.51,414.32Z" transform="translate(-121.06 -379.23)"/><path class="cls-1" d="M240.53,414.32c-.05-.1-.1,0,0,0Z" transform="translate(-121.06 -379.23)"/><path class="cls-1" d="M244.84,414.27c-.05,0-.15,0-.15.05S244.84,414.32,244.84,414.27Z" transform="translate(-121.06 -379.23)"/><path class="cls-1" d="M245.29,414.27h-.15C244.79,414.27,245.29,414.42,245.29,414.27Z" transform="translate(-121.06 -379.23)"/><path class="cls-1" d="M245.59,414.27c-.05,0-.15,0-.15.05S245.59,414.32,245.59,414.27Z" transform="translate(-121.06 -379.23)"/><path class="cls-1" d="M246.49,414.32s.1,0,0-.05S246.44,414.27,246.49,414.32Z" transform="translate(-121.06 -379.23)"/><path class="cls-1" d="M247.15,414.32h.2c.05,0,.15,0,.15-.05h-.2C247.25,414.27,247.15,414.27,247.15,414.32Z" transform="translate(-121.06 -379.23)"/><path class="cls-1" d="M249,414.27s-.15,0-.15.05A.17.17,0,0,0,249,414.27Z" transform="translate(-121.06 -379.23)"/><path class="cls-1" d="M232.16,414.37c0,.05.1,0,.05-.05S232.11,414.32,232.16,414.37Z" transform="translate(-121.06 -379.23)"/><path class="cls-1" d="M234.51,414.42c.1.05.1-.05.2-.05v-.05C234.56,414.27,234.51,414.32,234.51,414.42Z" transform="translate(-121.06 -379.23)"/><path class="cls-1" d="M240.53,414.32c.05.1.1,0,0,0Z" transform="translate(-121.06 -379.23)"/><path class="cls-1" d="M233.46,414.37c-.05,0-.15,0-.15.05A.17.17,0,0,0,233.46,414.37Z" transform="translate(-121.06 -379.23)"/><path class="cls-1" d="M234.11,414.37c0,.1.1,0,0,0Z" transform="translate(-121.06 -379.23)"/><path class="cls-1" d="M234.31,414.42c.05.05.1,0,.05-.05S234.26,414.37,234.31,414.42Z" transform="translate(-121.06 -379.23)"/><path class="cls-1" d="M238.57,414.37s-.15,0-.15.05A.17.17,0,0,0,238.57,414.37Z" transform="translate(-121.06 -379.23)"/><path class="cls-1" d="M238.88,414.37s-.15,0-.15.05S238.88,414.42,238.88,414.37Z" transform="translate(-121.06 -379.23)"/><path class="cls-1" d="M238.93,414.42h.2c.1,0,.2,0,.2-.05h-.2C239,414.37,238.93,414.37,238.93,414.42Z" transform="translate(-121.06 -379.23)"/><path class="cls-1" d="M258.22,414.47c-.05,0-.15,0-.15,0S258.17,414.52,258.22,414.47Z" transform="translate(-121.06 -379.23)"/><path class="cls-1" d="M136.72,414.87a.88.88,0,0,0,.55.1c-.15-.15-.3-.2-.4-.35C136.87,414.77,136.72,414.77,136.72,414.87Z" transform="translate(-121.06 -379.23)"/><path class="cls-1" d="M137.27,415s0,0,.15,0S137.32,415,137.27,415Z" transform="translate(-121.06 -379.23)"/><path class="cls-1" d="M145,415c0,.05.35.15.4,0C145.19,415.12,145,414.87,145,415Z" transform="translate(-121.06 -379.23)"/><path class="cls-1" d="M129.5,415.07c.05.2.25.2.4.25,0-.05,0-.1,0-.1l.07,0a.29.29,0,0,0,.38-.15C130.05,415.17,129.75,415,129.5,415.07Z" transform="translate(-121.06 -379.23)"/><path class="cls-1" d="M130.6,415.17v-.05h.25c.1,0,.05-.05,0-.05S130.4,415.12,130.6,415.17Z" transform="translate(-121.06 -379.23)"/><path class="cls-1" d="M131.15,415.07c-.05,0-.15,0-.15.05S131.1,415.12,131.15,415.07Z" transform="translate(-121.06 -379.23)"/><path class="cls-1" d="M137.37,415c0,.1.1,0,0,0Z" transform="translate(-121.06 -379.23)"/><path class="cls-1" d="M133.56,415.27a3.7,3.7,0,0,1-1.1-.1c-.15.05-.4-.1-.45.05a7.74,7.74,0,0,0,1.6.1C133.61,415.27,133.61,415.27,133.56,415.27Z" transform="translate(-121.06 -379.23)"/><path class="cls-1" d="M133.61,415.32c.15.2.4-.05,0,0Z" transform="translate(-121.06 -379.23)"/><path class="cls-1" d="M134.21,415.37c-.05,0-.15,0-.15.05S134.16,415.42,134.21,415.37Z" transform="translate(-121.06 -379.23)"/><path class="cls-1" d="M134.31,415.42s.1-.05.05-.05S134.26,415.37,134.31,415.42Z" transform="translate(-121.06 -379.23)"/><path class="cls-1" d="M134.76,415.47s.1-.05.05-.05S134.71,415.42,134.76,415.47Z" transform="translate(-121.06 -379.23)"/><path class="cls-1" d="M135.16,415.42c.05.1.3,0,.45.05C135.56,415.32,135.26,415.42,135.16,415.42Z" transform="translate(-121.06 -379.23)"/><path class="cls-1" d="M135.61,415.47c0,.1,0,0,0,0Z" transform="translate(-121.06 -379.23)"/><path class="cls-1" d="M257.07,415.62c.2-.1.35.1.5-.05C257.37,415.52,257.12,415.47,257.07,415.62Z" transform="translate(-121.06 -379.23)"/><path class="cls-1" d="M139.93,415.72s.1-.05,0-.05S139.88,415.67,139.93,415.72Z" transform="translate(-121.06 -379.23)"/><g id="MARSH" class="cls-2"><g class="cls-2"><path d="M138,380.74v25.39h-1.3V379.37h2.14l5.28,14,5.34-14h2.14v26.76h-1.33V380.71L145,394.91h-1.65Z" transform="translate(-121.06 -379.23)"/><path d="M175.57,406.13h-1.52l-1.93-8.83H165l-1.93,8.83h-1.52l5.91-26.76h2.21ZM165.3,395.86h6.47l-3.2-14.8Z" transform="translate(-121.06 -379.23)"/><path d="M185.32,406.13V379.37a18.5,18.5,0,0,1,4,.14,9.66,9.66,0,0,1,3.41,1.13,6.64,6.64,0,0,1,2.41,2.3,6.73,6.73,0,0,1,.91,3.64,7.78,7.78,0,0,1-.33,2.16,7.27,7.27,0,0,1-1.11,2.23,8.17,8.17,0,0,1-2.06,2,11.08,11.08,0,0,1-3.11,1.46l6.93,11.71h-2l-6.44-11.33-1,.15v11.18Zm9.21-19.55a5.51,5.51,0,0,0-.48-2.27,5,5,0,0,0-1.42-1.86,6.85,6.85,0,0,0-2.39-1.25,10,10,0,0,0-3.38-.39v12.48a9.94,9.94,0,0,0,3.27-.7,7.66,7.66,0,0,0,2.41-1.53A6.66,6.66,0,0,0,194,389,5.87,5.87,0,0,0,194.53,386.58Z" transform="translate(-121.06 -379.23)"/><path d="M216.48,385.28a6.62,6.62,0,0,0-.41-1.51,6.38,6.38,0,0,0-.76-1.38,4.48,4.48,0,0,0-1.1-1.07,3.89,3.89,0,0,0-1.5-.58,4.22,4.22,0,0,0-2,.11,3.5,3.5,0,0,0-1.51.93,4.21,4.21,0,0,0-.93,1.56,5.25,5.25,0,0,0-.25,2,4.81,4.81,0,0,0,.78,2.28,7.81,7.81,0,0,0,1.82,2.16c.73.6,1.49,1.18,2.27,1.75s1.56,1.16,2.32,1.79a9.2,9.2,0,0,1,2,2.32,9.67,9.67,0,0,1,1.07,2.39,7.72,7.72,0,0,1,.3,2.64,6,6,0,0,1-1.56,4.13,5.28,5.28,0,0,1-3.89,1.46,6,6,0,0,1-4.57-1.81c-1.15-1.21-1.73-3.06-1.76-5.54h1.55a7.76,7.76,0,0,0,1.21,4.32,4,4,0,0,0,3.54,1.62,4.12,4.12,0,0,0,1.86-.4,3.84,3.84,0,0,0,1.25-1,4.14,4.14,0,0,0,.68-1.36,5.12,5.12,0,0,0,.21-1.4,7.75,7.75,0,0,0-1.3-4.36,8.19,8.19,0,0,0-1.84-2c-.72-.57-1.44-1.11-2.18-1.64s-1.47-1.07-2.18-1.63a8.07,8.07,0,0,1-1.85-2.08,6.9,6.9,0,0,1-1.19-3.79,7.54,7.54,0,0,1,.4-2.48,5.18,5.18,0,0,1,1.2-2,4.66,4.66,0,0,1,1.91-1.19,5.52,5.52,0,0,1,2.6-.18,5.93,5.93,0,0,1,2,.7,5.6,5.6,0,0,1,1.56,1.34,7.27,7.27,0,0,1,1.07,1.81,8,8,0,0,1,.57,2.13Z" transform="translate(-121.06 -379.23)"/><path d="M241.17,406.13h-1.52V393.71H230.2v12.42h-1.48V379.37h1.48V392.2h9.45V379.37h1.52Z" transform="translate(-121.06 -379.23)"/></g></g></svg>