<?xml version="1.0" encoding="utf-8"?>
<!-- Generator: Adobe Illustrator 23.0.0, SVG Export Plug-In . SVG Version: 6.00 Build 0)  -->
<svg version="1.1" id="Calque_1" xmlns="http://www.w3.org/2000/svg" xmlns:xlink="http://www.w3.org/1999/xlink" x="0px" y="0px"
	 viewBox="0 0 258.6 316" style="enable-background:new 0 0 258.6 316;" xml:space="preserve">
<style type="text/css">
	.st0{fill:url(#_Tracé__1_);}
	.st1{fill:#676767;}
	.st2{fill:#343434;}
	.st3{fill:#434342;}
	.st4{fill:#B21917;}
	.st5{fill:#E52521;}
	.st6{fill:url(#_Tracé_15_1_);}
	.st7{fill:#D51116;}
	.st8{opacity:0.31;}
	.st9{enable-background:new    ;}
	.st10{fill:#3A3838;}
</style>
<title>logo_redbox01</title>
<g id="_Groupe_">
	<g id="_Groupe_2">
		<g id="_Groupe_3">
			<g id="_Groupe_4">
				
					<linearGradient id="_Tracé__1_" gradientUnits="userSpaceOnUse" x1="123.33" y1="99.82" x2="123.33" y2="251.7" gradientTransform="matrix(1 0 0 -1 0 318)">
					<stop  offset="0" style="stop-color:#1B1B1B"/>
					<stop  offset="1" style="stop-color:#343434"/>
				</linearGradient>
				<polygon id="_Tracé_" class="st0" points="199.2,117.6 152,117.6 148.1,117.6 148.1,66.6 148.1,66.5 98.6,66.5 98.6,117.6 
					47.5,117.6 47.5,167.5 48.5,167.5 98.6,167.5 98.6,169.5 98.6,218.2 98.7,218.2 148.1,218.2 148.1,167.5 199.2,167.5 
					199.2,117.6 				"/>
			</g>
			<g id="_Groupe_5">
				<polygon id="_Tracé_2" class="st1" points="48.5,167.5 51.1,169.5 98.6,169.5 98.6,167.5 				"/>
				<polygon id="_Tracé_3" class="st1" points="151.7,117.6 151.7,68.8 148.2,66.4 148.1,66.6 148.1,117.6 				"/>
				<polygon id="_Tracé_4" class="st1" points="199.3,117.5 199.2,117.6 199.2,117.6 199.2,167.5 148.1,167.5 148.1,218.2 
					98.7,218.2 102.1,220.6 151.7,220.6 151.7,169.5 202.8,169.5 202.8,119.8 				"/>
			</g>
		</g>
		<g id="_Groupe_6">
			<polygon id="_Tracé_5" class="st2" points="110.8,101.1 136.1,101.1 133.8,97.1 113.1,97.1 			"/>
			<polygon id="_Tracé_6" class="st2" points="113.1,181.6 110.8,181.6 123.5,201.1 136.1,181.6 133.8,181.6 123.5,197.5 			"/>
			<polygon id="_Tracé_7" class="st2" points="163.4,151.4 163.4,154.9 183.1,142.3 180.3,140.5 			"/>
			<polygon id="_Tracé_8" class="st2" points="63.7,142.3 83.3,154.9 83.3,151.4 66.5,140.5 			"/>
			<polygon id="_Tracé_9" class="st3" points="113.1,97.1 133.8,97.1 123.5,81.1 			"/>
			<polygon id="_Tracé_10" class="st3" points="123.5,197.5 133.8,181.6 113.1,181.6 			"/>
			<polygon id="_Tracé_11" class="st3" points="163.4,129.6 163.4,151.4 180.2,140.5 			"/>
			<polygon id="_Tracé_12" class="st3" points="83.3,151.4 83.3,129.6 66.5,140.5 			"/>
		</g>
		<polygon id="_Tracé_13" class="st4" points="229.8,80.6 246.7,71.1 246.7,213.4 229.8,203.9 		"/>
		<polygon id="_Tracé_14" class="st5" points="123.5,284.6 123.5,265.6 230.2,203.9 246.8,213.4 		"/>
		
			<linearGradient id="_Tracé_15_1_" gradientUnits="userSpaceOnUse" x1="0.2" y1="73.73" x2="123.53" y2="73.73" gradientTransform="matrix(1 0 0 -1 0 318)">
			<stop  offset="0" style="stop-color:#E52529"/>
			<stop  offset="1" style="stop-color:#BB181C"/>
		</linearGradient>
		<polygon id="_Tracé_15" class="st6" points="16.8,203.9 123.5,265.6 123.5,284.6 0.2,213.5 		"/>
		<polygon id="_Tracé_16" class="st5" points="0.2,71.2 16.8,80.7 123.5,19 123.5,0 		"/>
		<polygon id="_Tracé_17" class="st7" points="246.8,71.1 123.5,0 123.5,19 230.2,80.6 		"/>
		<polygon id="_Tracé_18" class="st4" points="0,213.4 0,71.2 16.9,80.7 16.9,203.9 		"/>
	</g>
</g>
<g class="st8">
	<g class="st9">
		<path class="st10" d="M156.5,282.6c0.9,1.5,1.2,3,1,4.4c-0.2,1.5-0.8,2.8-2,3.9c0.9-0.3,1.8-0.5,2.5-0.4c0.7,0.1,1.4,0.3,2,0.6
			c0.6,0.4,1.2,0.9,1.7,1.5c0.5,0.6,1,1.4,1.5,2.2l2.9,5l-2.1,1.2l-2.8-4.7c-0.6-1-1.2-1.8-1.7-2.4c-0.6-0.6-1.2-1-1.9-1.3
			s-1.4-0.3-2.2-0.1c-0.8,0.2-1.7,0.5-2.7,1.1l-3.9,2.3l6,10.4l-2.2,1.3l-13.6-23.3l6.7-3.9c1-0.6,2-1,2.9-1.3
			c1-0.3,1.9-0.3,2.8-0.2c0.9,0.1,1.7,0.5,2.5,1.1C155.1,280.7,155.9,281.5,156.5,282.6z M154.4,284c-0.8-1.4-1.9-2.3-3.2-2.6
			c-1.3-0.3-2.9,0.1-4.8,1.2l-4,2.3l5.4,9.4l3.8-2.2c0.7-0.4,1.3-0.9,1.9-1.4s1-1.2,1.3-1.9c0.3-0.7,0.4-1.4,0.3-2.2
			C155.2,285.8,155,284.9,154.4,284z"/>
	</g>
	<g class="st9">
		<path class="st10" d="M169.3,298.1l-13.6-23.3l13.1-7.7l1.1,2l-11,6.4l5.1,8.8l10.1-5.9l1.1,1.9l-10.1,5.9l5.1,8.8l11.2-6.5l1.1,2
			L169.3,298.1z"/>
	</g>
	<g class="st9">
		<path class="st10" d="M191.2,269.7c1,1.8,1.7,3.5,2.1,5.2c0.4,1.7,0.4,3.3,0.1,4.9c-0.3,1.5-0.9,3-1.9,4.3c-1,1.3-2.3,2.5-4,3.5
			l-3.6,2.1l-13.6-23.3l4.7-2.8c1.7-1,3.3-1.5,4.8-1.6c1.5-0.1,3,0.2,4.4,0.8c1.4,0.6,2.7,1.5,3.9,2.7
			C189.1,266.6,190.2,268,191.2,269.7z M189,270.9c-0.8-1.4-1.7-2.6-2.7-3.6c-1-1-2.1-1.7-3.2-2.2c-1.1-0.5-2.4-0.7-3.7-0.6
			c-1.3,0.1-2.7,0.6-4.1,1.4l-1.9,1.1l11.3,19.4l1.5-0.9c1.4-0.8,2.5-1.8,3.2-2.9c0.8-1.1,1.2-2.3,1.4-3.6c0.2-1.3,0.1-2.6-0.2-4
			S189.8,272.3,189,270.9z"/>
	</g>
	<g class="st9">
		<path class="st5" d="M210.5,265.2c0.7,1.1,1,2.2,1.1,3.3s-0.1,2-0.4,3c-0.4,0.9-0.9,1.8-1.7,2.6c-0.7,0.8-1.6,1.5-2.6,2l-6.2,3.6
			l-13.6-23.3l6.4-3.7c0.9-0.5,1.8-0.9,2.7-1.1c0.9-0.2,1.8-0.3,2.7-0.1c0.9,0.1,1.7,0.5,2.4,1c0.8,0.5,1.4,1.3,2,2.3
			c0.4,0.7,0.7,1.4,0.8,2.1c0.1,0.7,0.1,1.4,0,2.1c-0.1,0.7-0.3,1.3-0.7,1.9c-0.3,0.6-0.8,1.1-1.4,1.6c1.6-0.7,3.2-0.8,4.7-0.3
			C208.4,262.6,209.6,263.6,210.5,265.2z M201.5,256.2c-0.4-0.7-0.9-1.3-1.5-1.7c-0.6-0.4-1.2-0.6-1.8-0.7c-0.6-0.1-1.3-0.1-2,0.1
			c-0.7,0.2-1.4,0.4-2,0.8l-3.8,2.2l5,8.6l3.8-2.2c0.6-0.4,1.2-0.8,1.7-1.3c0.5-0.5,0.8-1.1,1.1-1.7c0.2-0.6,0.3-1.3,0.3-1.9
			C202.1,257.7,201.9,257,201.5,256.2L201.5,256.2z M208.3,266.3c-0.5-0.8-1-1.4-1.6-1.8c-0.6-0.4-1.3-0.7-2-0.8
			c-0.7-0.1-1.4,0-2.2,0.1c-0.7,0.2-1.5,0.5-2.2,0.9l-4,2.3l5.5,9.5l3.8-2.2c0.7-0.4,1.4-0.9,1.9-1.5c0.6-0.6,1-1.2,1.2-1.9
			c0.3-0.7,0.4-1.4,0.3-2.2C209,268,208.8,267.1,208.3,266.3z"/>
	</g>
	<g class="st9">
		<path class="st5" d="M230.7,246.5c1,1.7,1.6,3.4,2,5.1c0.4,1.7,0.5,3.4,0.2,5.1s-0.8,3.2-1.7,4.6c-0.9,1.4-2.2,2.6-3.9,3.6
			c-1.7,1-3.3,1.5-5,1.6s-3.3-0.1-4.8-0.7s-3-1.5-4.3-2.7c-1.3-1.2-2.4-2.6-3.4-4.3c-1-1.6-1.6-3.3-2-5.1c-0.4-1.7-0.5-3.4-0.3-5.1
			c0.2-1.6,0.8-3.2,1.7-4.6c0.9-1.4,2.2-2.6,3.9-3.6c1.7-1,3.3-1.5,5-1.6c1.7-0.1,3.3,0.1,4.8,0.7c1.5,0.6,3,1.5,4.3,2.7
			C228.6,243.5,229.7,244.9,230.7,246.5z M228.5,247.8c-0.8-1.3-1.7-2.5-2.7-3.6s-2.2-1.9-3.5-2.4c-1.2-0.6-2.5-0.8-3.9-0.8
			c-1.4,0-2.8,0.5-4.2,1.3c-1.4,0.8-2.4,1.8-3.1,3c-0.7,1.2-1.1,2.4-1.2,3.8c-0.1,1.4,0,2.8,0.4,4.2c0.4,1.4,1,2.8,1.7,4.2
			c0.8,1.3,1.7,2.5,2.8,3.6s2.2,1.8,3.4,2.4c1.2,0.6,2.5,0.8,3.9,0.8c1.4,0,2.7-0.5,4.1-1.3c1.4-0.8,2.4-1.8,3.1-3s1.1-2.4,1.2-3.8
			s0-2.8-0.4-4.2C229.8,250.5,229.3,249.1,228.5,247.8L228.5,247.8z"/>
	</g>
	<g class="st9">
		<path class="st5" d="M252.2,249.6l-12.6-5.7l-1.2,13.8l-2.5,1.5l1.4-16.4l-14.9-6.9l2.5-1.5l12.6,5.7l1.2-13.8l2.6-1.5l-1.4,16.5
			l15,6.9L252.2,249.6z"/>
	</g>
</g>
<g class="st9">
	<path class="st10" d="M153.6,282.2c0.9,1.5,1.3,3,1.1,4.4c-0.2,1.5-0.8,2.8-1.9,4c0.9-0.4,1.8-0.5,2.5-0.5c0.8,0,1.4,0.2,2.1,0.6
		c0.6,0.4,1.2,0.9,1.7,1.5c0.5,0.6,1,1.4,1.5,2.2l3,5l-2.1,1.3l-2.8-4.7c-0.6-1-1.2-1.8-1.8-2.4c-0.6-0.6-1.2-1-1.9-1.2
		c-0.7-0.2-1.4-0.2-2.2-0.1c-0.8,0.2-1.7,0.6-2.6,1.2l-3.9,2.3l6.2,10.3l-2.1,1.3l-14-23.2l6.7-4c1-0.6,2-1,2.9-1.3
		c1-0.3,1.9-0.4,2.8-0.2c0.9,0.1,1.8,0.5,2.6,1.1C152.2,280.2,152.9,281,153.6,282.2z M151.5,283.6c-0.8-1.4-1.9-2.2-3.2-2.5
		c-1.3-0.3-2.9,0.1-4.8,1.2l-3.9,2.4l5.6,9.3l3.8-2.3c0.7-0.4,1.3-0.9,1.8-1.5s1-1.2,1.2-1.9s0.4-1.4,0.3-2.2
		S152.1,284.5,151.5,283.6z"/>
</g>
<g class="st9">
	<path class="st10" d="M166.6,297.5l-14-23.2l13-7.8l1.2,2L156,275l5.3,8.7l10-6l1.1,1.9l-10,6l5.2,8.7l11.1-6.7l1.2,2L166.6,297.5z
		"/>
</g>
<g class="st9">
	<path class="st10" d="M188.1,268.8c1,1.7,1.8,3.5,2.2,5.2c0.4,1.7,0.5,3.3,0.2,4.9c-0.3,1.5-0.9,3-1.9,4.3c-1,1.3-2.3,2.5-4,3.5
		l-3.6,2.2l-14-23.2l4.7-2.8c1.7-1,3.3-1.6,4.8-1.7c1.5-0.1,3,0.1,4.4,0.7c1.4,0.6,2.7,1.5,3.9,2.7
		C186,265.8,187.1,267.2,188.1,268.8z M185.9,270c-0.8-1.4-1.8-2.6-2.8-3.6c-1-1-2.1-1.7-3.3-2.2c-1.2-0.5-2.4-0.6-3.7-0.5
		s-2.6,0.6-4.1,1.5l-1.8,1.1l11.6,19.3l1.5-0.9c1.4-0.8,2.5-1.8,3.2-2.9s1.2-2.3,1.4-3.6c0.2-1.3,0.1-2.6-0.3-4
		C187.3,272.8,186.8,271.4,185.9,270z"/>
</g>
<g class="st9">
	<path class="st5" d="M207.4,264.1c0.7,1.1,1.1,2.2,1.2,3.3c0.1,1.1,0,2.1-0.4,3s-0.9,1.8-1.6,2.6c-0.7,0.8-1.6,1.5-2.5,2.1
		l-6.1,3.7l-14-23.2l6.3-3.8c0.9-0.5,1.7-0.9,2.7-1.1c0.9-0.2,1.8-0.3,2.7-0.2c0.9,0.1,1.7,0.4,2.5,1c0.8,0.5,1.5,1.3,2.1,2.3
		c0.4,0.7,0.7,1.4,0.8,2.1c0.1,0.7,0.2,1.4,0.1,2.1s-0.3,1.3-0.6,1.9c-0.3,0.6-0.8,1.2-1.3,1.6c1.6-0.7,3.2-0.8,4.7-0.3
		C205.2,261.5,206.5,262.5,207.4,264.1z M198.2,255.2c-0.4-0.7-0.9-1.3-1.5-1.7c-0.6-0.4-1.2-0.6-1.8-0.7c-0.6-0.1-1.3-0.1-2,0.1
		s-1.4,0.5-2,0.9l-3.7,2.3l5.1,8.5l3.7-2.3c0.6-0.4,1.2-0.8,1.7-1.3c0.5-0.5,0.8-1.1,1-1.7c0.2-0.6,0.3-1.3,0.2-2
		C198.9,256.6,198.6,255.9,198.2,255.2L198.2,255.2z M205.2,265.2c-0.5-0.8-1-1.4-1.7-1.8c-0.6-0.4-1.3-0.7-2-0.8
		c-0.7-0.1-1.4,0-2.2,0.2c-0.7,0.2-1.5,0.5-2.2,0.9l-3.9,2.4l5.7,9.4l3.8-2.3c0.7-0.4,1.3-0.9,1.9-1.5c0.5-0.6,0.9-1.2,1.2-1.9
		c0.3-0.7,0.4-1.4,0.3-2.2C206,266.9,205.7,266.1,205.2,265.2z"/>
</g>
<g class="st9">
	<path class="st5" d="M227.3,245.2c1,1.7,1.7,3.4,2.1,5.1s0.5,3.4,0.3,5.1c-0.2,1.7-0.8,3.2-1.7,4.6c-0.9,1.4-2.2,2.6-3.8,3.6
		s-3.3,1.6-5,1.7c-1.7,0.1-3.3-0.1-4.8-0.7c-1.6-0.6-3-1.5-4.3-2.7c-1.3-1.2-2.5-2.6-3.5-4.3c-1-1.6-1.7-3.3-2.1-5.1
		c-0.4-1.7-0.6-3.4-0.3-5.1c0.2-1.6,0.8-3.2,1.7-4.6c0.9-1.4,2.2-2.6,3.8-3.6c1.7-1,3.3-1.6,5-1.7c1.7-0.1,3.3,0.1,4.8,0.7
		c1.6,0.6,3,1.5,4.4,2.7C225.2,242.1,226.3,243.5,227.3,245.2z M225.2,246.5c-0.8-1.3-1.7-2.5-2.8-3.5s-2.3-1.8-3.5-2.4
		c-1.3-0.6-2.6-0.8-3.9-0.8c-1.4,0-2.8,0.5-4.2,1.3c-1.4,0.8-2.4,1.9-3.1,3c-0.7,1.2-1.1,2.5-1.2,3.8c-0.1,1.4,0.1,2.8,0.5,4.2
		c0.4,1.4,1,2.8,1.8,4.1c0.8,1.3,1.7,2.5,2.8,3.5c1.1,1,2.2,1.8,3.5,2.4c1.3,0.6,2.6,0.8,3.9,0.8c1.4,0,2.7-0.5,4.1-1.3
		c1.4-0.8,2.4-1.8,3.1-3c0.7-1.2,1.1-2.5,1.2-3.8c0.1-1.4-0.1-2.8-0.5-4.2C226.6,249.2,225.9,247.8,225.2,246.5L225.2,246.5z"/>
</g>
<g class="st9">
	<path class="st5" d="M248.9,248l-12.7-5.6l-1,13.8l-2.5,1.5l1.1-16.5l-15.1-6.7l2.5-1.5l12.7,5.6l1-13.8l2.5-1.5l-1.1,16.5
		l15.1,6.7L248.9,248z"/>
</g>
</svg>
