<?xml version="1.0" encoding="utf-8"?>
<!-- Generator: Adobe Illustrator 23.0.0, SVG Export Plug-In . SVG Version: 6.00 Build 0)  -->
<svg version="1.1" id="Calque_1" xmlns="http://www.w3.org/2000/svg" xmlns:xlink="http://www.w3.org/1999/xlink" x="0px" y="0px"
	 viewBox="0 0 340.2 319.1" style="enable-background:new 0 0 340.2 319.1;" xml:space="preserve">
<style type="text/css">
	.st0{fill:#C7C7C7;}
	.st1{enable-background:new    ;}
	.st2{fill-rule:evenodd;clip-rule:evenodd;fill:url(#SVGID_1_);}
	.st3{fill-rule:evenodd;clip-rule:evenodd;}
</style>
<title>logo_club_aero</title>
<circle class="st0" cx="170.7" cy="177.4" r="141.7"/>
<g class="st1">
	<path d="M9.7,127.4l1,1.9c-1.4,0.6-2.6,1.5-3.5,2.7c-0.9,1.1-1.5,2.5-1.8,4c-0.4,1.7-0.3,3.3,0.3,4.9c0.5,1.6,1.4,2.9,2.7,4
		c1.2,1.1,2.7,1.8,4.5,2.2c2.7,0.6,5.1,0.2,7.2-1.2c2.1-1.4,3.5-3.4,4.1-6.1c0.6-2.9-0.1-5.6-2-8.1l1.7-1.4c1.2,1.3,2,2.9,2.4,4.6
		c0.4,1.7,0.4,3.5,0,5.5c-0.8,3.7-2.7,6.3-5.6,7.9c-2.5,1.3-5.3,1.7-8.3,1c-3.2-0.7-5.6-2.3-7.4-4.9c-1.7-2.6-2.2-5.5-1.6-8.8
		c0.4-2,1.2-3.6,2.3-5C6.6,129.1,8,128.1,9.7,127.4z"/>
</g>
<g class="st1">
	<path d="M6.5,122.9l0.6-1.9l21.8,6.8l-0.6,1.9L6.5,122.9z"/>
</g>
<g class="st1">
	<path d="M14.1,119.6l0.7-1.9l7.2,2.8c1.7,0.7,3,1.1,3.7,1.2c1,0.1,2-0.1,2.8-0.7c0.8-0.5,1.5-1.3,1.9-2.4c0.4-1.1,0.5-2.1,0.3-3
		c-0.2-0.9-0.7-1.7-1.5-2.4c-0.5-0.4-1.7-1-3.6-1.8l-7.2-2.8l0.8-1.9l7.5,3c2.1,0.8,3.6,1.7,4.5,2.6c0.9,0.9,1.4,1.9,1.7,3.1
		c0.2,1.2,0.1,2.5-0.5,3.9c-0.6,1.4-1.3,2.5-2.3,3.2c-1,0.7-2.1,1.1-3.4,1.1c-1.3,0-3-0.4-5.2-1.2L14.1,119.6z"/>
</g>
<g class="st1">
	<path d="M35.4,110.6L15.3,99.8l1-1.8l8.1,4.3c-0.6-1.3-0.8-2.5-0.8-3.7c0-1.2,0.3-2.3,0.9-3.4c1-2,2.7-3.2,4.9-3.8
		c2.2-0.6,4.4-0.3,6.5,0.8c2.1,1.1,3.5,2.8,4.2,5c0.7,2.2,0.6,4.3-0.5,6.2c-0.6,1.1-1.4,2-2.4,2.7c-1,0.6-2.2,1-3.6,1.2l2.7,1.4
		L35.4,110.6z M37.8,102.7c0.5-1,0.8-2,0.7-3.1c-0.1-1.1-0.4-2.2-1.1-3.1c-0.7-1-1.5-1.8-2.5-2.3s-2.1-0.8-3.3-0.8
		c-1.2,0-2.3,0.3-3.3,0.8c-1,0.6-1.7,1.3-2.2,2.3c-0.5,1-0.8,2-0.7,3.2s0.4,2.2,1,3.1c0.6,0.9,1.5,1.7,2.6,2.3
		c1.7,0.9,3.4,1.1,5.1,0.7C35.7,105.2,37,104.2,37.8,102.7z"/>
</g>
<g class="st1">
	<path d="M35.8,68.4l23.6,6L58,76.3l-7.8-1.9l-5.7,7.2l3.7,7.2l-1.5,1.9L35.5,68.8L35.8,68.4z M39.4,71.6l4,7.9l4.5-5.7L39.4,71.6z"
		/>
</g>
<g class="st1">
	<path d="M49.2,50.7l2.2-2.2l0.2,6.3l-1.4,1.4L49.2,50.7z M65.9,60.8l1.9-0.5c0.4,1.2,0.6,2.3,0.5,3.4c0,1-0.3,2-0.7,2.9
		c-0.4,0.9-1,1.8-1.9,2.6c-1.9,1.8-3.9,2.6-6.2,2.3s-4.2-1.2-5.7-2.8c-1.5-1.5-2.3-3.3-2.6-5.3c-0.3-2.6,0.4-4.8,2.3-6.6
		c1.9-1.9,4.2-2.6,6.9-2.2c1.9,0.3,3.6,1.2,5.2,2.8l-10.2,9.9c1.4,1.4,2.9,2.1,4.6,2.2c1.7,0.1,3.1-0.4,4.3-1.6c0.6-0.6,1-1.2,1.4-2
		c0.3-0.7,0.5-1.5,0.6-2.2C66.3,63,66.2,62,65.9,60.8z M62.8,57.6c-1-0.6-1.9-1-2.7-1.1c-0.8-0.1-1.7,0-2.6,0.3
		c-0.9,0.3-1.7,0.8-2.4,1.4c-1.1,1.1-1.7,2.4-1.8,3.9c-0.1,1.1,0.3,2.4,1.1,3.7L62.8,57.6z"/>
</g>
<g class="st1">
	<path d="M61.8,49.9l1.6-1.3l1.5,1.9c-0.1-1.1-0.1-2.1,0.2-2.9c0.2-0.8,0.6-1.4,1.2-1.9c0.4-0.4,1-0.6,1.8-0.7l0.3,2.1
		c-0.5,0.1-0.8,0.3-1,0.5c-0.5,0.4-0.9,1.1-1,1.9c-0.1,0.8,0.1,1.8,0.6,3c0.4,0.9,1.5,2.4,3.3,4.7l3.5,4.3l-1.6,1.3L61.8,49.9z"/>
</g>
<g class="st1">
	<path d="M74.8,39.5c2-1.4,4.2-1.7,6.5-1.1c2.1,0.6,3.8,1.8,5.1,3.7c1.3,1.9,1.8,4,1.5,6.3c-0.3,2.3-1.4,4.1-3.4,5.5
		c-2,1.4-4.1,1.8-6.3,1.2c-2.2-0.6-4-1.8-5.3-3.7c-1.3-1.9-1.8-3.9-1.5-6.2C71.6,42.8,72.8,40.9,74.8,39.5z M76,41.2
		c-1.4,1-2.2,2.3-2.5,4.1c-0.3,1.8,0.1,3.4,1.1,4.9c0.7,1,1.5,1.8,2.5,2.3c1,0.5,2.1,0.8,3.2,0.7c1.1-0.1,2.1-0.4,3-1
		c0.9-0.6,1.6-1.4,2.1-2.4c0.5-1,0.6-2.1,0.5-3.2c-0.1-1.2-0.5-2.2-1.2-3.2c-1-1.5-2.4-2.5-4.2-2.9C78.9,40,77.3,40.3,76,41.2z"/>
</g>
<g class="st1">
	<path d="M85.1,33.1l1.8-0.9l1.2,2.6c0.2-1.2,0.5-2.2,1-3c0.6-1,1.5-1.8,2.5-2.3c0.7-0.3,1.4-0.5,2.2-0.5c0.8,0,1.4,0.1,2,0.4
		c0.6,0.3,1.3,0.8,2,1.5c0.1-1.5,0.4-2.7,1-3.7c0.6-1,1.5-1.8,2.5-2.3c1-0.5,2-0.6,3-0.5c1,0.2,1.9,0.6,2.7,1.4
		c0.8,0.8,1.7,2.1,2.5,3.9l3.9,8.1l-1.9,0.9l-3.9-8.1c-0.8-1.6-1.4-2.6-1.9-3.1c-0.5-0.5-1.1-0.8-1.8-0.9c-0.7-0.1-1.4,0-2.1,0.3
		c-0.9,0.4-1.6,1.1-2,2c-0.5,0.9-0.7,1.9-0.6,2.9c0.1,1.1,0.7,2.7,1.7,4.8l2.8,5.8l-1.8,0.9l-3.6-7.6c-0.9-1.8-1.5-3-2.1-3.5
		c-0.5-0.5-1.1-0.9-1.8-1c-0.7-0.1-1.4,0-2.2,0.3c-0.8,0.4-1.5,1-2,1.9s-0.7,1.9-0.6,2.9c0.1,1.1,0.6,2.5,1.4,4.4l3,6.3L92.2,48
		L85.1,33.1z"/>
</g>
<g class="st1">
	<path d="M117.8,19c2.3-0.7,4.5-0.4,6.6,0.9c1.9,1.2,3.2,2.9,3.8,5.1c0.7,2.2,0.5,4.4-0.5,6.5c-1,2.1-2.6,3.5-4.9,4.2
		c-2.3,0.7-4.5,0.5-6.4-0.7c-2-1.2-3.3-2.9-4-5.1c-0.7-2.2-0.5-4.3,0.4-6.3C113.8,21.2,115.5,19.7,117.8,19z M118.4,21
		c-1.6,0.5-2.8,1.5-3.6,3.1c-0.8,1.6-0.9,3.3-0.4,5.1c0.3,1.1,0.9,2.1,1.8,3c0.8,0.8,1.8,1.4,2.8,1.6c1.1,0.3,2.1,0.2,3.2-0.1
		c1.1-0.3,2-0.9,2.7-1.7c0.7-0.8,1.2-1.8,1.5-2.9c0.2-1.1,0.2-2.3-0.2-3.4c-0.5-1.8-1.6-3.1-3.1-4C121.6,20.7,120,20.5,118.4,21z"/>
</g>
<g class="st1">
	<path d="M143.8,7.3l3.9,22.5l-2,0.3l-0.5-2.8c-0.7,1.2-1.5,2.2-2.4,2.9c-1,0.7-2,1.2-3.3,1.4c-2.2,0.4-4.2-0.1-6.1-1.5
		c-1.8-1.4-3-3.3-3.4-5.7c-0.4-2.3,0-4.5,1.3-6.4c1.3-1.9,3-3.1,5.3-3.5c1.3-0.2,2.5-0.1,3.6,0.3c1.1,0.4,2.2,1.1,3.2,2.1l-1.6-9.2
		L143.8,7.3z M137.1,16.5c-1.1,0.2-2.1,0.7-2.9,1.4c-0.8,0.7-1.5,1.7-1.8,2.8c-0.4,1.1-0.5,2.3-0.3,3.4c0.2,1.1,0.7,2.2,1.4,3.1
		c0.7,0.9,1.6,1.6,2.7,2c1,0.4,2.1,0.5,3.2,0.3c1.1-0.2,2.1-0.7,3-1.4c0.9-0.7,1.5-1.7,1.9-2.7c0.4-1.1,0.4-2.2,0.2-3.5
		c-0.3-1.9-1.2-3.3-2.6-4.4C140.4,16.6,138.9,16.2,137.1,16.5z"/>
</g>
<g class="st1">
	<path d="M163.1,23.5l1.8,0.9c-0.5,1.2-1.1,2.1-1.8,2.9c-0.7,0.7-1.5,1.3-2.4,1.7c-0.9,0.4-1.9,0.6-3.1,0.7
		c-2.6,0.1-4.6-0.7-6.2-2.4c-1.5-1.7-2.4-3.7-2.5-5.9c-0.1-2.1,0.4-4,1.6-5.7c1.5-2.1,3.5-3.3,6.1-3.4c2.7-0.1,4.9,0.9,6.6,2.9
		c1.2,1.5,1.9,3.3,2,5.6L151,21.4c0.1,1.9,0.8,3.5,2,4.6c1.2,1.2,2.6,1.7,4.3,1.7c0.8,0,1.6-0.2,2.3-0.5c0.7-0.3,1.4-0.7,1.9-1.2
		C162,25.4,162.5,24.6,163.1,23.5z M162.9,19.1c-0.3-1.1-0.8-2-1.3-2.7c-0.6-0.7-1.3-1.2-2.1-1.5c-0.9-0.4-1.8-0.5-2.7-0.5
		c-1.6,0.1-2.9,0.6-3.9,1.7c-0.8,0.8-1.3,2-1.7,3.5L162.9,19.1z M157.3,5l3.1-0.1l-4.1,4.8l-2,0.1L157.3,5z"/>
</g>
<g class="st1">
	<path d="M167.8,6.2l2,0.1l-0.7,22.8l-2-0.1L167.8,6.2z"/>
</g>
<g class="st1">
	<path d="M172.4,12.8l2,0.1l-1,16.4l-2-0.1L172.4,12.8z M173.8,6.1c0.5,0,0.8,0.2,1.2,0.6c0.3,0.4,0.4,0.8,0.4,1.3
		c0,0.5-0.2,0.9-0.6,1.2c-0.3,0.3-0.8,0.5-1.2,0.4c-0.5,0-0.8-0.2-1.1-0.6c-0.3-0.4-0.4-0.8-0.4-1.3c0-0.5,0.2-0.9,0.6-1.2
		C173,6.2,173.4,6,173.8,6.1z"/>
</g>
<g class="st1">
	<path d="M185.4,15.8L184,17c-1-1.2-2-1.9-3-2c-0.7-0.1-1.2,0.1-1.8,0.5c-0.5,0.4-0.8,0.9-0.9,1.5c-0.1,0.5,0.1,1.1,0.4,1.6
		c0.3,0.5,1.1,1.2,2.2,2c1.4,1,2.4,1.9,2.8,2.7c0.4,0.8,0.6,1.7,0.5,2.7c-0.1,1.3-0.7,2.4-1.7,3.3c-1,0.8-2.2,1.2-3.6,1
		c-0.9-0.1-1.8-0.4-2.5-0.9c-0.8-0.5-1.4-1.1-1.9-1.9l1.4-1.4c0.9,1.3,1.9,2.1,3.1,2.2c0.8,0.1,1.5-0.1,2.2-0.6
		c0.6-0.5,1-1.1,1.1-1.8c0.1-0.6-0.1-1.2-0.4-1.7c-0.3-0.5-1.1-1.2-2.4-2c-1.3-0.9-2.2-1.8-2.7-2.6c-0.4-0.8-0.6-1.7-0.5-2.6
		c0.1-1.2,0.7-2.2,1.6-3c0.9-0.7,2-1,3.2-0.9C182.7,13.2,184.1,14.1,185.4,15.8z"/>
</g>
<g class="st1">
	<path d="M189.1,14.1l2,0.5l-0.7,2.8c0.9-0.9,1.8-1.4,2.7-1.7c1.1-0.4,2.3-0.5,3.4-0.2c0.7,0.2,1.4,0.5,2,1c0.6,0.5,1.1,1,1.4,1.6
		c0.3,0.6,0.5,1.4,0.6,2.4c1-1.1,2-1.9,3.1-2.3c1.1-0.4,2.3-0.5,3.4-0.2c1.1,0.3,1.9,0.8,2.6,1.5c0.7,0.8,1.1,1.7,1.3,2.8
		c0.2,1.1,0,2.6-0.5,4.6l-2.1,8.7l-2-0.5l2.1-8.7c0.4-1.7,0.6-2.9,0.5-3.6c-0.1-0.7-0.4-1.3-0.8-1.8c-0.5-0.5-1.1-0.9-1.9-1.1
		c-1-0.2-1.9-0.1-2.8,0.3s-1.7,1-2.3,1.9c-0.6,0.9-1.2,2.5-1.7,4.8l-1.5,6.3l-2-0.5l1.9-8.2c0.5-1.9,0.7-3.3,0.6-4
		c-0.1-0.7-0.3-1.4-0.8-1.9c-0.5-0.6-1.1-0.9-1.9-1.1c-0.9-0.2-1.8-0.1-2.8,0.3s-1.7,1-2.3,1.9c-0.6,0.9-1.2,2.3-1.6,4.3l-1.6,6.8
		l-2-0.5L189.1,14.1z"/>
</g>
<g class="st1">
	<path d="M224.5,36.4l1.2,1.5c-1,0.9-1.9,1.5-2.8,1.9c-0.9,0.4-1.9,0.6-2.9,0.6c-1,0-2-0.2-3.1-0.7c-2.4-1-3.9-2.5-4.6-4.7
		c-0.7-2.2-0.6-4.3,0.2-6.4c0.8-1.9,2-3.4,3.8-4.5c2.2-1.3,4.6-1.5,7-0.5c2.5,1,4.1,2.8,4.8,5.4c0.5,1.8,0.3,3.8-0.5,5.9l-13.2-5.3
		c-0.7,1.8-0.7,3.5-0.1,5c0.6,1.6,1.7,2.7,3.2,3.3c0.7,0.3,1.5,0.5,2.3,0.5c0.8,0,1.6-0.1,2.2-0.3C222.7,37.7,223.5,37.2,224.5,36.4
		z M226.1,32.3c0.2-1.1,0.1-2.1-0.1-3s-0.7-1.6-1.3-2.3c-0.6-0.7-1.4-1.2-2.3-1.6c-1.4-0.6-2.9-0.6-4.3-0.1c-1,0.4-2,1.2-3,2.5
		L226.1,32.3z"/>
</g>
<linearGradient id="SVGID_1_" gradientUnits="userSpaceOnUse" x1="10.7936" y1="278.318" x2="127.6736" y2="179.638" gradientTransform="matrix(1 0 0 -1 16.98 324.5)">
	<stop  offset="6.000000e-02" style="stop-color:#FFFFFF"/>
	<stop  offset="0.21" style="stop-color:#F9F9F9"/>
	<stop  offset="0.41" style="stop-color:#EAEAEA"/>
	<stop  offset="0.63" style="stop-color:#D0D0D0"/>
	<stop  offset="0.69" style="stop-color:#C7C7C7"/>
</linearGradient>
<path class="st2" d="M34.4,182.5c0-78.3,63.4-141.7,141.7-141.8c0,0,0,0,0.1,0"/>
<path class="st3" d="M236.7,243.2c-0.3-0.4-0.9-0.4-0.6-1.3c1.3-0.3,2.6,0.6,3.9,0.8c2,0.2,4.1-0.8,6-1.4c2.1-0.6,4.2-0.8,5.7-2.1
	c-0.3-2.4-0.3-5-0.5-7.5c-2.3,0.8-4.8,1.4-7.4,2.2c-3.5,1.1-6.3,2.8-10.3,2.2c-1.1-0.2-2.9-0.4-3.1-1.7c1.1-1,2.6,0.9,3.8,0.6
	c0.7-0.2,12.7-4,16-5.3c0.4-0.1-0.2-1.5-0.1-1.5c-8.6-1-13.9-1-15.6-2.2c-0.7,0.3-5.6-7.2-4.2-12.9c2.4-10,9.8-16.3,16.9-17.6
	c0.5-0.6,1.1-0.9,1.9-1c-1,0.4,6.2-5.6,5.2-5.6c-0.4,0-9.8,5.6-10.5,6.1c-5.3,3.9-10,7.6-15.1,11.4c-0.8,0.7-1.7,1.3-2.6,1.9
	c-1,0.1-1.9,0-2.9-0.1c-3,0-5.4,0.4-8.4,0.1c12.3-6.6,24.3-13.7,36.5-20.4c0.3-0.2,1.4-0.6,1.4-1.1c-2.2-1-4.2-0.2-4.5-0.3
	c-14.3,0.4-28.6,0.9-42.8,1.3c0.6-1.9,1.4-3.4,2.1-5.1c11.9,0.5,25.2,1.2,37.4,1.7c2.7,0.1,10.2-0.1,10.6-0.7s2-1.2,2.5-0.7
	c1-0.1,3.2-1.7,3.9-1.6c8.8-7.6,17.8-14.7,26.6-22.3c3.3,0.1,6.8-0.4,9.8-0.2c-11.6,7.6-23.8,15.1-35,22.9c0.4-0.1-1.9,0.4-2,2.3
	c1-0.1,1.9,0,2.9,0.2c0.5,0.1,0.9,0.2,1.4,0.2c15.9-2.1,31.9-4.1,48-6.1c-1.7,0.8-4,3.9-6.2,4.5c-2,0.5-4.5,0.1-6.9,0.1
	c-6.8,0.1-14.2,0.6-20.7,0.6c1.4,0.9,0,3.9,0.1,5.8c6.1-0.9,12.2-1.7,18.3-2.7s12.2-1.7,18.2-3c4.5,0.1,8.3-1.1,12.4-1.8
	c-2-1.7-3.8-3.6-5.6-5.5c0.3-1.5,1.3-2.9,2.6-3.7c1,2.8,2.1,5.5,3.4,8.2c1.9-7.6,4-15,5.8-22.8c1-0.3,2.1-0.5,3.1-0.6
	c-0.9,6.2-1.8,12.4-2.5,18.5c1.5,0,3,0,4.5-0.1c-1.2,2.4-3.8,6.6-4.1,6.6c-1,0.4-1.9,1.1-2.6,1.8c-0.4-0.1-0.8,0-1.2,0.1
	c0.7,0.7,1.4,0.1,2.3,0.1c1,3.6,2.3,7,3.3,10.6c-0.4,0.3-1.5,0.2-2.3,0.6c-1.8-3.5-4.2-6.6-5.9-10.3c0.3-0.1,0.9,0.2,0.9-0.5
	c-9.4,2.2-32.1,8-32.5,7.9c-3.3,2.2-5.9,5.4-8.4,9c0.9,1.4,0.9,3.5,0.6,5.9c-4.9,4.2-9.1,9.5-14.6,12.5c-0.4,4.5,0,8.1,0,12.4
	c0.4,0.4,0.7,0.9,0.6,1.4c-9.4,2.6-18.5,5.5-27.7,8c-3.1,0.8-6.3,2.3-9.9,1.4v0.1L236.7,243.2z M272.7,221.9
	c-0.7,0.3-1.4,0.6-2.2,0.8c-0.2,1.5-0.7,2.4-0.1,3.3c-5.7,1.7-11.3,3.3-16.9,5.2c0.4,2.6,0.5,5.2,0.5,7.8c4.3-1.1,9.5-2.5,14.4-3.9
	c0.9-0.2,4.2-0.7,4.6-1.5s-0.1-4.1-0.1-5.5C272.8,225.5,272.7,223.8,272.7,221.9L272.7,221.9z M267.9,223.7
	c-4.6,1.6-9.3,2.8-14.1,3.7c0.1,0.7,0.2,1.5,0.1,2.2c4.5-1.4,9.1-2.7,13.6-4.2C267.5,224.6,267.8,224.4,267.9,223.7L267.9,223.7z"/>
<path d="M123.3,211.6c1.6,0.3,22.8-12.4,25-17.3s2.3-16.8,2.3-16.8s14.3,4,15,2.9s1.5-2.8,0.9-4.4s-31.6-8.8-38.2-10.4
	s-6.5,2.5-6.2,2.3s18.9,8.8,18.9,8.8l-3.1,16.8l-7.9,6.4c0,0-27.7,6.7-31.3,6s-8.8-2.5-8.8-2.5L5,168.1c0,0-8.7-4-3.1,2.5
	c14.2,14.1,78.1,32.7,77.9,39.7s-1.3,9-1.3,9l-4.3,5.1c-4.3,5.1-7.3,12,1.2,13.4c9,1.5,26.5-12.3,31.5-16.2
	c5.3-4.1,122.4,36.9,127.3,35.3c2.5-0.8,0.9-3.4,0-4.8C231.6,248.3,121.4,211.3,123.3,211.6z"/>
<g class="st1">
	<path d="M104.9,259.4h3.2l4,12.7l4.1-12.7h3.2l2.9,18.2h-3.2l-1.9-11.5l-3.7,11.5h-2.9l-3.7-11.5l-1.9,11.5h-3.2L104.9,259.4z"/>
	<path d="M129.2,259.4h3.4l6.7,18.2h-3.5l-1.4-3.7h-7.1l-1.4,3.7h-3.5L129.2,259.4z M130.9,264.2l-2.3,6.2h4.7L130.9,264.2z"/>
	<path d="M139.4,259.4h3.6l3.3,6.5l3.2-6.5h3.5l-5.1,10.3v7.9h-3.3v-7.9L139.4,259.4z"/>
	<path d="M154.5,259.4h9.5v3.4h-6.2v3.3h6.2v3.3h-6.2v4.8h6.2v3.4h-9.5V259.4z"/>
	<path d="M165.9,259.4h3.2l7.5,12v-12h3.3v18.2h-3.2l-7.5-11.9v11.9h-3.3V259.4z"/>
	<path d="M182.7,259.4h3.2l7.5,12v-12h3.3v18.2h-3.2l-7.5-11.9v11.9h-3.3V259.4z"/>
	<path d="M199.5,259.4h9.5v3.4h-6.2v3.3h6.2v3.3h-6.2v4.8h6.2v3.4h-9.5V259.4z"/>
</g>
<g class="st1">
	<path d="M146.7,282.7h8.2v3.2h-5.7l-0.7,3.3c0.2-0.1,0.4-0.1,0.6-0.1c0.2,0,0.4,0,0.5,0c1.6,0,2.9,0.6,3.9,1.7
		c1,1.1,1.6,2.6,1.6,4.3c0,1.8-0.6,3.3-1.7,4.5s-2.6,1.8-4.2,1.8c-1.5,0-2.8-0.4-3.8-1.3c-1.1-0.9-1.8-2.1-2.1-3.6h3.5
		c0.3,0.6,0.6,1,1.1,1.3c0.4,0.3,0.9,0.4,1.5,0.4c0.7,0,1.4-0.3,1.9-0.8c0.5-0.6,0.8-1.3,0.8-2.1c0-0.8-0.2-1.5-0.7-2.1
		c-0.5-0.5-1.1-0.8-1.7-0.8c-0.4,0-0.7,0.1-1.1,0.3c-0.4,0.2-0.7,0.5-1,0.9l-2.7-0.6L146.7,282.7z"/>
	<path d="M159.7,287.1h-3.2c0.2-1.3,0.6-2.4,1.4-3.2c1.1-1.1,2.4-1.7,4-1.7c1.4,0,2.6,0.5,3.6,1.4s1.5,2.1,1.5,3.4
		c0,0.8-0.2,1.5-0.6,2.2c-0.4,0.7-1,1.2-1.8,1.6c1.1,0.3,1.9,0.9,2.5,1.7c0.6,0.8,0.9,1.8,0.9,2.9c0,1.6-0.6,3-1.7,4.1
		s-2.6,1.7-4.4,1.7c-1.7,0-3.1-0.5-4.1-1.6c-1.1-1.1-1.7-2.5-1.8-4.4h3.3c0.1,0.9,0.5,1.6,0.9,2.1s1.1,0.7,1.8,0.7
		c0.8,0,1.4-0.3,1.9-0.8c0.5-0.5,0.8-1.2,0.8-1.9c0-0.8-0.3-1.5-1-2.1c-0.7-0.6-1.7-0.9-3-0.9v-3c0.8-0.1,1.4-0.2,1.8-0.4
		c0.4-0.2,0.7-0.5,0.9-0.8s0.3-0.7,0.3-1.1c0-0.5-0.2-0.9-0.5-1.2c-0.3-0.3-0.8-0.5-1.3-0.5c-0.5,0-0.9,0.2-1.3,0.5
		C160.1,286.3,159.8,286.7,159.7,287.1z"/>
</g>
<path class="st3" d="M244.1,127.7c0.2,2.1,0.8,4.1,1.7,6c0.7,1.2,2.3,2.2,1.7,3.6c-4.8,0.9-7.3-5.7-8.6-10.1c-2,1.5-3.7,3.9-7.1,3.4
	c-2.5-0.4-4.4-3.1-5.6-5.4c-6.4,2.2-15,1-22.3,1.5c-4,0.3-7.6,2.4-10.1,3.2c0.6,4.6,2.9,7.5,3,12.6c3,2.2,5.9,4.5,5.6,10.1
	c-2,2.6-3.4,6-7.5,6c-3.7,0-6.6-2.6-8.4-5.4c-3.3-1.9-7.1-3-8.8-6c2.6-3.9,7.8-5.2,13.3-6.2c-0.9-3-1.6-6.1-3-8.6
	c-10.1,3.5-20.4,8.6-31.3,12.6c-0.9,0.4-1.8,0.4-2.8,0.9c-6,2.6-12.6,5.4-18.9,7.7c-4,1.5-8,2.9-12,4.3c-3.1,1.1-6.8,2.6-12,2.1
	c-2.2-0.3-4.5-0.7-6.6-1.3c-3.7-0.9-6.6-1.4-8.4-3.9c0.7-1.1,1.3-2.2,1.9-3.2c3-2,5.9-4.2,8.6-6.6c9.8-5.4,19.9-10.1,30.2-14.1
	c3-1.2,5.8-3.1,8.8-4.3c5.5-2.1,10.7-2.9,15.6-6c-11.5-3.4-22.7-7.4-33.9-11.2c-6-2-13.2-4.2-19.7-7.1c-1.5,0.5-2.3,1.6-3.8,1.9
	c0.3,1.7-0.8,3.3-2.4,3.6c-1.2,0.2-2.5-0.3-3.2-1.3c-0.2-3.8,2.9-4.3,5.6-5.1c-2.3-0.6-5.8-3.2-8.6-3.2c-2.3,0-4.9,2.2-7.9,2.6
	c-4.4,0.6-8.9-0.3-12.9-2.4c1.3-3.7,6.3-3.8,9-6c0.4-0.2,0.8-0.3,1.3-0.2c1.7-1.6,4.4-2.1,6.2-3.6c0.3-9.6,1.3-19.1,2.8-28.5
	c2.2-1.6,8.5-2.1,10.7-0.7c1.1,0.8,2.8,4.1,3.4,5.6c2.3,5.2,4.6,12.2,7.5,15.6c3.7-0.5,8.4-1.2,12.6-2.2c2.4-0.5,8.6-1.6,10.7,0.9
	c-1.6,2.4-5.6,2.6-7.9,4.3c9.6,0.1,20.1,1.1,31.3,0.6c5.1-0.2,10,0.3,13.7-0.4c6.8-1.3,11.6-3.9,19.7-3.4c5.4,0.4,10.7,1.8,15.6,4.1
	c1,0.5,2.1,1.4,2.8,1.5c2.1,0.3,5.6-2.4,7.9-3.6c1.4-0.7,2.6-1.3,3.9-1.9c2.8-1.5,4.8-2.7,7.9-4.3c6.6-3.4,12.2-5.8,21.4-6.2
	c1.7-0.1,3.7,0.1,5.6,0c1.2-0.1,2.4,0.2,3.4,0.9c1.2,4-3.1,7.4-5.4,9.9c-4.9,5.4-11.6,11.3-16.7,16.1c5.2,2,12.9,1.4,14.8,6.7
	c0.7-1.6,2.7-0.6,2.8-2.8c0.7-0.5,1,0.4,1.5,0c0.6-3.4,0.4-7.4,0.2-11.1c2-0.1,2.8,2.7,2.8,5.3c1.6-4-1.4-8.8-0.4-12.2
	c2.3,1.2,2.6,4.7,2.8,7.5c0.3,4.4,0.2,9.5,0.4,14.2c-0.5,0.3-0.9,0.9-0.9,1.5c-1.6-1.4-1.5,1.3-3.2,0.2c-0.9,0.8-1.5,2.1-2.6,2.8
	c-0.3,4.5-4.4,5.2-8.1,6.2c-1.7,2.1-3.2,4.3-4.5,6.7c0.3,1.3,0.3,2.6,0,3.9c-0.5,0.4-0.8-0.3-1.3-0.4c0.2,2.7,1.8,5.2,1.3,7.9
	C245,132.8,245.2,129.6,244.1,127.7z"/>
</svg>
