<svg id="Calque_1" data-name="Calque 1" xmlns="http://www.w3.org/2000/svg" viewBox="0 0 176.07 160.71"><defs><style>.cls-1{fill:#aacfd8;}.cls-2{fill:#3096af;}.cls-3{fill:#206475;}.cls-4{fill:#a3b9be;}.cls-5{fill:#133c46;}.cls-6{opacity:0.39;}</style></defs><title>logo_dauphin_may</title><path class="cls-1" d="M80.23,12.88c0-7.58-6.89-11-6.89-11S86.66-.67,100.43,9.66c56.49,4.13,55.11,34,55.11,34A53.1,53.1,0,0,0,162,54.21c1.38,6-5.51,4.59-5.51,4.59S134,46.63,122,46.4c-10.34,13.32-18.83,14.69-18.83,14.69s3.9-15.47.23-17.91c0,0-44.55-6-67.28,36.74C36.14,79.92,25.35,37.67,80.23,12.88Z" transform="translate(-1.27 -1.58)"/><path class="cls-2" d="M43.18,16.86c6.08-2-2.45,10.71-2.45,10.71l19.9-9.18S28.18,38,32.16,79.92C21,85.58,18,108.14,21.75,121.25c5.45,18.81,21.37,28.33,17.15,26.64C-6.11,129.82-17.74,45.33,43.18,16.86Z" transform="translate(-1.27 -1.58)"/><path class="cls-3" d="M32.47,84.36c4-2,1.68,7.65,5.51,8.42,3.37-9.18,9.75-19.18,9.18-14.7-6.43,49.6,39.5,61.85,39.5,61.85s44.69,12.09,84.19-37.05c-28.48,44.24-68.58,45.2-68.58,45.2s26,8.38,66.28-28.45l-17.3,16.62L165,125.84C76.86,211.56-.44,124.47,32.47,84.36Z" transform="translate(-1.27 -1.58)"/><path class="cls-4" d="M74.41,129.52c54.65,20.36,78.07-14.24,74.85-15.92,0,0-4.74,6.46-8.11,4.53s6.48-20.41,4.74-18.46C105.94,144.67,74.41,129.52,74.41,129.52Z" transform="translate(-1.27 -1.58)"/><path class="cls-5" d="M69.41,70.07a7.73,7.73,0,0,1,.6,3,7.9,7.9,0,0,1-.6,3.05,8,8,0,0,1-1.67,2.48,7.82,7.82,0,0,1-2.51,1.67,7.61,7.61,0,0,1-3,.63H58.63a1.08,1.08,0,0,1-.8-.33,1.06,1.06,0,0,1-.32-.8V66.42a1.09,1.09,0,0,1,1.12-1.12h3.58a7.68,7.68,0,0,1,3,.6,7.14,7.14,0,0,1,1.34.72,9.53,9.53,0,0,1,1.17.95,11.47,11.47,0,0,1,1,1.16A7.46,7.46,0,0,1,69.41,70.07Zm-3.27,7a5.58,5.58,0,0,0,1.21-1.81,5.74,5.74,0,0,0,.41-2.14A5.65,5.65,0,0,0,67.35,71a5.76,5.76,0,0,0-1.21-1.8A5.6,5.6,0,0,0,64.34,68a5.46,5.46,0,0,0-2.13-.41H59.76V78.68h2.45a5.47,5.47,0,0,0,2.13-.42A5.6,5.6,0,0,0,66.14,77.05Z" transform="translate(-1.27 -1.58)"/><path class="cls-5" d="M84.67,79.1a1,1,0,0,1,.27.71.89.89,0,0,1-.3.69,1,1,0,0,1-.7.3,1,1,0,0,1-.72-.32,3.48,3.48,0,0,1-.48-.61,4.26,4.26,0,0,1-.32-.69,6.44,6.44,0,0,1-2,1.3,6,6,0,0,1-2.29.45,6.09,6.09,0,0,1-4.33-10.41,5.93,5.93,0,0,1,2-1.32,6.11,6.11,0,0,1,2.35-.45,5.84,5.84,0,0,1,4.07,1.57v-.45a1,1,0,1,1,2,0v8.21A1.4,1.4,0,0,0,84.67,79.1Zm-6.5-.42a3.68,3.68,0,0,0,1.47-.3,3.87,3.87,0,0,0,1.23-.83,3.91,3.91,0,0,0,.82-1.22,3.8,3.8,0,0,0,.3-1.51,3.72,3.72,0,0,0-.3-1.47,3.77,3.77,0,0,0-2-2,3.68,3.68,0,0,0-1.47-.3,3.72,3.72,0,0,0-1.5.3,3.84,3.84,0,0,0-1.23.82,4,4,0,0,0-.83,1.23,3.72,3.72,0,0,0-.3,1.47,3.8,3.8,0,0,0,.3,1.51,4.12,4.12,0,0,0,.83,1.22,3.87,3.87,0,0,0,1.23.83A3.72,3.72,0,0,0,78.17,78.68Z" transform="translate(-1.27 -1.58)"/><path class="cls-5" d="M96.3,68.75a1.14,1.14,0,0,1,.79.32,1.1,1.1,0,0,1,.34.8V78a1.07,1.07,0,0,1-.34.8,1.13,1.13,0,0,1-1.53.06,1.12,1.12,0,0,1-.39-.66,4.8,4.8,0,0,1-2.92.93,5.09,5.09,0,0,1-3.65-1.5,5.49,5.49,0,0,1-1.12-1.64,5.07,5.07,0,0,1-.41-2v-4a1.11,1.11,0,0,1,1.13-1.12,1.09,1.09,0,0,1,1.12,1.12v4a2.85,2.85,0,0,0,.23,1.13,3.09,3.09,0,0,0,.62.93,3,3,0,0,0,.94.62,2.94,2.94,0,0,0,1.14.23,2.85,2.85,0,0,0,1.13-.23A3,3,0,0,0,94.3,76a2.76,2.76,0,0,0,.62-.93,2.85,2.85,0,0,0,.23-1.13.25.25,0,0,1,0-.1V69.87a1.09,1.09,0,0,1,.33-.8A1.11,1.11,0,0,1,96.3,68.75Z" transform="translate(-1.27 -1.58)"/><path class="cls-5" d="M110.71,70.52a6.36,6.36,0,0,1,1.34,2,6.11,6.11,0,0,1,0,4.65,6.25,6.25,0,0,1-1.34,2,6,6,0,0,1-4.31,1.77,5.82,5.82,0,0,1-2-.35,5.73,5.73,0,0,1-1.79-1v3.68a1.08,1.08,0,0,1-.33.8,1.06,1.06,0,0,1-.8.33,1.09,1.09,0,0,1-.8-.33,1.11,1.11,0,0,1-.32-.8V69.87a1.09,1.09,0,0,1,1.12-1.12,1.11,1.11,0,0,1,1.13,1.12v.23a5.73,5.73,0,0,1,1.79-1,5.82,5.82,0,0,1,2-.35,6,6,0,0,1,4.31,1.77Zm-4.31,8.13a3.8,3.8,0,0,0,1.51-.3,4.06,4.06,0,0,0,1.22-.81,3.8,3.8,0,0,0,0-5.43,4.06,4.06,0,0,0-1.22-.81,3.8,3.8,0,0,0-1.51-.3,3.63,3.63,0,0,0-1.48.3,4.06,4.06,0,0,0-1.22.81,3.78,3.78,0,0,0-1.12,2.71,3.8,3.8,0,0,0,.3,1.51,3.75,3.75,0,0,0,.82,1.21,4.06,4.06,0,0,0,1.22.81A3.63,3.63,0,0,0,106.4,78.65Z" transform="translate(-1.27 -1.58)"/><path class="cls-5" d="M125.34,70.55a6,6,0,0,1,1.33,2,6.2,6.2,0,0,1,.45,2.36V78a1.06,1.06,0,0,1-.33.8,1.08,1.08,0,0,1-.8.33,1.11,1.11,0,0,1-.79-.33,1.07,1.07,0,0,1-.34-.8V74.88a3.72,3.72,0,0,0-.3-1.52,3.89,3.89,0,0,0-.82-1.24,3.78,3.78,0,0,0-1.24-.82A3.84,3.84,0,0,0,121,71a3.72,3.72,0,0,0-1.5.3,3.84,3.84,0,0,0-1.23.82,4.12,4.12,0,0,0-.84,1.24,3.9,3.9,0,0,0-.31,1.52V78A1.11,1.11,0,0,1,116,79.08a1.07,1.07,0,0,1-.79-.33,1,1,0,0,1-.34-.8V64.57A1.16,1.16,0,0,1,116,63.44a1.1,1.1,0,0,1,.8.34,1.14,1.14,0,0,1,.32.79v5.55A6,6,0,0,1,121,68.75a6,6,0,0,1,4.35,1.8Z" transform="translate(-1.27 -1.58)"/><path class="cls-5" d="M132.44,64.6a1.58,1.58,0,0,1-.48,1.15,1.66,1.66,0,0,1-1.17.47,1.59,1.59,0,0,1-1.15-.47,1.57,1.57,0,0,1-.47-1.15,1.59,1.59,0,0,1,.47-1.18,1.56,1.56,0,0,1,1.15-.48,1.62,1.62,0,0,1,1.17.48A1.6,1.6,0,0,1,132.44,64.6Zm-1.65,14.48a1.08,1.08,0,0,1-.8-.33,1.06,1.06,0,0,1-.32-.8V69.87a1.09,1.09,0,0,1,.32-.8,1.11,1.11,0,0,1,.8-.32,1.11,1.11,0,0,1,1.13,1.12V78a1.13,1.13,0,0,1-1.13,1.13Z" transform="translate(-1.27 -1.58)"/><path class="cls-5" d="M145.45,70.55a6.21,6.21,0,0,1,1.34,2,6,6,0,0,1,.46,2.36V78a1,1,0,0,1-.34.8,1.07,1.07,0,0,1-.79.33A1.11,1.11,0,0,1,145,78V74.88a3.9,3.9,0,0,0-.31-1.52,4.12,4.12,0,0,0-.84-1.24,3.84,3.84,0,0,0-1.23-.82,3.76,3.76,0,0,0-1.5-.3,3.84,3.84,0,0,0-1.51.3,3.78,3.78,0,0,0-1.24.82,4.09,4.09,0,0,0-.83,1.24,3.88,3.88,0,0,0-.29,1.52V78a1.07,1.07,0,0,1-.34.8,1.11,1.11,0,0,1-.79.33,1.08,1.08,0,0,1-.8-.33A1.06,1.06,0,0,1,135,78V69.87a1.09,1.09,0,0,1,.33-.8,1.11,1.11,0,0,1,.8-.32,1.14,1.14,0,0,1,.79.32,1.1,1.1,0,0,1,.34.8v.25a5.89,5.89,0,0,1,3.87-1.37,6,6,0,0,1,4.33,1.8Z" transform="translate(-1.27 -1.58)"/><path class="cls-5" d="M154.73,81.9h-4a1.06,1.06,0,0,1-.8-.33,1.11,1.11,0,0,1-.33-.79,1.13,1.13,0,0,1,1.13-1.13h4a1.42,1.42,0,0,0,1-.43,1.44,1.44,0,0,0,.43-1,1.39,1.39,0,0,0-.31-.9,1.43,1.43,0,0,0-.81-.53l-2.9-.67a3.91,3.91,0,0,1-1.13-.49,3.72,3.72,0,0,1-.9-.82,3.72,3.72,0,0,1,.29-5,4.05,4.05,0,0,1,1.19-.79,3.6,3.6,0,0,1,1.42-.28h3.56a1.09,1.09,0,0,1,1.12,1.12A1.11,1.11,0,0,1,156.61,71h-3.56a1.45,1.45,0,0,0-1.45,1.45,1.48,1.48,0,0,0,.3.9,1.43,1.43,0,0,0,.8.53l2.9.7a3.86,3.86,0,0,1,1.13.47,3.23,3.23,0,0,1,.9.83,3.62,3.62,0,0,1,.53,3.75,4.22,4.22,0,0,1-.8,1.19,3.85,3.85,0,0,1-1.18.8A3.67,3.67,0,0,1,154.73,81.9Z" transform="translate(-1.27 -1.58)"/><path class="cls-5" d="M74,99.69a1.07,1.07,0,0,1-.8-.34,1.12,1.12,0,0,1-.32-.79v-9.4L67.36,98a1,1,0,0,1-1,.55,1.08,1.08,0,0,1-1-.55L60,89.16v9.4a1.09,1.09,0,0,1-.33.79,1,1,0,0,1-.8.34,1.08,1.08,0,0,1-.79-.34,1.09,1.09,0,0,1-.33-.79V85.21a1.06,1.06,0,0,1,.23-.68,1.39,1.39,0,0,1,.59-.43,1.21,1.21,0,0,1,.73,0,1.14,1.14,0,0,1,.55.47l6.6,10.68L73,84.61a1.08,1.08,0,0,1,.56-.47,1.16,1.16,0,0,1,.71,0,1.33,1.33,0,0,1,.59.43,1.07,1.07,0,0,1,.24.68V98.56a1.12,1.12,0,0,1-.32.79A1.07,1.07,0,0,1,74,99.69Z" transform="translate(-1.27 -1.58)"/><path class="cls-5" d="M90.12,97.86a1,1,0,0,1,.28.71.89.89,0,0,1-.3.69,1,1,0,0,1-.7.3,1,1,0,0,1-.73-.32,3.42,3.42,0,0,1-.47-.61,3.61,3.61,0,0,1-.33-.69,6.15,6.15,0,0,1-2,1.3,6,6,0,0,1-2.29.45,6.12,6.12,0,0,1-2.35-.46,6.25,6.25,0,0,1-2-1.34,6.13,6.13,0,0,1-1.32-2,6.23,6.23,0,0,1,0-4.65,6.13,6.13,0,0,1,1.32-2,6,6,0,0,1,2-1.32,6.11,6.11,0,0,1,2.35-.45,5.85,5.85,0,0,1,4.08,1.57v-.45a1,1,0,0,1,.28-.71,1,1,0,0,1,.72-.29,1,1,0,0,1,1,1v8.21A1.39,1.39,0,0,0,90.12,97.86Zm-6.5-.42a3.65,3.65,0,0,0,1.47-.3,3.87,3.87,0,0,0,1.23-.83,4.12,4.12,0,0,0,.83-1.22,3.79,3.79,0,0,0,.3-1.5,3.73,3.73,0,0,0-.3-1.48,4,4,0,0,0-.83-1.23,3.84,3.84,0,0,0-1.23-.82,3.65,3.65,0,0,0-1.47-.3,3.76,3.76,0,0,0-1.5.3,3.77,3.77,0,0,0-2.05,2,3.73,3.73,0,0,0-.3,1.48,3.79,3.79,0,0,0,.3,1.5,3.91,3.91,0,0,0,.82,1.22,3.87,3.87,0,0,0,1.23.83A3.76,3.76,0,0,0,83.62,97.44Z" transform="translate(-1.27 -1.58)"/><path class="cls-5" d="M96.65,102.56a1.12,1.12,0,0,1-1.77.22,1.11,1.11,0,0,1-.33-.79,1.14,1.14,0,0,1,.15-.55l2.2-3.8-4.63-8.46a1.15,1.15,0,0,1-.1-.87,1.1,1.1,0,0,1,.55-.68,1.2,1.2,0,0,1,.87-.07,1.07,1.07,0,0,1,.66.52l4,7.26,4.17-7.28a1.15,1.15,0,0,1,.69-.52,1.19,1.19,0,0,1,.86.12,1.05,1.05,0,0,1,.56,1,1,1,0,0,1-.16.55Z" transform="translate(-1.27 -1.58)"/><path class="cls-5" d="M111.21,99.69a6.13,6.13,0,0,1-2.33-.46,6.21,6.21,0,0,1-2-1.34,6,6,0,0,1-1.33-2,6.23,6.23,0,0,1,0-4.65,6.15,6.15,0,0,1,3.3-3.3,6.12,6.12,0,0,1,2.33-.45,5.93,5.93,0,0,1,3.7,1.25,6.24,6.24,0,0,1,1.34,1.42,6.36,6.36,0,0,1,.84,1.83,3.22,3.22,0,0,1,.1.75,2.7,2.7,0,0,1-.23,1.09,3,3,0,0,1-.6.89,2.94,2.94,0,0,1-.87.6,2.64,2.64,0,0,1-1.08.22h-6.5a3.83,3.83,0,0,0,3.3,1.88,1.12,1.12,0,0,1,.8,1.91A1.07,1.07,0,0,1,111.21,99.69Zm-3.83-6.38h7a.44.44,0,0,0,.45-.24.82.82,0,0,0,0-.49,3.76,3.76,0,0,0-1.37-2,3.71,3.71,0,0,0-2.33-.79,3.83,3.83,0,0,0-1.43.27,3.93,3.93,0,0,0-1.19.77,4,4,0,0,0-.83,1.12A3.47,3.47,0,0,0,107.38,93.31Z" transform="translate(-1.27 -1.58)"/><path class="cls-5" d="M129.69,89.31a6,6,0,0,1,1.8,4.33v3.07a1,1,0,0,1-.34.8,1.12,1.12,0,0,1-1.91-.8V93.64a3.72,3.72,0,0,0-.31-1.52,4.12,4.12,0,0,0-.84-1.24,3.91,3.91,0,0,0-1.22-.82,3.79,3.79,0,0,0-1.5-.3,3.85,3.85,0,0,0-3.88,3.88v3.07a1,1,0,0,1-.34.8,1.12,1.12,0,0,1-1.59,0,1.06,1.06,0,0,1-.32-.8V88.63a1.09,1.09,0,0,1,.32-.8,1.14,1.14,0,0,1,1.93.8v.25a5.9,5.9,0,0,1,3.88-1.37,6,6,0,0,1,4.32,1.8Z" transform="translate(-1.27 -1.58)"/><path class="cls-5" d="M144.15,89.31a6.21,6.21,0,0,1,1.34,2,6,6,0,0,1,.46,2.36v3.07a1,1,0,0,1-.34.8,1.08,1.08,0,0,1-.78.33,1.13,1.13,0,0,1-1.13-1.13V93.64a3.72,3.72,0,0,0-.31-1.52,4.12,4.12,0,0,0-.84-1.24,3.84,3.84,0,0,0-1.23-.82,3.72,3.72,0,0,0-1.5-.3,3.84,3.84,0,0,0-1.51.3,3.78,3.78,0,0,0-1.24.82,4,4,0,0,0-1.13,2.76v3.07a1.06,1.06,0,0,1-.33.8,1.11,1.11,0,0,1-.79.33,1.08,1.08,0,0,1-.8-.33,1.06,1.06,0,0,1-.32-.8V88.63a1.09,1.09,0,0,1,.32-.8,1.07,1.07,0,0,1,.8-.32,1.11,1.11,0,0,1,1.12,1.12v.25a6.18,6.18,0,0,1,6.22-.91A6,6,0,0,1,144.15,89.31Z" transform="translate(-1.27 -1.58)"/><path class="cls-5" d="M160.43,97.86a1,1,0,0,1,.28.71.89.89,0,0,1-.3.69,1,1,0,0,1-.7.3,1,1,0,0,1-.73-.32,3.42,3.42,0,0,1-.47-.61,4.33,4.33,0,0,1-.33-.69,6.15,6.15,0,0,1-2,1.3,6,6,0,0,1-2.29.45,6.15,6.15,0,0,1-2.35-.46,6.25,6.25,0,0,1-2-1.34,6.13,6.13,0,0,1-1.32-2,6.23,6.23,0,0,1,0-4.65,6.13,6.13,0,0,1,1.32-2,6,6,0,0,1,2-1.32,6.15,6.15,0,0,1,2.35-.45A5.85,5.85,0,0,1,158,89.08v-.45a1,1,0,0,1,.28-.71,1,1,0,0,1,.72-.29,1,1,0,0,1,1,1v8.21A1.39,1.39,0,0,0,160.43,97.86Zm-6.5-.42a3.73,3.73,0,0,0,1.48-.3,3.95,3.95,0,0,0,2.05-2,3.79,3.79,0,0,0,.3-1.5,3.73,3.73,0,0,0-.3-1.48,3.87,3.87,0,0,0-.83-1.23,3.91,3.91,0,0,0-1.22-.82,3.73,3.73,0,0,0-1.48-.3,3.79,3.79,0,0,0-1.5.3,3.77,3.77,0,0,0-2.05,2,3.73,3.73,0,0,0-.3,1.48,3.79,3.79,0,0,0,.3,1.5,3.91,3.91,0,0,0,.82,1.22,3.87,3.87,0,0,0,1.23.83A3.79,3.79,0,0,0,153.93,97.44Z" transform="translate(-1.27 -1.58)"/><path class="cls-5" d="M166.14,83.35a1.56,1.56,0,0,1-.49,1.15,1.62,1.62,0,0,1-1.17.48,1.62,1.62,0,0,1-1.62-1.63,1.62,1.62,0,0,1,.47-1.17,1.56,1.56,0,0,1,1.15-.48,1.62,1.62,0,0,1,1.17.48A1.6,1.6,0,0,1,166.14,83.35Zm-1.66,14.49a1.11,1.11,0,0,1-1.12-1.13V88.63a1.13,1.13,0,0,1,.32-.8,1.09,1.09,0,0,1,.8-.32,1.06,1.06,0,0,1,.8.32,1.09,1.09,0,0,1,.33.8v8.08a1.13,1.13,0,0,1-1.13,1.13Z" transform="translate(-1.27 -1.58)"/><path class="cls-5" d="M173.61,100.66h-4.05a1.09,1.09,0,0,1-.8-.33,1.14,1.14,0,0,1-.32-.79,1.11,1.11,0,0,1,1.12-1.13h4.05a1.49,1.49,0,0,0,1.48-1.47,1.39,1.39,0,0,0-.31-.9,1.42,1.42,0,0,0-.82-.53l-2.9-.67a3.86,3.86,0,0,1-1.12-.49,3.72,3.72,0,0,1-.9-.82,3.61,3.61,0,0,1-.8-2.32,3.67,3.67,0,0,1,1.09-2.63,4,4,0,0,1,1.18-.79,3.65,3.65,0,0,1,1.43-.28h3.55a1.06,1.06,0,0,1,.8.32,1.09,1.09,0,0,1,.33.8,1.13,1.13,0,0,1-1.13,1.13h-3.55a1.43,1.43,0,0,0-1.45,1.45,1.48,1.48,0,0,0,.3.9,1.33,1.33,0,0,0,.8.52l2.9.7a4,4,0,0,1,1.13.48,3.23,3.23,0,0,1,.9.83,3.64,3.64,0,0,1,.52,3.75,4.22,4.22,0,0,1-.8,1.19,3.56,3.56,0,0,1-2.63,1.08Z" transform="translate(-1.27 -1.58)"/><g class="cls-6"><path class="cls-5" d="M69.41,71.59a7.71,7.71,0,0,1,.6,3,7.66,7.66,0,0,1-2.27,5.53,7.69,7.69,0,0,1-2.51,1.68,7.77,7.77,0,0,1-3,.62H58.63a1.11,1.11,0,0,1-.8-.32,1.09,1.09,0,0,1-.32-.8V67.94a1.09,1.09,0,0,1,.32-.81,1.11,1.11,0,0,1,.8-.32h3.58a7.68,7.68,0,0,1,3,.6,6.64,6.64,0,0,1,1.34.73,7.43,7.43,0,0,1,2.12,2.11A7.14,7.14,0,0,1,69.41,71.59Zm-3.27,7a5.63,5.63,0,0,0,1.21-1.82,5.7,5.7,0,0,0,.41-2.14,5.44,5.44,0,0,0-1.62-3.92,5.39,5.39,0,0,0-3.93-1.63H59.76V80.19h2.45a5.65,5.65,0,0,0,2.13-.41A5.76,5.76,0,0,0,66.14,78.57Z" transform="translate(-1.27 -1.58)"/><path class="cls-5" d="M84.67,80.62a1,1,0,0,1,.27.71.9.9,0,0,1-.3.69,1,1,0,0,1-.7.3,1,1,0,0,1-.72-.33,2.87,2.87,0,0,1-.48-.61,3.9,3.9,0,0,1-.32-.69,6.27,6.27,0,0,1-2,1.3,6,6,0,0,1-6.62-1.35,6,6,0,0,1-1.33-2,6.26,6.26,0,0,1,0-4.66,6,6,0,0,1,1.33-2,5.81,5.81,0,0,1,2-1.33,6.11,6.11,0,0,1,2.35-.45,5.85,5.85,0,0,1,4.07,1.58v-.45a1,1,0,0,1,.29-.72,1.05,1.05,0,0,1,1.43,0,1,1,0,0,1,.28.72v8.2A1.44,1.44,0,0,0,84.67,80.62Zm-6.5-.43a3.68,3.68,0,0,0,1.47-.3,3.77,3.77,0,0,0,2-2,3.79,3.79,0,0,0,.3-1.5,3.73,3.73,0,0,0-.3-1.48,3.91,3.91,0,0,0-.82-1.22,3.87,3.87,0,0,0-1.23-.83,3.68,3.68,0,0,0-1.47-.3,3.72,3.72,0,0,0-1.5.3,3.87,3.87,0,0,0-1.23.83,4.12,4.12,0,0,0-.83,1.22,3.73,3.73,0,0,0-.3,1.48,3.79,3.79,0,0,0,.3,1.5,4,4,0,0,0,.83,1.23,3.84,3.84,0,0,0,1.23.82A3.72,3.72,0,0,0,78.17,80.19Z" transform="translate(-1.27 -1.58)"/><path class="cls-5" d="M96.3,70.26a1.11,1.11,0,0,1,.79.33,1.07,1.07,0,0,1,.34.8v8.08a1.1,1.1,0,0,1-.34.8,1.14,1.14,0,0,1-.79.32,1.15,1.15,0,0,1-.74-.26,1.19,1.19,0,0,1-.39-.66,4.86,4.86,0,0,1-2.92.92,5.09,5.09,0,0,1-3.65-1.5,5.37,5.37,0,0,1-1.12-1.64,5,5,0,0,1-.41-2v-4a1.13,1.13,0,0,1,1.13-1.13,1.11,1.11,0,0,1,1.12,1.13v4a2.89,2.89,0,0,0,.23,1.13,3,3,0,0,0,.62.92,2.88,2.88,0,0,0,.94.63,2.93,2.93,0,0,0,1.14.22,2.85,2.85,0,0,0,1.13-.22,2.9,2.9,0,0,0,.92-.63,2.72,2.72,0,0,0,.62-.92,2.89,2.89,0,0,0,.23-1.13.22.22,0,0,1,0-.1v-4a1.06,1.06,0,0,1,.33-.8A1.08,1.08,0,0,1,96.3,70.26Z" transform="translate(-1.27 -1.58)"/><path class="cls-5" d="M110.71,72a6.21,6.21,0,0,1,1.34,2,6.13,6.13,0,0,1,0,4.66,6.21,6.21,0,0,1-1.34,2,5.91,5.91,0,0,1-2,1.33,6.17,6.17,0,0,1-4.36.1,6.15,6.15,0,0,1-1.79-1v3.67a1.13,1.13,0,0,1-1.13,1.13,1.11,1.11,0,0,1-1.12-1.13V71.39a1.11,1.11,0,0,1,1.12-1.13,1.13,1.13,0,0,1,1.13,1.13v.22a6.15,6.15,0,0,1,1.79-1,6.17,6.17,0,0,1,4.36.1A5.91,5.91,0,0,1,110.71,72Zm-4.31,8.13a3.8,3.8,0,0,0,1.51-.3,3.91,3.91,0,0,0,1.22-.82,3.68,3.68,0,0,0,.83-1.21,3.9,3.9,0,0,0,0-3,3.68,3.68,0,0,0-.83-1.21,3.91,3.91,0,0,0-1.22-.82,3.8,3.8,0,0,0-1.51-.3,3.63,3.63,0,0,0-1.48.3,3.91,3.91,0,0,0-1.22.82,3.65,3.65,0,0,0-.82,1.21,3.9,3.9,0,0,0,0,3,3.65,3.65,0,0,0,.82,1.21,3.91,3.91,0,0,0,1.22.82A3.63,3.63,0,0,0,106.4,80.17Z" transform="translate(-1.27 -1.58)"/><path class="cls-5" d="M125.34,72.06a6,6,0,0,1,1.78,4.33v3.08a1.09,1.09,0,0,1-.33.8,1.11,1.11,0,0,1-.8.32,1.14,1.14,0,0,1-.79-.32,1.1,1.1,0,0,1-.34-.8V76.39a3.67,3.67,0,0,0-.3-1.51,3.78,3.78,0,0,0-2.06-2.07,3.84,3.84,0,0,0-1.51-.3,3.72,3.72,0,0,0-1.5.3,3.87,3.87,0,0,0-1.23.83,4,4,0,0,0-.84,1.24,3.85,3.85,0,0,0-.31,1.51v3.08A1.09,1.09,0,0,1,116,80.59a1.1,1.1,0,0,1-.79-.32,1.07,1.07,0,0,1-.34-.8V66.08A1.16,1.16,0,0,1,116,65a1.07,1.07,0,0,1,.8.34,1.1,1.1,0,0,1,.32.78v5.56A5.93,5.93,0,0,1,121,70.26a6,6,0,0,1,4.35,1.8Z" transform="translate(-1.27 -1.58)"/><path class="cls-5" d="M132.44,66.11a1.56,1.56,0,0,1-.48,1.15,1.62,1.62,0,0,1-1.17.47,1.6,1.6,0,0,1-1.62-1.62,1.61,1.61,0,0,1,1.62-1.65,1.66,1.66,0,0,1,1.17.47A1.6,1.6,0,0,1,132.44,66.11Zm-1.65,14.48a1.11,1.11,0,0,1-.8-.32,1.09,1.09,0,0,1-.32-.8V71.39a1.06,1.06,0,0,1,.32-.8,1.08,1.08,0,0,1,.8-.33,1.13,1.13,0,0,1,1.13,1.13v8.08a1.11,1.11,0,0,1-1.13,1.12Z" transform="translate(-1.27 -1.58)"/><path class="cls-5" d="M145.45,72.06a6.36,6.36,0,0,1,1.34,2,6,6,0,0,1,.46,2.35v3.08a1.07,1.07,0,0,1-.34.8,1.1,1.1,0,0,1-.79.32A1.09,1.09,0,0,1,145,79.47V76.39a3.85,3.85,0,0,0-.31-1.51,4,4,0,0,0-.84-1.24,3.87,3.87,0,0,0-1.23-.83,3.76,3.76,0,0,0-1.5-.3,3.87,3.87,0,0,0-2.75,1.13,4,4,0,0,0-.83,1.24,3.83,3.83,0,0,0-.29,1.51v3.08a1.1,1.1,0,0,1-.34.8,1.14,1.14,0,0,1-.79.32,1.11,1.11,0,0,1-.8-.32,1.09,1.09,0,0,1-.33-.8V71.39a1.06,1.06,0,0,1,.33-.8,1.08,1.08,0,0,1,.8-.33,1.11,1.11,0,0,1,.79.33,1.07,1.07,0,0,1,.34.8v.25a5.85,5.85,0,0,1,3.87-1.38,6,6,0,0,1,4.33,1.8Z" transform="translate(-1.27 -1.58)"/><path class="cls-5" d="M154.73,83.42h-4a1,1,0,0,1-.8-.34,1.12,1.12,0,0,1,.8-1.91h4a1.47,1.47,0,0,0,.35-2.9l-2.9-.68a3.66,3.66,0,0,1-1.13-.49,3.49,3.49,0,0,1-.9-.81,3.78,3.78,0,0,1-.51-3.78,3.53,3.53,0,0,1,.8-1.17,3.69,3.69,0,0,1,1.19-.79,3.61,3.61,0,0,1,1.42-.29h3.56a1.11,1.11,0,0,1,1.12,1.13,1.09,1.09,0,0,1-1.12,1.12h-3.56A1.47,1.47,0,0,0,151.6,74a1.44,1.44,0,0,0,.3.9,1.38,1.38,0,0,0,.8.53l2.9.7a3.89,3.89,0,0,1,1.13.48,3.2,3.2,0,0,1,.9.82,3.57,3.57,0,0,1,.83,2.3,3.52,3.52,0,0,1-.3,1.45,4.08,4.08,0,0,1-.8,1.19,3.67,3.67,0,0,1-2.63,1.09Z" transform="translate(-1.27 -1.58)"/><path class="cls-5" d="M74,101.2a1.07,1.07,0,0,1-.8-.34,1.1,1.1,0,0,1-.32-.78V90.67l-5.48,8.86a1.05,1.05,0,0,1-1,.55,1.09,1.09,0,0,1-1-.55L60,90.67v9.41a1.07,1.07,0,0,1-.33.78,1,1,0,0,1-.8.34,1.14,1.14,0,0,1-1.12-1.12V86.72a1.08,1.08,0,0,1,.23-.68,1.29,1.29,0,0,1,.59-.42,1.14,1.14,0,0,1,.73,0,1.12,1.12,0,0,1,.55.46l6.6,10.68L73,86.12a1.06,1.06,0,0,1,.56-.46,1.09,1.09,0,0,1,.71,0,1.24,1.24,0,0,1,.59.42,1.09,1.09,0,0,1,.24.68v13.36a1.1,1.1,0,0,1-.32.78A1.07,1.07,0,0,1,74,101.2Z" transform="translate(-1.27 -1.58)"/><path class="cls-5" d="M90.12,99.38a1,1,0,0,1,.28.71.9.9,0,0,1-.3.69,1,1,0,0,1-.7.3,1,1,0,0,1-.73-.33,2.83,2.83,0,0,1-.47-.61,3.35,3.35,0,0,1-.33-.69,6.15,6.15,0,0,1-2,1.3,6.14,6.14,0,0,1-4.64,0,6.25,6.25,0,0,1-2-1.34,6,6,0,0,1-1.32-2,6.26,6.26,0,0,1,0-4.66,6,6,0,0,1,1.32-2,5.91,5.91,0,0,1,2-1.33A6.11,6.11,0,0,1,83.62,89,5.85,5.85,0,0,1,87.7,90.6v-.45a1,1,0,0,1,1-1,1,1,0,0,1,.71.28,1,1,0,0,1,.29.72v8.2A1.43,1.43,0,0,0,90.12,99.38ZM83.62,99a3.65,3.65,0,0,0,1.47-.3,3.84,3.84,0,0,0,1.23-.82,4,4,0,0,0,.83-1.23,3.79,3.79,0,0,0,.3-1.5,3.73,3.73,0,0,0-.3-1.48,4.12,4.12,0,0,0-.83-1.22,3.87,3.87,0,0,0-1.23-.83,3.65,3.65,0,0,0-1.47-.3,3.76,3.76,0,0,0-1.5.3,3.87,3.87,0,0,0-1.23.83,3.91,3.91,0,0,0-.82,1.22,3.73,3.73,0,0,0-.3,1.48,3.79,3.79,0,0,0,.3,1.5,3.77,3.77,0,0,0,2.05,2.05A3.76,3.76,0,0,0,83.62,99Z" transform="translate(-1.27 -1.58)"/><path class="cls-5" d="M96.65,104.08a1.07,1.07,0,0,1-1,.55,1,1,0,0,1-.8-.34,1.09,1.09,0,0,1-.33-.79,1.17,1.17,0,0,1,.15-.55l2.2-3.8L92.27,90.7a1.18,1.18,0,0,1-.1-.88,1.08,1.08,0,0,1,.55-.67,1.2,1.2,0,0,1,.87-.08,1.09,1.09,0,0,1,.66.53l4,7.25,4.17-7.28a1.1,1.1,0,0,1,.69-.51,1.13,1.13,0,0,1,.86.11,1.1,1.1,0,0,1,.4,1.53Z" transform="translate(-1.27 -1.58)"/><path class="cls-5" d="M111.21,101.2a5.94,5.94,0,0,1-2.33-.46,6.21,6.21,0,0,1-2-1.34,5.87,5.87,0,0,1-1.33-2,6.26,6.26,0,0,1,0-4.66,6.24,6.24,0,0,1,3.3-3.3,6.12,6.12,0,0,1,2.33-.45,6,6,0,0,1,2,.33,5.82,5.82,0,0,1,1.72.92,6.29,6.29,0,0,1,1.34,1.43,6.43,6.43,0,0,1,.84,1.82,3.22,3.22,0,0,1,.1.75,2.66,2.66,0,0,1-.23,1.09,2.91,2.91,0,0,1-.6.89,2.94,2.94,0,0,1-.87.6,2.65,2.65,0,0,1-1.08.23h-6.5a3.79,3.79,0,0,0,3.3,1.87,1.12,1.12,0,0,1,.8,1.91A1.07,1.07,0,0,1,111.21,101.2Zm-3.83-6.38h7a.43.43,0,0,0,.45-.23.82.82,0,0,0,0-.49,3.82,3.82,0,0,0-1.37-2,3.77,3.77,0,0,0-2.33-.79,3.65,3.65,0,0,0-1.43.28,3.9,3.9,0,0,0-1.19.76,4,4,0,0,0-.83,1.13A3.38,3.38,0,0,0,107.38,94.82Z" transform="translate(-1.27 -1.58)"/><path class="cls-5" d="M129.69,90.82a6.09,6.09,0,0,1,1.34,2,6,6,0,0,1,.46,2.35v3.08a1.07,1.07,0,0,1-.34.8,1.12,1.12,0,0,1-1.91-.8V95.15a3.68,3.68,0,0,0-.31-1.51,4,4,0,0,0-.84-1.24,3.94,3.94,0,0,0-1.22-.83,3.79,3.79,0,0,0-1.5-.3,3.88,3.88,0,0,0-2.76,1.13,3.78,3.78,0,0,0-.82,1.24,3.84,3.84,0,0,0-.3,1.51v3.08a1.07,1.07,0,0,1-.34.8,1.15,1.15,0,0,1-1.59,0,1.09,1.09,0,0,1-.32-.8V90.15a1.06,1.06,0,0,1,.32-.8,1.12,1.12,0,0,1,1.59,0,1,1,0,0,1,.34.8v.25A5.85,5.85,0,0,1,125.37,89a6.16,6.16,0,0,1,2.33.46A6.08,6.08,0,0,1,129.69,90.82Z" transform="translate(-1.27 -1.58)"/><path class="cls-5" d="M144.15,90.82a6.25,6.25,0,0,1,1.34,2,6,6,0,0,1,.46,2.35v3.08a1.07,1.07,0,0,1-.34.8,1.11,1.11,0,0,1-.78.32,1.11,1.11,0,0,1-1.13-1.12V95.15a3.68,3.68,0,0,0-.31-1.51,4,4,0,0,0-.84-1.24,3.87,3.87,0,0,0-1.23-.83,3.72,3.72,0,0,0-1.5-.3,3.87,3.87,0,0,0-2.75,1.13,3.78,3.78,0,0,0-.82,1.24,3.85,3.85,0,0,0-.31,1.51v3.08a1.09,1.09,0,0,1-.33.8,1.14,1.14,0,0,1-.79.32A1.11,1.11,0,0,1,134,99a1.09,1.09,0,0,1-.32-.8V90.15a1.06,1.06,0,0,1,.32-.8,1.08,1.08,0,0,1,.8-.33,1.11,1.11,0,0,1,.79.33,1.06,1.06,0,0,1,.33.8v.25A5.89,5.89,0,0,1,139.82,89a6,6,0,0,1,4.33,1.8Z" transform="translate(-1.27 -1.58)"/><path class="cls-5" d="M160.43,99.38a1,1,0,0,1,.28.71.9.9,0,0,1-.3.69,1,1,0,0,1-.7.3,1,1,0,0,1-.73-.33,2.83,2.83,0,0,1-.47-.61,4,4,0,0,1-.33-.69,6.15,6.15,0,0,1-2,1.3,6.14,6.14,0,0,1-4.64,0,6.25,6.25,0,0,1-2-1.34,6,6,0,0,1-1.32-2,6.26,6.26,0,0,1,0-4.66,6,6,0,0,1,1.32-2,5.91,5.91,0,0,1,2-1.33,6.15,6.15,0,0,1,2.35-.45A5.85,5.85,0,0,1,158,90.6v-.45a1,1,0,0,1,1-1,1,1,0,0,1,.71.28,1,1,0,0,1,.29.72v8.2A1.43,1.43,0,0,0,160.43,99.38Zm-6.5-.43a3.73,3.73,0,0,0,1.48-.3,3.91,3.91,0,0,0,1.22-.82,3.87,3.87,0,0,0,.83-1.23,3.79,3.79,0,0,0,.3-1.5,3.73,3.73,0,0,0-.3-1.48,3.95,3.95,0,0,0-2.05-2.05,3.73,3.73,0,0,0-1.48-.3,3.79,3.79,0,0,0-1.5.3,3.87,3.87,0,0,0-1.23.83,3.91,3.91,0,0,0-.82,1.22,3.73,3.73,0,0,0-.3,1.48,3.79,3.79,0,0,0,.3,1.5,3.77,3.77,0,0,0,2.05,2.05A3.79,3.79,0,0,0,153.93,99Z" transform="translate(-1.27 -1.58)"/><path class="cls-5" d="M166.14,84.87a1.57,1.57,0,0,1-.49,1.15,1.62,1.62,0,0,1-1.17.47,1.55,1.55,0,0,1-1.15-.47,1.59,1.59,0,0,1-.47-1.15,1.63,1.63,0,0,1,.47-1.18,1.59,1.59,0,0,1,1.15-.47,1.66,1.66,0,0,1,1.17.47A1.61,1.61,0,0,1,166.14,84.87Zm-1.66,14.48a1.09,1.09,0,0,1-1.12-1.12V90.15A1.11,1.11,0,0,1,164.48,89a1.13,1.13,0,0,1,1.13,1.13v8.08a1.11,1.11,0,0,1-1.13,1.12Z" transform="translate(-1.27 -1.58)"/><path class="cls-5" d="M173.61,102.18h-4.05a1.07,1.07,0,0,1-.8-.34,1.12,1.12,0,0,1,.8-1.91h4.05a1.41,1.41,0,0,0,1-.44,1.39,1.39,0,0,0,.44-1,1.43,1.43,0,0,0-.31-.9A1.41,1.41,0,0,0,174,97l-2.9-.68a3.61,3.61,0,0,1-1.12-.49,3.49,3.49,0,0,1-.9-.81,3.64,3.64,0,0,1-.8-2.33,3.54,3.54,0,0,1,.29-1.45,3.39,3.39,0,0,1,.8-1.17A3.72,3.72,0,0,1,171.94,89h3.55a1.13,1.13,0,0,1,1.13,1.13,1.11,1.11,0,0,1-1.13,1.12h-3.55a1.44,1.44,0,0,0-1,.43,1.39,1.39,0,0,0-.42,1,1.44,1.44,0,0,0,.3.9,1.35,1.35,0,0,0,.8.53l2.9.7a4,4,0,0,1,1.13.48,3.2,3.2,0,0,1,.9.82,3.56,3.56,0,0,1,.82,2.3,3.52,3.52,0,0,1-.3,1.45,4.08,4.08,0,0,1-.8,1.19,3.53,3.53,0,0,1-1.17.8A3.73,3.73,0,0,1,173.61,102.18Z" transform="translate(-1.27 -1.58)"/></g></svg>