<?xml version="1.0" encoding="utf-8"?>
<!-- Generator: Adobe Illustrator 23.0.0, SVG Export Plug-In . SVG Version: 6.00 Build 0)  -->
<svg version="1.1" id="Calque_1" xmlns="http://www.w3.org/2000/svg" xmlns:xlink="http://www.w3.org/1999/xlink" x="0px" y="0px"
	 viewBox="0 0 266.5 74.7" style="enable-background:new 0 0 266.5 74.7;" xml:space="preserve">
<style type="text/css">
	.st0{fill:none;stroke:#000000;stroke-width:4;stroke-miterlimit:10;}
</style>
<image style="display:none;overflow:visible;" width="273" height="72" xlink:href="F158BB02.png"  transform="matrix(1 0 0 1 805.3333 472)">
</image>
<path class="st0" d="M2.9,3h28.3c22.9,0,21.5,42.1,2.9,43.1c0,0.4,0,0.3,0,11c0,13-20.3,13-20.3,0s0-42.9,0-42.9h13.8
	c15.7,0,14.3,23-3.8,23c0,0,0,11.3,0,25.3s-20.1,12-20.1,0S2.9,3,2.9,3z"/>
<g>
	<path d="M74.1,33.7c-0.4,0.2-1.3,0.4-2.4,0.4c-2.6,0-4.5-1.6-4.5-4.6c0-2.8,1.9-4.8,4.8-4.8c1.1,0,1.9,0.2,2.2,0.4l-0.3,1
		c-0.4-0.2-1.1-0.4-1.8-0.4c-2.1,0-3.6,1.4-3.6,3.7c0,2.2,1.3,3.6,3.5,3.6c0.7,0,1.4-0.1,1.9-0.4L74.1,33.7z"/>
	<path d="M79.4,24.9V34h-1.2v-9.1H79.4z"/>
	<path d="M85.9,25.9h-2.8v-1h6.7v1h-2.8V34h-1.2V25.9z"/>
	<path d="M98.3,29.7h-3.5V33h3.9v1h-5.1v-9.1h4.9v1h-3.7v2.9h3.5V29.7z M98.1,22.8l-1.7,1.6h-1l1.3-1.6H98.1z"/>
	<path d="M108.5,25c0.7-0.1,1.6-0.2,2.5-0.2c1.7,0,2.9,0.4,3.7,1.1c0.8,0.7,1.3,1.8,1.3,3.3c0,1.5-0.5,2.7-1.3,3.5
		c-0.9,0.8-2.3,1.3-4,1.3c-0.8,0-1.5,0-2.1-0.1V25z M109.7,33c0.3,0.1,0.7,0.1,1.2,0.1c2.5,0,3.9-1.4,3.9-3.8c0-2.1-1.2-3.5-3.7-3.5
		c-0.6,0-1.1,0.1-1.4,0.1V33z"/>
	<path d="M124.9,29.7h-3.5V33h3.9v1h-5.1v-9.1h4.9v1h-3.7v2.9h3.5V29.7z"/>
	<path d="M135.1,24.9h1.2V33h3.9v1h-5.1V24.9z"/>
	<path d="M145.6,31.1l-0.9,2.9h-1.2l3.1-9.1h1.4l3.1,9.1h-1.3l-1-2.9H145.6z M148.6,30.2l-0.9-2.6c-0.2-0.6-0.3-1.1-0.5-1.7h0
		c-0.1,0.5-0.3,1.1-0.5,1.6l-0.9,2.6H148.6z"/>
	<path d="M168.3,30c-0.1-1.3-0.1-2.8-0.1-3.9h0c-0.3,1.1-0.7,2.2-1.1,3.4l-1.6,4.4h-0.9l-1.5-4.3c-0.4-1.3-0.8-2.4-1.1-3.5h0
		c0,1.1-0.1,2.7-0.2,4l-0.2,3.9h-1.1l0.6-9.1h1.5l1.6,4.4c0.4,1.1,0.7,2.1,0.9,3.1h0c0.2-0.9,0.6-1.9,1-3.1l1.6-4.4h1.5l0.6,9.1
		h-1.1L168.3,30z"/>
	<path d="M175.4,24.9v5.4c0,2,0.9,2.9,2.1,2.9c1.4,0,2.2-0.9,2.2-2.9v-5.4h1.2v5.3c0,2.8-1.5,3.9-3.4,3.9c-1.9,0-3.3-1.1-3.3-3.9
		v-5.3H175.4z"/>
	<path d="M185.5,32.5c0.5,0.3,1.3,0.6,2.1,0.6c1.2,0,1.9-0.6,1.9-1.5c0-0.8-0.5-1.3-1.7-1.8c-1.5-0.5-2.4-1.3-2.4-2.6
		c0-1.4,1.2-2.5,2.9-2.5c0.9,0,1.6,0.2,2,0.4l-0.3,1c-0.3-0.2-0.9-0.4-1.7-0.4c-1.2,0-1.7,0.7-1.7,1.4c0,0.8,0.6,1.3,1.8,1.7
		c1.5,0.6,2.3,1.3,2.3,2.7c0,1.4-1,2.6-3.2,2.6c-0.9,0-1.8-0.3-2.3-0.6L185.5,32.5z"/>
	<path d="M196.2,24.9V34H195v-9.1H196.2z"/>
	<path d="M208.4,35.3c-1.2-0.3-2.4-0.7-3.5-1c-0.2-0.1-0.4-0.1-0.6-0.1c-2.2-0.1-4-1.7-4-4.6c0-2.9,1.8-4.8,4.2-4.8
		c2.5,0,4.1,1.9,4.1,4.6c0,2.3-1.1,3.8-2.6,4.3v0.1c0.9,0.2,1.9,0.4,2.7,0.6L208.4,35.3z M207.5,29.4c0-1.8-0.9-3.7-2.9-3.7
		c-2,0-3,1.8-2.9,3.8c0,1.9,1.1,3.7,2.9,3.7C206.4,33.2,207.5,31.5,207.5,29.4z"/>
	<path d="M214.1,24.9v5.4c0,2,0.9,2.9,2.1,2.9c1.4,0,2.2-0.9,2.2-2.9v-5.4h1.2v5.3c0,2.8-1.5,3.9-3.4,3.9c-1.9,0-3.3-1.1-3.3-3.9
		v-5.3H214.1z"/>
	<path d="M229.1,29.7h-3.5V33h3.9v1h-5.1v-9.1h4.9v1h-3.7v2.9h3.5V29.7z"/>
</g>
<g>
	<path d="M67.8,43.8c0.6-0.1,1.5-0.2,2.5-0.2c1.3,0,2.3,0.3,2.9,0.9c0.6,0.5,0.9,1.2,0.9,2.1c0,0.9-0.3,1.7-0.8,2.2
		c-0.7,0.7-1.8,1.1-3.1,1.1c-0.4,0-0.8,0-1.1-0.1v4.1h-1.3V43.8z M69.2,48.7c0.3,0.1,0.7,0.1,1.1,0.1c1.6,0,2.6-0.8,2.6-2.2
		c0-1.4-1-2-2.4-2c-0.6,0-1,0-1.3,0.1V48.7z"/>
	<path d="M79.3,43.7V48h5v-4.3h1.3v10.2h-1.3v-4.8h-5v4.8H78V43.7H79.3z"/>
	<path d="M91.3,43.7v10.2H90V43.7H91.3z"/>
	<path d="M95.6,43.7h1.3v9.1h4.4v1.1h-5.7V43.7z"/>
	<path d="M106.2,43.7V48h5v-4.3h1.3v10.2h-1.3v-4.8h-5v4.8h-1.3V43.7H106.2z"/>
	<path d="M118.5,50.7l-1.1,3.2H116l3.5-10.2h1.6l3.5,10.2h-1.4l-1.1-3.2H118.5z M121.8,49.7l-1-2.9c-0.2-0.7-0.4-1.3-0.5-1.9h0
		c-0.2,0.6-0.3,1.2-0.5,1.9l-1,3H121.8z"/>
	<path d="M128.2,43.8c0.7-0.1,1.6-0.2,2.5-0.2c1.4,0,2.3,0.3,3,0.8c0.5,0.5,0.8,1.2,0.8,1.9c0,1.4-0.9,2.2-1.9,2.6v0
		c0.8,0.3,1.3,1,1.5,2.1c0.3,1.4,0.6,2.4,0.8,2.8h-1.4c-0.2-0.3-0.4-1.2-0.7-2.4c-0.3-1.4-0.9-1.9-2.1-2h-1.3v4.4h-1.3V43.8z
		 M129.5,48.5h1.4c1.4,0,2.3-0.8,2.3-1.9c0-1.3-1-1.9-2.4-1.9c-0.6,0-1.1,0.1-1.3,0.1V48.5z"/>
	<path d="M147.1,49.4c-0.1-1.4-0.2-3.1-0.2-4.4h0c-0.4,1.2-0.8,2.5-1.3,3.9l-1.8,5h-1l-1.7-4.9c-0.5-1.4-0.9-2.8-1.2-4h0
		c0,1.3-0.1,3-0.2,4.5l-0.3,4.4h-1.3l0.7-10.2h1.7l1.8,5c0.4,1.3,0.8,2.4,1,3.5h0c0.3-1,0.6-2.2,1.1-3.5l1.8-5h1.7l0.6,10.2h-1.3
		L147.1,49.4z"/>
	<path d="M161.5,48.7c0,3.5-2.1,5.4-4.8,5.4c-2.7,0-4.6-2.1-4.6-5.2c0-3.3,2-5.4,4.8-5.4C159.7,43.5,161.5,45.7,161.5,48.7z
		 M153.5,48.9c0,2.2,1.2,4.1,3.3,4.1c2.1,0,3.3-1.9,3.3-4.3c0-2-1.1-4.2-3.3-4.2C154.6,44.6,153.5,46.6,153.5,48.9z"/>
	<path d="M165.2,53.9V43.7h1.4l3.3,5.2c0.8,1.2,1.4,2.3,1.8,3.3l0,0c-0.1-1.4-0.2-2.6-0.2-4.2v-4.3h1.3v10.2h-1.3l-3.3-5.2
		c-0.7-1.1-1.4-2.3-1.9-3.4l0,0c0.1,1.3,0.1,2.5,0.1,4.2v4.4H165.2z"/>
	<path d="M178.6,43.7v10.2h-1.3V43.7H178.6z"/>
	<path d="M188.3,49.1h-4v3.7h4.5v1.1H183V43.7h5.5v1.1h-4.2V48h4V49.1z"/>
	<path d="M197.8,43.8c0.8-0.1,1.8-0.2,2.8-0.2c1.9,0,3.3,0.4,4.2,1.3c0.9,0.8,1.4,2,1.4,3.7c0,1.7-0.5,3-1.5,4c-1,1-2.5,1.5-4.5,1.5
		c-0.9,0-1.7,0-2.4-0.1V43.8z M199.1,52.9c0.3,0.1,0.8,0.1,1.3,0.1c2.8,0,4.4-1.6,4.4-4.3c0-2.4-1.4-4-4.2-4c-0.7,0-1.2,0.1-1.6,0.1
		V52.9z"/>
	<path d="M215.3,49.1h-4v3.7h4.5v1.1h-5.8V43.7h5.5v1.1h-4.2V48h4V49.1z"/>
	<path d="M224.7,43.8c0.6-0.1,1.5-0.2,2.5-0.2c1.3,0,2.3,0.3,2.9,0.9c0.6,0.5,0.9,1.2,0.9,2.1c0,0.9-0.3,1.7-0.8,2.2
		c-0.7,0.7-1.8,1.1-3.1,1.1c-0.4,0-0.8,0-1.1-0.1v4.1h-1.3V43.8z M226.1,48.7c0.3,0.1,0.7,0.1,1.1,0.1c1.6,0,2.6-0.8,2.6-2.2
		c0-1.4-1-2-2.4-2c-0.6,0-1,0-1.3,0.1V48.7z"/>
	<path d="M235.2,50.7l-1.1,3.2h-1.4l3.5-10.2h1.6l3.5,10.2H240l-1.1-3.2H235.2z M238.6,49.7l-1-2.9c-0.2-0.7-0.4-1.3-0.5-1.9h0
		c-0.2,0.6-0.3,1.2-0.5,1.9l-1,3H238.6z"/>
	<path d="M244.9,43.8c0.7-0.1,1.6-0.2,2.5-0.2c1.4,0,2.3,0.3,3,0.8c0.5,0.5,0.8,1.2,0.8,1.9c0,1.4-0.9,2.2-1.9,2.6v0
		c0.8,0.3,1.3,1,1.5,2.1c0.3,1.4,0.6,2.4,0.8,2.8h-1.4c-0.2-0.3-0.4-1.2-0.7-2.4c-0.3-1.4-0.9-1.9-2.1-2h-1.3v4.4h-1.3V43.8z
		 M246.3,48.5h1.4c1.4,0,2.3-0.8,2.3-1.9c0-1.3-1-1.9-2.4-1.9c-0.6,0-1.1,0.1-1.3,0.1V48.5z"/>
	<path d="M256.5,43.7v10.2h-1.3V43.7H256.5z"/>
	<path d="M260.7,52.3c0.6,0.4,1.5,0.7,2.4,0.7c1.4,0,2.1-0.7,2.1-1.7c0-1-0.5-1.5-1.9-2c-1.7-0.6-2.7-1.5-2.7-2.9
		c0-1.6,1.3-2.8,3.3-2.8c1.1,0,1.8,0.2,2.3,0.5l-0.4,1.1c-0.3-0.2-1-0.5-2-0.5c-1.4,0-1.9,0.8-1.9,1.5c0,1,0.6,1.4,2,2
		c1.7,0.7,2.6,1.5,2.6,3c0,1.6-1.2,2.9-3.6,2.9c-1,0-2.1-0.3-2.6-0.7L260.7,52.3z"/>
</g>
</svg>
