<svg xmlns="http://www.w3.org/2000/svg" width="66.381" height="116.4" viewBox="0 0 66.381 116.4">
  <path id="Tracé_49" data-name="Tracé 49" d="M65.311,28.841h-.254c-.085,0-.127.3-.169,0h-1.65c-.042-.149-.085-.149-.169-.149h-1.1c-.169-.3-.212.149-.423,0h-.466c-.127,0-.127-.3-.254-.149-.212.149-.254,0-.55,0-.592.149-1.016-.3-1.608-.149-.085,0-.127-.149-.212-.149h-.423c-.085,0-.127-.149-.212-.149-.127-.149-.423.3-.466-.149.085,0,.169,0,.169-.149-.889-.149-1.862.149-2.666-.149-.085,0-.127.149-.212.149a.178.178,0,0,0-.212-.149h-.466c-.127-.149-.381.3-.423-.149.127,0,.254,0,.254-.3-.212-.149-.3.149-.466.149H52.277c-.085-.149-.169.6-.212,0,0-.3.169,0,.169-.3-.381-.149-.677.149-.973.3-.127-.149-.423.3-.466-.149.127,0,.254-.149.339-.3-.55-.3-1.354.894-1.989.149h-.973c-.042,0-.042-.3-.127-.3-.042.447-.254,0-.381.149-.085,0-.127-.149-.212-.149a.6.6,0,0,1-.931,0H45.505c-.042-.149-.085-.149-.169-.149H43.22c-.085-.6-.127-.6-.212-.6-1.989-.149-3.513.3-5.5.149-.423.447-1.143-.149-1.566.3-.55-.149-.931.3-1.439.149-.127.3-.3.149-.423.3h-.592a4.578,4.578,0,0,1-1.9.745c-.085,0-.127-.149-.212-.149-.3,0-.677-.149-.931.149-.127-.3-.423-.149-.635-.149-.381.6-.931.447-1.354.6-.127-.3-.127.149-.212-.149,0-.447-.212-.149-.254-.149s-.042.3-.127.3h-.212c.085.745-.169.3-.127.894.127.447.381.3.592.6-.042,1.788.8.447,1.016,1.49-.339,0-.635.6-.973.149-.085.745.339,0,.339.6.127.149.381-.3.423.149-.085.3-.3.149-.381.3h-.423c-.042.745.381.3.381.894h-.169c-.042.745.254.447.254,1.043-.169.149-.508-.3-.592.149.381.149.677.6,1.016.745.169.149.3.447.508.6.085.447.339.149.339.894.254-.149.3.3.466.3s.423-.149.423.3c-.127.3-.339.149-.466.3,0-.3-.042-.3-.127-.3-.042.149-.042.447-.169.3h-.423a3.864,3.864,0,0,1-.127-.6c-.339.149-.339-.894-.635-.745.042.447-.085.447-.042.894.085.3.3.149.339.745-.127,0-.042.6-.042.894a2.408,2.408,0,0,1-.212.894,8.306,8.306,0,0,1-.042,1.49c-.3-.149-.423.3-.762.149-.169.3-.466.3-.635.745-.085.149-.254,0-.339.3-.127,0-.254.149-.339.3.381.149.846-.6,1.1.149-.212.3-.466.3-.635.6-.212,0-.423,0-.55.3.127-.149.085.3.169.3h.254c-.042.447.085.3.127.6,0,.3.127.149.127,0-.085-.149,0-.149.042-.149.127,0-.042.745.169.6.042,0,.042,0,.042.149.254.3.381-.745.55-.149-.085.447-.3.447-.466.6,0,.447.085.6-.042.745-.212.447-.212-.3-.508-.149-.085.894.339.3.381.745a8.421,8.421,0,0,0,.042,1.788.178.178,0,0,1-.212.149c0,.3.042.894-.127.745a3,3,0,0,1-.127.6,12.6,12.6,0,0,0,0,1.788c-.127,0-.169,0-.169.3-.127.3-.085,1.043-.254,1.192-.042.3.169.6,0,.745-.042.3.212.447.042.6-.127,0-.212,0-.212.3.085,0,.254-.149.212.3.254.149-.042-.3.127-.3.127.149.085.6.212.149.085.447.169.894.254,1.192-.254-.149-.085.149-.042.6-.169-.149-.212.149-.339.3-.042-.447-.3-.149-.254.149.169-.149.169.3.254.3,0-.149.042-.149.042,0h-.042c0,.3-.085.447-.212.3a3,3,0,0,1-.127.6c-.042-.447-.169.3-.339,0,0,.447-.3-.149-.212.6.127.447.212.149.339.3.042.447.381,0,.339.745-.127.149-.381-.149-.423.149.085,0,.127.149.169.3-.212-.149-.3.149-.466.149-.169.149-.127-.3-.254-.149,0,.447-.212.149-.339.149h-.169c-.042,0-.042.149,0,.149.085.149.339-.149.339.149.042.447-.254-.149-.212.3a.89.89,0,0,1,.635.149c.042-.149.339-.447.381,0-.085.3-.169.3-.339.3-.085.3-.254.149-.381.149a2.19,2.19,0,0,1-.042.6.326.326,0,0,0-.339.149c-.042-.149-.3-.447-.339,0,.55.447.973,0,1.354.6.169.149.466-.3.466.3-.3.149-.55.6-.931.6,0,.894.55.149.719.745-.212.149-.3.447-.55.3,0,.6-.127,0-.169.3-.085.149-.212.149-.254.3-.254-.149-.339.3-.592.149-.127.447-.423.3-.592.6-.127-.6-.254,0-.55-.149-.042.894.339.3.423.894.212,0,.339.3.423.745a.356.356,0,0,0-.423.3c.381-.149.55.3.8.6h.592c-.042.149-.042.3.042.3a1.263,1.263,0,0,0,.762-.149c.042.447.381-.149.339.6a1.475,1.475,0,0,0-1.1.745h-.466c-.127.149-.339-.149-.381.149.212-.149.254.447.339.745.127,0,.212.149.254.3.085.149.3-.149.254.149-.085.6-.3-.447-.339.3.085.447.381.3.635.3.127-.149.085.3.169.3,0-.3.127-.3.212-.6.085.447.3.447.55.3.042.6-.127.3-.127.894a1.61,1.61,0,0,1,.042.894c-.339,0-.508.3-.8,0-.127,0-.127.3-.254.149-.212.3-.381-.6-.466,0,.169.3.508.149.762.149.254.6.635-.149.762.745.042.6-.085.6-.042,1.043,0,.447.169.3.169.894-.085,0-.169,0-.169.149.127,0,.127.447.127.894-.169.149-.3.3-.466.3a2.707,2.707,0,0,1,0,.6c-.042.149-.212-.149-.169.3.212,0,.339,0,.466-.149-.042.6.3.149.212.894-.085.3-.423-.149-.423.6-.085.6.339.3.169.745-.212,0,0,.149,0,.3-.085,0-.169,0-.169.149.042.447.339,0,.381.3-.169.149-.381,0-.423.6.127.3.508-.447.592.3-.042.149-.127.149-.169.3a1.666,1.666,0,0,1,.212,1.043c-.085.149-.254,0-.339.3h.254c.169.745.762.149.635,1.788-.212,0-.381-.3-.592-.3a4.4,4.4,0,0,0,.042.745c-.085,0-.169,0-.169.149.169.3.212.894.55.745.127.447.3.447.466.745.254-.149.339.3.592.149v.6h.381c.085.3.042.745.212.745.127,0-.042-.745.169-.6.085-.149.169.149.169.149.042,0,.085-.149.169-.149.127,0,.254.3.381.3a1.961,1.961,0,0,0,.973.149c.592-.447,1.312,0,1.9.149.085,0,.127-.149.212-.149.254.3.973.149,1.439.149.085,0,.127.149.212.149a6.422,6.422,0,0,1,1.693.3c.254-.149.55,0,.846,0,.212,0,.466.149.719,0H38.4c.127,0,.127-.149.212-.149l.042.149h.169c.212-.3.212,0,.381-.149.339,0,.762.149,1.016-.149,0,.3.127.149.212.149h.212c.085,0,.127-.149.212-.149,1.523.149,2.835-.3,4.317-.3.042-.149.085-.149.169-.149.3-.149.677.149.846-.149.042.447.254,0,.381.149h.423c.042-.149.085-.149.169-.149h1.524a.178.178,0,0,1,.212-.149,8.509,8.509,0,0,1,1.947,0h.127c.042.3.042,0,.127,0s.169.149.254.149c.127,0,.212-.149.339-.149s.212.149.339.149c.254-.149.254,0,.55,0h.635a.178.178,0,0,0,.212.149c.466,0,.931-.447,1.4-.149.042,0,.085.149.169.149h.8s0-.149.042-.149c0,0,0,.149.042.149h.592c.085,0,.127-.149.212-.149.042,0,.127.149.212.149.466.149.931-.149,1.4,0,.042-.149.085-.149.169-.149,1.9,0,3.809-.447,5.8,0,.254-.149.169,0,.381-.149.381.3.973.149,1.439.149.042.149.085.149.169.149.508,0,.8-.3,1.227.149h.466c.127,0,.127.3.254.149.212.149.55-.149.8,0h.127c.042.3,0,0,.212,0h.127v.149c.085,0,.085-.149.127-.149s.042.149.127.149c0,0,0-.149.042-.149s.085.149.169.149c0,0,.042-.3.042-.149.042.149.085.3.169.149.127-.149.085,0,.339,0,1.016.149,2.158-.149,3.343,0,.042,0,.127.149.212.149h.846c.042,0,.042-.3.127-.3.127.149.254.3.423.3.169.149.212-.3.339-.3.085.6.423.149.592.6h.762c.339,0,.339.149.635,0,.085,0,.127.149.212.149.042,0,.042-.149.127-.149s.085.149.127.149.127-.149.212-.149c.042,0,.127.3.212.149.169-.149.466.3.55-.149-.085,0-.127-.149-.042-.149s.085-.149.169-.149c.508.6,1.016-.3,1.4.149a.178.178,0,0,1,.212-.149c.339,0,.423-.149.719,0,.3-.149.339,0,.635,0,.127,0,.127-.3.254-.149h.635c.085,0,.127-.149.212-.149h.381c.085,0,.085-.149.169-.149,0,0,0,.149.042.149.085,0,.127-.149.254-.149h4.486c.085-.149.339.149.339-.149.169.3.508.149.762.149.339-.149.465.149.719,0,.127.3.085,0,.254.149.212,0,.508-.149.635.149,0-.447.169,0,.212,0,0-.447.085.3.212,0,.381,0,.8-.447,1.227,0,.169.149.127-.3.254-.149,0,.447.212.149.254.149h2.031c.127,0,.169.3.339.149.169.149.085-.447.254-.3.042,0,.042.149.127.149.042,0,.085-.149.042-.149.042,0,.085.149.169.149s.169-.149.254-.149.169.149.254.149c.254.149.508,0,.719-.149.212.447.635.149.931.149.127,0,.127.3.254.149.254-.149.381-.149.592.149,0-.3.042-.3.127-.3.127,0,.085.447.212.3.085-.3.3-.149.423-.149.339.3,1.016,0,1.439.3.339-.3.719,0,1.1-.149.042.149.339.447.381,0-.085-.3-.3,0-.381-.3-.169-.149-.212.149-.339-.149.042-.447.254,0,.381-.149h.381c.127-.149.127.3.212.3,0-.3.127-.149.212-.149.042-.149.085-.149.169-.149.169-.149.127.6.339.3.042-.149.042-.447.169-.3s.339-.149.381.149c.127,0,.169-.3.339-.149.127-.3.212.6.254,0-.042,0-.042-.149,0-.149.212.447.3-.149.55-.149a2.327,2.327,0,0,1,.8.6c.042-.3.042,0,.127,0,0-.3.042-.3.127-.3a.326.326,0,0,0,.339-.149.178.178,0,0,0,.212.149c.212-.3.339.3.55-.149,0,.3.169,0,.169.3.042.149.085.149.169.149.212,0,.508-.149.635.149.042-.149.085-.3.169-.3,0,.447.212,0,.339.149.127,0,.212,0,.254.149,0-.447.212-.149.339-.149.085.3.127.745.339.745.085,0,.042-.745.212-.6s.169-.3.339-.149a1.909,1.909,0,0,0,.719.3c.127.149.127-.3.212-.3.042.447.254.3.339.6.042-.3.127-.3.212-.3.085.447.339,0,.423,0,0,.3.169,0,.169.3.127.3.169-.745.212-.149v.745c.169,0,.085-.894.254-.894,0,.447.381-.149.381.3-.212,0,0,.3-.127.6.381,0,.339.149.635.149.042-.447-.169-1.043-.212-.6-.085.3-.212.149-.254-.149.127-.6.339-.149.466-.3a.178.178,0,0,0,.212.149h.635c.042,0,.085,0,.127.149.169-.149.3-.149.423,0,.042-.149.254-.447.254,0a.608.608,0,0,1-.254.6c0,.3.339.149.466.149,0,0,0,.149.042.149-.042,0,.169-.3.254-.149.169-.149.127.3.254.149.127-.3.423-.149.635-.149.042-.149.042-.447.169-.3.085.149.042.6.212.3.085-.149.212-.149.254-.3-.127-.447-.3.149-.381-.149.085-.447.3-.3.381,0a1.248,1.248,0,0,1,.169-.745c.127.6.169.149.381,0,.169.447.3-.3.466.149.127,0,.085-.447.212-.3-.169.6.169.149.169.745-.085,0-.169,0-.169.149.127,0,.212,0,.254-.149a.956.956,0,0,1,0-.6c.127.149.339-.149.381.149.085.3.254.149.339.3,0-.3.042-.3.127-.3.169.149.212-.149.339-.149.169.447.254,0,.381.6.042-.3.085-.6.212-.6.127.149.212,0,.423.149.085,0,.169-.149.254-.149.169,0,.085.149.212,0s.212.149.339.149c.085,0,.042-.149.042-.149.042,0,.085.3.169.149.042,0,.085-.149.042-.149.085,0,.085.149.169.149.042,0,.085-.3.169-.149.085,0,.085.3.169.3,0,0,.042-.3.127-.3.169-.149.339.149.55.149.042,0,.085-.149.169-.149.042,0,.127.149.212.149.042,0,.042-.149.042-.149.042,0,.127.149.212.149.212,0,.3-.149.592,0,.127,0,.169-.3.339-.149.127,0,.127.3.212,0,.127,0,.085.447.212.3,0-.447.212-.149.254-.149h.339c.127,0,.042.745.212.6,0-.447.042-.6.169-.6.169-.149.55.149.846,0,.127.3.339.149.466.3.042-.149.169-.6.212,0-.169.3-.508.149-.762.149,0,.149.085.149.169.149h.55c.127,0,.127.3.254.149.085-.447-.254-.3-.042-.6.127.149.085-.3.169-.3-.042.447.085.3.169.3.169.149.127-.3.254-.149.042.6.127-.149.169-.149-.085.745.254,0,.212.6.127.149.127-.3.212-.3,0,.149.169.6.169.149-.085,0-.042-.3,0,0,.169-.149.169.3.254.3.042-.3.212-.149.339-.3,0,.3.127.149.212.149s.127.149.212.149c0-.447.127-.447.254-.3-.042-.6.085-.6.169-.745,1.143.447,2.116,1.043,3.089.745a2.244,2.244,0,0,1,.466-.745h.169c.042,0,.042-.149,0-.149-.127-.149-.466.3-.423-.3.127,0,.127.3.254.149-.042-.447.254.149.212-.3-.381,0-.677-.447-.973-.149-.085-.447-.339-.3-.423-.745.212,0,0-.149,0-.3s.127-.149.127-.3c-.169-.149-.339-.149-.466-.3-.085,0-.212.149-.212-.149-.085,0-.127.3-.169,0,.042-.3.127-.3.212-.6,0-.3.127-.3.212-.6.3.149.466-.3.635-.6.169.149.3,0,.423-.149.169,0,.339,0,.339-.6-.169-.149-.466.3-.55-.149.55-.3,1.354-.6,1.777-.149.127-.149.169-.447.339-.3.169,0,.254.149.423.149.3,0,.592-.447.846,0,.042-.149,0-.6.169-.6.169-.3.169,0,.381,0,0-.149.127-.149.127-.3-.042,0-.042-.149,0-.149.381,0,.889.447,1.185.149,0-.745-.339-.447-.55-.6-.127-.447-.423-.3-.465-.894-.127,0-.212,0-.254-.149-.085-.149-.3.149-.254-.149.085,0,.212.149.212-.149-.085,0-.212.149-.212-.149-.339-.149-.846.3-.973-.6.169,0,.212-.3.423-.149.042-.3.085-.6.212-.6.381,0,.719-.3,1.143-.149.042-.3.254,0,.254-.3-.169,0-.381,0-.423-.3.085,0,.127-.149.169-.3-.3.149-.381-.3-.592-.6-.127,0-.127-.149-.212-.149s-.212.149-.212-.149c.042-.6.339-.149.423-.6h-.127c-.127,0-.212,0-.212-.3-.127,0,.042-.745-.169-.6-.085-.3-.3-.149-.423-.149-.466-.447-1.016-.6-1.439-1.043-.254,0-.508-.149-.635-.6.127-.149.508.149.8,0,.085-.3,0-.3,0-.6.085,0,.169,0,.169-.149-.127,0-.212-.149-.254-.3a1.076,1.076,0,0,0,.127-.6c-.042-.447-.3,0-.254-.745.465-.149,1.016-.6,1.439-.149.085-.3.254-.149.381-.149s.169.3.339.149c.169,0,.212-.3.423-.149.042-.3.3,0,.339-.3-.3.149-.423-.3-.719-.149,0-.149-.085-.149-.169-.149,0-.3-.085-.447-.212-.3.042-.149.042-.3-.042-.3-.042-.149-.127-.3-.254-.149-.085,0-.212.149-.212-.149s.169,0,.169-.3c-.423.149-.635-.6-1.1-.3,0-.149-.085-.149-.127-.149,0-.447-.042-.6-.169-.6a3.59,3.59,0,0,0,.042-.745h-.254c0-.6-.3-.3-.254-.894.085-.149.3.149.254-.149-.169-.149,0-.6.127-.3-.042-.6-.339-.149-.381-.6.169-.6.677-.149.931-.6.254.447.508-.149.762.149.042-.745-.3-.149-.423-.3-.212-.149-.169,0-.423,0-.085-.447-.423.149-.465-.3h1.1c.042-.149.042-.447.169-.3.169.149.254-.149.381-.149.042.149.042.447.169.3.381-.3.592.3,1.1.149.042.149.085.149.169.149h.635c.085,0,.127.149.212.149.3.149.508-.3.042-.149-.212-.149-.55-.6-.719-.3-.042-.447-.212-.447-.381-.6-.042,0,0-.447-.042-.6-.085-.149-.381.149-.339-.6.169-.3.3-.149.466,0h.931c.085,0,.212.149.212-.149h-.254c0-.149-.085-.149-.127-.149-.042-.149-.042-.447-.169-.3-.3.149-.423-.3-.719-.149-.085-.3-.3-.447-.381-.745h-.339c-.042-.3-.127-.3-.212-.3h-.423c-.085-.149-.254,0-.212-.6h.169c0,.149.042.149.042,0,.085-.149.3.149.254-.149-.212,0-.127-.149-.042-.3-.3-.149-.677-.149-1.016-.6-.381,0-.889.149-1.185-.149-.169,0-.3.3-.381-.149,0-.447.381.149.381-.3-.085-.3-.339,0-.339-.6.085,0,.423,0,.254-.149-.169,0-.381.149-.381-.3a4.407,4.407,0,0,0,.8-.6,1.194,1.194,0,0,0,.719-.149c.127.149.339-.149.127-.149-.212.149-.212-.3-.423-.149-.085-.149-.254,0-.339-.3.085-.149.127-.3.212-.3.085-.149.3.149.254-.149-.127-.3-.3-.149-.423-.3a4.6,4.6,0,0,1-.169-1.192c-.127-.149-.3-.149-.381-.3-.169,0-.339.149-.339-.6.254,0,.592.149.719-.3-.085,0-.085-.149-.127-.3.254.3.592.149.846.3.339-.149.423,0,.635-.3.042.447.127-.3.212.149a.326.326,0,0,1,.339.149c-.042-.447.254.149.212-.3-.169-.149-.381-.149-.465-.6h.127c.042-.745-.254.3-.254-.6.085-.149.212-.149.254-.3a1.559,1.559,0,0,1-1.143-.3c-.3.149-.592-.149-.762,0-.085-.149-.212-.3-.339-.3-.169-.149-.254.149-.381.149-.042-.3-.127-.447-.254-.3-.127-.149-.127.3-.212.3-.042-.3-.212-.149-.339-.3-.085-.149-.339.149-.339-.149.085-.3.212.149.381-.149.127,0,.127.3.254.149.212-.149.212,0,.465,0h.592c.042,0,.042-.3.127-.3.085.3.339.149.466.149.042,0,.042.149.042.3.3-.3.719-.149,1.1-.149,0-.894-.212-.149-.381-.6-.127,0-.085.447-.212.3-.085-.3-.212-.149-.212-.745-.169.149-.169.149-.339,0,.042.3-.3.3-.254,0,.085,0,.212.149.212-.149-.212.149-.423-.149-.254-.745-.169-.149-.085.6-.212.6a3.868,3.868,0,0,1-.127-.6c-.169-.149-.042.6-.212.3-.085-.745-.592,0-.719-.745.127,0,.212,0,.254-.149.127,0,.127.3.254.149h.169c0-.149-.085-.149-.127-.149-.169.149-.169-.3-.381-.149,0-.447-.3,0-.254-.745-.169-.149-.085.745-.254.6-.127,0-.127-.3-.254-.149,0-.3-.169,0-.169-.3-.169,0-.339.149-.423-.149-.169.149-.212.149-.254-.3.085,0,.085-.149.127-.3-.169.149-.3,0-.423-.149-.3-.149-.762.3-.931-.3.127,0,.212,0,.254-.149.508,0,.931.6,1.312,0,.042.3.254,0,.254.3.212-.3.592-.149.931-.149.127,0,.127.3.254.149.085-.149.3.149.254-.149-.127-.3-.508,0-.635-.3-.169,0-.423.149-.423-.3.212-.6.635.447.762-.3-.254-.149-.762.3-.846-.3.085-.3.254-.149.381-.149.127.447.169,0,.212-.3h-.762c-.085-.3-.254-.3-.339-.745-.042.6-.169-.149-.254,0-.169.149-.212-.149-.339-.149h-.423c.042-.447-.254.149-.212-.3a1.956,1.956,0,0,0,.931-.149c.169-.149.169.3.339.149h.381c.042-.3.254,0,.254-.3h-.466c-.085-.3-.3-.149-.423-.149,0-.447-.339.149-.339-.3s.381.149.381-.3c-.127-.149-.212-.149-.465-.149,0-.447-.254-.149-.254-.6.423-.149.8.3.973,0,.042,0,.042.3.127.3a3.054,3.054,0,0,0,.169-.6c.042.149.085.3.169.3.042-.149.042-.447.169-.3.042.149.127.149.212,0,.042.149.127.3.254.149.169-.3.254.3.339-.3.212,0,.212-.3.381,0,0-.447.042-.6.169-.6.085,0,.212.149.212-.149-.254.149-.3-.3-.466-.3-.042.149-.085.149-.169.149-.169-.3-.169-.3-.381-.149a.566.566,0,0,0-.381-.3.326.326,0,0,0-.339.149c-.042-.3-.169-.3-.254-.3a2.087,2.087,0,0,1-.931-.3h-.423a.178.178,0,0,0-.212-.149h-.381c-.085-.149-.339.3-.254-.3.254.3.465-.149.719.149.127.149.127-.3.212-.3,0,.3.127.149.212.149a.178.178,0,0,0,.212.149c.3,0,.3-.149.466-.149.127.3.466,0,.592.3-.042-.447.3.149.254-.3-.212-.149-.254.149-.381-.3-.212.3-.339-.149-.635,0,0-.3-.169-.149-.212-.3s-.085-.3-.169-.3c-.127,0-.169.3-.254.3-.042-.745-.466-.149-.592-.6h-1.016c-.3-.3-.3,0-.635-.149h-.465c-.127-.149-.339.149-.381-.149h.254c.127.149.085-.3.169-.3,0,.447.042.149.127.149.042.149.085.149.169.149a.627.627,0,0,1,.719,0c.085,0,.042-.149.042-.149a.429.429,0,0,0,.254.149c.042,0,.508.149.55,0v-.149c.127,0,.169.3.339,0a.178.178,0,0,0,.212.149c.169.149.085-.447.254-.3.254.3.635.3,1.1.149.042.3.254,0,.254.3.3-.3.762.3,1.143.3.169.149.169-.3.381-.149.169.3.423.149.635.149.085,0-.042-.3.042-.3h.212c.042,0,.042-.149,0-.149h-.423c-.127-.3-.508,0-.635-.3h-.762c-.127.3-.381-.3-.55.149-.042-.3-.127-.447-.254-.3-.212.149-.381-.149-.719,0h-.762c-.127,0-.127-.3-.254-.149-.3,0-.339.149-.719.149-.592-.447-1.481.149-2.074-.3-.508.3-1.1-.149-1.608.149-.127-.149-.339-.149-.423-.3-.042.447-.381,0-.423.3,0-.3-.085.149-.127-.149-.042-.149-.085-.149-.169-.149,0,.447-.212.149-.339.149s-.212,0-.254-.149c0,.6-.169-.447-.169.149-.254,0-.254-.149-.466,0h-1.227c-.042.149-.085.149-.169.149h-.719c-.127,0-.127.3-.254.149a8.958,8.958,0,0,1-1.947.149c-.127,0-.169.3-.339.149-.3-.3-.762-.149-1.143-.149-.127,0-.127-.447-.212-.6-.042-.149-.169-.745-.212-.149.042,0,.127,0,.127.149-.042,0-.127,0-.127-.149-.127,0-.212,0-.254.149a3.6,3.6,0,0,0-.254-.6c-.254-.149-.254,0-.423-.149,0,.447-.212.149-.254.149-.042-.149-.127-.149-.169-.3.085,0,.212.149.212-.149-.127-.149-.381.149-.423-.149.339-.149.55,0,.846.3.042-.3.042,0,.127,0,0-.149.085-.447.127-.149.042,0,.042-.3.127-.3.042.149.127.3.254.149.042.149.042.447.169.3,0-.3.042-.3.127-.3s.085-.149.169-.149c0,.447.212.149.254.149h.931c.042-.149.085-.149.169-.149.381,0,.8.149,1.143-.149.212.149.423,0,.635,0a5.9,5.9,0,0,1,2.285,0c.085,0,.169.149.254.149.127,0,.212-.149.339-.149.042,0,.085.149.169.149l.042-.149c.127-.149.212.149.339.149.042,0,.127-.149.212-.149.254-.149.466.3.762.149.169-.149.085,0,.339,0h.212c.127-.149.127,0,.254-.3.042.447.339,0,.381.3.085-.3.127.149.339,0,.169.149.127-.3.254-.149a1.716,1.716,0,0,0,.931.149c.212.3.254,0,.466.149.127.149.127-.149.212-.149.042.149.254.447.254,0-.085,0-.085-.149-.127-.3a.716.716,0,0,1,.212.6c.085-.3.127,0,.254,0,.212-.149.3.149.466.149.254-.3.423.149.762,0,.677-1.192,1.947.745,2.708-.149.127,0,.127.3.254.149h.423c.085,0,.127.149.212.149.085-.3.466.3.592-.149-.719-.149-1.312-.745-2.074-.745-.042-.149-.085-.149-.169-.149h-.381c-.042-.149-.085-.149-.169-.149h-.254c-.085-.3-.3-.149-.423-.149,0-.447-.339.149-.254-.6.127.3.508.149.635,0,0,.3.169.149.212.3,0-.3.127-.149.212-.149,0,.3.085-.149.127.149.169-.149.3,0,.423.149.169-.149.3,0,.423.149h.339c.042.149.381.3.423,0-.466-.149-.8-.6-1.354-.6-.169-.3-.508-.149-.719-.3h-.55c-.085,0-.212.149-.212-.149-.127,0-.169,0-.169-.3.254-.149.423.149.592.149s.423.149.55-.149c.127,0,.085.447.212.3.042-.447.254,0,.381-.149,0-.149-.085-.149-.169-.149h-.212a13.463,13.463,0,0,0-2.328-.894h-2.37c0-.447.127-.894-.042-.6-.3,0,.169.3-.042.6-.254.3-.127-1.043-.339-.3,0,.149-.085.149,0,0-.085-1.043-.677-.3-.762-1.192V30.777c-.254,0-.592.447-.8.149-.169-.149-.212-.447-.339-.745-.042.3-.169.447-.339.3a.178.178,0,0,0-.212-.149c-.169-.149-.169-1.043-.423-.894a18.713,18.713,0,0,1,.042,2.086c.466.149.677-.6,1.016-.894v1.043c.042.149.212,0,.169.6a.178.178,0,0,0,.212.149c-.085.3,0,.3,0,.6.212-.149.466-.149.635-.3-.042.894.254-.149.254.3-.042.447-.254,0-.381.149-.042.3-.042,0-.127,0h-.169c-.762.6-1.608-.3-2.5,0-.127-.149-.169-.745-.381-.745h-.042a2.825,2.825,0,0,1-.042.6.868.868,0,0,1,.042-.6c0-.149-.127-.149-.127-.3h-.127c-.085,0,.085.894-.169.745-.042-.3.169-.6,0-.745-.127.149,0,1.043-.127,1.043h-.973c-.085-.149-.3.149-.254-.149.212,0,.212,0,.169-.6-.254-.3-.169.447-.254.745-.127-.3-.3.149-.423,0-.042,0-.042-.3-.127-.3.085.745-.254,0-.212.6-.085-.3-.127,0-.254,0-.042-.3-.085,0-.169,0,0-.149-.085-.149-.169-.149-.169.149-.423-.149-.719,0-.127-.447-.466,0-.55-.6.085,0,.169,0,.169-.149-.085.149-.3-.149-.339.149.169.149-.085.3-.169.149.127-.447-.085-.149-.127-.6.3,0,.381-.149.635,0,.127-.3-.085-.6.042-.745.042.6.169-.3.254.149a.326.326,0,0,1,.339-.149,1.388,1.388,0,0,0,1.016,1.043c-.085-1.192.381-.6.592-.745.042-.6-.127-.3-.212-.3-.127,0-.085-.447-.212-.3h-.042c0,.149-.085.447-.127.149,0-.149.042-.149.127-.149a3.589,3.589,0,0,1,.042-.745c-.212,0-.254.6-.466.6-.127-.149-.127-.745-.339-.6a3.056,3.056,0,0,0-.169.6c-.042.149-.085.3-.169.3-.042-.149-.169-.3-.042-.3,0-.149-.127-.149-.127-.3a1.652,1.652,0,0,0-.127-.894c0,.6,0,1.043-.212.894a3.86,3.86,0,0,1-.127-.6c-.085-.149.042-.149.042-.3h-.846a3.243,3.243,0,0,0-1.185-.3c-.085-.3-.169.3-.212-.3-.127.149-.254.3-.423.149-.127,0-.127-.3-.254-.149h-2.2c-.042-.3-.085,0-.169,0h-1.9c-.042.149-.169-.149-.212,0s0,0-.212,0h-1.227c-.042.3,0,0-.042,0a13.027,13.027,0,0,0-2.412,0c-.381.3-.762.149-1.016.3a.178.178,0,0,0-.212-.149h-1.481c-.127-.149-.169,0-.381-.149h-.3c-.212.149-.55-.149-.8,0-.085,0-.127.149-.042.149h.677a.178.178,0,0,0,.212.149h.592c.212.3.592,0,.8.3.254-.149.592.149.973,0,.169.149.466,0,.8,0,.085,0,.127.149.212.149a1.061,1.061,0,0,0,.931-.149c.423.447,1.058,0,1.566.149.042-.149.042-.447.169-.3a1.121,1.121,0,0,0,.381.6c.381-.3.762-.149,1.185-.149.042-.149.042-.447.169-.3.085.149.3-.149.339.149-.085,0-.169,0-.169.149h.212c0-.149,0-.3.042-.3.042.3.085,0,.169,0,.169-.149.212.3.381.149.169.149.212-.149.339-.149.085.3.3,0,.381.3,0-.447.212,0,.339-.149h.339c.212,0,.508.149.635-.149.042.149.127.3.254.149.3-.149.635.149,1.185,0a4.274,4.274,0,0,1,.127.894c.127,0,.254.149.254.6-.212.3-.466-.447-.508.149.254,0,.508,0,.635.149.127-.149.381-.149.381.6.042.447-.466,0-.254.3.169,0,.381-.149.381.3.042,0,.085,0,.042.149-.042,0-.085,0-.042-.149-.169.3-.254-.149-.466,0H117.7c-.042-.447-.339,0-.381-.3.085-.745.339,0,.55-.149.085-.149,0-.149-.042-.149h-.169c0-.447-.212,0-.339-.149-.127,0-.042.745-.212.6-.085.3-.212.3-.212-.149.085-.149.3.149.254-.149-.339,0-.423-.745-.762-.894a7.169,7.169,0,0,0-.466.745c-.127-.149-.339-.3-.423,0,0-.6-.212-.3-.254,0,.127-.149.085.3.127.6a.634.634,0,0,1-.719,0c-.169,0-.339-.149-.423.149-.042-.447-.254,0-.381-.149-.169-.149-.127.3-.254.149-.042-.447-.3,0-.423-.149-.085,0-.127-.149-.212-.149-.3.3-.719.149-1.1.149-.085-.3-.381,0-.423-.6.127-.149.212.149.254.149s.042-.149.042-.149c.042,0,.085.149.169.149l.042-.149c.127-.149.127.149.254.149.085,0,.127-.149.212-.149-.042,0,.042.149.042.149h.339c.085,0,.254.149.339-.149-.212-.149-.466-.3-.635,0-.085-.6-.254,0-.466-.149-.127-.149-.3-.3-.508-.149-.127,0-.127.6-.254.6-.042-.447.169-.6-.042-.6-.254-.149.042.6-.127.6-.127.149-.085-.3-.169-.3.042.6-.169.3-.254.3,0-.149.127-.149.127-.3-.169-.149-.169.3-.254.3,0-.3.042-.3.042-.6a4.939,4.939,0,0,1-2.581-.3c-.423.3-1.1-.3-1.608,0-.127-.3-.55-.149-.931-.149-.085,0-.127-.149-.212-.149-.8.149-1.4-.3-2.116-.3-.085-.149-.127-.447-.254-.3-.635-.149-1.4-.149-2.074-.3-.212-.149-.423.149-.635.149-.085,0-.212-.149-.254-.149h-.635c-.042,0-.042.149,0,.149.085.149.339-.149.339.149H98.32c-.085,0-.212-.149-.212.149.169,0,.339-.149.423.149.042-.3.085,0,.169,0,0-.3.127-.149.212-.149h1.439c.3-.3.508,0,1.016,0a.566.566,0,0,0,.381.3c.042.149.339.447.381,0-.085,0-.169,0-.169-.149.973.149,1.82.6,2.793.745.085,0,.127.149.212.149h.635c.212,0,.423-.149.466.3-.592,0-1.227-.3-1.735,0-.169.149-.381-.149-.55-.149h-.635c-.042,0-.042.149-.127.149,0,0,0-.149-.042-.149h-.381c-.085,0-.127.149-.212.149-.085-.3-.254-.149-.381-.149-.085-.149-.127-.447-.254-.3-.508,0-.55-.149-1.1-.149,0-.149.127-.149.127-.3-.169.149-.466-.3-.55.149.085.149.3-.149.254.149-.169.149.085.3.042.6h-1.1c-.085-.149-.127-.447-.254-.3-.085.149-.423,0-.592-.149H97.008c-.085.3-.339,0-.423.3-.042-.447-.339,0-.466-.149H94.554c-.085,0-.127-.149-.212-.149-.085.447-.127-.149-.254.149-.127,0-.254,0-.254-.3.254.149.423-.149.592-.149h.381c.085.149.169-.6.212,0,.127,0,.127-.3.254-.149h.381c0-.447-.212-.149-.254-.149h-.719c-.212.3-.212,0-.381.149-.212-.3-.127.149-.339.149-.085-.3-.3-.149-.423-.149-.042.149-.042.447-.169.3-.085-.149-.042-.6-.169-.149-.085,0-.127-.149-.212-.149h-2.37c.042-.149.042-.3-.042-.3-1.65-.3-3.3.149-4.867-.3-.169-.149-.169.3-.339.149H83.931c-.085,0-.085-.149-.169-.149-.042,0-.085.149-.169.149-.042,0-.127-.149-.212-.149-.3,0-.635-.149-.973,0-.169,0-.169.149-.339,0-.127-.149-.254.149-.381.149-.169-.149-.339.149-.592,0-.127-.149-.3-.3-.466-.149-.127-.3-.339-.149-.423-.6.719-.3,1.058,0,1.693-.149.042-.149.042-.447.169-.3.212-.149.3.149.466.149h2.412c.085,0,.127.149.212.149.085-.3.254.149.466,0,.508-.3.973.447,1.523,0,.127-.149.085-.149.254,0h.635c.085-.149.212-.149.254-.3.042.447.127-.3.212.149,0-.149.042-.149.042,0h.169c.677-.149,1.524.3,2.158,0,.085,0,.212-.149.254-.3a16.12,16.12,0,0,0-3.851.149c.042-.149.042-.3-.042-.3h-.762a.566.566,0,0,0-.381-.3,42.992,42.992,0,0,0-4.486.6c-.085.149-.212.149-.254.3-.381-.447-.846-.3-1.227.149,0-.447-.212-.149-.254-.149H79.53c-.085,0-.127.149-.212.149a.178.178,0,0,0-.212-.149c-.127,0-.127.3-.254.149-.466.149-1.058-.149-1.439.149-.169-.447-.254.149-.423-.149,0,.3-.127.149-.212.149-.042.149-.085.149-.169.149-.127.149-.127-.3-.254-.149a1.02,1.02,0,0,1-1.1.3c-.127,0-.127.3-.254.149h-.339c-.085,0-.212-.149-.212.149-.085-.3-.339-.149-.55-.149-.3.3-.973.149-1.439.149-.085,0-.254.149-.339-.149-.339.447-.973,0-1.354.3-.635,0-.8.3-1.439.149-.508.447-1.27-.149-1.777.3-.169-.149-.55-.3-.762-.149-.042,0-.042,0-.042.149.085,0,.042.3,0,0-.169.149-.169-.3-.339-.149,0,.149-.042.149-.042,0C66.03,28.543,65.819,28.543,65.311,28.841ZM86.936,26.9c0-.149.085-.149.169-.149h.169c0,.149-.085.149-.169.149Zm.423,0c-.042-.149.042-.3.042-.149C87.444,26.755,87.359,26.9,87.359,26.9Zm-7.575.745c.085-.149.042.149,0,0C79.742,27.649,79.742,27.351,79.784,27.649Zm38.722.447c0,.447-.127.447-.212.149C118.337,27.8,118.379,28.1,118.506,28.1Zm1.65.447a3.591,3.591,0,0,0-.042.745c-.254-.3-.339.149-.55.6-.169-.149-.339-.3-.592-.149,0-.149.085-.149.127-.149-.042-.3-.212-.149-.169-.745-.127,0-.212,0-.212-.6h.423c.042,0,.085,0,.127-.149C119.48,28.394,119.818,28.245,120.157,28.543Zm-30.766,0c-.042.447-.3,0-.339.3-.508-.149-1.185.3-1.608-.149.085-.447.508.149.592-.3h.719C88.967,28.394,89.137,28.543,89.391,28.543Zm-2.158.149c-.042-.149.042-.3.042-.149C87.317,28.543,87.275,28.692,87.232,28.692Zm6.39.447c.085,0,.127.149.212.149C93.834,29.734,93.538,29.734,93.623,29.139Zm-.339.447c0-.149.085-.149.169-.149C93.453,29.585,93.369,29.585,93.284,29.585Zm.592,0c-.042-.149.042-.3.042-.149C93.961,29.437,93.919,29.585,93.877,29.585Zm26.746,0c-.042-.149.042-.3.042-.149C120.707,29.437,120.665,29.585,120.622,29.585Zm6.475,0c0-.149.085-.149.169-.149C127.267,29.585,127.182,29.585,127.1,29.585Zm.466,0c.042-.3.042,0,.042.149C127.52,29.734,127.478,29.585,127.563,29.585Zm-83.919.149c0-.149.085-.149.127-.149H43.9C43.855,29.734,43.728,29.734,43.643,29.734Zm.508-.149v.3c-.042,0-.085,0-.042.149h-.042c0,.149-.085.149,0,0C44.024,29.734,44.024,29.437,44.151,29.585Zm.085.149c.042-.447.169,0,.127.3.085-.149.085-.447.254-.3,0,.3-.212.894-.254.3C44.278,30.032,44.32,29.734,44.236,29.734Zm56.581,0c0-.149.085-.149.169-.149C100.944,29.734,100.859,29.734,100.817,29.734Zm26.026-.149c.127-.149.085.3.127.6-.042,0-.042-.149-.127-.149Zm-82.184.3c0-.149,0-.149.042-.149.719-.149,1.65.149,2.412,0,.169-.149.212.3.381.149.212,0,.169-.149.339,0,.3.149.381,0,.719,0,.169-.149.212.3.381.149h.339c.085-.149.3.149.254-.149.042.149.169.149.339.149.169-.149.085.447.254.3.169.149.127-.3.212-.3.127.3.085,0,.212,0,.381.149.719-.149,1.1,0,.042,0,.042.149.042.149s.254-.3.423-.149c.212.149.508.149.719.3a.833.833,0,0,1,.592-.149c.719.149.889,0,1.566.149-.042.447-.254,0-.381.149-.042-.3-.042,0-.127,0h-.931c-.55.3-1.143.3-1.693.6H50.838s-.127-.3-.169-.149-.085.3-.169.149c0,0-.085-.149-.042-.149-.127,0-.3.447-.381,0-.212,0-.466-.149-.592.149-.169.149-.127-.447-.212-.6-.042.149-.085.447-.127.149h-.254c-.212,0-.339,0-.466-.149-.339.3-.508-.149-.8.149-.254-.149-.508-.3-.8-.149-.339,0-.381-.149-.719,0-.212-.149-.254.149-.423-.3a.6.6,0,0,1-.931,0C44.871,29.883,44.828,29.883,44.659,29.883Zm49.133,1.639c-.127.447-.466,0-.635,0-.042-.447.3.149.254-.3-.085-.3-.381.149-.55.149,0-.149.042-.149.042-.3-.085,0-.127.149-.212.149s-.127-.149-.169-.149c-.212.149-.592-.3-.719.149-.085,0-.127-.149-.212-.149-.085.149-.339-.149-.339.149-.169-.149-.212-.447-.381-.149,0,.149.042.149.127.149,0,.149-.085.149-.169.149s-.169,0-.169-.3h-.212c.127-.447.169-.149.339-.3-.085-.447-.339,0-.423,0-.3-.149-.889-.3-1.185,0a2.331,2.331,0,0,0-1.1-.149c.127-.447.339-.149.466-.149.085,0,.169-.149.212-.149.169,0,.212.149.254.149s.042-.149.042-.149c.042,0,.085.149.169.149H89.6c.085,0,.127-.149.169-.149.212-.149.466,0,.719,0,.085,0,.169-.149.212-.149.085,0,.127.149.169.149.085,0,.127-.149.169-.149.085,0,.127.149.212.149.212.149.423,0,.635,0,.169.3-.3.149-.381.149,0,.447.212.149.339.149h.423c.085,0,.127-.149.169-.149.423.3.931.447,1.354.745,0,.3-.127.149-.212.149C93.623,31.373,93.707,31.522,93.792,31.522Zm33.39-1.49c0-.3.127-.149.127,0C127.224,30.181,127.182,30.33,127.182,30.032Zm-83.327.3c-.042-.149.042-.3.042-.149C43.94,30.181,43.9,30.33,43.855,30.33Zm48.244,0c-.042-.149.042-.3.042-.149C92.184,30.181,92.141,30.33,92.1,30.33Zm.127,0c0-.149.085-.149.127-.149C92.311,30.181,92.268,30.181,92.226,30.33Zm2.328-.3c.169-.149.212.149.339.149C94.85,30.479,94.469,30.628,94.554,30.032ZM86.64,31.373h.719c-.042.6-.381.149-.466.6-.466-.447-.973.149-1.439,0,0-.745.169.149.212-.3,0-.447-.212-.149-.339-.149-.127-.447-.169.149-.254-.149-.085,0-.127.149-.212.149h-.212c0-.149-.085-.3-.127,0-.127-.447-.212.3-.339-.149-.085.149-.254,0-.339.3-.423-.447-1.185.149-1.608-.3H81.35c0-.149.085-.149.169-.149H82.2c.085,0,.127,0,.127-.3.127,0,.212.149.339.3a12.007,12.007,0,0,1,2.328-.149c-.127-.447-.466,0-.635-.149.042-.745.423-.3.635-.3a.178.178,0,0,1,.212.149.682.682,0,0,1,.55-.149c.042.3.254,0,.127.6.127-.149.339-.3.381.3C86.344,31.522,86.386,31.224,86.64,31.373Zm.127-1.043h.339c0,.3-.127.149-.212.149C86.767,30.628,86.513,30.181,86.767,30.33Zm.762.149c-.042-.149.042-.3.042-.149C87.613,30.33,87.529,30.479,87.529,30.479Zm.169,0c-.042-.149.042-.3.042-.149Zm5.713-.149c.085.149.3-.149.254.149.212-.149,0,.6,0,0C93.58,30.33,93.411,30.628,93.411,30.33Zm1.566.149c0-.447.212-.149.254-.149h.254c0,.447.085-.3.212,0h.254C95.781,30.926,95.273,30.479,94.977,30.479Zm3.089.3c-.042.447-.3.149-.339,0-.212.3-.466-.149-.8,0,0-.149-.085-.149-.169-.149,0-.447.212-.149.339-.149a.326.326,0,0,1,.339.149v-.3c.127,0,.212,0,.212.3C97.77,30.33,97.855,30.777,98.066,30.777Zm.889-.3c-.127.745-.423,0-.762.149C98.4,29.883,98.659,30.628,98.955,30.479Zm1.566,0c0-.149.085-.149.127-.149C100.648,30.479,100.563,30.33,100.521,30.479Zm-16.5.149c0-.149.085-.149.169-.149C84.143,30.628,84.058,30.628,84.016,30.628Zm10.157-.149c0,.3-.085.447-.212.3C93.877,30.181,94.046,30.479,94.173,30.479Zm3.809.149c0-.149.085-.149.127-.149C98.108,30.628,98.024,30.628,97.982,30.628Zm18.324.3c-.127-.447-.169.3-.339.149a2.189,2.189,0,0,1,.042-.6c.085,0,.085,0,.127-.149C116.306,30.33,116.348,30.479,116.306,30.926Zm.042-.447a1.083,1.083,0,0,1,.127.6C116.348,31.075,116.348,30.777,116.348,30.479Zm-34.871.3c0-.149.085-.149.169-.149C81.6,30.777,81.519,30.777,81.477,30.777Zm.592-.149H82.2C82.2,31.075,81.773,30.628,82.069,30.628Zm7.914,0c0,.6-.254.3-.423.3A.356.356,0,0,1,89.983,30.628Zm.085,0c.042,0,.042,0,.042.149.085,0,.381,0,.212.149C90.237,30.926,89.983,31.224,90.068,30.628Zm6.052.149s.127-.3.169-.149C96.289,30.777,96.035,31.075,96.119,30.777Zm.592-.149c0,.447-.212.3-.381.3C96.289,30.33,96.585,30.777,96.712,30.628Zm3.936.3c-.085.6-.169-.149-.339,0C100.394,30.181,100.478,30.926,100.648,30.926Zm6.433-.149c-.042-.149.042-.3.042-.149C107.165,30.777,107.08,30.777,107.08,30.777Zm-18.536.149c0-.149.085-.149.127-.149h.169c0,.149-.085.149-.127.149Zm.339,0c-.042-.149.042-.3.042-.149C88.967,30.926,88.883,31.075,88.883,30.926Zm.212,0c-.042-.149.042-.3.042-.149C89.179,30.926,89.094,31.075,89.094,30.926Zm12.7-.149c0,.149-.085.149-.127.149-.127-.149-.085.3-.169.3s-.127-.149-.212-.149c-.254-.149-.508.3-.592,0,0-.149.085-.447.127-.149C101.029,30.628,101.452,30.926,101.79,30.777Zm17.6.149c0-.149.169-.3.212-.149C119.607,30.926,119.48,31.373,119.4,30.926Zm-38.257.149c-.042-.149.042-.3.042-.149C81.223,31.075,81.138,31.224,81.138,31.075Zm12.823,0c0-.149.085-.149.127-.149h.169c0,.149-.085.149-.127.149Zm8.295,0c-.042-.149.042-.3.042-.149C102.34,31.075,102.3,31.224,102.256,31.075Zm.127,0c.042-.3.423-.149.466,0-.042.3-.212.149-.339.3A1.574,1.574,0,0,1,102.383,31.075Zm22.175,0c0-.149.042-.149.042,0C124.6,31.373,124.558,31.224,124.558,31.075Zm-35.379.3c0,.149-.212.3-.339.149S89.179,31.075,89.179,31.373Zm.719-.3c-.042.6-.423.3-.635.3-.042-.3.254-.6.254-.149C89.645,31.224,89.729,31.075,89.9,31.075Zm.169.3c0-.149.085-.149.169-.149h.212c0,.149-.085.149-.169.149Zm1.354-.3h.127c.042.447-.085.3-.169.3C91.38,31.373,91.422,31.373,91.422,31.075Zm14.473.3c0-.149.085-.149.169-.149C106.022,31.373,105.938,31.373,105.9,31.373Zm-25.73.149c-.085-.447.339,0,.339,0,.042-.149.212-.3.339,0,.254-.3.3,0,.592,0h.719c0,.447-.212.149-.339.149h-.339a1.8,1.8,0,0,1-1.735,0h-.973c-.212,0-.085-.3.042-.149h1.354Zm7.744,0c0-.149.085-.149.127-.149C87.994,31.522,87.952,31.522,87.909,31.522Zm.635,0c-.042-.149.042-.3.042-.149C88.629,31.373,88.544,31.522,88.544,31.522Zm-6.263.149c-.042-.149.042-.3.042-.149C82.366,31.522,82.281,31.671,82.281,31.671Zm19.509,0c-.042.447-.254,0-.381.149h-.592c0-.6.423-.447.55-.149C101.494,31.522,101.621,31.522,101.79,31.671Zm4.486,0c0,.3-.169,0-.169.3-.212,0-.381.447-.423-.3C105.9,31.82,106.107,31.224,106.276,31.671Zm-5.84.149c0-.149.085-.149.127-.149C100.521,31.82,100.478,31.82,100.436,31.82Zm9.014-.149c0,.447-.169.3-.339.3-.254.149-.127-.3.042-.149S109.281,31.522,109.45,31.671Zm-25.773.447c-.042-.149.042-.3.042-.149C83.762,31.969,83.678,32.118,83.678,32.118Zm26.534-.3h.339c.042.6-.212.3-.339.3Zm1.82.3c-.042.447-.3,0-.423.149h-.423c-.042-.745.3-.149.423-.3C111.82,31.671,111.862,32.118,112.032,32.118Zm.169,0c.042-.3.042,0,.042.149C112.159,32.267,112.159,32.118,112.2,32.118Zm10.157.3c-.085.3-.212.3-.254.149C122.061,32.565,122.231,32.118,122.357,32.416Zm-1.016.745c-.127.447-.339-.447-.381.3-.042-.3-.254,0-.254-.3-.127,0-.085.447-.212.3,0-.3.042-.447.042-.6-.3,0-.55.149-.719.6-.212-.149-.3.149-.466.149-.169.149-.169-.3-.254-.3-.212,0-.339,0-.466-.149-.169-.149-.127.3-.254.149H118c-.042,0-.085-.149-.042-.149-.042,0-.085.149-.127.149-.169.149-.3,0-.381-.149h-.212c-.085,0-.212,0-.127-.149h.973c.212.149.339-.3.423,0,.085,0,.127-.149.212-.149.423-.149,1.016.149,1.354-.149a.178.178,0,0,1,.212.149c.339-.447.889-.149,1.312-.149.169.149.169-.3.381-.149-.085.6,0,.894-.042,1.192a1.274,1.274,0,0,1-.127-.894c-.127.149-.339-.149-.381.149.085,0,.085.3.169.149.042.3-.254.3-.169-.149C121.342,33.012,121.342,33.012,121.342,33.161Zm.635-.6c-.042-.149.042-.3.042-.149C122.061,32.565,121.977,32.565,121.977,32.565Zm.889.149c.042-.3.169-.447.339-.3h.212c0,.149-.085.149-.169.149C123.077,32.565,122.95,33.161,122.865,32.714Zm-.339.6c-.127-.149-.381.3-.339-.3.042,0,.127,0,.127.149.085,0,.042-.447.127-.149.042,0,.042-.149.042-.3.085,0,.169.149.212.3.085,0,.042.3,0,0C122.611,33.012,122.484,32.863,122.527,33.31Zm9.056-.6c0-.149.085-.149.127-.149C131.71,32.714,131.625,32.714,131.583,32.714Zm-18.028.149c-.042.6-.339.3-.55.3-.042-.447.254.149.212-.3Zm.127.3c.127-.447.466,0,.719-.149,0,.447-.212.149-.254.149,0,.3-.127.149-.212.149C113.767,33.31,113.767,33.012,113.682,33.161Zm.973-.3c.042,0,.085,0,.127.149.466-.447.719.149,1.143-.149.042.6-.127.3-.212.3h-.339c-.127-.149-.127.149-.212.149C114.909,33.012,114.7,33.906,114.655,32.863Zm2.243,0c0,.3-.085.447-.212.3C116.644,32.714,116.814,33.012,116.9,32.863Zm-6.094.447c-.042-.149.042-.3.042-.149C110.889,33.161,110.8,33.31,110.8,33.31Zm.085,0c-.042-.149.042-.3.042-.149C110.974,33.161,110.931,33.31,110.889,33.31Zm.466,0c0-.3.339-.3.254.149C111.481,33.608,111.481,33.161,111.354,33.31Zm11.849,0c0-.149.085-.149.169-.149h.212c0,.149-.085.149-.169.149Zm.466,0c0-.149.085-.149.169-.149h.169c0,.149-.085.149-.169.149Zm.466,0c-.042-.149.042-.3.042-.149C124.22,33.161,124.177,33.31,124.135,33.31Zm-10.791.3c0-.3.042,0,.042,0h.846c.085.149,0,.149-.042.149h-1.143c-.169,0-.339.149-.423-.149h.719Zm4.528,0c.042-.6.169.149.254,0C118.083,34.2,117.956,33.608,117.872,33.608Zm.55,0c0-.149.085-.149.169-.149C118.549,33.608,118.464,33.608,118.422,33.608Zm.212,0c0-.149.085-.149.127-.149h.169c0,.149-.085.149-.127.149Zm-4.274.149c0-.149.085-.149.169-.149h.55c0,.149-.085.149-.169.149h-.55Zm1.312,0c-.042-.149.042-.3.042-.149C115.756,33.757,115.671,33.906,115.671,33.757Zm.169,0c0-.149.085-.149.169-.149C115.967,33.906,115.883,33.757,115.84,33.757Zm.508,0c0-.149.085-.149.169-.149h1.227c0,.447-.212.149-.339.149h-1.058Zm1.947,0c-.042-.149.042-.3.042-.149C118.379,33.757,118.337,33.906,118.295,33.757Zm-26.746.894c.042-.3.169-.3.254-.3.3,0,.3.149.55,0,0,.149.042.149.042,0,.042,0,.042.3.127.3.042-.447.042.149.042.149.085.149.254-.149.381,0h.169c0,.149-.085.149-.127.149h-.381c-.085-.149-.3.149-.254-.149-.042.149-.127.3-.254.149C91.93,34.948,91.8,34.651,91.549,34.651Zm-2.581,0c-.042-.149.042-.3.042-.149C89.052,34.651,89.01,34.8,88.967,34.651Zm25.307.447c-.042-.6.212-.3.339-.3h.423v.149c.085-.149.254-.3.381-.149s.042,0,.169,0c.085,0,.127.149.169.149s.085-.149.127-.149c.254-.149.381.149.592,0h.169c.042,0,.042.149.042.149.042,0,.339-.447.339.3-.254-.149-.381.149-.635-.149h-1.312v-.149C114.782,35.1,114.613,34.948,114.274,35.1Zm-24.8,0c0-.149.085-.149.127-.149,0,.149,0,.149.042.149.085,0,.085-.149.169-.149.127,0,.127.3.254.149h.423c.085.149.339-.149.339.149H89.094c-.042,0-.042-.149,0-.149Zm1.82,0c-.042-.149.042-.3.042-.149C91.38,34.948,91.3,35.1,91.3,35.1Zm26.026.149c-.042-.149.042-.3.042-.149C117.406,35.1,117.364,35.246,117.321,35.246Zm-32.29.149c0-.149.085-.149.127-.149C85.159,35.4,85.074,35.4,85.032,35.4Zm.169,0c0-.149.085-.149.169-.149C85.328,35.4,85.243,35.4,85.2,35.4Zm.254,0c0-.149.085-.149.127-.149C85.582,35.4,85.5,35.4,85.455,35.4Zm.169,0c-.042-.149.042-.3.042-.149C85.709,35.4,85.624,35.544,85.624,35.4Zm.254.149c-.042-.149.042-.3.042-.149C85.963,35.544,85.92,35.693,85.878,35.544Zm.889,0c0-.149.085-.149.169-.149h.169c0,.149-.085.149-.169.149Zm36.945.894c-.042-.149.042-.3.042-.149C123.8,36.438,123.712,36.587,123.712,36.438Zm1.016,0c0-.149.085-.149.127-.149h.169c0,.149-.085.149-.127.149Zm.889,0c-.042-.149.042-.3.042-.149C125.7,36.438,125.616,36.587,125.616,36.438Zm.381-.149c.085.3.381,0,.381.745-.254.149-.339-.3-.55,0C125.785,36.587,126.039,36.885,126,36.289Zm-1.947.447c-.042-.149.042-.3.042-.149C124.135,36.587,124.05,36.736,124.05,36.736Zm2.92,0c-.042-.149.042-.3.042-.149Zm.592.3c.127-.447.381-.745.423,0,.085,0,.042-.447.127-.6.042.149.339.447.381,0,.127.447.466,0,.592.3-.042.447-.3,0-.339.3h-.339c-.085,0-.127-.149-.169-.3-.085.149-.085.447-.254.3v-.149A.543.543,0,0,1,127.563,37.034Zm1.862-.3c0-.149.085-.149.127-.149C129.552,36.736,129.467,36.587,129.425,36.736Zm-6.433.149c-.042-.149.042-.3.042-.149C123.077,36.736,123.035,36.885,122.992,36.885Zm1.312,0c0-.149.085-.149.127-.149C124.431,36.885,124.347,36.885,124.3,36.885Zm2.751,0c-.042.447-.254,0-.381.149-.085,0-.381,0-.212-.149C126.632,36.438,126.843,36.885,127.055,36.885Zm.127,0c0-.149.085-.149.127-.149C127.267,36.885,127.224,36.885,127.182,36.885Zm.212,0c0-.149.085-.149.127-.149C127.478,36.885,127.436,36.885,127.394,36.885Zm7.025,0c.042-.3.042,0,.127,0C134.5,37.034,134.419,37.034,134.419,36.885Zm-9.1.149c-.042-.149.042-.3.042-.149C125.4,36.885,125.362,37.034,125.32,37.034Zm.212,0c0-.149.085-.149.127-.149C125.658,37.034,125.574,37.034,125.531,37.034Zm3.6,0c0-.149.085-.149.169-.149C129.256,37.034,129.171,37.034,129.129,37.034Zm-6.221.149c0-.149.085-.149.127-.149C122.992,37.183,122.95,37.183,122.908,37.183Zm.3-.149c-.042.149-.085.3-.169.3C123.077,37.183,123.119,37.034,123.2,37.034Zm6.644,1.49c0,.447-.212.149-.339.149-.55-.149-.973.149-1.524,0h-.127c-.042-.149-.085,0-.339,0-.085,0-.169-.149-.212-.149-.085,0-.085.149-.169.149-.042,0-.085-.149-.127-.149-.085,0-.169.149-.339.149s-.381-.149-.592,0a1.04,1.04,0,0,0-1.1-.3c0-.149.042-.149.042-.149.042-.149.085-.3.169-.3q.063.223.127,0c.212.149.254.3.381.3.169,0,.381-.149.466.149,0-.3.127-.149.212-.149h.212C127.647,38.673,128.959,37.928,129.848,38.524Zm-5.29-.447c0-.149.085-.149.127-.149C124.685,38.077,124.6,38.077,124.558,38.077Zm.381-.149h.127v.3h-.127Zm4.994.6c.042-.6.127.149.212,0C130.144,38.971,129.975,38.524,129.933,38.524Zm-99.578,0c-.085.3-.085.894-.169,1.043-.169.149-.169-.447-.169-.894C30.1,38.375,30.228,38.375,30.355,38.524Zm100.847.149c0-.149.085-.149.127-.149C131.329,38.673,131.245,38.673,131.2,38.673ZM30.059,40.46c0,.447-.254,0-.254.3-.169-.3-.254.149-.508,0-.085-.745.339,0,.339-.6C29.8,40.46,29.89,40.163,30.059,40.46ZM132.3,42.248c-.3-.149-.55-.447-.931-.3-.254-.149-.423-.447-.635-.149,0-.149-.085-.149-.127-.149.085-.745.466.149.762-.149.127-.149.127.3.254.149.085,0,.212-.149.212.149C132.049,41.652,132.3,41.652,132.3,42.248Zm.085-.894c-.042-.149.042-.3.042-.149C132.472,41.205,132.43,41.354,132.387,41.354Zm-2.2.149c0-.149.085-.149.127-.149C130.314,41.5,130.229,41.5,130.187,41.5Zm-47.906.149c0-.3.127-.149.127,0C82.323,41.8,82.281,41.95,82.281,41.652Zm0,.6c-.042-.149.042-.3.042-.149C82.366,42.1,82.281,42.248,82.281,42.248ZM26.843,44.036c0-.149.042-.3.085-.149C26.927,43.887,26.885,44.036,26.843,44.036Zm102.667.745c0,.447-.127.447-.212.149a2.057,2.057,0,0,0-.381.6c-.3-.3-.339,0-.762-.149-.085,0-.085-.149-.127-.3C128.409,44.483,129,44.781,129.509,44.781Zm.592.447c0,.745-.339.149-.466.3h-.592c0-.3.169,0,.169-.3.169.149.127,0,.254.149.127-.149.127,0,.339-.149C129.848,45.228,130.017,44.781,130.1,45.228Zm.466.149c-.127-.447-.212.149-.423,0C130.144,45.079,130.567,44.781,130.567,45.377Zm2.158.6c-.042-.149.042-.3.042-.149C132.81,45.823,132.726,45.972,132.726,45.972Zm-104.868.3c-.042-.149.042-.3.042-.149C27.943,46.27,27.9,46.419,27.858,46.27ZM133.445,50.74c.169-.149.169.3.339.149C133.7,51.186,133.4,51.633,133.445,50.74Zm-1.777.447c0-.149.085-.149.127-.149h.169c0,.149-.085.149-.127.149Zm.889,0c-.042-.149.042-.3.042-.149C132.641,51.038,132.6,51.186,132.556,51.186Zm.212,0c0-.149.085-.149.127-.149C132.9,51.186,132.81,51.038,132.768,51.186Zm.169,0c0-.149.085-.149.127-.149C133.064,51.186,132.98,51.038,132.937,51.186Zm.889.894c-.042-.149.042-.3.042-.149C133.911,51.931,133.826,52.08,133.826,52.08Zm3.343,1.043c-.042.745-.423.3-.635.3-.3-.3-.466,0-.846-.149-.042,0-.042.3-.042.6-.127.149-.085-.3-.127-.6-.212-.149-.169.447-.339.3-.381-.149-.762-.447-1.185-.6v-.6c-.127,0-.085.447-.212.3,0-.447.042-.6.169-.6.085.149.3-.149.254.149a3.057,3.057,0,0,0,.169-.6c.042,0,.042,0,.042.149.085.149.339-.149.339.149.042-.447.381.149.423-.3a.839.839,0,0,0,.635.149c.085,0,.085.149.169.149h.466c.212.149.212.447.423.149C136.873,53.123,137.085,52.974,137.169,53.123Zm-3.555-.447c-.042-.149.042-.3.042-.149C133.7,52.676,133.614,52.825,133.614,52.676ZM25.7,62.955c0-.149.085-.149.127-.149C25.827,62.955,25.742,62.955,25.7,62.955Zm112.612,1.788c-.127-.149-.085.3-.169.3h-.635c-.169-.149-.339-.3-.592-.149-.085-.149-.212-.149-.339-.3s-.55-.3-.8-.6c.169-.6.381,0,.592-.3.254.3.423-.149.762,0,0-.447-.212-.149-.339-.149h-.339c-.212-.149-.423-.3-.719-.149.042-.149.085-.3.169-.3.635.149,1.4.149,2.074.3V64C138.227,63.7,138.27,64.147,138.312,64.743ZM77.964,63.7c-.042-.149.042-.3.042-.149C78.049,63.551,77.964,63.7,77.964,63.7Zm60.6,1.341c0-.149.085-.149.127-.149C138.693,65.041,138.608,65.041,138.566,65.041Zm-2.539.447c.085-.447.423,0,.592-.149.042.6-.169.3-.254.3A.326.326,0,0,1,136.027,65.488Zm.635.149c0-.149.085-.149.127-.149h.169c0,.149-.085.149-.127.149ZM25.785,72.49c-.042-.149.042-.3.042-.149C25.869,72.49,25.785,72.639,25.785,72.49Zm.169,0c0-.149.085-.149.127-.149C26.038,72.49,26,72.49,25.954,72.49ZM132.641,89.77c-.042.6-.212.3-.339.149-.212-.149-.254.447-.381,0h-.931c-.085,0-.127-.149-.212-.149-.042-.149-.042-.447-.169-.3a4.855,4.855,0,0,1-2.074-.149c-.127.3-.592-.447-.719,0-.085.447-.169-.447-.254,0-.042.149-.085.3-.169.149-.085,0-.127-.3-.339-.149,0,0-.042.3-.042.149-.085-.447-.931-.149-1.143,0h-.212c-.085-.3-.169,0-.339,0-.042,0-.085-.149-.169-.149,0,0,0,.149-.042.149a3.133,3.133,0,0,1-1.143-.149c-.085,0-.127.149-.212.149s-.169-.149-.254-.149c-.212.149-.508-.149-.846,0h-.931c-.212,0-.339-.3-.592-.149,0,.447-.085-.3-.212,0a5.154,5.154,0,0,0-1.524.149c-.042-.745.3-.149.423-.3h.466c.3-.149.719.149.931-.149.466.3.635,0,1.1.149.212,0,.466-.149.592.149.127-.6.381.447.466-.149.212-.149.381.447.635.149.042,0,.085-.3.169-.149a2.053,2.053,0,0,0,1.016.149c.127,0,.127-.149.212-.149.042,0,.085.149.169.149a8.5,8.5,0,0,0,1.947,0c.169,0,.3-.149.423-.149h.169s.085.149.042.149c.085,0,.085-.149.169-.149.127,0,.3.149.423.149,0,0,.042-.3.127-.149,0,0,0,.149.042.149,0,0,.381.149.423,0s.042,0,.169,0h.973C131.287,89.323,131.922,89.174,132.641,89.77Zm-20.059-.6c0-.149.085-.149.169-.149h.55c0,.149-.085.149-.169.149h-.55Zm.973.149c0-.3.127-.149.212-.149s.085-.149.169-.149a4.661,4.661,0,0,0,1.439,0c.127,0,.254.149.381.149,1.058.3,2.116-.447,3.174-.149h.339c.085.149-.042.149-.127.149-1.058.447-2.455-.149-3.513.3C115.036,89.174,114.232,89.472,113.555,89.323Zm-14.262.447c0-.3.127-.149.127,0C99.336,89.77,99.293,89.919,99.293,89.77Zm29.624,0c-.042-.149.042-.3.042-.149Zm-28.65.149c-.042-.149.042-.3.042-.149C100.351,89.77,100.267,89.919,100.267,89.919Zm-71.647.3c0-.149.085-.149.127-.149h.127C28.832,90.366,28.7,90.217,28.62,90.217Zm97.292.149c0-.149.085-.149.127-.149C126.039,90.366,125.955,90.366,125.912,90.366Zm.381-.149a.178.178,0,0,0,.212.149C126.547,90.664,126.209,90.664,126.293,90.217Zm-4.74.447c-.042-.149.042-.3.042-.149C121.638,90.515,121.553,90.664,121.553,90.664Zm2.158,0c-.042-.149.042-.3.042-.149C123.8,90.515,123.712,90.664,123.712,90.664Zm-25.053.149c-.042-.149.042-.3.042-.149C98.743,90.664,98.659,90.813,98.659,90.813Zm27.084-.149c-.042.149-.085.3-.169.3C125.574,90.515,125.658,90.664,125.743,90.664Zm2.116.149c-.042-.149.042-.3.042-.149C127.944,90.664,127.9,90.813,127.859,90.813Zm-57.935.149c-.042-.149.042-.3.042-.149C70.008,90.813,69.924,90.962,69.924,90.962Zm30.216,0c-.042-.149.042-.3.042-.149C100.224,90.813,100.182,90.962,100.14,90.962Zm.889-.149c-.042.149-.085.3-.169.3C100.9,90.962,100.944,90.813,101.029,90.813Zm.931.149c0-.149.085-.149.169-.149C102.086,90.962,102,90.962,101.96,90.962Zm23.487,0c0-.149.085-.149.127-.149C125.531,90.962,125.489,90.962,125.447,90.962Zm4.528,0c0-.3.127-.149.212-.149.042.447-.085.3-.127.6C130.017,91.26,130.06,90.962,129.975,90.962Zm-36.31.149c0-.149.085-.149.127-.149C93.792,91.111,93.707,91.111,93.665,91.111Zm1.989,0c-.042-.149.042-.3.042-.149C95.739,91.111,95.7,91.111,95.654,91.111Zm6.644,0c.254-.149.042.6,0,0C102.044,91.26,102.256,90.515,102.3,91.111Zm8.125,0c0-.149.042-.149.042,0S110.423,91.26,110.423,91.111Zm16,0c0-.149.085-.149.127-.149C126.5,91.111,126.462,91.111,126.42,91.111Zm4.147,0c0-.149.085-.149.169-.149C130.737,91.111,130.652,91.111,130.567,91.111Zm.254,0c0-.149.085-.149.127-.149C130.948,91.111,130.864,91.111,130.821,91.111Zm-28.862.149c0-.149.085-.149.127-.149C102.044,91.26,102,91.26,101.96,91.26Zm18.409,0c-.042-.149.042-.3.042-.149C120.453,91.26,120.368,91.409,120.368,91.26Zm9.395,0c0-.149.042-.149.042,0C129.806,91.558,129.763,91.409,129.763,91.26Zm1.4-.149c-.042.149-.085.3-.169.3C130.991,91.111,131.075,91.111,131.16,91.111ZM117.7,91.26c.042,1.043-.3-.149-.339.745-.085,0-.085-.3-.169-.3a1.548,1.548,0,0,0-.169.6c-.085,0-.085-.149-.169-.149-.127.149-.719.6-.635-.6.254,0,.212.149.423,0,0,.149-.042.149-.042.3,0,.447.127-.3.254,0,.042,0,.042-.149.042-.3C117.279,91.558,117.406,91.26,117.7,91.26Zm11.13.3c-.042-.149.042-.3.042-.149C128.917,91.409,128.875,91.558,128.832,91.558Zm1.777,0c0-.149.085-.149.169-.149C130.779,91.558,130.694,91.409,130.61,91.558Z" transform="translate(-25.979 140.192) rotate(-90)" fill="#fff100"/>
</svg>
