<svg xmlns="http://www.w3.org/2000/svg" width="79.791" height="9.392" viewBox="0 0 79.791 9.392">
  <path id="Tracé_2818" data-name="Tracé 2818" d="M52.253,26.384h-.174c-.058,0-.087.042-.116,0H50.831a.18.18,0,0,0-.116-.021h-.754c-.116-.042-.145.021-.29,0h-.319c-.087,0-.087-.042-.174-.021a2.223,2.223,0,0,1-.377,0c-.406.021-.7-.042-1.1-.021-.058,0-.087-.021-.145-.021h-.29c-.058,0-.087-.021-.145-.021-.087-.021-.29.042-.319-.021.058,0,.116,0,.116-.021-.609-.021-1.276.021-1.828-.021-.058,0-.087.021-.145.021a.286.286,0,0,0-.145-.021h-.319c-.087-.021-.261.042-.29-.021.087,0,.174,0,.174-.042a1.484,1.484,0,0,0-.319.021h-.725c-.058-.021-.116.084-.145,0,0-.042.116,0,.116-.042a3.254,3.254,0,0,0-.667.042c-.087-.021-.29.042-.319-.021a.716.716,0,0,0,.232-.042,9.669,9.669,0,0,1-1.363.021H40.5c-.029,0-.029-.042-.087-.042-.029.063-.174,0-.261.021-.058,0-.087-.021-.145-.021a1.626,1.626,0,0,1-.638,0h-.7a.179.179,0,0,0-.116-.021H37.11c-.058-.084-.087-.084-.145-.084-1.363-.021-2.408.042-3.771.021-.29.063-.783-.021-1.073.042-.377-.021-.638.042-.986.021a1.377,1.377,0,0,1-.29.042h-.406a12.243,12.243,0,0,1-1.305.105c-.058,0-.087-.021-.145-.021a3.159,3.159,0,0,0-.638.021,1.4,1.4,0,0,0-.435-.021,4.426,4.426,0,0,1-.928.084c-.087-.042-.087.021-.145-.021,0-.063-.145-.021-.174-.021s-.029.042-.087.042h-.145c.058.105-.116.042-.087.126.087.063.261.042.406.084-.029.253.551.063.7.211a2.362,2.362,0,0,1-.667.021c-.058.105.232,0,.232.084.087.021.261-.042.29.021-.058.042-.2.021-.261.042h-.29c-.029.105.261.042.261.126H26.9c-.029.105.174.063.174.148-.116.021-.348-.042-.406.021.261.021.464.084.7.105.116.021.2.063.348.084.058.063.232.021.232.126.174-.021.2.042.319.042s.29-.021.29.042a1.657,1.657,0,0,1-.319.042c0-.042-.029-.042-.087-.042-.029.021-.029.063-.116.042h-.29a.324.324,0,0,1-.087-.084c-.232.021-.232-.126-.435-.105.029.063-.058.063-.029.126.058.042.2.021.232.105-.087,0-.029.084-.029.126a.236.236,0,0,1-.145.126c0,.063.029.169-.029.211-.2-.021-.29.042-.522.021a3.265,3.265,0,0,0-.435.105c-.058.021-.174,0-.232.042a.716.716,0,0,0-.232.042c.261.021.58-.084.754.021-.145.042-.319.042-.435.084a.991.991,0,0,0-.377.042c.087-.021.058.042.116.042h.174c-.029.063.058.042.087.084,0,.042.087.021.087,0-.058-.021,0-.021.029-.021.087,0-.029.105.116.084.029,0,.029,0,.029.021.174.042.261-.105.377-.021-.058.063-.2.063-.319.084,0,.063.058.084-.029.105-.145.063-.145-.042-.348-.021-.058.126.232.042.261.105-.087.084.029.169.029.253a.286.286,0,0,1-.145.021c0,.042.029.126-.087.105-.029.021-.029.063-.087.084a.378.378,0,0,0,0,.253c-.087,0-.116,0-.116.042-.087.042-.058.148-.174.169-.029.042.116.084,0,.105-.029.042.145.063.029.084-.087,0-.145,0-.145.042.058,0,.174-.021.145.042.174.021-.029-.042.087-.042.087.021.058.084.145.021a1.293,1.293,0,0,0,.174.169c-.174-.021-.058.021-.029.084-.116-.021-.145.021-.232.042-.029-.063-.2-.021-.174.021.116-.021.116.042.174.042a.015.015,0,1,1,.029,0h-.029c0,.042-.058.063-.145.042-.029.021-.029.063-.087.084-.029-.063-.116.042-.232,0,0,.063-.2-.021-.145.084.087.063.145.021.232.042.029.063.261,0,.232.105-.087.021-.261-.021-.29.021a.174.174,0,0,1,.116.042,1.484,1.484,0,0,0-.319.021c-.116.021-.087-.042-.174-.021,0,.063-.145.021-.232.021h-.116c-.029,0-.029.021,0,.021.058.021.232-.021.232.021.029.063-.174-.021-.145.042a2.63,2.63,0,0,1,.435.021c.029-.021.232-.063.261,0a.359.359,0,0,1-.232.042c-.058.042-.174.021-.261.021,0,.042,0,.063-.029.084a.765.765,0,0,0-.232.021c-.029-.021-.2-.063-.232,0a9.127,9.127,0,0,1,.928.084c.116.021.319-.042.319.042a4.834,4.834,0,0,1-.638.084c0,.126.377.021.493.105a1.07,1.07,0,0,1-.377.042c0,.084-.087,0-.116.042a1.545,1.545,0,0,0-.174.042c-.174-.021-.232.042-.406.021-.087.063-.29.042-.406.084-.087-.084-.174,0-.377-.021-.029.126.232.042.29.126a.366.366,0,0,1,.29.105.572.572,0,0,0-.29.042,1.37,1.37,0,0,1,.551.084h.406c-.029.021-.029.042.029.042a3.868,3.868,0,0,0,.522-.021c.029.063.261-.021.232.084a2.743,2.743,0,0,0-.754.105h-.319c-.087.021-.232-.021-.261.021.145-.021.174.063.232.105a.306.306,0,0,1,.174.042c.058.021.2-.021.174.021-.058.084-.2-.063-.232.042.058.063.261.042.435.042.087-.021.058.042.116.042,0-.042.087-.042.145-.084.058.063.2.063.377.042.029.084-.087.042-.087.126.058.021.087.105.029.126a2.406,2.406,0,0,1-.551,0c-.087,0-.087.042-.174.021-.145.042-.261-.084-.319,0a2.043,2.043,0,0,0,.522.021c.174.084.435-.021.522.105.029.084-.058.084-.029.148,0,.063.116.042.116.126-.058,0-.116,0-.116.021.087,0,.087.063.087.126a1.656,1.656,0,0,1-.319.042c0,.063.029.042,0,.084-.029.021-.145-.021-.116.042a1.353,1.353,0,0,0,.319-.021c-.029.084.2.021.145.126-.058.042-.29-.021-.29.084-.058.084.232.042.116.105-.145,0,0,.021,0,.042-.058,0-.116,0-.116.021.029.063.232,0,.261.042-.116.021-.261,0-.29.084.087.042.348-.063.406.042-.029.021-.087.021-.116.042.116.021.145.084.145.148-.058.021-.174,0-.232.042H26c.116.105.522.021.435.253-.145,0-.261-.042-.406-.042-.029.042.029.063.029.105-.058,0-.116,0-.116.021.116.042.145.126.377.105a1.3,1.3,0,0,0,.319.105c.174-.021.232.042.406.021v.084H27.3c.058.042.029.105.145.105.087,0-.029-.105.116-.084a.139.139,0,0,1,.116.021.865.865,0,0,1,.116-.021c.087,0,.174.042.261.042a6.186,6.186,0,0,0,.667.021,6.756,6.756,0,0,1,1.305.021c.058,0,.087-.021.145-.021a7.092,7.092,0,0,0,.986.021c.058,0,.087.021.145.021.406,0,.783.021,1.16.042a5.32,5.32,0,0,1,.58,0,3.843,3.843,0,0,0,.493,0H33.8c.087,0,.087-.021.145-.021l.029.021h.116c.145-.042.145,0,.261-.021a3.679,3.679,0,0,0,.7-.021c0,.042.087.021.145.021h.145c.058,0,.087-.021.145-.021,1.044.021,1.944-.042,2.959-.042a.18.18,0,0,1,.116-.021,4.587,4.587,0,0,0,.58-.021c.029.063.174,0,.261.021h.29A.18.18,0,0,1,39.808,35h1.044A.286.286,0,0,1,41,34.984c.464,0,.87-.021,1.334,0h.087c.029.042.029,0,.087,0s.116.021.174.021c.087,0,.145-.021.232-.021s.145.021.232.021a2.245,2.245,0,0,1,.377,0h.435a.286.286,0,0,0,.145.021A7.259,7.259,0,0,1,45.059,35a.866.866,0,0,0,.116.021h.551s0-.021.029-.021c0,0,0,.021.029.021h.406c.058,0,.087-.021.145-.021.029,0,.087.021.145.021.319.021.638-.021.957,0A.18.18,0,0,1,47.553,35c1.305,0,2.611-.063,3.974,0,.174-.021.116,0,.261-.021a7.472,7.472,0,0,0,.986.021.18.18,0,0,0,.116.021,3.654,3.654,0,0,1,.841.021h.319c.087,0,.087.042.174.021.145.021.377-.021.551,0h.087c.029.042,0,0,.145,0H55.1v.021c.058,0,.058-.021.087-.021s.029.021.087.021c0,0,0-.021.029-.021a.866.866,0,0,0,.116.021s.029-.042.029-.021a.107.107,0,0,0,.116.021c.087-.021.058,0,.232,0,.7.021,1.479-.021,2.292,0,.029,0,.087.021.145.021h.58c.029,0,.029-.042.087-.042a1.144,1.144,0,0,0,.29.042c.116.021.145-.042.232-.042.058.084.29.021.406.084h.522a2.99,2.99,0,0,0,.435,0c.058,0,.087.021.145.021.029,0,.029-.021.087-.021s.058.021.087.021.087-.021.145-.021c.029,0,.087.042.145.021.116-.021.319.042.377-.021-.058,0-.087-.021-.029-.021s.058-.021.116-.021c.348.084.7-.042.957.021a.286.286,0,0,1,.145-.021,3.842,3.842,0,0,1,.493,0,3,3,0,0,1,.435,0c.087,0,.087-.042.174-.021h.435c.058,0,.087-.021.145-.021H64.9c.058,0,.058-.021.116-.021,0,0,0,.021.029.021.058,0,.087-.021.174-.021H68.3c.058-.021.232.021.232-.021a2.043,2.043,0,0,0,.522.021c.232-.021.319.021.493,0,.087.042.058,0,.174.021a1.4,1.4,0,0,1,.435.021c0-.063.116,0,.145,0,0-.063.058.042.145,0a3.74,3.74,0,0,1,.841,0c.116.021.087-.042.174-.021,0,.063.145.021.174.021h1.392c.087,0,.116.042.232.021.116.021.058-.063.174-.042.029,0,.029.021.087.021.029,0,.058-.021.029-.021a.866.866,0,0,0,.116.021c.058,0,.116-.021.174-.021s.116.021.174.021a1.878,1.878,0,0,0,.493-.021,2.091,2.091,0,0,0,.638.021c.087,0,.087.042.174.021a.863.863,0,0,1,.406.021c0-.042.029-.042.087-.042.087,0,.058.063.145.042.058-.042.2-.021.29-.021.232.042.7,0,.986.042.232-.042.493,0,.754-.021.029.021.232.063.261,0-.058-.042-.2,0-.261-.042-.116-.021-.145.021-.232-.021.029-.063.174,0,.261-.021h.261c.087-.021.087.042.145.042,0-.042.087-.021.145-.021a.179.179,0,0,1,.116-.021c.116-.021.087.084.232.042.029-.021.029-.063.116-.042s.232-.021.261.021c.087,0,.116-.042.232-.021.087-.042.145.084.174,0-.029,0-.029-.021,0-.021.145.063.2-.021.377-.021a4.108,4.108,0,0,1,.551.084c.029-.042.029,0,.087,0,0-.042.029-.042.087-.042a.765.765,0,0,0,.232-.021.286.286,0,0,0,.145.021c.145-.042.232.042.377-.021,0,.042.116,0,.116.042a.18.18,0,0,0,.116.021,1.4,1.4,0,0,1,.435.021.174.174,0,0,1,.116-.042c0,.063.145,0,.232.021a.353.353,0,0,1,.174.021c0-.063.145-.021.232-.021a.3.3,0,0,0,.232.105c.058,0,.029-.105.145-.084s.116-.042.232-.021c.2.021.348.042.493.042.087.021.087-.042.145-.042.029.063.174.042.232.084.029-.042.087-.042.145-.042.058.063.232,0,.29,0,0,.042.116,0,.116.042.087.042.116-.105.145-.021v.105c.116,0,.058-.126.174-.126,0,.063.261-.021.261.042-.145,0,0,.042-.087.084.261,0,.232.021.435.021.029-.063-.116-.148-.145-.084a.133.133,0,0,1-.174-.021c.087-.084.232-.021.319-.042a.286.286,0,0,0,.145.021h.435a.134.134,0,0,1,.087.021.67.67,0,0,1,.29,0c.029-.021.174-.063.174,0s-.087.063-.174.084c0,.042.232.021.319.021,0,0,0,.021.029.021a.292.292,0,0,1,.174-.021c.116-.021.087.042.174.021a1.4,1.4,0,0,1,.435-.021c.029-.021.029-.063.116-.042.058.021.029.084.145.042a1.546,1.546,0,0,0,.174-.042c-.087-.063-.2.021-.261-.021a.235.235,0,0,1,.261,0c0-.063.058-.084.116-.105.087.084.116.021.261,0,.116.063.2-.042.319.021.087,0,.058-.063.145-.042-.116.084.116.021.116.105-.058,0-.116,0-.116.021a.353.353,0,0,0,.174-.021c-.029-.021-.058-.063,0-.084.087.021.232-.021.261.021.058.042.174.021.232.042,0-.042.029-.042.087-.042.116.021.145-.021.232-.021.116.063.174,0,.261.084a.153.153,0,0,1,.145-.084c.087.021.145,0,.29.021.058,0,.116-.021.174-.021.116,0,.058.021.145,0s.145.021.232.021c.058,0,.029-.021.029-.021.029,0,.058.042.116.021.029,0,.058-.021.029-.021.058,0,.058.021.116.021.029,0,.058-.042.116-.021.058,0,.058.042.116.042a.109.109,0,0,1,.087-.042,2.443,2.443,0,0,1,.377.021.866.866,0,0,1,.116-.021c.029,0,.087.021.145.021.029,0,.029-.021.029-.021.029,0,.087.021.145.021a2.582,2.582,0,0,1,.406,0c.087,0,.116-.042.232-.021.087,0,.087.042.145,0,.087,0,.058.063.145.042,0-.063.145-.021.174-.021h.232c.087,0,.029.105.145.084,0-.063.029-.084.116-.084.116-.021.377.021.58,0a1.657,1.657,0,0,0,.319.042c.029-.021.116-.084.145,0a2.043,2.043,0,0,1-.522.021c0,.021.058.021.116.021h.377c.087,0,.087.042.174.021.058-.063-.174-.042-.029-.084.087.021.058-.042.116-.042-.029.063.058.042.116.042.116.021.087-.042.174-.021.029.084.087-.021.116-.021-.058.105.174,0,.145.084.087.021.087-.042.145-.042,0,.021.116.084.116.021-.058,0-.029-.042,0,0,.116-.021.116.042.174.042.029-.042.145-.021.232-.042,0,.042.087.021.145.021s.087.021.145.021c0-.063.087-.063.174-.042-.029-.084.058-.084.116-.105a15.055,15.055,0,0,0,2.118.105,1.3,1.3,0,0,1,.319-.105h.116c.029,0,.029-.021,0-.021-.087-.021-.319.042-.29-.042.087,0,.087.042.174.021-.029-.063.174.021.145-.042a3.677,3.677,0,0,0-.667-.021c-.058-.063-.232-.042-.29-.105.145,0,0-.021,0-.042s.087-.021.087-.042c-.116-.021-.232-.021-.319-.042-.058,0-.145.021-.145-.021-.058,0-.087.042-.116,0,.029-.042.087-.042.145-.084,0-.042.087-.042.145-.084a.835.835,0,0,0,.435-.084.644.644,0,0,0,.29-.021c.116,0,.232,0,.232-.084-.116-.021-.319.042-.377-.021a4.771,4.771,0,0,1,1.218-.021c.087-.021.116-.063.232-.042.116,0,.174.021.29.021a1.784,1.784,0,0,1,.58,0c.029-.021,0-.084.116-.084.116-.042.116,0,.261,0,0-.021.087-.021.087-.042-.029,0-.029-.021,0-.021a5.408,5.408,0,0,0,.812.021c0-.105-.232-.063-.377-.084-.087-.063-.29-.042-.319-.126a.353.353,0,0,1-.174-.021c-.058-.021-.2.021-.174-.021.058,0,.145.021.145-.021-.058,0-.145.021-.145-.021-.232-.021-.58.042-.667-.084.116,0,.145-.042.29-.021a.153.153,0,0,1,.145-.084c.261,0,.493-.042.783-.021.029-.042.174,0,.174-.042-.116,0-.261,0-.29-.042a.174.174,0,0,0,.116-.042.787.787,0,0,1-.406-.084c-.087,0-.087-.021-.145-.021s-.145.021-.145-.021c.029-.084.232-.021.29-.084h-.087c-.087,0-.145,0-.145-.042-.087,0,.029-.105-.116-.084-.058-.042-.2-.021-.29-.021-.319-.063-.7-.084-.986-.148a.835.835,0,0,1-.435-.084c.087-.021.348.021.551,0,.058-.042,0-.042,0-.084.058,0,.116,0,.116-.021a.306.306,0,0,1-.174-.042c.029-.021.087-.021.087-.084-.029-.063-.2,0-.174-.105a3.891,3.891,0,0,1,.986-.021c.058-.042.174-.021.261-.021s.116.042.232.021c.116,0,.145-.042.29-.021.029-.042.2,0,.232-.042-.2.021-.29-.042-.493-.021,0-.021-.058-.021-.116-.021,0-.042-.058-.063-.145-.042.029-.021.029-.042-.029-.042a.209.209,0,0,0-.174-.021c-.058,0-.145.021-.145-.021s.116,0,.116-.042c-.29.021-.435-.084-.754-.042,0-.021-.058-.021-.087-.021,0-.063-.029-.084-.116-.084.029-.021.029-.063.029-.105h-.174c0-.084-.2-.042-.174-.126.058-.021.2.021.174-.021-.116-.021,0-.084.087-.042-.029-.084-.232-.021-.261-.084.116-.084.464-.021.638-.084.174.063.348-.021.522.021.029-.105-.2-.021-.29-.042a1.327,1.327,0,0,0-.29,0c-.058-.063-.29.021-.319-.042h.754c.029-.021.029-.063.116-.042a.978.978,0,0,0,.261-.021c.029.021.029.063.116.042.261-.042.406.042.754.021a.18.18,0,0,0,.116.021h.435c.058,0,.087.021.145.021.2.021.348-.042.029-.021a1.357,1.357,0,0,0-.493-.042c-.029-.063-.145-.063-.261-.084-.029,0,0-.063-.029-.084-.058-.021-.261.021-.232-.084a.549.549,0,0,1,.319,0h.638c.058,0,.145.021.145-.021h-.174c0-.021-.058-.021-.087-.021-.029-.021-.029-.063-.116-.042-.2.021-.29-.042-.493-.021-.058-.042-.2-.063-.261-.105h-.232c-.029-.042-.087-.042-.145-.042h-.29c-.058-.021-.174,0-.145-.084h.116a.015.015,0,1,0,.029,0c.058-.021.2.021.174-.021-.145,0-.087-.021-.029-.042a4.275,4.275,0,0,1-.7-.084,5.037,5.037,0,0,1-.812-.021c-.116,0-.2.042-.261-.021,0-.063.261.021.261-.042-.058-.042-.232,0-.232-.084.058,0,.29,0,.174-.021-.116,0-.261.021-.261-.042.232-.021.406-.063.551-.084a3.64,3.64,0,0,0,.493-.021c.087.021.232-.021.087-.021-.145.021-.145-.042-.29-.021-.058-.021-.174,0-.232-.042a.379.379,0,0,1,.145-.042c.058-.021.2.021.174-.021a1.377,1.377,0,0,0-.29-.042c-.029-.063-.145-.084-.116-.169-.087-.021-.2-.021-.261-.042-.116,0-.232.021-.232-.084a1.156,1.156,0,0,0,.493-.042c-.058,0-.058-.021-.087-.042a5.37,5.37,0,0,0,.58.042,2.13,2.13,0,0,0,.435-.042c.029.063.087-.042.145.021a.765.765,0,0,1,.232.021c-.029-.063.174.021.145-.042-.116-.021-.261-.021-.319-.084h.087c.029-.105-.174.042-.174-.084a1.546,1.546,0,0,0,.174-.042,4.532,4.532,0,0,1-.783-.042c-.2.021-.406-.021-.522,0a.716.716,0,0,0-.232-.042.978.978,0,0,0-.261.021.153.153,0,0,0-.174-.042c-.087-.021-.087.042-.145.042-.029-.042-.145-.021-.232-.042-.058-.021-.232.021-.232-.021.058-.042.145.021.261-.021.087,0,.087.042.174.021a1.607,1.607,0,0,1,.319,0h.406c.029,0,.029-.042.087-.042.058.042.232.021.319.021.029,0,.029.021.029.042a4.331,4.331,0,0,1,.754-.021c0-.126-.145-.021-.261-.084-.087,0-.058.063-.145.042-.058-.042-.145-.021-.145-.105a.434.434,0,0,1-.232,0c.029.042-.2.042-.174,0,.058,0,.145.021.145-.021-.145.021-.29-.021-.174-.105-.116-.021-.058.084-.145.084a.323.323,0,0,1-.087-.084c-.116-.021-.029.084-.145.042-.058-.105-.406,0-.493-.105a.353.353,0,0,0,.174-.021c.087,0,.087.042.174.021h.116c0-.021-.058-.021-.087-.021-.116.021-.116-.042-.261-.021,0-.063-.2,0-.174-.105-.116-.021-.058.105-.174.084-.087,0-.087-.042-.174-.021,0-.042-.116,0-.116-.042-.116,0-.232.021-.29-.021-.116.021-.145.021-.174-.042.058,0,.058-.021.087-.042a.644.644,0,0,1-.29-.021c-.2-.021-.522.042-.638-.042A.353.353,0,0,0,98,28.977a3.2,3.2,0,0,0,.9,0c.029.042.174,0,.174.042A3,3,0,0,1,99.712,29c.087,0,.087.042.174.021.058-.021.2.021.174-.021-.087-.042-.348,0-.435-.042-.116,0-.29.021-.29-.042.145-.084.435.063.522-.042-.174-.021-.522.042-.58-.042.058-.042.174-.021.261-.021.087.063.116,0,.145-.042h-.522c-.058-.042-.174-.042-.232-.105-.029.084-.116-.021-.174,0-.116.021-.145-.021-.232-.021h-.29c.029-.063-.174.021-.145-.042a6.17,6.17,0,0,0,.638-.021c.116-.021.116.042.232.021h.261c.029-.042.174,0,.174-.042h-.319c-.058-.042-.2-.021-.29-.021,0-.063-.232.021-.232-.042s.261.021.261-.042a1.228,1.228,0,0,0-.319-.021c0-.063-.174-.021-.174-.084.29-.021.551.042.667,0,.029,0,.029.042.087.042a.4.4,0,0,0,.116-.084.174.174,0,0,0,.116.042c.029-.021.029-.063.116-.042a.171.171,0,0,0,.145,0,.209.209,0,0,0,.174.021c.116-.042.174.042.232-.042.145,0,.145-.042.261,0,0-.063.029-.084.116-.084.058,0,.145.021.145-.021-.174.021-.2-.042-.319-.042a.18.18,0,0,1-.116.021.361.361,0,0,0-.261-.021.917.917,0,0,0-.261-.042.765.765,0,0,0-.232.021c-.029-.042-.116-.042-.174-.042a5.942,5.942,0,0,1-.638-.042H98.2a.286.286,0,0,0-.145-.021H97.8c-.058-.021-.232.042-.174-.042.174.042.319-.021.493.021.087.021.087-.042.145-.042,0,.042.087.021.145.021a.286.286,0,0,0,.145.021c.2,0,.2-.021.319-.021.087.042.319,0,.406.042-.029-.063.2.021.174-.042-.145-.021-.174.021-.261-.042-.145.042-.232-.021-.435,0,0-.042-.116-.021-.145-.042a.174.174,0,0,0-.116-.042c-.087,0-.116.042-.174.042-.029-.105-.319-.021-.406-.084h-.7a2.815,2.815,0,0,0-.435-.021h-.319c-.087-.021-.232.021-.261-.021h.174c.087.021.058-.042.116-.042,0,.063.029.021.087.021a.18.18,0,0,0,.116.021,1.9,1.9,0,0,1,.493,0c.058,0,.029-.021.029-.021a.848.848,0,0,0,.174.021,2.253,2.253,0,0,0,.377,0v-.021c.087,0,.116.042.232,0a.286.286,0,0,0,.145.021c.116.021.058-.063.174-.042a2.777,2.777,0,0,0,.754.021c.029.042.174,0,.174.042a5.252,5.252,0,0,1,.783.042c.116.021.116-.042.261-.021a1.459,1.459,0,0,0,.435.021c.058,0-.029-.042.029-.042h.145c.029,0,.029-.021,0-.021h-.29c-.087-.042-.348,0-.435-.042h-.522c-.087.042-.261-.042-.377.021a.153.153,0,0,0-.174-.042c-.145.021-.261-.021-.493,0h-.522c-.087,0-.087-.042-.174-.021-.2,0-.232.021-.493.021-.406-.063-1.015.021-1.421-.042-.348.042-.754-.021-1.1.021-.087-.021-.232-.021-.29-.042-.029.063-.261,0-.29.042,0-.042-.058.021-.087-.021a.179.179,0,0,0-.116-.021c0,.063-.145.021-.232.021a.353.353,0,0,1-.174-.021c0,.084-.116-.063-.116.021a1.607,1.607,0,0,0-.319,0h-.841a.18.18,0,0,1-.116.021h-.493c-.087,0-.087.042-.174.021-.464,0-.928.042-1.334.021-.087,0-.116.042-.232.021a4.677,4.677,0,0,0-.783-.021c-.087,0-.087-.063-.145-.084-.029-.021-.116-.105-.145-.021.029,0,.087,0,.087.021-.029,0-.087,0-.087-.021a.353.353,0,0,0-.174.021.978.978,0,0,0-.174-.084c-.174-.021-.174,0-.29-.021,0,.063-.145.021-.174.021-.029-.021-.087-.021-.116-.042.058,0,.145.021.145-.021-.087-.021-.261.021-.29-.021a1.741,1.741,0,0,1,.58.042c.029-.042.029,0,.087,0,0-.021.058-.063.087-.021.029,0,.029-.042.087-.042a.209.209,0,0,0,.174.021c.029.021.029.063.116.042,0-.042.029-.042.087-.042s.058-.021.116-.021c0,.063.145.021.174.021h.638a.18.18,0,0,1,.116-.021,4.773,4.773,0,0,0,.783-.021,3,3,0,0,0,.435,0c.464,0,1.073-.042,1.567,0,.058,0,.116.021.174.021.087,0,.145-.021.232-.021a.866.866,0,0,0,.116.021l.029-.021c.087-.021.145.021.232.021.029,0,.087-.021.145-.021.174-.021.319.042.522.021.116-.021.058,0,.232,0h.145c.087-.021.087,0,.174-.042.029.063.232,0,.261.042.058-.042.087.021.232,0,.116.021.087-.042.174-.021a5.365,5.365,0,0,0,.638.021c.145.042.174,0,.319.021.087.021.087-.021.145-.021.029.021.174.063.174,0-.058,0-.058-.021-.087-.042.058.021.145.021.145.084.058-.042.087,0,.174,0a1.484,1.484,0,0,1,.319.021,4.286,4.286,0,0,1,.522,0c.464-.169,1.334.105,1.857-.021.087,0,.087.042.174.021h.29c.058,0,.087.021.145.021.058-.042.319.042.406-.021-.493-.021-.9-.105-1.421-.105a.179.179,0,0,0-.116-.021h-.261a.18.18,0,0,0-.116-.021h-.174c-.058-.042-.2-.021-.29-.021,0-.063-.232.021-.174-.084a1.01,1.01,0,0,0,.435,0c0,.042.116.021.145.042,0-.042.087-.021.145-.021,0,.042.058-.021.087.021a19413.905,19413.905,0,0,0,.58.042h.232c.029.021.261.042.29,0-.319-.021-.551-.084-.928-.084a3.478,3.478,0,0,0-.493-.042h-.377c-.058,0-.145.021-.145-.021-.087,0-.116,0-.116-.042a2.272,2.272,0,0,1,.406.021,1.093,1.093,0,0,0,.377-.021c.087,0,.058.063.145.042.029-.063.174,0,.261-.021,0-.021-.058-.021-.116-.021H99.1c-.493-.063-1.073-.084-1.6-.126H95.883c0-.063.087-.126-.029-.084-.2,0,.116.042-.029.084-.174.042-.087-.148-.232-.042,0,.021-.058.021,0,0-.058-.148-.464-.042-.522-.169v-.148a2.476,2.476,0,0,1-.551.021.7.7,0,0,1-.232-.105c-.029.042-.116.063-.232.042a.286.286,0,0,0-.145-.021c-.116-.021-.116-.148-.29-.126-.029.148.116.211.029.3a2.148,2.148,0,0,0,.7-.126v.148c.029.021.145,0,.116.084a.286.286,0,0,0,.145.021c-.058.042,0,.042,0,.084.145-.021.319-.021.435-.042-.029.126.174-.021.174.042-.029.063-.174,0-.261.021-.029.042-.029,0-.087,0h-.116c-.522.084-1.1-.042-1.712,0-.087-.021-.116-.105-.261-.105H92.75a.1.1,0,0,1-.029.084c-.029-.042-.029-.063.029-.084,0-.021-.087-.021-.087-.042h-.087c-.058,0,.058.126-.116.105-.029-.042.116-.084,0-.105-.087.021,0,.148-.087.148h-.667c-.058-.021-.2.021-.174-.021.145,0,.145,0,.116-.084-.174-.042-.116.063-.174.105-.087-.042-.2.021-.29,0-.029,0-.029-.042-.087-.042.058.105-.174,0-.145.084-.058-.042-.087,0-.174,0-.029-.042-.058,0-.116,0,0-.021-.058-.021-.116-.021-.116.021-.29-.021-.493,0-.087-.063-.319,0-.377-.084.058,0,.116,0,.116-.021-.058.021-.2-.021-.232.021.116.021-.058.042-.116.021.087-.063-.058-.021-.087-.084a2.991,2.991,0,0,1,.435,0c.087-.042-.058-.084.029-.105.029.084.116-.042.174.021a.765.765,0,0,1,.232-.021,1.589,1.589,0,0,0,.7.148c-.058-.169.261-.084.406-.105.029-.084-.087-.042-.145-.042-.087,0-.058-.063-.145-.042H91.01c0,.021-.058.063-.087.021,0-.021.029-.021.087-.021-.029-.063.029-.063.029-.105-.145,0-.174.084-.319.084-.087-.021-.087-.105-.232-.084a.4.4,0,0,0-.116.084.174.174,0,0,1-.116.042c-.029-.021-.116-.042-.029-.042,0-.021-.087-.021-.087-.042.058-.042-.029-.084-.087-.126,0,.084,0,.148-.145.126a.324.324,0,0,1-.087-.084c-.058-.021.029-.021.029-.042h-.58c-.261-.021-.522-.042-.812-.042-.058-.042-.116.042-.145-.042a.644.644,0,0,1-.29.021c-.087,0-.087-.042-.174-.021H86.339c-.029-.042-.058,0-.116,0H84.918c-.029.021-.116-.021-.145,0s0,0-.145,0h-.841c-.029.042,0,0-.029,0-.464-.021-1.1,0-1.654,0-.261.042-.522.021-.7.042a.286.286,0,0,0-.145-.021H80.247c-.087-.021-.116,0-.261-.021h-.2c-.145.021-.377-.021-.551,0-.058,0-.087.021-.029.021h.464a.286.286,0,0,0,.145.021h.406c.145.042.406,0,.551.042.174-.021.406.021.667,0a4.689,4.689,0,0,0,.551,0c.058,0,.087.021.145.021a3.234,3.234,0,0,0,.638-.021,8.869,8.869,0,0,0,1.073.021c.029-.021.029-.063.116-.042a.658.658,0,0,0,.261.084,5.136,5.136,0,0,1,.812-.021c.029-.021.029-.063.116-.042.058.021.2-.021.232.021-.058,0-.116,0-.116.021h.145c0-.021,0-.042.029-.042.029.042.058,0,.116,0,.116-.021.145.042.261.021.116.021.145-.021.232-.021.058.042.2,0,.261.042,0-.063.145,0,.232-.021h.232a1.4,1.4,0,0,0,.435-.021.209.209,0,0,0,.174.021c.2-.021.435.021.812,0,.029.042.087.063.087.126.087,0,.174.021.174.084-.145.042-.319-.063-.348.021a2.454,2.454,0,0,1,.435.021c.087-.021.261-.021.261.084.029.063-.319,0-.174.042.116,0,.261-.021.261.042.029,0,.058,0,.029.021-.029,0-.058,0-.029-.021-.116.042-.174-.021-.319,0h-.406c-.029-.063-.232,0-.261-.042.058-.105.232,0,.377-.021.058-.021,0-.021-.029-.021h-.116c0-.063-.145,0-.232-.021-.087,0-.029.105-.145.084-.058.042-.145.042-.145-.021.058-.021.2.021.174-.021-.232,0-.29-.105-.522-.126-.116.042-.232.063-.319.105a.453.453,0,0,0-.29,0c0-.084-.145-.042-.174,0,.087-.021.058.042.087.084a1.928,1.928,0,0,1-.493,0c-.116,0-.232-.021-.29.021-.029-.063-.174,0-.261-.021-.116-.021-.087.042-.174.021-.029-.063-.2,0-.29-.021-.058,0-.087-.021-.145-.021a4.332,4.332,0,0,1-.754.021c-.058-.042-.261,0-.29-.084a.353.353,0,0,1,.174.021c.029,0,.029-.021.029-.021a.866.866,0,0,0,.116.021l.029-.021c.087-.021.087.021.174.021.058,0,.087-.021.145-.021-.029,0,.029.021.029.021H84.8c.058,0,.174.021.232-.021a1.008,1.008,0,0,0-.435,0c-.058-.084-.174,0-.319-.021a.886.886,0,0,0-.348-.021c-.087,0-.087.084-.174.084-.029-.063.116-.084-.029-.084-.174-.021.029.084-.087.084-.087.021-.058-.042-.116-.042.029.084-.116.042-.174.042,0-.021.087-.021.087-.042-.116-.021-.116.042-.174.042,0-.042.029-.042.029-.084a15.806,15.806,0,0,1-1.77-.042c-.29.042-.754-.042-1.1,0a2.732,2.732,0,0,0-.638-.021c-.058,0-.087-.021-.145-.021-.551.021-.957-.042-1.45-.042-.058-.021-.087-.063-.174-.042-.435-.021-.957-.021-1.421-.042a3.009,3.009,0,0,0-.435.021c-.058,0-.145-.021-.174-.021h-.435c-.029,0-.029.021,0,.021.058.021.232-.021.232.021h-.9c-.058,0-.145-.021-.145.021.116,0,.232-.021.29.021.029-.042.058,0,.116,0,0-.042.087-.021.145-.021h.986a3.748,3.748,0,0,1,.7,0,.917.917,0,0,0,.261.042c.029.021.232.063.261,0-.058,0-.116,0-.116-.021.667.021,1.247.084,1.915.105.058,0,.087.021.145.021h.435c.145,0,.29-.021.319.042a11.179,11.179,0,0,0-1.189,0,2.264,2.264,0,0,1-.377-.021h-.435c-.029,0-.029.021-.087.021,0,0,0-.021-.029-.021H77.81c-.058,0-.087.021-.145.021-.058-.042-.174-.021-.261-.021-.058-.021-.087-.063-.174-.042-.348,0-.377-.021-.754-.021,0-.021.087-.021.087-.042-.116.021-.319-.042-.377.021.058.021.2-.021.174.021-.116.021.058.042.029.084h-.754c-.058-.021-.087-.063-.174-.042a1.4,1.4,0,0,1-.406-.021H73.981c-.058.042-.232,0-.29.042-.029-.063-.232,0-.319-.021H72.3c-.058,0-.087-.021-.145-.021-.058.063-.087-.021-.174.021-.087,0-.174,0-.174-.042a2.271,2.271,0,0,0,.406-.021h.261c.058.021.116-.084.145,0,.087,0,.087-.042.174-.021h.261c0-.063-.145-.021-.174-.021h-.493c-.145.042-.145,0-.261.021-.145-.042-.087.021-.232.021-.058-.042-.2-.021-.29-.021-.029.021-.029.063-.116.042-.058-.021-.029-.084-.116-.021-.058,0-.087-.021-.145-.021H69.6c.029-.021.029-.042-.029-.042-1.131-.042-2.263.021-3.336-.042-.116-.021-.116.042-.232.021h-.986c-.058,0-.058-.021-.116-.021a.866.866,0,0,1-.116.021c-.029,0-.087-.021-.145-.021-.2,0-.435-.021-.667,0a.856.856,0,0,1-.232,0,1.092,1.092,0,0,0-.261.021c-.116-.021-.232.021-.406,0a.781.781,0,0,0-.319-.021c-.087-.042-.232-.021-.29-.084.493-.042.725,0,1.16-.021.029-.021.029-.063.116-.042a1.484,1.484,0,0,1,.319.021h1.654c.058,0,.087.021.145.021.058-.042.174.021.319,0,.348-.042.667.063,1.044,0,.087-.021.058-.021.174,0h.435a1.543,1.543,0,0,0,.174-.042c.029.063.087-.042.145.021a.015.015,0,1,1,.029,0H68.3c.464-.021,1.044.042,1.479,0a.393.393,0,0,0,.174-.042c-.87,0-1.944-.021-2.64.021.029-.021.029-.042-.029-.042h-.522a.917.917,0,0,0-.261-.042c-1.189.021-1.944.042-3.075.084a1.545,1.545,0,0,0-.174.042,1.891,1.891,0,0,0-.841.021c0-.063-.145-.021-.174-.021H62c-.058,0-.087.021-.145.021a.286.286,0,0,0-.145-.021c-.087,0-.087.042-.174.021-.319.021-.725-.021-.986.021-.116-.063-.174.021-.29-.021,0,.042-.087.021-.145.021a.18.18,0,0,1-.116.021c-.087.021-.087-.042-.174-.021a2.792,2.792,0,0,1-.754.042c-.087,0-.087.042-.174.021h-.232c-.058,0-.145-.021-.145.021a.994.994,0,0,0-.377-.021,7.223,7.223,0,0,1-.986.021c-.058,0-.174.021-.232-.021-.232.063-.667,0-.928.042-.435,0-.551.042-.986.021-.348.063-.87-.021-1.218.042a2.108,2.108,0,0,0-.522-.021c-.029,0-.029,0-.029.021.058,0,.029.042,0,0-.116.021-.116-.042-.232-.021a.015.015,0,1,1-.029,0C52.746,26.342,52.6,26.342,52.253,26.384Zm14.824-.274c0-.021.058-.021.116-.021h.116c0,.021-.058.021-.116.021Zm.29,0c-.029-.021.029-.042.029-.021C67.425,26.089,67.367,26.11,67.367,26.11Zm-5.193.105c.058-.021.029.021,0,0C62.145,26.216,62.145,26.173,62.174,26.216Zm26.544.063c0,.063-.087.063-.145.021C88.6,26.237,88.631,26.279,88.718,26.279Zm1.131.063c-.029.021-.029.063-.029.105-.174-.042-.232.021-.377.084a1.218,1.218,0,0,0-.406-.021c0-.021.058-.021.087-.021-.029-.042-.145-.021-.116-.105-.087,0-.145,0-.145-.084h.29a.134.134,0,0,0,.087-.021C89.385,26.321,89.617,26.3,89.849,26.342Zm-21.09,0c-.029.063-.2,0-.232.042a9.361,9.361,0,0,1-1.1-.021c.058-.063.348.021.406-.042h.493C68.469,26.321,68.585,26.342,68.759,26.342Zm-1.48.021c-.029-.021.029-.042.029-.021C67.338,26.342,67.309,26.363,67.28,26.363Zm4.38.063c.058,0,.087.021.145.021C71.805,26.511,71.6,26.511,71.66,26.426Zm-.232.063c0-.021.058-.021.116-.021C71.544,26.49,71.486,26.49,71.428,26.49Zm.406,0c-.029-.021.029-.042.029-.021C71.892,26.468,71.863,26.49,71.834,26.49Zm18.334,0c-.029-.021.029-.042.029-.021C90.226,26.468,90.2,26.49,90.168,26.49Zm4.438,0c0-.021.058-.021.116-.021C94.723,26.49,94.665,26.49,94.607,26.49Zm.319,0c.029-.042.029,0,.029.021C94.9,26.511,94.868,26.49,94.926,26.49ZM37.4,26.511c0-.021.058-.021.087-.021h.087A.419.419,0,0,1,37.4,26.511Zm.348-.021v.042c-.029,0-.058,0-.029.021H37.69c0,.021-.058.021,0,0C37.661,26.511,37.661,26.468,37.748,26.49Zm.058.021c.029-.063.116,0,.087.042.058-.021.058-.063.174-.042,0,.042-.145.126-.174.042C37.835,26.553,37.864,26.511,37.806,26.511Zm38.786,0c0-.021.058-.021.116-.021A.227.227,0,0,1,76.592,26.511Zm17.841-.021c.087-.021.058.042.087.084-.029,0-.029-.021-.087-.021ZM38.1,26.532c0-.021,0-.021.029-.021.493-.021,1.131.021,1.654,0,.116-.021.145.042.261.021a.848.848,0,0,1,.232,0,3.842,3.842,0,0,0,.493,0c.116-.021.145.042.261.021h.232c.058-.021.2.021.174-.021a.587.587,0,0,0,.232.021c.116-.021.058.063.174.042.116.021.087-.042.145-.042.087.042.058,0,.145,0,.261.021.493-.021.754,0,.029,0,.029.021.029.021a.882.882,0,0,1,.29-.021c.145.021.348.021.493.042a2.443,2.443,0,0,1,.406-.021c.493.021.609,0,1.073.021-.029.063-.174,0-.261.021-.029-.042-.029,0-.087,0h-.638c-.377.042-.783.042-1.16.084h-.7s-.087-.042-.116-.021a.107.107,0,0,1-.116.021s-.058-.021-.029-.021c-.087,0-.2.063-.261,0a1.218,1.218,0,0,0-.406.021c-.116.021-.087-.063-.145-.084-.029.021-.058.063-.087.021H41a1.353,1.353,0,0,1-.319-.021c-.232.042-.348-.021-.551.021a2.351,2.351,0,0,0-.551-.021,3.85,3.85,0,0,0-.493,0c-.145-.021-.174.021-.29-.042a1.624,1.624,0,0,1-.638,0C38.241,26.532,38.212,26.532,38.1,26.532Zm33.68.232c-.087.063-.319,0-.435,0-.029-.063.2.021.174-.042-.058-.042-.261.021-.377.021,0-.021.029-.021.029-.042-.058,0-.087.021-.145.021a.865.865,0,0,1-.116-.021c-.145.021-.406-.042-.493.021-.058,0-.087-.021-.145-.021-.058.021-.232-.021-.232.021-.116-.021-.145-.063-.261-.021,0,.021.029.021.087.021,0,.021-.058.021-.116.021s-.116,0-.116-.042h-.145c.087-.063.116-.021.232-.042-.058-.063-.232,0-.29,0a3.49,3.49,0,0,0-.812,0,7.4,7.4,0,0,0-.754-.021c.087-.063.232-.021.319-.021.058,0,.116-.021.145-.021a.848.848,0,0,1,.174.021c.029,0,.029-.021.029-.021a.866.866,0,0,0,.116.021H68.9a.866.866,0,0,0,.116-.021,3.843,3.843,0,0,1,.493,0c.058,0,.116-.021.145-.021a.866.866,0,0,1,.116.021.866.866,0,0,0,.116-.021c.058,0,.087.021.145.021a3,3,0,0,0,.435,0c.116.042-.2.021-.261.021,0,.063.145.021.232.021h.29a.865.865,0,0,0,.116-.021c.29.042.638.063.928.105,0,.042-.087.021-.145.021C71.66,26.742,71.718,26.764,71.776,26.764Zm22.889-.211c0-.042.087-.021.087,0C94.694,26.574,94.665,26.595,94.665,26.553Zm-57.12.042c-.029-.021.029-.042.029-.021C37.6,26.574,37.574,26.595,37.545,26.595Zm33.071,0c-.029-.021.029-.042.029-.021C70.674,26.574,70.645,26.595,70.616,26.595Zm.087,0c0-.021.058-.021.087-.021A.134.134,0,0,0,70.7,26.595Zm1.6-.042c.116-.021.145.021.232.021C72.5,26.616,72.24,26.637,72.3,26.553Zm-5.425.19h.493c-.029.084-.261.021-.319.084a7.7,7.7,0,0,0-.986,0c0-.105.116.021.145-.042,0-.063-.145-.021-.232-.021-.087-.063-.116.021-.174-.021-.058,0-.087.021-.145.021H65.51c0-.021-.058-.042-.087,0-.087-.063-.145.042-.232-.021-.058.021-.174,0-.232.042-.29-.063-.812.021-1.1-.042h-.609c0-.021.058-.021.116-.021h.464c.058,0,.087,0,.087-.042a.9.9,0,0,1,.232.042c.609,0,.957-.042,1.6-.021-.087-.063-.319,0-.435-.021.029-.105.29-.042.435-.042a.286.286,0,0,1,.145.021,1.938,1.938,0,0,1,.377-.021c.029.042.174,0,.087.084.087-.021.232-.042.261.042A.681.681,0,0,1,66.874,26.742Zm.087-.148h.232c0,.042-.087.021-.145.021C66.961,26.637,66.787,26.574,66.961,26.595Zm.522.021c-.029-.021.029-.042.029-.021C67.541,26.595,67.483,26.616,67.483,26.616Zm.116,0c-.029-.021.029-.042.029-.021Zm3.916-.021c.058.021.2-.021.174.021.145-.021,0,.084,0,0C71.631,26.595,71.515,26.637,71.515,26.595Zm1.073.021c0-.063.145-.021.174-.021h.174c0,.063.058-.042.145,0h.174C73.14,26.679,72.792,26.616,72.589,26.616Zm2.118.042c-.029.063-.2.021-.232,0a4.742,4.742,0,0,1-.551,0c0-.021-.058-.021-.116-.021,0-.063.145-.021.232-.021a.765.765,0,0,1,.232.021v-.042c.087,0,.145,0,.145.042C74.5,26.595,74.561,26.658,74.706,26.658Zm.609-.042c-.087.105-.29,0-.522.021C74.938,26.532,75.112,26.637,75.315,26.616Zm1.073,0c0-.021.058-.021.087-.021C76.476,26.616,76.418,26.595,76.389,26.616Zm-11.314.021c0-.021.058-.021.116-.021A.227.227,0,0,1,65.075,26.637Zm6.962-.021c0,.042-.058.063-.145.042C71.834,26.574,71.95,26.616,72.037,26.616Zm2.611.021c0-.021.058-.021.087-.021C74.735,26.637,74.677,26.637,74.648,26.637Zm12.561.042c-.087-.063-.116.042-.232.021,0-.042,0-.063.029-.084.058,0,.058,0,.087-.021C87.209,26.595,87.238,26.616,87.209,26.679Zm.029-.063c.058.021.087.042.087.084C87.238,26.7,87.238,26.658,87.238,26.616Zm-23.9.042c0-.021.058-.021.116-.021A.227.227,0,0,1,63.335,26.658Zm.406-.021h.087C63.828,26.7,63.538,26.637,63.741,26.637Zm5.425,0c0,.084-.174.042-.29.042A.572.572,0,0,1,69.165,26.637Zm.058,0c.029,0,.029,0,.029.021.058,0,.261,0,.145.021C69.339,26.679,69.165,26.721,69.223,26.637Zm4.148.021s.087-.042.116-.021C73.488,26.658,73.314,26.7,73.372,26.658Zm.406-.021c0,.063-.145.042-.261.042C73.488,26.595,73.691,26.658,73.778,26.637Zm2.7.042c-.058.084-.116-.021-.232,0C76.3,26.574,76.36,26.679,76.476,26.679Zm4.409-.021c-.029-.021.029-.042.029-.021C80.943,26.658,80.885,26.658,80.885,26.658Zm-12.706.021c0-.021.058-.021.087-.021h.116c0,.021-.058.021-.087.021Zm.232,0c-.029-.021.029-.042.029-.021C68.469,26.679,68.411,26.7,68.411,26.679Zm.145,0c-.029-.021.029-.042.029-.021C68.614,26.679,68.556,26.7,68.556,26.679Zm8.7-.021c0,.021-.058.021-.087.021-.087-.021-.058.042-.116.042s-.087-.021-.145-.021c-.174-.021-.348.042-.406,0,0-.021.058-.063.087-.021A6.183,6.183,0,0,1,77.259,26.658Zm12.068.021c0-.021.116-.042.145-.021A.093.093,0,0,1,89.327,26.679ZM63.1,26.7c-.029-.021.029-.042.029-.021C63.16,26.7,63.1,26.721,63.1,26.7Zm8.79,0c0-.021.058-.021.087-.021H72.1c0,.021-.058.021-.087.021Zm5.686,0c-.029-.021.029-.042.029-.021C77.636,26.7,77.607,26.721,77.578,26.7Zm.087,0c.029-.042.29-.021.319,0-.029.042-.145.021-.232.042A.457.457,0,0,1,77.665,26.7Zm15.2,0a.015.015,0,1,1,.029,0C92.9,26.742,92.866,26.721,92.866,26.7Zm-24.252.042c0,.021-.145.042-.232.021S68.614,26.7,68.614,26.742Zm.493-.042c-.029.084-.29.042-.435.042-.029-.042.174-.084.174-.021C68.933,26.721,68.991,26.7,69.107,26.7Zm.116.042c0-.021.058-.021.116-.021h.145c0,.021-.058.021-.116.021Zm.928-.042h.087c.029.063-.058.042-.116.042C70.123,26.742,70.152,26.742,70.152,26.7Zm9.921.042c0-.021.058-.021.116-.021A.227.227,0,0,1,80.073,26.742Zm-17.638.021c-.058-.063.232,0,.232,0a.287.287,0,0,1,.232,0,1.308,1.308,0,0,1,.406,0H63.8c0,.063-.145.021-.232.021h-.232a5.608,5.608,0,0,1-1.189,0h-.667c-.145,0-.058-.042.029-.021h.928Zm5.309,0c0-.021.058-.021.087-.021A.134.134,0,0,1,67.744,26.764Zm.435,0c-.029-.021.029-.042.029-.021C68.237,26.742,68.179,26.764,68.179,26.764Zm-4.293.021c-.029-.021.029-.042.029-.021C63.944,26.764,63.886,26.785,63.886,26.785Zm13.373,0c-.029.063-.174,0-.261.021h-.406c0-.084.29-.063.377-.021A.67.67,0,0,1,77.259,26.785Zm3.075,0c0,.042-.116,0-.116.042-.145,0-.261.063-.29-.042C80.073,26.806,80.218,26.721,80.334,26.785Zm-4,.021c0-.021.058-.021.087-.021A.134.134,0,0,1,76.331,26.806Zm6.179-.021c0,.063-.116.042-.232.042-.174.021-.087-.042.029-.021S82.394,26.764,82.51,26.785Zm-17.667.063c-.029-.021.029-.042.029-.021C64.9,26.827,64.843,26.848,64.843,26.848Zm18.189-.042h.232c.029.084-.145.042-.232.042Zm1.247.042c-.029.063-.2,0-.29.021H83.7c-.029-.105.2-.021.29-.042C84.134,26.785,84.163,26.848,84.279,26.848Zm.116,0c.029-.042.029,0,.029.021C84.366,26.869,84.366,26.848,84.4,26.848Zm6.962.042a.18.18,0,0,1-.174.021C91.155,26.911,91.271,26.848,91.358,26.89Zm-.7.105c-.087.063-.232-.063-.261.042-.029-.042-.174,0-.174-.042-.087,0-.058.063-.145.042,0-.042.029-.063.029-.084a1.085,1.085,0,0,0-.493.084,1.484,1.484,0,0,0-.319.021c-.116.021-.116-.042-.174-.042A1.352,1.352,0,0,1,88.8,27c-.116-.021-.087.042-.174.021H88.37c-.029,0-.058-.021-.029-.021-.029,0-.058.021-.087.021A.487.487,0,0,1,87.993,27h-.145c-.058,0-.145,0-.087-.021h.667c.145.021.232-.042.29,0,.058,0,.087-.021.145-.021.29-.021.7.021.928-.021a.286.286,0,0,1,.145.021,4.18,4.18,0,0,1,.9-.021c.116.021.116-.042.261-.021-.058.084,0,.126-.029.169-.087-.042-.116-.042-.087-.126-.087.021-.232-.021-.261.021.058,0,.058.042.116.021.029.042-.174.042-.116-.021C90.661,26.974,90.661,26.974,90.661,27Zm.435-.084c-.029-.021.029-.042.029-.021C91.155,26.911,91.1,26.911,91.1,26.911Zm.609.021c.029-.042.116-.063.232-.042h.145c0,.021-.058.021-.116.021C91.851,26.911,91.764,27,91.706,26.932Zm-.232.084c-.087-.021-.261.042-.232-.042.029,0,.087,0,.087.021.058,0,.029-.063.087-.021.029,0,.029-.021.029-.042a.271.271,0,0,1,.145.042c.058,0,.029.042,0,0C91.532,26.974,91.445,26.953,91.474,27.016Zm6.208-.084c0-.021.058-.021.087-.021C97.769,26.932,97.711,26.932,97.682,26.932Zm-12.358.021c-.029.084-.232.042-.377.042-.029-.063.174.021.145-.042Zm.087.042c.087-.063.319,0,.493-.021,0,.063-.145.021-.174.021,0,.042-.087.021-.145.021C85.469,27.016,85.469,26.974,85.411,27Zm.667-.042a.134.134,0,0,1,.087.021c.319-.063.493.021.783-.021.029.084-.087.042-.145.042h-.232c-.087-.021-.087.021-.145.021C86.252,26.974,86.107,27.1,86.078,26.953Zm1.537,0c0,.042-.058.063-.145.042C87.441,26.932,87.557,26.974,87.615,26.953Zm-4.177.063c-.029-.021.029-.042.029-.021C83.5,27,83.438,27.016,83.438,27.016Zm.058,0c-.029-.021.029-.042.029-.021C83.554,27,83.525,27.016,83.5,27.016Zm.319,0c0-.042.232-.042.174.021C83.9,27.059,83.9,27,83.815,27.016Zm8.123,0c0-.021.058-.021.116-.021H92.2c0,.021-.058.021-.116.021Zm.319,0c0-.021.058-.021.116-.021h.116c0,.021-.058.021-.116.021Zm.319,0c-.029-.021.029-.042.029-.021C92.634,27,92.605,27.016,92.576,27.016Zm-7.4.042c0-.042.029,0,.029,0h.58c.058.021,0,.021-.029.021h-.783c-.116,0-.232.021-.29-.021h.493Zm3.1,0c.029-.084.116.021.174,0C88.428,27.143,88.341,27.059,88.283,27.059Zm.377,0c0-.021.058-.021.116-.021A.227.227,0,0,1,88.66,27.059Zm.145,0c0-.021.058-.021.087-.021h.116c0,.021-.058.021-.087.021Zm-2.93.021c0-.021.058-.021.116-.021h.377c0,.021-.058.021-.116.021h-.377Zm.9,0c-.029-.021.029-.042.029-.021C86.832,27.08,86.774,27.1,86.774,27.08Zm.116,0c0-.021.058-.021.116-.021C86.977,27.1,86.919,27.08,86.89,27.08Zm.348,0c0-.021.058-.021.116-.021H88.2c0,.063-.145.021-.232.021h-.725Zm1.334,0c-.029-.021.029-.042.029-.021C88.631,27.08,88.6,27.1,88.573,27.08Zm-18.334.126c.029-.042.116-.042.174-.042a2.246,2.246,0,0,0,.377,0,.015.015,0,1,0,.029,0c.029,0,.029.042.087.042.029-.063.029.021.029.021.058.021.174-.021.261,0h.116c0,.021-.058.021-.087.021h-.261c-.058-.021-.2.021-.174-.021a.209.209,0,0,1-.174.021C70.5,27.248,70.413,27.206,70.239,27.206Zm-1.77,0c-.029-.021.029-.042.029-.021C68.527,27.206,68.5,27.227,68.469,27.206Zm17.348.063c-.029-.084.145-.042.232-.042h.29v.021a.521.521,0,0,1,.261-.021c.087.021.029,0,.116,0a.865.865,0,0,1,.116.021c.029,0,.058-.021.087-.021.174-.021.261.021.406,0h.116c.029,0,.029.021.029.021.029,0,.232-.063.232.042a3.01,3.01,0,0,1-.435-.021h-.9v-.021C86.165,27.269,86.049,27.248,85.817,27.269Zm-17,0c0-.021.058-.021.087-.021,0,.021,0,.021.029.021.058,0,.058-.021.116-.021.087,0,.087.042.174.021h.29c.058.021.232-.021.232.021H68.556c-.029,0-.029-.021,0-.021Zm1.247,0c-.029-.021.029-.042.029-.021C70.123,27.248,70.065,27.269,70.065,27.269Zm17.841.021c-.029-.021.029-.042.029-.021C87.964,27.269,87.935,27.29,87.906,27.29Zm-22.134.021c0-.021.058-.021.087-.021C65.858,27.312,65.8,27.312,65.771,27.312Zm.116,0c0-.021.058-.021.116-.021A.227.227,0,0,1,65.887,27.312Zm.174,0c0-.021.058-.021.087-.021C66.148,27.312,66.09,27.312,66.061,27.312Zm.116,0c-.029-.021.029-.042.029-.021C66.235,27.312,66.177,27.333,66.177,27.312Zm.174.021c-.029-.021.029-.042.029-.021C66.41,27.333,66.381,27.354,66.351,27.333Zm.609,0c0-.021.058-.021.116-.021h.116c0,.021-.058.021-.116.021Zm25.325.126c-.029-.021.029-.042.029-.021C92.344,27.459,92.286,27.48,92.286,27.459Zm.7,0c0-.021.058-.021.087-.021h.116c0,.021-.058.021-.087.021Zm.609,0c-.029-.021.029-.042.029-.021C93.649,27.459,93.591,27.48,93.591,27.459Zm.261-.021c.058.042.261,0,.261.105-.174.021-.232-.042-.377,0C93.707,27.48,93.882,27.522,93.853,27.438Zm-1.334.063c-.029-.021.029-.042.029-.021C92.576,27.48,92.518,27.5,92.518,27.5Zm2,0c-.029-.021.029-.042.029-.021Zm.406.042c.087-.063.261-.105.29,0,.058,0,.029-.063.087-.084.029.021.232.063.261,0,.087.063.319,0,.406.042-.029.063-.2,0-.232.042h-.232a.174.174,0,0,1-.116-.042c-.058.021-.058.063-.174.042v-.021A1.485,1.485,0,0,1,94.926,27.543ZM96.2,27.5c0-.021.058-.021.087-.021C96.289,27.5,96.231,27.48,96.2,27.5Zm-4.409.021c-.029-.021.029-.042.029-.021C91.851,27.5,91.822,27.522,91.793,27.522Zm.9,0c0-.021.058-.021.087-.021C92.779,27.522,92.721,27.522,92.692,27.522Zm1.886,0c-.029.063-.174,0-.261.021-.058,0-.261,0-.145-.021C94.288,27.459,94.433,27.522,94.578,27.522Zm.087,0c0-.021.058-.021.087-.021A.134.134,0,0,1,94.665,27.522Zm.145,0c0-.021.058-.021.087-.021A.134.134,0,0,1,94.81,27.522Zm4.816,0c.029-.042.029,0,.087,0C99.683,27.543,99.625,27.543,99.625,27.522Zm-6.237.021c-.029-.021.029-.042.029-.021C93.446,27.522,93.417,27.543,93.388,27.543Zm.145,0c0-.021.058-.021.087-.021C93.62,27.543,93.562,27.543,93.533,27.543Zm2.466,0c0-.021.058-.021.116-.021A.227.227,0,0,1,96,27.543Zm-4.264.021c0-.021.058-.021.087-.021A.134.134,0,0,1,91.735,27.564Zm.2-.021a.174.174,0,0,1-.116.042A.174.174,0,0,1,91.938,27.543Zm4.554.211c0,.063-.145.021-.232.021-.377-.021-.667.021-1.044,0h-.087c-.029-.021-.058,0-.232,0-.058,0-.116-.021-.145-.021-.058,0-.058.021-.116.021-.029,0-.058-.021-.087-.021-.058,0-.116.021-.232.021a2.606,2.606,0,0,0-.406,0,2.87,2.87,0,0,0-.754-.042c0-.021.029-.021.029-.021a.174.174,0,0,1,.116-.042.068.068,0,0,0,.087,0,1.96,1.96,0,0,0,.261.042c.116,0,.261-.021.319.021,0-.042.087-.021.145-.021h.145C94.984,27.775,95.883,27.67,96.492,27.754Zm-3.626-.063c0-.021.058-.021.087-.021C92.953,27.691,92.9,27.691,92.866,27.691Zm.261-.021h.087v.042h-.087Zm3.423.084c.029-.084.087.021.145,0C96.7,27.817,96.579,27.754,96.55,27.754Zm-68.259,0c-.058.042-.058.126-.116.148-.116.021-.116-.063-.116-.126A.287.287,0,0,1,28.291,27.754Zm69.13.021c0-.021.058-.021.087-.021C97.508,27.775,97.45,27.775,97.421,27.775Zm-69.333.253c0,.063-.174,0-.174.042-.116-.042-.174.021-.348,0-.058-.105.232,0,.232-.084C27.914,28.028,27.972,27.986,28.088,28.028Zm70.087.253a2.968,2.968,0,0,0-.638-.042,1.033,1.033,0,0,0-.435-.021c0-.021-.058-.021-.087-.021.058-.105.319.021.522-.021.087-.021.087.042.174.021.058,0,.145-.021.145.021C98,28.2,98.175,28.2,98.175,28.281Zm.058-.126c-.029-.021.029-.042.029-.021C98.291,28.134,98.262,28.155,98.233,28.155Zm-1.509.021c0-.021.058-.021.087-.021C96.811,28.176,96.753,28.176,96.724,28.176ZM63.886,28.2c0-.042.087-.021.087,0C63.915,28.218,63.886,28.239,63.886,28.2Zm0,.084c-.029-.021.029-.042.029-.021C63.944,28.26,63.886,28.281,63.886,28.281Zm-38,.253a.035.035,0,0,1,.058-.021A.116.116,0,0,1,25.883,28.534Zm70.377.105c0,.063-.087.063-.145.021a1.255,1.255,0,0,0-.261.084,3.654,3.654,0,0,0-.522-.021c-.058,0-.058-.021-.087-.042A3.92,3.92,0,0,1,96.26,28.639Zm.406.063c0,.105-.232.021-.319.042h-.406c0-.042.116,0,.116-.042.116.021.087,0,.174.021.087-.021.087,0,.232-.021C96.492,28.7,96.608,28.639,96.666,28.7Zm.319.021c-.087-.063-.145.021-.29,0C96.7,28.682,96.986,28.639,96.986,28.724Zm1.479.084c-.029-.021.029-.042.029-.021C98.523,28.787,98.465,28.808,98.465,28.808Zm-71.886.042c-.029-.021.029-.042.029-.021C26.637,28.85,26.608,28.871,26.579,28.85Zm72.379.632c.116-.021.116.042.232.021C99.132,29.546,98.929,29.609,98.958,29.482Zm-1.218.063c0-.021.058-.021.087-.021h.116c0,.021-.058.021-.087.021Zm.609,0c-.029-.021.029-.042.029-.021C98.407,29.525,98.378,29.546,98.349,29.546Zm.145,0c0-.021.058-.021.087-.021C98.581,29.546,98.523,29.525,98.494,29.546Zm.116,0c0-.021.058-.021.087-.021C98.7,29.546,98.639,29.525,98.61,29.546Zm.609.126c-.029-.021.029-.042.029-.021C99.277,29.651,99.219,29.672,99.219,29.672Zm2.292.148c-.029.105-.29.042-.435.042a4.827,4.827,0,0,0-.58-.021c-.029,0-.029.042-.029.084-.087.021-.058-.042-.087-.084-.145-.021-.116.063-.232.042-.261-.021-.522-.063-.812-.084v-.084c-.087,0-.058.063-.145.042,0-.063.029-.084.116-.084.058.021.2-.021.174.021a.4.4,0,0,0,.116-.084c.029,0,.029,0,.029.021.058.021.232-.021.232.021.029-.063.261.021.29-.042a2.454,2.454,0,0,0,.435.021c.058,0,.058.021.116.021h.319c.145.021.145.063.29.021C101.308,29.82,101.453,29.8,101.511,29.82Zm-2.437-.063c-.029-.021.029-.042.029-.021C99.132,29.756,99.074,29.778,99.074,29.756ZM25.1,31.211c0-.021.058-.021.087-.021C25.187,31.211,25.129,31.211,25.1,31.211Zm77.194.253c-.087-.021-.058.042-.116.042h-.435a1.218,1.218,0,0,0-.406-.021c-.058-.021-.145-.021-.232-.042s-.377-.042-.551-.084c.116-.084.261,0,.406-.042a4.287,4.287,0,0,0,.522,0c0-.063-.145-.021-.232-.021h-.232a1.816,1.816,0,0,0-.493-.021.174.174,0,0,1,.116-.042c.435.021.957.021,1.421.042v.084C102.236,31.316,102.265,31.379,102.294,31.464Zm-41.368-.148c-.029-.021.029-.042.029-.021C60.985,31.3,60.927,31.316,60.927,31.316Zm41.542.19c0-.021.058-.021.087-.021C102.555,31.506,102.5,31.506,102.468,31.506Zm-1.741.063c.058-.063.29,0,.406-.021.029.084-.116.042-.174.042A.765.765,0,0,1,100.728,31.569Zm.435.021c0-.021.058-.021.087-.021h.116c0,.021-.058.021-.087.021Zm-76,.97c-.029-.021.029-.042.029-.021C25.216,32.56,25.158,32.581,25.158,32.56Zm.116,0c0-.021.058-.021.087-.021A.134.134,0,0,1,25.274,32.56ZM98.407,35c-.029.084-.145.042-.232.021-.145-.021-.174.063-.261,0h-.638c-.058,0-.087-.021-.145-.021-.029-.021-.029-.063-.116-.042-.464,0-.986.021-1.421-.021-.087.042-.406-.063-.493,0-.058.063-.116-.063-.174,0a.107.107,0,0,1-.116.021.587.587,0,0,0-.232-.021s-.029.042-.029.021a2.425,2.425,0,0,0-.783,0H93.62c-.058-.042-.116,0-.232,0a.867.867,0,0,0-.116-.021s0,.021-.029.021c-.174,0-.58,0-.783-.021-.058,0-.087.021-.145.021s-.116-.021-.174-.021c-.145.021-.348-.021-.58,0h-.638a2.443,2.443,0,0,0-.406-.021c0,.063-.058-.042-.145,0-.348,0-.725,0-1.044.021-.029-.105.2-.021.29-.042h.319a5.892,5.892,0,0,0,.638-.021c.319.042.435,0,.754.021a1.218,1.218,0,0,1,.406.021c.087-.084.261.063.319-.021.145-.021.261.063.435.021.029,0,.058-.042.116-.021a6.484,6.484,0,0,0,.7.021c.087,0,.087-.021.145-.021a.866.866,0,0,0,.116.021c.377,0,.9.021,1.334,0,.116,0,.2-.021.29-.021H95.3s.058.021.029.021c.058,0,.058-.021.116-.021.087,0,.2.021.29.021a.073.073,0,0,1,.087-.021s0,.021.029.021a1.328,1.328,0,0,0,.29,0c.029-.021.029,0,.116,0h.667A11.022,11.022,0,0,1,98.407,35ZM84.657,34.92c0-.021.058-.021.116-.021h.377c0,.021-.058.021-.116.021h-.377Zm.667.021c0-.042.087-.021.145-.021s.058-.021.116-.021c.319.021.667,0,.986,0,.087,0,.174.021.261.021.725.042,1.45-.063,2.176-.021h.232c.058.021-.029.021-.087.021-.725.063-1.683-.021-2.408.042C86.339,34.92,85.788,34.963,85.324,34.941ZM75.548,35c0-.042.087-.021.087,0C75.577,35,75.548,35.026,75.548,35Zm20.307,0c-.029-.021.029-.042.029-.021Zm-19.639.021c-.029-.021.029-.042.029-.021C76.273,35,76.215,35.026,76.215,35.026ZM27.1,35.068c0-.021.058-.021.087-.021h.087C27.247,35.089,27.16,35.068,27.1,35.068Zm66.693.021c0-.021.058-.021.087-.021C93.882,35.089,93.824,35.089,93.795,35.089Zm.261-.021a.286.286,0,0,0,.145.021C94.23,35.131,94,35.131,94.056,35.068Zm-3.249.063c-.029-.021.029-.042.029-.021C90.865,35.11,90.807,35.131,90.807,35.131Zm1.479,0c-.029-.021.029-.042.029-.021C92.344,35.11,92.286,35.131,92.286,35.131Zm-17.174.021c-.029-.021.029-.042.029-.021C75.17,35.131,75.112,35.152,75.112,35.152Zm18.566-.021a.174.174,0,0,1-.116.042C93.562,35.11,93.62,35.131,93.678,35.131Zm1.45.021c-.029-.021.029-.042.029-.021C95.187,35.131,95.158,35.152,95.129,35.152Zm-39.714.021c-.029-.021.029-.042.029-.021C55.473,35.152,55.415,35.173,55.415,35.173Zm20.713,0c-.029-.021.029-.042.029-.021C76.186,35.152,76.157,35.173,76.128,35.173Zm.609-.021a.174.174,0,0,1-.116.042A.174.174,0,0,1,76.737,35.152Zm.638.021c0-.021.058-.021.116-.021A.227.227,0,0,1,77.375,35.173Zm16.1,0c0-.021.058-.021.087-.021A.134.134,0,0,1,93.475,35.173Zm3.1,0c0-.042.087-.021.145-.021.029.063-.058.042-.087.084C96.608,35.215,96.637,35.173,96.579,35.173Zm-24.89.021c0-.021.058-.021.087-.021C71.776,35.194,71.718,35.194,71.689,35.194Zm1.363,0c-.029-.021.029-.042.029-.021C73.111,35.194,73.082,35.194,73.053,35.194Zm4.554,0c.174-.021.029.084,0,0C77.433,35.215,77.578,35.11,77.607,35.194Zm5.57,0a.015.015,0,1,1,.029,0A.015.015,0,1,1,83.177,35.194Zm10.966,0c0-.021.058-.021.087-.021A.134.134,0,0,1,94.143,35.194Zm2.843,0c0-.021.058-.021.116-.021C97.1,35.194,97.044,35.194,96.986,35.194Zm.174,0c0-.021.058-.021.087-.021C97.247,35.194,97.189,35.194,97.16,35.194Zm-19.785.021c0-.021.058-.021.087-.021A.134.134,0,0,1,77.375,35.215Zm12.619,0c-.029-.021.029-.042.029-.021C90.052,35.215,89.994,35.237,89.994,35.215Zm6.44,0a.015.015,0,1,1,.029,0C96.463,35.258,96.434,35.237,96.434,35.215Zm.957-.021a.174.174,0,0,1-.116.042C97.276,35.194,97.334,35.194,97.392,35.194Zm-9.225.021c.029.148-.2-.021-.232.105-.058,0-.058-.042-.116-.042a.207.207,0,0,0-.116.084c-.058,0-.058-.021-.116-.021-.087.021-.493.084-.435-.084a1.327,1.327,0,0,0,.29,0c0,.021-.029.021-.029.042,0,.063.087-.042.174,0,.029,0,.029-.021.029-.042C87.877,35.258,87.964,35.215,88.167,35.215Zm7.63.042c-.029-.021.029-.042.029-.021C95.854,35.237,95.825,35.258,95.8,35.258Zm1.218,0c0-.021.058-.021.116-.021C97.131,35.258,97.073,35.237,97.015,35.258Z" transform="translate(-23.792 -25.979)" fill="#fff100"/>
</svg>
