<svg xmlns="http://www.w3.org/2000/svg" width="85" height="9" viewBox="0 0 85 9">
  <path id="Tracé_2865" data-name="Tracé 2865" d="M54.111,26.367h-.185c-.062,0-.093.04-.124,0H52.6a.209.209,0,0,0-.124-.02h-.8c-.124-.04-.155.02-.309,0h-.34c-.093,0-.093-.04-.185-.02a2.632,2.632,0,0,1-.4,0c-.433.02-.742-.04-1.174-.02-.062,0-.093-.02-.155-.02H48.8c-.062,0-.093-.02-.155-.02-.093-.02-.309.04-.34-.02.062,0,.124,0,.124-.02-.649-.02-1.36.02-1.947-.02-.062,0-.093.02-.155.02a.335.335,0,0,0-.155-.02h-.34c-.093-.02-.278.04-.309-.02.093,0,.185,0,.185-.04a1.754,1.754,0,0,0-.34.02h-.773c-.062-.02-.124.081-.155,0,0-.04.124,0,.124-.04a3.847,3.847,0,0,0-.711.04c-.093-.02-.309.04-.34-.02a.839.839,0,0,0,.247-.04,11.447,11.447,0,0,1-1.452.02H41.6c-.031,0-.031-.04-.093-.04-.031.061-.185,0-.278.02-.062,0-.093-.02-.155-.02a1.922,1.922,0,0,1-.68,0h-.742a.209.209,0,0,0-.124-.02H37.979a.152.152,0,0,0-.155-.081c-1.452-.02-2.565.04-4.017.02-.309.061-.834-.02-1.143.04-.4-.02-.68.04-1.051.02a1.621,1.621,0,0,1-.309.04h-.433c-.433.061-.9.081-1.391.1-.062,0-.093-.02-.155-.02a3.738,3.738,0,0,0-.68.02,1.66,1.66,0,0,0-.464-.02,5.226,5.226,0,0,1-.989.081c-.093-.04-.093.02-.155-.02,0-.061-.155-.02-.185-.02s-.031.04-.093.04h-.155c.062.1-.124.04-.093.121.093.061.278.04.433.081-.031.242.587.061.742.2a2.794,2.794,0,0,1-.711.02c-.062.1.247,0,.247.081.093.02.278-.04.309.02-.062.04-.216.02-.278.04h-.309c-.031.1.278.04.278.121H27.1c-.031.1.185.061.185.141-.124.02-.371-.04-.433.02.278.02.494.081.742.1.124.02.216.061.371.081.062.061.247.02.247.121.185-.02.216.04.34.04s.309-.02.309.04a1.951,1.951,0,0,1-.34.04c0-.04-.031-.04-.093-.04-.031.02-.031.061-.124.04H28a.332.332,0,0,1-.093-.081c-.247.02-.247-.121-.464-.1.031.061-.062.061-.031.121.062.04.216.02.247.1-.093,0-.031.081-.031.121a.244.244,0,0,1-.155.121c0,.061.031.162-.031.2-.216-.02-.309.04-.556.02a3.806,3.806,0,0,0-.464.1c-.062.02-.185,0-.247.04a.839.839,0,0,0-.247.04c.278.02.618-.081.8.02-.155.04-.34.04-.464.081a1.167,1.167,0,0,0-.4.04c.093-.02.062.04.124.04h.185c-.031.061.062.04.093.081,0,.04.093.02.093,0-.062-.02,0-.02.031-.02.093,0-.031.1.124.081.031,0,.031,0,.031.02.185.04.278-.1.4-.02-.062.061-.216.061-.34.081,0,.061.062.081-.031.1-.155.061-.155-.04-.371-.02-.062.121.247.04.278.1-.093.081.031.162.031.242a.335.335,0,0,1-.155.02c0,.04.031.121-.093.1-.031.02-.031.061-.093.081a.328.328,0,0,0,0,.242c-.093,0-.124,0-.124.04-.093.04-.062.141-.185.162-.031.04.124.081,0,.1-.031.04.155.061.031.081-.093,0-.155,0-.155.04.062,0,.185-.02.155.04.185.02-.031-.04.093-.04.093.02.062.081.155.02a1.325,1.325,0,0,0,.185.162c-.185-.02-.062.02-.031.081-.124-.02-.155.02-.247.04-.031-.061-.216-.02-.185.02.124-.02.124.04.185.04a.015.015,0,0,1,.031,0h-.031c0,.04-.062.061-.155.04-.031.02-.031.061-.093.081-.031-.061-.124.04-.247,0,0,.061-.216-.02-.155.081.093.061.155.02.247.04.031.061.278,0,.247.1-.093.02-.278-.02-.309.02a.2.2,0,0,1,.124.04,1.754,1.754,0,0,0-.34.02c-.124.02-.093-.04-.185-.02,0,.061-.155.02-.247.02h-.124c-.031,0-.031.02,0,.02.062.02.247-.02.247.02.031.061-.185-.02-.155.04a3.113,3.113,0,0,1,.464.02c.031-.02.247-.061.278,0a.418.418,0,0,1-.247.04c-.062.04-.185.02-.278.02,0,.04,0,.061-.031.081a.9.9,0,0,0-.247.02c-.031-.02-.216-.061-.247,0,.4.061.711,0,.989.081.124.02.34-.04.34.04a5.7,5.7,0,0,1-.68.081c0,.121.4.02.525.1a1.261,1.261,0,0,1-.4.04c0,.081-.093,0-.124.04a1.8,1.8,0,0,0-.185.04c-.185-.02-.247.04-.433.02-.093.061-.309.04-.433.081-.093-.081-.185,0-.4-.02-.031.121.247.04.309.121a.414.414,0,0,1,.309.1.671.671,0,0,0-.309.04,1.607,1.607,0,0,1,.587.081h.433c-.031.02-.031.04.031.04a4.579,4.579,0,0,0,.556-.02c.031.061.278-.02.247.081a3.228,3.228,0,0,0-.8.1h-.34c-.093.02-.247-.02-.278.02.155-.02.185.061.247.1a.354.354,0,0,1,.185.04c.062.02.216-.02.185.02-.062.081-.216-.061-.247.04.062.061.278.04.464.04.093-.02.062.04.124.04,0-.04.093-.04.155-.081.062.061.216.061.4.04.031.081-.093.04-.093.121.062.02.093.1.031.121a2.848,2.848,0,0,1-.587,0c-.093,0-.093.04-.185.02-.155.04-.278-.081-.34,0a2.416,2.416,0,0,0,.556.02c.185.081.464-.02.556.1.031.081-.062.081-.031.141,0,.061.124.04.124.121-.062,0-.124,0-.124.02.093,0,.093.061.093.121a1.951,1.951,0,0,1-.34.04c0,.061.031.04,0,.081-.031.02-.155-.02-.124.04a1.6,1.6,0,0,0,.34-.02c-.031.081.216.02.155.121-.062.04-.309-.02-.309.081-.062.081.247.04.124.1-.155,0,0,.02,0,.04-.062,0-.124,0-.124.02.031.061.247,0,.278.04-.124.02-.278,0-.309.081.093.04.371-.061.433.04-.031.02-.093.02-.124.04.124.02.155.081.155.141-.062.02-.185,0-.247.04h.185c.124.1.556.02.464.242-.155,0-.278-.04-.433-.04-.031.04.031.061.031.1-.062,0-.124,0-.124.02.124.04.155.121.4.1a1.49,1.49,0,0,0,.34.1c.185-.02.247.04.433.02v.081h.278c.062.04.031.1.155.1.093,0-.031-.1.124-.081a.161.161,0,0,1,.124.02,1.016,1.016,0,0,1,.124-.02c.093,0,.185.04.278.04.185.02.433.02.711.02a8,8,0,0,1,1.391.02c.062,0,.093-.02.155-.02a8.4,8.4,0,0,0,1.051.02c.062,0,.093.02.155.02.433,0,.834.02,1.236.04.185-.02.4,0,.618,0a4.55,4.55,0,0,0,.525,0h.278c.093,0,.093-.02.155-.02l.031.02h.124c.155-.04.155,0,.278-.02a4.355,4.355,0,0,0,.742-.02c0,.04.093.02.155.02h.155c.062,0,.093-.02.155-.02,1.113.02,2.071-.04,3.152-.04a.209.209,0,0,1,.124-.02,5.427,5.427,0,0,0,.618-.02c.031.061.185,0,.278.02h.309a.209.209,0,0,1,.124-.02h1.113a.335.335,0,0,1,.155-.02c.494,0,.927-.02,1.422,0h.093c.031.04.031,0,.093,0s.124.02.185.02c.093,0,.155-.02.247-.02s.155.02.247.02a2.659,2.659,0,0,1,.4,0h.464a.335.335,0,0,0,.155.02,8.6,8.6,0,0,1,1.02-.02,1.015,1.015,0,0,0,.124.02h.587s0-.02.031-.02c0,0,0,.02.031.02h.433c.062,0,.093-.02.155-.02.031,0,.093.02.155.02.34.02.68-.02,1.02,0a.209.209,0,0,1,.124-.02c1.391,0,2.781-.061,4.234,0,.185-.02.124,0,.278-.02a8.847,8.847,0,0,0,1.051.02.209.209,0,0,0,.124.02,4.323,4.323,0,0,1,.9.02h.34c.093,0,.093.04.185.02.155.02.4-.02.587,0h.093c.031.04,0,0,.155,0h.093v.02c.062,0,.062-.02.093-.02s.031.02.093.02c0,0,0-.02.031-.02a1.015,1.015,0,0,0,.124.02s.031-.04.031-.02a.123.123,0,0,0,.124.02c.093-.02.062,0,.247,0,.742.02,1.576-.02,2.441,0,.031,0,.093.02.155.02H61.1c.031,0,.031-.04.093-.04a1.345,1.345,0,0,0,.309.04c.124.02.155-.04.247-.04.062.081.309.02.433.081h.556a3.541,3.541,0,0,0,.464,0c.062,0,.093.02.155.02.031,0,.031-.02.093-.02s.062.02.093.02.093-.02.155-.02c.031,0,.093.04.155.02.124-.02.34.04.4-.02-.062,0-.093-.02-.031-.02s.062-.02.124-.02c.371.081.742-.04,1.02.02a.335.335,0,0,1,.155-.02,4.551,4.551,0,0,1,.525,0,3.55,3.55,0,0,1,.464,0c.093,0,.093-.04.185-.02h.464c.062,0,.093-.02.154-.02h.278c.062,0,.062-.02.124-.02,0,0,0,.02.031.02.062,0,.093-.02.185-.02H71.2c.062-.02.247.02.247-.02a2.415,2.415,0,0,0,.556.02c.247-.02.34.02.525,0,.093.04.062,0,.185.02a1.659,1.659,0,0,1,.464.02c0-.061.124,0,.155,0,0-.061.062.04.155,0a4.426,4.426,0,0,1,.9,0c.124.02.093-.04.185-.02,0,.061.155.02.185.02h1.483c.093,0,.124.04.247.02.124.02.062-.061.185-.04.031,0,.031.02.093.02.031,0,.062-.02.031-.02a1.016,1.016,0,0,0,.124.02c.062,0,.124-.02.185-.02s.124.02.185.02a2.221,2.221,0,0,0,.525-.02,2.472,2.472,0,0,0,.68.02c.093,0,.093.04.185.02a1.018,1.018,0,0,1,.433.02c0-.04.031-.04.093-.04.093,0,.062.061.155.04a.76.76,0,0,1,.309-.02c.247.04.742,0,1.051.04.247-.04.525,0,.8-.02.031.02.247.061.278,0-.062-.04-.216,0-.278-.04-.124-.02-.155.02-.247-.02.031-.061.185,0,.278-.02h.278c.093-.02.093.04.155.04,0-.04.093-.02.155-.02a.209.209,0,0,1,.124-.02c.124-.02.093.081.247.04.031-.02.031-.061.124-.04s.247-.02.278.02c.093,0,.124-.04.247-.02.093-.04.155.081.185,0-.031,0-.031-.02,0-.02.154.061.216-.02.4-.02a4.83,4.83,0,0,1,.587.081c.031-.04.031,0,.093,0,0-.04.031-.04.093-.04a.9.9,0,0,0,.247-.02.335.335,0,0,0,.155.02c.155-.04.247.04.4-.02,0,.04.124,0,.124.04a.209.209,0,0,0,.124.02,1.66,1.66,0,0,1,.464.02.2.2,0,0,1,.124-.04c0,.061.155,0,.247.02a.414.414,0,0,1,.185.02c0-.061.155-.02.247-.02a.33.33,0,0,0,.247.1c.062,0,.031-.1.155-.081s.124-.04.247-.02c.216.02.371.04.525.04.093.02.093-.04.155-.04.031.061.185.04.247.081.031-.04.093-.04.155-.04.062.061.247,0,.309,0,0,.04.124,0,.124.04.093.04.124-.1.155-.02v.1c.124,0,.062-.121.185-.121,0,.061.278-.02.278.04-.155,0,0,.04-.093.081.278,0,.247.02.464.02.031-.061-.124-.141-.154-.081a.153.153,0,0,1-.185-.02c.093-.081.247-.02.34-.04a.335.335,0,0,0,.155.02h.464a.156.156,0,0,1,.093.02.791.791,0,0,1,.309,0c.031-.02.185-.061.185,0s-.093.061-.185.081c0,.04.247.02.34.02,0,0,0,.02.031.02a.342.342,0,0,1,.185-.02c.124-.02.093.04.185.02a1.659,1.659,0,0,1,.464-.02c.031-.02.031-.061.124-.04.062.02.031.081.154.04a1.8,1.8,0,0,0,.185-.04c-.093-.061-.216.02-.278-.02a.274.274,0,0,1,.278,0c0-.061.062-.081.124-.1.093.081.124.02.278,0,.124.061.216-.04.34.02.093,0,.062-.061.155-.04-.124.081.124.02.124.1-.062,0-.124,0-.124.02a.414.414,0,0,0,.185-.02c-.031-.02-.062-.061,0-.081.093.02.247-.02.278.02.062.04.185.02.247.04,0-.04.031-.04.093-.04.124.02.155-.02.247-.02.124.061.185,0,.278.081a.166.166,0,0,1,.155-.081c.093.02.155,0,.309.02.062,0,.124-.02.185-.02.124,0,.062.02.155,0s.155.02.247.02c.062,0,.031-.02.031-.02.031,0,.062.04.124.02.031,0,.062-.02.031-.02.062,0,.062.02.124.02.031,0,.062-.04.124-.02.062,0,.062.04.124.04a.12.12,0,0,1,.093-.04,2.89,2.89,0,0,1,.4.02,1.017,1.017,0,0,1,.124-.02c.031,0,.093.02.155.02.031,0,.031-.02.031-.02.031,0,.093.02.154.02a3.058,3.058,0,0,1,.433,0c.093,0,.124-.04.247-.02.093,0,.093.04.155,0,.093,0,.062.061.155.04,0-.061.155-.02.185-.02h.247c.093,0,.031.1.154.081,0-.061.031-.081.124-.081.124-.02.4.02.618,0a1.951,1.951,0,0,0,.34.04c.031-.02.124-.081.155,0a2.416,2.416,0,0,1-.556.02c0,.02.062.02.124.02h.4c.093,0,.093.04.185.02.062-.061-.185-.04-.031-.081.093.02.062-.04.124-.04-.031.061.062.04.124.04.124.02.093-.04.185-.02.031.081.093-.02.124-.02-.062.1.185,0,.155.081.093.02.093-.04.155-.04,0,.02.124.081.124.02-.062,0-.031-.04,0,0,.124-.02.124.04.185.04.031-.04.155-.02.247-.04,0,.04.093.02.155.02s.093.02.155.02c0-.061.093-.061.185-.04-.031-.081.062-.081.124-.1a17.812,17.812,0,0,0,2.256.1,1.49,1.49,0,0,1,.34-.1h.124c.031,0,.031-.02,0-.02-.093-.02-.34.04-.309-.04.093,0,.093.04.185.02-.031-.061.185.02.155-.04a4.352,4.352,0,0,0-.711-.02c-.062-.061-.247-.04-.309-.1.155,0,0-.02,0-.04s.093-.02.093-.04c-.124-.02-.247-.02-.34-.04-.062,0-.155.02-.155-.02-.062,0-.093.04-.124,0,.031-.04.093-.04.155-.081,0-.04.093-.04.155-.081a.974.974,0,0,0,.464-.081.76.76,0,0,0,.309-.02c.124,0,.247,0,.247-.081-.124-.02-.34.04-.4-.02a5.645,5.645,0,0,1,1.3-.02c.093-.02.124-.061.247-.04.124,0,.185.02.309.02a2.11,2.11,0,0,1,.618,0c.031-.02,0-.081.124-.081.124-.04.124,0,.278,0,0-.02.093-.02.093-.04-.031,0-.031-.02,0-.02a6.4,6.4,0,0,0,.865.02c0-.1-.247-.061-.4-.081-.093-.061-.309-.04-.34-.121a.414.414,0,0,1-.185-.02c-.062-.02-.216.02-.185-.02.062,0,.154.02.154-.02-.062,0-.154.02-.154-.02-.247-.02-.618.04-.711-.081a1.439,1.439,0,0,1,.309-.02.166.166,0,0,1,.155-.081c.278,0,.525-.04.834-.02.031-.04.185,0,.185-.04-.124,0-.278,0-.309-.04a.2.2,0,0,0,.124-.04.917.917,0,0,1-.433-.081c-.093,0-.093-.02-.155-.02s-.155.02-.155-.02c.031-.081.247-.02.309-.081h-.093c-.093,0-.155,0-.155-.04-.093,0,.031-.1-.124-.081a.76.76,0,0,0-.309-.02c-.34-.061-.742-.081-1.051-.141a.974.974,0,0,1-.464-.081c.093-.02.371.02.587,0,.062-.04,0-.04,0-.081.062,0,.124,0,.124-.02a.354.354,0,0,1-.185-.04c.031-.02.093-.02.093-.081-.031-.061-.216,0-.185-.1a4.6,4.6,0,0,1,1.051-.02c.062-.04.185-.02.278-.02s.124.04.247.02a1.439,1.439,0,0,1,.309-.02c.031-.04.216,0,.247-.04-.216.02-.309-.04-.525-.02,0-.02-.062-.02-.124-.02,0-.04-.062-.061-.155-.04.031-.02.031-.04-.031-.04a.244.244,0,0,0-.185-.02c-.062,0-.155.02-.155-.02s.124,0,.124-.04c-.309.02-.464-.081-.8-.04,0-.02-.062-.02-.093-.02,0-.061-.031-.081-.124-.081.031-.02.031-.061.031-.1H105.6c0-.081-.216-.04-.185-.121.062-.02.216.02.185-.02-.124-.02,0-.081.093-.04-.031-.081-.247-.02-.278-.081.124-.081.494-.02.68-.081.185.061.371-.02.556.02.031-.1-.216-.02-.309-.04a1.572,1.572,0,0,0-.309,0c-.062-.061-.309.02-.34-.04h.8c.031-.02.031-.061.124-.04a1.155,1.155,0,0,0,.278-.02c.031.02.031.061.124.04.278-.04.433.04.8.02a.209.209,0,0,0,.124.02h.464c.062,0,.093.02.155.02.216.02.371-.04.031-.02a1.6,1.6,0,0,0-.525-.04c-.031-.061-.155-.061-.278-.081-.031,0,0-.061-.031-.081-.062-.02-.278.02-.247-.081a.647.647,0,0,1,.34,0h.68c.062,0,.155.02.155-.02H108.5c0-.02-.062-.02-.093-.02-.031-.02-.031-.061-.124-.04-.216.02-.309-.04-.525-.02-.062-.04-.216-.061-.278-.1h-.247c-.031-.04-.093-.04-.155-.04h-.309c-.062-.02-.185,0-.155-.081h.124a.015.015,0,0,0,.031,0c.062-.02.216.02.185-.02-.155,0-.093-.02-.031-.04a5.041,5.041,0,0,1-.742-.081,5.962,5.962,0,0,1-.865-.02c-.124,0-.216.04-.278-.02,0-.061.278.02.278-.04-.062-.04-.247,0-.247-.081.062,0,.309,0,.185-.02-.124,0-.278.02-.278-.04.247-.02.433-.061.587-.081a4.307,4.307,0,0,0,.525-.02c.093.02.247-.02.093-.02-.155.02-.155-.04-.309-.02-.062-.02-.185,0-.247-.04a.439.439,0,0,1,.155-.04c.062-.02.216.02.185-.02a1.621,1.621,0,0,0-.309-.04c-.031-.061-.155-.081-.124-.162-.093-.02-.216-.02-.278-.04-.124,0-.247.02-.247-.081a1.362,1.362,0,0,0,.525-.04c-.062,0-.062-.02-.093-.04.185.04.433.02.618.04a2.512,2.512,0,0,0,.464-.04c.031.061.093-.04.155.02a.9.9,0,0,1,.247.02c-.031-.061.185.02.155-.04-.124-.02-.278-.02-.34-.081h.093c.031-.1-.185.04-.185-.081a1.8,1.8,0,0,0,.185-.04,5.361,5.361,0,0,1-.834-.04c-.216.02-.433-.02-.556,0a.838.838,0,0,0-.247-.04,1.155,1.155,0,0,0-.278.02.175.175,0,0,0-.185-.04c-.093-.02-.093.04-.155.04-.031-.04-.155-.02-.247-.04-.062-.02-.247.02-.247-.02.062-.04.155.02.278-.02.093,0,.093.04.185.02a1.9,1.9,0,0,1,.34,0h.433c.031,0,.031-.04.093-.04a.921.921,0,0,0,.34.02c.031,0,.031.02.031.04a5.127,5.127,0,0,1,.8-.02c0-.121-.155-.02-.278-.081-.093,0-.062.061-.154.04-.062-.04-.155-.02-.155-.1a.512.512,0,0,1-.247,0c.031.04-.216.04-.185,0,.062,0,.155.02.155-.02-.155.02-.309-.02-.185-.1-.124-.02-.062.081-.155.081a.332.332,0,0,1-.093-.081c-.124-.02-.031.081-.154.04-.062-.1-.433,0-.525-.1a.414.414,0,0,0,.185-.02c.093,0,.093.04.185.02h.124c0-.02-.062-.02-.093-.02-.124.02-.124-.04-.278-.02,0-.061-.216,0-.185-.1-.124-.02-.062.1-.185.081-.093,0-.093-.04-.185-.02,0-.04-.124,0-.124-.04a.715.715,0,0,1-.309-.02c-.124.02-.155.02-.185-.04.062,0,.062-.02.093-.04a.76.76,0,0,1-.309-.02c-.216-.02-.556.04-.68-.04a.414.414,0,0,0,.185-.02,3.782,3.782,0,0,0,.958,0c.031.04.185,0,.185.04a3.547,3.547,0,0,1,.68-.02c.093,0,.093.04.185.02.062-.02.216.02.185-.02-.093-.04-.371,0-.464-.04-.124,0-.309.02-.309-.04.155-.081.464.061.556-.04-.185-.02-.556.04-.618-.04.062-.04.185-.02.278-.02.093.061.124,0,.155-.04h-.556c-.062-.04-.185-.04-.247-.1-.031.081-.124-.02-.185,0-.124.02-.154-.02-.247-.02h-.309c.031-.061-.185.02-.155-.04.247,0,.464,0,.68-.02.124-.02.124.04.247.02h.278c.031-.04.185,0,.185-.04h-.34a.76.76,0,0,0-.309-.02c0-.061-.247.02-.247-.04s.278.02.278-.04a1.451,1.451,0,0,0-.34-.02c0-.061-.185-.02-.185-.081.309-.02.587.04.711,0,.031,0,.031.04.093.04a.432.432,0,0,0,.124-.081.2.2,0,0,0,.124.04c.031-.02.031-.061.124-.04a.2.2,0,0,0,.155,0,.244.244,0,0,0,.185.02c.124-.04.185.04.247-.04.155,0,.155-.04.278,0,0-.061.031-.081.124-.081.062,0,.155.02.155-.02-.185.02-.216-.04-.34-.04a.209.209,0,0,1-.124.02.423.423,0,0,0-.278-.02,1.076,1.076,0,0,0-.278-.04.9.9,0,0,0-.247.02c-.031-.04-.124-.04-.185-.04-.247,0-.464-.02-.68-.04h-.309a.335.335,0,0,0-.154-.02h-.278c-.062-.02-.247.04-.185-.04.185.04.34-.02.525.02.093.02.093-.04.155-.04,0,.04.093.02.155.02a.335.335,0,0,0,.154.02c.216,0,.216-.02.34-.02.093.04.34,0,.433.04-.031-.061.216.02.185-.04-.155-.02-.185.02-.278-.04-.155.04-.247-.02-.464,0,0-.04-.124-.02-.155-.04a.2.2,0,0,0-.124-.04c-.093,0-.124.04-.185.04-.031-.1-.34-.02-.433-.081h-.742a3.331,3.331,0,0,0-.464-.02h-.34c-.093-.02-.247.02-.278-.02h.185c.093.02.062-.04.124-.04,0,.061.031.02.093.02a.209.209,0,0,0,.124.02,2.245,2.245,0,0,1,.525,0c.062,0,.031-.02.031-.02a1,1,0,0,0,.185.02,2.667,2.667,0,0,0,.4,0v-.02c.093,0,.124.04.247,0a.335.335,0,0,0,.155.02c.124.02.062-.061.185-.04a3.285,3.285,0,0,0,.8.02c.031.04.185,0,.185.04a6.213,6.213,0,0,1,.834.04c.124.02.124-.04.278-.02a1.725,1.725,0,0,0,.464.02c.062,0-.031-.04.031-.04h.155c.031,0,.031-.02,0-.02h-.309c-.093-.04-.371,0-.464-.04h-.556c-.093.04-.278-.04-.4.02a.175.175,0,0,0-.185-.04c-.154.02-.278-.02-.525,0h-.556c-.093,0-.093-.04-.185-.02-.216,0-.247.02-.525.02-.433-.061-1.082.02-1.514-.04-.371.04-.8-.02-1.174.02-.093-.02-.247-.02-.309-.04-.031.061-.278,0-.309.04,0-.04-.062.02-.093-.02a.209.209,0,0,0-.124-.02c0,.061-.155.02-.247.02a.414.414,0,0,1-.185-.02c0,.081-.124-.061-.124.02a1.9,1.9,0,0,0-.34,0h-.9a.209.209,0,0,1-.124.02h-.525c-.093,0-.093.04-.185.02-.494,0-.989.04-1.422.02-.093,0-.124.04-.247.02a5.536,5.536,0,0,0-.834-.02c-.093,0-.093-.061-.155-.081-.031-.02-.124-.1-.155-.02.031,0,.093,0,.093.02-.031,0-.093,0-.093-.02a.414.414,0,0,0-.185.02,1.1,1.1,0,0,0-.185-.081c-.185-.02-.185,0-.309-.02,0,.061-.155.02-.185.02-.031-.02-.093-.02-.124-.04.062,0,.154.02.154-.02-.093-.02-.278.02-.309-.02a2.056,2.056,0,0,1,.618.04c.031-.04.031,0,.093,0,0-.02.062-.061.093-.02.031,0,.031-.04.093-.04a.244.244,0,0,0,.185.02c.031.02.031.061.124.04,0-.04.031-.04.093-.04s.062-.02.124-.02c0,.061.155.02.185.02h.68a.209.209,0,0,1,.124-.02,5.649,5.649,0,0,0,.834-.02,3.549,3.549,0,0,0,.464,0c.494,0,1.143-.04,1.669,0,.062,0,.124.02.185.02.093,0,.155-.02.247-.02a1.017,1.017,0,0,0,.124.02l.031-.02c.093-.02.154.02.247.02.031,0,.093-.02.155-.02.185-.02.34.04.556.02.124-.02.062,0,.247,0h.154a.612.612,0,0,0,.185-.04c.031.061.247,0,.278.04.062-.04.093.02.247,0,.124.02.093-.04.185-.02a6.347,6.347,0,0,0,.68.02,1.921,1.921,0,0,0,.34.02c.093.02.093-.02.155-.02.031.02.185.061.185,0-.062,0-.062-.02-.093-.04.062.02.155.02.155.081.062-.04.093,0,.185,0a1.754,1.754,0,0,1,.34.02,5.075,5.075,0,0,1,.556,0c.494-.162,1.422.1,1.978-.02.093,0,.093.04.185.02h.309c.062,0,.093.02.155.02.062-.04.34.04.433-.02-.525-.02-.958-.1-1.514-.1a.209.209,0,0,0-.124-.02h-.278a.209.209,0,0,0-.124-.02h-.185a.76.76,0,0,0-.309-.02c0-.061-.247.02-.185-.081a1.193,1.193,0,0,0,.464,0c0,.04.124.02.155.04,0-.04.093-.02.155-.02,0,.04.062-.02.093.02a105611.428,105611.428,0,0,1,.618.04h.247c.031.02.278.04.309,0-.34-.02-.587-.081-.989-.081a4.108,4.108,0,0,0-.525-.04h-.4c-.062,0-.155.02-.155-.02-.093,0-.124,0-.124-.04a2.686,2.686,0,0,1,.433.02,1.292,1.292,0,0,0,.4-.02c.093,0,.062.061.155.04.031-.061.185,0,.278-.02,0-.02-.062-.02-.124-.02h-.155c-.525-.061-1.143-.081-1.7-.121H100.59c0-.061.093-.121-.031-.081-.216,0,.124.04-.031.081-.185.04-.093-.141-.247-.04,0,.02-.062.02,0,0-.062-.141-.494-.04-.556-.162V26.63a2.929,2.929,0,0,1-.587.02.786.786,0,0,1-.247-.1c-.031.04-.124.061-.247.04a.335.335,0,0,0-.155-.02c-.124-.02-.124-.141-.309-.121-.031.141.124.2.031.283a2.516,2.516,0,0,0,.742-.121v.141c.031.02.155,0,.124.081a.335.335,0,0,0,.154.02c-.062.04,0,.04,0,.081.155-.02.34-.02.464-.04-.031.121.185-.02.185.04-.031.061-.185,0-.278.02-.031.04-.031,0-.093,0h-.124c-.556.081-1.174-.04-1.823,0-.093-.02-.124-.1-.278-.1h-.031a.091.091,0,0,1-.031.081c-.031-.04-.031-.061.031-.081,0-.02-.093-.02-.093-.04h-.093c-.062,0,.062.121-.124.1-.031-.04.124-.081,0-.1-.093.02,0,.141-.093.141H96.14c-.062-.02-.216.02-.185-.02.155,0,.155,0,.124-.081-.185-.04-.124.061-.185.1-.093-.04-.216.02-.309,0-.031,0-.031-.04-.093-.04.062.1-.185,0-.155.081-.062-.04-.093,0-.185,0-.031-.04-.062,0-.124,0,0-.02-.062-.02-.124-.02-.124.02-.309-.02-.525,0-.093-.061-.34,0-.4-.081.062,0,.124,0,.124-.02-.062.02-.216-.02-.247.02.124.02-.062.04-.124.02.093-.061-.062-.02-.093-.081a3.541,3.541,0,0,1,.464,0c.093-.04-.062-.081.031-.1.031.081.124-.04.185.02a.9.9,0,0,1,.247-.02,1.853,1.853,0,0,0,.742.141c-.062-.162.278-.081.433-.1.031-.081-.093-.04-.155-.04-.093,0-.062-.061-.154-.04H95.4c0,.02-.062.061-.093.02,0-.02.031-.02.093-.02-.031-.061.031-.061.031-.1-.155,0-.185.081-.34.081-.093-.02-.093-.1-.247-.081a.432.432,0,0,0-.124.081.2.2,0,0,1-.124.04c-.031-.02-.124-.04-.031-.04,0-.02-.093-.02-.093-.04.062-.04-.031-.081-.093-.121,0,.081,0,.141-.155.121a.332.332,0,0,1-.093-.081c-.062-.02.031-.02.031-.04h-.618c-.278-.02-.556-.04-.865-.04-.062-.04-.124.04-.155-.04a.76.76,0,0,1-.309.02c-.093,0-.093-.04-.185-.02H90.422c-.031-.04-.062,0-.124,0H88.908c-.031.02-.124-.02-.155,0s0,0-.155,0h-.9c-.031.04,0,0-.031,0-.494-.02-1.174,0-1.761,0-.278.04-.556.02-.742.04a.335.335,0,0,0-.155-.02H83.933c-.093-.02-.124,0-.278-.02h-.216c-.155.02-.4-.02-.587,0-.062,0-.093.02-.031.02h.494a.335.335,0,0,0,.155.02H83.9c.155.04.433,0,.587.04.185-.02.433.02.711,0a5.551,5.551,0,0,0,.587,0c.062,0,.093.02.155.02a3.827,3.827,0,0,0,.68-.02,10.5,10.5,0,0,0,1.143.02c.031-.02.031-.061.124-.04a.756.756,0,0,0,.278.081,6.079,6.079,0,0,1,.865-.02c.031-.02.031-.061.124-.04.062.02.216-.02.247.02-.062,0-.124,0-.124.02h.155c0-.02,0-.04.031-.04.031.04.062,0,.124,0,.124-.02.155.04.278.02.124.02.155-.02.247-.02.062.04.216,0,.278.04,0-.061.155,0,.247-.02h.247a1.66,1.66,0,0,0,.464-.02.244.244,0,0,0,.185.02c.216-.02.464.02.865,0,.031.04.093.061.093.121.093,0,.185.02.185.081-.155.04-.34-.061-.371.02a2.9,2.9,0,0,1,.464.02c.093-.02.278-.02.278.081.031.061-.34,0-.185.04.124,0,.278-.02.278.04.031,0,.062,0,.031.02-.031,0-.062,0-.031-.02-.124.04-.185-.02-.34,0h-.433c-.031-.061-.247,0-.278-.04.062-.1.247,0,.4-.02.062-.02,0-.02-.031-.02h-.124c0-.061-.155,0-.247-.02-.093,0-.031.1-.155.081-.062.04-.155.04-.155-.02.062-.02.216.02.185-.02-.247,0-.309-.1-.556-.121-.124.04-.247.061-.34.1a.534.534,0,0,0-.309,0c0-.081-.155-.04-.185,0,.093-.02.062.04.093.081a2.28,2.28,0,0,1-.525,0,.715.715,0,0,0-.309.02c-.031-.061-.185,0-.278-.02-.124-.02-.093.04-.185.02-.031-.061-.216,0-.309-.02-.062,0-.093-.02-.154-.02a5.126,5.126,0,0,1-.8.02c-.062-.04-.278,0-.309-.081a.414.414,0,0,1,.185.02c.031,0,.031-.02.031-.02a1.015,1.015,0,0,0,.124.02l.031-.02c.093-.02.093.02.185.02.062,0,.093-.02.155-.02-.031,0,.031.02.031.02h.247c.062,0,.185.02.247-.02a1.191,1.191,0,0,0-.464,0c-.062-.081-.185,0-.34-.02a1.045,1.045,0,0,0-.371-.02c-.093,0-.093.081-.185.081-.031-.061.124-.081-.031-.081-.185-.02.031.081-.093.081-.093.02-.062-.04-.124-.04.031.081-.124.04-.185.04,0-.02.093-.02.093-.04-.124-.02-.124.04-.185.04,0-.04.031-.04.031-.081a18.709,18.709,0,0,1-1.885-.04c-.309.04-.8-.04-1.174,0a3.232,3.232,0,0,0-.68-.02c-.062,0-.093-.02-.155-.02-.587.02-1.02-.04-1.545-.04-.062-.02-.093-.061-.185-.04-.464-.02-1.02-.02-1.514-.04a3.56,3.56,0,0,0-.464.02c-.062,0-.155-.02-.185-.02h-.464c-.031,0-.031.02,0,.02.062.02.247-.02.247.02h-.958c-.062,0-.155-.02-.155.02a.715.715,0,0,1,.309.02c.031-.04.062,0,.124,0,0-.04.093-.02.154-.02H79.7a4.436,4.436,0,0,1,.742,0,1.076,1.076,0,0,0,.278.04c.031.02.247.061.278,0-.062,0-.124,0-.124-.02.711.02,1.329.081,2.04.1.062,0,.093.02.155.02h.464c.155,0,.309-.02.34.04-.433,0-.9-.04-1.267,0a2.678,2.678,0,0,1-.4-.02h-.464c-.031,0-.031.02-.093.02,0,0,0-.02-.031-.02h-.278c-.062,0-.093.02-.155.02-.062-.04-.185-.02-.278-.02-.062-.02-.093-.061-.185-.04-.371,0-.4-.02-.8-.02,0-.02.093-.02.093-.04-.124.02-.34-.04-.4.02.062.02.216-.02.185.02-.124.02.062.04.031.081h-.8c-.062-.02-.093-.061-.185-.04a1.656,1.656,0,0,1-.433-.02H77.258c-.062.04-.247,0-.309.04-.031-.061-.247,0-.34-.02H75.465c-.062,0-.093-.02-.155-.02-.062.061-.093-.02-.185.02-.093,0-.185,0-.185-.04a2.686,2.686,0,0,0,.433-.02h.278c.062.02.124-.081.155,0,.093,0,.093-.04.185-.02h.278c0-.061-.154-.02-.185-.02h-.525c-.155.04-.155,0-.278.02-.155-.04-.093.02-.247.02a.76.76,0,0,0-.309-.02c-.031.02-.031.061-.124.04-.062-.02-.031-.081-.124-.02-.062,0-.093-.02-.155-.02H72.591c.031-.02.031-.04-.031-.04-1.205-.04-2.41.02-3.554-.04-.124-.02-.124.04-.247.02H67.708c-.062,0-.062-.02-.124-.02a1.016,1.016,0,0,1-.124.02c-.031,0-.093-.02-.155-.02-.216,0-.464-.02-.711,0a1.013,1.013,0,0,1-.247,0,1.29,1.29,0,0,0-.278.02c-.124-.02-.247.02-.433,0a.921.921,0,0,0-.34-.02c-.093-.04-.247-.02-.309-.081.525-.04.773,0,1.236-.02.031-.02.031-.061.124-.04a1.754,1.754,0,0,1,.34.02H68.45c.062,0,.093.02.155.02.062-.04.185.02.34,0,.371-.04.711.061,1.113,0a.287.287,0,0,1,.185,0h.464a1.8,1.8,0,0,0,.185-.04c.031.061.093-.04.155.02a.015.015,0,0,1,.031,0H71.2c.494-.02,1.113.04,1.576,0a.456.456,0,0,0,.185-.04c-.927,0-2.071-.02-2.812.02.031-.02.031-.04-.031-.04h-.556a1.077,1.077,0,0,0-.278-.04c-1.267.02-2.071.04-3.276.081a1.8,1.8,0,0,0-.185.04,2.233,2.233,0,0,0-.9.02c0-.061-.155-.02-.185-.02h-.247c-.062,0-.093.02-.155.02a.335.335,0,0,0-.155-.02c-.093,0-.093.04-.185.02-.34.02-.773-.02-1.051.02-.124-.061-.185.02-.309-.02,0,.04-.093.02-.155.02a.209.209,0,0,1-.124.02c-.093.02-.093-.04-.185-.02a3.3,3.3,0,0,1-.8.04c-.093,0-.093.04-.185.02h-.247c-.062,0-.155-.02-.155.02a1.173,1.173,0,0,0-.4-.02,8.551,8.551,0,0,1-1.051.02c-.062,0-.185.02-.247-.02-.247.061-.711,0-.989.04-.464,0-.587.04-1.051.02-.371.061-.927-.02-1.3.04a2.493,2.493,0,0,0-.556-.02c-.031,0-.031,0-.031.02.062,0,.031.04,0,0-.124.02-.124-.04-.247-.02a.015.015,0,0,1-.031,0A.618.618,0,0,0,54.111,26.367ZM69.9,26.1c0-.02.062-.02.124-.02h.124c0,.02-.062.02-.124.02Zm.309,0c-.031-.02.031-.04.031-.02C70.273,26.084,70.212,26.1,70.212,26.1Zm-5.532.1c.062-.02.031.02,0,0C64.649,26.206,64.649,26.165,64.68,26.206Zm28.277.061c0,.061-.093.061-.155.02C92.833,26.226,92.864,26.266,92.956,26.266Zm1.205.061c-.031.02-.031.061-.031.1-.185-.04-.247.02-.4.081a1.439,1.439,0,0,0-.433-.02c0-.02.062-.02.093-.02-.031-.04-.155-.02-.124-.1-.093,0-.155,0-.155-.081h.309a.156.156,0,0,0,.093-.02C93.667,26.307,93.914,26.286,94.162,26.327Zm-22.467,0c-.031.061-.216,0-.247.04a11.084,11.084,0,0,1-1.174-.02c.062-.061.371.02.433-.04h.525C71.386,26.307,71.509,26.327,71.695,26.327Zm-1.576.02c-.031-.02.031-.04.031-.02C70.181,26.327,70.15,26.347,70.119,26.347Zm4.666.061c.062,0,.093.02.155.02C74.94,26.488,74.723,26.488,74.785,26.408Zm-.247.061c0-.02.062-.02.124-.02C74.662,26.468,74.6,26.468,74.538,26.468Zm.433,0c-.031-.02.031-.04.031-.02C75.032,26.448,75,26.468,74.971,26.468Zm19.531,0c-.031-.02.031-.04.031-.02C94.563,26.448,94.533,26.468,94.5,26.468Zm4.728,0c0-.02.062-.02.124-.02C99.353,26.468,99.292,26.468,99.23,26.468Zm.34,0c.031-.04.031,0,.031.02C99.539,26.488,99.508,26.468,99.57,26.468Zm-61.281.02c0-.02.062-.02.093-.02h.093A.493.493,0,0,1,38.288,26.488Zm.371-.02v.04c-.031,0-.062,0-.031.02H38.6c0,.02-.062.02,0,0C38.566,26.488,38.566,26.448,38.659,26.468Zm.062.02c.031-.061.124,0,.093.04.062-.02.062-.061.185-.04,0,.04-.155.121-.185.04C38.752,26.529,38.783,26.488,38.721,26.488Zm41.318,0c0-.02.062-.02.124-.02A.266.266,0,0,1,80.039,26.488Zm19.006-.02c.093-.02.062.04.093.081-.031,0-.031-.02-.093-.02Zm-60.014.04c0-.02,0-.02.031-.02.525-.02,1.205.02,1.762,0,.124-.02.155.04.278.02a1,1,0,0,1,.247,0,4.55,4.55,0,0,0,.525,0c.124-.02.155.04.278.02H42.4c.062-.02.216.02.185-.02a.691.691,0,0,0,.247.02c.124-.02.062.061.185.04.124.02.093-.04.155-.04.093.04.062,0,.155,0,.278.02.525-.02.8,0,.031,0,.031.02.031.02a1.04,1.04,0,0,1,.309-.02c.154.02.371.02.525.04a2.889,2.889,0,0,1,.433-.02c.525.02.649,0,1.143.02-.031.061-.185,0-.278.02-.031-.04-.031,0-.093,0h-.68c-.4.04-.834.04-1.236.081h-.742s-.093-.04-.124-.02a.123.123,0,0,1-.124.02s-.062-.02-.031-.02c-.093,0-.216.061-.278,0a1.439,1.439,0,0,0-.433.02c-.124.02-.093-.061-.155-.081-.031.02-.062.061-.093.02H42.12a1.6,1.6,0,0,1-.34-.02c-.247.04-.371-.02-.587.02a2.781,2.781,0,0,0-.587-.02,4.559,4.559,0,0,0-.525,0c-.155-.02-.185.02-.309-.04a1.92,1.92,0,0,1-.68,0C39.185,26.509,39.154,26.509,39.03,26.509Zm35.879.222c-.093.061-.34,0-.464,0-.031-.061.216.02.185-.04-.062-.04-.278.02-.4.02,0-.02.031-.02.031-.04-.062,0-.093.02-.155.02a1.015,1.015,0,0,1-.124-.02c-.155.02-.433-.04-.525.02-.062,0-.093-.02-.155-.02-.062.02-.247-.02-.247.02-.124-.02-.155-.061-.278-.02,0,.02.031.02.093.02,0,.02-.062.02-.124.02s-.124,0-.124-.04h-.155c.093-.061.124-.02.247-.04-.062-.061-.247,0-.309,0a4.131,4.131,0,0,0-.865,0c-.216-.02-.433-.02-.8-.02.093-.061.247-.02.34-.02.062,0,.124-.02.155-.02a1,1,0,0,1,.185.02c.031,0,.031-.02.031-.02a1.015,1.015,0,0,0,.124.02h.278a1.015,1.015,0,0,0,.124-.02,4.55,4.55,0,0,1,.525,0c.062,0,.124-.02.155-.02a1.015,1.015,0,0,1,.124.02,1.014,1.014,0,0,0,.124-.02c.062,0,.093.02.155.02a3.55,3.55,0,0,0,.464,0c.124.04-.216.02-.278.02,0,.061.155.02.247.02H73.8a1.015,1.015,0,0,0,.124-.02c.309.04.68.061.989.1,0,.04-.093.02-.155.02C74.785,26.711,74.847,26.731,74.909,26.731Zm24.383-.2c0-.04.093-.02.093,0C99.323,26.549,99.292,26.569,99.292,26.529Zm-60.849.04c-.031-.02.031-.04.031-.02C38.5,26.549,38.474,26.569,38.443,26.569Zm35.23,0c-.031-.02.031-.04.031-.02C73.735,26.549,73.7,26.569,73.673,26.569Zm.093,0c0-.02.062-.02.093-.02A.156.156,0,0,0,73.765,26.569Zm1.7-.04c.124-.02.155.02.247.02C75.681,26.589,75.4,26.61,75.465,26.529Zm-5.779.182h.525c-.031.081-.278.02-.34.081a9.116,9.116,0,0,0-1.051,0c0-.1.124.02.155-.04,0-.061-.155-.02-.247-.02-.093-.061-.124.02-.185-.02-.062,0-.093.02-.155.02h-.155c0-.02-.062-.04-.093,0-.093-.061-.155.04-.247-.02-.062.02-.185,0-.247.04-.309-.061-.865.02-1.174-.04h-.649c0-.02.062-.02.124-.02h.494c.062,0,.093,0,.093-.04a1.053,1.053,0,0,1,.247.04c.649,0,1.02-.04,1.7-.02-.093-.061-.34,0-.464-.02.031-.1.309-.04.464-.04a.335.335,0,0,1,.155.02,2.292,2.292,0,0,1,.4-.02c.031.04.185,0,.093.081.093-.02.247-.04.278.04A.8.8,0,0,1,69.686,26.711Zm.093-.141h.247c0,.04-.093.02-.155.02C69.779,26.61,69.593,26.549,69.779,26.569Zm.556.02c-.031-.02.031-.04.031-.02C70.4,26.569,70.335,26.589,70.335,26.589Zm.124,0c-.031-.02.031-.04.031-.02Zm4.172-.02c.062.02.216-.02.185.02.155-.02,0,.081,0,0C74.754,26.569,74.631,26.61,74.631,26.569Zm1.143.02c0-.061.155-.02.185-.02h.185c0,.061.062-.04.155,0h.185C76.361,26.65,75.99,26.589,75.774,26.589Zm2.256.04c-.031.061-.216.02-.247,0a5.613,5.613,0,0,1-.587,0c0-.02-.062-.02-.124-.02,0-.061.155-.02.247-.02a.9.9,0,0,1,.247.02v-.04c.093,0,.155,0,.155.04C77.814,26.569,77.876,26.63,78.03,26.63Zm.649-.04c-.093.1-.309,0-.556.02C78.277,26.509,78.463,26.61,78.679,26.589Zm1.143,0c0-.02.062-.02.093-.02C79.915,26.589,79.853,26.569,79.823,26.589Zm-12.052.02c0-.02.062-.02.124-.02A.266.266,0,0,1,67.77,26.61Zm7.417-.02c0,.04-.062.061-.155.04C74.971,26.549,75.094,26.589,75.187,26.589Zm2.781.02c0-.02.062-.02.093-.02C78.061,26.61,78,26.61,77.968,26.61Zm13.381.04c-.093-.061-.124.04-.247.02,0-.04,0-.061.031-.081.062,0,.062,0,.093-.02C91.349,26.569,91.38,26.589,91.349,26.65Zm.031-.061c.062.02.093.04.093.081C91.38,26.67,91.38,26.63,91.38,26.589Zm-25.464.04c0-.02.062-.02.124-.02A.266.266,0,0,1,65.916,26.63Zm.433-.02h.093C66.441,26.67,66.132,26.61,66.349,26.61Zm5.779,0c0,.081-.185.04-.309.04A.671.671,0,0,1,72.128,26.61Zm.062,0c.031,0,.031,0,.031.02.062,0,.278,0,.155.02C72.313,26.65,72.128,26.69,72.189,26.61Zm4.419.02s.093-.04.124-.02C76.732,26.63,76.547,26.67,76.609,26.63Zm.433-.02c0,.061-.155.04-.278.04C76.732,26.569,76.949,26.63,77.041,26.61Zm2.874.04c-.062.081-.124-.02-.247,0C79.73,26.549,79.792,26.65,79.915,26.65Zm4.7-.02c-.031-.02.031-.04.031-.02C84.674,26.63,84.613,26.63,84.613,26.63Zm-13.536.02c0-.02.062-.02.093-.02h.124c0,.02-.062.02-.093.02Zm.247,0c-.031-.02.031-.04.031-.02C71.386,26.65,71.324,26.67,71.324,26.65Zm.155,0c-.031-.02.031-.04.031-.02C71.54,26.65,71.479,26.67,71.479,26.65Zm9.271-.02c0,.02-.062.02-.093.02-.093-.02-.062.04-.124.04s-.093-.02-.155-.02c-.185-.02-.371.04-.433,0,0-.02.062-.061.093-.02C80.193,26.61,80.5,26.65,80.75,26.63Zm12.856.02c0-.02.124-.04.155-.02A.1.1,0,0,1,93.605,26.65Zm-27.937.02c-.031-.02.031-.04.031-.02C65.731,26.67,65.669,26.69,65.669,26.67Zm9.364,0c0-.02.062-.02.093-.02h.124c0,.02-.062.02-.093.02Zm6.057,0c-.031-.02.031-.04.031-.02C81.151,26.67,81.12,26.69,81.09,26.67Zm.093,0c.031-.04.309-.02.34,0-.031.04-.154.02-.247.04A.514.514,0,0,1,81.182,26.67Zm16.193,0a.015.015,0,0,1,.031,0C97.407,26.711,97.376,26.69,97.376,26.67Zm-25.835.04c0,.02-.155.04-.247.02S71.54,26.67,71.54,26.711Zm.525-.04c-.031.081-.309.04-.464.04-.031-.04.185-.081.185-.02C71.88,26.69,71.942,26.67,72.066,26.67Zm.124.04c0-.02.062-.02.124-.02h.155c0,.02-.062.02-.124.02Zm.989-.04h.093c.031.061-.062.04-.124.04C73.147,26.711,73.178,26.711,73.178,26.67Zm10.569.04c0-.02.062-.02.124-.02A.266.266,0,0,1,83.747,26.711Zm-18.789.02c-.062-.061.247,0,.247,0a.337.337,0,0,1,.247,0,1.548,1.548,0,0,1,.433,0h.525c0,.061-.155.02-.247.02h-.247a6.638,6.638,0,0,1-1.267,0h-.711c-.155,0-.062-.04.031-.02h.989Zm5.655,0c0-.02.062-.02.093-.02A.156.156,0,0,1,70.613,26.731Zm.464,0c-.031-.02.031-.04.031-.02C71.139,26.711,71.077,26.731,71.077,26.731Zm-4.574.02c-.031-.02.031-.04.031-.02C66.565,26.731,66.5,26.751,66.5,26.751Zm14.246,0c-.031.061-.185,0-.278.02h-.433c0-.081.309-.061.4-.02A.791.791,0,0,1,80.75,26.751Zm3.276,0c0,.04-.124,0-.124.04-.155,0-.278.061-.309-.04C83.747,26.771,83.9,26.69,84.025,26.751Zm-4.265.02c0-.02.062-.02.093-.02A.156.156,0,0,1,79.761,26.771Zm6.582-.02c0,.061-.124.04-.247.04-.185.02-.093-.04.031-.02S86.22,26.731,86.343,26.751Zm-18.82.061c-.031-.02.031-.04.031-.02C67.585,26.791,67.523,26.812,67.523,26.812Zm19.376-.04h.247c.031.081-.155.04-.247.04Zm1.329.04c-.031.061-.216,0-.309.02H87.61c-.031-.1.216-.02.309-.04C88.074,26.751,88.1,26.812,88.228,26.812Zm.124,0c.031-.04.031,0,.031.02C88.321,26.832,88.321,26.812,88.352,26.812Zm7.417.04a.21.21,0,0,1-.185.02C95.552,26.872,95.676,26.812,95.769,26.852Zm-.742.1c-.093.061-.247-.061-.278.04-.031-.04-.185,0-.185-.04-.093,0-.062.061-.155.04,0-.04.031-.061.031-.081a1.27,1.27,0,0,0-.525.081,1.754,1.754,0,0,0-.34.02c-.124.02-.124-.04-.185-.04a1.6,1.6,0,0,1-.34-.02c-.124-.02-.093.04-.185.02h-.278c-.031,0-.062-.02-.031-.02-.031,0-.062.02-.093.02a.573.573,0,0,1-.278-.02h-.155c-.062,0-.154,0-.093-.02h.711c.155.02.247-.04.309,0,.062,0,.093-.02.155-.02.309-.02.742.02.989-.02a.335.335,0,0,1,.155.02,4.946,4.946,0,0,1,.958-.02c.124.02.124-.04.278-.02-.062.081,0,.121-.031.162-.093-.04-.124-.04-.093-.121-.093.02-.247-.02-.278.02.062,0,.062.04.124.02.031.04-.185.04-.124-.02C95.027,26.933,95.027,26.933,95.027,26.953Zm.464-.081c-.031-.02.031-.04.031-.02C95.552,26.872,95.491,26.872,95.491,26.872Zm.649.02c.031-.04.124-.061.247-.04h.155c0,.02-.062.02-.124.02C96.294,26.872,96.2,26.953,96.139,26.892Zm-.247.081c-.093-.02-.278.04-.247-.04.031,0,.093,0,.093.02.062,0,.031-.061.093-.02.031,0,.031-.02.031-.04a.312.312,0,0,1,.155.04c.062,0,.031.04,0,0C95.954,26.933,95.861,26.913,95.892,26.973Zm6.613-.081c0-.02.062-.02.093-.02C102.6,26.892,102.537,26.892,102.506,26.892Zm-13.165.02c-.031.081-.247.04-.4.04-.031-.061.185.02.155-.04Zm.093.04c.093-.061.34,0,.525-.02,0,.061-.155.02-.185.02,0,.04-.093.02-.155.02C89.5,26.973,89.5,26.933,89.433,26.953Zm.711-.04a.156.156,0,0,1,.093.02c.34-.061.525.02.834-.02.031.081-.093.04-.154.04H90.67c-.093-.02-.093.02-.155.02C90.33,26.933,90.175,27.054,90.144,26.913Zm1.638,0c0,.04-.062.061-.155.04C91.6,26.892,91.72,26.933,91.782,26.913Zm-4.45.061c-.031-.02.031-.04.031-.02C87.394,26.953,87.332,26.973,87.332,26.973Zm.062,0c-.031-.02.031-.04.031-.02C87.456,26.953,87.425,26.973,87.394,26.973Zm.34,0c0-.04.247-.04.185.02C87.826,27.014,87.826,26.953,87.734,26.973Zm8.653,0c0-.02.062-.02.124-.02h.155c0,.02-.062.02-.124.02Zm.34,0c0-.02.062-.02.124-.02h.124c0,.02-.062.02-.124.02Zm.34,0c-.031-.02.031-.04.031-.02C97.128,26.953,97.1,26.973,97.067,26.973Zm-7.88.04c0-.04.031,0,.031,0h.618c.062.02,0,.02-.031.02H88.97a.715.715,0,0,1-.309-.02h.525Zm3.307,0c.031-.081.124.02.185,0C92.647,27.094,92.555,27.014,92.493,27.014Zm.4,0c0-.02.062-.02.124-.02A.266.266,0,0,1,92.895,27.014Zm.155,0c0-.02.062-.02.093-.02h.124c0,.02-.062.02-.093.02Zm-3.121.02c0-.02.062-.02.124-.02h.4c0,.02-.062.02-.124.02h-.4Zm.958,0c-.031-.02.031-.04.031-.02C90.948,27.034,90.886,27.054,90.886,27.034Zm.124,0c0-.02.062-.02.124-.02C91.1,27.054,91.04,27.034,91.01,27.034Zm.371,0c0-.02.062-.02.124-.02h.9c0,.061-.155.02-.247.02H91.38Zm1.422,0c-.031-.02.031-.04.031-.02C92.864,27.034,92.833,27.054,92.8,27.034Zm-19.531.121c.031-.04.124-.04.185-.04a2.658,2.658,0,0,0,.4,0,.015.015,0,0,0,.031,0c.031,0,.031.04.093.04.031-.061.031.02.031.02.062.02.185-.02.278,0h.124c0,.02-.062.02-.093.02h-.278c-.062-.02-.216.02-.185-.02a.244.244,0,0,1-.185.02C73.549,27.2,73.456,27.155,73.271,27.155Zm-1.885,0c-.031-.02.031-.04.031-.02C71.448,27.155,71.417,27.175,71.386,27.155Zm18.48.061c-.031-.081.155-.04.247-.04h.309v.02a.614.614,0,0,1,.278-.02c.093.02.031,0,.124,0a1.015,1.015,0,0,1,.124.02c.031,0,.062-.02.093-.02.185-.02.278.02.433,0H91.6c.031,0,.031.02.031.02.031,0,.247-.061.247.04a3.561,3.561,0,0,1-.464-.02h-.958V27.2C90.237,27.216,90.113,27.2,89.866,27.216Zm-18.109,0c0-.02.062-.02.093-.02,0,.02,0,.02.031.02.062,0,.062-.02.124-.02.093,0,.093.04.185.02H72.5c.062.02.247-.02.247.02H71.479c-.031,0-.031-.02,0-.02Zm1.329,0c-.031-.02.031-.04.031-.02C73.147,27.2,73.086,27.216,73.086,27.216Zm19.006.02c-.031-.02.031-.04.031-.02C92.153,27.216,92.122,27.236,92.091,27.236Zm-23.579.02c0-.02.062-.02.093-.02C68.6,27.256,68.543,27.256,68.512,27.256Zm.124,0c0-.02.062-.02.124-.02A.266.266,0,0,1,68.635,27.256Zm.185,0c0-.02.062-.02.093-.02C68.914,27.256,68.852,27.256,68.821,27.256Zm.124,0c-.031-.02.031-.04.031-.02C69.006,27.256,68.945,27.276,68.945,27.256Zm.185.02c-.031-.02.031-.04.031-.02C69.192,27.276,69.161,27.3,69.13,27.276Zm.649,0c0-.02.062-.02.124-.02h.124c0,.02-.062.02-.124.02Zm26.979.121c-.031-.02.031-.04.031-.02C96.819,27.4,96.758,27.418,96.758,27.4Zm.742,0c0-.02.062-.02.093-.02h.124c0,.02-.062.02-.093.02Zm.649,0c-.031-.02.031-.04.031-.02C98.21,27.4,98.148,27.418,98.148,27.4Zm.278-.02c.062.04.278,0,.278.1-.185.02-.247-.04-.4,0C98.272,27.418,98.457,27.458,98.426,27.377ZM97,27.438c-.031-.02.031-.04.031-.02C97.067,27.418,97,27.438,97,27.438Zm2.132,0c-.031-.02.031-.04.031-.02Zm.433.04c.093-.061.278-.1.309,0,.062,0,.031-.061.093-.081.031.02.247.061.278,0,.093.061.34,0,.433.04-.031.061-.216,0-.247.04h-.247a.2.2,0,0,1-.124-.04c-.062.02-.062.061-.185.04v-.02A1.756,1.756,0,0,1,99.57,27.478Zm1.36-.04c0-.02.062-.02.093-.02C101.022,27.438,100.96,27.418,100.93,27.438Zm-4.7.02c-.031-.02.031-.04.031-.02C96.294,27.438,96.263,27.458,96.232,27.458Zm.958,0c0-.02.062-.02.093-.02C97.283,27.458,97.221,27.458,97.19,27.458Zm2.009,0c-.031.061-.185,0-.278.02-.062,0-.278,0-.155-.02C98.89,27.4,99.044,27.458,99.2,27.458Zm.093,0c0-.02.062-.02.093-.02A.156.156,0,0,1,99.292,27.458Zm.155,0c0-.02.062-.02.093-.02A.156.156,0,0,1,99.446,27.458Zm5.13,0c.031-.04.031,0,.093,0C104.638,27.478,104.576,27.478,104.576,27.458Zm-6.644.02c-.031-.02.031-.04.031-.02C97.994,27.458,97.963,27.478,97.932,27.478Zm.155,0c0-.02.062-.02.093-.02C98.179,27.478,98.117,27.478,98.086,27.478Zm2.627,0c0-.02.062-.02.124-.02A.266.266,0,0,1,100.713,27.478Zm-4.543.02c0-.02.062-.02.093-.02A.155.155,0,0,1,96.17,27.5Zm.216-.02a.2.2,0,0,1-.124.04A.2.2,0,0,1,96.387,27.478Zm4.852.2c0,.061-.155.02-.247.02-.4-.02-.711.02-1.113,0h-.093c-.031-.02-.062,0-.247,0-.062,0-.124-.02-.155-.02-.062,0-.062.02-.124.02-.031,0-.062-.02-.093-.02-.062,0-.124.02-.247.02a3.084,3.084,0,0,0-.433,0,3.393,3.393,0,0,0-.8-.04c0-.02.031-.02.031-.02a.2.2,0,0,1,.124-.04.078.078,0,0,0,.093,0,2.3,2.3,0,0,0,.278.04.872.872,0,0,1,.34.02c0-.04.093-.02.155-.02h.154C99.632,27.7,100.59,27.6,101.239,27.68Zm-3.863-.061c0-.02.062-.02.093-.02C97.468,27.619,97.407,27.619,97.376,27.619Zm.278-.02h.093v.04h-.093Zm3.647.081c.031-.081.093.02.155,0C101.455,27.741,101.331,27.68,101.3,27.68Zm-72.716,0c-.062.04-.062.121-.124.141-.124.02-.124-.061-.124-.121A.336.336,0,0,1,28.585,27.68Zm73.643.02c0-.02.062-.02.093-.02C102.32,27.7,102.258,27.7,102.227,27.7Zm-73.859.242c0,.061-.185,0-.185.04-.124-.04-.185.02-.371,0-.062-.1.247,0,.247-.081C28.183,27.943,28.245,27.9,28.368,27.943Zm74.663.242a3.508,3.508,0,0,0-.68-.04,1.22,1.22,0,0,0-.464-.02c0-.02-.062-.02-.093-.02.062-.1.34.02.556-.02.093-.02.093.04.185.02.062,0,.155-.02.155.02C102.846,28.1,103.031,28.1,103.031,28.185Zm.062-.121c-.031-.02.031-.04.031-.02C103.155,28.044,103.124,28.064,103.093,28.064Zm-1.607.02c0-.02.062-.02.093-.02C101.579,28.084,101.517,28.084,101.486,28.084ZM66.5,28.1c0-.04.093-.02.093,0C66.534,28.124,66.5,28.145,66.5,28.1Zm0,.081c-.031-.02.031-.04.031-.02C66.565,28.165,66.5,28.185,66.5,28.185Zm-40.483.242a.038.038,0,0,1,.062-.02A.132.132,0,0,1,26.02,28.427Zm74.972.1c0,.061-.093.061-.155.02a1.445,1.445,0,0,0-.278.081,4.323,4.323,0,0,0-.556-.02c-.062,0-.062-.02-.093-.04A4.636,4.636,0,0,1,100.991,28.528Zm.433.061c0,.1-.247.02-.34.04h-.433c0-.04.124,0,.124-.04.124.02.093,0,.185.02.093-.02.093,0,.247-.02C101.239,28.589,101.362,28.528,101.424,28.589Zm.34.02c-.093-.061-.155.02-.309,0C101.455,28.569,101.764,28.528,101.764,28.609Zm1.576.081c-.031-.02.031-.04.031-.02C103.4,28.67,103.34,28.69,103.34,28.69Zm-76.579.04c-.031-.02.031-.04.031-.02C26.823,28.73,26.792,28.751,26.761,28.73Zm77.1.606c.124-.02.124.04.247.02C104.051,29.4,103.834,29.457,103.865,29.336Zm-1.3.061c0-.02.062-.02.093-.02h.124c0,.02-.062.02-.093.02Zm.649,0c-.031-.02.031-.04.031-.02C103.278,29.377,103.247,29.4,103.216,29.4Zm.155,0c0-.02.062-.02.093-.02C103.464,29.4,103.4,29.377,103.371,29.4Zm.124,0c0-.02.062-.02.093-.02C103.587,29.4,103.525,29.377,103.495,29.4Zm.649.121c-.031-.02.031-.04.031-.02C104.205,29.5,104.143,29.518,104.143,29.518Zm2.441.141c-.031.1-.309.04-.464.04a5.713,5.713,0,0,0-.618-.02c-.031,0-.031.04-.031.081-.093.02-.062-.04-.093-.081-.155-.02-.124.061-.247.04-.278-.02-.556-.061-.865-.081v-.081c-.093,0-.062.061-.155.04,0-.061.031-.081.124-.081.062.02.216-.02.185.02a.432.432,0,0,0,.124-.081c.031,0,.031,0,.031.02.062.02.247-.02.247.02.031-.061.278.02.309-.04a2.9,2.9,0,0,0,.464.02c.062,0,.062.02.124.02h.34c.155.02.155.061.309.02C106.369,29.659,106.523,29.639,106.585,29.659Zm-2.6-.061c-.031-.02.031-.04.031-.02C104.051,29.6,103.989,29.619,103.989,29.6Zm-78.8,1.394c0-.02.062-.02.093-.02C25.278,30.993,25.216,30.993,25.185,30.993Zm82.234.242c-.093-.02-.062.04-.124.04h-.464a1.439,1.439,0,0,0-.433-.02c-.062-.02-.155-.02-.247-.04s-.4-.04-.587-.081c.124-.081.278,0,.433-.04a5.071,5.071,0,0,0,.556,0c0-.061-.155-.02-.247-.02h-.247a2.147,2.147,0,0,0-.525-.02.2.2,0,0,1,.124-.04c.464.02,1.02.02,1.514.04v.081C107.357,31.094,107.388,31.154,107.419,31.235Zm-44.068-.141c-.031-.02.031-.04.031-.02C63.413,31.073,63.351,31.094,63.351,31.094Zm44.254.182c0-.02.062-.02.093-.02C107.7,31.275,107.636,31.275,107.6,31.275Zm-1.854.061c.062-.061.309,0,.433-.02.031.081-.124.04-.185.04A.9.9,0,0,1,105.75,31.336Zm.464.02c0-.02.062-.02.093-.02h.124c0,.02-.062.02-.093.02Zm-80.967.929c-.031-.02.031-.04.031-.02C25.309,32.285,25.247,32.305,25.247,32.285Zm.124,0c0-.02.062-.02.093-.02A.156.156,0,0,1,25.371,32.285Zm77.907,2.343c-.031.081-.154.04-.247.02-.155-.02-.185.061-.278,0h-.68c-.062,0-.093-.02-.155-.02-.031-.02-.031-.061-.124-.04-.494,0-1.051.02-1.514-.02-.093.04-.433-.061-.525,0-.062.061-.124-.061-.185,0a.123.123,0,0,1-.124.02.691.691,0,0,0-.247-.02s-.031.04-.031.02a2.868,2.868,0,0,0-.834,0h-.155c-.062-.04-.124,0-.247,0a1.015,1.015,0,0,0-.124-.02s0,.02-.031.02c-.185,0-.618,0-.834-.02-.062,0-.093.02-.155.02s-.124-.02-.185-.02c-.155.02-.371-.02-.618,0h-.68a2.889,2.889,0,0,0-.433-.02c0,.061-.062-.04-.155,0-.371,0-.773,0-1.113.02-.031-.1.216-.02.309-.04h.34c.216-.02.525.02.68-.02.34.04.464,0,.8.02a1.439,1.439,0,0,1,.433.02c.093-.081.278.061.34-.02.155-.02.278.061.464.02.031,0,.062-.04.124-.02.124.02.494.02.742.02.093,0,.093-.02.155-.02a1.015,1.015,0,0,0,.124.02c.4,0,.958.02,1.422,0,.124,0,.216-.02.309-.02h.124s.062.02.031.02c.062,0,.062-.02.124-.02.093,0,.216.02.309.02a.082.082,0,0,1,.093-.02s0,.02.031.02a1.571,1.571,0,0,0,.309,0c.031-.02.031,0,.124,0h.711A13.039,13.039,0,0,1,103.278,34.628ZM88.63,34.547c0-.02.062-.02.124-.02h.4c0,.02-.062.02-.124.02h-.4Zm.711.02c0-.04.093-.02.155-.02s.062-.02.124-.02c.34.02.711,0,1.051,0,.093,0,.185.02.278.02.773.04,1.545-.061,2.318-.02h.247c.062.02-.031.02-.093.02-.773.061-1.792-.02-2.565.04C90.422,34.547,89.835,34.588,89.341,34.568Zm-10.414.061c0-.04.093-.02.093,0C78.957,34.628,78.926,34.648,78.926,34.628Zm21.632,0c-.031-.02.031-.04.031-.02Zm-20.922.02c-.031-.02.031-.04.031-.02C79.7,34.628,79.637,34.648,79.637,34.648Zm-52.319.04c0-.02.062-.02.093-.02H27.5C27.472,34.709,27.379,34.689,27.318,34.689Zm71.047.02c0-.02.062-.02.093-.02C98.457,34.709,98.4,34.709,98.365,34.709Zm.278-.02a.335.335,0,0,0,.155.02C98.828,34.749,98.581,34.749,98.643,34.689Zm-3.461.061c-.031-.02.031-.04.031-.02C95.243,34.729,95.182,34.749,95.182,34.749Zm1.576,0c-.031-.02.031-.04.031-.02C96.819,34.729,96.758,34.749,96.758,34.749Zm-18.295.02c-.031-.02.031-.04.031-.02C78.525,34.749,78.463,34.77,78.463,34.77Zm19.778-.02a.2.2,0,0,1-.124.04C98.117,34.729,98.179,34.749,98.241,34.749Zm1.545.02c-.031-.02.031-.04.031-.02C99.848,34.749,99.817,34.77,99.786,34.77Zm-42.307.02c-.031-.02.031-.04.031-.02C57.541,34.77,57.479,34.79,57.479,34.79Zm22.065,0c-.031-.02.031-.04.031-.02C79.606,34.77,79.575,34.79,79.544,34.79Zm.649-.02a.2.2,0,0,1-.124.04A.2.2,0,0,1,80.193,34.77Zm.68.02c0-.02.062-.02.124-.02A.266.266,0,0,1,80.873,34.79Zm17.151,0c0-.02.062-.02.093-.02A.156.156,0,0,1,98.025,34.79Zm3.307,0c0-.04.093-.02.155-.02.031.061-.062.04-.093.081C101.362,34.83,101.393,34.79,101.331,34.79Zm-26.515.02c0-.02.062-.02.093-.02C74.909,34.81,74.847,34.81,74.816,34.81Zm1.452,0c-.031-.02.031-.04.031-.02C76.33,34.81,76.3,34.81,76.269,34.81Zm4.852,0c.185-.02.031.081,0,0C80.935,34.83,81.09,34.729,81.12,34.81Zm5.933,0a.015.015,0,0,1,.031,0A.015.015,0,0,1,87.054,34.81Zm11.681,0c0-.02.062-.02.093-.02A.156.156,0,0,1,98.735,34.81Zm3.029,0c0-.02.062-.02.124-.02C101.888,34.81,101.826,34.81,101.764,34.81Zm.185,0c0-.02.062-.02.093-.02C102.042,34.81,101.98,34.81,101.949,34.81Zm-21.076.02c0-.02.062-.02.093-.02A.156.156,0,0,1,80.873,34.83Zm13.443,0c-.031-.02.031-.04.031-.02C94.378,34.83,94.316,34.85,94.316,34.83Zm6.861,0a.015.015,0,0,1,.031,0C101.208,34.871,101.177,34.85,101.177,34.83Zm1.02-.02a.2.2,0,0,1-.124.04C102.073,34.81,102.135,34.81,102.2,34.81Zm-9.827.02c.031.141-.216-.02-.247.1-.062,0-.062-.04-.124-.04a.22.22,0,0,0-.124.081c-.062,0-.062-.02-.124-.02-.093.02-.525.081-.464-.081a1.571,1.571,0,0,0,.309,0c0,.02-.031.02-.031.04,0,.061.093-.04.185,0,.031,0,.031-.02.031-.04C92.06,34.871,92.153,34.83,92.369,34.83Zm8.128.04c-.031-.02.031-.04.031-.02C100.559,34.85,100.528,34.871,100.5,34.871Zm1.3,0c0-.02.062-.02.124-.02C101.918,34.871,101.857,34.85,101.795,34.871Z" transform="translate(-23.792 -25.979)" fill="#fff100"/>
</svg>
