<svg xmlns="http://www.w3.org/2000/svg" width="84.981" height="4.946" viewBox="0 0 84.981 4.946">
  <path id="line-btn-form" d="M30.32.22H28.8a.25.25,0,0,0-.12,0H20.77a5.61,5.61,0,0,0-.71,0H17.27a3.86,3.86,0,0,1-.68,0h-.74a.32.32,0,0,0-.13,0H14.18A.2.2,0,0,0,14,0H7.07c-.46,0-.92.05-1.39.05H4.85a3.53,3.53,0,0,0-.46,0c-.33,0-.66.05-1,.05H2.81c.06,0-.12,0-.09.06a3.15,3.15,0,0,0,.43.05c0,.13.59,0,.75.11a5.63,5.63,0,0,1-.71,0c-.07.06.24,0,.24,0H3.16c0,.05.27,0,.27.07H3.3s.19,0,.19.07a3.24,3.24,0,0,0-.44,0H3.8a1.051,1.051,0,0,1,.37.05c.16.05.25,0,.25.06h.21a.16.16,0,0,1-.12,0H4.2L4.11.82c-.25,0-.25-.06-.46,0,0,0-.07,0,0,.06s.22,0,.25.06,0,0,0,.07A.22.22,0,0,1,3.68,1s0,.09,0,.12H3.12l-.46.05a1.9,1.9,0,0,0-.25,0,1.06,1.06,0,0,0-.25,0,4.27,4.27,0,0,1,.8,0H2.5a2.69,2.69,0,0,0-.4,0h.49s0,.06.12.05h0c.19,0,.28-.06.4,0a1.32,1.32,0,0,1-.34,0s.06.05,0,.06-.15,0-.37,0c-.06.06.25,0,.28.05s0,.09,0,.14H2.56s0,.07-.09.05,0,0-.09.05a.1.1,0,0,0,0,.13H2.25a.261.261,0,0,1-.18.09c-.12.01.12,0,0,.05s.15,0,0,0h.25l.18.09h0a.71.71,0,0,0-.25,0H1.6a.71.71,0,0,0,.25,0s.28,0,.25.06H1.55a.66.66,0,0,1,.28,0,.69.69,0,0,1-.25,0,.82.82,0,0,1-.27,0h.15c0,.07.4,0,.53.06a2.75,2.75,0,0,1-.4,0H1.46L1.27,3H.83a2.68,2.68,0,0,1-.43.05c-.09-.05-.18,0-.4,0,0,.06.25,0,.31.06a.81.81,0,0,1,.31.06,1.06,1.06,0,0,0-.31,0,2.94,2.94,0,0,1,.59.05H2.13a5.49,5.49,0,0,0-.8.06H.75A.35.35,0,0,1,1,3.42a.41.41,0,0,1,.19,0H1.13a1.41,1.41,0,0,0,.46,0h.28a.9.9,0,0,0,.4,0s-.1,0-.1.07.1.06,0,.07a5.61,5.61,0,0,1-.58,0H1.42c-.15,0-.28-.05-.34,0a5.23,5.23,0,0,0,.56,0,1.742,1.742,0,0,1,.55.05c.09.05-.06,0,0,.08s.13,0,.13.07H2.16c.1,0,.1,0,.1.07L1.92,4h.21s.22,0,.16.06-.31,0-.31,0h.3c.12,0,.15,0,.15.08H2.36c.13.06.56,0,.47.13H2.39v.06H2.28a1.34,1.34,0,0,0,.4.06H3.73c.06,0,0,.05.15.05s0-.05.12,0a.29.29,0,0,1,.13,0H21.52a.38.38,0,0,0,.15,0H33.73a.17.17,0,0,0,.12,0H37.4a1.67,1.67,0,0,0,.31,0,1,1,0,0,0,.25,0h1.61a.28.28,0,0,1,.18,0h.31a2.67,2.67,0,0,0,.4,0c-.06,0-.09,0,0,0h1.12a.42.42,0,0,1,.16,0,4.51,4.51,0,0,1,.52,0,3.53,3.53,0,0,1,.46,0h4.95a3.49,3.49,0,0,0,.56,0h.52a1,1,0,0,0,.19,0h4.57a3.13,3.13,0,0,0,.53,0,3.08,3.08,0,0,0,.68,0h.18a1.54,1.54,0,0,1,.43,0h.25a1.08,1.08,0,0,1,.31,0h1.8a.66.66,0,0,0,.28,0h-.28a1.07,1.07,0,0,1-.25,0h1.24a.17.17,0,0,1,.12,0h.71a1.77,1.77,0,0,0,.4,0,5.63,5.63,0,0,1,.59,0h.19a1,1,0,0,0,.24,0,.43.43,0,0,0,.16,0,2.71,2.71,0,0,0,.4,0h.12a.27.27,0,0,0,.13,0,2.37,2.37,0,0,1,.46,0,.27.27,0,0,1,.12,0h.25a.55.55,0,0,1,.18,0H63a.53.53,0,0,0,.25.05c.06,0,0-.05.15,0s.13,0,.25,0h.93a.25.25,0,0,1,.15,0,.81.81,0,0,0,.31,0h.12s.13-.06.16,0v.06c.12,0,.06-.07.18-.07h.28l-.09.05h.46s-.13-.08-.16,0a.23.23,0,0,1-.18,0,1.3,1.3,0,0,1,.34,0h1.18a.411.411,0,0,0-.18.05,1.93,1.93,0,0,0,.34,0h0a.37.37,0,0,1,.18,0h.19a2.36,2.36,0,0,1,.46,0,.15.15,0,0,1,.13,0h.06a.66.66,0,0,1,.28,0h.89c-.12,0,.13,0,.13.05h-.13a.61.61,0,0,0,.19,0s-.07,0,0,0a1.22,1.22,0,0,1,.27,0h.87a.2.2,0,0,1,.15,0h1.15a.25.25,0,0,1,.12,0h.13a.15.15,0,0,1,.09,0h3.84a3.47,3.47,0,0,1-.56,0h.53a.55.55,0,0,0,.18,0c.07,0-.18,0,0,0h1.92c.1,0,.06,0,.12-.06.75,0,1.5.07,2.26.06a3.43,3.43,0,0,1,.34-.06h-.56c-.06,0-.25,0-.31-.06h-.52L80,4.6h.15a1.83,1.83,0,0,0,.47,0,1.09,1.09,0,0,0,.31,0h.24a2.75,2.75,0,0,1-.4,0,11.29,11.29,0,0,1,1.3,0,1.06,1.06,0,0,1,.25,0h2.29c0-.06-.25,0-.4-.05s-.31,0-.34-.07a.61.61,0,0,1-.19,0H83.5a2.41,2.41,0,0,1-.71,0h.31a.19.19,0,0,1,.15,0h1.02A1.09,1.09,0,0,1,84,4a.25.25,0,0,0,.12,0,1.58,1.58,0,0,1-.43,0h-.28s0-.06-.12-.05a1.08,1.08,0,0,0-.31,0l-1-.08a1.41,1.41,0,0,1-.46,0h.61s-.21,0-.18-.05a7.36,7.36,0,0,1,1,0,1.32,1.32,0,0,1,.28,0h0a.31.31,0,0,0-.19,0H81.8c0-.05-.21,0-.18-.07s.21,0,.18,0h.09c.09,0-.24,0-.27-.05s.49,0,.68,0h.24a1.6,1.6,0,0,0-.31,0h.46a.16.16,0,0,1,.13,0,1.34,1.34,0,0,0,.28,0,.11.11,0,0,0,.12,0h1.54a3,3,0,0,0-.52,0A.78.78,0,0,0,84,3h-.25a1,1,0,0,1,.34,0h.56a.12.12,0,0,0-.13,0H84l-.28-.05h-.25a.26.26,0,0,0-.15,0H83c-.06,0-.18,0-.15-.05h.3a6,6,0,0,1-.74-.05h-.87a.67.67,0,0,1-.28,0h.62s-.15,0-.12-.09a1.84,1.84,0,0,1-.28,0h-.25a3.13,3.13,0,0,0,.53,0H82.9a1,1,0,0,1,.25,0h.15a1.33,1.33,0,0,1-.34-.05H83c0-.06-.18,0-.18,0L83,2H81.09a.25.25,0,0,0-.19,0h-.15a1,1,0,0,0-.25,0h.22a1.93,1.93,0,0,1,.34,0h.86a7.09,7.09,0,0,1,.8,0c0-.07-.16,0-.28-.05s-.06,0-.16,0-.15,0-.15-.05a1,1,0,0,1-.25,0h-.03s-.31,0-.18-.06c-.13,0-.07.05-.16.05l-.09-.05c-.12,0,0,.05-.15,0s-.44,0-.53-.05h.12s-.21,0-.18-.06c-.13,0-.06.06-.19,0h-.31a1,1,0,0,1-.3,0h-.41a3.91,3.91,0,0,1-.68,0,.46.46,0,0,0,.2,0,5.13,5.13,0,0,0,1,0h.18a5.17,5.17,0,0,1,.68,0h.16a4.24,4.24,0,0,1-.62,0,.87.87,0,0,1,.28,0,.14.14,0,0,0,.15,0h-.56L80,1.44h.2a1.58,1.58,0,0,0-.31,0h.03a1.9,1.9,0,0,0-.34,0s-.18,0-.18-.05h.8l.13-.05a.25.25,0,0,0,.12,0,.17.17,0,0,1,.12,0,.43.43,0,0,0,.16,0,.37.37,0,0,0,.18,0h.25a1.31,1.31,0,0,1,.28,0s0-.05.12-.05h.16a1.88,1.88,0,0,1-.34,0,.29.29,0,0,1-.13,0,.87.87,0,0,0-.28,0h-.52a.4.4,0,0,0-.19,0h-.99a.38.38,0,0,0-.15,0h.37a.43.43,0,0,0,.16,0h.96a1,1,0,0,1-.27,0h-.62a.25.25,0,0,0-.12,0h-.19c-.06,0-.35-.29-.41-.29H77.42a1.31,1.31,0,0,1-.28,0h.4a.29.29,0,0,0,.13,0,4.51,4.51,0,0,1,.52,0c.06,0,0,0,0,0h.19a2.67,2.67,0,0,0,.4,0h0a1,1,0,0,0,.25,0,.38.38,0,0,0,.15,0h.18a5.36,5.36,0,0,0,.8,0h.19a7.58,7.58,0,0,1,.83,0h.28A3.54,3.54,0,0,0,82,1H80.42a.28.28,0,0,0-.18,0h-5.2a.28.28,0,0,0-.13,0h-.55a1.93,1.93,0,0,0-.34,0H69.63c-.06,0-.13-.06-.16,0s.1,0,.1,0h-.1a.55.55,0,0,0-.18,0L69.1.85h-.77a3.22,3.22,0,0,1,.62,0h.09a.08.08,0,0,1,.1,0h.09a.55.55,0,0,0,.18,0,.19.19,0,0,0,.13,0h1.08a.25.25,0,0,1,.12,0h.84a3.53,3.53,0,0,0,.46,0h3.18a1,1,0,0,1,.25,0h.16a1.13,1.13,0,0,0,.18,0h1.73a.62.62,0,0,0,.15,0h.19a.14.14,0,0,1-.09,0h.68a5,5,0,0,1,.55,0c.5-.09,1.42.06,2,0H82.1c-.52,0-1-.06-1.51-.06h-.71a1.58,1.58,0,0,0-.31,0h-.18a3.53,3.53,0,0,0,.46,0h1.27a.81.81,0,0,0,.31,0h-1a4.71,4.71,0,0,0-.53,0h-.24a1.8,1.8,0,0,0,.4,0h.15L78.53.57H76.8c-.09.06.12,0,0,0s-.09-.08-.25,0h0c.06,0-.49,0-.55-.09V.38a3.9,3.9,0,0,1-.59,0A1,1,0,0,1,75.1.32a.42.42,0,0,1-.25,0H74.7c-.12,0-.12-.08-.31-.07,0,.08.13.11,0,.16a4.74,4.74,0,0,0,.75-.06V.43h.28c-.07,0,0,0,0,.05s.34,0,.46,0h-2.1a1.4,1.4,0,0,0-.28.01h0v0c0-.05-.09,0-.09,0h-.09c-.06,0,.06.07-.13.05,0,0,.13,0,0-.05s0,.08-.09.08h-.9c.02,0,.16,0,.13-.05-.19,0-.13,0-.19.06a1.5,1.5,0,0,0-.3,0H69.98c.1,0-.06,0-.09-.05h.65a1,1,0,0,1,.25,0,3,3,0,0,0,.74.07c-.06-.09.28,0,.43,0h-.3c.09,0,0,0,0-.05h-.93L70.64.48c-.09-.07,0,.08-.15.07H68.76a1.09,1.09,0,0,1-.31,0H59.57a.38.38,0,0,0,.15,0h1.73A5.8,5.8,0,0,0,62,.3h1.98a.13.13,0,0,1,.12,0,1.26,1.26,0,0,0,.28.05,8.26,8.26,0,0,1,.86,0,.13.13,0,0,1,.13,0h2.16a.61.61,0,0,0,.19,0h.86s.1,0,.1.06.18,0,.18,0h-.51c-.1,0,0,.06-.15.05s-.15,0-.15,0h.18c-.25,0-.31-.06-.56-.07a3,3,0,0,0-.34.06.76.76,0,0,0-.3,0h-.1a4.51,4.51,0,0,1-.52,0,1.61,1.61,0,0,0-.31,0h-.93a7.09,7.09,0,0,1-.8,0h-.3a.55.55,0,0,1,.18,0h.16a.55.55,0,0,1,.18,0h.65a1.85,1.85,0,0,0-.47,0h-.34a2.23,2.23,0,0,0-.37,0c-.09,0-.09.05-.18.05s.12-.05,0-.05,0,.05-.1.05h-.4c-.06,0,0,0,0-.05H57.96a.41.41,0,0,0-.19,0H56.26a3.46,3.46,0,0,0-.46,0H54.23a1.08,1.08,0,0,1,.31,0h2.35a.66.66,0,0,0,.28,0h-.12l2,.05H57.4a.87.87,0,0,0-.28,0,.57.57,0,0,0-.18,0h-.71a2.67,2.67,0,0,0-.4,0h-.61a.4.4,0,0,0-.19,0H51.24a1,1,0,0,0-.3,0,.2.2,0,0,1-.13,0H42.8a1,1,0,0,1-.24,0h-.72a1.82,1.82,0,0,0-.33,0h.93a.16.16,0,0,1,.12,0h3.71a.54.54,0,0,1,.18,0h2.51a.62.62,0,0,0,.19,0H45.5L42.22.3,42,.33a3.87,3.87,0,0,0-.9,0h-.59a.43.43,0,0,0-.16,0h-2a7.18,7.18,0,0,1-.8,0h-.59a2.67,2.67,0,0,0-.4,0H35.51a.7.7,0,0,1-.25,0H31.91a5.06,5.06,0,0,0-.55,0h-.24a.85.85,0,0,0-.8-.11ZM46.11.07h0Zm.31,0Zm-5.53,0Zm28.28,0h-.15c-.06,0,.06.09.15.09Zm1.2,0V.13a.91.91,0,0,0-.4,0,3.09,3.09,0,0,0-.43,0h.09c.03,0-.15,0-.12-.05s-.15,0-.15,0h1.05ZM47.9.19h.02ZM46.33.2ZM51,.24h0Zm-.24,0h0Zm.43,0Zm19.53,0Zm4.73,0h0Zm.34,0ZM14.49.28h.19a.61.61,0,0,1-.19,0Zm.37,0Zm.06,0h.1a.29.29,0,0,1,.18,0s-.15.07-.18,0S15.02.28,14.92.28Zm41.33,0h.12a.25.25,0,0,1-.12,0Zm19,0h0Zm-60,0h2.29a4.51,4.51,0,0,0,.52,0h.71a1.06,1.06,0,0,0,.25,0h1.29a1.08,1.08,0,0,1,.31,0h.53a3.05,3.05,0,0,1,.43,0H19.57a.2.2,0,0,1-.13,0h-.28a3.09,3.09,0,0,0-.43,0H17.41a3.75,3.75,0,0,0-.58,0,4.69,4.69,0,0,0-.53,0,1.62,1.62,0,0,1-.31,0,3.86,3.86,0,0,1-.68,0c.1,0,.07,0,0,0ZM51.12.42a1.77,1.77,0,0,1-.46,0h.18a1.8,1.8,0,0,0-.4,0H50.2a3.13,3.13,0,0,0-.53,0h-.4a.66.66,0,0,0-.28,0h-.27a1.07,1.07,0,0,1,.25,0,1.61,1.61,0,0,0-.31,0H47a1.3,1.3,0,0,1,.34,0H49a.29.29,0,0,0,.13,0h.15a3.53,3.53,0,0,0,.46,0h.41l1,.06H51ZM75.51.31H75.5ZM14.65.33Zm35.24,0Zm.09,0H50Zm1.7,0a1,1,0,0,1,.25,0h-.26ZM45.9.41H42.77A1,1,0,0,1,43,.4h1.7a2.36,2.36,0,0,0-.46,0c0-.06.31,0,.46,0h.55s.19,0,.1.05h.28a1.22,1.22,0,0,1,.27,0ZM46,.33h0Zm.56,0Zm.12,0Zm4.17,0h0ZM52,.34h.71a4.33,4.33,0,0,1-.72,0Zm2.25,0h-.24a5.81,5.81,0,0,1-.59,0h.52a1.45,1.45,0,0,1,.3,0Zm.65,0a2.27,2.27,0,0,1-.55,0,2,2,0,0,1,.55,0Zm1.1,0h0ZM44,.35Zm7.42,0h-.01Zm2.78,0Zm13.38,0h-.03Zm0,0h-.01ZM42.13.36h0Zm.43,0h0Zm5.78,0h-.31a1,1,0,0,1,.3,0Zm.07,0Zm4.42,0h.04Zm.43,0h-.01Zm2.88,0h-.25c0-.06.11,0,.23,0Zm4.7,0ZM47.3.37h0Zm.25,0Zm.15,0ZM57,.36h0Zm12.86,0a.38.38,0,0,1,.15,0,.09.09,0,0,1-.07,0,.15.15,0,0,1-.09,0ZM41.88.38Zm9.36,0h0Zm6.06,0Zm.09,0a1.93,1.93,0,0,1,.34,0,.65.65,0,0,1-.24,0Zm16.2,0ZM47.75.4a.71.71,0,0,1-.25,0Zm.52,0h0Zm.13,0h0Zm1,0h-.04ZM60,.4h.12A.25.25,0,0,1,60,.4ZM41.2.4h.25a.53.53,0,0,1,.25,0,3.08,3.08,0,0,1,.43,0h-.94Zm5.66,0h.09Zm.46,0ZM42.75.4ZM57,.43h-.31a1.71,1.71,0,0,1,.32,0Zm3.28,0h-.43a3.09,3.09,0,0,1,.43,0ZM56,.44h.09Zm6.58,0h-.04ZM43.73.46Zm19.38,0h0Zm1.33,0h0Zm.12,0ZM72,.49a.37.37,0,0,1-.18,0,.23.23,0,0,1,.18,0Zm-.75.05h-.61a2.37,2.37,0,0,0-.53,0h-.52a1.9,1.9,0,0,1-.34,0h-.54a.86.86,0,0,1-.28,0H71.8c-.07.05,0,.07,0,.09s-.12,0-.09-.07h-.47Zm.47,0Zm.65,0a.39.39,0,0,1,.24,0h-.24Zm-.25,0H72.1Zm6.61,0h.01ZM65.55.52h0Zm.09,0a3,3,0,0,1,.52,0h-.51Zm.71,0h.53a.67.67,0,0,0-.16,0h-.36ZM68,.52h.01Zm-4.45,0Zm.06,0Zm.34,0h.01Zm8.65,0h0Zm.34,0h0Zm.34,0ZM65.4.52h-.24a1.51,1.51,0,0,1-.3,0Zm3.3,0h.01Zm.4,0h.01Zm.15,0Zm-3.12,0h0Zm1,0Zm.13,0h.01Zm.37,0h0ZM69,.59ZM49.46.65a.62.62,0,0,1,.19,0,2.67,2.67,0,0,0,.4,0h-.06a.31.31,0,0,1-.19,0h-.38Zm-1.88,0Zm18.48,0h.56a1.27,1.27,0,0,1,.28,0h-.86ZM48,.69h0Zm1.33,0Zm19,0ZM44.7.71h.02Zm.13,0h0Zm.18,0h.01Zm.12,0Zm.19,0Zm.65,0h0ZM73,.78Zm.75,0h0Zm.65,0Zm.27,0c.07,0,.28,0,.28.06h-.26ZM73.2.81Zm2.13,0Zm.44,0c.09,0,.28-.06.31,0s0,0,.09,0h.09a.37.37,0,0,1-.18,0Zm1.37,0h0Zm-4.7,0Zm1,0Zm2,0H75a1.62,1.62,0,0,1,.44,0Zm.09,0Zm.15,0Zm5.13,0h.1c.1,0-.13.02-.13.01Zm-6.64,0Zm.15,0h0Zm2.63,0h0Zm-4.54,0h.09Zm.21,0a.25.25,0,0,1-.12,0Zm4.85.11H74.7a7.06,7.06,0,0,0-.8,0h.13a.14.14,0,0,0,.09,0h.28a1.93,1.93,0,0,1,.34,0h2.69Zm-3.86,0h0Zm.28,0h.02Zm3.64,0h.01ZM4.78.94C4.71,1,4.71,1,4.65,1H4.53a.69.69,0,0,1,.25,0ZM78.43,1h.01ZM4.56,1.09h0Zm74.67.13h-.68a2.34,2.34,0,0,0-.46,0h1.15Zm.07-.06Zm-1.61,0h0Zm-35,0h.01Zm0,.05ZM2.22,1.36Zm75,.06h-.99a.15.15,0,0,1-.09,0,7.79,7.79,0,0,1,1.08,0Zm.43,0c0,.06-.24,0-.34,0h.13a.37.37,0,0,1,.21,0Zm.34,0h0Zm1.58.05ZM3,1.53Zm77.11.34h.25C80.3,1.87,80.08,1.92,80.11,1.87Zm-1.3,0h0Zm.65,0Zm.16,0h0Zm.12,0h0Zm.65.07Zm2.44.08c0,.05-.31,0-.46,0h-.96L80.48,2h.15l.13-.05h.55a3.57,3.57,0,0,0,.46,0h.47a.81.81,0,0,0,.31,0c0,.08.15.07.21.08Zm-2.6,0ZM1.37,2.79h.02Zm82.25.13H83a3.05,3.05,0,0,0-.43,0h-.25a2.653,2.653,0,0,1-.58-.05h.43a5.23,5.23,0,0,0,.56,0h-.5a4.51,4.51,0,0,0-.52,0h1.64v.05h.25ZM39.55,2.84Zm44.26.1h.01ZM82,3a3.17,3.17,0,0,1,.43,0H82Zm.46,0h0Zm-81,.51Zm.12,0h.1A.18.18,0,0,1,1.58,3.51ZM79.48,4.8H78.12a.17.17,0,0,0-.12,0H75.77a.17.17,0,0,1-.12,0h-.28a5.75,5.75,0,0,0-.83,0h-.16a1,1,0,0,0-.25,0H69.81c0-.06.21,0,.31,0h1.8a2.06,2.06,0,0,1,.43,0h4.26a.14.14,0,0,1,.09,0h2.79Zm-14.65,0Zm.71,0h0Zm-10.42,0h.02Zm21.64,0Zm-20.92,0ZM3.5,4.84h.2a.5.5,0,0,1-.18,0Zm71.06,0Zm.28,0h0Zm-3.46,0Zm1.58,0Zm-18.3,0Zm19.78,0a.19.19,0,0,1-.13,0Zm1.54,0Zm-42.31,0Zm22.07,0Zm.65,0a.31.31,0,0,1-.13,0,.31.31,0,0,1,.13,0Zm.68,0h.12a.25.25,0,0,1-.12,0Zm17.15,0h.09A.14.14,0,0,1,74.22,4.84Zm3.3,0h.06ZM51,4.91h.01Zm1.45,0Zm4.85,0Zm5.94,0Zm11.68,0h.01Zm3,0h.01Zm.19,0h.01Zm-21.08,0Zm13.44,0Zm6.86,0Zm1,0h.01Zm-9.82,0c0,.08-.22,0-.25,0h-.13a.31.31,0,0,0-.12,0h.51Zm8.12,0Zm1.3,0h.01Z" fill="#fff100"/>
</svg>
