<svg xmlns="http://www.w3.org/2000/svg" width="61.127" height="7.894" viewBox="0 0 61.127 7.894">
  <path id="Tracé_23098" data-name="Tracé 23098" d="M45.6,26.32h-.133c-.044,0-.067.035-.089,0h-.867c-.022-.018-.044-.018-.089-.018H43.84c-.089-.035-.111.018-.222,0h-.244c-.067,0-.067-.035-.133-.018a1.553,1.553,0,0,1-.289,0c-.311.018-.533-.035-.845-.018-.044,0-.067-.018-.111-.018h-.222c-.044,0-.067-.018-.111-.018-.067-.018-.222.035-.244-.018.044,0,.089,0,.089-.018-.467-.018-.978.018-1.4-.018-.044,0-.067.018-.111.018a.2.2,0,0,0-.111-.018H39.64c-.067-.018-.2.035-.222-.018.067,0,.133,0,.133-.035a1.038,1.038,0,0,0-.244.018h-.556c-.044-.018-.089.071-.111,0,0-.035.089,0,.089-.035a2.277,2.277,0,0,0-.511.035c-.067-.018-.222.035-.244-.018a.506.506,0,0,0,.178-.035,6.754,6.754,0,0,1-1.045.018H36.6c-.022,0-.022-.035-.067-.035-.022.053-.133,0-.2.018-.044,0-.067-.018-.111-.018a1.138,1.138,0,0,1-.489,0H35.2c-.022-.018-.044-.018-.089-.018H33.995c-.044-.071-.067-.071-.111-.071-1.045-.018-1.845.035-2.889.018-.222.053-.6-.018-.822.035-.289-.018-.489.035-.756.018-.067.035-.156.018-.222.035h-.311a8.567,8.567,0,0,1-1,.089c-.044,0-.067-.018-.111-.018a2.208,2.208,0,0,0-.489.018.982.982,0,0,0-.333-.018,3.1,3.1,0,0,1-.711.071c-.067-.035-.067.018-.111-.018,0-.053-.111-.018-.133-.018s-.022.035-.067.035h-.111c.044.089-.089.035-.067.106.067.053.2.035.311.071-.022.213.422.053.533.177a1.652,1.652,0,0,1-.511.018c-.044.089.178,0,.178.071.067.018.2-.035.222.018-.044.035-.156.018-.2.035h-.222c-.022.089.2.035.2.106h-.089c-.022.089.133.053.133.124-.089.018-.267-.035-.311.018.2.018.356.071.533.089.089.018.156.053.267.071.044.053.178.018.178.106.133-.018.156.035.244.035s.222-.018.222.035c-.067.035-.178.018-.244.035,0-.035-.022-.035-.067-.035-.022.018-.022.053-.089.035h-.222a.26.26,0,0,1-.067-.071c-.178.018-.178-.106-.333-.089.022.053-.044.053-.022.106.044.035.156.018.178.089-.067,0-.022.071-.022.106a.188.188,0,0,1-.111.106c0,.053.022.142-.022.177-.156-.018-.222.035-.4.018a2.319,2.319,0,0,0-.333.089c-.044.018-.133,0-.178.035a.506.506,0,0,0-.178.035c.2.018.444-.071.578.018-.111.035-.244.035-.333.071a.7.7,0,0,0-.289.035c.067-.018.044.035.089.035h.133c-.022.053.044.035.067.071,0,.035.067.018.067,0-.044-.018,0-.018.022-.018.067,0-.022.089.089.071.022,0,.022,0,.022.018.133.035.2-.089.289-.018-.044.053-.156.053-.244.071,0,.053.044.071-.022.089-.111.053-.111-.035-.267-.018-.044.106.178.035.2.089-.067.071.022.142.022.213a.2.2,0,0,1-.111.018c0,.035.022.106-.067.089-.022.018-.022.053-.067.071a.347.347,0,0,0,0,.213c-.067,0-.089,0-.089.035-.067.035-.044.124-.133.142-.022.035.089.071,0,.089-.022.035.111.053.022.071-.067,0-.111,0-.111.035.044,0,.133-.018.111.035.133.018-.022-.035.067-.035.067.018.044.071.111.018a1.04,1.04,0,0,0,.133.142c-.133-.018-.044.018-.022.071-.089-.018-.111.018-.178.035-.022-.053-.156-.018-.133.018.089-.018.089.035.133.035a.011.011,0,1,1,.022,0h-.022c0,.035-.044.053-.111.035-.022.018-.022.053-.067.071-.022-.053-.089.035-.178,0,0,.053-.156-.018-.111.071.067.053.111.018.178.035.022.053.2,0,.178.089-.067.018-.2-.018-.222.018a.127.127,0,0,1,.089.035,1.038,1.038,0,0,0-.244.018c-.089.018-.067-.035-.133-.018,0,.053-.111.018-.178.018h-.089c-.022,0-.022.018,0,.018.044.018.178-.018.178.018.022.053-.133-.018-.111.035a1.839,1.839,0,0,1,.333.018c.022-.018.178-.053.2,0-.044.035-.089.035-.178.035-.044.035-.133.018-.2.018,0,.035,0,.053-.022.071a.536.536,0,0,0-.178.018c-.022-.018-.156-.053-.178,0a6.392,6.392,0,0,1,.711.071c.089.018.244-.035.244.035a3.394,3.394,0,0,1-.489.071c0,.106.289.018.378.089a.751.751,0,0,1-.289.035c0,.071-.067,0-.089.035-.044.018-.111.018-.133.035-.133-.018-.178.035-.311.018-.067.053-.222.035-.311.071-.067-.071-.133,0-.289-.018-.022.106.178.035.222.106a.267.267,0,0,1,.222.089.4.4,0,0,0-.222.035.966.966,0,0,1,.422.071h.311c-.022.018-.022.035.022.035a2.7,2.7,0,0,0,.4-.018c.022.053.2-.018.178.071a1.929,1.929,0,0,0-.578.089h-.244c-.067.018-.178-.018-.2.018.111-.018.133.053.178.089a.218.218,0,0,1,.133.035c.044.018.156-.018.133.018-.044.071-.156-.053-.178.035.044.053.2.035.333.035.067-.018.044.035.089.035,0-.035.067-.035.111-.071.044.053.156.053.289.035.022.071-.067.035-.067.106.044.018.067.089.022.106a1.682,1.682,0,0,1-.422,0c-.067,0-.067.035-.133.018-.111.035-.2-.071-.244,0a1.428,1.428,0,0,0,.4.018c.133.071.333-.018.4.089.022.071-.044.071-.022.124,0,.053.089.035.089.106-.044,0-.089,0-.089.018.067,0,.067.053.067.106a1.163,1.163,0,0,1-.244.035c0,.053.022.035,0,.071-.022.018-.111-.018-.089.035a.946.946,0,0,0,.244-.018c-.022.071.156.018.111.106-.044.035-.222-.018-.222.071-.044.071.178.035.089.089-.111,0,0,.018,0,.035-.044,0-.089,0-.089.018.022.053.178,0,.2.035-.089.018-.2,0-.222.071.067.035.267-.053.311.035-.022.018-.067.018-.089.035a.118.118,0,0,1,.111.124c-.044.018-.133,0-.178.035h.133c.089.089.4.018.333.213-.111,0-.2-.035-.311-.035-.022.035.022.053.022.089-.044,0-.089,0-.089.018.089.035.111.106.289.089a.933.933,0,0,0,.244.089c.133-.018.178.035.311.018v.071h.2c.044.035.022.089.111.089.067,0-.022-.089.089-.071a.1.1,0,0,1,.089.018.611.611,0,0,1,.089-.018c.067,0,.133.035.2.035a4.32,4.32,0,0,0,.511.018,4.72,4.72,0,0,1,1,.018c.044,0,.067-.018.111-.018a4.955,4.955,0,0,0,.756.018c.044,0,.067.018.111.018.311,0,.6.018.889.035a3.716,3.716,0,0,1,.444,0,2.683,2.683,0,0,0,.378,0h.2c.067,0,.067-.018.111-.018l.022.018h.089c.111-.035.111,0,.2-.018a2.571,2.571,0,0,0,.533-.018c0,.035.067.018.111.018h.111c.044,0,.067-.018.111-.018.8.018,1.489-.035,2.267-.035.022-.018.044-.018.089-.018a3.2,3.2,0,0,0,.444-.018c.022.053.133,0,.2.018h.222c.022-.018.044-.018.089-.018h.8a.2.2,0,0,1,.111-.018c.356,0,.667-.018,1.022,0h.067c.022.035.022,0,.067,0s.089.018.133.018c.067,0,.111-.018.178-.018s.111.018.178.018a1.569,1.569,0,0,1,.289,0h.333a.2.2,0,0,0,.111.018,5.071,5.071,0,0,1,.733-.018.611.611,0,0,0,.089.018H40.6s0-.018.022-.018c0,0,0,.018.022.018h.311c.044,0,.067-.018.111-.018.022,0,.067.018.111.018.244.018.489-.018.733,0,.022-.018.044-.018.089-.018,1,0,2-.053,3.045,0,.133-.018.089,0,.2-.018a5.22,5.22,0,0,0,.756.018c.022.018.044.018.089.018a2.553,2.553,0,0,1,.645.018h.244c.067,0,.067.035.133.018.111.018.289-.018.422,0H47.6c.022.035,0,0,.111,0h.067v.018c.044,0,.044-.018.067-.018s.022.018.067.018c0,0,0-.018.022-.018a.611.611,0,0,0,.089.018s.022-.035.022-.018a.077.077,0,0,0,.089.018c.067-.018.044,0,.178,0,.533.018,1.133-.018,1.756,0,.022,0,.067.018.111.018h.444c.022,0,.022-.035.067-.035a.8.8,0,0,0,.222.035c.089.018.111-.035.178-.035.044.071.222.018.311.071h.4a2.089,2.089,0,0,0,.333,0c.044,0,.067.018.111.018.022,0,.022-.018.067-.018s.044.018.067.018.067-.018.111-.018c.022,0,.067.035.111.018.089-.018.244.035.289-.018-.044,0-.067-.018-.022-.018s.044-.018.089-.018c.267.071.533-.035.733.018a.2.2,0,0,1,.111-.018,2.682,2.682,0,0,1,.378,0,2.093,2.093,0,0,1,.333,0c.067,0,.067-.035.133-.018h.333c.044,0,.067-.018.111-.018h.2c.044,0,.044-.018.089-.018,0,0,0,.018.022.018.044,0,.067-.018.133-.018h2.356c.044-.018.178.018.178-.018a1.428,1.428,0,0,0,.4.018c.178-.018.244.018.378,0,.067.035.044,0,.133.018a.983.983,0,0,1,.333.018c0-.053.089,0,.111,0,0-.053.044.035.111,0a2.614,2.614,0,0,1,.645,0c.089.018.067-.035.133-.018,0,.053.111.018.133.018h1.067c.067,0,.089.035.178.018.089.018.044-.053.133-.035.022,0,.022.018.067.018.022,0,.044-.018.022-.018a.611.611,0,0,0,.089.018c.044,0,.089-.018.133-.018s.089.018.133.018a1.313,1.313,0,0,0,.378-.018,1.462,1.462,0,0,0,.489.018c.067,0,.067.035.133.018a.6.6,0,0,1,.311.018c0-.035.022-.035.067-.035.067,0,.044.053.111.035.044-.035.156-.018.222-.018.178.035.533,0,.756.035.178-.035.378,0,.578-.018.022.018.178.053.2,0-.044-.035-.156,0-.2-.035-.089-.018-.111.018-.178-.018.022-.053.133,0,.2-.018h.2c.067-.018.067.035.111.035,0-.035.067-.018.111-.018.022-.018.044-.018.089-.018.089-.018.067.071.178.035.022-.018.022-.053.089-.035s.178-.018.2.018c.067,0,.089-.035.178-.018.067-.035.111.071.133,0-.022,0-.022-.018,0-.018.111.053.156-.018.289-.018a2.889,2.889,0,0,1,.422.071c.022-.035.022,0,.067,0,0-.035.022-.035.067-.035a.536.536,0,0,0,.178-.018.2.2,0,0,0,.111.018c.111-.035.178.035.289-.018,0,.035.089,0,.089.035.022.018.044.018.089.018a.982.982,0,0,1,.333.018.127.127,0,0,1,.089-.035c0,.053.111,0,.178.018a.248.248,0,0,1,.133.018c0-.053.111-.018.178-.018.044.035.067.089.178.089.044,0,.022-.089.111-.071s.089-.035.178-.018a3.531,3.531,0,0,0,.378.035c.067.018.067-.035.111-.035.022.053.133.035.178.071.022-.035.067-.035.111-.035.044.053.178,0,.222,0,0,.035.089,0,.089.035.067.035.089-.089.111-.018v.089c.089,0,.044-.106.133-.106,0,.053.2-.018.2.035-.111,0,0,.035-.067.071.2,0,.178.018.333.018.022-.053-.089-.124-.111-.071a.1.1,0,0,1-.133-.018c.067-.071.178-.018.244-.035a.2.2,0,0,0,.111.018h.333a.1.1,0,0,1,.067.018.469.469,0,0,1,.222,0c.022-.018.133-.053.133,0s-.067.053-.133.071c0,.035.178.018.244.018,0,0,0,.018.022.018-.022,0,.089-.035.133-.018.089-.018.067.035.133.018A.983.983,0,0,1,73,33.8c.022-.018.022-.053.089-.035.044.018.022.071.111.035.044-.018.111-.018.133-.035-.067-.053-.156.018-.2-.018.044-.053.156-.035.2,0,0-.053.044-.071.089-.089.067.071.089.018.2,0,.089.053.156-.035.244.018.067,0,.044-.053.111-.035-.089.071.089.018.089.089-.044,0-.089,0-.089.018a.249.249,0,0,0,.133-.018c-.022-.018-.044-.053,0-.071.067.018.178-.018.2.018.044.035.133.018.178.035,0-.035.022-.035.067-.035.089.018.111-.018.178-.018.089.053.133,0,.2.071a.117.117,0,0,1,.111-.071c.067.018.111,0,.222.018.044,0,.089-.018.133-.018.089,0,.044.018.111,0s.111.018.178.018c.044,0,.022-.018.022-.018.022,0,.044.035.089.018.022,0,.044-.018.022-.018.044,0,.044.018.089.018.022,0,.044-.035.089-.018.044,0,.044.035.089.035a.082.082,0,0,1,.067-.035,1.708,1.708,0,0,1,.289.018.611.611,0,0,1,.089-.018c.022,0,.067.018.111.018.022,0,.022-.018.022-.018.022,0,.067.018.111.018a1.8,1.8,0,0,1,.311,0c.067,0,.089-.035.178-.018.067,0,.067.035.111,0,.067,0,.044.053.111.035,0-.053.111-.018.133-.018H77.8c.067,0,.022.089.111.071,0-.053.022-.071.089-.071.089-.018.289.018.444,0,.067.035.178.018.244.035.022-.018.089-.071.111,0a1.428,1.428,0,0,1-.4.018c0,.018.044.018.089.018h.289c.067,0,.067.035.133.018.044-.053-.133-.035-.022-.071.067.018.044-.035.089-.035-.022.053.044.035.089.035.089.018.067-.035.133-.018.022.071.067-.018.089-.018-.044.089.133,0,.111.071.067.018.067-.035.111-.035,0,.018.089.071.089.018-.044,0-.022-.035,0,0,.089-.018.089.035.133.035.022-.035.111-.018.178-.035,0,.035.067.018.111.018s.067.018.111.018c0-.053.067-.053.133-.035-.022-.071.044-.071.089-.089a10.522,10.522,0,0,0,1.622.089.933.933,0,0,1,.244-.089h.089c.022,0,.022-.018,0-.018-.067-.018-.244.035-.222-.035.067,0,.067.035.133.018-.022-.053.133.018.111-.035a2.569,2.569,0,0,0-.511-.018c-.044-.053-.178-.035-.222-.089.111,0,0-.018,0-.035s.067-.018.067-.035c-.089-.018-.178-.018-.244-.035-.044,0-.111.018-.111-.018-.044,0-.067.035-.089,0,.022-.035.067-.035.111-.071,0-.035.067-.035.111-.071a.592.592,0,0,0,.333-.071A.452.452,0,0,0,82,33.087c.089,0,.178,0,.178-.071-.089-.018-.244.035-.289-.018a3.334,3.334,0,0,1,.933-.018c.067-.018.089-.053.178-.035.089,0,.133.018.222.018a1.247,1.247,0,0,1,.444,0c.022-.018,0-.071.089-.071.089-.035.089,0,.2,0,0-.018.067-.018.067-.035-.022,0-.022-.018,0-.018a3.776,3.776,0,0,0,.622.018c0-.089-.178-.053-.289-.071-.067-.053-.222-.035-.244-.106a.249.249,0,0,1-.133-.018c-.044-.018-.156.018-.133-.018.044,0,.111.018.111-.018-.044,0-.111.018-.111-.018-.178-.018-.444.035-.511-.071.089,0,.111-.035.222-.018a.117.117,0,0,1,.111-.071c.2,0,.378-.035.6-.018.022-.035.133,0,.133-.035-.089,0-.2,0-.222-.035a.127.127,0,0,0,.089-.035.559.559,0,0,1-.311-.071c-.067,0-.067-.018-.111-.018s-.111.018-.111-.018c.022-.071.178-.018.222-.071h-.067c-.067,0-.111,0-.111-.035-.067,0,.022-.089-.089-.071-.044-.035-.156-.018-.222-.018-.244-.053-.533-.071-.756-.124a.592.592,0,0,1-.333-.071c.067-.018.267.018.422,0,.044-.035,0-.035,0-.071.044,0,.089,0,.089-.018a.218.218,0,0,1-.133-.035c.022-.018.067-.018.067-.071-.022-.053-.156,0-.133-.089a2.72,2.72,0,0,1,.756-.018c.044-.035.133-.018.2-.018s.089.035.178.018c.089,0,.111-.035.222-.018.022-.035.156,0,.178-.035-.156.018-.222-.035-.378-.018,0-.018-.044-.018-.089-.018,0-.035-.044-.053-.111-.035.022-.018.022-.035-.022-.035a.148.148,0,0,0-.133-.018c-.044,0-.111.018-.111-.018s.089,0,.089-.035c-.222.018-.333-.071-.578-.035,0-.018-.044-.018-.067-.018,0-.053-.022-.071-.089-.071.022-.018.022-.053.022-.089h-.133c0-.071-.156-.035-.133-.106.044-.018.156.018.133-.018-.089-.018,0-.071.067-.035-.022-.071-.178-.018-.2-.071.089-.071.356-.018.489-.071.133.053.267-.018.4.018.022-.089-.156-.018-.222-.035a.927.927,0,0,0-.222,0c-.044-.053-.222.018-.244-.035h.578c.022-.018.022-.053.089-.035.089.018.133-.018.2-.018.022.018.022.053.089.035.2-.035.311.035.578.018.022.018.044.018.089.018h.333c.044,0,.067.018.111.018.156.018.267-.035.022-.018a.951.951,0,0,0-.378-.035c-.022-.053-.111-.053-.2-.071-.022,0,0-.053-.022-.071-.044-.018-.2.018-.178-.071a.385.385,0,0,1,.244,0h.489c.044,0,.111.018.111-.018h-.133c0-.018-.044-.018-.067-.018-.022-.018-.022-.053-.089-.035-.156.018-.222-.035-.378-.018-.044-.035-.156-.053-.2-.089H83.8c-.022-.035-.067-.035-.111-.035h-.222c-.044-.018-.133,0-.111-.071h.089a.011.011,0,1,0,.022,0c.044-.018.156.018.133-.018-.111,0-.067-.018-.022-.035a3,3,0,0,1-.533-.071,3.519,3.519,0,0,1-.622-.018c-.089,0-.156.035-.2-.018,0-.053.2.018.2-.035-.044-.035-.178,0-.178-.071.044,0,.222,0,.133-.018-.089,0-.2.018-.2-.035.178-.018.311-.053.422-.071a2.543,2.543,0,0,0,.378-.018c.067.018.178-.018.067-.018-.111.018-.111-.035-.222-.018-.044-.018-.133,0-.178-.035a.271.271,0,0,1,.111-.035c.044-.018.156.018.133-.018-.067-.035-.156-.018-.222-.035-.022-.053-.111-.071-.089-.142-.067-.018-.156-.018-.2-.035-.089,0-.178.018-.178-.071.133,0,.311.018.378-.035-.044,0-.044-.018-.067-.035a3.757,3.757,0,0,0,.444.035,1.492,1.492,0,0,0,.333-.035c.022.053.067-.035.111.018a.537.537,0,0,1,.178.018c-.022-.053.133.018.111-.035-.089-.018-.2-.018-.244-.071h.067c.022-.089-.133.035-.133-.071.044-.018.111-.018.133-.035a3.169,3.169,0,0,1-.6-.035c-.156.018-.311-.018-.4,0a.506.506,0,0,0-.178-.035c-.089-.018-.133.018-.2.018A.111.111,0,0,0,82,29.066c-.067-.018-.067.035-.111.035-.022-.035-.111-.018-.178-.035-.044-.018-.178.018-.178-.018.044-.035.111.018.2-.018.067,0,.067.035.133.018a1.123,1.123,0,0,1,.244,0h.311c.022,0,.022-.035.067-.035.044.035.178.018.244.018.022,0,.022.018.022.035a3.026,3.026,0,0,1,.578-.018c0-.106-.111-.018-.2-.071-.067,0-.044.053-.111.035-.044-.035-.111-.018-.111-.089a.3.3,0,0,1-.178,0c.022.035-.156.035-.133,0,.044,0,.111.018.111-.018-.111.018-.222-.018-.133-.089-.089-.018-.044.071-.111.071a.26.26,0,0,1-.067-.071c-.089-.018-.022.071-.111.035-.044-.089-.311,0-.378-.089a.249.249,0,0,0,.133-.018c.067,0,.067.035.133.018h.089c0-.018-.044-.018-.067-.018-.089.018-.089-.035-.2-.018,0-.053-.156,0-.133-.089-.089-.018-.044.089-.133.071-.067,0-.067-.035-.133-.018,0-.035-.089,0-.089-.035-.089,0-.178.018-.222-.018-.089.018-.111.018-.133-.035.044,0,.044-.018.067-.035A.452.452,0,0,1,81,28.552c-.156-.018-.4.035-.489-.035a.249.249,0,0,0,.133-.018,2.234,2.234,0,0,0,.689,0c.022.035.133,0,.133.035a2.1,2.1,0,0,1,.489-.018c.067,0,.067.035.133.018.044-.018.156.018.133-.018-.067-.035-.267,0-.333-.035-.089,0-.222.018-.222-.035.111-.071.333.053.4-.035-.133-.018-.4.035-.444-.035.044-.035.133-.018.2-.018.067.053.089,0,.111-.035h-.4c-.044-.035-.133-.035-.178-.089-.022.071-.089-.018-.133,0-.089.018-.111-.018-.178-.018h-.222c.022-.053-.133.018-.111-.035a4.31,4.31,0,0,0,.489-.018c.089-.018.089.035.178.018h.2c.022-.035.133,0,.133-.035h-.244c-.044-.035-.156-.018-.222-.018,0-.053-.178.018-.178-.035s.2.018.2-.035a.86.86,0,0,0-.244-.018c0-.053-.133-.018-.133-.071a4.732,4.732,0,0,0,.511,0c.022,0,.022.035.067.035.022-.018.067-.035.089-.071a.127.127,0,0,0,.089.035c.022-.018.022-.053.089-.035a.12.12,0,0,0,.111,0,.149.149,0,0,0,.133.018c.089-.035.133.035.178-.035.111,0,.111-.035.2,0,0-.053.022-.071.089-.071.044,0,.111.018.111-.018-.133.018-.156-.035-.244-.035-.022.018-.044.018-.089.018a.254.254,0,0,0-.2-.018.646.646,0,0,0-.2-.035.536.536,0,0,0-.178.018c-.022-.035-.089-.035-.133-.035a4.155,4.155,0,0,1-.489-.035H80.8a.2.2,0,0,0-.111-.018h-.2c-.044-.018-.178.035-.133-.035.133.035.244-.018.378.018.067.018.067-.035.111-.035,0,.035.067.018.111.018a.2.2,0,0,0,.111.018c.156,0,.156-.018.244-.018.067.035.244,0,.311.035-.022-.053.156.018.133-.035-.111-.018-.133.018-.2-.035-.111.035-.178-.018-.333,0,0-.035-.089-.018-.111-.035a.127.127,0,0,0-.089-.035c-.067,0-.089.035-.133.035-.022-.089-.244-.018-.311-.071h-.533a1.968,1.968,0,0,0-.333-.018h-.244c-.067-.018-.178.018-.2-.018H79.4c.067.018.044-.035.089-.035,0,.053.022.018.067.018.022.018.044.018.089.018a1.326,1.326,0,0,1,.378,0c.044,0,.022-.018.022-.018a.6.6,0,0,0,.133.018,1.574,1.574,0,0,0,.289,0v-.018c.067,0,.089.035.178,0a.2.2,0,0,0,.111.018c.089.018.044-.053.133-.035a1.942,1.942,0,0,0,.578.018c.022.035.133,0,.133.035a3.671,3.671,0,0,1,.6.035c.089.018.089-.035.2-.018a1.021,1.021,0,0,0,.333.018c.044,0-.022-.035.022-.035h.111c.022,0,.022-.018,0-.018h-.222c-.067-.035-.267,0-.333-.035h-.4c-.067.035-.2-.035-.289.018a.111.111,0,0,0-.133-.035c-.111.018-.2-.018-.378,0h-.4c-.067,0-.067-.035-.133-.018-.156,0-.178.018-.378.018-.311-.053-.778.018-1.089-.035-.267.035-.578-.018-.845.018-.067-.018-.178-.018-.222-.035-.022.053-.2,0-.222.035,0-.035-.044.018-.067-.018-.022-.018-.044-.018-.089-.018,0,.053-.111.018-.178.018a.249.249,0,0,1-.133-.018c0,.071-.089-.053-.089.018a1.122,1.122,0,0,0-.244,0h-.645c-.022.018-.044.018-.089.018H75.91c-.067,0-.067.035-.133.018-.356,0-.711.035-1.022.018-.067,0-.089.035-.178.018a3.268,3.268,0,0,0-.6-.018c-.067,0-.067-.053-.111-.071-.022-.018-.089-.089-.111-.018.022,0,.067,0,.067.018-.022,0-.067,0-.067-.018a.249.249,0,0,0-.133.018c-.044-.018-.067-.053-.133-.071-.133-.018-.133,0-.222-.018,0,.053-.111.018-.133.018-.022-.018-.067-.018-.089-.035.044,0,.111.018.111-.018-.067-.018-.2.018-.222-.018a1.22,1.22,0,0,1,.444.035c.022-.035.022,0,.067,0,0-.018.044-.053.067-.018.022,0,.022-.035.067-.035a.149.149,0,0,0,.133.018c.022.018.022.053.089.035,0-.035.022-.035.067-.035s.044-.018.089-.018c0,.053.111.018.133.018h.489c.022-.018.044-.018.089-.018a3.335,3.335,0,0,0,.6-.018,2.094,2.094,0,0,0,.333,0c.356,0,.822-.035,1.2,0,.044,0,.089.018.133.018.067,0,.111-.018.178-.018a.611.611,0,0,0,.089.018l.022-.018c.067-.018.111.018.178.018.022,0,.067-.018.111-.018.133-.018.244.035.4.018.089-.018.044,0,.178,0H78.2c.067-.018.067,0,.133-.035.022.053.178,0,.2.035.044-.035.067.018.178,0,.089.018.067-.035.133-.018a3.748,3.748,0,0,0,.489.018c.111.035.133,0,.244.018.067.018.067-.018.111-.018.022.018.133.053.133,0-.044,0-.044-.018-.067-.035.044.018.111.018.111.071.044-.035.067,0,.133,0a1.038,1.038,0,0,1,.244.018c.133-.035.222.018.4,0,.356-.142,1.022.089,1.422-.018.067,0,.067.035.133.018h.222c.044,0,.067.018.111.018.044-.035.244.035.311-.018-.378-.018-.689-.089-1.089-.089-.022-.018-.044-.018-.089-.018h-.2c-.022-.018-.044-.018-.089-.018h-.133c-.044-.035-.156-.018-.222-.018,0-.053-.178.018-.133-.071a.707.707,0,0,0,.333,0c0,.035.089.018.111.035,0-.035.067-.018.111-.018,0,.035.044-.018.067.018a40996.374,40996.374,0,0,0,.444.035h.178c.022.018.2.035.222,0-.244-.018-.422-.071-.711-.071a2.434,2.434,0,0,0-.378-.035h-.289c-.044,0-.111.018-.111-.018-.067,0-.089,0-.089-.035a1.588,1.588,0,0,1,.311.018.765.765,0,0,0,.289-.018c.067,0,.044.053.111.035.022-.053.133,0,.2-.018,0-.018-.044-.018-.089-.018h-.111c-.378-.053-.822-.071-1.222-.106H79.021c0-.053.067-.106-.022-.071-.156,0,.089.035-.022.071-.133.035-.067-.124-.178-.035,0,.018-.044.018,0,0-.044-.124-.356-.035-.4-.142V26.55a1.731,1.731,0,0,1-.422.018.514.514,0,0,1-.178-.089c-.022.035-.089.053-.178.035a.2.2,0,0,0-.111-.018c-.089-.018-.089-.124-.222-.106-.022.124.089.177.022.248a1.517,1.517,0,0,0,.533-.106v.124c.022.018.111,0,.089.071a.2.2,0,0,0,.111.018c-.044.035,0,.035,0,.071.111-.018.244-.018.333-.035-.022.106.133-.018.133.035-.022.053-.133,0-.2.018-.022.035-.022,0-.067,0h-.089c-.4.071-.845-.035-1.311,0-.067-.018-.089-.089-.2-.089h-.022a.09.09,0,0,1-.022.071c-.022-.035-.022-.053.022-.071,0-.018-.067-.018-.067-.035h-.067c-.044,0,.044.106-.089.089-.022-.035.089-.071,0-.089-.067.018,0,.124-.067.124h-.511c-.044-.018-.156.018-.133-.018.111,0,.111,0,.089-.071-.133-.035-.089.053-.133.089-.067-.035-.156.018-.222,0-.022,0-.022-.035-.067-.035.044.089-.133,0-.111.071-.044-.035-.067,0-.133,0-.022-.035-.044,0-.089,0,0-.018-.044-.018-.089-.018-.089.018-.222-.018-.378,0-.067-.053-.244,0-.289-.071.044,0,.089,0,.089-.018-.044.018-.156-.018-.178.018.089.018-.044.035-.089.018.067-.053-.044-.018-.067-.071a2.089,2.089,0,0,1,.333,0c.067-.035-.044-.071.022-.089.022.071.089-.035.133.018a.536.536,0,0,1,.178-.018,1.128,1.128,0,0,0,.533.124c-.044-.142.2-.071.311-.089.022-.071-.067-.035-.111-.035-.067,0-.044-.053-.111-.035h-.022c0,.018-.044.053-.067.018,0-.018.022-.018.067-.018-.022-.053.022-.053.022-.089-.111,0-.133.071-.244.071-.067-.018-.067-.089-.178-.071-.022.018-.067.035-.089.071a.127.127,0,0,1-.089.035c-.022-.018-.089-.035-.022-.035,0-.018-.067-.018-.067-.035.044-.035-.022-.071-.067-.106,0,.071,0,.124-.111.106a.26.26,0,0,1-.067-.071c-.044-.018.022-.018.022-.035h-.444c-.2-.018-.4-.035-.622-.035-.044-.035-.089.035-.111-.035A.452.452,0,0,1,73,26.39c-.067,0-.067-.035-.133-.018H71.709c-.022-.035-.044,0-.089,0h-1c-.022.018-.089-.018-.111,0s0,0-.111,0h-.645c-.022.035,0,0-.022,0-.356-.018-.845,0-1.267,0-.2.035-.4.018-.533.035a.2.2,0,0,0-.111-.018h-.778c-.067-.018-.089,0-.2-.018h-.156c-.111.018-.289-.018-.422,0-.044,0-.067.018-.022.018H66.6a.2.2,0,0,0,.111.018h.311c.111.035.311,0,.422.035.133-.018.311.018.511,0a3.275,3.275,0,0,0,.422,0c.044,0,.067.018.111.018a2.26,2.26,0,0,0,.489-.018,6.2,6.2,0,0,0,.822.018c.022-.018.022-.053.089-.035a.474.474,0,0,0,.2.071,3.587,3.587,0,0,1,.622-.018c.022-.018.022-.053.089-.035.044.018.156-.018.178.018-.044,0-.089,0-.089.018H71c0-.018,0-.035.022-.035.022.035.044,0,.089,0,.089-.018.111.035.2.018.089.018.111-.018.178-.018.044.035.156,0,.2.035,0-.053.111,0,.178-.018h.178a.983.983,0,0,0,.333-.018.149.149,0,0,0,.133.018c.156-.018.333.018.622,0,.022.035.067.053.067.106.067,0,.133.018.133.071-.111.035-.244-.053-.267.018a1.716,1.716,0,0,1,.333.018c.067-.018.2-.018.2.071.022.053-.244,0-.133.035.089,0,.2-.018.2.035.022,0,.044,0,.022.018-.022,0-.044,0-.022-.018-.089.035-.133-.018-.244,0H73.11c-.022-.053-.178,0-.2-.035.044-.089.178,0,.289-.018.044-.018,0-.018-.022-.018h-.089c0-.053-.111,0-.178-.018-.067,0-.022.089-.111.071-.044.035-.111.035-.111-.018.044-.018.156.018.133-.018-.178,0-.222-.089-.4-.106-.089.035-.178.053-.244.089-.067-.018-.178-.035-.222,0,0-.071-.111-.035-.133,0,.067-.018.044.035.067.071a1.347,1.347,0,0,1-.378,0c-.089,0-.178-.018-.222.018-.022-.053-.133,0-.2-.018-.089-.018-.067.035-.133.018-.022-.053-.156,0-.222-.018-.044,0-.067-.018-.111-.018a3.026,3.026,0,0,1-.578.018c-.044-.035-.2,0-.222-.071a.249.249,0,0,1,.133.018c.022,0,.022-.018.022-.018a.611.611,0,0,0,.089.018l.022-.018c.067-.018.067.018.133.018.044,0,.067-.018.111-.018-.022,0,.022.018.022.018h.178c.044,0,.133.018.178-.018a.705.705,0,0,0-.333,0c-.044-.071-.133,0-.244-.018a.62.62,0,0,0-.267-.018c-.067,0-.067.071-.133.071-.022-.053.089-.071-.022-.071-.133-.018.022.071-.067.071-.067.018-.044-.035-.089-.035.022.071-.089.035-.133.035,0-.018.067-.018.067-.035-.089-.018-.089.035-.133.035,0-.035.022-.035.022-.071a11.04,11.04,0,0,1-1.356-.035c-.222.035-.578-.035-.845,0a1.91,1.91,0,0,0-.489-.018c-.044,0-.067-.018-.111-.018-.422.018-.733-.035-1.111-.035-.044-.018-.067-.053-.133-.035-.333-.018-.733-.018-1.089-.035a2.1,2.1,0,0,0-.333.018c-.044,0-.111-.018-.133-.018h-.333c-.022,0-.022.018,0,.018.044.018.178-.018.178.018h-.689c-.044,0-.111-.018-.111.018.089,0,.178-.018.222.018.022-.035.044,0,.089,0,0-.035.067-.018.111-.018H64a2.618,2.618,0,0,1,.533,0,.646.646,0,0,0,.2.035c.022.018.178.053.2,0-.044,0-.089,0-.089-.018.511.018.956.071,1.467.089.044,0,.067.018.111.018h.333c.111,0,.222-.018.244.035a7.807,7.807,0,0,0-.911,0,1.583,1.583,0,0,1-.289-.018h-.333c-.022,0-.022.018-.067.018,0,0,0-.018-.022-.018h-.2c-.044,0-.067.018-.111.018-.044-.035-.133-.018-.2-.018-.044-.018-.067-.053-.133-.035-.267,0-.289-.018-.578-.018,0-.018.067-.018.067-.035-.089.018-.244-.035-.289.018.044.018.156-.018.133.018-.089.018.044.035.022.071h-.578c-.044-.018-.067-.053-.133-.035a.98.98,0,0,1-.311-.018h-.822c-.044.035-.178,0-.222.035-.022-.053-.178,0-.244-.018h-.822c-.044,0-.067-.018-.111-.018-.044.053-.067-.018-.133.018-.067,0-.133,0-.133-.035a1.588,1.588,0,0,0,.311-.018h.2c.044.018.089-.071.111,0,.067,0,.067-.035.133-.018h.2c0-.053-.111-.018-.133-.018H61.02c-.111.035-.111,0-.2.018-.111-.035-.067.018-.178.018-.044-.035-.156-.018-.222-.018-.022.018-.022.053-.089.035-.044-.018-.022-.071-.089-.018-.044,0-.067-.018-.111-.018H58.886c.022-.018.022-.035-.022-.035-.867-.035-1.733.018-2.556-.035-.089-.018-.089.035-.178.018h-.756c-.044,0-.044-.018-.089-.018a.611.611,0,0,1-.089.018c-.022,0-.067-.018-.111-.018a4.913,4.913,0,0,0-.511,0,.6.6,0,0,1-.178,0c-.067-.018-.133.018-.2.018-.089-.018-.178.018-.311,0a.547.547,0,0,0-.244-.018c-.067-.035-.178-.018-.222-.071.378-.035.556,0,.889-.018.022-.018.022-.053.089-.035a1.038,1.038,0,0,1,.244.018h1.267c.044,0,.067.018.111.018.044-.035.133.018.244,0,.267-.035.511.053.8,0,.067-.018.044-.018.133,0h.333c.044-.018.111-.018.133-.035.022.053.067-.035.111.018a.011.011,0,1,1,.022,0h.089c.356-.018.8.035,1.133,0a.28.28,0,0,0,.133-.035c-.667,0-1.489-.018-2.022.018.022-.018.022-.035-.022-.035h-.4a.646.646,0,0,0-.2-.035c-.911.018-1.489.035-2.356.071-.044.018-.111.018-.133.035a1.324,1.324,0,0,0-.645.018c0-.053-.111-.018-.133-.018h-.178c-.044,0-.067.018-.111.018a.2.2,0,0,0-.111-.018c-.067,0-.067.035-.133.018-.244.018-.556-.018-.756.018-.089-.053-.133.018-.222-.018,0,.035-.067.018-.111.018-.022.018-.044.018-.089.018-.067.018-.067-.035-.133-.018a1.953,1.953,0,0,1-.578.035c-.067,0-.067.035-.133.018h-.178c-.044,0-.111-.018-.111.018-.044-.035-.178-.018-.289-.018a5.046,5.046,0,0,1-.756.018c-.044,0-.133.018-.178-.018-.178.053-.511,0-.711.035-.333,0-.422.035-.756.018-.267.053-.667-.018-.933.035a1.474,1.474,0,0,0-.4-.018c-.022,0-.022,0-.022.018.044,0,.022.035,0,0-.089.018-.089-.035-.178-.018a.011.011,0,1,1-.022,0C45.974,26.284,45.863,26.284,45.6,26.32Zm11.357-.23c0-.018.044-.018.089-.018h.089c0,.018-.044.018-.089.018Zm.222,0c-.022-.018.022-.035.022-.018C57.219,26.072,57.175,26.089,57.175,26.089Zm-3.978.089c.044-.018.022.018,0,0C53.174,26.178,53.174,26.142,53.2,26.178Zm20.335.053c0,.053-.067.053-.111.018C73.443,26.2,73.465,26.231,73.532,26.231Zm.867.053c-.022.018-.022.053-.022.089-.133-.035-.178.018-.289.071a.852.852,0,0,0-.311-.018c0-.018.044-.018.067-.018-.022-.035-.111-.018-.089-.089-.067,0-.111,0-.111-.071h.222a.1.1,0,0,0,.067-.018C74.043,26.266,74.221,26.249,74.4,26.284Zm-16.157,0c-.022.053-.156,0-.178.035a6.539,6.539,0,0,1-.845-.018c.044-.053.267.018.311-.035h.378C58.019,26.266,58.108,26.284,58.242,26.284Zm-1.133.018c-.022-.018.022-.035.022-.018C57.153,26.284,57.13,26.3,57.108,26.3Zm3.356.053c.044,0,.067.018.111.018C60.575,26.426,60.419,26.426,60.464,26.355Zm-.178.053c0-.018.044-.018.089-.018C60.375,26.408,60.331,26.408,60.286,26.408Zm.311,0c-.022-.018.022-.035.022-.018C60.642,26.39,60.62,26.408,60.6,26.408Zm14.046,0c-.022-.018.022-.035.022-.018C74.687,26.39,74.665,26.408,74.643,26.408Zm3.4,0c0-.018.044-.018.089-.018C78.132,26.408,78.088,26.408,78.043,26.408Zm.244,0c.022-.035.022,0,.022.018C78.266,26.426,78.243,26.408,78.288,26.408Zm-44.071.018c0-.018.044-.018.067-.018h.067A.3.3,0,0,1,34.217,26.426Zm.267-.018v.035c-.022,0-.044,0-.022.018h-.022c0,.018-.044.018,0,0C34.417,26.426,34.417,26.39,34.484,26.408Zm.044.018c.022-.053.089,0,.067.035.044-.018.044-.053.133-.035,0,.035-.111.106-.133.035C34.551,26.461,34.573,26.426,34.528,26.426Zm29.714,0c0-.018.044-.018.089-.018A.161.161,0,0,1,64.242,26.426Zm13.668-.018c.067-.018.044.035.067.071-.022,0-.022-.018-.067-.018Zm-43.159.035c0-.018,0-.018.022-.018.378-.018.867.018,1.267,0,.089-.018.111.035.2.018.111,0,.089-.018.178,0a2.684,2.684,0,0,0,.378,0c.089-.018.111.035.2.018h.178c.044-.018.156.018.133-.018a.412.412,0,0,0,.178.018c.089-.018.044.053.133.035.089.018.067-.035.111-.035.067.035.044,0,.111,0,.2.018.378-.018.578,0,.022,0,.022.018.022.018a.618.618,0,0,1,.222-.018c.111.018.267.018.378.035a1.707,1.707,0,0,1,.311-.018c.378.018.467,0,.822.018-.022.053-.133,0-.2.018-.022-.035-.022,0-.067,0h-.489c-.289.035-.6.035-.889.071H38s-.067-.035-.089-.018a.077.077,0,0,1-.089.018s-.044-.018-.022-.018c-.067,0-.156.053-.2,0a.853.853,0,0,0-.311.018c-.089.018-.067-.053-.111-.071-.022.018-.044.053-.067.018h-.133a.946.946,0,0,1-.244-.018c-.178.035-.267-.018-.422.018a1.643,1.643,0,0,0-.422-.018,2.689,2.689,0,0,0-.378,0c-.111-.018-.133.018-.222-.035a1.137,1.137,0,0,1-.489,0C34.862,26.444,34.839,26.444,34.751,26.444Zm25.8.195c-.067.053-.244,0-.333,0-.022-.053.156.018.133-.035-.044-.035-.2.018-.289.018,0-.018.022-.018.022-.035-.044,0-.067.018-.111.018a.611.611,0,0,1-.089-.018c-.111.018-.311-.035-.378.018-.044,0-.067-.018-.111-.018-.044.018-.178-.018-.178.018-.089-.018-.111-.053-.2-.018,0,.018.022.018.067.018,0,.018-.044.018-.089.018s-.089,0-.089-.035H58.8c.067-.053.089-.018.178-.035-.044-.053-.178,0-.222,0a2.438,2.438,0,0,0-.622,0,5.172,5.172,0,0,0-.578-.018c.067-.053.178-.018.244-.018.044,0,.089-.018.111-.018a.6.6,0,0,1,.133.018c.022,0,.022-.018.022-.018a.611.611,0,0,0,.089.018h.2a.611.611,0,0,0,.089-.018,2.684,2.684,0,0,1,.378,0c.044,0,.089-.018.111-.018a.611.611,0,0,1,.089.018.611.611,0,0,0,.089-.018c.044,0,.067.018.111.018a2.094,2.094,0,0,0,.333,0c.089.035-.156.018-.2.018,0,.053.111.018.178.018h.222a.611.611,0,0,0,.089-.018c.222.035.489.053.711.089,0,.035-.067.018-.111.018C60.464,26.621,60.508,26.638,60.553,26.638Zm17.535-.177c0-.035.067-.018.067,0C78.11,26.479,78.088,26.5,78.088,26.461ZM34.328,26.5c-.022-.018.022-.035.022-.018C34.373,26.479,34.35,26.5,34.328,26.5Zm25.336,0c-.022-.018.022-.035.022-.018C59.708,26.479,59.686,26.5,59.664,26.5Zm.067,0c0-.018.044-.018.067-.018A.1.1,0,0,0,59.731,26.5Zm1.222-.035c.089-.018.111.018.178.018C61.108,26.514,60.908,26.532,60.953,26.461Zm-4.156.159h.378c-.022.071-.2.018-.244.071a5.377,5.377,0,0,0-.756,0c0-.089.089.018.111-.035,0-.053-.111-.018-.178-.018-.067-.053-.089.018-.133-.018-.044,0-.067.018-.111.018h-.111c0-.018-.044-.035-.067,0-.067-.053-.111.035-.178-.018-.044.018-.133,0-.178.035-.222-.053-.622.018-.845-.035h-.467c0-.018.044-.018.089-.018h.356c.044,0,.067,0,.067-.035a.634.634,0,0,1,.178.035c.467,0,.733-.035,1.222-.018-.067-.053-.244,0-.333-.018.022-.089.222-.035.333-.035a.2.2,0,0,1,.111.018,1.355,1.355,0,0,1,.289-.018c.022.035.133,0,.067.071.067-.018.178-.035.2.035A.478.478,0,0,1,56.8,26.621Zm.067-.124h.178c0,.035-.067.018-.111.018C56.864,26.532,56.73,26.479,56.864,26.5Zm.4.018c-.022-.018.022-.035.022-.018C57.308,26.5,57.264,26.514,57.264,26.514Zm.089,0c-.022-.018.022-.035.022-.018Zm3-.018c.044.018.156-.018.133.018.111-.018,0,.071,0,0C60.442,26.5,60.353,26.532,60.353,26.5Zm.822.018c0-.053.111-.018.133-.018h.133c0,.053.044-.035.111,0h.133C61.6,26.568,61.331,26.514,61.175,26.514Zm1.622.035c-.022.053-.156.018-.178,0a3.311,3.311,0,0,1-.422,0c0-.018-.044-.018-.089-.018,0-.053.111-.018.178-.018a.536.536,0,0,1,.178.018V26.5c.067,0,.111,0,.111.035C62.642,26.5,62.686,26.55,62.8,26.55Zm.467-.035c-.067.089-.222,0-.4.018C62.975,26.444,63.109,26.532,63.264,26.514Zm.822,0c0-.018.044-.018.067-.018C64.153,26.514,64.109,26.5,64.086,26.514Zm-8.667.018c0-.018.044-.018.089-.018A.161.161,0,0,1,55.419,26.532Zm5.334-.018c0,.035-.044.053-.111.035C60.6,26.479,60.686,26.514,60.753,26.514Zm2,.018c0-.018.044-.018.067-.018C62.82,26.532,62.775,26.532,62.753,26.532Zm9.623.035c-.067-.053-.089.035-.178.018,0-.035,0-.053.022-.071.044,0,.044,0,.067-.018C72.376,26.5,72.4,26.514,72.376,26.568Zm.022-.053c.044.018.067.035.067.071C72.4,26.585,72.4,26.55,72.4,26.514Zm-18.313.035c0-.018.044-.018.089-.018A.161.161,0,0,1,54.086,26.55Zm.311-.018h.067C54.463,26.585,54.241,26.532,54.4,26.532Zm4.156,0c0,.071-.133.035-.222.035A.4.4,0,0,1,58.553,26.532Zm.044,0c.022,0,.022,0,.022.018.044,0,.2,0,.111.018C58.686,26.568,58.553,26.6,58.6,26.532Zm3.178.018s.067-.035.089-.018C61.864,26.55,61.731,26.585,61.775,26.55Zm.311-.018c0,.053-.111.035-.2.035C61.864,26.5,62.02,26.55,62.086,26.532Zm2.067.035c-.044.071-.089-.018-.178,0C64.02,26.479,64.064,26.568,64.153,26.568Zm3.378-.018c-.022-.018.022-.035.022-.018C67.576,26.55,67.531,26.55,67.531,26.55Zm-9.734.018c0-.018.044-.018.067-.018h.089c0,.018-.044.018-.067.018Zm.178,0c-.022-.018.022-.035.022-.018C58.019,26.568,57.975,26.585,57.975,26.568Zm.111,0c-.022-.018.022-.035.022-.018C58.13,26.568,58.086,26.585,58.086,26.568Zm6.667-.018c0,.018-.044.018-.067.018-.067-.018-.044.035-.089.035s-.067-.018-.111-.018c-.133-.018-.267.035-.311,0,0-.018.044-.053.067-.018A4.319,4.319,0,0,1,64.753,26.55ZM74,26.568c0-.018.089-.035.111-.018A.068.068,0,0,1,74,26.568Zm-20.091.018c-.022-.018.022-.035.022-.018C53.952,26.585,53.908,26.6,53.908,26.585Zm6.734,0c0-.018.044-.018.067-.018H60.8c0,.018-.044.018-.067.018Zm4.356,0c-.022-.018.022-.035.022-.018C65.042,26.585,65.02,26.6,65,26.585Zm.067,0c.022-.035.222-.018.244,0-.022.035-.111.018-.178.035A.338.338,0,0,1,65.064,26.585Zm11.645,0a.011.011,0,1,1,.022,0C76.732,26.621,76.71,26.6,76.71,26.585Zm-18.579.035c0,.018-.111.035-.178.018S58.13,26.585,58.13,26.621Zm.378-.035c-.022.071-.222.035-.333.035-.022-.035.133-.071.133-.018C58.375,26.6,58.419,26.585,58.508,26.585Zm.089.035c0-.018.044-.018.089-.018H58.8c0,.018-.044.018-.089.018Zm.711-.035h.067c.022.053-.044.035-.089.035C59.286,26.621,59.308,26.621,59.308,26.585Zm7.6.035c0-.018.044-.018.089-.018A.161.161,0,0,1,66.909,26.621ZM53.4,26.638c-.044-.053.178,0,.178,0a.2.2,0,0,1,.178,0c.133-.035.156,0,.311,0h.378c0,.053-.111.018-.178.018h-.178a3.919,3.919,0,0,1-.911,0h-.511c-.111,0-.044-.035.022-.018H53.4Zm4.067,0c0-.018.044-.018.067-.018A.1.1,0,0,1,57.464,26.638Zm.333,0c-.022-.018.022-.035.022-.018C57.841,26.621,57.8,26.638,57.8,26.638Zm-3.289.018c-.022-.018.022-.035.022-.018C54.552,26.638,54.508,26.656,54.508,26.656Zm10.245,0c-.022.053-.133,0-.2.018h-.311c0-.071.222-.053.289-.018A.469.469,0,0,1,64.753,26.656Zm2.356,0c0,.035-.089,0-.089.035-.111,0-.2.053-.222-.035C66.909,26.674,67.02,26.6,67.109,26.656Zm-3.067.018c0-.018.044-.018.067-.018A.1.1,0,0,1,64.042,26.674Zm4.734-.018c0,.053-.089.035-.178.035-.133.018-.067-.035.022-.018S68.687,26.638,68.776,26.656Zm-13.535.053c-.022-.018.022-.035.022-.018C55.286,26.692,55.241,26.709,55.241,26.709Zm13.935-.035h.178c.022.071-.111.035-.178.035Zm.956.035c-.022.053-.156,0-.222.018h-.222c-.022-.089.156-.018.222-.035C70.02,26.656,70.043,26.709,70.131,26.709Zm.089,0c.022-.035.022,0,.022.018C70.2,26.727,70.2,26.709,70.22,26.709Zm5.334.035a.128.128,0,0,1-.133.018C75.4,26.762,75.488,26.709,75.554,26.745Zm-.533.089c-.067.053-.178-.053-.2.035-.022-.035-.133,0-.133-.035-.067,0-.044.053-.111.035,0-.035.022-.053.022-.071a.767.767,0,0,0-.378.071,1.038,1.038,0,0,0-.244.018c-.089.018-.089-.035-.133-.035a.946.946,0,0,1-.244-.018c-.089-.018-.067.035-.133.018h-.2c-.022,0-.044-.018-.022-.018-.022,0-.044.018-.067.018a.342.342,0,0,1-.2-.018h-.111c-.044,0-.111,0-.067-.018h.511c.111.018.178-.035.222,0,.044,0,.067-.018.111-.018.222-.018.533.018.711-.018a.2.2,0,0,1,.111.018,2.921,2.921,0,0,1,.689-.018c.089.018.089-.035.2-.018-.044.071,0,.106-.022.142-.067-.035-.089-.035-.067-.106-.067.018-.178-.018-.2.018.044,0,.044.035.089.018.022.035-.133.035-.089-.018C75.021,26.816,75.021,26.816,75.021,26.833Zm.333-.071c-.022-.018.022-.035.022-.018C75.4,26.762,75.354,26.762,75.354,26.762Zm.467.018c.022-.035.089-.053.178-.035h.111c0,.018-.044.018-.089.018C75.932,26.762,75.865,26.833,75.821,26.78Zm-.178.071c-.067-.018-.2.035-.178-.035.022,0,.067,0,.067.018.044,0,.022-.053.067-.018.022,0,.022-.018.022-.035a.194.194,0,0,1,.111.035c.044,0,.022.035,0,0C75.688,26.816,75.621,26.8,75.643,26.851ZM80.4,26.78c0-.018.044-.018.067-.018C80.466,26.78,80.421,26.78,80.4,26.78Zm-9.468.018c-.022.071-.178.035-.289.035-.022-.053.133.018.111-.035Zm.067.035c.067-.053.244,0,.378-.018,0,.053-.111.018-.133.018,0,.035-.067.018-.111.018C71.043,26.851,71.043,26.816,71,26.833Zm.511-.035a.1.1,0,0,1,.067.018c.244-.053.378.018.6-.018.022.071-.067.035-.111.035h-.178c-.067-.018-.067.018-.111.018C71.643,26.816,71.532,26.922,71.509,26.8Zm1.178,0c0,.035-.044.053-.111.035C72.554,26.78,72.643,26.816,72.687,26.8Zm-3.2.053c-.022-.018.022-.035.022-.018C69.531,26.833,69.487,26.851,69.487,26.851Zm.044,0c-.022-.018.022-.035.022-.018C69.576,26.833,69.554,26.851,69.531,26.851Zm.244,0c0-.035.178-.035.133.018C69.843,26.886,69.843,26.833,69.776,26.851Zm6.223,0c0-.018.044-.018.089-.018H76.2c0,.018-.044.018-.089.018Zm.244,0c0-.018.044-.018.089-.018h.089c0,.018-.044.018-.089.018Zm.244,0c-.022-.018.022-.035.022-.018C76.532,26.833,76.51,26.851,76.488,26.851Zm-5.667.035c0-.035.022,0,.022,0h.444c.044.018,0,.018-.022.018h-.6c-.089,0-.178.018-.222-.018h.378Zm2.378,0c.022-.071.089.018.133,0C73.31,26.957,73.243,26.886,73.2,26.886Zm.289,0c0-.018.044-.018.089-.018A.161.161,0,0,1,73.487,26.886Zm.111,0c0-.018.044-.018.067-.018h.089c0,.018-.044.018-.067.018Zm-2.245.018c0-.018.044-.018.089-.018h.289c0,.018-.044.018-.089.018h-.289Zm.689,0c-.022-.018.022-.035.022-.018C72.087,26.9,72.043,26.922,72.043,26.9Zm.089,0c0-.018.044-.018.089-.018C72.2,26.922,72.154,26.9,72.132,26.9Zm.267,0c0-.018.044-.018.089-.018h.645c0,.053-.111.018-.178.018H72.4Zm1.022,0c-.022-.018.022-.035.022-.018C73.465,26.9,73.443,26.922,73.421,26.9Zm-14.046.106c.022-.035.089-.035.133-.035a1.569,1.569,0,0,0,.289,0,.011.011,0,1,0,.022,0c.022,0,.022.035.067.035.022-.053.022.018.022.018.044.018.133-.018.2,0H60.2c0,.018-.044.018-.067.018h-.2c-.044-.018-.156.018-.133-.018a.148.148,0,0,1-.133.018C59.575,27.046,59.508,27.011,59.375,27.011Zm-1.356,0c-.022-.018.022-.035.022-.018C58.064,27.011,58.042,27.028,58.019,27.011Zm13.29.053c-.022-.071.111-.035.178-.035h.222v.018a.366.366,0,0,1,.2-.018c.067.018.022,0,.089,0a.611.611,0,0,1,.089.018c.022,0,.044-.018.067-.018.133-.018.2.018.311,0h.089c.022,0,.022.018.022.018.022,0,.178-.053.178.035a2.1,2.1,0,0,1-.333-.018h-.689v-.018C71.576,27.064,71.487,27.046,71.309,27.064Zm-13.023,0c0-.018.044-.018.067-.018,0,.018,0,.018.022.018.044,0,.044-.018.089-.018.067,0,.067.035.133.018h.222c.044.018.178-.018.178.018h-.911c-.022,0-.022-.018,0-.018Zm.956,0c-.022-.018.022-.035.022-.018C59.286,27.046,59.242,27.064,59.242,27.064Zm13.668.018c-.022-.018.022-.035.022-.018C72.954,27.064,72.932,27.081,72.909,27.081ZM55.952,27.1c0-.018.044-.018.067-.018C56.019,27.1,55.975,27.1,55.952,27.1Zm.089,0c0-.018.044-.018.089-.018A.161.161,0,0,1,56.041,27.1Zm.133,0c0-.018.044-.018.067-.018C56.241,27.1,56.2,27.1,56.175,27.1Zm.089,0c-.022-.018.022-.035.022-.018C56.308,27.1,56.264,27.117,56.264,27.1Zm.133.018c-.022-.018.022-.035.022-.018C56.441,27.117,56.419,27.135,56.4,27.117Zm.467,0c0-.018.044-.018.089-.018h.089c0,.018-.044.018-.089.018Zm19.4.106c-.022-.018.022-.035.022-.018C76.31,27.223,76.265,27.241,76.265,27.223Zm.533,0c0-.018.044-.018.067-.018h.089c0,.018-.044.018-.067.018Zm.467,0c-.022-.018.022-.035.022-.018C77.31,27.223,77.265,27.241,77.265,27.223Zm.2-.018c.044.035.2,0,.2.089-.133.018-.178-.035-.289,0C77.354,27.241,77.488,27.276,77.465,27.205Zm-1.022.053c-.022-.018.022-.035.022-.018C76.488,27.241,76.443,27.259,76.443,27.259Zm1.533,0c-.022-.018.022-.035.022-.018Zm.311.035c.067-.053.2-.089.222,0,.044,0,.022-.053.067-.071.022.018.178.053.2,0,.067.053.244,0,.311.035-.022.053-.156,0-.178.035h-.178a.127.127,0,0,1-.089-.035c-.044.018-.044.053-.133.035v-.018A1.039,1.039,0,0,1,78.288,27.294Zm.978-.035c0-.018.044-.018.067-.018C79.332,27.259,79.288,27.241,79.266,27.259Zm-3.378.018c-.022-.018.022-.035.022-.018C75.932,27.259,75.91,27.276,75.888,27.276Zm.689,0c0-.018.044-.018.067-.018C76.643,27.276,76.6,27.276,76.576,27.276Zm1.445,0c-.022.053-.133,0-.2.018-.044,0-.2,0-.111-.018C77.8,27.223,77.91,27.276,78.021,27.276Zm.067,0c0-.018.044-.018.067-.018A.1.1,0,0,1,78.088,27.276Zm.111,0c0-.018.044-.018.067-.018A.1.1,0,0,1,78.2,27.276Zm3.689,0c.022-.035.022,0,.067,0C81.933,27.294,81.888,27.294,81.888,27.276Zm-4.778.018c-.022-.018.022-.035.022-.018C77.154,27.276,77.132,27.294,77.11,27.294Zm.111,0c0-.018.044-.018.067-.018C77.288,27.294,77.243,27.294,77.221,27.294Zm1.889,0c0-.018.044-.018.089-.018A.161.161,0,0,1,79.11,27.294Zm-3.267.018c0-.018.044-.018.067-.018A.1.1,0,0,1,75.843,27.312ZM76,27.294a.127.127,0,0,1-.089.035A.127.127,0,0,1,76,27.294Zm3.489.177c0,.053-.111.018-.178.018-.289-.018-.511.018-.8,0h-.067c-.022-.018-.044,0-.178,0-.044,0-.089-.018-.111-.018-.044,0-.044.018-.089.018-.022,0-.044-.018-.067-.018-.044,0-.089.018-.178.018a1.82,1.82,0,0,0-.311,0,2.008,2.008,0,0,0-.578-.035c0-.018.022-.018.022-.018a.127.127,0,0,1,.089-.035.048.048,0,0,0,.067,0,1.379,1.379,0,0,0,.2.035c.089,0,.2-.018.244.018,0-.035.067-.018.111-.018h.111C78.332,27.489,79.021,27.4,79.488,27.471Zm-2.778-.053c0-.018.044-.018.067-.018C76.777,27.418,76.732,27.418,76.71,27.418Zm.2-.018h.067v.035H76.91Zm2.622.071c.022-.071.067.018.111,0C79.643,27.524,79.555,27.471,79.532,27.471Zm-52.294,0c-.044.035-.044.106-.089.124-.089.018-.089-.053-.089-.106A.2.2,0,0,1,27.239,27.471Zm52.96.018c0-.018.044-.018.067-.018C80.266,27.489,80.221,27.489,80.2,27.489ZM27.083,27.7c0,.053-.133,0-.133.035-.089-.035-.133.018-.267,0-.044-.089.178,0,.178-.071C26.95,27.7,26.994,27.666,27.083,27.7Zm53.694.213a2.077,2.077,0,0,0-.489-.035.723.723,0,0,0-.333-.018c0-.018-.044-.018-.067-.018.044-.089.244.018.4-.018.067-.018.067.035.133.018.044,0,.111-.018.111.018C80.644,27.843,80.777,27.843,80.777,27.914Zm.044-.106c-.022-.018.022-.035.022-.018C80.866,27.79,80.844,27.808,80.821,27.808Zm-1.156.018c0-.018.044-.018.067-.018C79.732,27.825,79.688,27.825,79.666,27.825Zm-25.158.018c0-.035.067-.018.067,0C54.53,27.861,54.508,27.879,54.508,27.843Zm0,.071c-.022-.018.022-.035.022-.018C54.552,27.9,54.508,27.914,54.508,27.914Zm-29.114.213a.026.026,0,0,1,.044-.018A.085.085,0,0,1,25.394,28.127Zm53.916.089c0,.053-.067.053-.111.018a.9.9,0,0,0-.2.071,2.553,2.553,0,0,0-.4-.018c-.044,0-.044-.018-.067-.035A2.741,2.741,0,0,1,79.31,28.215Zm.311.053c0,.089-.178.018-.244.035h-.311c0-.035.089,0,.089-.035.089.018.067,0,.133.018.067-.018.067,0,.178-.018C79.488,28.268,79.577,28.215,79.621,28.268Zm.244.018c-.067-.053-.111.018-.222,0C79.643,28.251,79.866,28.215,79.866,28.286ZM81,28.357c-.022-.018.022-.035.022-.018C81.044,28.339,81,28.357,81,28.357Zm-55.072.035c-.022-.018.022-.035.022-.018C25.972,28.392,25.95,28.41,25.928,28.392Zm55.449.531c.089-.018.089.035.178.018C81.51,28.977,81.355,29.03,81.377,28.924Zm-.933.053c0-.018.044-.018.067-.018H80.6c0,.018-.044.018-.067.018Zm.467,0c-.022-.018.022-.035.022-.018C80.955,28.959,80.932,28.977,80.91,28.977Zm.111,0c0-.018.044-.018.067-.018C81.088,28.977,81.044,28.959,81.021,28.977Zm.089,0c0-.018.044-.018.067-.018C81.177,28.977,81.132,28.959,81.11,28.977Zm.467.106c-.022-.018.022-.035.022-.018C81.621,29.066,81.577,29.083,81.577,29.083Zm1.756.124c-.022.089-.222.035-.333.035a3.373,3.373,0,0,0-.444-.018c-.022,0-.022.035-.022.071-.067.018-.044-.035-.067-.071-.111-.018-.089.053-.178.035-.2-.018-.4-.053-.622-.071v-.071c-.067,0-.044.053-.111.035,0-.053.022-.071.089-.071.044.018.156-.018.133.018.022-.018.067-.035.089-.071.022,0,.022,0,.022.018.044.018.178-.018.178.018.022-.053.2.018.222-.035a1.716,1.716,0,0,0,.333.018c.044,0,.044.018.089.018h.244c.111.018.111.053.222.018C83.177,29.207,83.288,29.19,83.333,29.207Zm-1.867-.053c-.022-.018.022-.035.022-.018C81.51,29.154,81.466,29.172,81.466,29.154ZM24.794,30.377c0-.018.044-.018.067-.018C24.861,30.377,24.816,30.377,24.794,30.377Zm59.139.213c-.067-.018-.044.035-.089.035H83.51a.852.852,0,0,0-.311-.018c-.044-.018-.111-.018-.178-.035s-.289-.035-.422-.071c.089-.071.2,0,.311-.035.133.035.222-.018.4,0,0-.053-.111-.018-.178-.018h-.178a1.27,1.27,0,0,0-.378-.018.127.127,0,0,1,.089-.035c.333.018.733.018,1.089.035V30.5C83.888,30.465,83.91,30.518,83.933,30.589Zm-31.692-.124c-.022-.018.022-.035.022-.018C52.285,30.448,52.241,30.465,52.241,30.465Zm31.825.159c0-.018.044-.018.067-.018C84.133,30.625,84.088,30.625,84.066,30.625Zm-1.333.053c.044-.053.222,0,.311-.018.022.071-.089.035-.133.035A.536.536,0,0,1,82.733,30.678Zm.333.018c0-.018.044-.018.067-.018h.089c0,.018-.044.018-.067.018Zm-58.227.815c-.022-.018.022-.035.022-.018C24.883,31.51,24.839,31.528,24.839,31.51Zm.089,0c0-.018.044-.018.067-.018A.1.1,0,0,1,24.927,31.51Zm56.027,2.055c-.022.071-.111.035-.178.018-.111-.018-.133.053-.2,0h-.489c-.044,0-.067-.018-.111-.018-.022-.018-.022-.053-.089-.035-.356,0-.756.018-1.089-.018-.067.035-.311-.053-.378,0-.044.053-.089-.053-.133,0a.077.077,0,0,1-.089.018c-.044,0-.067-.035-.178-.018,0,0-.022.035-.022.018a1.7,1.7,0,0,0-.6,0h-.111c-.044-.035-.089,0-.178,0a.611.611,0,0,0-.089-.018s0,.018-.022.018c-.133,0-.444,0-.6-.018-.044,0-.067.018-.111.018s-.089-.018-.133-.018c-.111.018-.267-.018-.444,0h-.489a1.708,1.708,0,0,0-.311-.018c0,.053-.044-.035-.111,0-.267,0-.556,0-.8.018-.022-.089.156-.018.222-.035h.244a4.117,4.117,0,0,0,.489-.018c.244.035.333,0,.578.018a.853.853,0,0,1,.311.018c.067-.071.2.053.244-.018.111-.018.2.053.333.018.022,0,.044-.035.089-.018a4.529,4.529,0,0,0,.533.018c.067,0,.067-.018.111-.018a.611.611,0,0,0,.089.018c.289,0,.689.018,1.022,0,.089,0,.156-.018.222-.018h.089s.044.018.022.018c.044,0,.044-.018.089-.018.067,0,.156.018.222.018a.053.053,0,0,1,.067-.018s0,.018.022.018a.927.927,0,0,0,.222,0c.022-.018.022,0,.089,0h.511A7.706,7.706,0,0,1,80.955,33.566ZM70.42,33.495c0-.018.044-.018.089-.018H70.8c0,.018-.044.018-.089.018H70.42Zm.511.018c0-.035.067-.018.111-.018s.044-.018.089-.018c.244.018.511,0,.756,0,.067,0,.133.018.2.018.556.035,1.111-.053,1.667-.018h.178c.044.018-.022.018-.067.018-.556.053-1.289-.018-1.845.035C71.709,33.495,71.287,33.53,70.932,33.512Zm-7.49.053c0-.035.067-.018.067,0C63.464,33.566,63.442,33.583,63.442,33.566Zm15.557,0c-.022-.018.022-.035.022-.018Zm-15.046.018c-.022-.018.022-.035.022-.018C64,33.566,63.953,33.583,63.953,33.583Zm-37.626.035c0-.018.044-.018.067-.018h.067C26.439,33.636,26.372,33.619,26.328,33.619Zm51.093.018c0-.018.044-.018.067-.018C77.488,33.636,77.443,33.636,77.421,33.636Zm.2-.018a.2.2,0,0,0,.111.018C77.754,33.672,77.577,33.672,77.621,33.619Zm-2.489.053c-.022-.018.022-.035.022-.018C75.176,33.654,75.132,33.672,75.132,33.672Zm1.133,0c-.022-.018.022-.035.022-.018C76.31,33.654,76.265,33.672,76.265,33.672Zm-13.157.018c-.022-.018.022-.035.022-.018C63.153,33.672,63.109,33.69,63.109,33.69Zm14.223-.018a.127.127,0,0,1-.089.035C77.243,33.654,77.288,33.672,77.332,33.672Zm1.111.018c-.022-.018.022-.035.022-.018C78.488,33.672,78.466,33.69,78.443,33.69Zm-30.425.018c-.022-.018.022-.035.022-.018C48.063,33.69,48.018,33.707,48.018,33.707Zm15.868,0c-.022-.018.022-.035.022-.018C63.931,33.69,63.909,33.707,63.886,33.707Zm.467-.018a.127.127,0,0,1-.089.035A.127.127,0,0,1,64.353,33.69Zm.489.018c0-.018.044-.018.089-.018A.161.161,0,0,1,64.842,33.707Zm12.334,0c0-.018.044-.018.067-.018A.1.1,0,0,1,77.177,33.707Zm2.378,0c0-.035.067-.018.111-.018.022.053-.044.035-.067.071C79.577,33.743,79.6,33.707,79.555,33.707Zm-19.068.018c0-.018.044-.018.067-.018C60.553,33.725,60.508,33.725,60.486,33.725Zm1.045,0c-.022-.018.022-.035.022-.018C61.575,33.725,61.553,33.725,61.531,33.725Zm3.489,0c.133-.018.022.071,0,0C64.887,33.743,65,33.654,65.02,33.725Zm4.267,0a.011.011,0,1,1,.022,0A.011.011,0,1,1,69.287,33.725Zm8.4,0c0-.018.044-.018.067-.018A.1.1,0,0,1,77.688,33.725Zm2.178,0c0-.018.044-.018.089-.018C79.955,33.725,79.91,33.725,79.866,33.725Zm.133,0c0-.018.044-.018.067-.018C80.066,33.725,80.021,33.725,80,33.725Zm-15.157.018c0-.018.044-.018.067-.018A.1.1,0,0,1,64.842,33.743Zm9.668,0c-.022-.018.022-.035.022-.018C74.554,33.743,74.51,33.76,74.51,33.743Zm4.934,0a.011.011,0,1,1,.022,0C79.466,33.778,79.443,33.76,79.443,33.743Zm.733-.018a.127.127,0,0,1-.089.035C80.088,33.725,80.132,33.725,80.177,33.725Zm-7.067.018c.022.124-.156-.018-.178.089-.044,0-.044-.035-.089-.035a.16.16,0,0,0-.089.071c-.044,0-.044-.018-.089-.018-.067.018-.378.071-.333-.071a.927.927,0,0,0,.222,0c0,.018-.022.018-.022.035,0,.053.067-.035.133,0,.022,0,.022-.018.022-.035C72.887,33.778,72.954,33.743,73.11,33.743Zm5.845.035c-.022-.018.022-.035.022-.018C79,33.76,78.977,33.778,78.954,33.778Zm.933,0c0-.018.044-.018.089-.018C79.977,33.778,79.932,33.76,79.888,33.778Z" transform="translate(-23.792 -25.979)" fill="#fff100"/>
</svg>
