<svg id="Groupe_88" data-name="Groupe 88" xmlns="http://www.w3.org/2000/svg" width="485.849" height="18.602" viewBox="0 0 485.849 18.602">
  <path id="Tracé_1" data-name="Tracé 1" d="M.012.063C-.032.018.057-.026.057.018.1.018.057.063.012.063Z" transform="translate(233.991 0)" fill="#fff100"/>
  <path id="Tracé_2" data-name="Tracé 2" d="M.11.007H.244C.244.14-.2-.037.11.007Z" transform="translate(232.818 0.055)" fill="#fff100"/>
  <path id="Tracé_3" data-name="Tracé 3" d="M.222,0C.222.089.133.133,0,.089,0,.044.089,0,.222,0Z" transform="translate(21.498 0.374)" fill="#fff100"/>
  <path id="Tracé_4" data-name="Tracé 4" d="M.063,0c.089.089.266.044.4.044C.418.133.329.178.24.089.152.133.2.266.018.178-.026.089.018.089.063,0Z" transform="translate(19.571 0.418)" fill="#fff100"/>
  <path id="Tracé_5" data-name="Tracé 5" d="M.266,0C.266.133.133.133,0,.089.044.044.178.044.266,0Z" transform="translate(20.077 0.418)" fill="#fff100"/>
  <path id="Tracé_6" data-name="Tracé 6" d="M0,.044C0,0,.089,0,.133,0,.133.044.044.044,0,.044Z" transform="translate(20.743 0.418)" fill="#fff100"/>
  <path id="Tracé_7" data-name="Tracé 7" d="M0,.061C.044-.072.311.061.444.017.577.017.621.105.8.061.755.15.488.15.355.15.178.194.222.017,0,.061Z" transform="translate(18.701 0.446)" fill="#fff100"/>
  <path id="Tracé_8" data-name="Tracé 8" d="M0,0C.133.089.4.044.621.044.577.222,0,.266,0,0Z" transform="translate(99.403 0.462)" fill="#fff100"/>
  <path id="Tracé_9" data-name="Tracé 9" d="M.012.063C-.032.018.057-.026.057.018.1.018.012.063.012.063Z" transform="translate(15.182 0.533)" fill="#fff100"/>
  <path id="Tracé_10" data-name="Tracé 10" d="M.758.031C.714.164.4.031.359.209.315.076-.041.253,0,.031.315.076.625-.058.758.031Z" transform="translate(16.744 0.564)" fill="#fff100"/>
  <path id="Tracé_11" data-name="Tracé 11" d="M0,.039c.044-.089.044,0,.133,0C.089.084,0,.084,0,.039Z" transform="translate(21.542 0.556)" fill="#fff100"/>
  <path id="Tracé_12" data-name="Tracé 12" d="M0,.044C0,0,.089,0,.133,0,.089.044.044,0,0,.044Z" transform="translate(22.741 0.551)" fill="#fff100"/>
  <path id="Tracé_13" data-name="Tracé 13" d="M0,.044C0,0,.089,0,.133,0,.133.044.044,0,0,.044Z" transform="translate(24.295 0.551)" fill="#fff100"/>
  <path id="Tracé_14" data-name="Tracé 14" d="M0,.044C0,0,.089,0,.133,0A.219.219,0,0,1,0,.044Z" transform="translate(10.001 0.595)" fill="#fff100"/>
  <path id="Tracé_15" data-name="Tracé 15" d="M3.374.133c-.044.133-.266,0-.4.044-.044.089-.044,0-.133,0H2.619A3.828,3.828,0,0,1,1.864.133H1.287C1.154.089.888.178.843.089.71.133.488.178.4.089c-.133.133-.222,0-.4,0C.044,0,.222.044.355,0h.4c.311.044.355,0,.621.044h.488C2.042,0,2,.133,2.131.089a2.1,2.1,0,0,1,.755.044C3.2.133,3.2.044,3.374.133Z" transform="translate(10.223 0.595)" fill="#fff100"/>
  <path id="Tracé_16" data-name="Tracé 16" d="M1.6.114c-.311,0-.533.044-.977.044A.989.989,0,0,1,0,.159C.089.026.4.159.488.07h.577c.044,0,.044,0,.044-.044C1.287.07,1.642-.108,1.6.114Z" transform="translate(15.017 0.57)" fill="#fff100"/>
  <path id="Tracé_17" data-name="Tracé 17" d="M.012.063C-.032.018.057-.026.057.018.1.018.057.063.012.063Z" transform="translate(20.154 0.577)" fill="#fff100"/>
  <path id="Tracé_18" data-name="Tracé 18" d="M.012.063C-.032.018.057-.026.057.018.1.018.057.063.012.063Z" transform="translate(20.775 0.577)" fill="#fff100"/>
  <path id="Tracé_19" data-name="Tracé 19" d="M.012.063C-.032.018.057-.026.057.018.1.018.057.063.012.063Z" transform="translate(20.997 0.577)" fill="#fff100"/>
  <path id="Tracé_20" data-name="Tracé 20" d="M0,.044C0,0,.089,0,.178,0,.178.044.089.044,0,.044Z" transform="translate(22.43 0.595)" fill="#fff100"/>
  <path id="Tracé_21" data-name="Tracé 21" d="M.167,0C.255.133.522-.133.522.178A1.888,1.888,0,0,1,.033.266C-.1.044.211.178.167,0Z" transform="translate(13.74 0.64)" fill="#fff100"/>
  <path id="Tracé_22" data-name="Tracé 22" d="M.012.063C-.032.018.057-.026.057.018.1.063.057.107.012.063Z" transform="translate(14.649 0.666)" fill="#fff100"/>
  <path id="Tracé_23" data-name="Tracé 23" d="M.012.063C-.032.018.057-.026.057.018.1.063.012.107.012.063Z" transform="translate(14.383 0.71)" fill="#fff100"/>
  <path id="Tracé_24" data-name="Tracé 24" d="M0,.07c0-.178.222.044,0,0Z" transform="translate(11.954 0.881)" fill="#fff100"/>
  <path id="Tracé_25" data-name="Tracé 25" d="M.4.007A.6.6,0,0,1,0,.1C0-.037.266.007.4.007Z" transform="translate(11.554 0.944)" fill="#fff100"/>
  <path id="Tracé_26" data-name="Tracé 26" d="M.012.063C-.032.018.057-.026.057.018.1.063.012.107.012.063Z" transform="translate(13.318 0.932)" fill="#fff100"/>
  <path id="Tracé_27" data-name="Tracé 27" d="M0,.044C0,0,.089,0,.133,0A.163.163,0,0,1,0,.044Z" transform="translate(12.487 0.995)" fill="#fff100"/>
  <path id="Tracé_28" data-name="Tracé 28" d="M.012.063C-.032.018.057-.026.057.018.1.063.012.107.012.063Z" transform="translate(12.74 0.977)" fill="#fff100"/>
  <path id="Tracé_29" data-name="Tracé 29" d="M.577,0c0,.044,0,.133.133.089C.71.222.577.222.444.178.355.266.089.355,0,.266,0,.222.089.222.178.222a.837.837,0,0,1,.4-.178C.533.044.444,0,.577,0Z" transform="translate(10.977 1.039)" fill="#fff100"/>
  <path id="Tracé_30" data-name="Tracé 30" d="M0,.044C0,0,.089,0,.133,0,.133.044.044,0,0,.044Z" transform="translate(12.176 1.084)" fill="#fff100"/>
  <path id="Tracé_31" data-name="Tracé 31" d="M.4,0A.563.563,0,0,1,0,.178C0-.044.266.044.4,0Z" transform="translate(10.755 1.128)" fill="#fff100"/>
  <path id="Tracé_32" data-name="Tracé 32" d="M0,.044C0,0,.089,0,.133,0H.311C.311.044.222.044.178.044Z" transform="translate(11.865 1.128)" fill="#fff100"/>
  <path id="Tracé_33" data-name="Tracé 33" d="M.893.007A.255.255,0,0,1,.626.185C.582.185.582.273.582.362.36.362.227.451,0,.451-.039.185.227.273.271.14.538.14.626-.037.893.007Z" transform="translate(9.197 1.165)" fill="#fff100"/>
  <path id="Tracé_34" data-name="Tracé 34" d="M0,.073C0-.06.222.029.266.029H.533C.533.162.311.073.266.073Z" transform="translate(153.033 1.144)" fill="#fff100"/>
  <path id="Tracé_35" data-name="Tracé 35" d="M0,.044C0,0,.089,0,.133,0,.133.044.044.044,0,.044Z" transform="translate(155.24 1.173)" fill="#fff100"/>
  <path id="Tracé_36" data-name="Tracé 36" d="M0,.044C0,0,.089,0,.133,0A.163.163,0,0,1,0,.044Z" transform="translate(157.977 1.173)" fill="#fff100"/>
  <path id="Tracé_37" data-name="Tracé 37" d="M.094,0H.449C.449.089.316.044.227.044.094.089-.128,0,.094,0Z" transform="translate(150.365 1.217)" fill="#fff100"/>
  <path id="Tracé_38" data-name="Tracé 38" d="M0,.073C0-.06.222.029.266.029H.621c.044,0,.133,0,.133.044H.577C.355.029.089.162,0,.073Z" transform="translate(147.051 1.232)" fill="#fff100"/>
  <path id="Tracé_39" data-name="Tracé 39" d="M.755.029C.755.162.533.073.4.073H0C0-.06.222.029.355.029Z" transform="translate(144.132 1.277)" fill="#fff100"/>
  <path id="Tracé_40" data-name="Tracé 40" d="M0,.033c0-.044.044-.044.044,0S0,.033,0,.033Z" transform="translate(9.867 1.406)" fill="#fff100"/>
  <path id="Tracé_41" data-name="Tracé 41" d="M0,.178C0,.089.089.089.133,0H.71C.71.044.621.044.577.044H.222C.133.089.178.266,0,.178Z" transform="translate(140.488 1.35)" fill="#fff100"/>
  <path id="Tracé_42" data-name="Tracé 42" d="M.012.063C-.032.018.057-.026.057.018.1.018.057.063.012.063Z" transform="translate(143.166 1.376)" fill="#fff100"/>
  <path id="Tracé_43" data-name="Tracé 43" d="M0,.044C0,0,.089,0,.178,0A.267.267,0,0,1,0,.044Z" transform="translate(20.477 1.439)" fill="#fff100"/>
  <path id="Tracé_44" data-name="Tracé 44" d="M0,.044C0,0,.089,0,.133,0A.163.163,0,0,1,0,.044Z" transform="translate(20.921 1.439)" fill="#fff100"/>
  <path id="Tracé_45" data-name="Tracé 45" d="M0,0H.133V.089H0Z" transform="translate(21.898 1.439)" fill="#fff100"/>
  <path id="Tracé_46" data-name="Tracé 46" d="M.11.007H.244C.244.14-.2-.037.11.007Z" transform="translate(22.275 1.432)" fill="#fff100"/>
  <path id="Tracé_47" data-name="Tracé 47" d="M0,.044C0,0,.089,0,.178,0A.267.267,0,0,1,0,.044Z" transform="translate(22.741 1.483)" fill="#fff100"/>
  <path id="Tracé_48" data-name="Tracé 48" d="M.222.029C.178.118.089.162,0,.074,0-.015.133-.015.222.029Z" transform="translate(8.802 1.543)" fill="#fff100"/>
  <path id="Tracé_49" data-name="Tracé 49" d="M171.853.68H170.8c-.35,0-.526.071-.7,0H163.27a3.6,3.6,0,0,0-.7-.035h-4.554c-.7-.071-.876.035-1.752,0h-1.927a10.429,10.429,0,0,0-1.051-.035c-.876.035-1.051,0-2.277,0-2.452.035-4.2-.071-6.656-.035-.35,0-.526-.035-.876-.035h-1.752c-.35,0-.526-.035-.876-.035a15.757,15.757,0,0,1-1.927-.035,2.679,2.679,0,0,0,.7-.035C135.944.4,131.915.467,128.587.4c-.35,0-.525.035-.876.035A5.91,5.91,0,0,0,126.835.4h-1.927a12.867,12.867,0,0,1-1.752-.035A3.04,3.04,0,0,0,124.207.29c-.876-.035-1.226.035-1.927.035H117.9c-.35-.035-.7.142-.876,0,0-.071.7,0,.7-.071-1.577-.035-2.8.035-4.029.071A15.756,15.756,0,0,1,111.771.29c.526,0,1.051-.035,1.4-.071-2.277-.071-5.605.212-8.233.035H100.91a3.771,3.771,0,0,0-.526-.071A10.268,10.268,0,0,1,98.808.22c-.35,0-.526-.035-.876-.035a35,35,0,0,1-3.854,0h-4.2a3.6,3.6,0,0,0-.7-.035H80.416A1.9,1.9,0,0,0,79.54.007C71.307-.028,65,.078,56.768.043c-1.752.106-4.73-.035-6.481.071C48.01.078,46.433.184,44.331.149,43.805.22,43.1.184,42.579.22H40.127c-2.452.106-5.08.142-7.883.177-.35,0-.526-.035-.876-.035-1.226,0-2.8-.035-3.854.035C26.989.326,25.763.361,24.887.361,23.311.5,21.034.467,19.282.5c-.526-.071-.526.035-.876-.035,0-.106-.876-.035-1.051-.035A3.771,3.771,0,0,1,16.83.5h-.876c.35.177-.7.071-.525.212.525.106,1.577.071,2.452.142-.175.425,3.328.106,4.2.354-1.4,0-2.628.142-4.029.035-.35.177,1.4,0,1.4.142a12.868,12.868,0,0,1,1.752.035c-.35.071-1.226.035-1.577.071H17.881c-.175.177,1.577.071,1.577.212h-.7c-.175.177,1.051.106,1.051.248-.7.035-2.1-.071-2.452.035,1.577.035,2.8.142,4.2.177.7.035,1.226.106,2.1.142.35.106,1.4.035,1.4.212,1.051-.035,1.226.071,1.927.071a6.979,6.979,0,0,1,1.752.071c-.525.071-1.4.035-1.927.071,0-.071-.175-.071-.525-.071a1.384,1.384,0,0,1-.7.071H23.836a2.894,2.894,0,0,1-.525-.142c-1.4.035-1.4-.212-2.628-.177.175.106-.35.106-.175.212a7.178,7.178,0,0,1,1.4.177c-.526,0-.175.142-.175.212a2.164,2.164,0,0,1-.876.212c0,.106.175.283-.175.354-1.226-.035-1.752.071-3.153.035-.7.071-1.927.071-2.628.177-.35.035-1.051,0-1.4.071-.526,0-1.051.035-1.4.071,1.577.035,3.5-.142,4.554.035-.876.071-1.927.071-2.628.142a20.934,20.934,0,0,0-2.277.071c.525-.035.35.071.7.071H13.5c-.175.106.35.071.526.142,0,.071.525.035.525,0-.35-.035,0-.035.175-.035.525,0-.175.177.7.142.175,0,.175,0,.175.035,1.051.071,1.577-.177,2.277-.035a12.715,12.715,0,0,1-1.927.142c0,.106.35.142-.175.177-.876.106-.876-.071-2.1-.035-.35.212,1.4.071,1.577.177-.526.142.175.283.175.425a5.912,5.912,0,0,1-.876.035c0,.071.175.212-.525.177a2.059,2.059,0,0,1-.526.142c-.175.177-.175.248,0,.425-.526,0-.7,0-.7.071-.526.071-.35.248-1.051.283-.175.071.7.142,0,.177-.175.071.876.106.175.142-.526,0-.876,0-.876.071.35,0,1.051-.035.876.071,1.051.035-.175-.071.525-.071.526.035.35.142.876.035.35.106.7.212,1.051.283-1.051-.035-.35.035-.175.142a8.2,8.2,0,0,0-1.4.071c-.175-.106-1.226-.035-1.051.035a5.914,5.914,0,0,1,1.051.071c0-.035.175-.035.175,0H12.8c0,.071-.35.106-.876.071a2.059,2.059,0,0,1-.526.142c-.175-.106-.7.071-1.4,0,0,.106-1.226-.035-.876.142a9.3,9.3,0,0,0,1.4.071c.175.106,1.577,0,1.4.177-.526.035-1.577-.035-1.752.035a3.037,3.037,0,0,1,.7.071c-.876-.035-1.226.035-1.927.035-.7.035-.526-.071-1.051-.035,0,.106-.876.035-1.4.035h-.7c-.175,0-.175.035,0,.035.35.035,1.4-.035,1.4.035.175.106-1.051-.035-.876.071,1.051,0,1.927,0,2.628.035a5.879,5.879,0,0,1,1.577,0,7.191,7.191,0,0,1-1.4.071,11.036,11.036,0,0,1-1.577.035c0,.071,0,.106-.175.142-.526,0-1.051,0-1.4.035a4.651,4.651,0,0,0-1.4,0c2.277.106,4.029,0,5.605.142.7.035,1.927-.071,1.927.071C10.874,9,9.823,9.1,8.246,9.1c0,.212,2.277.035,2.978.177a22.652,22.652,0,0,1-2.277.071c0,.142-.526,0-.7.071-.35.035-.876.035-1.051.071-1.051-.035-1.4.071-2.452.035-.526.106-1.752.071-2.452.142A14.015,14.015,0,0,0,.014,9.633c-.175.212,1.4.071,1.752.212a6.244,6.244,0,0,1,1.752.177,11.822,11.822,0,0,0-1.752.071,28.438,28.438,0,0,1,3.328.142H7.546c-.175.035-.175.071.175.071,1.577,0,1.927,0,3.153-.035.175.106,1.577-.035,1.4.142-1.752,0-3.153.071-4.554.177H5.794c-.526.035-1.4-.035-1.577.035a3.64,3.64,0,0,1,1.4.177,5.914,5.914,0,0,1,1.051.071c.35.035,1.226-.035,1.051.035-.35.142-1.226-.106-1.4.071a17.72,17.72,0,0,0,2.628.071c.525-.035.35.071.7.071,0-.071.526-.071.876-.142a10.076,10.076,0,0,0,2.277.071c.175.142-.525.071-.525.212.35.035.525.177.175.212-1.4,0-2.1.071-3.328,0a10.43,10.43,0,0,1-1.051.035,16.768,16.768,0,0,0-1.927,0c.7.071,2.1.035,3.153.035,1.051.142,2.628-.035,3.153.177.175.142-.35.142-.175.248,0,.106.7.071.7.212a2.679,2.679,0,0,0-.7.035c.526,0,.526.106.526.212-.7.035-1.226.071-1.927.071,0,.106.175.071,0,.142-.175.035-.876-.035-.7.071.876,0,1.4,0,1.927-.035-.175.142,1.226.035.876.212-.35.071-1.752-.035-1.752.142-.35.142,1.4.071.7.177-.876,0,0,.035,0,.071a2.679,2.679,0,0,0-.7.035c.175.106,1.4,0,1.577.071a6.644,6.644,0,0,0-1.752.142A18.019,18.019,0,0,1,13.5,13.6c-.175.035-.526.035-.7.071.7.035.876.142.876.248-.35.035-1.051,0-1.4.071h1.051c.7.177,3.153.035,2.628.425-.876,0-1.577-.071-2.452-.071-.175.071.175.106.175.177a2.679,2.679,0,0,0-.7.035,10.335,10.335,0,0,0,2.277.177c.526.106,1.226.106,1.927.177,1.051-.035,1.4.071,2.452.035v.142h1.577c.35.071.175.177.876.177.526,0-.175-.177.7-.142a2.679,2.679,0,0,1,.7.035c.175,0,.35-.035.7-.035.525,0,1.051.071,1.577.071,1.051.035,2.452.035,4.029.035,2.452-.106,5.43,0,7.883.035.35,0,.525-.035.876-.035,1.051.071,4.029.035,5.956.035.35,0,.526.035.876.035,2.452,0,4.73.035,7.007.071,1.051-.035,2.277,0,3.5,0,.876,0,1.927.035,2.978,0h1.577c.525,0,.525-.035.876-.035l.175.035h.7c.876-.071.876,0,1.577-.035,1.4,0,3.153.035,4.2-.035,0,.071.525.035.876.035h.876c.35,0,.526-.035.876-.035,6.306.035,11.736-.071,17.867-.071a3.6,3.6,0,0,1,.7-.035c1.226-.035,2.8.035,3.5-.035a10.268,10.268,0,0,0,1.576.035h1.752a3.6,3.6,0,0,1,.7-.035h6.306a5.911,5.911,0,0,1,.876-.035c2.8,0,5.255-.035,8.058,0h.526c.175.071.175,0,.525,0s.7.035,1.051.035c.526,0,.876-.035,1.4-.035s.876.035,1.4.035c1.051-.035,1.051,0,2.277,0h2.628a5.911,5.911,0,0,0,.876.035c1.927,0,3.854-.106,5.781-.035.175,0,.35.035.7.035h3.328s0-.035.175-.035c0,0,0,.035.175.035h2.452c.35,0,.526-.035.876-.035.175,0,.526.035.876.035,1.927.035,3.854-.035,5.781,0a3.6,3.6,0,0,1,.7-.035c7.883,0,15.765-.106,24,0,1.051-.035.7,0,1.577-.035,1.576.071,4.029.035,5.956.035a3.6,3.6,0,0,0,.7.035c2.1,0,3.328-.071,5.08.035h1.927a10.429,10.429,0,0,0,1.051.035c.876.035,2.277-.035,3.328,0h.525c.175.071,0,0,.876,0h.526v.035c.35,0,.35-.035.525-.035s.175.035.526.035c0,0,0-.035.175-.035s.35.035.7.035c0,0,.175-.071.175-.035a2.01,2.01,0,0,0,.7.035c.526-.035.35,0,1.4,0,4.2.035,8.934-.035,13.838,0,.175,0,.526.035.876.035h3.5a3.772,3.772,0,0,1,.526-.071c.525.035,1.051.071,1.752.071.7.035.876-.071,1.4-.071.35.142,1.752.035,2.452.142h3.153c1.4,0,1.4.035,2.628,0,.35,0,.526.035.876.035.175,0,.175-.035.526-.035s.35.035.526.035.525-.035.876-.035a5.911,5.911,0,0,0,.876.035,22.4,22.4,0,0,0,2.277-.035c-.35,0-.526-.035-.175-.035s.35-.035.7-.035c2.1.142,4.2-.071,5.781.035a5.912,5.912,0,0,1,.876-.035c1.4,0,1.752-.035,2.978,0,1.226-.035,1.4,0,2.628,0a10.431,10.431,0,0,1,1.051-.035h2.628c.35,0,.525-.035.876-.035h1.576c.35,0,.35-.035.7-.035,0,0,0,.035.175.035.35,0,.526-.035,1.051-.035h18.568c.35-.035,1.4.035,1.4-.035.7.071,2.1.035,3.153.035,1.4-.035,1.927.035,2.978,0a8.805,8.805,0,0,0,1.051.035c.876,0,2.1-.035,2.628.035,0-.106.7,0,.876,0,0-.106.35.071.876,0,1.576,0,3.328-.106,5.08,0,.7.035.526-.071,1.051-.035,0,.106.876.035,1.051.035h8.408c.526,0,.7.071,1.4.035.7.035.35-.106,1.051-.071.175,0,.175.035.526.035.175,0,.35-.035.175-.035.175,0,.35.035.7.035s.7-.035,1.051-.035.7.035,1.051.035c1.051.035,2.1,0,2.978-.035.876.106,2.628.035,3.854.035a10.432,10.432,0,0,0,1.051.035,18.417,18.417,0,0,1,2.452.035c0-.071.175-.071.525-.071.526,0,.35.106.876.071a13.709,13.709,0,0,1,1.752-.035c1.4.071,4.2,0,5.956.071,1.4-.071,2.978,0,4.554-.035a5.879,5.879,0,0,0,1.576,0c-.35-.071-1.226,0-1.576-.071-.7-.035-.876.035-1.4-.035a10.269,10.269,0,0,1,1.577-.035h1.576a5.112,5.112,0,0,1,.876.071c0-.071.525-.035.876-.035a3.594,3.594,0,0,1,.7-.035c.7-.035.526.142,1.4.071a1.384,1.384,0,0,1,.7-.071c.525.035,1.4-.035,1.576.035.525,0,.7-.071,1.4-.035.525-.071.876.142,1.051,0-.175,0-.175-.035,0-.035a16.678,16.678,0,0,0,2.277-.035c1.051.035,2.452.071,3.328.142.175-.071.175,0,.525,0,0-.071.175-.071.526-.071.526,0,1.051,0,1.4-.035a5.909,5.909,0,0,0,.876.035c.876-.071,1.4.071,2.277-.035,0,.071.7,0,.7.071a3.6,3.6,0,0,0,.7.035c.876,0,2.1-.035,2.628.035a3.036,3.036,0,0,1,.7-.071c0,.106.876,0,1.4.035a7.344,7.344,0,0,1,1.051.035c0-.106.876-.035,1.4-.035a4.555,4.555,0,0,0,1.4.177c.35,0,.175-.177.876-.142s.7-.071,1.4-.035c1.226.035,2.1.071,2.978.071a5.109,5.109,0,0,0,.876-.071,12.431,12.431,0,0,0,1.4.142,2.993,2.993,0,0,1,.876-.071,9.654,9.654,0,0,0,1.752,0c0,.071.7,0,.7.071.525.071.7-.177.876-.035v.177c.7,0,.35-.212,1.051-.212,0,.106,1.577-.035,1.577.071-.876,0,0,.071-.525.142,1.576,0,1.4.035,2.628.035.175-.106-.7-.248-.876-.142a2.493,2.493,0,0,1-1.051-.035,11.7,11.7,0,0,1,1.927-.071,5.912,5.912,0,0,0,.876.035h2.628a2.625,2.625,0,0,1,.525.035,14.381,14.381,0,0,1,1.752,0c.175-.035,1.051-.106,1.051,0s-.525.106-1.051.142a14.772,14.772,0,0,0,1.927.035s0,.035.175.035a5.99,5.99,0,0,1,1.051-.035c.7-.035.526.071,1.051.035.525-.071,1.752-.035,2.628-.035a1.384,1.384,0,0,1,.7-.071c.35.035.175.142.876.071.35-.035.876-.035,1.051-.071-.526-.106-1.226.035-1.577-.035a4.715,4.715,0,0,1,1.577,0c0-.106.35-.142.7-.177a4.587,4.587,0,0,0,1.577,0c.7.106,1.226-.071,1.927.035.525,0,.35-.106.876-.071-.7.142.7.035.7.177a2.679,2.679,0,0,0-.7.035,7.343,7.343,0,0,0,1.051-.035c-.175-.035-.35-.106,0-.142.526.035,1.4-.035,1.576.035.35.071,1.051.035,1.4.071,0-.071.175-.071.526-.071.7.035.876-.035,1.4-.035.7.106,1.051,0,1.576.142a1.947,1.947,0,0,1,.876-.142c.526.035.876,0,1.752.035.35,0,.7-.035,1.051-.035a7.069,7.069,0,0,0,.876,0c.526-.035.876.035,1.4.035.35,0,.175-.035.175-.035a3.6,3.6,0,0,0,.7.035c.175,0,.35-.035.175-.035.35,0,.35.035.7.035a3.6,3.6,0,0,1,.7-.035c.35,0,.35.071.7.071a1.535,1.535,0,0,1,.525-.071c.7-.035,1.4.035,2.277.035.175,0,.35-.035.7-.035.175,0,.526.035.876.035.175,0,.175-.035.175-.035.175,0,.526.035.876.035.876,0,1.226-.035,2.452,0,.525,0,.7-.071,1.4-.035a3.546,3.546,0,0,0,.876,0c.525,0,.35.106.876.071,0-.106.876-.035,1.051-.035h1.4c.525,0,.175.177.876.142,0-.106.175-.142.7-.142.7-.035,2.277.035,3.5,0,.525.071,1.4.035,1.927.071.175-.035.7-.142.876,0-.7.071-2.1.035-3.153.035a2.68,2.68,0,0,0,.7.035h2.277a10.429,10.429,0,0,0,1.051.035c.35-.106-1.051-.071-.175-.142.525.035.35-.071.7-.071-.175.106.35.071.7.071.7.035.525-.071,1.051-.035.175.142.525-.035.7-.035-.35.177,1.051,0,.876.142a5.109,5.109,0,0,0,.876-.071c0,.035.7.142.7.035-.35,0-.175-.071,0,0a5.914,5.914,0,0,1,1.051.071,11.962,11.962,0,0,1,1.4-.071c0,.071.526.035.876.035s.525.035.876.035c0-.106.526-.106,1.051-.071-.175-.142.35-.142.7-.177,4.73.106,8.758.248,12.787.177.526-.071,1.226-.142,1.927-.177h.7c.175,0,.175-.035,0-.035-.526-.035-1.927.071-1.752-.071a10.427,10.427,0,0,0,1.051.035c-.175-.106,1.051.035.876-.071-1.576,0-2.8-.106-4.029-.035-.35-.106-1.4-.071-1.752-.177.876,0,0-.035,0-.071s.525-.035.525-.071c-.7-.035-1.4-.035-1.927-.071-.35,0-.876.035-.876-.035-.35,0-.526.071-.7,0,.175-.071.525-.071.876-.142,0-.071.525-.071.876-.142a16.838,16.838,0,0,0,2.628-.142,13.709,13.709,0,0,0,1.752-.035c.7,0,1.4,0,1.4-.142a22.4,22.4,0,0,1-2.277-.035c2.277-.071,5.605-.142,7.357-.035a8.2,8.2,0,0,1,1.4-.071c.7,0,1.051.035,1.752.035,1.226,0,2.452-.106,3.5,0,.175-.035,0-.142.7-.142a11.638,11.638,0,0,1,1.577,0c0-.035.526-.035.526-.071-.175,0-.175-.035,0-.035,1.576,0,3.679.106,4.9.035,0-.177-1.4-.106-2.277-.142a16.745,16.745,0,0,1-1.927-.212,7.342,7.342,0,0,1-1.051-.035c-.35-.035-1.226.035-1.051-.035.35,0,.876.035.876-.035-.35,0-.876.035-.876-.035a25.455,25.455,0,0,1-4.029-.142c.7,0,.876-.071,1.752-.035a1.947,1.947,0,0,1,.876-.142c1.576,0,2.978-.071,4.73-.035.175-.071,1.051,0,1.051-.071a10.608,10.608,0,0,1-1.752-.071,3.036,3.036,0,0,0,.7-.071,15.788,15.788,0,0,1-2.452-.142c-.526,0-.526-.035-.876-.035s-.876.035-.876-.035c.175-.142,1.4-.035,1.752-.142h-.526c-.525,0-.876,0-.876-.071-.526,0,.175-.177-.7-.142a13.708,13.708,0,0,0-1.752-.035c-1.927-.106-4.2-.142-5.956-.248a16.838,16.838,0,0,1-2.628-.142c.526-.035,2.1.035,3.328,0,.35-.071,0-.071,0-.142a2.679,2.679,0,0,0,.7-.035,5.915,5.915,0,0,1-1.051-.071c.175-.035.526-.035.526-.142-.175-.106-1.226,0-1.051-.177,1.927-.035,4.2-.142,5.956-.035a11.036,11.036,0,0,1,1.577-.035c.525,0,.7.071,1.4.035.7,0,.876-.071,1.752-.035.175-.071,1.226,0,1.4-.071-1.226.035-1.752-.071-2.978-.035a2.679,2.679,0,0,0-.7-.035c0-.071-.35-.106-.876-.071.175-.035.175-.071-.175-.071a4.209,4.209,0,0,0-1.051-.035c-.35,0-.876.035-.876-.035s.7,0,.7-.071c-1.752.035-2.628-.142-4.554-.071a1.855,1.855,0,0,0-.525-.035c0-.106-.175-.142-.7-.142.175-.035.175-.106.175-.177h-1.051c0-.142-1.226-.071-1.051-.212.35-.035,1.226.035,1.051-.035-.7-.035,0-.142.525-.071-.175-.142-1.4-.035-1.576-.142.7-.142,2.8-.035,3.854-.142,1.051.106,2.1-.035,3.153.035.175-.177-1.226-.035-1.752-.071-.876-.035-.7,0-1.752,0-.35-.106-1.752.035-1.927-.071h4.554a1.384,1.384,0,0,1,.7-.071c.7.035,1.051-.035,1.577-.035a1.384,1.384,0,0,0,.7.071c1.577-.071,2.452.071,4.554.035a3.6,3.6,0,0,0,.7.035h2.627c.35,0,.525.035.876.035,1.226.035,2.1-.071.175-.035a28.962,28.962,0,0,0-2.978-.071,6.707,6.707,0,0,0-1.577-.142c-.175,0,0-.106-.175-.142-.35-.035-1.576.035-1.4-.142a11.677,11.677,0,0,1,1.927,0h3.854c.35,0,.876.035.876-.035h-1.051a1.856,1.856,0,0,0-.526-.035,1.383,1.383,0,0,0-.7-.071c-1.226.035-1.752-.071-2.978-.035-.35-.071-1.226-.106-1.576-.177h-1.4a2.993,2.993,0,0,0-.876-.071h-1.752c-.35-.035-1.051,0-.876-.142h.7c0,.035.175.035.175,0,.35-.035,1.226.035,1.051-.035-.876,0-.526-.035-.175-.071-1.226-.035-2.8-.035-4.2-.142-1.576,0-3.679.035-4.9-.035a7.1,7.1,0,0,1-1.577-.035c0-.106,1.577.035,1.577-.071-.35-.071-1.4,0-1.4-.142.35,0,1.752,0,1.051-.035a5.411,5.411,0,0,1-1.577-.071c1.4-.035,2.452-.106,3.328-.142,1.051,0,2.1,0,2.978-.035.526.035,1.4-.035.526-.035-.876.035-.876-.071-1.752-.035-.35-.035-1.051,0-1.4-.071a7.3,7.3,0,0,1,.876-.071c.35-.035,1.226.035,1.051-.035-.526-.071-1.226-.035-1.752-.071-.175-.106-.876-.142-.7-.283-.525-.035-1.226-.035-1.577-.071-.7,0-1.4.035-1.4-.142a24.524,24.524,0,0,0,2.978-.071,1.524,1.524,0,0,1-.525-.071c1.051.071,2.452.035,3.5.071,1.4-.035,1.752,0,2.628-.071.175.106.525-.071.876.035.526,0,1.051,0,1.4.035-.175-.106,1.051.035.876-.071a12.715,12.715,0,0,1-1.927-.142h.525c.175-.177-1.051.071-1.051-.142.35-.035.876-.035,1.051-.071-2.1,0-2.978,0-4.729-.071-1.226.035-2.452-.035-3.153,0-.35-.035-.876-.071-1.4-.071-.7-.035-1.051.035-1.577.035a2.714,2.714,0,0,0-1.051-.071,5.109,5.109,0,0,0-.876.071,11.961,11.961,0,0,0-1.4-.071c-.35-.035-1.4.035-1.4-.035.35-.071.876.035,1.577-.035a10.428,10.428,0,0,0,1.051.035c.876-.035.876,0,1.927,0h2.452a3.775,3.775,0,0,1,.526-.071,16.67,16.67,0,0,0,1.927.035c.175,0,.175.035.175.071,1.226-.071,2.978-.035,4.554-.035,0-.212-.876-.035-1.577-.142-.525,0-.35.106-.876.071-.35-.071-.876-.035-.876-.177a9.262,9.262,0,0,1-1.4,0c.175.071-1.226.071-1.051,0,.35,0,.876.035.876-.035-.876.035-1.752-.035-1.051-.177-.7-.035-.35.142-.876.142a2.9,2.9,0,0,1-.526-.142c-.7-.035-.175.142-.876.071-.35-.177-2.452,0-2.978-.177a7.344,7.344,0,0,0,1.051-.035,10.431,10.431,0,0,0,1.051.035h.7a1.857,1.857,0,0,0-.526-.035c-.7.035-.7-.071-1.577-.035,0-.106-1.226,0-1.051-.177-.7-.035-.35.177-1.051.142a10.43,10.43,0,0,0-1.051-.035c0-.071-.7,0-.7-.071a12.87,12.87,0,0,1-1.752-.035c-.7.035-.876.035-1.051-.071a1.524,1.524,0,0,0,.525-.071,13.71,13.71,0,0,1-1.752-.035c-1.226-.035-3.153.071-3.854-.071a7.342,7.342,0,0,0,1.051-.035c2.1,0,3.854.142,5.43,0,.175.071,1.051,0,1.051.071.876-.071,2.452-.035,3.854-.035a10.428,10.428,0,0,0,1.051.035c.35-.035,1.226.035,1.051-.035C460,5,458.428,5.068,457.9,5a6.979,6.979,0,0,1-1.752-.071c.876-.142,2.628.106,3.153-.071a33.289,33.289,0,0,1-3.5-.071,11.037,11.037,0,0,1,1.577-.035,1.2,1.2,0,0,0,.876-.071H455.1c-.35-.071-1.051-.071-1.4-.177-.175.142-.7-.035-1.051,0-.7.035-.876-.035-1.4-.035h-1.752c.175-.106-1.051.035-.876-.071,1.4,0,2.628,0,3.854-.035.7-.035.7.071,1.4.035h1.576c.175-.071,1.051,0,1.051-.071h-1.927a13.71,13.71,0,0,0-1.752-.035c0-.106-1.4.035-1.4-.071S453,4.254,453,4.148c-.525-.035-.876-.035-1.927-.035,0-.106-1.051-.035-1.051-.142,1.752-.035,3.328.071,4.029,0a3.77,3.77,0,0,0,.525.071,4.917,4.917,0,0,0,.7-.142,3.037,3.037,0,0,0,.7.071,1.385,1.385,0,0,1,.7-.071,3.545,3.545,0,0,0,.876,0,4.21,4.21,0,0,0,1.051.035c.7-.071,1.051.071,1.4-.071a11.637,11.637,0,0,1,1.576,0c0-.106.175-.142.7-.142.35,0,.876.035.876-.035-1.051.035-1.226-.071-1.927-.071a3.6,3.6,0,0,1-.7.035,7.5,7.5,0,0,0-1.576-.035c-.35-.035-1.051-.071-1.577-.071s-1.051,0-1.4.035a4.439,4.439,0,0,0-1.051-.071c-1.4,0-2.628-.035-3.854-.071h-1.752a5.911,5.911,0,0,0-.876-.035h-1.576c-.35-.035-1.4.071-1.051-.071,1.051.071,1.927-.035,2.978.035a5.109,5.109,0,0,0,.876-.071c0,.071.526.035.876.035a5.91,5.91,0,0,0,.876.035c1.226,0,1.226-.035,1.927-.035.525.071,1.927,0,2.452.071-.175-.106,1.226.035,1.051-.071a9.362,9.362,0,0,1-1.577-.071c-.876.071-1.4-.035-2.628,0,0-.071-.7-.035-.876-.071a3.038,3.038,0,0,0-.7-.071c-.525,0-.7.071-1.051.071a21.912,21.912,0,0,0-2.452-.142h-4.2c-1.226-.071-1.226,0-2.628-.035h-1.927c-.525-.035-1.4.035-1.577-.035h1.051c.525.035.35-.071.7-.071,0,.106.175.035.525.035a3.6,3.6,0,0,0,.7.035c.7-.035,1.752-.035,2.978,0,.35,0,.175-.035.175-.035s.525.035,1.051.035c.175,0,2.1.035,2.277,0V2.945a9.18,9.18,0,0,0,1.4,0,5.912,5.912,0,0,0,.876.035c.7.035.35-.106,1.051-.071,1.051.071,2.628.071,4.554.035.175.071,1.051,0,1.051.071,1.226-.071,3.153.071,4.73.071.7.035.7-.071,1.577-.035.7.071,1.752.035,2.628.035.35,0-.175-.071.175-.071h.876c.175,0,.175-.035,0-.035h-1.752c-.526-.071-2.1,0-2.628-.071h-3.153c-.526.071-1.576-.071-2.277.035a2.714,2.714,0,0,0-1.051-.071c-.876.035-1.577-.035-2.978,0h-3.153a10.426,10.426,0,0,0-1.051-.035c-1.226,0-1.4.035-2.978.035-2.452-.106-6.131.035-8.583-.071-2.1.071-4.554-.035-6.656.035-.526-.035-1.4-.035-1.752-.071-.175.106-1.577,0-1.752.071,0-.071-.35.035-.525-.035a3.6,3.6,0,0,0-.7-.035c0,.106-.876.035-1.4.035a7.343,7.343,0,0,1-1.051-.035c0,.142-.7-.106-.7.035-1.051,0-1.051-.035-1.927,0h-5.08a3.6,3.6,0,0,1-.7.035h-2.978a10.428,10.428,0,0,1-1.051.035c-2.8,0-5.605.071-8.058.035-.526,0-.7.071-1.4.035-1.226-.071-3.153-.035-4.729-.035a4.1,4.1,0,0,1-.876-.142c-.175-.035-.7-.177-.876-.035a1.855,1.855,0,0,1,.525.035,1.855,1.855,0,0,1-.525-.035,7.345,7.345,0,0,0-1.051.035c-.35-.035-.525-.106-1.051-.142-1.051-.035-1.051,0-1.752-.035,0,.106-.876.035-1.051.035-.175-.035-.526-.035-.7-.071.35,0,.876.035.876-.035-.525-.035-1.576.035-1.752-.035,1.4-.035,2.277,0,3.5.071.175-.071.175,0,.525,0a.766.766,0,0,1,.526-.035,3.771,3.771,0,0,1,.526-.071,4.21,4.21,0,0,0,1.051.035,1.383,1.383,0,0,0,.7.071c0-.071.175-.071.526-.071s.35-.035.7-.035c0,.106.876.035,1.051.035h3.854a3.6,3.6,0,0,1,.7-.035c1.577,0,3.328.035,4.729-.035.876.035,1.752,0,2.628,0,2.8,0,6.481-.071,9.459,0,.35,0,.7.035,1.051.035.526,0,.876-.035,1.4-.035.175,0,.35.035.7.035l.175-.035c.525-.035.876.035,1.4.035.175,0,.525-.035.876-.035,1.051-.035,1.927.071,3.153.035.7-.035.35,0,1.4,0h.876a10.482,10.482,0,0,0,1.051-.071c.175.106,1.4,0,1.576.071.35-.071.525.035,1.4,0,.7.035.525-.071,1.051-.035,1.051.035,2.1.035,3.854.035.876.071,1.051,0,1.927.035a5.912,5.912,0,0,0,.876-.035c.175.035,1.051.106,1.051,0a1.524,1.524,0,0,1-.526-.071c.35.035.876.035.876.142a5.135,5.135,0,0,1,1.051,0c.876-.035,1.226.035,1.927.035,1.051-.071,1.752.035,3.153,0,2.8-.283,8.058.177,11.211-.035a10.428,10.428,0,0,0,1.051.035h1.752c.35,0,.526.035.876.035.35-.071,1.927.071,2.452-.035-2.978-.035-5.43-.177-8.583-.177a3.6,3.6,0,0,0-.7-.035h-1.577a3.6,3.6,0,0,0-.7-.035h-1.051a13.708,13.708,0,0,0-1.752-.035c0-.106-1.4.035-1.051-.142a21.7,21.7,0,0,0,2.628,0c0,.071.7.035.876.071,0-.071.525-.035.876-.035,0,.071.35-.035.526.035a473935.74,473935.74,0,0,1,3.5.071h1.4a9.654,9.654,0,0,0,1.752,0c-1.927-.035-3.328-.142-5.605-.142-.7-.071-2.1-.035-2.978-.071H450.72c-.35,0-.876.035-.876-.035-.526,0-.7,0-.7-.071,1.051-.035,1.752.035,2.452.035s1.752.035,2.277-.035c.525,0,.35.106.876.071a10.269,10.269,0,0,1,1.577-.035,2.68,2.68,0,0,0-.7-.035h-.876c-2.978-.106-6.481-.142-9.634-.212h-9.809c0-.106.525-.212-.175-.142-1.226,0,.7.071-.175.142-1.051.071-.525-.248-1.4-.071,0,.035-.35.035,0,0-.35-.248-2.8-.071-3.153-.283V1.14c-1.051,0-2.452.106-3.328.035a11.574,11.574,0,0,1-1.4-.177,4.6,4.6,0,0,1-1.4.071,5.911,5.911,0,0,0-.876-.035,9.061,9.061,0,0,0-1.752-.212c-.175.248.7.354.175.5,1.927.035,2.8-.142,4.2-.212v.248c.175.035.876,0,.7.142a5.91,5.91,0,0,0,.876.035c-.35.071,0,.071,0,.142.876-.035,1.927-.035,2.628-.071-.175.212,1.051-.035,1.051.071a10.269,10.269,0,0,1-1.576.035c-.175.071-.175,0-.526,0h-.7c-3.153.142-6.656-.071-10.335,0a11.016,11.016,0,0,0-1.577-.177h-.175c0,.035,0,.106-.175.142-.175-.071-.175-.106.175-.142,0-.035-.526-.035-.526-.071h-.526c-.35,0,.35.212-.7.177-.175-.071.7-.142,0-.177-.525.035,0,.248-.525.248h-4.029c-.35-.035-1.226.035-1.051-.035.876,0,.876,0,.7-.142-1.051-.071-.7.106-1.051.177-.525-.071-1.226.035-1.752,0a3.772,3.772,0,0,0-.526-.071c.35.177-1.051,0-.876.142a5.136,5.136,0,0,0-1.051,0c-.175-.071-.35,0-.7,0a2.68,2.68,0,0,0-.7-.035c-.7.035-1.752-.035-2.978,0-.526-.106-1.927,0-2.277-.142a2.679,2.679,0,0,0,.7-.035c-.35.035-1.226-.035-1.4.035.7.035-.35.071-.7.035.526-.106-.35-.035-.526-.142,1.226,0,1.576-.035,2.628,0,.526-.071-.35-.142.175-.177.175.142.7-.071,1.051.035.35-.035.876-.035,1.4-.035a31.936,31.936,0,0,0,4.2.248c-.35-.283,1.576-.142,2.452-.177.175-.142-.525-.071-.876-.071-.526,0-.35-.106-.876-.071h-.175a.765.765,0,0,1-.525.035c0-.035.175-.035.525-.035-.175-.106.175-.106.175-.177-.876,0-1.051.142-1.927.142a6.075,6.075,0,0,0-1.4-.142,4.919,4.919,0,0,0-.7.142,3.037,3.037,0,0,1-.7.071c-.175-.035-.7-.071-.175-.071,0-.035-.525-.035-.525-.071.35-.071-.175-.142-.526-.212,0,.142,0,.248-.876.212A2.894,2.894,0,0,1,398.7,1c-.35-.035.175-.035.175-.071h-3.5c-1.576-.035-3.153-.071-4.9-.071-.35-.071-.7.071-.876-.071a13.709,13.709,0,0,1-1.752.035,10.427,10.427,0,0,0-1.051-.035h-9.109c-.175-.071-.35,0-.7,0h-7.883c-.175.035-.7-.035-.876,0a4.639,4.639,0,0,1-.876,0h-5.08c-.175.071,0,0-.175,0-2.8-.035-6.656,0-9.985,0-1.576.071-3.153.035-4.2.071a5.913,5.913,0,0,0-.876-.035H340.89c-.526-.035-.7,0-1.577-.035h-1.226c-.876.035-2.277-.035-3.328,0-.35,0-.526.035-.175.035h2.8a5.91,5.91,0,0,0,.876.035h2.452c.876.071,2.452,0,3.328.071,1.051-.035,2.452.035,4.029,0,.7.035,1.927,0,3.328,0,.35,0,.525.035.876.035C353.5,1,354.9.963,356.13.927c1.752.106,4.379,0,6.481.035a1.384,1.384,0,0,1,.7-.071,12.22,12.22,0,0,0,1.576.142c1.577-.071,3.153-.035,4.9-.035a1.384,1.384,0,0,1,.7-.071c.35.035,1.226-.035,1.4.035a2.679,2.679,0,0,0-.7.035h.876c0-.035,0-.071.175-.071.175.071.35,0,.7,0,.7-.035.876.071,1.576.035.7.035.876-.035,1.4-.035.35.071,1.226,0,1.576.071,0-.106.876,0,1.4-.035h1.4c.876,0,2.1.035,2.628-.035a4.209,4.209,0,0,0,1.051.035c1.226-.035,2.628.035,4.9,0,.175.071.526.106.526.212.526,0,1.051.035,1.051.142a16.752,16.752,0,0,0-2.1.035c1.051,0,2.1,0,2.627.035.526-.035,1.577-.035,1.577.142.175.106-1.927,0-1.051.071a5.411,5.411,0,0,1,1.577.071c.175,0,.35,0,.175.035-.175,0-.35,0-.175-.035-.7.071-1.051-.035-1.927,0h-2.452c-.175-.106-1.4,0-1.576-.071a11.236,11.236,0,0,1,2.277-.035c.35-.035,0-.035-.175-.035h-.7c0-.106-.876,0-1.4-.035-.526,0-.175.177-.876.142-.35.071-.876.071-.876-.035.35-.035,1.226.035,1.051-.035-1.4,0-1.752-.177-3.153-.212-.7.071-1.4.106-1.927.177a9.6,9.6,0,0,0-1.752,0c0-.142-.876-.071-1.051,0,.525-.035.35.071.525.142-.876.035-1.927.035-2.978,0a12.867,12.867,0,0,0-1.752.035,10.268,10.268,0,0,0-1.576-.035c-.7-.035-.526.071-1.051.035a12.868,12.868,0,0,0-1.752-.035c-.35,0-.525-.035-.876-.035-1.226.071-2.978.035-4.554.035a12.115,12.115,0,0,1-1.752-.142,7.343,7.343,0,0,1,1.051.035c.175,0,.175-.035.175-.035.175,0,.35.035.7.035l.175-.035a10.432,10.432,0,0,1,1.051.035c.35,0,.525-.035.876-.035-.175,0,.175.035.175.035h1.4a9.271,9.271,0,0,0,1.4-.035,21.642,21.642,0,0,0-2.628,0,10.271,10.271,0,0,0-1.927-.035,18.934,18.934,0,0,0-2.1-.035c-.526,0-.526.142-1.051.142-.175-.106.7-.142-.175-.142-1.051-.035.175.142-.526.142-.525.035-.35-.071-.7-.071.175.142-.7.071-1.051.071,0-.035.526-.035.526-.071a5.915,5.915,0,0,0-1.051.071c0-.071.175-.071.175-.142-3.679,0-7.707.035-10.685-.071-1.752.071-4.554-.071-6.656,0-.526-.071-2.277-.035-3.854-.035-.35,0-.525-.035-.876-.035-3.328.035-5.78-.071-8.758-.071a4.441,4.441,0,0,0-1.051-.071c-2.628-.035-5.78-.035-8.583-.071-.876-.035-1.752.035-2.628.035-.35,0-.876-.035-1.051-.035h-2.628c-.175,0-.175.035,0,.035.35.035,1.4-.035,1.4.035h-5.43c-.35,0-.876-.035-.876.035a12.868,12.868,0,0,1,1.752.035c.175-.071.35,0,.7,0,0-.071.526-.035.876-.035h5.956c1.226-.071,2.1,0,4.2,0,.35.035,1.051.071,1.576.071a5.879,5.879,0,0,0,1.577,0,2.68,2.68,0,0,1-.7-.035c4.029.035,7.532.142,11.561.177.35,0,.526.035.876.035h2.627a8.741,8.741,0,0,1,1.927.071c-2.452,0-5.08-.071-7.182,0-.7.035-1.577-.035-2.277-.035h-2.628c-.175,0-.175.035-.526.035,0,0,0-.035-.175-.035h-1.577c-.35,0-.526.035-.876.035a11.036,11.036,0,0,0-1.577-.035,4.44,4.44,0,0,0-1.051-.071c-2.1,0-2.277-.035-4.554-.035,0-.035.526-.035.526-.071a22.4,22.4,0,0,0-2.277.035c.35.035,1.226-.035,1.051.035-.7.035.35.071.175.142h-4.554a4.439,4.439,0,0,0-1.051-.071c-.35.035-1.752,0-2.452-.035h-6.481c-.35.071-1.4,0-1.752.071a15.758,15.758,0,0,0-1.927-.035h-6.481c-.35,0-.526-.035-.876-.035-.35.106-.525-.035-1.051.035a3.041,3.041,0,0,1-1.051-.071c1.051.035,1.752-.035,2.452-.035h1.577c.35.035.7-.142.876,0a10.429,10.429,0,0,1,1.051-.035h1.577c0-.106-.876-.035-1.051-.035H293.42c-.876.071-.876,0-1.576.035a9.272,9.272,0,0,0-1.4.035,13.71,13.71,0,0,0-1.752-.035,1.384,1.384,0,0,1-.7.071c-.35-.035-.175-.142-.7-.035-.35,0-.525-.035-.876-.035H276.6c.175-.035.175-.071-.175-.071-6.832-.071-13.663.035-20.144-.071-.7-.035-.7.071-1.4.035h-5.956c-.35,0-.35-.035-.7-.035-.175,0-.35.035-.7.035-.175,0-.525-.035-.876-.035-1.226,0-2.628-.035-4.029,0-.7,0-.7.035-1.4,0-.526-.035-1.051.035-1.577.035-.7-.035-1.4.035-2.452,0a16.672,16.672,0,0,0-1.927-.035c-.526-.071-1.4-.035-1.752-.142,2.978-.071,4.379,0,7.007-.035a1.384,1.384,0,0,1,.7-.071c.876-.035,1.226.035,1.927.035h9.985c.35,0,.526.035.876.035.35-.071,1.051.035,1.927,0,2.1-.071,4.029.106,6.306,0a5.135,5.135,0,0,1,1.051,0h2.628c.35-.035.876-.035,1.051-.071.175.106.525-.071.876.035,0-.035.175-.035.175,0h.7c2.8-.035,6.306.071,8.934,0a7.748,7.748,0,0,0,1.051-.071c-5.255,0-11.736-.035-15.94.035.175-.035.175-.071-.175-.071h-3.153c-.35-.035-1.051-.071-1.576-.071-7.182.035-11.736.071-18.568.142-.35.035-.876.035-1.051.071a40.554,40.554,0,0,0-5.08.035c0-.106-.876-.035-1.051-.035h-1.4c-.35,0-.526.035-.876.035A5.911,5.911,0,0,0,228.958,1a10.428,10.428,0,0,1-1.051.035c-1.927.035-4.379-.035-5.956.035-.7-.106-1.051.035-1.752-.035,0,.071-.526.035-.876.035a3.6,3.6,0,0,1-.7.035c-.526.035-.526-.071-1.051-.035-1.226.071-2.8.106-4.554.071a10.431,10.431,0,0,1-1.051.035h-1.4c-.35,0-.876-.035-.876.035a21.268,21.268,0,0,0-2.277-.035c-1.226.071-4.029.035-5.956.035a9.271,9.271,0,0,1-1.4-.035c-1.4.106-4.029,0-5.605.071-2.628,0-3.328.071-5.956.035-2.1.106-5.255-.035-7.357.071-.7-.035-2.277-.071-3.153-.035-.175,0-.175,0-.175.035.35,0,.175.071,0,0-.7.035-.7-.071-1.4-.035,0,.035-.175.035-.175,0C174.831.609,173.955.609,171.853.68ZM261.364.22a2.679,2.679,0,0,1,.7-.035h.7a2.679,2.679,0,0,1-.7.035Zm1.752,0c-.175-.035.175-.071.175-.035C263.466.184,263.116.22,263.116.22ZM231.761.4c.35-.035.175.035,0,0C231.585.4,231.585.326,231.761.4ZM392.039.5c0,.106-.525.106-.876.035C391.338.432,391.514.5,392.039.5Zm6.832.106c-.175.035-.175.106-.175.177a9.264,9.264,0,0,0-2.277.142c-.7-.035-1.4-.071-2.452-.035a1.856,1.856,0,0,1,.526-.035c-.175-.071-.876-.035-.7-.177-.526,0-.876,0-.876-.142h1.752A2.625,2.625,0,0,0,395.192.5C396.068.574,397.469.538,398.871.609Zm-127.347,0c-.175.106-1.226,0-1.4.071-2.1-.035-4.9.071-6.656-.035.35-.106,2.1.035,2.452-.071H268.9C269.772.574,270.473.609,271.524.609ZM262.59.644c-.175-.035.175-.071.175-.035C262.94.609,262.765.644,262.59.644ZM289.04.75c.35,0,.526.035.876.035C289.916.892,288.69.892,289.04.75Zm-1.4.106a2.679,2.679,0,0,1,.7-.035A2.679,2.679,0,0,1,287.639.857Zm2.452,0c-.175-.035.175-.071.175-.035C290.442.821,290.267.857,290.091.857ZM400.8.857c-.175-.035.175-.071.175-.035C401.148.821,400.973.857,400.8.857Zm26.8,0a2.68,2.68,0,0,1,.7-.035A2.679,2.679,0,0,1,427.6.857Zm1.927,0c.175-.071.175,0,.175.035C429.35.892,429.175.857,429.525.857ZM82.167.892a1.856,1.856,0,0,1,.526-.035h.526A8.8,8.8,0,0,1,82.167.892Zm2.1-.035V.927c-.175,0-.35,0-.175.035h-.175c0,.035-.35.035,0,0C83.744.892,83.744.821,84.269.857Zm.35.035c.175-.106.7,0,.525.071A3.712,3.712,0,0,1,86.2.892a1.676,1.676,0,0,1-1.051.071C84.795.963,84.97.892,84.62.892Zm234.2,0a2.68,2.68,0,0,1,.7-.035A4.648,4.648,0,0,1,318.819.892ZM426.547.857c.525-.035.35.071.525.142-.175,0-.175-.035-.525-.035ZM86.371.927c0-.035,0-.035.175-.035,2.978-.035,6.832.035,9.985,0,.7-.035.876.071,1.577.035.876,0,.7-.035,1.4,0,1.226.035,1.577,0,2.978,0,.7-.035.876.071,1.577.035h1.4c.35-.035,1.226.035,1.051-.035a12.416,12.416,0,0,0,1.4.035c.7-.035.35.106,1.051.071a3.714,3.714,0,0,0,.876-.071,3.626,3.626,0,0,0,.876,0c1.577.035,2.978-.035,4.554,0,.175,0,.175.035.175.035S116.5.927,117.2.963c.876.035,2.1.035,2.978.071C120.879,1,121.755,1,122.631,1c2.978.035,3.679,0,6.481.035a10.268,10.268,0,0,1-1.576.035c-.175-.071-.175,0-.526,0h-3.854c-2.277.071-4.73.071-7.007.142h-4.2a3.6,3.6,0,0,0-.7-.035,2.01,2.01,0,0,1-.7.035s-.35-.035-.175-.035a7.77,7.77,0,0,1-1.577,0c-.876,0-1.927-.035-2.452.035-.7.035-.525-.106-.876-.142a.893.893,0,0,1-.525.035h-1.051c-.876,0-1.4,0-1.927-.035-1.4.071-2.1-.035-3.328.035-1.051-.035-2.1-.071-3.328-.035-1.4,0-1.577-.035-2.978,0A13.113,13.113,0,0,1,90.575,1a34.959,34.959,0,0,1-3.854,0C87.247.927,87.072.927,86.371.927Zm203.37.389a21.641,21.641,0,0,1-2.627,0c-.175-.106,1.226.035,1.051-.071-.35-.071-1.576.035-2.277.035,0-.035.175-.035.175-.071-.35,0-.525.035-.876.035s-.526-.035-.7-.035c-.876.035-2.452-.071-2.978.035-.35,0-.526-.035-.876-.035-.35.035-1.4-.035-1.4.035a7.829,7.829,0,0,0-1.577-.035c0,.035.175.035.526.035a2.68,2.68,0,0,1-.7.035c-.35,0-.7,0-.7-.071H275.9a8.2,8.2,0,0,1,1.4-.071,9.654,9.654,0,0,0-1.752,0c-1.226-.035-3.679-.071-4.9,0C269.422,1.1,268.2,1.1,266.093,1.1a11.684,11.684,0,0,1,1.927-.035c.35,0,.7-.035.876-.035.7,0,.876.035,1.051.035s.175-.035.175-.035c.175,0,.35.035.7.035H272.4c.35,0,.526-.035.7-.035.876-.035,1.927,0,2.978,0,.35,0,.7-.035.876-.035.35,0,.526.035.7.035.35,0,.526-.035.7-.035.35,0,.526.035.876.035.876.035,1.752,0,2.628,0,.7.071-1.226.035-1.577.035,0,.106.876.035,1.4.035h1.752c.35,0,.525-.035.7-.035,1.752.071,3.854.106,5.605.177,0,.071-.526.035-.876.035C289.04,1.281,289.391,1.317,289.741,1.317ZM427.949.963c0-.071.525-.035.525,0C428.124,1,427.949,1.034,427.949.963ZM83.043,1.034C82.868,1,83.218.963,83.218,1,83.393,1,83.218,1.034,83.043,1.034Zm199.691,0c-.175-.035.175-.071.175-.035C283.085,1,282.91,1.034,282.734,1.034Zm.525,0A1.856,1.856,0,0,1,283.785,1,2.626,2.626,0,0,0,283.26,1.034Zm9.634-.071c.7-.035.876.035,1.4.035C294.12,1.069,292.544,1.1,292.894.963Zm-32.756.318h2.978c-.175.142-1.577.035-1.927.142-1.927-.106-4.029.035-5.956,0,0-.177.7.035.876-.071,0-.106-.876-.035-1.4-.035-.525-.106-.7.035-1.051-.035-.35,0-.526.035-.876.035H251.9a.835.835,0,0,0-.526,0c-.526-.106-.876.071-1.4-.035-.35.035-1.051,0-1.4.071-1.752-.106-4.9.035-6.656-.071h-3.679a2.679,2.679,0,0,1,.7-.035h2.8c.35,0,.526,0,.526-.071.525,0,.876.035,1.4.071,3.679,0,5.781-.071,9.634-.035-.526-.106-1.927,0-2.628-.035a11.341,11.341,0,0,1,2.628-.071,5.911,5.911,0,0,1,.876.035c.525-.035,1.4-.035,2.277-.035.175.071,1.051,0,.525.142a4.237,4.237,0,0,1,1.577.071A14.439,14.439,0,0,1,260.138,1.281Zm.526-.248h1.4c0,.071-.525.035-.876.035C260.663,1.1,259.612,1,260.663,1.034Zm3.153.035c-.175-.035.175-.071.175-.035C264.167,1.034,263.816,1.069,263.816,1.069Zm.7,0c-.175-.035.175-.071.175-.035Zm23.648-.035c.35.035,1.226-.035,1.051.035.876-.035,0,.142,0,0A7.343,7.343,0,0,1,288.165,1.034Zm6.481.035c0-.106.876-.035,1.051-.035h1.051c0,.106.35-.071.876,0h1.051A36.7,36.7,0,0,1,294.646,1.069Zm12.787.071a4.651,4.651,0,0,1-1.4,0c-.876.071-1.927-.035-3.328,0A2.68,2.68,0,0,0,302,1.1c0-.106.876-.035,1.4-.035s1.051,0,1.4.035V1.034c.526,0,.876,0,.876.071A15.714,15.714,0,0,1,307.433,1.14Zm3.678-.071a20.98,20.98,0,0,1-3.153.035A22.654,22.654,0,0,1,311.112,1.069Zm6.481,0a1.856,1.856,0,0,1,.526-.035C318.118,1.069,317.768,1.034,317.593,1.069ZM249.277,1.1a2.679,2.679,0,0,1,.7-.035A4.649,4.649,0,0,1,249.277,1.1Zm42.04-.035c0,.071-.35.106-.876.071C290.091,1,290.792,1.069,291.318,1.069Zm15.765.035a1.855,1.855,0,0,1,.525-.035A1.856,1.856,0,0,1,307.083,1.1Zm75.848.071c-.526-.106-.7.071-1.4.035,0-.071,0-.106.175-.142a1.856,1.856,0,0,0,.526-.035C382.93,1.034,383.105,1.069,382.93,1.175Zm.175-.106c.35.035.526.071.526.142C383.105,1.211,383.105,1.14,383.105,1.069ZM238.767,1.14a2.679,2.679,0,0,1,.7-.035A4.649,4.649,0,0,1,238.767,1.14ZM241.22,1.1h.526C241.745,1.211,239.993,1.1,241.22,1.1Zm32.756,0c0,.142-1.051.071-1.752.071A11.823,11.823,0,0,1,273.976,1.1Zm.35,0c.175,0,.175,0,.175.035.35,0,1.577,0,.876.035C275.027,1.175,273.976,1.246,274.326,1.1Zm25.049.035a3.6,3.6,0,0,1,.7-.035C300.076,1.14,299.025,1.211,299.375,1.14Zm2.452-.035a5.411,5.411,0,0,1-1.577.071C300.076,1.034,301.3,1.14,301.828,1.1Zm16.291.071c-.35.142-.7-.035-1.4,0C317.067,1,317.418,1.175,318.118,1.175Zm26.626-.035c-.175-.035.175-.071.175-.035C345.094,1.14,344.744,1.14,344.744,1.14Zm-76.724.035a1.856,1.856,0,0,1,.526-.035h.7a1.856,1.856,0,0,1-.526.035Zm1.4,0c-.175-.035.175-.071.175-.035C269.772,1.175,269.422,1.211,269.422,1.175Zm.876,0c-.175-.035.175-.071.175-.035C270.648,1.175,270.3,1.211,270.3,1.175Zm52.55-.035a1.856,1.856,0,0,1-.526.035c-.526-.035-.35.071-.7.071s-.526-.035-.876-.035c-1.051-.035-2.1.071-2.452,0a.766.766,0,0,1,.526-.035C319.695,1.1,321.446,1.175,322.848,1.14Zm72.87.035a3.237,3.237,0,0,1,.876-.035A1.538,1.538,0,0,1,395.718,1.175Zm-158.352.035c-.175-.035.175-.071.175-.035C237.716,1.211,237.366,1.246,237.366,1.211Zm53.076,0a1.856,1.856,0,0,1,.526-.035h.7a1.856,1.856,0,0,1-.525.035Zm34.333,0c-.175-.035.175-.071.175-.035C325.125,1.211,324.95,1.246,324.775,1.211Zm.526,0a11.678,11.678,0,0,1,1.927,0,11.962,11.962,0,0,1-1.4.071S325.475,1.246,325.3,1.211Zm91.788,0c0-.035.175-.035.175,0C417.263,1.281,417.088,1.246,417.088,1.211Zm-146.44.071a7.2,7.2,0,0,1-1.4.035C268.721,1.281,270.648,1.211,270.648,1.281Zm2.978-.071A13.827,13.827,0,0,1,271,1.281c-.175-.071,1.051-.142,1.051-.035C272.575,1.246,272.925,1.211,273.626,1.211Zm.7.071a2.679,2.679,0,0,1,.7-.035h.876a2.679,2.679,0,0,1-.7.035Zm5.605-.071h.525c.175.106-.35.071-.7.071C279.757,1.281,279.932,1.281,279.932,1.211Zm59.907.071a2.68,2.68,0,0,1,.7-.035A4.649,4.649,0,0,1,339.839,1.281Zm-106.5.035c-.35-.106,1.4,0,1.4,0a5.97,5.97,0,0,1,1.4,0c1.051-.071,1.226,0,2.452,0h2.978c0,.106-.876.035-1.4.035h-1.4c-1.927.071-5.255.071-7.182,0h-4.029c-.876,0-.35-.071.175-.035h5.605Zm32.056,0a1.855,1.855,0,0,1,.525-.035A2.626,2.626,0,0,1,265.393,1.317Zm2.628,0c-.175-.035.175-.071.175-.035C268.371,1.281,268.02,1.317,268.02,1.317ZM242.1,1.352c-.175-.035.175-.071.175-.035C242.446,1.317,242.1,1.352,242.1,1.352Zm80.752,0a10.27,10.27,0,0,1-1.577.035h-2.452a7.654,7.654,0,0,1,2.277-.035A14.384,14.384,0,0,1,322.848,1.352Zm18.568,0c0,.071-.7,0-.7.071-.876,0-1.576.106-1.752-.071C339.839,1.387,340.715,1.246,341.416,1.352Zm-24.173.035a1.856,1.856,0,0,1,.526-.035A2.626,2.626,0,0,1,317.242,1.387Zm37.311-.035c0,.106-.7.071-1.4.071-1.051.035-.526-.071.175-.035S353.853,1.317,354.553,1.352Zm-106.677.106c-.175-.035.175-.071.175-.035C248.226,1.423,247.876,1.458,247.876,1.458Zm109.83-.071h1.4c.175.142-.876.071-1.4.071Zm7.532.071a12.867,12.867,0,0,1-1.752.035h-1.752c-.175-.177,1.226-.035,1.752-.071A13.709,13.709,0,0,1,365.238,1.458Zm.7,0c.175-.071.175,0,.175.035C365.764,1.494,365.764,1.458,365.939,1.458Zm42.04.071a3.638,3.638,0,0,1-1.051.035A2.969,2.969,0,0,1,407.979,1.529Zm-4.2.177c-.526.106-1.4-.106-1.577.071-.175-.071-1.051,0-1.051-.071-.526,0-.35.106-.876.071,0-.071.175-.106.175-.142a22.255,22.255,0,0,0-2.978.142c-.876-.035-1.226.035-1.927.035a5.914,5.914,0,0,1-1.051-.071c-.876,0-1.4,0-1.927-.035-.7-.035-.526.071-1.051.035h-1.576c-.175,0-.35-.035-.175-.035-.175,0-.35.035-.525.035a10.268,10.268,0,0,1-1.576-.035h-.876c-.35,0-.876,0-.525-.035h4.029c.876.035,1.4-.071,1.752,0,.35,0,.526-.035.876-.035,1.752-.035,4.2.035,5.605-.035a5.912,5.912,0,0,1,.876.035c1.4-.106,3.678-.035,5.43-.035.7.035.7-.071,1.577-.035-.35.142,0,.212-.175.283-.525-.071-.7-.071-.525-.212-.526.035-1.4-.035-1.577.035a4.648,4.648,0,0,0,.7.035c.175.071-1.051.071-.7-.035C403.775,1.671,403.775,1.671,403.775,1.706Zm2.628-.142c-.175-.035.175-.071.175-.035C406.753,1.564,406.4,1.564,406.4,1.564Zm3.678.035a4.6,4.6,0,0,1,1.4-.071h.876a2.679,2.679,0,0,1-.7.035A8.217,8.217,0,0,1,410.081,1.6Zm-1.4.142c-.526-.035-1.577.071-1.4-.071a1.855,1.855,0,0,1,.525.035c.35,0,.175-.106.526-.035.175,0,.175-.035.175-.071a5.109,5.109,0,0,1,.876.071c.35,0,.175.071,0,0C409.03,1.671,408.5,1.635,408.68,1.741ZM446.166,1.6a1.856,1.856,0,0,1,.526-.035A1.856,1.856,0,0,1,446.166,1.6Zm-74.621.035a10.076,10.076,0,0,1-2.277.071c-.175-.106,1.051.035.876-.071Zm.526.071c.525-.106,1.927,0,2.978-.035,0,.106-.876.035-1.051.035,0,.071-.525.035-.876.035C372.42,1.741,372.42,1.671,372.07,1.706Zm4.029-.071a2.626,2.626,0,0,1,.526.035c1.927-.106,2.978.035,4.729-.035.175.142-.526.071-.876.071h-1.4a5.911,5.911,0,0,0-.876.035C377.15,1.671,376.274,1.883,376.1,1.635Zm9.284,0c0,.071-.35.106-.876.071C384.332,1.6,385.032,1.671,385.383,1.635Zm-25.224.106c-.175-.035.175-.071.175-.035C360.509,1.706,360.159,1.741,360.159,1.741Zm.35,0c-.175-.035.175-.071.175-.035C360.859,1.706,360.684,1.741,360.509,1.741Zm1.927,0c0-.071,1.4-.071,1.051.035C362.961,1.812,362.961,1.706,362.436,1.741Zm49.047,0a2.68,2.68,0,0,1,.7-.035h.876a2.679,2.679,0,0,1-.7.035Zm1.927,0a2.679,2.679,0,0,1,.7-.035h.7a2.679,2.679,0,0,1-.7.035Zm1.927,0c-.175-.035.175-.071.175-.035C415.687,1.706,415.512,1.741,415.336,1.741Zm-44.668.071c0-.071.175,0,.175,0h3.5c.35.035,0,.035-.175.035h-4.729a12.867,12.867,0,0,1-1.752-.035h2.978Zm18.743,0c.175-.142.7.035,1.051,0C390.287,1.954,389.762,1.812,389.412,1.812Zm2.277,0a2.679,2.679,0,0,1,.7-.035A4.649,4.649,0,0,1,391.689,1.812Zm.876,0a1.856,1.856,0,0,1,.526-.035h.7a1.856,1.856,0,0,1-.525.035Zm-17.692.035a2.679,2.679,0,0,1,.7-.035h2.277a2.679,2.679,0,0,1-.7.035h-2.277Zm5.43,0c-.175-.035.175-.071.175-.035C380.653,1.847,380.3,1.883,380.3,1.847Zm.7,0a2.68,2.68,0,0,1,.7-.035A2.334,2.334,0,0,1,381,1.847Zm2.1,0a2.679,2.679,0,0,1,.7-.035h5.08c0,.106-.876.035-1.4.035h-4.379Zm8.058,0c-.175-.035.175-.071.175-.035C391.514,1.847,391.338,1.883,391.163,1.847ZM280.457,2.06a4.44,4.44,0,0,1,1.051-.071c1.226,0,1.226.035,2.277,0,0,.035.175.035.175,0a3.773,3.773,0,0,0,.526.071c.175-.106.175.035.175.035.35.035,1.051-.035,1.576,0h.7a1.856,1.856,0,0,1-.525.035h-1.576c-.35-.035-1.226.035-1.051-.035a4.21,4.21,0,0,1-1.051.035C282.034,2.131,281.508,2.06,280.457,2.06Zm-10.685,0c-.175-.035.175-.071.175-.035C270.122,2.06,269.947,2.1,269.772,2.06Zm104.75.106c-.175-.142.876-.071,1.4-.071h1.752v.035a11.036,11.036,0,0,1,1.576-.035,4.631,4.631,0,0,0,.7,0c.35,0,.526.035.7.035s.35-.035.526-.035c1.051-.035,1.576.035,2.452,0h.7c.175,0,.175.035.175.035.175,0,1.4-.106,1.4.071-1.051-.035-1.576.035-2.628-.035h-5.43V2.131C376.624,2.166,375.924,2.131,374.522,2.166Zm-102.648,0a1.856,1.856,0,0,1,.526-.035c0,.035,0,.035.175.035.35,0,.35-.035.7-.035a10.43,10.43,0,0,0,1.051.035h1.752c.35.035,1.4-.035,1.4.035H270.3c-.175,0-.175-.035,0-.035Zm7.532,0c-.175-.035.175-.071.175-.035C279.757,2.131,279.406,2.166,279.406,2.166ZM387.134,2.2c-.175-.035.175-.071.175-.035C387.485,2.166,387.31,2.2,387.134,2.2Zm-133.653.035a1.855,1.855,0,0,1,.525-.035A1.856,1.856,0,0,1,253.481,2.237Zm.7,0a2.679,2.679,0,0,1,.7-.035A4.648,4.648,0,0,1,254.182,2.237Zm1.051,0a1.856,1.856,0,0,1,.525-.035A1.856,1.856,0,0,1,255.233,2.237Zm.7,0c-.175-.035.175-.071.175-.035C256.284,2.237,255.934,2.272,255.934,2.237Zm1.051.035c-.175-.035.175-.071.175-.035C257.335,2.272,257.16,2.308,256.985,2.272Zm3.679,0a2.68,2.68,0,0,1,.7-.035h.7a2.679,2.679,0,0,1-.7.035Zm152.921.212c-.175-.035.175-.071.175-.035C413.935,2.484,413.585,2.52,413.585,2.484Zm4.2,0a1.856,1.856,0,0,1,.525-.035h.7a1.856,1.856,0,0,1-.526.035Zm3.678,0c-.175-.035.175-.071.175-.035C421.818,2.484,421.467,2.52,421.467,2.484Zm1.577-.035c.35.071,1.577,0,1.577.177-1.051.035-1.4-.071-2.277,0C422.168,2.52,423.219,2.591,423.044,2.449Zm-8.058.106c-.175-.035.175-.071.175-.035C415.336,2.52,414.986,2.555,414.986,2.555Zm12.086,0c-.175-.035.175-.071.175-.035Zm2.452.071a3.587,3.587,0,0,1,1.752,0c.35,0,.175-.106.525-.142a5.879,5.879,0,0,0,1.577,0c.526.106,1.927,0,2.452.071-.175.106-1.226,0-1.4.071h-1.4a3.037,3.037,0,0,1-.7-.071,3.713,3.713,0,0,1-1.051.071V2.591C430.576,2.626,430.05,2.626,429.525,2.626Zm7.707-.071a1.855,1.855,0,0,1,.525-.035C437.758,2.555,437.408,2.52,437.232,2.555Zm-26.626.035c-.175-.035.175-.071.175-.035C410.957,2.555,410.782,2.591,410.607,2.591Zm5.43,0a1.856,1.856,0,0,1,.526-.035A1.856,1.856,0,0,1,416.037,2.591Zm11.386,0a10.268,10.268,0,0,1-1.576.035c-.35,0-1.577,0-.876-.035A18.848,18.848,0,0,1,427.423,2.591Zm.526,0a1.856,1.856,0,0,1,.525-.035A2.625,2.625,0,0,1,427.949,2.591Zm.876,0a1.857,1.857,0,0,1,.526-.035A2.626,2.626,0,0,1,428.824,2.591Zm29.078,0c.175-.071.175,0,.525,0A1.234,1.234,0,0,1,457.9,2.591Zm-37.661.035c-.175-.035.175-.071.175-.035C420.591,2.591,420.416,2.626,420.241,2.626Zm.876,0a1.856,1.856,0,0,1,.525-.035A1.856,1.856,0,0,1,421.117,2.626Zm14.889,0a2.68,2.68,0,0,1,.7-.035A4.651,4.651,0,0,1,436.006,2.626Zm-25.75.035a1.856,1.856,0,0,1,.525-.035A2.625,2.625,0,0,1,410.257,2.661Zm1.226-.035a3.037,3.037,0,0,1-.7.071A3.037,3.037,0,0,1,411.483,2.626Zm27.5.354c0,.106-.876.035-1.4.035-2.277-.035-4.029.035-6.306,0h-.525c-.175-.035-.35,0-1.4,0-.35,0-.7-.035-.876-.035-.35,0-.35.035-.7.035-.175,0-.35-.035-.526-.035-.35,0-.7.035-1.4.035s-1.577-.035-2.452,0c-1.4-.071-2.8-.106-4.554-.071,0-.035.175-.035.175-.035a3.039,3.039,0,0,1,.7-.071,1.314,1.314,0,0,0,.526,0c.876.035,1.051.071,1.576.071a15.758,15.758,0,0,1,1.927.035c0-.071.525-.035.876-.035h.876C429.875,3.015,435.306,2.838,438.984,2.98Zm-21.9-.106a1.856,1.856,0,0,1,.526-.035A1.856,1.856,0,0,1,417.088,2.874Zm1.576-.035h.526v.071h-.526Zm20.67.142c.175-.142.525.035.876,0C440.21,3.086,439.51,2.98,439.334,2.98Zm-412.17,0c-.35.071-.35.212-.7.248-.7.035-.7-.106-.7-.212A5.9,5.9,0,0,1,27.165,2.98Zm417.425.035a1.856,1.856,0,0,1,.525-.035A1.855,1.855,0,0,1,444.589,3.015ZM25.938,3.44c0,.106-1.051,0-1.051.071-.7-.071-1.051.035-2.1,0-.35-.177,1.4,0,1.4-.142C24.887,3.44,25.238,3.369,25.938,3.44Zm423.205.425c-1.226-.035-2.277-.106-3.854-.071a22.139,22.139,0,0,0-2.628-.035,1.856,1.856,0,0,0-.526-.035,27.362,27.362,0,0,1,3.153-.035c.526-.035.526.071,1.051.035.35,0,.876-.035.876.035C448.093,3.723,449.144,3.723,449.144,3.865Zm.35-.212c-.175-.035.175-.071.175-.035C449.844,3.617,449.669,3.652,449.494,3.652Zm-9.109.035a1.856,1.856,0,0,1,.526-.035A1.856,1.856,0,0,1,440.385,3.688ZM242.1,3.723c0-.071.526-.035.526,0C242.271,3.758,242.1,3.794,242.1,3.723Zm0,.142c-.175-.035.175-.071.175-.035C242.446,3.829,242.1,3.865,242.1,3.865Zm-229.47.425c0-.035.175-.071.35-.035A2.028,2.028,0,0,1,12.626,4.289Zm424.957.177c0,.106-.525.106-.876.035-.526.035-1.051.071-1.577.142-1.226-.071-1.4,0-3.153-.035a1.524,1.524,0,0,1-.525-.071C433.028,4.4,435.481,4.466,437.583,4.466Zm2.452.106c0,.177-1.4.035-1.927.071h-2.452c0-.071.7,0,.7-.071.7.035.526,0,1.051.035.525-.035.525,0,1.4-.035A4.687,4.687,0,0,1,440.035,4.572Zm1.927.035a14.139,14.139,0,0,0-1.752,0A4.857,4.857,0,0,1,441.962,4.608Zm8.934.142c-.175-.035.175-.071.175-.035C451.246,4.714,450.9,4.749,450.9,4.749ZM16.83,4.82c-.175-.035.175-.071.175-.035C17.18,4.82,17,4.855,16.83,4.82ZM453.873,5.882c.7-.035.7.071,1.4.035C454.924,5.988,453.7,6.094,453.873,5.882Zm-7.357.106a1.856,1.856,0,0,1,.525-.035h.7a1.855,1.855,0,0,1-.525.035Zm3.678,0c-.175-.035.175-.071.175-.035C450.545,5.952,450.37,5.988,450.195,5.988Zm.876,0a1.856,1.856,0,0,1,.525-.035C451.6,5.988,451.246,5.952,451.071,5.988Zm.7,0a1.855,1.855,0,0,1,.525-.035C452.3,5.988,451.947,5.952,451.771,5.988Zm3.678.212c-.175-.035.175-.071.175-.035C455.8,6.165,455.45,6.2,455.45,6.2Zm13.838.248a11.341,11.341,0,0,1-2.628.071c-1.226-.071-1.927,0-3.5-.035-.175,0-.175.071-.175.142-.525.035-.35-.071-.525-.142-.876-.035-.7.106-1.4.071-1.576-.035-3.153-.106-4.9-.142V6.271c-.526,0-.35.106-.876.071,0-.106.175-.142.7-.142.35.035,1.226-.035,1.051.035a4.918,4.918,0,0,0,.7-.142c.175,0,.175,0,.175.035.35.035,1.4-.035,1.4.035.175-.106,1.576.035,1.752-.071.876.035,1.226.035,2.628.035.35,0,.35.035.7.035h1.927a9.661,9.661,0,0,0,1.752.035C468.062,6.448,468.938,6.413,469.288,6.448Zm-14.714-.106c-.175-.035.175-.071.175-.035C454.924,6.342,454.574,6.377,454.574,6.342ZM7.9,8.783a1.856,1.856,0,0,1,.525-.035A1.856,1.856,0,0,1,7.9,8.783Zm466.122.425c-.526-.035-.35.071-.7.071h-2.628c-.7-.035-1.4-.071-2.452-.035-.35-.035-.876-.035-1.4-.071s-2.277-.071-3.328-.142c.7-.142,1.577,0,2.452-.071,1.051.071,1.752-.035,3.153,0,0-.106-.876-.035-1.4-.035h-1.4c-.876-.035-1.752-.071-2.978-.035a3.038,3.038,0,0,1,.7-.071c2.628.035,5.781.035,8.583.071v.142C473.667,8.96,473.842,9.067,474.018,9.208ZM224.228,8.96c-.175-.035.175-.071.175-.035C224.579,8.925,224.228,8.96,224.228,8.96Zm250.84.318a1.856,1.856,0,0,1,.526-.035A1.856,1.856,0,0,1,475.069,9.279Zm-10.51.106c.35-.106,1.752,0,2.452-.035.175.142-.7.071-1.051.071C465.434,9.42,464.909,9.42,464.559,9.385Zm2.628.035a1.856,1.856,0,0,1,.525-.035h.7a1.856,1.856,0,0,1-.526.035ZM8.246,11.048c-.175-.035.175-.071.175-.035C8.6,11.048,8.246,11.084,8.246,11.048Zm.7,0a1.856,1.856,0,0,1,.525-.035A2.626,2.626,0,0,1,8.947,11.048Zm441.6,4.1a3.443,3.443,0,0,1-1.4.035,11.393,11.393,0,0,1-1.576,0h-3.854c-.35,0-.525-.035-.876-.035a1.384,1.384,0,0,0-.7-.071c-2.8,0-5.956.035-8.583-.035-.525.071-2.452-.106-2.978,0-.35.106-.7-.106-1.051,0a2.01,2.01,0,0,1-.7.035,12.413,12.413,0,0,0-1.4-.035s-.175.071-.175.035c-.35-.106-3.854-.035-4.73,0h-.876a8.937,8.937,0,0,0-1.4,0c-.175,0-.35-.035-.7-.035,0,0,0,.035-.175.035-1.051,0-3.5,0-4.73-.035-.35,0-.525.035-.876.035s-.7-.035-1.051-.035c-.876.035-2.1-.035-3.5,0h-3.854c-.876,0-1.4-.071-2.452-.035,0,.106-.35-.071-.876,0-2.1,0-4.379,0-6.306.035-.175-.177,1.226-.035,1.752-.071H399.4c1.226-.035,2.978.035,3.854-.035,1.927.071,2.628,0,4.554.035.876,0,1.927-.035,2.452.035.525-.142,1.577.106,1.927-.035.876-.035,1.577.106,2.628.035a3.6,3.6,0,0,1,.7-.035c.7.035,2.8.035,4.2.035.525,0,.525-.035.876-.035.175,0,.35.035.7.035,2.277,0,5.43.035,8.058,0,.7,0,1.226-.035,1.752-.035h.7s.35.035.175.035c.35,0,.35-.035.7-.035.525,0,1.226.035,1.752.035a1.206,1.206,0,0,1,.526-.035s0,.035.175.035c0,0,1.577.035,1.752,0a3.984,3.984,0,0,1,.7,0h4.029C444.94,15.047,447.567,15.012,450.545,15.153Zm-83.03-.142a2.679,2.679,0,0,1,.7-.035h2.277a2.68,2.68,0,0,1-.7.035h-2.277Zm4.029.035c0-.071.526-.035.876-.035s.35-.035.7-.035c1.927.035,4.029,0,5.956,0,.526,0,1.051.035,1.577.035,4.379.071,8.758-.106,13.138-.035h1.4c.35.035-.175.035-.526.035-4.379.106-10.16-.035-14.539.071C377.675,15.012,374.347,15.082,371.544,15.047Zm-59.032.106c0-.071.525-.035.525,0C312.688,15.153,312.513,15.189,312.513,15.153Zm122.618,0c-.175-.035.175-.071.175-.035Zm-118.589.035c-.175-.035.175-.071.175-.035C316.892,15.153,316.542,15.189,316.542,15.189Zm-296.559.071a1.856,1.856,0,0,1,.526-.035h.525A4.752,4.752,0,0,1,19.983,15.259Zm402.711.035a1.856,1.856,0,0,1,.526-.035A1.856,1.856,0,0,1,422.693,15.295Zm1.576-.035a5.912,5.912,0,0,0,.876.035C425.321,15.366,423.92,15.366,424.27,15.259Zm-19.619.106c-.175-.035.175-.071.175-.035C405,15.33,404.651,15.366,404.651,15.366Zm8.934,0c-.175-.035.175-.071.175-.035C413.935,15.33,413.585,15.366,413.585,15.366Zm-103.7.035c-.175-.035.175-.071.175-.035C310.236,15.366,309.885,15.4,309.885,15.4Zm112.107-.035a3.037,3.037,0,0,1-.7.071C421.292,15.33,421.642,15.366,421.993,15.366Zm8.758.035c-.175-.035.175-.071.175-.035C431.1,15.366,430.926,15.4,430.751,15.4Zm-239.8.035c-.175-.035.175-.071.175-.035C191.3,15.4,190.946,15.436,190.946,15.436Zm125.07,0c-.175-.035.175-.071.175-.035C316.367,15.4,316.191,15.436,316.016,15.436Zm3.679-.035a3.037,3.037,0,0,1-.7.071A3.038,3.038,0,0,1,319.695,15.4Zm3.854.035a2.68,2.68,0,0,1,.7-.035A4.648,4.648,0,0,1,323.548,15.436Zm97.218,0a1.855,1.855,0,0,1,.525-.035A2.625,2.625,0,0,1,420.767,15.436Zm18.743,0c0-.071.526-.035.876-.035.175.106-.35.071-.525.142C439.685,15.507,439.86,15.436,439.51,15.436Zm-150.294.035a1.856,1.856,0,0,1,.525-.035A1.855,1.855,0,0,1,289.216,15.472Zm8.233,0c-.175-.035.175-.071.175-.035C297.8,15.472,297.624,15.472,297.448,15.472Zm27.5,0c1.051-.035.175.142,0,0C323.9,15.507,324.775,15.33,324.95,15.472Zm33.632,0c0-.035.175-.035.175,0S358.582,15.507,358.582,15.472Zm66.213,0a1.856,1.856,0,0,1,.525-.035A2.625,2.625,0,0,1,424.8,15.472Zm17.166,0a2.68,2.68,0,0,1,.7-.035A2.68,2.68,0,0,1,441.962,15.472Zm1.051,0a1.855,1.855,0,0,1,.525-.035A1.855,1.855,0,0,1,443.013,15.472Zm-119.465.035a1.856,1.856,0,0,1,.526-.035A2.625,2.625,0,0,1,323.548,15.507Zm76.2,0c-.175-.035.175-.071.175-.035C400.1,15.507,399.746,15.543,399.746,15.507Zm38.887,0c0-.035.175-.035.175,0C438.809,15.578,438.634,15.543,438.634,15.507Zm5.781-.035a3.038,3.038,0,0,1-.7.071C443.714,15.472,444.064,15.472,444.414,15.472Zm-55.7.035c.175.248-1.226-.035-1.4.177-.35,0-.35-.071-.7-.071a2.4,2.4,0,0,0-.7.142c-.35,0-.35-.035-.7-.035-.526.035-2.978.142-2.628-.142,1.051,0,.876.035,1.752,0,0,.035-.175.035-.175.071,0,.106.526-.071,1.051,0,.175,0,.175-.035.175-.071C386.959,15.578,387.485,15.507,388.711,15.507Zm46.069.071c-.175-.035.175-.071.175-.035C435.13,15.543,434.955,15.578,434.78,15.578Zm7.357,0a2.679,2.679,0,0,1,.7-.035C442.838,15.578,442.487,15.543,442.137,15.578Z" transform="translate(4.049 1.696)" fill="#fff100"/>
  <path id="Tracé_50" data-name="Tracé 50" d="M.038.054C-.051.009.038.009.082.009H.571C.748-.035.7.1.837.054.926.1,1.192.009,1.192.1h-.4C.615.142.659.009.526.054Z" transform="translate(347.529 1.696)" fill="#fff100"/>
  <path id="Tracé_51" data-name="Tracé 51" d="M.012.063C-.032.018.057-.026.057.018.1.063.057.063.012.063Z" transform="translate(171.559 1.731)" fill="#fff100"/>
  <path id="Tracé_52" data-name="Tracé 52" d="M.012.063C-.032.018.057-.026.057.018.1.063.012.063.012.063Z" transform="translate(202.169 1.731)" fill="#fff100"/>
  <path id="Tracé_53" data-name="Tracé 53" d="M0,.044C0,0,.089,0,.133,0A.163.163,0,0,1,0,.044Z" transform="translate(350.812 1.75)" fill="#fff100"/>
  <path id="Tracé_54" data-name="Tracé 54" d="M.276.017C.32.151.009-.027.054.106-.124.017.187-.027.276.017Z" transform="translate(351.935 1.732)" fill="#fff100"/>
  <path id="Tracé_55" data-name="Tracé 55" d="M.012.063C-.032.018.057-.026.057.018.1.063.057.107.012.063Z" transform="translate(173.27 1.776)" fill="#fff100"/>
  <path id="Tracé_56" data-name="Tracé 56" d="M0,.044C0,0,.089,0,.133,0,.133.044.044.044,0,.044Z" transform="translate(206.571 1.794)" fill="#fff100"/>
  <path id="Tracé_57" data-name="Tracé 57" d="M.012.009A12.244,12.244,0,0,0,1.3.009c.044.133-.266-.044-.222.089C.9.009.544.143.189.1.056.1-.033.143.012.009Z" transform="translate(308.578 1.785)" fill="#fff100"/>
  <path id="Tracé_58" data-name="Tracé 58" d="M0,.044C0,0,.089,0,.133,0H.311C.311.044.222.044.178.044Z" transform="translate(313.839 1.794)" fill="#fff100"/>
  <path id="Tracé_59" data-name="Tracé 59" d="M0,.044C0,0,.089,0,.178,0H1.731c-.044.133-.266,0-.4.044H0Z" transform="translate(318.221 1.794)" fill="#fff100"/>
  <path id="Tracé_60" data-name="Tracé 60" d="M5.179.173c0,.133-.222.044-.266.044-.178-.089-.266.044-.488,0C4.335.217,4.2.261,4.2.173A4.1,4.1,0,0,1,3.181.128,7.867,7.867,0,0,0,2.116.173,9.2,9.2,0,0,0,.518.128H.029C-.06.084.074.084.162.084H.917c.178.044.222-.089.4-.044h.222c0-.044.044-.044.044,0,.178-.089.266,0,.577,0h.755C3.625.084,4.468.084,5.179.173Z" transform="translate(332.251 1.843)" fill="#fff100"/>
  <path id="Tracé_61" data-name="Tracé 61" d="M0,.044C0,0,.089,0,.133,0,.133.044.044.044,0,.044Z" transform="translate(353.55 1.794)" fill="#fff100"/>
  <path id="Tracé_62" data-name="Tracé 62" d="M.012.063C-.032.018.057-.026.057.018.1.063.012.107.012.063Z" transform="translate(354.566 1.776)" fill="#fff100"/>
  <path id="Tracé_63" data-name="Tracé 63" d="M0,.044C0,0,.089,0,.178,0,.133.089.044.044,0,.044Z" transform="translate(355.524 1.794)" fill="#fff100"/>
  <path id="Tracé_64" data-name="Tracé 64" d="M.012.063C-.032.018.057-.026.057.018.1.063.012.107.012.063Z" transform="translate(469.17 1.776)" fill="#fff100"/>
  <path id="Tracé_65" data-name="Tracé 65" d="M.012.063C-.032.018.057-.026.057.018.1.063.012.107.012.063Z" transform="translate(470.191 1.776)" fill="#fff100"/>
  <path id="Tracé_66" data-name="Tracé 66" d="M.012.063C-.032.018.057-.026.057.018.1.018.012.063.012.063Z" transform="translate(131.017 1.864)" fill="#fff100"/>
  <path id="Tracé_67" data-name="Tracé 67" d="M.012.063C-.032.018.057-.026.057.018.1.018.057.063.012.063Z" transform="translate(295.739 1.864)" fill="#fff100"/>
  <path id="Tracé_68" data-name="Tracé 68" d="M0,0C.133,0,.133.133.133.266A.268.268,0,0,1,0,0Z" transform="translate(468.162 1.838)" fill="#fff100"/>
  <path id="Tracé_69" data-name="Tracé 69" d="M.444.061A.757.757,0,0,1,0,.061C.044-.072.311.061.444.017Z" transform="translate(211.406 1.911)" fill="#fff100"/>
  <path id="Tracé_70" data-name="Tracé 70" d="M.012.063C-.032.018.057-.026.057.018.1.018.057.063.012.063Z" transform="translate(305.831 1.909)" fill="#fff100"/>
  <path id="Tracé_71" data-name="Tracé 71" d="M.151.009H.373C.373.054.284.054.2.054.017.1-.116-.035.151.009Z" transform="translate(318.169 1.918)" fill="#fff100"/>
  <path id="Tracé_72" data-name="Tracé 72" d="M0,.044C0,0,.089,0,.133,0h.4C.533.089.4.044.311.044Z" transform="translate(320.081 1.927)" fill="#fff100"/>
  <path id="Tracé_73" data-name="Tracé 73" d="M0,0H.133V.089H0Z" transform="translate(468.561 1.927)" fill="#fff100"/>
  <path id="Tracé_74" data-name="Tracé 74" d="M0,0C.089,0,.044.044,0,0Z" transform="translate(212.628 1.972)" fill="#fff100"/>
  <path id="Tracé_75" data-name="Tracé 75" d="M.012.063C-.032.018.057-.026.057.018.1.018.057.063.012.063Z" transform="translate(213.466 1.953)" fill="#fff100"/>
  <path id="Tracé_76" data-name="Tracé 76" d="M.012.063C-.032.018.057-.026.057.018.1.018.012.063.012.063Z" transform="translate(214.655 1.953)" fill="#fff100"/>
  <path id="Tracé_77" data-name="Tracé 77" d="M.012.063C-.032.018.057-.026.057.018.1.018.057.063.012.063Z" transform="translate(215.005 1.953)" fill="#fff100"/>
  <path id="Tracé_78" data-name="Tracé 78" d="M0,.044C0,0,.089,0,.178,0,.178.044.089.044,0,.044Z" transform="translate(296.478 2.016)" fill="#fff100"/>
  <path id="Tracé_79" data-name="Tracé 79" d="M.355,0A.252.252,0,0,1,0,.222.231.231,0,0,1,.178.133C.222.044.266,0,.355,0Z" transform="translate(466.963 2.016)" fill="#fff100"/>
  <path id="Tracé_80" data-name="Tracé 80" d="M.012.063C-.032.018.057-.026.057.018.1.063.057.063.012.063Z" transform="translate(473.343 1.998)" fill="#fff100"/>
  <path id="Tracé_81" data-name="Tracé 81" d="M.012.063C-.032.018.057-.026.057.018.1.063.057.063.012.063Z" transform="translate(476.007 1.998)" fill="#fff100"/>
  <path id="Tracé_82" data-name="Tracé 82" d="M0,.044C0,0,.089,0,.133,0,.133.044.044.044,0,.044Z" transform="translate(293.321 2.06)" fill="#fff100"/>
  <path id="Tracé_83" data-name="Tracé 83" d="M.012.063C-.032.018.057-.026.057.018.1.018.057.063.012.063Z" transform="translate(218.255 2.131)" fill="#fff100"/>
  <path id="Tracé_84" data-name="Tracé 84" d="M.11,0H.244C.244.178-.2,0,.11,0Z" transform="translate(279.388 2.105)" fill="#fff100"/>
  <path id="Tracé_85" data-name="Tracé 85" d="M.11,0H.244C.244.178-.2,0,.11,0Z" transform="translate(288.12 2.105)" fill="#fff100"/>
  <path id="Tracé_86" data-name="Tracé 86" d="M.012.063C-.032.018.057-.026.057.018.1.018.012.063.012.063Z" transform="translate(302.399 2.131)" fill="#fff100"/>
  <path id="Tracé_87" data-name="Tracé 87" d="M0,.07c.089-.178.266.044.4,0C.311.2.133.026,0,.07Z" transform="translate(316.402 2.168)" fill="#fff100"/>
  <path id="Tracé_88" data-name="Tracé 88" d="M0,.044C0,0,.089,0,.133,0,.133.044.044,0,0,.044Z" transform="translate(468.828 2.194)" fill="#fff100"/>
  <path id="Tracé_89" data-name="Tracé 89" d="M0,.051c0-.089.133-.044.133,0C.089.1.089.051,0,.051Z" transform="translate(469.005 2.187)" fill="#fff100"/>
  <path id="Tracé_90" data-name="Tracé 90" d="M0,.061C.044-.072.266.061.4.017.355.105.089.017,0,.061Z" transform="translate(212.036 2.221)" fill="#fff100"/>
  <path id="Tracé_91" data-name="Tracé 91" d="M0,.044C0,0,.089,0,.178,0,.178.044.044.044,0,.044Z" transform="translate(248.214 2.238)" fill="#fff100"/>
  <path id="Tracé_92" data-name="Tracé 92" d="M.1,0H.5C.5.089.364.044.275.044.186.089-.169,0,.1,0Z" transform="translate(296.146 2.238)" fill="#fff100"/>
  <path id="Tracé_93" data-name="Tracé 93" d="M.1,0H.5C.5.089.371.044.282.044.149.089-.162,0,.1,0Z" transform="translate(298.874 2.238)" fill="#fff100"/>
  <path id="Tracé_94" data-name="Tracé 94" d="M.769,0C.769.089.636.044.547.044S.5.178.414.222C.237.266.326.133.414.133.414,0,.192.133.059.089-.118,0,.148.044.281.044A2.39,2.39,0,0,1,.769,0Z" transform="translate(314.117 2.238)" fill="#fff100"/>
  <path id="Tracé_95" data-name="Tracé 95" d="M0,.073C0-.06.222.029.266.029H.533C.533.162.311.073.266.073Z" transform="translate(318.537 2.209)" fill="#fff100"/>
  <path id="Tracé_96" data-name="Tracé 96" d="M.11,0H.244C.244.133-.2,0,.11,0Z" transform="translate(302.502 2.282)" fill="#fff100"/>
  <path id="Tracé_97" data-name="Tracé 97" d="M0,.044C0,0,.089,0,.178,0H.71C.71.133.488.044.355.044Z" transform="translate(305.995 2.282)" fill="#fff100"/>
  <path id="Tracé_98" data-name="Tracé 98" d="M0,.044C0,0,.089,0,.133,0H.977C.977.089.843.044.755.044H0Z" transform="translate(309.229 2.282)" fill="#fff100"/>
  <path id="Tracé_99" data-name="Tracé 99" d="M.012.063C-.032.018.057-.026.057.018.1.063.057.063.012.063Z" transform="translate(320.198 2.264)" fill="#fff100"/>
  <path id="Tracé_100" data-name="Tracé 100" d="M.066.1C-.111.056.11-.032.244.012c.089,0,.133.044.044.044H.11C.066.012.066.056.066.1Z" transform="translate(287.078 2.359)" fill="#fff100"/>
  <path id="Tracé_101" data-name="Tracé 101" d="M0,.051c0-.089.133-.044.133,0C.044.1,0,.14,0,.051Z" transform="translate(315.051 2.32)" fill="#fff100"/>
  <path id="Tracé_102" data-name="Tracé 102" d="M.012.063C-.032.018.057-.026.057.018.1.063.012.107.012.063Z" transform="translate(315.74 2.308)" fill="#fff100"/>
  <path id="Tracé_103" data-name="Tracé 103" d="M0,.1C0-.037.178.007.355.007.622.007.311.1.178.051.133.051.089.1,0,.1Z" transform="translate(307.428 2.408)" fill="#fff100"/>
  <path id="Tracé_104" data-name="Tracé 104" d="M0,.044C0,0,.089,0,.178,0,.133.044.044,0,0,.044Z" transform="translate(308.972 2.416)" fill="#fff100"/>
  <path id="Tracé_105" data-name="Tracé 105" d="M0,.051c0-.089.133-.044.133,0C.089.1.044.007,0,.051Z" transform="translate(310.602 2.409)" fill="#fff100"/>
  <path id="Tracé_106" data-name="Tracé 106" d="M.123,0H.478C.478.089.345.044.256.044.079.089-.143,0,.123,0Z" transform="translate(312.13 2.371)" fill="#fff100"/>
  <path id="Tracé_107" data-name="Tracé 107" d="M.012.063C-.032.018.057-.026.057.018.1.018.012.063.012.063Z" transform="translate(313.346 2.397)" fill="#fff100"/>
  <path id="Tracé_108" data-name="Tracé 108" d="M0,.033c0-.044.044-.044.044,0Z" transform="translate(188.165 2.471)" fill="#fff100"/>
  <path id="Tracé_109" data-name="Tracé 109" d="M.4.078C.4.211.089.211,0,.122.089-.055.222-.011.4.078Z" transform="translate(387.179 2.471)" fill="#fff100"/>
  <path id="Tracé_110" data-name="Tracé 110" d="M0,.044C0,0,.089,0,.133,0,.089.044.044,0,0,.044Z" transform="translate(467.674 2.46)" fill="#fff100"/>
  <path id="Tracé_111" data-name="Tracé 111" d="M0,.033c0-.044.044-.044.044,0S0,.078,0,.033Z" transform="translate(468.162 2.515)" fill="#fff100"/>
  <path id="Tracé_112" data-name="Tracé 112" d="M.012.063C-.032.018.057-.026.057.018.1.063.012.107.012.063Z" transform="translate(333.186 2.575)" fill="#fff100"/>
  <path id="Tracé_113" data-name="Tracé 113" d="M.012.063C-.032.018.057-.026.057.018.1.063.012.107.012.063Z" transform="translate(467.262 2.575)" fill="#fff100"/>
  <path id="Tracé_114" data-name="Tracé 114" d="M0,.051c0-.089.133-.044.133,0,.089,0,.4,0,.222.044C.178.1.044.1,0,.051Z" transform="translate(334.758 2.675)" fill="#fff100"/>
  <path id="Tracé_115" data-name="Tracé 115" d="M0,.044C0,0,.089,0,.178,0,.178.044.089.044,0,.044Z" transform="translate(333.104 2.726)" fill="#fff100"/>
  <path id="Tracé_116" data-name="Tracé 116" d="M0,.044C0,0,.089,0,.178,0A.249.249,0,0,1,.222.266C-.089.311.089.089,0,.044Z" transform="translate(467.318 2.726)" fill="#fff100"/>
  <path id="Tracé_117" data-name="Tracé 117" d="M.012.063C-.032.018.057-.026.057.018.1.018.057.063.012.063Z" transform="translate(4.972 2.752)" fill="#fff100"/>
  <path id="Tracé_118" data-name="Tracé 118" d="M.012.063C-.032.018.057-.026.057.018.1.018.057.063.012.063Z" transform="translate(467.972 2.752)" fill="#fff100"/>
  <path id="Tracé_119" data-name="Tracé 119" d="M1.6.19C1.065.1.4.146,0,.1A.231.231,0,0,1,.178.012C.311-.032.355.057.444.057A.1.1,0,0,1,.577.012c.044,0,0,.044.044.044H.8C.843.057.843.012.932.012L.977.057H1.2A.244.244,0,0,1,1.6.19Z" transform="translate(381.483 2.847)" fill="#fff100"/>
  <path id="Tracé_120" data-name="Tracé 120" d="M0,.062C0-.027.311-.027.222.106A.333.333,0,0,0,0,.062Z" transform="translate(385.099 2.798)" fill="#fff100"/>
  <path id="Tracé_121" data-name="Tracé 121" d="M0,.044C0,0,.089,0,.178,0,.133.044.044,0,0,.044Z" transform="translate(108.214 2.948)" fill="#fff100"/>
  <path id="Tracé_122" data-name="Tracé 122" d="M0,.07c0-.178.222.044,0,0Z" transform="translate(469.183 2.923)" fill="#fff100"/>
  <path id="Tracé_123" data-name="Tracé 123" d="M0,0H.222C.266.178.089.089,0,.089Z" transform="translate(470.071 2.904)" fill="#fff100"/>
  <path id="Tracé_124" data-name="Tracé 124" d="M.012.063C-.032.018.057-.026.057.018.1.018.057.063.012.063Z" transform="translate(106.049 2.974)" fill="#fff100"/>
  <path id="Tracé_125" data-name="Tracé 125" d="M0,.061C0-.072.222.061.355.017.311.194.222.017,0,.061Z" transform="translate(287.536 2.976)" fill="#fff100"/>
  <path id="Tracé_126" data-name="Tracé 126" d="M.012.063C-.032.018.057-.026.057.018.1.018.057.063.012.063Z" transform="translate(462.689 2.974)" fill="#fff100"/>
  <path id="Tracé_127" data-name="Tracé 127" d="M.029.038c.044-.089.044,0,.044.044C-.015.082-.015.038.029.038Z" transform="translate(469.953 3.043)" fill="#fff100"/>
  <path id="Tracé_128" data-name="Tracé 128" d="M.012.063C-.032.018.057-.026.057.018.1.063.012.063.012.063Z" transform="translate(464.864 3.063)" fill="#fff100"/>
  <path id="Tracé_129" data-name="Tracé 129" d="M.044,0H.178C.222.133.089.089,0,.089,0,.044.044.044.044,0Z" transform="translate(465.099 3.081)" fill="#fff100"/>
  <path id="Tracé_130" data-name="Tracé 130" d="M0,.033c0-.044.044-.044.044,0Z" transform="translate(297.614 3.181)" fill="#fff100"/>
  <path id="Tracé_131" data-name="Tracé 131" d="M.044,0C.044.044,0,.044,0,0Z" transform="translate(267.516 3.215)" fill="#fff100"/>
  <path id="Tracé_132" data-name="Tracé 132" d="M.039,0c0,.089-.089.044,0,0Z" transform="translate(297.454 3.215)" fill="#fff100"/>
  <path id="Tracé_133" data-name="Tracé 133" d="M.4.044C.266,0,.044.089,0,0,.089.044.355-.044.4.044Z" transform="translate(479.393 3.659)" fill="#fff100"/>
  <path id="Tracé_134" data-name="Tracé 134" d="M0,.02c0-.044.089,0,0,0Z" transform="translate(479.837 3.683)" fill="#fff100"/>
  <path id="Tracé_135" data-name="Tracé 135" d="M0,0H.044C.044.044,0,.089,0,0Z" transform="translate(479.792 3.703)" fill="#fff100"/>
  <path id="Tracé_136" data-name="Tracé 136" d="M0,.044C0,0,.089,0,.133,0H.311C.311.044.222.044.178.044Z" transform="translate(479.97 3.703)" fill="#fff100"/>
  <path id="Tracé_137" data-name="Tracé 137" d="M.012.063C-.032.018.057-.026.057.018.1.063.057.107.012.063Z" transform="translate(480.268 3.685)" fill="#fff100"/>
  <path id="Tracé_138" data-name="Tracé 138" d="M.012.063C-.032.018.057-.026.057.018.1.018.057.063.012.063Z" transform="translate(480.712 3.773)" fill="#fff100"/>
  <path id="Tracé_139" data-name="Tracé 139" d="M.012.063C-.032.018.057-.026.057.018.1.063.012.107.012.063Z" transform="translate(291.281 4.217)" fill="#fff100"/>
  <path id="Tracé_140" data-name="Tracé 140" d="M.012.063C-.032.018.057-.026.057.018.1.063.012.107.012.063Z" transform="translate(292.308 4.217)" fill="#fff100"/>
  <path id="Tracé_141" data-name="Tracé 141" d="M.012.063C-.032.018.057-.026.057.018.1.018.057.063.012.063Z" transform="translate(463.044 4.35)" fill="#fff100"/>
  <path id="Tracé_142" data-name="Tracé 142" d="M0,.044C0,0,.089,0,.178,0A.267.267,0,0,1,0,.044Z" transform="translate(481.834 4.413)" fill="#fff100"/>
  <path id="Tracé_143" data-name="Tracé 143" d="M0,.044C0,0,.089,0,.178,0,.178.044.089,0,0,.044Z" transform="translate(463.678 3.775)" fill="#fff100"/>
  <path id="Tracé_144" data-name="Tracé 144" d="M0,.059c.044-.133.222,0,.355,0C.266.192.178-.03,0,.059Z" transform="translate(463.9 3.76)" fill="#fff100"/>
  <path id="Tracé_145" data-name="Tracé 145" d="M0,.073C0-.06.222.029.355.029.444.118.8-.015.8.207.71.118.621.251.533.162.355.207.311.073.133.118A.163.163,0,0,0,0,.073Z" transform="translate(480.503 3.745)" fill="#fff100"/>
  <path id="Tracé_146" data-name="Tracé 146" d="M.012.063C-.032.018.057-.026.057.018.1.018.057.063.012.063Z" transform="translate(464.509 3.795)" fill="#fff100"/>
  <path id="Tracé_147" data-name="Tracé 147" d="M0,0C.044.044.089.044.178.044.133.133.089.178,0,.089Z" transform="translate(9.823 3.844)" fill="#fff100"/>
  <path id="Tracé_148" data-name="Tracé 148" d="M0,.044C0,0,.089,0,.133,0,.133.044.044.044,0,.044Z" transform="translate(464.122 3.884)" fill="#fff100"/>
  <path id="Tracé_149" data-name="Tracé 149" d="M.012.063C-.032.018.057-.026.057.018.1.018.012.063.012.063Z" transform="translate(0 4.051)" fill="#fff100"/>
  <path id="Tracé_150" data-name="Tracé 150" d="M.133.009H.311C.311.054.222.054.133.054-.044.1-.044-.035.133.009Z" transform="translate(481.79 4.095)" fill="#fff100"/>
  <path id="Tracé_151" data-name="Tracé 151" d="M0,.044C0,0,.089,0,.133,0,.133.044.044.044,0,.044Z" transform="translate(480.281 4.541)" fill="#fff100"/>
  <path id="Tracé_152" data-name="Tracé 152" d="M.012.063C-.032.018.057-.026.057.018.1.018.012.063.012.063Z" transform="translate(483.509 5.146)" fill="#fff100"/>
  <path id="Tracé_153" data-name="Tracé 153" d="M.012.063C-.032.018.057-.026.057.018.1.063.057.107.012.063Z" transform="translate(479.247 5.218)" fill="#fff100"/>
  <path id="Tracé_154" data-name="Tracé 154" d="M0,.033c0-.044.044-.044.044,0Z" transform="translate(478.594 5.317)" fill="#fff100"/>
  <path id="Tracé_155" data-name="Tracé 155" d="M0,.044C0,0,.089,0,.133,0,.089.044.044,0,0,.044Z" transform="translate(484.542 5.308)" fill="#fff100"/>
  <path id="Tracé_156" data-name="Tracé 156" d="M0,.013c.089-.044.044.044,0,0Z" transform="translate(478.638 5.335)" fill="#fff100"/>
  <path id="Tracé_157" data-name="Tracé 157" d="M0,.044C0,0,.089,0,.133,0,.133.044.044.044,0,.044Z" transform="translate(478.816 5.344)" fill="#fff100"/>
  <path id="Tracé_158" data-name="Tracé 158" d="M0,.044C0,0,.089,0,.133,0,.133.044.044,0,0,.044Z" transform="translate(6.627 5.746)" fill="#fff100"/>
  <path id="Tracé_159" data-name="Tracé 159" d="M0,.062C0-.027.311-.027.222.106A.9.9,0,0,1,0,.062Z" transform="translate(7.159 5.947)" fill="#fff100"/>
  <path id="Tracé_160" data-name="Tracé 160" d="M.012.063C-.032.018.057-.026.057.018.1.018.012.063.012.063Z" transform="translate(6.97 5.985)" fill="#fff100"/>
  <path id="Tracé_161" data-name="Tracé 161" d="M0,.044C0,0,.089,0,.133,0A.163.163,0,0,1,0,.044Z" transform="translate(473.444 6.038)" fill="#fff100"/>
  <path id="Tracé_162" data-name="Tracé 162" d="M.012.063C-.032.018.057-.026.057.018.1.018.057.063.012.063Z" transform="translate(473.743 6.021)" fill="#fff100"/>
  <path id="Tracé_163" data-name="Tracé 163" d="M.012.063C-.032.018.057-.026.057.018.1.063.012.063.012.063Z" transform="translate(5.371 6.058)" fill="#fff100"/>
  <path id="Tracé_164" data-name="Tracé 164" d="M0,.044C0,0,.089,0,.133,0A.163.163,0,0,1,0,.044Z" transform="translate(6.138 6.074)" fill="#fff100"/>
  <path id="Tracé_165" data-name="Tracé 165" d="M0,.051c0-.089.133-.044.133,0C.089.14.044.051,0,.051Z" transform="translate(480.236 6.066)" fill="#fff100"/>
  <path id="Tracé_166" data-name="Tracé 166" d="M0,.039c.044-.089.044,0,.133,0C.089.084,0,.084,0,.039Z" transform="translate(480.991 6.186)" fill="#fff100"/>
  <path id="Tracé_167" data-name="Tracé 167" d="M0,.044C0,0,.089,0,.133,0,.133.044.044.044,0,.044Z" transform="translate(481.302 6.257)" fill="#fff100"/>
  <path id="Tracé_168" data-name="Tracé 168" d="M0,.059c.089-.133.311,0,.4,0C.4.148.044.1,0,.059Z" transform="translate(480.725 6.423)" fill="#fff100"/>
  <path id="Tracé_169" data-name="Tracé 169" d="M.012.063C-.032.018.057-.026.057.018.1.018.057.063.012.063Z" transform="translate(481.511 6.459)" fill="#fff100"/>
  <path id="Tracé_170" data-name="Tracé 170" d="M0,.033c0-.044.044-.044.044,0C.044.122,0,.078,0,.033Z" transform="translate(478.993 6.519)" fill="#fff100"/>
  <path id="Tracé_171" data-name="Tracé 171" d="M0,.044C0,0,.089,0,.178,0A3,3,0,0,0,.8.089c0,.133-.178,0-.222,0A.818.818,0,0,1,0,.044Z" transform="translate(480.059 6.761)" fill="#fff100"/>
  <path id="Tracé_172" data-name="Tracé 172" d="M.012.063C-.032.018.057-.026.057.018.1.018.012.063.012.063Z" transform="translate(480.579 6.897)" fill="#fff100"/>
  <path id="Tracé_173" data-name="Tracé 173" d="M.012.063C-.032.018.057-.026.057.018.1.063.012.063.012.063Z" transform="translate(481.467 7.153)" fill="#fff100"/>
  <path id="Tracé_174" data-name="Tracé 174" d="M.11,0H.244C.244.133-.2,0,.11,0Z" transform="translate(485.053 7.205)" fill="#fff100"/>
  <path id="Tracé_175" data-name="Tracé 175" d="M0,.044C0,0,.089,0,.133,0,.133.044.044.044,0,.044Z" transform="translate(482.989 7.352)" fill="#fff100"/>
  <path id="Tracé_176" data-name="Tracé 176" d="M0,.044C0,0,.089,0,.133,0A.163.163,0,0,1,0,.044Z" transform="translate(483.255 7.352)" fill="#fff100"/>
  <path id="Tracé_177" data-name="Tracé 177" d="M0,.07C0-.063.266.026.266.07.266.2,0,.115,0,.07Z" transform="translate(482.855 7.433)" fill="#fff100"/>
  <path id="Tracé_178" data-name="Tracé 178" d="M.012.063C-.032.018.057-.026.057.018.1.018.057.063.012.063Z" transform="translate(484.796 7.773)" fill="#fff100"/>
  <path id="Tracé_179" data-name="Tracé 179" d="M1.16.067c.089.222-.266,0-.222.178A.755.755,0,0,0,.317.155C.228.155.228.111.139.111a.083.083,0,0,1-.133,0C-.039-.067.183.022.272.022c.133.044.311.044.4.089A1.991,1.991,0,0,1,1.16.067Z" transform="translate(483.382 7.866)" fill="#fff100"/>
  <path id="Tracé_180" data-name="Tracé 180" d="M0,.044C0,0,.089,0,.133,0,.133.044.044.044,0,.044Z" transform="translate(481.701 7.899)" fill="#fff100"/>
  <path id="Tracé_181" data-name="Tracé 181" d="M.012.063C-.032.018.057-.026.057.018.1.018.012.063.012.063Z" transform="translate(482.266 7.956)" fill="#fff100"/>
  <path id="Tracé_182" data-name="Tracé 182" d="M0,.078C0-.011.4-.055.355.122.178.166.178.033,0,.078Z" transform="translate(483.699 8.011)" fill="#fff100"/>
  <path id="Tracé_183" data-name="Tracé 183" d="M0,.044C0,0,.089,0,.133,0,.133.044.044.044,0,.044Z" transform="translate(485.164 8.045)" fill="#fff100"/>
  <path id="Tracé_184" data-name="Tracé 184" d="M.012.063C-.032.018.057-.026.057.018.1.063.012.107.012.063Z" transform="translate(484.13 8.064)" fill="#fff100"/>
  <path id="Tracé_185" data-name="Tracé 185" d="M0,.033c0-.044.133-.044.133,0C.089.122.044.033,0,.033Z" transform="translate(6.76 8.125)" fill="#fff100"/>
  <path id="Tracé_186" data-name="Tracé 186" d="M0,.033c0-.044.044-.044.044,0S0,.033,0,.033Z" transform="translate(6.405 8.2)" fill="#fff100"/>
  <path id="Tracé_187" data-name="Tracé 187" d="M.012.063C-.032.018.057-.026.057.018Z" transform="translate(483.642 8.211)" fill="#fff100"/>
  <path id="Tracé_188" data-name="Tracé 188" d="M.012.063C-.032.018.057-.026.057.018.1.063.057.107.012.063Z" transform="translate(481.511 8.319)" fill="#fff100"/>
  <path id="Tracé_189" data-name="Tracé 189" d="M.025,0C.069.044.069.133.2.089.2.133.2.133.158.133-.02.178-.02.089.025,0Z" transform="translate(6.425 8.366)" fill="#fff100"/>
  <path id="Tracé_190" data-name="Tracé 190" d="M0,0C.133,0,.178,0,.178.089H0Z" transform="translate(482.101 8.443)" fill="#fff100"/>
  <path id="Tracé_191" data-name="Tracé 191" d="M.133,0C.311.089.044.133,0,.089,0,.089.178.044.133,0Z" transform="translate(482.634 8.478)" fill="#fff100"/>
  <path id="Tracé_192" data-name="Tracé 192" d="M.012.063C-.032.018.057-.026.057.018.1.063.012.107.012.063Z" transform="translate(5.904 8.72)" fill="#fff100"/>
  <path id="Tracé_193" data-name="Tracé 193" d="M.018,0C.107,0,.107.044.2.044.2.178-.071.133.018,0Z" transform="translate(6.12 8.732)" fill="#fff100"/>
  <path id="Tracé_194" data-name="Tracé 194" d="M0,.055C0-.033.133.011.222.011.222.144.089.144,0,.055Z" transform="translate(6.405 8.723)" fill="#fff100"/>
  <path id="Tracé_195" data-name="Tracé 195" d="M.117,0H.251C.206.133-.193,0,.117,0Z" transform="translate(6.82 8.737)" fill="#fff100"/>
  <path id="Tracé_196" data-name="Tracé 196" d="M.012.063C-.032.018.057-.026.057.018S.012.107.012.063Z" transform="translate(4.661 8.757)" fill="#fff100"/>
  <path id="Tracé_197" data-name="Tracé 197" d="M.012.063C-.032.018.057-.026.057.018.1.018.057.063.012.063Z" transform="translate(482.532 8.832)" fill="#fff100"/>
  <path id="Tracé_198" data-name="Tracé 198" d="M.012.063C-.032.018.057-.026.057.018.1.018.012.063.012.063Z" transform="translate(7.191 8.868)" fill="#fff100"/>
  <path id="Tracé_199" data-name="Tracé 199" d="M0,.039c.044-.089.044,0,.133,0C.089.128,0,.084,0,.039Z" transform="translate(481.879 8.958)" fill="#fff100"/>
  <path id="Tracé_200" data-name="Tracé 200" d="M.488.025C.488.113.4.158.266.113.133.158.089.247,0,.158,0-.02.222-.02.488.025Z" transform="translate(6.449 9.07)" fill="#fff100"/>
  <path id="Tracé_201" data-name="Tracé 201" d="M0,.044C0,0,.089,0,.178,0,.178.044.089.044,0,.044Z" transform="translate(484.187 9.14)" fill="#fff100"/>
  <path id="Tracé_202" data-name="Tracé 202" d="M0,.033c0-.044.044-.044.044,0C.044.122,0,.078,0,.033Z" transform="translate(6.982 9.182)" fill="#fff100"/>
  <path id="Tracé_203" data-name="Tracé 203" d="M0,0C.089.044.133.089.133.178.044.133,0,.089,0,0Z" transform="translate(482.323 9.165)" fill="#fff100"/>
  <path id="Tracé_204" data-name="Tracé 204" d="M0,.044C0,0,.089,0,.133,0,.133.044.044.044,0,.044Z" transform="translate(482.545 9.213)" fill="#fff100"/>
  <path id="Tracé_205" data-name="Tracé 205" d="M.012.063C-.032.018.057-.026.057.018.1.018.057.063.012.063Z" transform="translate(6.614 9.306)" fill="#fff100"/>
  <path id="Tracé_206" data-name="Tracé 206" d="M0,.044c0-.133.222.089,0,0Z" transform="translate(480.858 9.65)" fill="#fff100"/>
  <path id="Tracé_207" data-name="Tracé 207" d="M0,.044C0,0,.089,0,.133,0,.133.044.044,0,0,.044Z" transform="translate(481.346 9.724)" fill="#fff100"/>
  <path id="Tracé_208" data-name="Tracé 208" d="M0,.044C0,0,.089,0,.178,0A.267.267,0,0,1,0,.044Z" transform="translate(6.36 9.834)" fill="#fff100"/>
  <path id="Tracé_209" data-name="Tracé 209" d="M.012.063C-.032.018.057-.026.057.018.1.018.057.063.012.063Z" transform="translate(483.376 9.926)" fill="#fff100"/>
  <path id="Tracé_210" data-name="Tracé 210" d="M.654.012C.7.1.432.145.61.19.432.367.3.056.033.145-.1.056.21.1.3.1.432.056.521-.032.654.012Z" transform="translate(4.641 9.987)" fill="#fff100"/>
  <path id="Tracé_211" data-name="Tracé 211" d="M0,.044C0,0,.089,0,.133,0,.089.044.044,0,0,.044Z" transform="translate(4.496 10.162)" fill="#fff100"/>
  <path id="Tracé_212" data-name="Tracé 212" d="M.012.063C-.032.018.057-.026.057.018.1.018.012.063.012.063Z" transform="translate(5.371 10.145)" fill="#fff100"/>
  <path id="Tracé_213" data-name="Tracé 213" d="M.154.051c-.133.178-.266-.178,0,0Z" transform="translate(4.209 10.187)" fill="#fff100"/>
  <path id="Tracé_214" data-name="Tracé 214" d="M0,0C.355.089.577-.044.843.044.71.266.4,0,.089.133.089.089,0,.089,0,0Z" transform="translate(4.008 10.481)" fill="#fff100"/>
  <path id="Tracé_215" data-name="Tracé 215" d="M0,.044.044,0C.089.044.044.089,0,.044Z" transform="translate(4.984 10.525)" fill="#fff100"/>
  <path id="Tracé_216" data-name="Tracé 216" d="M.11,0H.244C.244.178-.2,0,.11,0Z" transform="translate(482.656 10.56)" fill="#fff100"/>
  <path id="Tracé_217" data-name="Tracé 217" d="M.012.063C-.032.018.057-.026.057.018.1.018.057.063.012.063Z" transform="translate(482.976 10.583)" fill="#fff100"/>
  <path id="Tracé_218" data-name="Tracé 218" d="M.012.063C-.032.018.057-.026.057.018A.043.043,0,0,1,.012.063Z" transform="translate(482.621 11.131)" fill="#fff100"/>
  <path id="Tracé_219" data-name="Tracé 219" d="M0,0C.044,0,.044.089,0,0Z" transform="translate(481.435 11.586)" fill="#fff100"/>
  <path id="Tracé_220" data-name="Tracé 220" d="M.012.063C-.032.018.057-.026.057.018.1.018.012.063.012.063Z" transform="translate(483.331 11.897)" fill="#fff100"/>
  <path id="Tracé_221" data-name="Tracé 221" d="M.012.063C-.032.018.057-.026.057.018.1.018.012.063.012.063Z" transform="translate(5.727 12.116)" fill="#fff100"/>
  <path id="Tracé_222" data-name="Tracé 222" d="M0,.044C0,0,.089,0,.178,0H.355C.355.044.266.044.178.044Z" transform="translate(5.295 12.17)" fill="#fff100"/>
  <path id="Tracé_223" data-name="Tracé 223" d="M0,.012c.444-.089-.044.355,0,0Z" transform="translate(483.119 12.184)" fill="#fff100"/>
  <path id="Tracé_224" data-name="Tracé 224" d="M0,.044C0,0,.089,0,.133,0,.133.044.044,0,0,.044Z" transform="translate(5.206 12.608)" fill="#fff100"/>
  <path id="Tracé_225" data-name="Tracé 225" d="M0,.051c0-.089.133-.044.133,0C.089.14.044.051,0,.051Z" transform="translate(3.12 12.742)" fill="#fff100"/>
  <path id="Tracé_226" data-name="Tracé 226" d="M.11,0H.244C.244.178-.2,0,.11,0Z" transform="translate(4.918 12.749)" fill="#fff100"/>
  <path id="Tracé_227" data-name="Tracé 227" d="M.012.063C-.032.018.057-.026.057.018.1.063.012.107.012.063Z" transform="translate(483.908 12.917)" fill="#fff100"/>
  <path id="Tracé_228" data-name="Tracé 228" d="M0,.07C.044-.063.355.026.4.07A.763.763,0,0,1,.977.159C.843.337.666.07.488.159A1.887,1.887,0,0,1,0,.07Z" transform="translate(483.521 13.039)" fill="#fff100"/>
  <path id="Tracé_229" data-name="Tracé 229" d="M1.11.3C.843.258.755.391.488.347.444.258.311.3.444.169A1.313,1.313,0,0,1,0,.081C.089-.1.444.081.755.036c.089,0,.133.044.178.044a4.062,4.062,0,0,1,.755.044c0,.044,0,.133-.133.089C1.465.214,1.509.3,1.421.3,1.2.347,1.465.125,1.2.125,1.11.214,1.11.214,1.11.3Z" transform="translate(482.811 13.268)" fill="#fff100"/>
  <path id="Tracé_230" data-name="Tracé 230" d="M0,.044C0,0,.089,0,.178,0,.133.089.044.044,0,.044Z" transform="translate(484.498 13.409)" fill="#fff100"/>
  <path id="Tracé_231" data-name="Tracé 231" d="M.11.007H.244C.244.14-.2-.037.11.007Z" transform="translate(481.813 13.512)" fill="#fff100"/>
  <path id="Tracé_232" data-name="Tracé 232" d="M0,0C.044,0,.044.089,0,0Z" transform="translate(483.921 13.557)" fill="#fff100"/>
  <path id="Tracé_233" data-name="Tracé 233" d="M0,.044C0,0,.089,0,.133,0A.163.163,0,0,1,0,.044Z" transform="translate(485.119 13.557)" fill="#fff100"/>
  <path id="Tracé_234" data-name="Tracé 234" d="M0,.044C0,0,.089,0,.133,0A.163.163,0,0,1,0,.044Z" transform="translate(484.72 14.433)" fill="#fff100"/>
  <path id="Tracé_235" data-name="Tracé 235" d="M.012.063C-.032.018.057-.026.057.018.1.063.057.107.012.063Z" transform="translate(6.437 14.668)" fill="#fff100"/>
  <path id="Tracé_236" data-name="Tracé 236" d="M0,.044C0,0,.089,0,.133,0A.163.163,0,0,1,0,.044Z" transform="translate(6.183 14.725)" fill="#fff100"/>
  <path id="Tracé_237" data-name="Tracé 237" d="M.129.022c-.044.133-.266-.089,0,0Z" transform="translate(484.058 14.274)" fill="#fff100"/>
  <path id="Tracé_238" data-name="Tracé 238" d="M.012.063C-.032.018.057-.026.057.018.1.018.012.063.012.063Z" transform="translate(484.308 14.499)" fill="#fff100"/>
  <path id="Tracé_239" data-name="Tracé 239" d="M.012.063C-.032.018.057-.026.057.018.1.018.057.063.012.063Z" transform="translate(484.397 14.499)" fill="#fff100"/>
  <path id="Tracé_240" data-name="Tracé 240" d="M0,.044C0,0,.089,0,.178,0,.133.044.044,0,0,.044Z" transform="translate(480.591 15.583)" fill="#fff100"/>
  <path id="Tracé_241" data-name="Tracé 241" d="M0,.051c0-.089.133-.044.133,0C.089.1.044.007,0,.051Z" transform="translate(482.278 15.842)" fill="#fff100"/>
  <path id="Tracé_242" data-name="Tracé 242" d="M.012.063C-.032.018.057-.026.057.018.1.018.012.063.012.063Z" transform="translate(483.065 16.142)" fill="#fff100"/>
  <path id="Tracé_243" data-name="Tracé 243" d="M.666.044C.666.133.533.089.444.089.311.133.133.311,0,.178,0,.089.178.178.178.089.222.044.311.044.355,0,.444.044.488-.044.666.044Z" transform="translate(7.914 16.915)" fill="#fff100"/>
  <path id="Tracé_244" data-name="Tracé 244" d="M0,.044C0,0,.089,0,.178,0H.4C.4.044.311.044.222.044Z" transform="translate(480.902 17.048)" fill="#fff100"/>
  <path id="Tracé_245" data-name="Tracé 245" d="M.977.178C.8.178.621.222.533.133H0C0,.089.089.089.133.089c.089,0,.178,0,.178-.044C.4.044.444.089.533.089A.043.043,0,0,0,.488.044.043.043,0,0,1,.533,0C.666.089,1.021-.044.977.178Z" transform="translate(339.501 17.181)" fill="#fff100"/>
  <path id="Tracé_246" data-name="Tracé 246" d="M0,.063V.018C.044-.026.044.018,0,.063Z" transform="translate(363.26 17.163)" fill="#fff100"/>
  <path id="Tracé_247" data-name="Tracé 247" d="M0,.106C0-.027.222-.027.266.062.4.017.622.106.4.106Z" transform="translate(343.842 17.208)" fill="#fff100"/>
  <path id="Tracé_248" data-name="Tracé 248" d="M.355.044C.355.178.133.089,0,.089.089-.044.222,0,.355.044Z" transform="translate(347.672 17.226)" fill="#fff100"/>
  <path id="Tracé_249" data-name="Tracé 249" d="M.67.044C.537.178.182.044,0,.089-.04-.044.271.133.226,0,.448.044.448,0,.67.044Z" transform="translate(350.019 17.226)" fill="#fff100"/>
  <path id="Tracé_250" data-name="Tracé 250" d="M.133,0C.178,0,.178.044.178.089.089.133.089.089,0,.089.044.044.133.044.133,0Z" transform="translate(353.642 17.226)" fill="#fff100"/>
  <path id="Tracé_251" data-name="Tracé 251" d="M.311,0C.266.044.266.089.266.178.133.178.044.178,0,.133.044,0,.178,0,.311,0Z" transform="translate(357.173 17.226)" fill="#fff100"/>
  <path id="Tracé_252" data-name="Tracé 252" d="M0,.044C0,0,.089,0,.133,0,.133.044.044,0,0,.044Z" transform="translate(362.105 17.226)" fill="#fff100"/>
  <path id="Tracé_253" data-name="Tracé 253" d="M.1.022c0,.133-.222-.089,0,0Z" transform="translate(363.02 17.204)" fill="#fff100"/>
  <path id="Tracé_254" data-name="Tracé 254" d="M.488.026C.577.248.266.026.266.2.089.248.089.114,0,.114.089-.108.222.07.488.026Z" transform="translate(368.899 17.244)" fill="#fff100"/>
  <path id="Tracé_255" data-name="Tracé 255" d="M.006.012C.139-.032.139.057.228.057.183.146-.039.19.006.012Z" transform="translate(463.628 17.213)" fill="#fff100"/>
  <path id="Tracé_256" data-name="Tracé 256" d="M.012.063C-.032.018.057-.026.057.018.1.018.012.063.012.063Z" transform="translate(465.619 17.207)" fill="#fff100"/>
  <path id="Tracé_257" data-name="Tracé 257" d="M0,.051c0-.089.133-.044.133,0C.044.051,0,.1,0,.051Z" transform="translate(466.697 17.219)" fill="#fff100"/>
  <path id="Tracé_258" data-name="Tracé 258" d="M0,.039c.044-.089.044,0,.133,0C.089.084,0,.084,0,.039Z" transform="translate(466.963 17.23)" fill="#fff100"/>
  <path id="Tracé_259" data-name="Tracé 259" d="M.16.07c-.311.044-.089-.178,0,0Z" transform="translate(346.314 17.244)" fill="#fff100"/>
  <path id="Tracé_260" data-name="Tracé 260" d="M0,.044C0,0,.089,0,.178,0,.178.044.089.044,0,.044Z" transform="translate(351.93 17.27)" fill="#fff100"/>
  <path id="Tracé_261" data-name="Tracé 261" d="M0,.056c.133-.178.355.133,0,0Z" transform="translate(355.554 17.258)" fill="#fff100"/>
  <path id="Tracé_262" data-name="Tracé 262" d="M0,.044C0,0,.089,0,.133,0,.133.044.044.044,0,.044Z" transform="translate(366.896 17.27)" fill="#fff100"/>
  <path id="Tracé_263" data-name="Tracé 263" d="M0,.033c0-.044.044-.044.044,0S0,.078,0,.033Z" transform="translate(372.006 17.281)" fill="#fff100"/>
  <path id="Tracé_264" data-name="Tracé 264" d="M.266.044C.266.133.089.089.222.133.222.222.089.178,0,.178V0C.044.044.133.044.266.044Z" transform="translate(375.916 17.226)" fill="#fff100"/>
  <path id="Tracé_265" data-name="Tracé 265" d="M.012.063C-.032.018.057-.026.057.018.1.018.012.063.012.063Z" transform="translate(382.275 17.252)" fill="#fff100"/>
  <path id="Tracé_266" data-name="Tracé 266" d="M.009,0C.231.089.319,0,.586,0,.586.089.541.133.453.178.5.178.408.133.408.133c-.089,0-.089.089-.178,0C.1.089-.036.222.009,0Z" transform="translate(462.959 17.27)" fill="#fff100"/>
  <path id="Tracé_267" data-name="Tracé 267" d="M0,.044C0,0,.089,0,.133,0,.133.044.044.044,0,.044Z" transform="translate(464.699 17.27)" fill="#fff100"/>
  <path id="Tracé_268" data-name="Tracé 268" d="M.012.063C-.032.018.057-.026.057.018.1.018.057.063.012.063Z" transform="translate(464.909 17.252)" fill="#fff100"/>
  <path id="Tracé_269" data-name="Tracé 269" d="M0,.044C0,0,.089,0,.133,0A.163.163,0,0,1,0,.044Z" transform="translate(466.075 17.27)" fill="#fff100"/>
  <path id="Tracé_270" data-name="Tracé 270" d="M0,0H.178C.133.044.044.044.044.178A.267.267,0,0,1,0,0Z" transform="translate(466.342 17.27)" fill="#fff100"/>
  <path id="Tracé_271" data-name="Tracé 271" d="M.012.063C-.032.018.057-.026.057.018.1.018.012.063.012.063Z" transform="translate(467.483 17.252)" fill="#fff100"/>
  <path id="Tracé_272" data-name="Tracé 272" d="M0,.044C0,0,.089,0,.133,0A.163.163,0,0,1,0,.044Z" transform="translate(467.895 17.27)" fill="#fff100"/>
  <path id="Tracé_273" data-name="Tracé 273" d="M0,.044C0,0,.089,0,.133,0,.133.044.044.044,0,.044Z" transform="translate(468.162 17.27)" fill="#fff100"/>
  <path id="Tracé_274" data-name="Tracé 274" d="M.3.051C.3.184.074.1.029.1-.06.051.074.051.162.051.207-.038.207.007.3.051Z" transform="translate(472.394 17.263)" fill="#fff100"/>
  <path id="Tracé_275" data-name="Tracé 275" d="M0,0C.044,0,.044.089,0,0Z" transform="translate(346.673 17.314)" fill="#fff100"/>
  <path id="Tracé_276" data-name="Tracé 276" d="M0,.062C.089-.116.133.151.266.106.178.284.044.062,0,.062Z" transform="translate(384.136 17.297)" fill="#fff100"/>
  <path id="Tracé_277" data-name="Tracé 277" d="M.051.039c-.089,0-.044-.089,0,0Z" transform="translate(465.447 17.319)" fill="#fff100"/>
  <path id="Tracé_278" data-name="Tracé 278" d="M0,.044C0,0,.089,0,.133,0,.133.044.044.044,0,.044Z" transform="translate(469.183 17.314)" fill="#fff100"/>
  <path id="Tracé_279" data-name="Tracé 279" d="M.11,0H.244C.244.133-.2,0,.11,0Z" transform="translate(469.472 17.314)" fill="#fff100"/>
  <path id="Tracé_280" data-name="Tracé 280" d="M0,.044C0,0,.089,0,.133,0,.133.044.044.044,0,.044Z" transform="translate(469.849 17.314)" fill="#fff100"/>
  <path id="Tracé_281" data-name="Tracé 281" d="M.012.063C-.032.018.057-.026.057.018.1.063.012.063.012.063Z" transform="translate(470.769 17.296)" fill="#fff100"/>
  <path id="Tracé_282" data-name="Tracé 282" d="M0,.044C0,0,.089,0,.133,0H.311C.311.044.222.044.178.044Z" transform="translate(471.358 17.314)" fill="#fff100"/>
  <path id="Tracé_283" data-name="Tracé 283" d="M0,.044C0,0,.089,0,.133,0A.163.163,0,0,1,0,.044Z" transform="translate(472.823 17.314)" fill="#fff100"/>
  <path id="Tracé_284" data-name="Tracé 284" d="M.012.063C-.032.018.057-.026.057.018.1.063.012.107.012.063Z" transform="translate(379.025 17.34)" fill="#fff100"/>
  <path id="Tracé_285" data-name="Tracé 285" d="M.02.02c-.044,0,0-.044,0,0Z" transform="translate(385.555 17.383)" fill="#fff100"/>
  <path id="Tracé_286" data-name="Tracé 286" d="M.178.062C.089.062.089.151,0,.106,0,.017.044-.027.178.017Z" transform="translate(387.358 17.341)" fill="#fff100"/>
  <path id="Tracé_287" data-name="Tracé 287" d="M0,0C.089,0,.044.089,0,0Z" transform="translate(465.498 17.359)" fill="#fff100"/>
  <path id="Tracé_288" data-name="Tracé 288" d="M0,.044C0,0,.089,0,.133,0A.163.163,0,0,1,0,.044Z" transform="translate(383.151 17.403)" fill="#fff100"/>
  <path id="Tracé_289" data-name="Tracé 289" d="M0,0C.089,0,.044.089,0,0Z" transform="translate(385.703 17.403)" fill="#fff100"/>
  <path id="Tracé_290" data-name="Tracé 290" d="M.012.063C-.032.018.057-.026.057.018.1.063.057.107.012.063Z" transform="translate(386.393 17.385)" fill="#fff100"/>
  <path id="Tracé_291" data-name="Tracé 291" d="M0,.044C0,0,.089,0,.133,0A.163.163,0,0,1,0,.044Z" transform="translate(463.634 17.403)" fill="#fff100"/>
  <path id="Tracé_292" data-name="Tracé 292" d="M0,.044C0,0,.089,0,.133,0,.133.044.044.044,0,.044Z" transform="translate(463.9 17.403)" fill="#fff100"/>
  <path id="Tracé_293" data-name="Tracé 293" d="M0,.044C0,0,.089,0,.178,0H.355C.355.044.266.044.178.044Z" transform="translate(464.078 17.403)" fill="#fff100"/>
  <path id="Tracé_294" data-name="Tracé 294" d="M0,.044C0,0,.089,0,.133,0,.089.044.044,0,0,.044Z" transform="translate(481.035 17.492)" fill="#fff100"/>
  <path id="Tracé_295" data-name="Tracé 295" d="M.488.311A.806.806,0,0,1,0,.222C0,.133.133.133.133,0,.222.133.355.178.488.311Z" transform="translate(13.863 17.625)" fill="#fff100"/>
  <path id="Tracé_296" data-name="Tracé 296" d="M0,0C.044,0,.133,0,.133.044.044.044,0,.044,0,0Z" transform="translate(14.351 17.936)" fill="#fff100"/>
  <path id="Tracé_297" data-name="Tracé 297" d="M0,.044c.044-.133.178.089.355,0C.311.177.044.088,0,.044Z" transform="translate(21.187 17.936)" fill="#fff100"/>
  <path id="Tracé_298" data-name="Tracé 298" d="M.8.07A.252.252,0,0,1,.4.158C.355.158.355.2.355.247.222.2.044.2,0,.025.222-.064.488.114.8.07Z" transform="translate(7.47 17.999)" fill="#fff100"/>
  <path id="Tracé_299" data-name="Tracé 299" d="M.066.1C-.111.056.11-.032.244.012c.089,0,.133.044.044.044H.066Z" transform="translate(8.381 18.012)" fill="#fff100"/>
  <path id="Tracé_300" data-name="Tracé 300" d="M0,.044C0,0,.089,0,.133,0,.089.044.044,0,0,.044Z" transform="translate(8.802 18.025)" fill="#fff100"/>
  <path id="Tracé_301" data-name="Tracé 301" d="M0,0C.089,0,.044.089,0,0Z" transform="translate(14.44 17.98)" fill="#fff100"/>
  <path id="Tracé_302" data-name="Tracé 302" d="M1.421.15A7.176,7.176,0,0,1,0,.061C.044-.072.266.061.4.017a3.482,3.482,0,0,0,.977.089C1.421.105,1.421.105,1.421.15Z" transform="translate(9.69 18.097)" fill="#fff100"/>
  <path id="Tracé_303" data-name="Tracé 303" d="M0,.006c.355-.044.133.178,0,0Z" transform="translate(11.11 18.241)" fill="#fff100"/>
  <path id="Tracé_304" data-name="Tracé 304" d="M0,.044C0,0,.089,0,.133,0,.089.044.044,0,0,.044Z" transform="translate(11.51 18.291)" fill="#fff100"/>
  <path id="Tracé_305" data-name="Tracé 305" d="M.012.063C-.032.018.057-.026.057.018.1.018.012.063.012.063Z" transform="translate(11.719 18.273)" fill="#fff100"/>
  <path id="Tracé_306" data-name="Tracé 306" d="M.012.063C-.032.018.057-.026.057.018.1.018.012.063.012.063Z" transform="translate(12.119 18.317)" fill="#fff100"/>
  <path id="Tracé_307" data-name="Tracé 307" d="M.4.073C.266.029.044.118,0,.029.089.029.355-.06.4.073Z" transform="translate(12.487 18.306)" fill="#fff100"/>
  <path id="Tracé_308" data-name="Tracé 308" d="M0,0C.044,0,0,.089,0,0Z" transform="translate(12.886 18.38)" fill="#fff100"/>
  <path id="Tracé_309" data-name="Tracé 309" d="M.444.044C.311.178.178,0,0,.089.044-.044.266,0,.444.044Z" transform="translate(480.148 18.424)" fill="#fff100"/>
  <path id="Tracé_310" data-name="Tracé 310" d="M.012.063C-.032.018.057-.026.057.018.1.018.057.063.012.063Z" transform="translate(16.691 18.539)" fill="#fff100"/>
</svg>
