<?xml version="1.0" encoding="utf-8"?>
<!-- Generator: Adobe Illustrator 23.0.0, SVG Export Plug-In . SVG Version: 6.00 Build 0)  -->
<svg version="1.1" id="Calque_1" xmlns="http://www.w3.org/2000/svg" xmlns:xlink="http://www.w3.org/1999/xlink" x="0px" y="0px"
	 viewBox="0 0 842.4 1002" style="enable-background:new 0 0 842.4 1002;" xml:space="preserve">
<style type="text/css">
	.st0{fill:#CA181A;}
	.st1{fill:none;stroke:#000000;stroke-width:7;stroke-linecap:round;stroke-miterlimit:10;stroke-dasharray:25;}
	.st2{fill:#F6A000;stroke:#000000;stroke-width:6;stroke-linejoin:round;}
	.st3{fill:#FFFFFF;stroke:#000000;stroke-width:9;stroke-linejoin:round;}
	.st4{fill:none;stroke:#000000;stroke-width:8;stroke-linecap:round;stroke-linejoin:round;}
	.st5{fill:#9ABD36;stroke:#000000;stroke-width:6;stroke-linejoin:round;}
	.st6{fill:#FFFFFF;stroke:#000000;stroke-width:8;stroke-linejoin:round;}
	.st7{fill:#FFFFFF;stroke:#000000;stroke-width:7;stroke-linejoin:round;}
	.st8{fill:#FFFFFF;stroke:#000000;stroke-width:6;stroke-linejoin:round;}
	.st9{fill:#A19F92;stroke:#000000;stroke-width:5;stroke-linecap:round;stroke-linejoin:round;}
	.st10{fill:none;stroke:#000000;stroke-width:5;stroke-linecap:round;stroke-linejoin:round;}
	.st11{fill:#DEDFDC;stroke:#000000;stroke-width:5;stroke-linecap:round;stroke-linejoin:round;}
	.st12{fill:url(#SVGID_1_);}
	.st13{fill:none;stroke:#000000;stroke-width:2;stroke-linecap:round;stroke-linejoin:round;}
	.st14{fill:url(#SVGID_2_);stroke:#000000;stroke-width:5;stroke-linecap:round;stroke-linejoin:round;}
	.st15{fill:url(#SVGID_3_);stroke:#000000;stroke-width:5;stroke-linecap:round;stroke-linejoin:round;}
	.st16{fill:#5B453B;stroke:#000000;stroke-width:5;stroke-linejoin:round;}
	.st17{fill:url(#SVGID_4_);stroke:#000000;stroke-width:5;stroke-linecap:round;stroke-linejoin:round;}
	.st18{fill:none;stroke:#000000;stroke-width:3;stroke-linecap:round;stroke-linejoin:round;}
	.st19{fill:url(#SVGID_5_);stroke:#000000;stroke-width:5;stroke-linecap:round;stroke-linejoin:round;}
	.st20{fill:none;stroke:#000000;stroke-width:4;stroke-linecap:round;stroke-linejoin:round;}
	.st21{fill:#FFFFFF;stroke:#000000;stroke-width:4;stroke-linecap:round;stroke-linejoin:round;}
	.st22{stroke:#000000;stroke-width:4;stroke-linecap:round;stroke-linejoin:round;}
	.st23{fill:none;stroke:#FFFFFF;stroke-linecap:round;stroke-linejoin:round;}
	.st24{fill:none;stroke:#FFFFFF;stroke-miterlimit:10;}
	.st25{fill:#E30613;stroke:#000000;stroke-width:4;stroke-linecap:round;stroke-linejoin:round;}
	.st26{fill:url(#SVGID_6_);stroke:#000000;stroke-width:5;stroke-linecap:round;stroke-linejoin:round;}
	.st27{fill:#0072B0;stroke:#000000;stroke-width:5;stroke-linecap:round;stroke-linejoin:round;}
	.st28{fill:url(#SVGID_7_);stroke:#000000;stroke-width:5;stroke-linecap:round;stroke-linejoin:round;}
	.st29{fill:#EDECE8;stroke:#000000;stroke-width:2;stroke-linecap:round;stroke-linejoin:round;}
	.st30{enable-background:new    ;}
</style>
<title>Eleven_friendsdontlie</title>
<g id="Arriere-plan_rond">
	<circle class="st0" cx="467.4" cy="314.5" r="298.7"/>
	<circle class="st1" cx="466.7" cy="314.3" r="310.8"/>
</g>
<g id="Fleurs1">
	<path class="st2" d="M565.5,873.1c0,0,19.4,12.9,32.3,14.4s18.6,18.1,32.3,17.8s18.8-12.3,25.3-25s14.8-47.1,14.8-47.1
		s-11.3,36.5-11,50.1c0.2,10.3,0.7,15.4,2.3,21.8c2.6,10.7,6,21.4,18.4,17.9c11.9-4.1,17.2-0.8,21.3,1.3c12.5,5.1,21.4,4.5,29.9-5.4
		c6.2-13.8,7.6-18.1,13.7-22c20.8-11.5,11.7-25.1,6.8-30.9c-8.3-9.3-47.1-43.8-47.1-43.8s42.3,38.6,52.8,40.5s21.4-3.3,27-11.5
		s14.6-15.1,20.8-25.5s0.8-14.2-3.8-21.5c-5.8-14.2-1.7-28-10.5-34.3c-3.3-1.6-12.5-9.2-26.5-5.5s-53.8,25-53.8,25
		s63.2-30.9,64.2-35.2s-27.5-12.8-26.3-13s-34.7-6.8-34.7-6.8s-29.3,2.9-38.8,4.7l-1,29.2c0,0-0.3-31.3-3.8-28.2s-42.2,14-42.2,14
		l-30.7,14.3l-16.5,7.9c-4.9,3.9-10.2,7.4-15.8,10.4l83.1,13.8l-82.8-10.3L565.5,873.1z"/>
	<circle class="st3" cx="677.2" cy="800.1" r="33"/>
	<circle cx="677.4" cy="800.1" r="16.3"/>
	<line class="st4" x1="710.1" y1="807.2" x2="756.7" y2="813.7"/>
	<line class="st4" x1="721" y1="727.5" x2="694.7" y2="772.2"/>
	<line class="st4" x1="614.7" y1="745.8" x2="651.4" y2="776.5"/>
	<line class="st4" x1="689.5" y1="830.2" x2="704" y2="873.8"/>
	<line class="st4" x1="654.4" y1="824.5" x2="625.4" y2="846.5"/>
	<path class="st5" d="M372,888.3C330.7,950,342.4,988,344,999c37.3-14,82.2-94.5,82.2-94.5S413.4,826.7,372,888.3z"/>
	<path class="st5" d="M354.2,879.2c-37,27.7-39.7,63.3-39.7,63.3s54.7-11,83.7-43s40.3-48.3,40.3-48.3S380.5,865.5,354.2,879.2z"/>
	<path class="st2" d="M364.5,874.3c0,0,12.6-6.4,103.5-18c0,0-6.3,1.7-47,11c-31.5,7.2-26.5,30.5-17,36.7s7.3,8.2,8,15.7
		c-3.3,31.3,10.7,32,10.7,32l37.7,2c0,0,33.7,17.8,40.7-14.3c3-7.5,3.3-59,3.3-59s2.4,36.8,6.2,58.6c5.4,19.3,18,29.5,34.3,20.2
		c6.2-5.8,8.4-3.9,14.8-2.1c15.1,2.2,24.3-7.9,27.3-13s0.3-13.4,7.3-26.3c13.5-19.6,3.7-27.2,0-29.3c-5.9-2.2-57.3-28.7-57.3-28.7
		s70.8,35.1,72.3-6S604,794,604,794s-29.8-10.7-33.8-10s-40.3,42.7-40.3,42.7l36.6-42.7l-39.6,19.8L364.5,874.3z"/>
	<circle class="st6" cx="501" cy="845.5" r="33"/>
	<ellipse transform="matrix(0.9239 -0.3827 0.3827 0.9239 -285.4294 256.03)" cx="500.9" cy="845.5" rx="17.2" ry="17.2"/>
	<line class="st4" x1="483.9" y1="876.7" x2="465.2" y2="907"/>
	<line class="st4" x1="522.7" y1="873.4" x2="548.2" y2="909.2"/>
	<line class="st4" x1="534.7" y1="840.2" x2="569.5" y2="838.7"/>
</g>
<g id="Bandeau">
	<path class="st7" d="M785.5,763.8c0,0-11.7-39.3-14-54.3s4-44.3,4-44.3c-99-49-237.3,14.7-237.3,14.7c-80.9,35.2-160,84.7-160,84.7
		s-27.7,21-97.7,32.3l-42,2c-33.5,0.9-56.7-19.7-56.7-19.7s9.4,15.9,11,57.7c1.4,37.2,4.7,41,4.7,41s46.5,49.7,164,5
		c69.3-27.5,98.9-47.6,130-62c42.8-19.8,62.6-36.3,152.3-71.3C728.7,716.5,785.5,763.8,785.5,763.8z"/>
	<path class="st7" d="M228.4,687.8c-84,17.7-51.9,89.9-43.3,94.3s32.3,17.7,53.7,16.7C232.3,762.2,228.9,725,228.4,687.8z"/>
</g>
<g id="Fleurs_2">
	<path class="st5" d="M748.2,464.8c-3.3-54,32.8-85,32.8-85s22.5,65.8,16.3,95.8l-30.8,6.8L748.2,464.8z"/>
	<path class="st5" d="M720.5,457c-32-35-16.5-75.5-16.5-75.5s37.8,26.9,46.3,48l-6.3,31.6L720.5,457z"/>
	<path class="st2" d="M736.4,604.7l18.1,38.6c0,0,6.8-1.6,11.3-16.8s-6.8-47.2-6.8-47.2s10.2,25,17.1,39.7s22.3,5.3,22.3,5.3
		c2-4,5.2-7.2,9.2-9.3c6.8-3.7,13.4,1,20.3-1.5s6.8-7.3,8.8-15.3c-1.1-11.1-8.8-14.4-4.5-24.3s10.6-8.7,5.8-19s-20.5-11.8-20.5-11.8
		l-41.7,5l44.5-11.8c0,0,16.1-8.2,15.3-18.8s-5.7-5.9-8.3-13.5s-1.2-18.1-8.8-23.2S804.9,475,795,476s-23.7,3.5-23.7,3.5l-17.1,46
		l12-46.5l-20.8-17.5l-21.3-3.9c0,0-7-1.4-9.8,1.6c-2.8,2.4-2.5,9.3-12.8,12.5c-6.9,2.3-11.7,6.5-13.5,14.9s2.2,12.2,2.2,12.2
		l36.8,33.4l-21-8.1l12.3,29.4l12.4,39l10.7-11.8l-8,15.6L736.4,604.7z"/>
	<line class="st4" x1="776" y1="563.5" x2="798.3" y2="574.8"/>
	<line class="st4" x1="767.7" y1="531.2" x2="789.5" y2="511.2"/>
	<line class="st4" x1="730.4" y1="493.5" x2="741.7" y2="525.5"/>
	<circle class="st8" cx="748" cy="553.5" r="28"/>
	<circle cx="748.2" cy="553.5" r="13.9"/>
</g>
<g id="Col_Tshirt">
	<polygon class="st9" points="402.5,496.5 405.2,535.8 401.2,578.3 399,652 402.1,695 402.1,715.5 403.7,749.5 462.5,716.5 
		505.7,694 536,680.8 562.2,670.4 593,660.6 629,652.3 627.5,646.6 605.7,610 586,573.3 578.5,547.5 573.5,506.8 575.3,492.8 
		551.2,477.5 504,472 476.7,477.5 434.5,486.5 	"/>
	<path class="st10" d="M420.6,502.3c-13.4,30.3,11.9,127.4,7.1,233.3"/>
	<path class="st10" d="M443,501.3c5,68.1-8.3,169.3-0.6,226.1"/>
	<path class="st10" d="M471.1,483.3c13.6,92-9.6,171,3.6,227.2"/>
	<path class="st10" d="M501.2,477.5c8.3,146.8-6,174.6,2,218.4"/>
	<path class="st10" d="M525,489.3c16.3,92.3,6.3,194,6.3,194"/>
	<path class="st10" d="M554,500.8c10.4,95.8,5.4,170.8,5.4,170.8"/>
	<path class="st10" d="M581.8,562.4c1.9,43.6-0.3,101.1-0.3,101.1"/>
	<line class="st10" x1="600.8" y1="602" x2="603.2" y2="656.5"/>
	<line class="st10" x1="614" y1="625" x2="613.7" y2="655.8"/>
	<path class="st10" d="M405.2,535.8c22.2-2.5,44.7-1.7,66.8,2.4c9,1.7,5.5-19.8,15.5-6.9s16.4,0.8,16.4,0.8s8.2-2.6,24.1,0.7
		c12,2.4,4.5-4.6,20.4-4.2s27.5,0.8,27.5,0.8"/>
	<path class="st10" d="M400.9,589.5c0,0,27.1-15.4,55.4-10.8c17.1,0.8,14.8,2.8,31.4-5.5c8-4,22.1,2.2,32.5,3.2s19.5-6.4,33.8-11
		s28.8,0.2,28.8,0.2"/>
	<path class="st10" d="M400,618.8c0,0,28.7-2.7,55,7.6c7,2.8,41.5,9.5,68.8-4.3s19.7,4.3,52-4.6s34.4-0.2,34.4-0.2"/>
	<path class="st10" d="M400.2,669c0,0,22.2,5.2,58.5,1s39.5-5.5,51.5-2.5c9.8-0.8,47.7-1.8,60-6.9s29-1.4,29-1.4"/>
	<path class="st10" d="M402.1,707.5c0,0,7.6,5.3,37.8,3c29.6-2.2,49.3-7.9,49.3-7.9"/>
	<path class="st11" d="M557,429.8c-1.8,5.3,38.8,0.2,38.7,32.7c0,8.6-6.1,16.1-12.3,22.7c-4.3,4.5-14,14.9-27.7,15.7
		c-14.9,0.9-29-9.9-35.7-15c-7-5.4-10.2-7.8-15.6-8.3c-1.4-0.1-2.7-0.8-3.5-1.9l-2.5-3.2c-5.4,6.9-15.3,9.3-18.4,2.5l-1.4,3.2
		c0,0-2.5,2-3.6,2.7c-5.5,3.3-8.2,5-13.7,10.3c-8.7,8.6-22.8,9.9-28,10.3c-8.2,0.7-20.9,1.9-30-7c-7-6.9-10.9-18.7-7.7-27.7
		c2.4-6.8,7.9-8.9,10.3-19c1-4.3,0.4-5.2,1.3-9c0.2-0.7,3.8-13.4,11.8-16.3l2.7,17.3c10,5.6,53.5,10.6,70.5,5.3
		c11.6-3.6,8.7-10.7,26.7-20c18.8-9.8,31.2-6.7,34.7-5.7c4.1,1.2,7.8,4.5,9.3,5.7C568,429,557.7,427.8,557,429.8z"/>
	
		<linearGradient id="SVGID_1_" gradientUnits="userSpaceOnUse" x1="544.03" y1="555.335" x2="548.36" y2="555.335" gradientTransform="matrix(1 0 0 -1 0 1002)">
		<stop  offset="0" style="stop-color:#F8DFD7"/>
		<stop  offset="0.5" style="stop-color:#F6E3DD"/>
		<stop  offset="1" style="stop-color:#FBF1EF"/>
	</linearGradient>
	<rect x="544" y="440.8" class="st12" width="4.3" height="11.7"/>
	<path class="st10" d="M543.9,438.3c18.2,13-11.2,22.1-8.5,21.8"/>
	<path class="st13" d="M475.2,395.4c0,0,9.6,5.4,20.1,0"/>
</g>
<g id="Visage">
	
		<linearGradient id="SVGID_2_" gradientUnits="userSpaceOnUse" x1="432.87" y1="551.355" x2="554.97" y2="551.355" gradientTransform="matrix(1 0 0 -1 -12.3 986.5)">
		<stop  offset="0" style="stop-color:#F8DFD7"/>
		<stop  offset="0.5" style="stop-color:#F6E3DD"/>
		<stop  offset="1" style="stop-color:#FBF1EF"/>
	</linearGradient>
	<path class="st14" d="M420.6,394.6l1.4,45.9c5.2,9.9,17.6,20,27.8,23.3c11.2,1.4,29.3,7.8,29.3,7.8c3.8,0.7,7.1,3.7,9.9,6
		c0,0,5-7.3,11.8-8c15-8.3,27.4-7,27.4-7c4.6-1.9,5.9-0.1,14.6-7.7l-0.7-62L420.6,394.6z"/>
	
		<linearGradient id="SVGID_3_" gradientUnits="userSpaceOnUse" x1="390.5" y1="672.8936" x2="589.16" y2="672.8936" gradientTransform="matrix(1 0 0 -1 -12.3 986.5)">
		<stop  offset="0" style="stop-color:#F8DFD7"/>
		<stop  offset="0.5" style="stop-color:#F6E3DD"/>
		<stop  offset="1" style="stop-color:#FBF1EF"/>
	</linearGradient>
	<path class="st15" d="M389.2,304.5c0,0,14.3,66.3,17,72.5s29,43,35,48.5s20,17.2,28.2,18.1c22.8,2.8,41.2-9.7,48.7-15.2
		s22.5-24.2,26.2-28.7s15.9-36.7,18.7-57c5.1-39,10.8-49.8,10.8-49.8l3.2-71.6l-14.1-35.8l-53.1-2.3l-81,1.3l-36,3L378.2,238
		L389.2,304.5z"/>
	<path class="st16" d="M390.4,304.2c0,0-3.4-37.5-3-48.3c0.6-17,6.6-30.4,1.3-35.7c-2.5-2.5,5.9-2.8,4.3-5.3
		c-2.8-4.5-0.2-11.3,9.7-17.7c9.5-6.2,20.3,11.1,36.7-2c9-7.2,17.9,9.2,23.7,6.7c2.6-1.1,1.9-3.4,4.7-4.7c7.4-3.5,18.6,9.2,22.7,6
		c1.6-1.3,0.5-3.8,2.3-5c2.8-1.8,8.1,2.3,10.3,3.7c16,9.6,50.4-14.8,51.7-12.7c0.5,0.9-6.4,4.5-5.7,8c0.7,3.1,7.2,5.4,12,3.7
		c4.4-1.6,6.6-6.3,7-6s-3.5,3.9-3.7,9c-0.2,4.6,2.9,5.1,3.3,11c0.3,4.2-1.1,5.7,0.3,8.3c1.3,2.3,3.2,2.7,3.3,4.7s-1.5,3.1-2.3,4.3
		c-2.9,4.2,3.8,8.8,4,16.7c0,2.4-0.5,4.8-1.3,7c0,0-2.8,48.7-1.7,48.7c0,0,7.5-22.2,10-37.7c4.4-27.5,2.5-44.5,1.3-52
		c-2.9-19-8-26.4-11-30c-4.3-5.2-6.5-5.3-14.3-12c-14.1-12.1-12.2-16.4-23.7-26.7c-16.3-14.6-35.4-19.7-39.3-15.3
		c-0.9,1-1.2,2.6-3,3.3c-3.1,1.2-6.6-2.7-8-2.7c-11.3,0.3-37.3,1.7-48.1,6.3c-8.4,3.6-8,5.9-15.9,10.1c-13.5,7-24.8,7.2-26.2,12.4
		c-0.7,2.5,3,1.8,3.5,6.2c0.6,4.9-3.1,10.6-7.7,13.3s-8.7,1.3-10,4c-1,2.2,1.1,3.8,0.7,7.7c-0.4,2.8-1.7,5.3-3.7,7.3
		c-7.2,8.6-4.3,40.4-4,44c1.4,16.3,5.5,32.3,12,47.3C384.2,293.7,390.4,304.2,390.4,304.2z"/>
	<path class="st10" d="M561.9,177.4c0,0,2.9-3-1.6-9"/>
	<path class="st10" d="M576.9,180.4c-5.1-5.4-15-3.1-15-3.1"/>
	<g id="Oreillle_gauche">
		
			<linearGradient id="SVGID_4_" gradientUnits="userSpaceOnUse" x1="371.767" y1="677.6321" x2="406.25" y2="677.6321" gradientTransform="matrix(1 0 0 -1 -12.3 986.5)">
			<stop  offset="0" style="stop-color:#F8DFD7"/>
			<stop  offset="0.5" style="stop-color:#F6E3DD"/>
			<stop  offset="1" style="stop-color:#FBF1EF"/>
		</linearGradient>
		<path class="st17" d="M390.4,304.2c0,0-13.8-32.8-26.8-25.3s9.4,32.4,8.7,32.6S394,340,394,340L390.4,304.2z"/>
		<path class="st18" d="M361.9,295.2c0,0,8.8-13.7,15.6,0.3"/>
		<path class="st18" d="M379.9,299.3c0,0,0.8,11.5,4.3,12.3"/>
	</g>
	<g id="Oreille_droite">
		
			<linearGradient id="SVGID_5_" gradientUnits="userSpaceOnUse" x1="575.0901" y1="676.3127" x2="603.5172" y2="676.3127" gradientTransform="matrix(1 0 0 -1 -12.3 986.5)">
			<stop  offset="0" style="stop-color:#F8DFD7"/>
			<stop  offset="0.5" style="stop-color:#F6E3DD"/>
			<stop  offset="1" style="stop-color:#FBF1EF"/>
		</linearGradient>
		<path class="st19" d="M577.8,277.7c0,0,18.1-8.7,12.3,17c-10,13.3-11.5,23.6-11.6,27s4.3,12.1-4.8,20.8
			c-2.8,2.7-10.9,1.1-10.9,1.1L577.8,277.7z"/>
		<path class="st18" d="M566.3,328.3c0,0-3-2.6,11.5-8.6"/>
		<line class="st18" x1="574.5" y1="287.9" x2="582.8" y2="286.4"/>
	</g>
	<g id="oeil_gauche">
		<path class="st20" d="M411.5,272.1c0,0,1.4-3.3,8.7-5.1c0,0,21.3-0.4,37.5,3.8"/>
		<path class="st21" d="M457.7,287.6c-20.2-26.6-36.2-6.3-39.5-5.1s-1,4.3-1,4.3s11.1,20.5,38.9,4.9
			C458.6,291.9,459.4,289.8,457.7,287.6z"/>
		<ellipse class="st22" cx="436.9" cy="283.5" rx="10.8" ry="8.6"/>
		<path class="st23" d="M430,283.8c0.1,2.3,1.5,4.4,3.7,5.3"/>
		<path class="st20" d="M434.7,278.3c-1.1,0.3-2.1,0.7-3,1.2"/>
	</g>
	<g id="Oeil_droit">
		<path class="st20" d="M556.6,272.1c-2.4-3.5-6-6-10.2-7c0,0-19.8,1.5-36,5.7"/>
		<path class="st21" d="M507.1,288.5c4.6-8.6,8.1-10.2,8.1-10.2c13.7-11.3,30.6,3.2,33.2,4.1c3.3,1.1-0.8,5.3-0.8,5.3
			c-2.7,5.5-16.3,17-37.9,4C507.2,291.9,505.4,290.7,507.1,288.5z"/>
		<ellipse class="st22" cx="526.8" cy="283.5" rx="10.8" ry="8.6"/>
		<path class="st24" d="M519.5,287c7.5,7.1,14.1,0.5,14.1,0.5"/>
	</g>
	<g id="Nez">
		<path class="st20" d="M471.2,292.1c0,0,3.1,6.3,3.1,16.9"/>
		<line class="st20" x1="492.6" y1="309" x2="492.6" y2="324"/>
		<path class="st20" d="M463.2,340.7c0,0-8.8,15.5,8,17"/>
		<path class="st20" d="M503.9,337.8c9.1,9.5,0.4,17-3.2,18.8c-0.4-13.4-9.7-9.4-11-3c-2.4,3.7-10.2,2.3-10.8,1.2
			c-5.4-7.3-9-6.3-9-6.3"/>
		<path class="st25" d="M493.6,359.1c2.6,2.9,1.9,3,2.2,3.5c1.2,2.2-0.5,3.5-0.1,7.3c0.8,3.1,2.4,6,4.7,8.3c1.5,1.5,5.9-2.7,4.4-4.8
			c-2.2-2.9,0.5-5-0.9-6.4s-1.2-1.2-1.8-2.4c-0.9-1.9-3-6.1-2.2-9.4c0.7-2.7-0.3-5.6-2.4-7.4c-1.5-0.8-3.3-0.7-4.6,0.4
			c-2.4,1.6-3.4,5.4-1.8,6.6C493,356.1,492,357.4,493.6,359.1z"/>
	</g>
	<g id="Bouche">
		<path class="st20" d="M474.1,377.3c0,0,3.5-2.8,6.7-0.4s5.3,2.5,8.3,0.4s8.9-2.1,8.9-2.1"/>
		<path class="st20" d="M454,386.8c28.8-0.4,37.7-1.6,61,0"/>
		<path class="st20" d="M475.2,395.4c0,0,10.4,4.1,20.1,0"/>
		<path class="st20" d="M496.3,408.2c0,0-12.9-3.6-23.3,1.7"/>
	</g>
	
		<linearGradient id="SVGID_6_" gradientUnits="userSpaceOnUse" x1="384.03" y1="662.11" x2="396.95" y2="662.11" gradientTransform="matrix(1 0 0 -1 0 1002)">
		<stop  offset="0" style="stop-color:#F8DFD7"/>
		<stop  offset="0.5" style="stop-color:#F6E3DD"/>
		<stop  offset="1" style="stop-color:#FBF1EF"/>
	</linearGradient>
	<ellipse class="st26" cx="390.5" cy="339.9" rx="6.5" ry="9.3"/>
</g>
<g id="Veste">
	<path class="st27" d="M544,401.2c0,0,7.5-3,26,11.7s31.2,21.9,50.7,33.8s22.2,13.5,32.5,14.5c27.2,3,24.3,15.4,28.8,25
		c5.7,12.2,22,26.2,22,26.2l14.2,14.8l-17.3-13.5l15.6,35.4l17.8,47.3l21.1,49.7l0.7,9.7l-38.7-7.1l-35-0.2l-45.5,2.8l-6.3,1.1
		l-12.7-21.5l-17.1-28.6l-18.8-38.6l-6.9-35.2l-2.3-22.9l2.4-12.6c4-3.1,7.6-6.6,10.8-10.5c4.8-6.1,8.2-12.1,8.7-15.1
		c1.3-8,2.1-7.9-0.2-13.5c-2-6.1-1.7-7-5.1-10.1c-3-2.8-7.7-5.1-11.6-6.8c-3.9-1.4-7.8-2.5-11.8-3.4l-7.3-1.7l5.2-5.7l-9.9-6.4
		l-11.3-1.3L544,401.2z"/>
	<line class="st10" x1="391.5" y1="518" x2="392.5" y2="528.2"/>
	<line class="st10" x1="397.2" y1="490.2" x2="376.7" y2="518.3"/>
	<path class="st10" d="M410,400.9c-21.5,41.6-14.5,65.2-14.5,65.2"/>
	<path class="st27" d="M415.2,395.4l5.4,5.3l0.4,20.5c-15.1,10.8-11.9,19.9-16.5,31.3l-7.4,11.1c-9.4,11,3.7,28.9,3.7,28.9l5,42.2
		l-6.9,95.9l4.7,118.9l-44.5,27l-56,16.1l-64.6,6.3l-7.9-63.3l-1.3-47.6c0.7-6.4,1.7-12.7,3.2-19c1.8-7.5,2.6-12.8,1.3-18.2
		c0,0,1.8-5.2,3.3-10.3s6-12.9,6-12.9s-14.3,3.2-22.3-2.8c-9.3,3.3-27.1,1.3-36.8-0.6c-9.7,6.4-26.2-0.3-29.3-2.1
		c-24.1,15.1-64.9-4.8-77.3-12.1c-17.3,2.8-32.2-17.7-40.3-25s-30-40.7-33.7-52.3C1.5,521.5,2,512,7.5,506.2
		c9.5-10,11.8-14.2,10.2-25.2c-0.7-33,39-46.5,39-46.5s16.3-25.3,30.5-37.2c28-24.9,58.5-25.5,58.5-25.5c7.2-1.3,13.5-5.5,17.3-11.8
		c25.3-4.7,43.6-0.7,53,0s22.5-3.3,22.5-3.3l18.8,50.3c0,0-12.7-0.8-22.5,16.3c-7.1,19.6-38.8,46-38.8,46s30.8-9.7,45.8-9.2
		c8-10.4,22.5-10.9,22.5-10.9s21.9-2.5,30.5-16c13.6-2,80.5-4.3,80.5-4.3s8.3-1.8,11.5-7C393.7,410.7,403.5,401.6,415.2,395.4z"/>
	<line class="st10" x1="211.7" y1="359.3" x2="221.9" y2="380.5"/>
	<line class="st10" x1="237.7" y1="407" x2="233.4" y2="400.9"/>
	<path class="st10" d="M97.2,464.3c0,0,30-17.5,63.5-28.1"/>
	<path class="st10" d="M191.2,537c17,1.3,34-4.8,34-4.8"/>
	<path class="st10" d="M147.4,392.8c0,0,24.3-17.5,58.3-15.7"/>
	<path class="st10" d="M188.2,409.9c20-3,21.8-9,21.8-9"/>
	<path class="st10" d="M194.4,440.3c22.4-13.5,33-27,33-27"/>
	<path class="st10" d="M111.2,381c0,0-20.5,11.9-28,33"/>
	<path class="st10" d="M60.2,429.3c0,0-7,10.3-8,22.8"/>
	<path class="st10" d="M32.5,500.5c27.8-5.3,36.7-23,36.7-23"/>
	<path class="st10" d="M44.2,520.5c0,0,0.5,23.3,21.7,44.8"/>
	<path class="st10" d="M88.4,546c0,0-5.8-10.3,4.5-20"/>
	<path class="st10" d="M123.4,547c15-12.4,42.8-8,42.8-8"/>
	<path class="st10" d="M173.7,513c37.3-30.3,68-52.9,68-52.9"/>
	<path class="st10" d="M206.8,466.1c0,0-15.4,11.9-38.9,11.4c-20.4-0.4-39.2,11.8-69.3,36.8"/>
	<path class="st10" d="M199.1,468.3c-12.6,1.4-20.2,6.8-36.1,6.7c-41.6,3.9-73.5,26.3-73.5,26.3"/>
	<path class="st10" d="M59.2,590.5c0,0,8,13.8,27.6,24.4"/>
	<path class="st10" d="M105.7,588c12.5,22,50.9,34.9,50.9,34.9"/>
	<path class="st10" d="M147.4,576c18.4,42,36.8,48.2,36.8,48.2"/>
	<path class="st10" d="M196.9,599c8.8,12.9,24,25.8,24,25.8"/>
	<path class="st10" d="M197.7,567c34.3,47.9,39.5,39.3,39.5,39.3"/>
	<line class="st10" x1="258.1" y1="450.2" x2="253.7" y2="486.6"/>
	<path class="st10" d="M292,456.5c0,21-15.3,34.8-15.3,34.8"/>
	<path class="st10" d="M269.5,547c2.9,12.5-0.8,20-0.8,20"/>
	<path class="st10" d="M266.2,572.5c-1.3,29-23,55-23,55"/>
	<path class="st10" d="M245.9,457.5c-9.8,38.5-0.1,66.8,6,95.5c5.8,27,2.8,55.8,2.8,55.8"/>
	<polygon class="st10" points="358,444 298.5,445 297.5,432.9 374,432.9 	"/>
	<path class="st10" d="M379.9,427.4c-61.5,40.9-105,107.3-105,107.3l87-2.5c13.8,10.6,21.8,31.8,21.8,31.8s-2.5,54-1.5,63.5
		s6.2,19.6,7.8,29.5s4.5,19.3,4.5,29v65.3"/>
	<path class="st10" d="M364.7,528.2c0,0,20.3,29.8,25,37s0.5,55.8,0,63.3s4.8,31.8,4.8,31.8l3.3,15.3l1.8,72.5"/>
	<polyline class="st10" points="364.7,449 374,445 374,457.5 	"/>
	<polyline class="st10" points="309,505.8 297.5,523.1 312.2,520.5 	"/>
	<polyline class="st10" points="383.7,486.6 364.7,520.5 347.2,508.5 	"/>
	<path class="st10" d="M277.7,592.8c-11.8,25.8-2,18-25.5,60.8c-3.6,6.5,3.3,69.8,3.3,69.8"/>
	<path class="st10" d="M309.2,630c-6.5,16.6-8.8,91-8.8,91"/>
	<path class="st10" d="M366.7,565.3c-18.3,19-36.5,90.3-36.5,90.3"/>
	<line class="st10" x1="365.5" y1="650" x2="362.2" y2="683.3"/>
	<line class="st10" x1="318.2" y1="734.2" x2="319.2" y2="788"/>
	<line class="st10" x1="588.9" y1="426.8" x2="695.5" y2="503.9"/>
	<line class="st10" x1="628.7" y1="470.2" x2="669.7" y2="508.5"/>
	<path class="st10" d="M591.2,477.5c0,0,28.2,31,43.2,35.5c17.3,5.2,66.5,0.5,66.5,0.5"/>
	<path class="st10" d="M582.2,486.6c2.5,15.4,6.8,43.7,11.1,57.3c22.5,71.7,43.5,107.1,43.5,107.1"/>
	<path class="st10" d="M628.1,510.1c-3.7,15.1,2,89.9,2,89.9"/>
	<path class="st10" d="M647.7,515c-5,36.5,8.3,131.6,8.3,131.6"/>
	<line class="st10" x1="688" y1="613.8" x2="690" y2="646.6"/>
	<path class="st10" d="M733.4,624.8c7.3,5.5,2,26.2,2,26.2"/>
	<path class="st10" d="M709.4,533.2c0,0,7.8,26.5-0.3,75.7"/>
	<path class="st10" d="M646.6,530.1c0,0,28.7,4.6,36.7,3c-1.3,17.1,17.5,110.1,17.5,110.1"/>
	<circle class="st27" cx="657.3" cy="550.7" r="10.5"/>
</g>
<g id="Main">
	
		<linearGradient id="SVGID_7_" gradientUnits="userSpaceOnUse" x1="248.5" y1="649.6615" x2="412.8897" y2="649.6615" gradientTransform="matrix(1 0 0 -1 -12.3 986.5)">
		<stop  offset="0" style="stop-color:#F8DFD7"/>
		<stop  offset="0.5" style="stop-color:#F6E3DD"/>
		<stop  offset="1" style="stop-color:#FBF1EF"/>
	</linearGradient>
	<path class="st28" d="M289.1,314.1c0,0-2-6.1,2.8-25.4s-5.4-23.3-5.4-23.3c-6.8-2.4-4.5,10.5-5,14.8s-9.5,16.6-11.5,20.5
		c-3.3,6.3-12.4,16.9-15.8,43.8c-5.2,5.1-11.3,9.3-18,12.3l18.3,50.8c5.3,1.1,10.7,1.4,16.1,0.8c8.4-0.8,11.5-3,22.1-8.3
		c13.9-6.9,17.8-14.6,21.6-12.5c14.1,8,38.1-3.7,6.8-28.6c21.8,21.8,19.6,19.9,28.4,11.1c7.8-22.6-27-28.7-27-28.7l62,0.4
		c4.2-0.2,12.6,0,15.9-8c0.3-0.7,1.6-6-6.1-8.8l-89.3-1.3c-1.3,0.2,91.3,1.3,91.3,1.3c9.3-14.6-11.9-15-24.8-14.8l-18-1.2
		c-9-0.5-19.5-1-22.8-2.3c-8.6-3.3-23.4-0.8-51.8,11.5"/>
	<line class="st20" x1="312.5" y1="332.6" x2="311.4" y2="338.4"/>
	<line class="st20" x1="317.2" y1="363" x2="316.7" y2="370.1"/>
	<line class="st20" x1="256.2" y1="366.9" x2="275.6" y2="351.6"/>
	<line class="st20" x1="299" y1="380.9" x2="310.6" y2="374.3"/>
	<path class="st20" d="M272.3,399c6.7,6.8,11.7,5,11.7,5"/>
	<line class="st20" x1="314.7" y1="348.6" x2="314" y2="352.1"/>
	<path class="st18" d="M289.2,269c0.7,4.7-2.3,9.1-6.9,10.3"/>
	<path class="st29" d="M398.1,318c0,3.3-4.1,6-9.3,6c-4.3,0.1-7.8-3.3-8-7.5c0-3.3,2.9-4.5,8-4.5S398.1,314.7,398.1,318z"/>
	<path class="st29" d="M399.4,332.9c0,3.3-4.1,6-9.3,6s-8.1-1.1-8.1-4.4c0.2-4.3,3.8-7.7,8.1-7.6
		C395.3,326.9,399.4,329.6,399.4,332.9z"/>
</g>
<g id="Calque_9">
	<g class="st30">
		<path d="M274.3,827.5l1.5,4.7l-0.4,0.5l-1.3,0.1c-0.6,0-0.9-0.8-1-2.5l-17.7,1.6l-3.9-0.3l0.4,8.2l1.7,0.4l0.1,1.3l-2.1,1.8
			l0.2,4.3l11.7-0.1l0.4,0c1.6-0.1,2.4-0.8,2.5-2.3l0.4,0c1.2,0.4,1.8,1.4,1.9,2.9l0.1,2.2l-0.8,0.9l-2.2-1.6l-3,0.6l-10.9-0.4
			l0.3,6.5c1.2,0.1,1.8,0.5,1.8,1.2c-1.4,0.4-2.1,0.9-2.1,1.4l0.4,8.2l1.3-0.1c1.7,0.1,2.6,0.5,2.7,1.2l0,0.8l-0.8,0.9l-5.2-0.7
			l-3.4,1l0-0.9c0-0.9,1.1-1.5,3.4-1.9l-0.4-8.7c-2-0.1-3-0.5-3.1-1.2l0.8-0.9l2.2-0.1l0.3-3.9L249,846l0.3-3.5
			c-1.7,0.1-2.6-0.2-2.7-0.8c0-0.9,0.8-1.3,2.6-1.4l-0.1-3.5l0.2-4.8l-0.5-1.3c1.1-0.9,2.4-1.4,3.8-1.5l7.4-0.3l5.6-0.6l3.9,0.2
			L274.3,827.5z"/>
	</g>
	<g class="st30">
		<path d="M288.4,825.6l0.4-0.1c7.3-1.5,12.8,0.3,16.5,5.6l1,0.7l0.2,0.9c0.1,0.6-0.5,1-1.9,1.3c0.6,2.7-1.9,6.1-7.4,10.1l-3.3,1.6
			c4.3,2.1,6.8,4.3,7.2,6.6c0.7,0.1,2.3,1.9,4.7,5.3l3.7,2.8l1.7-0.4c1.9-0.4,3-1.5,3.3-3.4c-1.4,0.3-2.3,0-2.4-0.8l-0.1-0.4l0.7-1
			l3-0.6l1,0.7c0.8,3.9-0.7,6.6-4.6,8.2l-1.3,0.3c-2.9,0.6-7.5-3.5-13.8-12.4c-2.4-1.9-4.4-2.7-5.9-2.4l-4.3,0.9
			c-1,0.2-0.7,4.9,1.1,14.2l-0.3,0.5c2-0.4,3.1-0.2,3.3,0.7c-0.9,1.2-2.2,2.2-3.9,3.1c-2.1,0.1-3.2-0.1-3.3-0.7l-0.1-0.4
			c-0.1-0.6,0.5-1,2-1.3l-2.7-17.4l-1.2-5.6c-0.9,0.2-1.4,0-1.5-0.6l-0.2-0.9c-0.1-0.6,0.3-1,1.1-1.1l0.3-0.5l-1.4-6.9l0.3-0.5
			l-0.1-0.4c-1.7,0.4-2.7,0.3-2.8-0.3C278,828.7,281.5,827,288.4,825.6z M282.7,832.7l1.2,5.6c0.9-0.2,1.4,0,1.5,0.6l0.1,0.4l-0.9,2
			l1.1,5.2c8.9-1.8,14.5-5.9,16.9-12.1c-1.2,0.2-1.8,0.1-1.9-0.5c-0.2-1.2,0.4-1.9,1.8-2.2c-0.6-2.9-4.8-4.3-12.6-4.1l-1.3,0.3
			C284.1,828.8,282.2,830.4,282.7,832.7z"/>
	</g>
	<g class="st30">
		<path d="M315,818.8l3.8-0.7l7.3-2.7l1.7,1.3l0.5,1.6c0.4,1.4,0.3,2.4-0.5,2.8c-0.6,0.2-1.2-0.8-1.8-3l-1.3-0.1l-3.9,2.1l3.1,10.3
			c0.8,2.7,2.1,4.4,3.8,5.1c0.2,0.6-0.3,1-1.4,1.3l-0.1,1.3l3.7,10.6l1.1,3.7l-0.3,0.5l0.1,0.4l0.6,0.3l3.5-1.1
			c0.6-0.2,0.7-0.8,0.3-1.9l1.2-0.4l1.3,2.7c-0.9,0.9-2.5,1.7-4.9,2.4l-8.1,2.4l-1.6-0.9l-0.4-1.2l0.6-1.1l0.4-0.1
			c0.6-0.2,1,0.2,1.2,1l3.1-0.9c0.8-0.4,0.9-1.5,0.4-3.3c-1.6-5.2-3.1-9.2-4.5-12.1l0.3-0.5l-0.8-1.1c-1.1,0.3-1.7,0.2-1.9-0.3
			c-0.2-0.6,0.4-1.2,1.7-1.9l-3-9.8c-1-3.3-1.9-4.8-2.7-4.6l-3,0.5c0.1,1.5-0.1,2.3-0.6,2.4l-0.8,0.2l-1.7-2.6
			C311.9,820.8,313.1,819.8,315,818.8z"/>
	</g>
	<g class="st30">
		<path d="M340.3,810.3l14.6-5.6l0.4-0.1c0.9-0.1,1.7,0.8,2.5,2.8l0.3,0.8l0.4,2.2l-1.2,0.5l-1.1-0.5l-0.5-1.2l-0.4-2.2l-0.3,0.6
			l-17.6,6.4l-2.4,0.9l0.5,1.2l0.6,3c1.4-0.4,2.2-0.3,2.5,0.5l-1.4,2.4l0.1,1.4l1,1.5l1.4,5.1l0.4-0.2c9.2-3.5,13.8-5.5,13.5-6
			l0.5-1.1c0.9,0,1.7,0.6,2.2,2l0.5,1.2l-0.8,1.7c-0.5,0.2-0.9-0.1-1.2-0.9l-3.7,1.4l-10.8,4.5l0.1,0.4c1.4,3.8,2.7,5.5,3.8,5.1
			c0.8-0.3,1.3-0.2,1.6,0.4l0.1,0.4c0.2,0.6-0.5,1.1-2.1,1.7l3.2,8.6l5.1-1.4l16.8-6.2l-0.9-2.4l0.5-1.1l0.8-0.3l2.5,4.2
			c-1.4,1.3-6.7,3.7-15.9,7.2l-10.4,3.4l-0.6-0.3l-2.2-7.1l-1.4-3.7c-1.4,0.5-2.1,0.5-2.3-0.1l-0.1-0.4c-0.2-0.6,0.3-1.3,1.6-2
			l-5.8-15.5l0.3-0.6l-0.2-0.4c-1.6,0.6-2.6,0.5-2.9-0.3c-0.2-0.6,0.5-1.5,2.3-2.7l-1.1-2.9l-1.2-1.9l1.3-1.4L340.3,810.3z"/>
	</g>
	<g class="st30">
		<path d="M390.1,788.3l1.4-0.1l0.2,0.5l-0.4,1.1l-1.2,0.5l-0.6-0.2l-0.4,0.2l1.7,4.9l2.1,4.7l2.7,4l5,11.4c3.2,6.2,5.6,9.6,7.1,10
			l0.4,0.8l-3.8,1.7l-1.8,1.2l-0.6-0.2l-0.2-0.4l0.3-1.5c-9.5-4.9-15.7-8.8-18.6-11.7l-3.1,1.4l-0.4-0.8c-0.2-0.5,0-1,0.8-1.3
			l-0.2-0.4c-2.3-1.2-5.8-3.5-10.3-6.8c-0.8,0.4-2.7-0.8-5.6-3.5l-0.8,0.3l3.8,9.7c7,15.4,10.8,23.2,11.3,23.4
			c1.6-0.7,2.6-0.5,3,0.4l-4,1.8c-1.4,1-2.2,1.2-2.4,0.8c-0.3-0.7,0-1.4,0.9-2.2l-9.9-21.4l-1.9-4.3l-3-7.7
			c-1.2,0.1-1.9-0.1-2.1-0.5l-0.2-0.4c-0.3-0.6,0.5-1.4,2.2-2.4l2.1-0.5l1-0.9l0.9,1l0.1,1.4l0.4-0.2c4.3,3.5,7.4,5.6,9.3,6.3
			c0.4,0.9,2.6,2.2,6.5,3.9c0.3,0.6,1.4,0.7,3.4,0.4l0.3,0.8l-0.8,0.3l0.2,0.4c0.4,0.4,6.2,4,17.3,10.8l0.4-0.2l-2.4-5.5
			c-3.1-7-6.9-14.6-11.6-23l-1.5-4.5l-0.4,0.2c-1.3,0.6-2.1,0.6-2.3,0.1C384.5,791.3,386.2,790.1,390.1,788.3z"/>
	</g>
	<g class="st30">
		<path d="M395.3,787l0.6,0.2l1.7-1.2l1.5-0.7c12-5.1,21.2-4.5,27.6,1.8c2.6,1.9,4.5,3.9,5.7,6c0.8-0.3,1.2-0.2,1.5,0.3
			c-0.6,1.4-0.8,4.6-0.4,9.6c-2.1,8.6-6.5,14.4-13.3,17.3l-2.7,1.1l-2.4,0.6l-1.8,1.2l-1.1,0.5l-1.1-0.4l-0.1-0.4
			c-0.3-0.6,0.4-1.4,2.1-2.3l-4.6-8.8l-0.9-3.2c-0.9,0.1-1.6-0.5-2.1-1.8l0.7-0.3l-2.1-4l-1.4-4.2l-3.4-7.1l-0.1-0.4l-0.8-2.8
			l-1.9,0.8l-1.6-0.7L395.3,787z M400.3,788.1c5.1,11.5,7.8,17.2,8.1,17.1c0.8-0.3,1.2-0.2,1.5,0.3l0.1,0.4l-0.5,2l1.6,3.8
			c2.5,5.8,4.1,8.6,4.9,8.3l2.7-1.1c7.4-3.1,11.6-8.6,12.7-16.6l-0.2-5.7L431,796c-0.8,0.3-1.3,0.2-1.5-0.3l0.3-2.4
			c-0.9-2-2.3-3.2-4.2-3.6c-2.3-3.3-6.1-5.3-11.5-5.8c-1.6-0.2-5.4,0.5-11.2,2.1l-0.2-0.4C400.9,786.8,400,787.6,400.3,788.1z"/>
	</g>
	<g class="st30">
		<path d="M442,763.6c6-3,10.6-2.2,13.9,2.4c1-0.5,1.7-0.5,1.9,0l0.2,0.4l-0.6,1.8l-3.1,1.6l-1.2-0.4l0.4-2.1
			c-1.7-3.4-5.4-3.7-11.2-0.8l-2,1c-2.4,2.4-2.6,5.6-0.6,9.6c0.7,1.3,3.8,1.7,9.4,1.2l0.6-1.8c0.4-0.2,1.2,0.4,2.3,1.8
			c3.4-1.7,7.5,0,12.3,5l2.2,2.2c2.6,6.4,1.3,10.8-3.8,13.4l-2.1,1.6l-4.3,2.2c-5.7,1.6-9,1.6-9.8,0c-0.4,0.2-1-0.3-1.8-1.5
			c-1.6,0.8-2.5,0.9-2.7,0.4c-0.1-1.3,0.5-2.2,1.9-2.9l2.4-1.2c1.6-0.6,2.6-0.6,2.9,0c0.3,0.5-0.3,1.4-1.6,2.7l0.2,0.4
			c0.5,1,3,0.8,7.7-0.4l0.8-0.4c6.8-3.4,9.9-7.1,9.1-11l-1.2-1.9c-5-5.6-8.8-7.7-11.6-6.4l-0.4,1.2l-0.4,0.2
			c-1.6-1.2-4.7-1.4-9.2-0.8c-2.7-0.9-4.4-1.9-4.9-2.9C434.6,771.4,436,766.6,442,763.6z"/>
	</g>
	<g class="st30">
		<path d="M476.1,747.1l0.6,0.2l1.7-1.2l1.5-0.7c12-5.1,21.2-4.5,27.6,1.7c2.6,1.9,4.5,3.9,5.7,6c0.8-0.3,1.2-0.2,1.5,0.3
			c-0.6,1.4-0.7,4.6-0.4,9.6c-2.1,8.6-6.5,14.4-13.3,17.3l-2.7,1.1l-2.4,0.6l-1.8,1.2l-1.1,0.5l-1.1-0.4l-0.1-0.4
			c-0.3-0.6,0.4-1.4,2.1-2.3l-4.6-8.8l-0.9-3.2c-0.9,0.1-1.6-0.5-2.1-1.8l0.7-0.3l-2.1-4l-1.4-4.2l-3.4-7.1l-0.1-0.4l-0.8-2.8
			l-1.9,0.8l-1.6-0.7L476.1,747.1z M481,748.1c5.1,11.5,7.8,17.2,8.2,17.1c0.8-0.3,1.2-0.2,1.5,0.3l0.1,0.4l-0.5,2l1.6,3.8
			c2.5,5.8,4.1,8.6,4.9,8.2l2.7-1.1c7.3-3.1,11.6-8.7,12.7-16.6l-0.2-5.7l-0.1-0.4c-0.8,0.3-1.3,0.2-1.5-0.3l0.3-2.4
			c-0.9-2-2.3-3.2-4.2-3.6c-2.3-3.3-6.1-5.3-11.5-5.8c-1.6-0.2-5.4,0.5-11.2,2.1l-0.2-0.4C481.6,746.8,480.8,747.6,481,748.1z"/>
	</g>
	<g class="st30">
		<path d="M522.2,724.7l4.5-2.1c5.8-2.6,11.7,0.3,17.7,8.8c1.3,2.8,2.7,4.2,4.3,4.4l0.2,0.4c0.2,0.5-0.2,1-1.2,1.4
			c2.2,9.9,2.4,15.3,0.5,16.2c-1,3.5-2.6,5.8-5.1,6.9l-1.9,0.9c-7.7,1.7-12.8-0.3-15.4-5.8c-2.4-1.2-3.9-2.4-4.4-3.5l-1.4-3
			c-1.5,0.7-2.4,0.8-2.6,0.3l-0.3-0.7c-0.2-0.5,0.2-1,1.2-1.4C515.2,734.9,516.4,727.3,522.2,724.7z M523.5,726.4l-1.9,0.9
			c-3.3,6.1-3.8,11.7-1.4,17l0.9,1.9c1.3-0.4,2.1-0.3,2.4,0.3l0.2,0.4c0.2,0.5-0.3,1.1-1.5,1.6c1.2,2.6,3.7,5.5,7.7,8.8
			c1,2.3,4.9,3.1,11.6,2.5c3.8-3.6,5.4-6.2,4.7-7.6c2.2-3.2,2-7.7-0.6-13.4l-0.4,0.2c-1.3,0.6-2,0.6-2.2,0.1l-0.4-0.8
			c-0.2-0.5,0.4-1.1,1.9-1.8l-0.5-1.1l-1.2-3.6l-4.8-4.6c-1.8-2-4.2-3.2-7.1-3.6l-2.2,0.1L523.5,726.4z"/>
	</g>
	<g class="st30">
		<path d="M575.8,700.7l1.4-0.1l0.2,0.5l-0.5,1.1l-1.2,0.5l-0.6-0.2l-0.4,0.2l1.6,4.9l1.9,4.8l2.6,4.1l4.7,11.6
			c3.1,6.3,5.3,9.8,6.8,10.3l0.3,0.8l-3.8,1.6l-1.8,1.2l-0.6-0.2l-0.2-0.4l0.3-1.5c-9.4-5.2-15.5-9.3-18.4-12.2l-3.2,1.3l-0.3-0.8
			c-0.2-0.5,0.1-1,0.9-1.3l-0.2-0.4c-2.3-1.3-5.7-3.7-10.2-7.1c-0.8,0.3-2.7-0.9-5.5-3.7l-0.8,0.3l3.6,9.9
			c6.6,15.6,10.2,23.6,10.7,23.9c1.6-0.7,2.6-0.5,3,0.5l-4.1,1.7c-1.4,0.9-2.2,1.2-2.4,0.7c-0.3-0.7,0-1.4,1-2.2l-9.4-21.8l-1.8-4.4
			l-2.8-7.9c-1.2,0-1.9-0.2-2.1-0.6l-0.2-0.4c-0.3-0.6,0.5-1.4,2.3-2.3l2.1-0.4l1-0.9l0.9,1l0.1,1.4l0.4-0.2
			c4.2,3.7,7.2,5.9,9.2,6.6c0.4,0.9,2.5,2.3,6.4,4.1c0.3,0.6,1.4,0.8,3.4,0.5l0.3,0.8l-0.8,0.3l0.2,0.4c0.4,0.4,6.1,4.2,17.1,11.4
			l0.4-0.2l-2.3-5.6c-2.9-7.1-6.6-14.9-11-23.4l-1.4-4.5l-0.4,0.2c-1.3,0.5-2.1,0.5-2.3,0C570,703.6,571.8,702.4,575.8,700.7z"/>
	</g>
	<g class="st30">
		<path d="M578.4,691.5c-0.2-0.5,0-0.9,0.7-1.2c0.7-0.3,1.1-0.1,1.3,0.4c1,2.6,1.7,4.7,2,6.1c0.2,0.5-0.1,0.9-0.8,1.2l-0.1,0
			c-0.6,0.2-1,0.1-1.1-0.4l0-0.1C580,696.1,579.3,694.1,578.4,691.5z"/>
	</g>
	<g class="st30">
		<path d="M597.1,694.2l14.7-4.4l5.3-2.2l1.1,0.6c1,3.7,1.2,5.6,0.6,5.8l-0.4,0.1l-1.1-0.6l-0.8-2.5l-12.5,4.2l2.2,5.3l2.8,9.7
			l0.4-0.1c1.1-0.4,1.7-0.3,1.9,0.3c-0.9,2-0.9,4.2-0.1,6.5l4,12.1c1.4-0.5,2.2-0.4,2.3,0.1l0.3,0.8l-0.6,1.1l-4.6,1.5l-1.1-0.6
			l-0.1-0.4c1-1.5,1.3-2.9,0.9-4l-4.5-13.3c-0.2-0.5-1.2-0.8-3-0.8l-0.1-0.4c1.4-1.3,1.3-4.2-0.2-8.7l-2-5.8l-1.4-2.8l-2.5,0.8
			l-8.2,3.2l0.7,2.1l-0.8,1.7l-0.4,0.1c-0.8,0.3-1.9-1.4-3.1-5C587.6,697.9,590.9,696.4,597.1,694.2z"/>
	</g>
	<g class="st30">
		<path d="M643.4,680.7l5.1-1.1l1.1,0.7l0.2,0.9l-1.6,0.8l3.1,13.7c1.1-0.3,1.8-0.1,1.9,0.5l0.1,0.4c0.1,0.6-0.2,1-1.1,1.1
			c0.7,1.4,1.4,4.5,2.3,9.3l0.5,2.2l1.1,7.4l1.5,0.5l17-4.1c-0.3-1.4-0.2-2.2,0.4-2.3l0.4-0.1l1,0.7l0.6,2.6l-0.5,1.5l-7.8,1.3
			l-7.9,2.6c-4.3,0.8-6.6,0.7-6.8-0.3l-2-14.7l-1-4.7c-0.1-0.6-0.8-0.7-1.9-0.5l-0.5-0.3l-0.1-0.4c-0.1-0.6,0.2-1,1.1-1.1l-3.2-14.6
			c-2,0.2-3.1,0-3.3-0.6L643.4,680.7z"/>
	</g>
	<g class="st30">
		<path d="M677.1,673.7l3.9-0.2l7.5-1.7l1.5,1.5l0.3,1.7c0.2,1.5,0,2.4-0.8,2.8c-0.6,0.1-1.1-1-1.4-3.2l-1.3-0.2l-4.1,1.5l1.7,10.6
			c0.4,2.7,1.5,4.6,3.1,5.6c0.1,0.6-0.4,1-1.6,1.1l-0.2,1.3l2.2,10.9l0.6,3.8l-0.4,0.5l0.1,0.4l0.5,0.4l3.6-0.6
			c0.6-0.1,0.8-0.7,0.6-1.9l1.2-0.2l0.9,2.9c-1,0.8-2.7,1.3-5.2,1.7l-8.3,1.3l-1.5-1.1l-0.2-1.3l0.7-1l0.4-0.1
			c0.6-0.1,0.9,0.3,1.1,1.1l3.2-0.5c0.8-0.3,1.1-1.4,0.8-3.2c-0.9-5.4-1.8-9.5-2.9-12.5l0.3-0.5l-0.6-1.2c-1.1,0.2-1.8,0-1.9-0.6
			c-0.1-0.6,0.5-1.2,1.9-1.6l-1.6-10.1c-0.6-3.4-1.2-5-2.1-4.9l-3,0.1c-0.1,1.5-0.4,2.2-0.9,2.3l-0.8,0.1l-1.3-2.8
			C673.8,675.2,675.1,674.4,677.1,673.7z"/>
	</g>
	<g class="st30">
		<path d="M706.7,669.3l15.7-1.5l0.4,0c0.9,0.1,1.4,1.2,1.6,3.3l0.1,0.9l-0.2,2.2l-1.3,0.1l-1-0.8l-0.1-1.3l0.2-2.2l-0.4,0.5
			l-18.7,1.5l-2.6,0.2l0.1,1.3l-0.2,3.1c1.5,0,2.2,0.3,2.3,1.1l-2,1.9l-0.3,1.4l0.6,1.7l0,5.3l0.4,0c9.9-0.9,14.8-1.6,14.7-2.2
			l0.8-1c0.9,0.2,1.4,1,1.6,2.5l0.1,1.3l-1.2,1.4c-0.6,0.1-0.9-0.4-1-1.2l-3.9,0.4l-11.7,1.5l0,0.4c0.4,4.1,1.1,6.1,2.3,6
			c0.9-0.1,1.4,0.2,1.4,0.8l0,0.4c0.1,0.6-0.8,1-2.5,1.1l0.8,9.1l5.3,0l17.9-1.5l-0.2-2.6l0.8-1l0.9-0.1l1.3,4.7
			c-1.7,0.9-7.4,1.8-17.3,2.7l-10.9,0.5l-0.5-0.4l-0.2-7.4l-0.4-3.9c-1.4,0.1-2.2-0.1-2.3-0.7l0-0.4c-0.1-0.7,0.6-1.2,2.1-1.5
			l-1.5-16.5l0.4-0.5l0-0.4c-1.7,0.2-2.7-0.2-2.7-1.1c-0.1-0.7,0.9-1.3,2.9-2l-0.3-3.1l-0.6-2.1l1.7-1L706.7,669.3z"/>
	</g>
</g>
</svg>
