<?xml version="1.0" encoding="utf-8"?>
<!-- Generator: Adobe Illustrator 23.0.0, SVG Export Plug-In . SVG Version: 6.00 Build 0)  -->
<svg version="1.1" id="Calque_1" xmlns="http://www.w3.org/2000/svg" xmlns:xlink="http://www.w3.org/1999/xlink" x="0px" y="0px"
	 viewBox="0 0 1248.2 819.8" style="enable-background:new 0 0 1248.2 819.8;" xml:space="preserve">
<style type="text/css">
	.st0{fill:#C00D0D;}
	.st1{fill:none;stroke:#1D1D1B;stroke-width:10;stroke-miterlimit:10;}
	.st2{fill:#1D1D1B;}
	.st3{fill:#1D1D1B;stroke:#FFFFFF;stroke-width:8;stroke-miterlimit:10;}
	.st4{fill:none;stroke:#1D1D1B;stroke-width:12;stroke-miterlimit:10;}
	.st5{fill:#005F27;stroke:#1D1D1B;stroke-width:10;stroke-miterlimit:10;}
	.st6{fill:none;stroke:#1D1D1B;stroke-width:11;stroke-miterlimit:10;}
	.st7{fill:#43BDD8;}
	.st8{fill:#E3E3E3;stroke:#1D1D1B;stroke-width:15;stroke-miterlimit:10;}
	.st9{fill:#C00D0D;stroke:#1D1D1B;stroke-width:12;stroke-miterlimit:10;}
	.st10{fill:none;stroke:#1D1D1B;stroke-width:15;stroke-miterlimit:10;}
	.st11{fill:#E9A30E;stroke:#1D1D1B;stroke-width:16;stroke-miterlimit:10;}
	.st12{fill:#FFFFFF;stroke:#1D1D1B;stroke-width:16;stroke-miterlimit:10;}
	.st13{fill:#E9A30E;stroke:#1D1D1B;stroke-width:15;stroke-miterlimit:10;}
	.st14{fill:#808080;stroke:#1D1D1B;stroke-width:15;stroke-miterlimit:10;}
	.st15{fill:#706F6F;stroke:#1D1D1B;stroke-width:12;stroke-miterlimit:10;}
	.st16{enable-background:new    ;}
</style>
<title>fuck_luck</title>
<g id="ROSE">
	<path class="st0" d="M1087.9,643.8l-29.6-50.6l22.6-31.1l56.2,20.3C1142.9,616.3,1120.5,641.4,1087.9,643.8z"/>
	<path class="st0" d="M990.5,625c0,0,14.1-20.1,15.3-19.8s21.5-22.8,21.5-22.8l31.2,7.7l1.7,53.4
		C1038.5,658.3,1005.6,655.5,990.5,625z"/>
	<path class="st0" d="M959.6,551.1l58.2,2.1l11.4,29.8l-57.9,17.3C955.3,578.5,953.3,559.6,959.6,551.1z"/>
	<path class="st0" d="M1128.2,558.2c0,0-21.8,5.3-22.1,4.1s-31.6-2.6-31.6-2.6l4.7-17.3l46.4-31.5
		C1137.4,528.5,1146.7,538.5,1128.2,558.2z"/>
	<path class="st1" d="M1153.4,492.4c24.5,81.4-54.5,72-80.8,69c177,19.8,24.8,182.5-15.4,22.2c44.8,135.7-157,106.2-19.6-11.1
		c-20.8,17.7-119.9,64.9-93.3-27.2C944.3,545.3,1064.4,579.2,1153.4,492.4z"/>
	<path class="st2" d="M1019.8,558.4c2.5-16.9,23.2-16.6,39.4-20.5c16.6-4,24.4,12.5,21.9,29.5c-3.2,16.8-19.4,27.9-36.2,24.7
		C1029,589,1018.1,574.4,1019.8,558.4L1019.8,558.4z"/>
	<circle class="st3" cx="1050.7" cy="564.9" r="13.5"/>
	<line class="st4" x1="1111.4" y1="526.4" x2="1076.6" y2="549.1"/>
	<circle class="st2" cx="1111.4" cy="526.4" r="5.9"/>
	<line class="st4" x1="1104.7" y1="607.4" x2="1074.5" y2="578.9"/>
	<circle class="st2" cx="1104.8" cy="607.2" r="5.9"/>
	<line class="st4" x1="1027" y1="623.7" x2="1040.7" y2="584.5"/>
	<ellipse transform="matrix(0.1602 -0.9871 0.9871 0.1602 246.8234 1537.5862)" class="st2" cx="1027" cy="623.7" rx="6" ry="5.9"/>
	<line class="st4" x1="983" y1="571.5" x2="1023" y2="560.1"/>
	<circle class="st2" cx="983" cy="571.6" r="6"/>
	<path class="st5" d="M1239.8,710.1c-37.8-21.2,1.8-103-80.9-97.9c0,0,60.9,2,78.6-12.6c0,0-46-86.6-75-79
		c-2,29-33.4,47.1-33.4,47.1c18.8,13.3,29.8,44.5,29.8,44.5s2.4,31.2-28.4,38.8C1166.2,713.5,1244.7,718.2,1239.8,710.1z"/>
	<path class="st2" d="M1248.2,710.8c0.4,4.3-2.8,8.2-7.2,8.6c-4.3,0.4-8.5-2.8-8.6-7.2c-0.1-4.7,3.1-8.5,7.2-8.6
		C1244,703.6,1247.8,706.5,1248.2,710.8z"/>
	<circle class="st2" cx="1238.7" cy="599.9" r="7.4"/>
	<path class="st6" d="M1177.7,654.8c0,0-15.7-13.1-12.6-39.6"/>
	<circle class="st2" cx="1175.9" cy="653.3" r="5.9"/>
	<path class="st4" d="M1170.2,572.5c0,0-27.9-14.1-53.1-5.2"/>
	<circle class="st2" cx="1170.1" cy="572.7" r="5.9"/>
</g>
<g id="ROSE-2">
	<path class="st0" d="M166.7,230.2c0,0,19.4,16.5,18.7,17.5s17.9,28.3,17.9,28.3l-15.9,31.9L128.8,296
		C118.1,263.2,134.7,237.2,166.7,230.2z"/>
	<path class="st0" d="M267.7,232.4c0,0-11,22-12.3,21.8c-1.3-0.3-17.9,25.7-17.9,25.7l-32-3.1l-9.4-52.6
		C215.3,206.5,248.3,204.5,267.7,232.4z"/>
	<path class="st0" d="M315.2,301.2l-64.7,7.3l-11.4-34.1l57-21.2C315.1,272.5,320.2,292,315.2,301.2z"/>
	<path class="st0" d="M141,318.6c0,0,20.9-8.4,21.3-7.3s31.7-2,31.7-2l-2.1,17.8l-41.3,37.8C136.2,349.3,125.6,340.7,141,318.6z"/>
	<path class="st1" d="M125.7,387.2c-36-77,43.5-79.1,70-80c-178,6-51-177,12-24.2c-64-127.8,140-127.8,21,8.2
		c18-20.5,109.3-81.6,96.3,13.4C324.9,304.7,201.2,288.5,125.7,387.2z"/>
	<path class="st2" d="M248.3,302.7c0,17.1-20.5,19.7-36,26c-15.9,6.4-26-8.9-26-26c-0.8-17.1,12.5-31.6,29.6-32.3
		s31.6,12.5,32.3,29.6C248.3,300.9,248.3,301.8,248.3,302.7L248.3,302.7z"/>
	<circle class="st3" cx="216.8" cy="300.6" r="13.5"/>
	<line class="st4" x1="162.3" y1="347.6" x2="193.4" y2="320.1"/>
	<circle class="st2" cx="162.3" cy="347.6" r="6"/>
	<line class="st4" x1="157.2" y1="266.4" x2="191.2" y2="290.3"/>
	<circle class="st2" cx="157.2" cy="266.6" r="6"/>
	<line class="st4" x1="231.7" y1="239" x2="223.9" y2="279.8"/>
	<circle class="st2" cx="231.7" cy="239" r="5.9"/>
	<line class="st4" x1="282.7" y1="284.3" x2="244.9" y2="301.4"/>
	<circle class="st2" cx="282.7" cy="284.3" r="6"/>
	<path class="st5" d="M8.7,184.4c40.5,15.5,13.1,102.1,94.3,85.1c0,0-60.6,6.8-75.9,23.8c0,0,58,79,85.7,67.3
		c-2.2-29,26.2-51.4,26.2-51.4c-20.5-10.4-35.9-39.7-35.9-39.7S96,239,125.4,227C81,170.3,2.7,177.1,8.7,184.4z"/>
	<path class="st2" d="M0.2,184.9c-1-4.2,1.6-8.5,5.8-9.5c4.3-1,8.8,1.5,9.5,5.8c0.8,4.6-1.9,8.9-5.8,9.5
		C5.4,191.4,1.2,189.1,0.2,184.9z"/>
	<circle class="st2" cx="25.7" cy="293.2" r="7.4"/>
	<path class="st6" d="M78.2,230.2c0,0,17.4,10.6,18.2,37.3"/>
	<circle class="st2" cx="80.1" cy="231.4" r="5.9"/>
	<path class="st4" d="M97.4,310.5c0,0,29.6,9.9,53.3-2.6"/>
	<circle class="st2" cx="97.5" cy="310.3" r="6"/>
</g>
<ellipse class="st7" cx="624.1" cy="401.2" rx="240.7" ry="331.5"/>
<path id="FER_A_CHEVAL" class="st8" d="M480.3,497.7c0,0-45-148.8,76.5-400.4c33.7-70.4-62.6-136.6-123-45L432,55
	c-192.3,300.8-111.7,553.3-26.3,657.3c0,0,17.3,27.7,80.2,64c111.8,71,260.2,16.4,276.8,7.3c37-20.3,63.3-40,85.1-65.4
	c31.1-36.3,58.5-67.8,83.2-140.3c42.7-377.1-87.2-488.2-102.2-518.2c-76.5-96-146-26.5-124,36c129,332,71.3,438.2,61.8,455.8
	C625.3,753.7,495,572.9,480.3,497.7z"/>
<path class="st9" d="M868,227.5l8.7,42l8.1,47.9c-28.3,5.3-54.9-10.6-59.5-35.4S839.7,232.8,868,227.5z"/>
<path class="st10" d="M846.1,161.3c87,225,7.5,404.9,7.5,405.5"/>
<circle class="st2" cx="846.1" cy="161.2" r="7.6"/>
<path class="st9" d="M442.9,283.2c-4.8,21.1-27.1,34.3-64.2,25.9l18.6-81.7C433.7,236.4,448.1,260.8,442.9,283.2z"/>
<path class="st9" d="M452.5,486.5c-3.8,36.8-36.3,54.3-64.8,50.7l-9-56.3L452.5,486.5z"/>
<path class="st10" d="M414,161.3c-87.3,227.3-20.7,416-20.7,416"/>
<circle class="st2" cx="414" cy="161.2" r="7.6"/>
<circle class="st2" cx="393" cy="576.4" r="7.5"/>
<g id="BANDEAU">
	<path class="st11" d="M1020.4,360.3l-2.9-31.7c0,0-98.4,2.9-79-60.9c36.1-57.7,153.4-26,154.6,35.4
		C1094.5,367.5,1020.4,360.3,1020.4,360.3z"/>
	<path class="st12" d="M1052.4,245.9c123.7,28.3,132.3,141.3,132.3,141.3c8.4,142.5-109.4,162-226.3,159.5
		c-340.7-0.4-374.3-98.4-680.1-65c-214.5,38-111.5,152.5-111.5,152.5c-53.6-43.9-127.3-129.2-50-242.5c69.7-102.3,182.3-91,281-79
		c47.7,7.7,399,71.9,537,66C1108,371.2,1118.7,319,1052.4,245.9z"/>
	<path class="st13" d="M216.8,497.7v76c0,0,105.6-17,87.9,50c-35,61.3-142.3,37.5-162.7-23C119,532.7,216.8,497.7,216.8,497.7z"/>
</g>
<path class="st14" d="M824,61.3c0,0-28.9,65.5-8.6,107.5c-20.3-42-102.5-61.7-102.5-61.7C672,8.5,789-16.2,824,61.3z"/>
<circle cx="814.6" cy="167.5" r="7.9"/>
<path class="st14" d="M438.7,59c0,0,33.3,63.3,16,106.7c17.3-43.3,98-68.7,98-68.7C586.7-4.2,468.2-20.8,438.7,59z"/>
<circle cx="455.4" cy="164.3" r="7.9"/>
<path class="st9" d="M780.2,761c0,0-149.3-78.7-150-77.3l-153,79.7C501.3,812.3,705,837.7,780.2,761z"/>
<path class="st15" d="M559.8,631c53.2,24.3,105.2,19.3,136.9,1.1C748,697.9,846.1,713,846.1,713s-51.9,48.8-56.1,48
	c-97.3-18.7-159.8-77.3-159.8-77.3C531.3,761,471.3,761,471.3,761l-55.8-46C415.8,714.9,528.7,691.6,559.8,631z"/>
<g class="st16">
	<path d="M372.5,355.6l2.7,10.4l-1,0.9l-2.8,0c-1.3,0-1.9-1.9-1.8-5.6l-38.7,1.4l-8.4-1.1l-0.2,17.9l3.7,1l0,2.8l-4.8,3.7l-0.1,9.4
		l25.4,1.3l0.9,0c3.4,0,5.3-1.5,5.7-4.6l1,0c2.5,1,3.7,3.2,3.7,6.6l-0.1,4.7l-1.9,1.8l-4.7-3.8l-6.6,0.9l-23.5-2.1l-0.2,14.1
		c2.5,0.4,3.7,1.3,3.7,2.8c-3.2,0.8-4.7,1.7-4.8,2.8l-0.2,17.8l2.8,0c3.8,0.4,5.7,1.4,5.6,2.9l0,1.8l-1.9,1.9l-11.3-2.1l-7.5,1.8
		l0-1.9c0-1.9,2.5-3.1,7.6-3.7l0.2-18.8c-4.4-0.5-6.5-1.5-6.5-3l1.9-1.8l4.7,0.1l1.1-8.5l-0.8-15.1l1.1-7.5c-3.8,0-5.7-0.7-5.7-2
		c0-1.9,1.9-2.8,5.7-2.7l0.1-7.5l1.1-10.4l-0.9-2.8c2.4-1.9,5.3-2.8,8.5-2.8l16,0.2l12.2-0.7l8.5,1L372.5,355.6z"/>
</g>
<g class="st16">
	<path d="M403.9,357.7c2.6,1.2,4.1,2.1,4.5,2.7l-0.1,1c-0.1,1.5-3.5,2.5-10.3,3.2l-1.9,23.9c-0.7,8.5,0.9,13.6,4.8,15.4l-5.4,4.6
		c1.4,22.1,6.5,33.5,15.3,34.2l4,0.3c12.6,1,19.3-2.8,20-11.4c1.9-1.6,4.1-8.5,6.7-20.5l-1.1,1l-1-0.1l-1.9-2.2l0.1-1
		c0.1-1.5,1.9-2.4,5.3-2.6l4-36.9l0.2-2l-8-0.6l-2.7-3.3l2.2-1.8l5,0.4l11-0.1c2.6,1.2,3.8,2.3,3.7,3.3l-0.1,1
		c-0.1,1.3-1.5,1.9-4.1,1.7l-1,0.9l-0.2,3l0.4,7.2l-5.1,26.7c3.3,0.3,4.9,1.1,4.8,2.4l-0.1,1c-0.1,1.1-2.2,1.9-6.2,2.5
		c-2.8,23.8-8.4,35.4-16.8,34.7c-0.1,1.8-5.2,2.7-15.3,2.8l-2.9-0.2c-10.2-0.8-17.2-10.4-20.8-28.7c0.2-8.7-0.1-13.1-1-13.1
		l-2.7-3.2l0.2-2.1l2.9,0.2l0-25l1.1-13.9c-4-0.3-5.9-1.5-5.7-3.5C385.5,358.2,391.7,357.6,403.9,357.7z"/>
</g>
<g class="st16">
	<path d="M507.9,369.2c9.5,1.2,16.1,6.1,19.7,14.7c2.6,0.3,3.8,1.1,3.6,2.4L529,388l-9.6-1.2l0.2-1.9l2.2-2.5
		c-2.9-4.2-7.8-6.7-14.7-7.5l-3.8-0.5c-5.2-0.3-11.8,3.3-19.9,10.9c-5.7,9.1-8.9,16.6-9.6,22.7c2.6,0.3,3.8,1.1,3.6,2.4
		c-0.2,1.4-1.9,2.1-5.2,2.2l-0.6,4.7c-1.7,14.1,0,23.5,5.3,28.3c5.4,3.2,11,5.1,16.9,5.9l1,0.1c11.4,1.4,19.2-1.4,23.5-8.5l-1-0.1
		c-2.5-1.3-3.6-2.4-3.5-3.3c0.6-1.8,3.3-2.4,8-1.8l3.9,0.5l2.5,3.1c-1.5-0.2-5.6,3.8-12.2,11.9c-9.7,2.6-16,3.8-19,3.4l-8.6-1.1
		c-10.5-1.3-18.1-8.3-22.8-20.9l1.1-0.8l0.1-1l-1-7.7l1.6-13.2c-2.6-0.3-3.8-1.1-3.6-2.4l5.4-4.1c4-14.8,7.5-22,10.4-21.6
		C488,372.8,497.3,368,507.9,369.2z"/>
</g>
<g class="st16">
	<path d="M596.8,381.5l8.2,1.6l1.5,2.2l-34.2,23.8l-14,8.4l-0.2,0.9c13,14,23.1,26.3,30.4,37c4.4,6.8,9.6,10.7,15.5,12l0.7,1.1
		l-0.2,0.9c-0.3,1.3-5.6,1.2-16-0.5l-1.3-3l4.7,0c-6.5-9.3-19-24.1-37.4-44.5l-1.1,0.7l-0.9-0.2l-3.9,19.9l-2,9.9
		c-0.7,4.2-0.5,6.4,0.5,6.6l2.9-0.3l1.3,3c-0.4,1.8-4.3,2.3-11.7,1.4l-1.1,0.7l-2.7-5.2c0.3-1.2,2.2-1.4,5.8-0.7l-0.7-1.1l2.2-10.8
		c4.8-21,6.9-43.1,6.5-66.3c-2.4-0.5-3.5-1.3-3.3-2.5l0.2-0.9c0.2-1.1,3.1-1.4,8.7-1c5.3,1.8,7.9,3.3,7.7,4.4l-0.2,0.9
		c-0.2,1.2-2.2,1.4-5.8,0.7l-0.8,3.6l-1.6,3.4c0,12.3-0.5,21.3-1.7,26.8c20.1-11.8,34.3-21.4,42.8-28.6l-1.3-3.1L596.8,381.5z"/>
</g>
<g class="st16">
	<path d="M667.7,392.3L679,394l1.6,2.2l-0.3,1.9l-3.9,0.4l-4.6,30.1c2.5,0.4,3.7,1.2,3.5,2.5l-0.1,0.9c-0.2,1.3-1.2,1.8-3.1,1.5
		c0.3,3.4-0.6,10.3-2.7,20.6l-0.7,4.7l-3.6,15.9l2.6,2.3l37.6,5c0.5-3.1,1.3-4.6,2.6-4.4l0.9,0.1l1.5,2.2l-0.9,5.6l-2.3,2.6
		l-16.9-3.5l-18-1c-9.4-1.9-13.9-3.8-13.6-5.9l7.5-31.4l1.6-10.4c0.2-1.3-1-2.1-3.4-2.5l-0.8-1.1l0.1-0.9c0.2-1.3,1.2-1.8,3.1-1.5
		l4.9-32c-4.3-1.1-6.4-2.4-6.1-3.8L667.7,392.3z"/>
</g>
<g class="st16">
	<path d="M748.7,404.1c2.5,1.4,3.9,2.4,4.3,3l-0.1,0.9c-0.2,1.5-3.7,2.3-10.5,2.4l-3.6,23.6c-1.3,8.4,0,13.6,3.7,15.7l-5.7,4.2
		c-0.1,22.1,4.2,33.9,12.8,35.2l3.9,0.6c12.5,1.9,19.4-1.4,20.7-9.9c2-1.5,4.7-8.2,8.1-20l-1.2,0.9l-0.9-0.1l-1.7-2.3l0.2-1
		c0.2-1.5,2-2.3,5.4-2.2l6.6-36.5l0.3-2l-8-1.2l-2.5-3.4l2.3-1.7l5,0.8l10.9,0.7c2.5,1.4,3.6,2.5,3.5,3.5l-0.2,1
		c-0.2,1.3-1.6,1.8-4.2,1.4l-1.1,0.8l-0.5,3l-0.1,7.2l-7,26.2c3.3,0.5,4.8,1.4,4.6,2.7l-0.2,1c-0.2,1.1-2.3,1.7-6.4,2
		c-4.5,23.5-10.9,34.6-19.2,33.4c-0.3,1.8-5.4,2.4-15.4,1.7l-2.9-0.4c-10.1-1.5-16.3-11.5-18.7-30c0.8-8.6,0.8-13,0-13.1l-2.5-3.4
		l0.3-2l2.9,0.4l1.8-24.9l2.1-13.8c-3.9-0.6-5.8-1.9-5.5-3.9C730.3,403.3,736.5,403.1,748.7,404.1z"/>
</g>
<g class="st16">
	<path d="M846.5,418.4c9.5,1.2,16.1,6.1,19.7,14.7c2.6,0.3,3.8,1.1,3.6,2.4l-2.2,1.7l-9.6-1.2l0.2-1.9l2.2-2.5
		c-2.9-4.2-7.8-6.7-14.7-7.5l-3.8-0.5c-5.2-0.3-11.8,3.3-19.9,10.9c-5.7,9.1-8.9,16.6-9.6,22.7c2.6,0.3,3.8,1.1,3.6,2.4
		c-0.2,1.4-1.9,2.1-5.2,2.2l-0.6,4.7c-1.7,14.1,0,23.5,5.3,28.3c5.4,3.2,11,5.1,16.9,5.9l1,0.1c11.4,1.4,19.2-1.4,23.5-8.5l-1-0.1
		c-2.5-1.3-3.6-2.4-3.5-3.3c0.6-1.8,3.3-2.4,8-1.8l3.9,0.5l2.5,3.1c-1.5-0.2-5.6,3.8-12.2,11.9c-9.7,2.6-16,3.8-19,3.4l-8.6-1.1
		c-10.5-1.3-18.1-8.3-22.8-20.9l1.1-0.8l0.1-1l-1-7.7l1.6-13.2c-2.6-0.3-3.8-1.1-3.6-2.4l5.4-4.1c4-14.8,7.5-22,10.5-21.6
		C826.6,422,836,417.1,846.5,418.4z"/>
</g>
<g class="st16">
	<path d="M933.1,426.7l8.3,1.1l1.6,2.1l-32.4,26.2l-13.4,9.4l-0.1,1c13.9,13.1,24.9,24.6,33,34.8c4.9,6.4,10.3,10,16.3,10.8l0.8,1
		l-0.1,1c-0.2,1.4-5.5,1.6-16,0.7l-1.5-2.9l4.7-0.3c-7.1-8.8-20.6-22.7-40.4-41.7l-1,0.8l-0.9-0.1l-2.5,20.1l-1.3,10
		c-0.4,4.3,0,6.5,1,6.6l2.8-0.5l1.6,2.9c-0.3,1.9-4.1,2.6-11.6,2.2l-1.1,0.8l-3.1-5c0.2-1.2,2.1-1.6,5.8-1.1l-0.8-1l1.5-10.9
		c3.3-21.3,3.9-43.5,1.8-66.5c-2.4-0.3-3.6-1-3.5-2.3l0.1-0.9c0.1-1.1,3-1.6,8.6-1.7c5.5,1.4,8.1,2.7,8,3.8l-0.1,0.9
		c-0.1,1.2-2.1,1.6-5.8,1.1l-0.5,3.7l-1.4,3.5c0.9,12.3,1,21.2,0.2,26.9c19.2-13.2,32.7-23.7,40.6-31.6l-1.5-3L933.1,426.7z"/>
</g>
</svg>
