<?xml version="1.0" encoding="utf-8"?>
<!-- Generator: Adobe Illustrator 23.0.0, SVG Export Plug-In . SVG Version: 6.00 Build 0)  -->
<svg version="1.1" id="CANETTE" xmlns="http://www.w3.org/2000/svg" xmlns:xlink="http://www.w3.org/1999/xlink" x="0px" y="0px"
	 viewBox="0 0 83.7 131.8" style="enable-background:new 0 0 83.7 131.8;" xml:space="preserve">
<style type="text/css">
	.st0{fill:#010101;}
	.st1{stroke:#FFFFFF;stroke-width:0.75;stroke-miterlimit:10;}
	.st2{fill:#FFFFFF;}
	.st3{fill:none;stroke:#FFFFFF;stroke-width:0.75;stroke-miterlimit:10;}
	.st4{enable-background:new    ;}
	.st5{fill:#1D1D1B;}
</style>
<title>Tear_originalrecipe_Stonedart</title>
<path class="st0" d="M25.8,36.6c-5.2,3.3-6.9,9.9-6.9,9.9l-7.8,66.9c-0.2,2.7-0.2,5.4,1.8,8.2c7.9,10.8,32.4,15.4,36.4,1.8
	l14.4-65.6c2.7-10.1-3.7-16-3.7-16S31.8,33,25.8,36.6z"/>
<path class="st1" d="M61.8,40.7c1.1,5.5-5.4,9.7-12.8,10.2c-12.1,0.8-23.5-5.2-24.4-11.1S29.5,29.8,37,29
	C46.9,27.8,60,31.5,61.8,40.7z"/>
<path class="st2" d="M56.1,45.1c0.5,4-4.2,4.5-8.4,4.4c-5.3-0.1-7.8-1.6-8.6-3.8c-0.9-2.4,4.6-6.5,8.8-6.5S55.8,42.6,56.1,45.1z"/>
<path class="st3" d="M47.7,39c6.2,0.6,7.9,4.4,7.9,4.4c0.6,1.9,1.1,4.2-1.2,5.1c-2.3,1-4.9,1.3-7.4,1.1c-6.1-0.6-6.5-1.6-6.5-1.6
	c-1.8-1.5-2.5-4-0.4-4.8"/>
<path class="st3" d="M26.5,43.5c-2.7-7,4-10.5,10.9-11.3c9-1,23.2,3.8,22.5,14.4"/>
<path class="st1" d="M34.2,37.5l4.9,4.9c6.1,4.8,11.5-0.2,9.3-2.7l-5.4-5C39.1,31.5,32,34.3,34.2,37.5z"/>
<path class="st3" d="M36.2,36.7c-0.6-0.6,1.3-1.6,4.2-2.4l0.5,0.2c0.5,0.2,1.5,1.1,1.5,1.4l0.1,0.3C39.7,37.1,36.8,37.3,36.2,36.7z"
	/>
<path class="st3" d="M39.5,39.1c1.4-1.2,3.4-1.5,5.1-0.8c1.7,0.6,1.9,1.7,1.9,1.7c0.2,0.5,0,1-0.4,1.3c-0.5,0.6-1.2,0.9-2,1
	C41.2,42.8,38.6,39.9,39.5,39.1z"/>
<ellipse transform="matrix(0.2593 -0.9658 0.9658 0.2593 -6.9174 71.8147)" class="st1" cx="43.4" cy="40.4" rx="0.9" ry="1.4"/>
<path class="st3" d="M64.6,51.5c-8.4,14.5-43.8,5.1-45.8-5.8"/>
<path class="st3" d="M59.5,79.6c-4.2,6.2-9.6,6.7-16.6,7.2c-11.3,0.8-25.1-5.3-27.2-17.5"/>
<path class="st3" d="M52.5,119.5c-4.2,6.2-8.9,7.1-15.9,7.6c-11.3,0.8-24-6.4-26-12.7"/>
<path class="st2" d="M22.7,101.8h-0.3l-0.1-0.1l-0.1-0.1c0-0.2,0.1-0.4,0.1-0.7l-0.1-0.7c0.3-1.4,0.5-2.8,0.8-4.3
	c0.1-0.5,0.1-1,0.2-1.6s0.2-1.1,0.3-1.7v-0.7v-0.2v-0.2l0.2-0.9c0-0.3,0.1-0.6,0.1-1l0.1-0.3l0.2,0.1l0,0v-0.1l0.1-0.2l0.1,0.1v0.1
	h0.1h0.1l0.1,0.1h0h0.1l0.1,0.3l0.2,0.6l0.1,0.1l0.1,0.6l0.1,0.2l0,0.4v0.1V92v0.1v0.4l0,0.2v0.2l0.1,0.3l0,0.1v0.1v0.3l0,0v0.1
	l0.1,0.2v0.4v0.3l0,0.1v0.1l0,0v0.6l0.1,0.4l0,0.1l0,0.2l0.1,0.3v0.2l0.1,0.4l0.3-0.5v-0.1l0.2-0.4l0.2-0.4c0.1-0.2,0.3-0.4,0.4-0.7
	l0.2-0.5l0.2-0.2l0.2-0.3c0-0.1,0.1-0.2,0.1-0.4c0.3-0.7,0.7-1.4,1-2.1l0.3-0.4l0.1-0.2l0.2-0.1l0,0l0.1,0.1l0.1,0.1l0.1,0.2h0.1
	l0.1,0.1v0.1H30v0.1l0.1,0.2v0.3V92l0,0c0,0.5-0.1,1-0.2,1.4v0.2c0,0.2,0,0.4-0.1,0.6v0.4l-0.1,0.5v0.2c0,0.2-0.1,0.4-0.1,0.6v0.1
	l-0.1,0.1v0.1c0,0.3-0.1,0.5-0.1,0.8L29.4,97v0.1v0.1l-0.1,0.1l0.1,0.1v0.2l0,0v-0.1l-0.1,0.2v0.3l-0.1,0.4v0.2
	c0,0.1-0.1,0.2-0.1,0.3V99c0,0.2-0.1,0.5-0.1,0.7l0,0l-0.1,0.4v0.2v0.1l-0.1,0.2v0.3l0.1,0.2v0.2l-0.1,0.1c0,0.2-0.1,0.4-0.1,0.5
	h-0.1c0-0.2,0-0.3,0.1-0.5l0,0l0,0v0.2l0.3,0.4H29v0.1H29v0.2l0.1,0.1l0.1-0.1v0.1l0,0c-0.1,0.4-0.1,0.8-0.2,1.2v0.3l-0.1,0.2
	l-0.2,0.1h-0.1l-0.1,0.1l-0.5-0.2h-0.1l-0.4-0.2v-0.2l0.1-0.2l0.1-0.6c0-0.2,0.1-0.3,0.1-0.5c0.2-1.1,0.4-2.2,0.6-3.2
	c0.1-0.6,0.1-1.2,0.2-1.8V97v-0.1v-0.4l0-0.1V96l0-0.4l0,0l-0.1,0.2l0,0l-1,1.8l-0.1,0.1v0.1c-0.2,0.4-0.4,0.8-0.6,1.1l-0.2,0.3
	l-0.1,0.4h-0.1l-0.1,0.2l-0.2,0.1H26h-0.1l-0.2-0.1l-0.2-0.2v-0.1l-0.4-0.2l-0.1-0.3v-0.3c0-0.2,0-0.3-0.1-0.5L25,98.1v-0.2v-0.1
	v-0.1L24.9,97v-0.3l-0.2-0.5v-0.3v-0.4l-0.1-0.3c-0.1,1.2-0.3,2.4-0.5,3.7L24,99.3v0.3L24,99.9h-0.1v0.1H24v0.1V100v0.1l0,0.1v0.2h0
	v0.2v0.1v-0.2H24c0,0.2,0,0.3-0.1,0.5v0.2l-0.3,0.4v-0.1v0.4l0.1,0.1l-0.1,0.3l0,0l-0.1,0.1l-0.3-0.2l-0.1-0.1H23h-0.1l-0.1-0.2
	L22.7,101.8z M23.7,100.9v-0.2V100.9L23.7,100.9z M23.7,100.8L23.7,100.8z M24.1,94.6L24.1,94.6L24.1,94.6L24.1,94.6z M25.8,95
	L25.8,95L25.8,95L25.8,95z M25.8,95.8L25.8,95.8L25.8,95.8L25.8,95.8z M28,103.3v-0.2l0,0V103.3L28,103.3z M28.2,93.8L28.2,93.8
	L28.2,93.8L28.2,93.8z M29,100.9L29,100.9L29,100.9L29,100.9L29,100.9L29,100.9l0.1-0.2L29,100.9L29,100.9z M29,102.1L29,102.1
	l0.1,0.1L29,102.1L29,102.1z M29,100.4L29,100.4L29,100.4L29,100.4L29,100.4z M29.1,101.3v-0.2v0.1V101.3z M29.1,100.6L29.1,100.6
	L29.1,100.6L29.1,100.6L29.1,100.6z M29.1,100.5v-0.1l0,0V100.5z M29.1,100.1l0.2-0.1l0,0v-0.1h-0.1L29.1,100.1z M29.2,99.8
	L29.2,99.8L29.2,99.8L29.2,99.8z M29.2,99.6L29.2,99.6L29.2,99.6L29.2,99.6L29.2,99.6L29.2,99.6z M29.7,97.8v0.1l0,0V97.8L29.7,97.8
	z"/>
<path class="st2" d="M30.1,104.3l0.1-0.4v-0.1c0-0.3,0.1-0.5,0.1-0.8s0-0.5,0.1-0.8s0.1-0.7,0.2-1.1v-0.1l0.1-0.1v-0.1l0-0.2v-0.1
	l0-0.3v-0.1l0,0l0-0.3l0,0l0.1-0.5v-0.1l0.1-0.3c0-0.3,0.1-0.6,0.1-0.9l0,0v-0.1l0,0v-0.3l0.1-0.2v-0.1v-0.2l0,0l0.1-0.4v-0.4
	l0.3-1.9v-0.1v-0.1c0-0.2,0.1-0.4,0.1-0.6v-0.2h0l0-0.2v-0.1v-0.1l0.1-0.2c0-0.4,0.1-0.7,0.2-1.1h0.1l0.1-0.4H32l0.1-0.1h0.2
	l0.1-0.1h0.1v-0.1l0.3,0.2l0,0h0.1v-0.1h0.1l0.1,0.2H33l0.1,0.4v0.2v0.1v0.3L33,92.8v0.3l-0.1,0.2v0.9v0.2l-0.1,0.1l-0.2,2.2v0.1
	l-0.1,0.2l-0.3,2.7v0.1c0,0.1-0.1,0.2-0.1,0.4v0.1l-0.1,0.7l-0.1,0.4v0.1l0,0.1v0.2l-0.1,0.1l0,0.4c0,0.2-0.1,0.4-0.1,0.6v0.6
	l-0.1,0.3v0.1c0,0.2-0.1,0.4-0.1,0.5l0.1,0.2l0,0v0.2l-0.3,0.2l-1.2-0.3L30.1,104.3L30.1,104.3z M31.7,102.2l0.1-0.1V102h-0.1
	L31.7,102.2L31.7,102.2z M31.9,91.5L31.9,91.5L31.9,91.5L31.9,91.5L31.9,91.5z M31.9,99.7L31.9,99.7L31.9,99.7L31.9,99.7z"/>
<path class="st2" d="M33.1,105l-0.2-0.2l-0.1-0.2c0-0.2,0.1-0.4,0.1-0.6s0-0.4,0-0.6c0.1-0.5,0.1-1,0.2-1.4v-0.4c0.1-1,0.2-2,0.3-3
	c0-0.3,0-0.5,0-0.8c0.1-0.6,0.2-1.3,0.3-1.9l0.1-0.2v-0.1v-0.2v-0.1h0.1V95l0,0v-0.1v-0.3l0-0.3v-0.1v-0.1c0-0.2,0-0.4,0.1-0.6
	l0-0.1l0.1-0.4v0.2l0,0v-0.2l0.1-0.2v-0.4l0.2-0.2l0.1-0.2h0.2l0.1,0.1v-0.1l0.1,0.1l0.3,0.1v-0.2l0.2-0.1v0.2h0.1h0.1v0.1h0.1v0.3
	l0.1,0.3l0.1,0.2l0.4,2v0.1c0.1,0.3,0.1,0.6,0.2,0.8l0.1,0.9c0.1,0.3,0.1,0.7,0.2,1v0.1v0.1l0.1,0.4c0,0.2,0.1,0.3,0.1,0.4
	c0.1,0.5,0.1,1,0.2,1.4v0.1c0,0.2,0.1,0.4,0.2,0.6v0.2l0,0c0-0.2,0.1-0.5,0.1-0.7l0.4-1.8h0.1v-0.2v-0.3l0.1-1.3l0.1-0.8l0.1-1.3
	v-0.1c0.1-0.7,0.2-1.3,0.3-1.9l0.4-0.1l0.1-0.1l0.3,0.1v0.1h0h0.1l0.1,0.1h0.1h0.1h0.1l0.1,0.1v0.1v0.1v0.3L39.7,94l-0.1,1l-0.1,0.5
	c-0.2,1.2-0.3,2.5-0.5,3.7l-0.2,0.6l0.1,0.2l-0.1,0.5l0,0v-0.2l0,0v0.3h0.1c0,0.3-0.1,0.6-0.1,1h-0.1v0.4l0.1,0.1l-0.2,1.1h-0.1
	l0,0.5l-0.1,0.9l0.1,0.2l-0.1,0.1v0.2h-0.1l0,0v0.2h-0.1l-0.1,0.1l0.1,0.1H38l0,0l-0.2,0.2l-0.4-0.1l-0.1,0.1l-0.3,0.1l-0.1-0.1
	l-0.2-2c0-0.2-0.1-0.3-0.1-0.5l-0.1-0.8c0-0.2-0.1-0.3-0.1-0.5v-0.5l-0.1-0.6c0-0.1-0.1-0.2-0.1-0.3c-0.1-0.4-0.2-0.8-0.3-1.2V99
	c-0.1-0.4-0.2-0.9-0.3-1.3v-0.3v-0.2l0.1-0.1v-0.2v-0.2l0-0.2l0-0.1l0-0.3l-0.1-0.2l0,0l-0.1-0.2v-0.1l0,0l0,0.3l0,0.4l-0.3,2
	l-0.5,4.8c0,0.2-0.1,0.4-0.1,0.7v0.1v0.2c0,0.2,0,0.4-0.1,0.6h-0.1v0.2v0.3l-0.2,0.2l-0.1-0.1H34h-0.3l-0.4-0.2L33.1,105z
	 M33.4,102.9L33.4,102.9L33.4,102.9z M34,96.1V96H34l0,0L34,96.1z M34,95.8L34,95.8L34,95.8L34,95.8z M38.4,99.8L38.4,99.8v-0.1l0,0
	V99.8z M38.5,102.4L38.5,102.4l0.1-0.2v-0.1l-0.1,0.1L38.5,102.4z M38.7,101.2V101l0,0l0,0V101.2z"/>
<path class="st2" d="M39.7,106.1h-0.3l-0.1-0.2v-0.2l0.1-0.1l0.2-1.9c0-0.2,0.1-0.5,0.1-0.7v-0.5c0.1-0.7,0.2-1.4,0.3-2.1l0.1-0.2
	v-0.3v-0.5l0.2-0.9l0.1-1.8c0.1-0.4,0.1-0.8,0.2-1.2l0.1-0.2l-0.1-0.1v-0.3h0.1v-0.1v-0.1v-0.1l0.1-0.3v0.2v0.3l0,0l0.1-0.6l0.2-0.1
	v-0.1l0.2-0.1h0.1h0.1l0.7,0.1h0.6h0.2H43l0.7,0.1l0.6-0.1l0.2,0.1l0.1,0.1l0.2,0.1l0.1,0.4v0.2l-0.1,0.1l-0.1,0.1v0.3l-0.1,0.1
	l-0.3,0.3h-0.5l-0.6-0.1l-0.3-0.1h-0.4l-0.2,0.1h-0.1c0,0.2,0,0.3-0.1,0.5s-0.1,0.3-0.1,0.4s-0.1,0.5-0.1,0.7l-0.2,0.6
	c0,0.3-0.1,0.6-0.1,0.9h0.8h0.3l0.5-0.2l0.4,0.2v0.2l0,0v0.2V99l-0.1,0.1l0.1,0.2v0.2v0.2l-0.2,0.2h-0.2c-0.3,0-0.7,0-1,0h-0.1
	l-0.6,0.1h-0.3l-0.1,0.5v0.8c0,0.3-0.1,0.6-0.1,0.8c-0.1,0.8-0.2,1.6-0.2,2.5h0.4l0.3-0.1h0.2l0.4-0.2h0.6l0.2-0.1l0.3,0.1l0.1,0.2
	v0.2c0,0.2,0,0.4-0.1,0.6l-0.2,0.3c-0.3,0-0.5,0-0.8,0.1l-0.1,0.1h0l-0.4,0.1l-0.2,0l-0.1,0.1h-0.4L41,106l-0.2,0.1h-0.3l-0.4,0.2
	l-0.1-0.1L39.7,106.1z M40.8,94.8L40.8,94.8L40.8,94.8L40.8,94.8z"/>
<path class="st2" d="M13,109.6l-0.2-0.4l-0.1-0.2v-0.1l0.1,0.1c0-0.4,0.1-0.8,0.2-1.3c0-0.2,0.1-0.3,0.1-0.4l0.1-0.4
	c0.1-0.4,0.2-0.9,0.3-1.4l0.1-0.1v-0.2c0-0.1,0-0.2,0.1-0.4s0.1-0.4,0.2-0.6c0.1-0.5,0.1-0.9,0.2-1.4l0.2-0.9l0.1-0.1l-0.1-0.1v-0.3
	h0.1v-0.1v-0.1v-0.1l0.1-0.2v0.2v0.2v0.1l0.1-0.5l-0.1-0.1V101h0.2h0.1h0.1c0.2,0.1,0.4,0.3,0.6,0.4l0.5,0.3l0.2,0.1l0.3,0.2
	l0.7,0.5l0.6,0.2l0.2,0.2l0.1,0.1l0.1,0.2v0.4v0.1l-0.1,0.1h-0.1v0.3h-0.1l-0.3,0.1l-0.3-0.2l-0.6-0.4l-0.2-0.2l-0.4-0.3l-0.2-0.1
	h-0.1l-0.1,0.4l-0.1,0.3l-0.1,0.6c-0.1,0.2-0.1,0.3-0.2,0.5s-0.1,0.4-0.2,0.6l0.7,0.5l0.2,0.1l0.5,0.2c0.1,0.2,0.3,0.3,0.4,0.5v0.3
	l0,0v0.1v0.1h0l0.1,0.3v0.2v0.2h-0.2l-0.1-0.1c-0.3-0.2-0.6-0.5-0.9-0.7l0,0l-0.5-0.3l-0.2-0.2l-0.1,0.3c0,0.2,0,0.5,0,0.7l-0.1,0.6
	c-0.1,0.6-0.2,1.2-0.3,1.8c0.1,0.1,0.2,0.3,0.3,0.4l0.2,0.2l0.2,0.2l0.3,0.2l0.5,0.6l0.2,0.2l0.3,0.5l0.1,0.3v0.2l-0.1,0.5h-0.2
	c-0.2-0.3-0.4-0.5-0.6-0.8h-0.1l-0.1-0.1l-0.5-0.3l-0.2-0.3l-0.1-0.1l-0.3-0.4l-0.1-0.2l-0.1-0.1c-0.1-0.1-0.2-0.2-0.2-0.3l-0.3-0.3
	l-0.1-0.2L13,109.6z M14.3,101.8L14.3,101.8L14.3,101.8z"/>
<path class="st2" d="M17,114.1l-0.2-0.3l-0.1-0.3l0.1-0.4l0.1-0.4c0.1-0.4,0.2-0.7,0.3-1.1v-0.4c0.1-0.8,0.3-1.6,0.4-2.4l0.1-0.6
	l0.3-1.6l0.1-0.2v-0.1l0.1-0.2v-0.1h0l0.1-0.3l0,0v-0.1v-0.2l0.1-0.3v-0.1l0,0l0.1-0.5h0.1c0-0.1,0.1-0.2,0.1-0.3v0.2l0,0v-0.2
	l0.1-0.1v-0.4l0.2-0.1l0.1-0.1h0.1l0.1,0.2v-0.1l0.1,0.2l0.3,0.2V104h0.2l0.1,0h0.1h0.1v0.1l0.1,0.1l-0.1,0.3l0.1,0.3l0.1,0.2
	l0.4,2.1v0.1l0.1,0.8l0.1,0.9c0,0.3,0.1,0.7,0.1,1v0.1v0.1v0.4l0.1,0.5c0,0.5,0.1,1,0.1,1.5v0.1c0,0.2,0.1,0.4,0.1,0.7v0.2l0,0
	l0.2-0.6c0.1-0.5,0.2-1.1,0.3-1.6h0l0.1-0.2v-0.3c0.1-0.4,0.1-0.8,0.2-1.2c0.1-0.4,0.1-0.5,0.2-0.8c0-0.3,0.1-0.8,0.2-1.2v-0.1
	l0.5-1.8h0.4l0.1-0.1l0.4,0.2v0.1l0,0h0.1l0,0.1l0.1,0.1h0.1h0.1l0.1,0.1v0.1l0,0.1l-0.1,0.3l-0.1,0.4l-0.2,1c0,0.2-0.1,0.3-0.1,0.5
	c-0.3,1.2-0.5,2.3-0.8,3.5c-0.1,0.2-0.1,0.3-0.2,0.5l0.1,0.2l0,0.4h-0.1V113l0,0v0.3l0.1,0.1c-0.1,0.3-0.1,0.6-0.2,0.9l-0.1-0.1
	l-0.1,0.3l0.1,0.1c-0.1,0.3-0.1,0.7-0.2,1h-0.1c0,0.2-0.1,0.3-0.1,0.5s-0.1,0.5-0.2,0.8v0.2l-0.1,0.1v0.2h-0.1v0.1v0.2l-0.1-0.1
	h-0.1l0,0.2h-0.1l0,0l-0.2,0.1l-0.4-0.4h-0.1l-0.3-0.1c0-0.1-0.1-0.1-0.1-0.2c0-0.7-0.1-1.4-0.1-2c0-0.2-0.1-0.3-0.1-0.5v-0.8
	l-0.1-0.5v-0.5l-0.1-0.6L20,112l-0.2-1.2v-0.3c-0.1-0.4-0.1-0.9-0.2-1.3v-0.3l0.1-0.2l0.1-0.1v-0.2v-0.2V108h0.1v-0.3l-0.1-0.2l0,0
	l-0.1-0.2v-0.4l0,0l-0.1,0.3v0.4l-0.4,1.7c-0.2,1.3-0.4,2.7-0.6,4c0,0.2-0.1,0.4-0.1,0.5v0.1v0.2l-0.1,0.4h-0.1v0.2l-0.1,0.2L18,115
	l-0.1-0.2l-0.1-0.1l-0.3-0.2l-0.2-0.4L17,114.1z M17.3,112.5L17.3,112.5L17.3,112.5z M18.2,106.9L18.2,106.9L18.2,106.9L18.2,106.9
	L18.2,106.9z M18.2,106.7L18.2,106.7L18.2,106.7z M22.2,112.2L22.2,112.2L22.2,112.2L22.2,112.2z M22.2,114.9L22.2,114.9l0.1-0.1
	v-0.1l-0.1,0.1L22.2,114.9z M22.4,113.8L22.4,113.8v-0.1l0,0V113.8z"/>
<path class="st2" d="M23.2,119.2l-0.3-0.2l-0.1-0.2v-0.1h0.1c0.1-0.6,0.2-1.2,0.3-1.8l0.1-0.7l0.1-0.5c0.1-0.7,0.3-1.3,0.4-2
	l0.1-0.2v-0.2v-0.1l0.1-0.5c0.1-0.3,0.2-0.6,0.3-0.9c0.1-0.6,0.1-1.2,0.2-1.9c0.1-0.4,0.2-0.8,0.3-1.2l0.1-0.2l-0.1-0.1l0.1-0.4h0.1
	v-0.1l0-0.1v-0.1l0.1-0.3v0.2l0,0.3l0,0c0-0.2,0.1-0.4,0.2-0.6l-0.1-0.2v-0.1l0.2-0.1h0.1h0.2l0.7,0.3l0.6,0.1l0.2,0.1l0.3,0.1
	l0.8,0.3h0.6l0.3,0.2l0.1,0.1l0.2,0.1c0,0.2,0,0.3,0.1,0.4v0.2l-0.1,0.1h-0.1v0.4h-0.1l-0.4,0.2l-0.5-0.1l-0.6-0.2l-0.3-0.2
	l-0.5-0.1h-0.3h-0.1c0,0.2-0.1,0.3-0.1,0.5s-0.1,0.3-0.2,0.4l-0.1,0.8c-0.1,0.2-0.1,0.4-0.2,0.6s-0.2,0.7-0.2,1l0.8,0.3l0.3,0.2h0.5
	l0.4,0.4v0.2v0.1v0.2v0.2l-0.1,0.1l0.1,0.3v0.2v0.2l-0.2,0.2l-0.2-0.1l-1.1-0.4h-0.1l-0.6-0.1l-0.3-0.2c0,0.2-0.1,0.3-0.1,0.5
	s0,0.6-0.1,0.9s-0.1,0.6-0.2,0.8l-0.4,2.4l0.4,0.2l0.3,0.1l0.2,0.1h0.4l0.7,0.3l0.3,0.1l0.4,0.3l0.1,0.3v0.3l-0.1,0.7l-0.3,0.2
	l-0.9-0.4H26h-0.1l-0.4-0.2l-0.3-0.2h-0.1l-0.4-0.2c0-0.1-0.1-0.1-0.1-0.2h-0.2l-0.3-0.2l-0.5-0.1l-0.1-0.1L23.2,119.2z M25,108.2
	L25,108.2L25,108.2L25,108.2z"/>
<path class="st2" d="M29.1,121.7h-0.3l-0.1-0.1l-0.1-0.2c0-0.2,0.1-0.5,0.1-0.7s-0.1-0.5-0.1-0.7c0.3-1.5,0.5-3,0.8-4.5l0.2-1.7
	c0.1-0.6,0.2-1.2,0.3-1.8v-0.7v-0.2v-0.2c0.1-0.3,0.1-0.6,0.2-0.9s0.1-0.7,0.1-1l0.1-0.3l0.2,0.1l0,0v-0.1l0.1-0.2l0.1,0.1v0.1h0.1
	h0.1l0.1,0.1h0.1h0.1l0.1,0.3c0.1,0.2,0.1,0.4,0.2,0.6l0.1,0.1l0.1,0.6l0.1,0.3l0.1,0.4v0.1l0,0.4l0,0.1v0.4l0,0.2v0.2l0.1,0.4h0.1
	v0.1v0.3l0,0v0.1l0.1,0.2v0.4l0.1,0.3l0,0.1v0.1h0.1v0.6l0.1,0.4l0.1,0.1l0,0.2l0.1,0.3v0.2c0,0.1,0.1,0.2,0.1,0.4l0.3-0.5v-0.1
	l0.2-0.4l0.2-0.5c0.1-0.3,0.3-0.5,0.4-0.7s0.2-0.4,0.3-0.5l0.2-0.2l0.2-0.3l0.1-0.4l1-2.3l0.3-0.5l0.1-0.2l0.2-0.2v-0.1l0.1,0.1h0.1
	l0.1,0.1h0.1l0.1,0.1v0.2H37v0.1l0.1,0.2l0,0.3v0.1l0,0c0,0.5-0.1,0.9-0.1,1.4v0.2c0,0.2,0,0.4-0.1,0.6v0.4c0,0.2-0.1,0.3-0.1,0.5
	v0.3c0,0.2,0,0.4-0.1,0.6v0.1l-0.1,0.2v0.1c0,0.3-0.1,0.5-0.1,0.8l-0.1,0.1v0.1l0.1,0.1l-0.1,0.1l0,0v0.2l0,0v-0.1l-0.1,0.3v0.3
	l0,0.4v0.1c0,0.1-0.1,0.2-0.1,0.3v0.1c0,0.2-0.1,0.5-0.1,0.7l0,0c0,0.1-0.1,0.3-0.1,0.4v0.2v0.1l-0.1,0.3v0.3l0.1,0.2v0.2l-0.1,0.1
	c0,0.2,0,0.4-0.1,0.6h-0.1l0.1-0.5l0,0l0,0v0.2l-0.2,0.3h0.1v0.1h-0.1v0.2l0.1,0.1l0.1-0.1l0,0l0,0l-0.2,1.2v0.2l-0.1,0.2l-0.2,0.2
	h-0.2l-0.1,0.1h-0.6h-0.1l-0.4-0.1l-0.1-0.2l0.1-0.2c0-0.2,0-0.4,0.1-0.6c0-0.2,0.1-0.3,0.1-0.5c0.2-1.1,0.4-2.2,0.5-3.3
	c0-0.6,0.1-1.2,0.2-1.8v-0.2v-0.1v-0.4l0.1-0.1v-0.4v-0.4l0,0c0,0.1-0.1,0.2-0.1,0.2l0,0l-1.1,2l-0.1,0.1v0.1l-0.6,1.2l-0.2,0.4
	l-0.1,0.4h-0.1l-0.1,0.3l-0.2,0.2h-0.1h-0.1l0,0l-0.2-0.1v-0.1l-0.4-0.1l-0.1-0.3v-0.3l0.3-0.6l-0.1-0.3v-0.2v-0.1v-0.1l-0.1-0.7
	v-0.3c0-0.2-0.1-0.4-0.1-0.5l0-0.3V115c0-0.1-0.1-0.2-0.1-0.3c-0.1,1.3-0.3,2.6-0.4,3.8l-0.1,0.4v0.3l0,0.3h-0.1v0.1h0.1v0.1v-0.1
	v0.1l0,0.1v0.2h-0.1v0.2v0.1l0-0.2h0.1c0,0.2,0,0.3-0.1,0.5v0.2l-0.1,0.4l-0.1-0.1v0.4l0.1,0.1l-0.1,0.3l0,0l-0.1,0.1l-0.3-0.1
	l-0.4,0h-0.2h-0.1l-0.2-0.2L29.1,121.7z M30.3,120.7v-0.2V120.7L30.3,120.7z M30.3,120.6L30.3,120.6z M30.6,114.1L30.6,114.1
	L30.6,114.1L30.6,114.1z M32.4,114.4L32.4,114.4L32.4,114.4L32.4,114.4z M32.4,115.3L32.4,115.3L32.4,115.3L32.4,115.3z M35.1,122.3
	v-0.2h0L35.1,122.3L35.1,122.3z M35,112.8L35,112.8L35,112.8L35,112.8z M36,119.7L36,119.7v-0.1h0.1L36,119.7L36,119.7l0.1-0.2
	l-0.2,0.1L36,119.7z M36.1,120.9L36.1,120.9L36.1,120.9L36.1,120.9L36.1,120.9z M36.1,119.2L36.1,119.2L36.1,119.2L36.1,119.2
	L36.1,119.2z M36.2,120.1l0-0.2v0.1L36.2,120.1z M36.2,119.4L36.2,119.4L36.2,119.4L36.2,119.4L36.2,119.4z M36.2,119.3v-0.1h0
	L36.2,119.3z M36.2,118.8L36.2,118.8L36.2,118.8L36.2,118.8L36.2,118.8L36.2,118.8z M36.3,118.5L36.3,118.5L36.3,118.5L36.3,118.5z
	 M36.3,118.4L36.3,118.4L36.3,118.4L36.3,118.4L36.3,118.4L36.3,118.4z M36.8,116.5L36.8,116.5L36.8,116.5L36.8,116.5z"/>
<path class="st2" d="M37.2,122.6l0-0.4v-0.1c0-0.3,0.1-0.5,0.1-0.8l0.1-0.8c0.1-0.4,0.1-0.7,0.1-1.1v-0.1l0.1-0.1v-0.1l0-0.2V119
	v-0.3v-0.1l0,0v-0.2l0,0c0-0.2,0-0.3,0.1-0.5v-0.1l0.1-0.3c0-0.3,0.1-0.6,0.1-0.9v-0.1l0,0v-0.3l0.1-0.3v-0.1v-0.2l0,0l0.1-0.4v-0.4
	c0.1-0.7,0.2-1.3,0.3-1.9v-0.1v-0.1l0.1-0.6v-0.1l0.1-0.1l-0.1-0.1v-0.1v-0.1l0-0.2l0.2-1.1h0.1l0.1-0.4h0.1l0.1-0.1h0.2v-0.1h0.1
	v-0.1h0.3l0,0l0,0v-0.1h0.1l0.1,0.1h0.1c0,0.1,0.1,0.2,0.1,0.4v0.1v0.1v0.3l-0.1,0.3v0.3l-0.1,0.3c0,0.3,0,0.6,0,0.8v0.2l-0.1,0.1
	l-0.2,2.1l0,0l-0.1,0.2l-0.3,2.7v0.1l-0.1,0.4v0.2c0,0.2-0.1,0.4-0.1,0.7s-0.1,0.3-0.1,0.4v0.1v0.1v0.2l-0.1,0.1l0.1,0.4l-0.1,0.6
	v0.6l-0.1,0.3v0.1l-0.1,0.6l0.1,0.2l0,0v0.1l-0.3,0.3c-0.4,0-0.8,0.1-1.2,0.1l-0.1-0.1L37.2,122.6z M38.9,120.1L39,120v-0.1h-0.1
	L38.9,120.1L38.9,120.1z M38.8,109.8L38.8,109.8L38.8,109.8L38.8,109.8L38.8,109.8z M39,117.6L39,117.6L39,117.6L39,117.6z"/>
<path class="st2" d="M40.1,122.6h-0.3l-0.1-0.2v-0.2l0.1-0.1c0-0.7,0.1-1.3,0.2-2c0-0.3,0.1-0.5,0.1-0.8l0.1-0.6
	c0.1-0.8,0.2-1.5,0.3-2.2l0.1-0.2v-0.3v-0.5c0.1-0.3,0.2-0.7,0.3-1l0.1-1.9c0.1-0.4,0.1-0.9,0.2-1.3l0.1-0.2l-0.1-0.1v-0.4h0.1v-0.1
	v-0.1v-0.1l0.1-0.3v0.2v0.3l0,0l0.1-0.7l-0.1-0.1v-0.1l0.2-0.1h0.1h0.1l0.7-0.2l0.6-0.2H43l0.3-0.1L44,109l0.6-0.3h0.2h0.1H45
	l0.1,0.3v0.2l-0.1,0.2l-0.1,0.1v0.3l-0.1,0.1c-0.1,0.1-0.2,0.3-0.3,0.4l-0.4,0.2l-0.6,0.2h-0.3l-0.4,0.1l-0.2,0.2h-0.1l-0.1,0.5
	l-0.1,0.4l-0.1,0.8l-0.2,0.7l-0.1,0.9l0.8-0.3l0.3-0.1l0.5-0.3l0.4,0.1v0.2l0,0v0.1v0.1l-0.1,0.1l0.1,0.2v0.2v0.2
	c-0.1,0.1-0.1,0.2-0.2,0.3h-0.1c-0.3,0.1-0.6,0.3-1,0.4h-0.1l-0.6,0.3h-0.3l-0.1,0.5v0.9c0,0.3-0.1,0.6-0.1,0.9
	c-0.1,0.8-0.1,1.7-0.2,2.6l0.4-0.1l0.3-0.1l0.2-0.1l0.4-0.3l0.6-0.2l0.2-0.2h0.3l0.1,0.2v0.2l-0.1,0.7l-0.2,0.4
	c-0.3,0.1-0.5,0.2-0.8,0.3l-0.1,0.1h-0.1l-0.4,0.2h-0.2l-0.1,0.1l-0.4,0.1h-0.1l-0.2,0.1l-0.3,0.1l-0.5,0.3L40.1,122.6L40.1,122.6z
	 M41.2,110.9L41.2,110.9L41.2,110.9L41.2,110.9z"/>
<path class="st2" d="M44.5,118.9L44.5,118.9l0.1,0.3v-0.1L44.5,118.9z M45.6,119.9h-0.3h-0.2l-0.1-0.1H45l-0.1-0.1v-0.3h-0.2v-0.8
	l0.1-0.6l0,0v0.1v-0.1V118l0.1-0.2l0,0l0,0v-0.1v-0.1c0-0.2,0-0.5,0-0.7v-0.1v-0.2c0-0.1,0.1-0.1,0.1-0.2v0.1l0.1-0.1l0.1-0.4
	l0.1-0.2l0.1-0.1l0.1-0.2l0.2-0.1h0.2c0,0,0.1-0.1,0.1-0.1l0.3-0.1l0.1,0.1c0,0.2,0,0.4-0.1,0.6l-0.1,0.9v0.4v1l0.1,0.2h0.1h0.1h0.1
	h0.1c0.1-0.1,0.2-0.2,0.2-0.3l0.2-0.4l0.1-0.3v-0.1v-0.2c0-0.3,0.1-0.6,0.1-0.8c0-0.6-0.1-1.2-0.1-1.8l-0.2-0.2l-0.1-0.2h-0.2h-0.1
	l-0.1-0.2h-0.1l0,0l-0.2-0.1h-0.2l-0.3-0.2l-0.1-0.2c0,0-0.1-0.1-0.1-0.1l-0.1-0.6v-0.2v-0.1v-0.6c0-0.2,0-0.4,0.1-0.6v-0.1v-0.4
	l0.3-0.7c0-0.2,0.1-0.3,0.1-0.5l0.6-0.8c0.2-0.2,0.4-0.3,0.6-0.5l0.1-0.1l0.4-0.4l0.3-0.2l0.3-0.2l0.2-0.1h0h0.1l0.2-0.1h0.2h0.1
	v0.1l0.2,0.1v0.1l0.1,0.3c0,0.3,0,0.6,0,0.9s-0.1,0.3-0.1,0.5v0.1v0.1l-0.1,0.3l-0.2,0.2h0l-0.1,0.2c-0.2,0.2-0.3,0.4-0.5,0.6
	l-0.3,0.3h-0.2v-0.2c0-0.3,0.1-0.5,0.1-0.8v-0.1l0.1-0.8l-0.1-0.1l-0.3,0.2l-0.3,0.3l-0.2,0.2l-0.1,0.3c0,0.4-0.1,0.7-0.1,1.1
	s0,0.5,0,0.7l0.3,0.5l0.3,0.1h0l0.2,0.1c0.2,0,0.4,0,0.6,0l0.2,0.2c0.1,0.1,0.2,0.3,0.3,0.4v0.9l-0.1,1c0,0.2,0,0.4-0.1,0.5v0.5
	l-0.1,0.3v0.2l-0.1,0.3v0.3l-0.2,0.4l-0.3,0.7c-0.1,0.1-0.2,0.2-0.2,0.3l-0.1,0.3l-0.3,0.3l-0.3,0.3v0.1c-0.2,0.2-0.4,0.3-0.6,0.5
	L45.6,119.9L45.6,119.9z M44.8,119.9L44.8,119.9L44.8,119.9z M44.8,118.7L44.8,118.7l0.1-0.1h-0.1L44.8,118.7z"/>
<path class="st2" d="M19.8,67.9l-0.1-0.3l0.1-0.2l0.1-0.2l0,0H20l0.1-0.3h0.1v-0.3l0.1-0.1v-0.2l0.1-0.2h0.1c0-0.1,0-0.2,0-0.3
	s0.1-0.4,0.2-0.6v-0.1l0.1-0.1l0.1,0.1l0.1,0l0.1-0.3l0.1-0.1l0.1,0.1h0.1l0.1-0.3l-0.1-0.1v-0.1h0.1v-0.1v-0.1V64l-0.1-0.2l0.2-0.1
	l0.2-0.5c0-0.1,0-0.3,0-0.4l0.2-0.5l0.2-1l0.2-0.1c0-0.2,0-0.3,0-0.5h0.1v-0.2l0.1-0.4v-0.3v-0.2c0.1-0.1,0.2-0.2,0.3-0.3l0.1-0.3
	V59l0.1-0.4v-0.2l0-0.1l-0.2-0.3l-0.3-0.1l-0.1-0.1l-0.4-0.1l-0.4-0.2l-0.2-0.2c0-0.1-0.1-0.1-0.1-0.2v-0.2l0.1-0.1l0.2-0.4h0.1
	l-0.1-0.2c0-0.1,0.1-0.2,0.2-0.3h0.1l0.7,0.1l0.1,0h0.3l0.1,0.1l0.1,0.1l0.3,0.1l0.3,0.1l0.3-0.1c0.7,0.2,1.3,0.4,2,0.6l1,0.5v0.1
	l0.3,0.4c0,0.1,0.1,0.2,0.1,0.4v0.1l-0.1,0.2l-0.1,0.1L27,58.5l0.1,0.2h0.1c0,0.2,0,0.5,0,0.7L27,59.4h-0.3l-0.3,0.1l-0.4-0.2
	l-0.8-0.6H25L24.2,61L24.1,61c-0.1,0.3-0.2,0.5-0.3,0.8v0.1c-0.1,0.3-0.2,0.5-0.2,0.8l-0.1,0.1c-0.1,0.3-0.2,0.6-0.3,0.9v0.1
	l-0.8,2.3v0.5v0.1v0.2l-0.3,1L21.9,68v0.2l-0.4,1.1v0.2l-0.1,0.2h-0.1l0,0h-0.1l-0.1-0.1h-0.1l-0.1-0.2l-0.2-0.1l-0.1-0.2L20.5,69
	l-0.1-0.1l-0.3-0.4l-0.1-0.2L19.8,67.9z M22.6,64.9L22.6,64.9L22.6,64.9L22.6,64.9L22.6,64.9z M24.5,59.2L24.5,59.2L24.5,59.2
	L24.5,59.2L24.5,59.2z M26.7,58.7L26.7,58.7l0.1-0.1l-0.2-0.1L26.7,58.7z"/>
<path class="st2" d="M24,72.7l-0.4-0.4l-0.1-0.3l0.1-0.2h0.1l0.6-2.1l0.3-0.8c0-0.2,0.1-0.4,0.2-0.6l0.8-2.3l0.1-0.2l0.1-0.3v-0.1
	l0.1-0.6l0.5-1l0.6-2.2c0.2-0.5,0.4-1,0.5-1.5l0.2-0.2l-0.2-0.2c0-0.1,0.1-0.3,0.1-0.4h0.1v-0.1l0.1-0.1v-0.1c0-0.1,0.1-0.2,0.2-0.3
	V59c0,0.1-0.1,0.2-0.1,0.3v0.1c0.1-0.3,0.2-0.5,0.3-0.8l-0.1-0.2v-0.1l0.3-0.1h0.2h0.1l1,0.3l0.8,0.1l0.2,0.1l0.4,0.1l1,0.4l0.9,0.1
	l0.3,0.2l0.1,0.1l0.2,0.2c0,0.2,0,0.4,0,0.6l-0.1,0.2L33.5,61h-0.2v0.5h-0.2l-0.5,0.3l-0.7-0.2l-0.9-0.4L30.7,61l-0.6-0.2h-0.4h-0.1
	l-0.2,0.6L29.3,62c-0.1,0.3-0.2,0.6-0.3,1l-0.4,0.8c-0.1,0.4-0.3,0.7-0.4,1.1l1.1,0.4l0.4,0.2l0.8,0.1c0.2,0.2,0.4,0.4,0.6,0.6v0.3
	v0.1v0.2v0.2L30.8,67c0,0.1,0.1,0.2,0.1,0.4v0.2v0.1l-0.1,0.3l-0.4,0.2l-0.2-0.2c-0.5-0.2-1-0.4-1.4-0.7h-0.1l-0.8-0.3l-0.4-0.3
	l-0.2,0.6l-0.2,1.1l-0.4,1c-0.3,1-0.6,2-0.9,2.9l0.5,0.4l0.4,0.2l0.3,0.3l0.6,0.2l0.9,0.7l0.4,0.2l0.5,0.6l0.1,0.5l-0.1,0.3
	c-0.1,0.3-0.2,0.6-0.3,0.8l-0.4,0.2c-0.4-0.3-0.8-0.5-1.1-0.8h-0.1l-0.1-0.1l-0.6-0.3l-0.3-0.4l-0.2-0.1l-0.5-0.4l-0.2-0.3l-0.2-0.1
	L25,73.7l-0.6-0.3l-0.1-0.2L24,72.7z M27.9,59.6L27.9,59.6L27.9,59.6L27.9,59.6z"/>
<path class="st2" d="M32,78.1l-0.5-0.5l-0.3-0.3V77c0.1-0.2,0.1-0.3,0.2-0.5l0.6-2.4c0.2-0.4,0.3-0.9,0.4-1.3v-0.2l0.4-1.5l0.1-0.5
	c0.1-0.2,0.1-0.4,0.2-0.6h0.2c0-0.2,0-0.3,0-0.4l0.2-0.5h0.1v-0.2l0.2-0.8c0.1-0.7,0.3-1.4,0.4-2.1c0.1-0.3,0.2-0.7,0.3-1.1l0.1-0.1
	V65l0.3-0.6c0.1-0.6,0.3-1.1,0.4-1.7s0.3-0.9,0.4-1.4l0.2-0.2l0.4-0.7l0.2-0.1h0.1v0.2h0.1l0.1-0.1H37l0.5,0.1l0.2,0.1l0.5,0.1h0.1
	h0.1l0.2,0.1h0.5l1.5,0.5v0.2h0.1c0.2,0.4,0.5,0.7,0.7,1.1v0.8c-0.1,1.1-0.3,2.2-0.4,3.3c-0.1,0.8-0.3,1.6-0.4,2.5l-0.1,1.2
	l-0.2,0.8v0.3l-0.2,1.1V73L40,73.3c0,0.4-0.1,0.8-0.1,1.2c-0.1,0.6-0.3,1.1-0.4,1.7c0,0.2,0,0.4-0.1,0.6c-0.1,0.2-0.1,0.5-0.2,0.7
	c-0.1,0.2-0.1,0.6-0.1,0.9v0.1l-0.5,1.7l-0.2,0.2l-0.2,0.1l-0.4-0.1h-0.2l-0.5-0.1H37L36.8,80l-0.2-0.1l-0.1,0.1
	c-0.1-0.1-0.2-0.2-0.4-0.2c0-0.1-0.1-0.1-0.1-0.2l0.7-1.8c0.3-1.4,0.6-2.8,0.9-4.2l-0.3-0.1l-1-0.2l-1-0.3L35,72.7l-0.3-0.4
	c-0.2,0.8-0.5,1.7-0.7,2.5l-0.2,1l-0.1,0.5c0,0.3,0,0.6-0.1,1l-0.1,0.5l0.1,0.3l-0.1,0.3h-0.2l-0.1,0.1l-0.6-0.2l-0.1,0.2
	c-0.1-0.1-0.2-0.2-0.3-0.3L32,78.1z M33,70.4l0.1-0.3H33L33,70.4L33,70.4z M34.5,63.8L34.5,63.8c0,0.2-0.1,0.4-0.2,0.6v-0.2
	L34.5,63.8z M34.7,63.2c0,0.1-0.1,0.3-0.1,0.4l0,0c0-0.2,0.1-0.3,0.2-0.5L34.7,63.2z M35.1,61.8L35,62.2l0,0L35.1,61.8L35.1,61.8z
	 M35.1,62.7L35.1,62.7c0.2-0.3,0.3-0.7,0.3-1l0.1-0.1l0.1-0.2h-0.1L35.1,62.7z M35.7,61.2L35.7,61.2l0.1-0.3l-0.1,0.1L35.7,61.2z
	 M36.2,71l1.1,0.4h0.1l0.5,0.2l0.1-0.1l0.3-1.7v-0.5v-0.1l0.1-0.9l0.2-0.2l0-0.1c0.2-0.8,0.4-1.6,0.6-2.3v-0.3l0.3-1.4l-0.1-0.1
	c-0.5-0.1-0.9-0.2-1.4-0.4h-0.2l-0.5-0.2h-0.4c-0.4,1.7-0.9,3.4-1.3,5.1v0.3l-0.3,1.7l0.1,0.2L36.2,71z"/>
<path class="st2" d="M40.3,80.4c0.2-0.6,0.3-1.2,0.4-1.8v-0.2l0.1-0.3v-0.6l0.1-0.2H41l0.1-0.2h0.2l-0.1-0.4l0.3-0.6
	c0-0.2,0-0.4,0-0.7l0.1-0.3v-0.1c0.3-1.4,0.7-2.8,1-4.2l0.2-1.7l0.2-0.8c0.1-0.8,0.3-1.7,0.4-2.5l0.3-1.2l0.1-1.3
	c0.1-0.1,0.1-0.2,0.1-0.3l0.1-0.1l0.1-0.2l0.2-0.1h1.1c1.2,0.3,2.5,0.5,3.7,0.7c0.3,0.2,0.6,0.3,0.9,0.5l0.2,0.4L50,64.6l0.1,0.2
	l0.1-0.1v0.1v0.2c0,0.1,0,0.2,0.1,0.3l0.2,0.2l-0.1,0.1v0.2h0.1l-0.1,0.5l-0.1,0.6h-0.1L50,67l0.1,0.1L50,68.4l0.1,0.1L50,68.7V69
	l-0.2,0.3h-0.2l0.3-1.2h-0.1v0.3l-0.2,0.2v0.6v0.2h-0.1c0,0.1,0.1,0.2,0.1,0.3l-0.1,0.1v0.2h-0.1c0,0.1,0.1,0.2,0.1,0.2
	c0,0.3-0.1,0.5-0.1,0.8l0.1,0.1l-0.3,0.2v0.1l0.1-0.1h0.1l-0.2,0.3h-0.1L49,71.6l-0.1-0.1l-0.4,0.2v0.2h0.1l0,0l-0.3,0.3H48V72
	L48,71.9l-0.3,0.3h0.2v0.1h-0.2v-0.1l0,0v0.1h-0.2L47,72.9c0,0.1,0.1,0.2,0.1,0.3c0,0.3,0.1,0.5,0.2,0.8l0.1,0.7
	c0,0.2,0.1,0.3,0.1,0.5v0.2l0.2,1.2c0,0.1,0,0.2,0.1,0.3s0,0.3,0,0.5c0.2,0.7,0.3,1.5,0.5,2.2l0.2,0.4l0.2,0.1v0.2l-0.2,0.3h-0.2
	v-0.2l-0.1-0.1v0.2h-0.4l-0.2,0.3V81c-0.2,0-0.4-0.1-0.6-0.2l-0.3,0.1H46l-0.1-0.2c-0.1-0.5-0.2-1-0.2-1.6c0-0.2-0.1-0.4-0.1-0.6
	s0-0.4,0-0.6l-0.1-0.3c0-0.3-0.1-0.6-0.1-0.8v-0.3l-0.1-0.2v-0.8c0-0.2,0-0.3,0-0.5l0-0.2l0.2-1h-0.1c0-0.2,0-0.3,0.1-0.4V73
	L44.7,73h-0.4c-0.1,0.7-0.3,1.4-0.4,2.1v0.1l-0.2,1c0,0.1,0,0.3,0,0.4c-0.1,0.7-0.2,1.4-0.3,2.2l-0.3,1.4l0.1,0.5L43,81l-0.7,0.2
	h-0.1l-0.5,0l-0.4,0.1l-0.6-0.2C40.5,80.8,40.4,80.6,40.3,80.4z M42.5,77.7L42.5,77.7c0-0.2,0.1-0.5,0.1-0.7v-0.2v-0.2h-0.1V77
	l-0.1,0.1c0,0.2-0.1,0.3-0.1,0.4L42.5,77.7z M43.9,69c0.1-0.3,0.1-0.5,0.2-0.8v-0.3H44L43.9,69z M44.5,65.7L44.5,65.7
	c0.1-0.2,0.2-0.5,0.2-0.7v-0.2C44.7,65,44.5,65.4,44.5,65.7z M44.7,71.8l0.2-0.1c0.3,0,0.6,0,1,0l0.5-0.2l0.4-0.4l0.4-0.9
	c0-0.2,0.1-0.3,0.1-0.5v-0.5c0.1-0.5,0.2-1.1,0.3-1.7V67c0-0.3,0.1-0.7,0.1-1c0-0.3,0-0.6,0-0.8l-0.3-0.1l-0.1-0.1l-1.1-0.1h-0.4
	l-0.2-0.2c0,0.2,0,0.4,0,0.6c-0.1,0.4-0.2,0.8-0.3,1.2c-0.3,1.7-0.5,3.3-0.8,5l-0.1,0.2L44.7,71.8z M47.7,78.9L47.7,78.9L47.7,78.9
	L47.7,78.9L47.7,78.9z M47.7,79.1L47.7,79.1l0.1-0.1L47.7,79.1L47.7,79.1z M48.2,72.1L48.2,72.1L48.2,72.1L48.2,72.1L48.2,72.1z
	 M49.5,70.2v0.2l0,0.1l-0.1-0.1L49.5,70.2z"/>
<path class="st2" d="M50.5,77.7l0.1-0.1v0.5L50.5,78V77.7z M52.4,79.3c-0.2,0-0.4,0-0.6,0h-0.3l-0.2-0.1h-0.1l-0.1-0.2l-0.1-0.3
	h-0.3v-1.1c0-0.3,0.1-0.5,0.1-0.8l0,0v0.1v-0.2l-0.1-0.1l0.2-0.2l-0.1-0.1h-0.1v-0.2l0-0.2c0-0.3,0-0.7,0-1l0.1-0.2v-0.2
	c0.1-0.1,0.1-0.1,0.2-0.2v0.2l0.1-0.1l0.1-0.6l0.3-0.2l0.2-0.1l0.2-0.3l0.3-0.1h0.3l0.2-0.1l0.4-0.1l0.2,0.2c0,0.2-0.1,0.5-0.1,0.7
	s0,0.8-0.1,1.2c0,0.2-0.1,0.4-0.1,0.6V77c0,0.1,0.1,0.2,0.1,0.3l0.1,0.1h0.2h0.1h0.2l0.4-0.4l0.2-0.6l0.1-0.4v-0.1v-0.2l0.2-1.1
	c-0.1-0.8-0.2-1.6-0.3-2.3l-0.3-0.3l-0.2-0.3h-0.3h-0.2l-0.2-0.3h-0.1l0,0L53,71.2h-0.4l-0.4-0.3L52,70.6l-0.3-0.3l-0.2-0.8
	l-0.1-0.3V69c0-0.3-0.1-0.6-0.1-0.9c0-0.3,0.1-0.5,0.1-0.7v-0.1l0.1-0.6l0.4-0.9l0.2-0.6l0.9-0.8l0.9-0.3l0.2-0.1l0.7-0.3l0.5-0.1
	l0.5-0.1h0.6l0.3-0.1l0.4,0.1l0.2,0.1v0.2l0.3,0.2v0.1l0.2,0.3c0,0.3,0,0.7,0,1.1l-0.2,0.6l-0.1,0.1v0.1c0,0.1-0.1,0.3-0.2,0.4
	l-0.3,0.2l-0.1,0l-0.2,0.2c-0.3,0.2-0.5,0.4-0.8,0.7l-0.3,0.2h-0.2l-0.1-0.2c0-0.3,0.1-0.6,0.1-0.9v-0.2c0-0.3,0.1-0.7,0.1-1
	l-0.2-0.2l-0.5,0.1c-0.2,0.1-0.4,0.2-0.6,0.2L54,65.9c0,0.1-0.1,0.2-0.1,0.3c-0.1,0.4-0.1,0.9-0.2,1.4l0.1,1l0.5,0.7l0.4,0.2h0.1
	l0.3,0.2c0.4,0.1,0.7,0.1,1.1,0.1l0.3,0.2l0.4,0.5c0,0.4,0,0.8,0.1,1.1c0.1,0.4,0,0.8-0.1,1.3l-0.1,0.7v0.6l-0.2,0.4v0.2l-0.1,0.4
	l-0.1,0.3l-0.3,0.5c-0.2,0.3-0.4,0.6-0.5,0.9l-0.3,0.4l-0.2,0.3c-0.2,0.1-0.4,0.2-0.6,0.3L54,78.5l-0.1,0.1c-0.3,0.2-0.7,0.4-1,0.6
	l-0.4,0.1L52.4,79.3z M51,79L51,79L51,79L51,79z M51,77.4h0.1v-0.2l-0.2-0.1C50.9,77.2,50.9,77.3,51,77.4L51,77.4z"/>
<path class="st2" d="M36.4,81.2c0,0-4.3,3.5-4.7,5.1c-1.1,4.6,5.6,6,6.7,1.4C38.8,85.9,36.4,81.2,36.4,81.2z"/>
<g class="st4">
	<path class="st0" d="M33.4,88.2L33.4,88.2l-0.1,0L33.2,88l-0.1,0l0-0.1l0-0.1l0-0.2l0-0.3l0-0.1l0-0.2l0-0.1l0-0.1l0,0l0,0l0,0l0,0
		l0-0.2l0.1-0.2l0,0l0-0.1l0,0l0-0.1l0,0l0-0.1l0,0l0-0.1l0.1-0.1l0,0l0,0l0,0l0.1-0.1l0.1,0l0.1,0l0,0l0,0l0.1,0l0.1,0l0.1,0l0.1,0
		l0,0l0,0l0,0l0.1,0l0,0l0.1,0l0,0l0,0l0,0l0.2,0l0,0l0.1,0l0.1,0.1l0,0.1l0.1,0l0.1,0.1l0.1,0l0,0.1l0,0l0,0l0,0.1l0,0l0,0l0,0
		l0,0.2l0,0l0,0l0,0l0,0.1l0,0l0,0.2l0,0l0,0l0,0.1l0,0.1l0,0l0,0l-0.1,0.2l0,0l0,0l0,0.2l0,0l-0.1,0.2l0,0l0-0.1l0,0l0,0l0,0l0,0.1
		l0,0l0,0.1l0,0l0,0.1l0,0l0,0l0,0l0.1,0l0,0l0,0l0,0.1l0,0l0,0.2l0,0l0,0l0,0l0,0l0,0l0,0l0,0l0,0l0,0l-0.1,0.1l0,0l0,0h0l0,0
		l-0.1,0l0,0l-0.1,0l-0.2,0l-0.5-0.1L33.4,88.2L33.4,88.2z M33.6,87L33.6,87L33.6,87L33.6,87L33.6,87z M33.7,87.7l0.1,0l0.1,0l0.1,0
		l0.1,0l0,0l0.1-0.4l0-0.2l0.2-0.9l0-0.1l0-0.2l0,0l0,0l-0.1,0l0,0l-0.1,0l0,0l0,0l-0.1,0l0,0l0,0l-0.1,0l0,0l0,0.4l0,0.1l0,0.3
		l0,0.2l0,0.3l0,0.2L33.7,87.7L33.7,87.7z M34.3,87.6L34.3,87.6L34.3,87.6L34.3,87.6z M34.3,87.6L34.3,87.6L34.3,87.6L34.3,87.6
		L34.3,87.6z M34.4,87.7L34.4,87.7L34.4,87.7L34.4,87.7L34.4,87.7z M34.4,87.6L34.4,87.6l0-0.2l0,0l0,0l0,0l0,0L34.4,87.6L34.4,87.6
		L34.4,87.6z M34.4,86.9L34.4,86.9L34.4,86.9L34.4,86.9L34.4,86.9z M34.4,87.4L34.4,87.4L34.4,87.4L34.4,87.4l0-0.2l0,0L34.4,87.4z
		 M34.5,88L34.5,88L34.5,88L34.5,88z M34.5,87L34.5,87L34.5,87L34.5,87L34.5,87z M34.5,86.8L34.5,86.8l0-0.1l0,0L34.5,86.8z
		 M34.5,87.7L34.5,87.7L34.5,87.7L34.5,87.7L34.5,87.7z M34.6,86.6L34.6,86.6L34.6,86.6L34.6,86.6L34.6,86.6L34.6,86.6l0.1-0.2l0,0
		l0,0.1l0,0L34.6,86.6z M34.6,87.8L34.6,87.8L34.6,87.8L34.6,87.8z M34.6,88L34.6,88L34.6,88L34.6,88L34.6,88z M34.7,87.7l0-0.2l0,0
		L34.7,87.7l0,0.1l0,0l0,0.1l0,0l0,0L34.7,87.7z M34.6,85.8L34.6,85.8L34.6,85.8L34.6,85.8L34.6,85.8z M34.7,87.2L34.7,87.2
		L34.7,87.2L34.7,87.2L34.7,87.2z M34.7,87.2L34.7,87.2L34.7,87.2L34.7,87.2L34.7,87.2z M34.8,87.4L34.8,87.4v0.1l0,0L34.8,87.4z
		 M34.9,86.5L34.9,86.5L34.9,86.5L34.9,86.5z M34.9,86.4L34.9,86.4L34.9,86.4L34.9,86.4z M34.9,85.9L34.9,85.9L34.9,85.9L34.9,85.9
		L34.9,85.9z M35,85.7L35,85.7L35,85.7L35,85.7L35,85.7z M35.1,85.8L35.1,85.8L35.1,85.8L35.1,85.8L35.1,85.8z"/>
	<path class="st0" d="M36,88.2L36,88.2L36,88.2l0,0.1l0,0.1l0,0l-0.1,0l0,0l0,0l0,0l-0.1,0.1l0,0l-0.1,0l-0.1,0l-0.1,0l-0.1,0l0,0
		l0,0h-0.1l0,0l0.3-1.9l0,0l-0.1,0l0,0l-0.1,0l0,0l0,0l-0.1,0l0,0l0-0.3l0-0.1l0.1-0.1l0,0l0,0l0.2,0l0,0l0.1-0.5l0.1-0.2l0.1-0.1
		l0-0.1l0,0l0.1-0.3l0.1-0.1l0.1-0.1l0.2,0h0.2l0.1,0l0.1,0l0.2,0l0.1,0.1l0,0l0.2,0.1l0,0.1l0,0l0.1,0.1l0,0l0,0.1l0,0l0,0.1l0,0.1
		l0,0l0,0l0,0l-0.1,0l-0.1,0l-0.4-0.1l0,0l-0.3,0l-0.1,0l-0.1,0.2l0,0.2l0,0.1L36.3,86l0,0l0,0.2l0.1,0l0,0l0.2,0l0,0l0.1,0.1l0,0
		l0,0l0.1,0.1l0,0.2l0,0l0,0.1l0,0l0,0l0,0l0,0l-0.1,0.1l0,0l0,0l0,0l0,0l0,0l0,0l-0.1,0l0,0l-0.1,0l-0.1-0.1l0,0l0,0l-0.1,0l0,0
		h-0.1l0,0.1l0,0.1l0,0l-0.1,0.3l0,0.1l0,0L36,88.1L36,88.2L36,88.2L36,88.2L36,88.2L36,88.2L36,88.2L36,88.2z M36.1,87L36.1,87
		L36.1,87L36.1,87L36.1,87L36.1,87L36.1,87z M36.2,86L36.2,86L36.2,86L36.2,86L36.2,86z M36.2,85.9L36.2,85.9L36.2,85.9L36.2,85.9
		L36.2,85.9z M36.9,86.8L36.9,86.8L36.9,86.8L36.9,86.8L36.9,86.8z M37.4,85.1L37.4,85.1L37.4,85.1L37.4,85.1L37.4,85.1L37.4,85.1z
		 M37.4,85.3L37.4,85.3L37.4,85.3L37.4,85.3L37.4,85.3z M37.4,85.1L37.4,85.1L37.4,85.1L37.4,85.1L37.4,85.1z"/>
</g>
<g class="st4">
	<path class="st2" d="M22.2,48.6L22.2,48.6l-0.1-0.2l0.1-0.2l0.1-0.2l0.4-0.5l0.1-0.1l0.2-0.3l0-0.1l0.1-0.1l0.1-0.2l0.1-0.1
		l0.1-0.1l0,0l0.1-0.2l0.1-0.1l0.1-0.1l0.1,0l0,0l0,0l0.1-0.1l0.1,0l0.1,0l0,0l0,0l0.1,0l0,0l0.1,0l0.1,0.1l0.4,0.3l0,0l0.1,0.1
		l0,0.1l0.1,0.1l0,0.1l0,0l0,0l0,0l0,0l0,0l0,0l0,0l0,0l0,0.1l0,0l0,0l0,0l0,0l0,0.1l-0.1,0.1l-0.1,0.1l-0.1,0.1l-0.1,0.2l-0.1,0.2
		l0,0.1l0,0l-0.1,0.1l0,0l0,0.1l-0.1,0l0,0l0,0l0,0l0,0l0,0l0,0l0,0L24,48.3l0,0l0,0l0,0l-0.1,0.1l-0.2,0.2l0,0l0,0l-0.1,0.1l0,0
		l0,0l0,0l0,0l-0.1,0.1l0,0l0,0l0,0l0,0l0,0L23.4,49l0,0l0,0L23.3,49l-0.1,0.1l-0.1,0l0,0l0,0l0,0l0,0l0,0l-0.1,0l-0.1-0.1l0,0
		l-0.1,0l-0.1-0.1l-0.1,0L22.2,48.6L22.2,48.6z M22.8,48.5l0.2,0.2l0.1,0l0.1-0.1l0.2-0.2l0.7-0.9l0,0l0.2-0.2l0.1-0.2l0.1-0.1
		l0.1-0.1l0,0l0-0.1l0,0l0,0l-0.1,0l0-0.1l-0.1,0l-0.1-0.1l0,0l0,0l-0.1,0l0,0l0,0l0,0l0,0L24,46.5l-0.2,0.3l-0.5,0.6l0,0l0,0l0,0
		l0,0l-0.2,0.3l0,0l-0.2,0.3l0,0l0,0l-0.1,0.1l0,0l0,0l0,0l0,0l0,0.1l0,0l0,0l0,0L22.8,48.5z M22.6,48.3L22.6,48.3L22.6,48.3
		L22.6,48.3L22.6,48.3z M23,47.8L23,47.8L23,47.8L23,47.8z M23.1,47.4L23.1,47.4L23.1,47.4L23.1,47.4L23.1,47.4z M23.1,49.2
		L23.1,49.2L23.1,49.2L23.1,49.2z M23.1,47.3L23.1,47.3L23.1,47.3L23.1,47.3L23.1,47.3z M23.2,47.5L23.2,47.5L23.2,47.5L23.2,47.5z
		 M23.4,47L23.4,47L23.4,47L23.4,47L23.4,47z M23.4,48.9L23.4,48.9L23.4,48.9L23.4,48.9L23.4,48.9z M23.6,46.7L23.6,46.7L23.6,46.7
		L23.6,46.7L23.6,46.7z M23.6,46.6L23.6,46.6L23.6,46.6L23.6,46.6L23.6,46.6L23.6,46.6z M23.7,46.6L23.7,46.6L23.7,46.6L23.7,46.6z
		 M23.7,46.5L23.7,46.5L23.7,46.5L23.7,46.5L23.7,46.5z M23.9,48.4L23.9,48.4L23.9,48.4L23.9,48.4z M23.9,46.4L23.9,46.4L23.9,46.4
		L23.9,46.4L23.9,46.4z M24.4,47.8L24.4,47.8L24.4,47.8L24.4,47.8L24.4,47.8z M24.9,46.8L24.9,46.8L24.9,46.8L24.9,46.8L24.9,46.8z"
		/>
</g>
<g class="st4">
	<path class="st2" d="M24.6,50.2l0.2-0.3l0,0l0,0l0-0.1l0,0l0,0l0,0l0,0l0-0.1l0.1-0.1l0-0.1l0,0l0,0l0.4-0.6l0.1-0.3l0.1-0.1
		l0.2-0.4l0.1-0.2l0.1-0.2l0,0l0,0l0,0l0,0l0.2,0.1l0.7,0.5l0.2,0.2l0,0.1l0,0.1l0,0l0,0l0,0l0,0l0,0.1l0,0.1l0,0l0,0l0,0l-0.1,0.1
		L27.3,49l0,0l0,0l0,0l-0.1,0.2l0,0l0,0l0,0.1l-0.1,0l0,0l0.1-0.2l0,0l0,0.1l0,0l0,0.1l0,0l0,0l0,0.1l0,0l0,0l0,0l0,0.1l-0.1,0.1
		l0,0l-0.1,0l0,0l0,0l0,0l-0.1,0l0,0l0,0l0,0l-0.1,0l0,0l0,0l0,0l-0.1,0l-0.1,0l0,0l0,0l-0.1,0l0,0l0,0l0,0l0,0l0,0l0,0l0,0l-0.1,0
		v0.1l0,0.2l0,0.1l0,0.1l0,0l-0.1,0.2l0,0.1l0,0.1L26,51l0,0.1l0,0l0,0l-0.1,0l0,0l0,0l0,0l0,0L25.8,51l0,0l0,0L25.7,51l0,0
		l-0.1-0.1l0,0l0.1-0.3l0-0.1l0-0.1l0-0.1l0-0.2l0-0.1v0l0-0.1l0-0.1l0,0l0.1-0.1l0,0l0-0.1l0-0.1l-0.1,0l-0.1,0l-0.2,0.3l0,0
		l-0.1,0.2l0,0.1l-0.2,0.3l-0.1,0.2l0,0.1l-0.1,0l-0.1,0l0,0l-0.1-0.1l-0.1,0l-0.1-0.1L24.6,50.2z M25.1,50L25.1,50l0.1-0.1l0,0l0,0
		l0,0l0,0.1l0,0L25.1,50L25.1,50z M25.9,49.2L25.9,49.2l0.2,0.1l0.1,0l0.1,0l0.1-0.1l0.1-0.1l0-0.1l0.2-0.3l0-0.1l0.1-0.2l0.1-0.1
		l-0.1-0.1l0,0l-0.2-0.1l-0.1,0l0-0.1l0,0.1l-0.1,0.2L25.9,49.2L25.9,49.2L25.9,49.2z M25.9,48.7l0.1-0.1l0-0.1l0,0L25.9,48.7z
		 M26,50.8L26,50.8L26,50.8L26,50.8L26,50.8z M26,50.8L26,50.8L26,50.8L26,50.8L26,50.8z M26.2,48.2L26.2,48.2L26.2,48.2l0.1-0.1
		L26.2,48.2z M26.6,49.7L26.6,49.7L26.6,49.7L26.6,49.7L26.6,49.7z M27,49.5L27,49.5L27,49.5L27,49.5L27,49.5z"/>
</g>
<g class="st4">
	<path class="st2" d="M27.3,51.9L27.3,51.9L27.3,51.9l0.1-0.3l0.1-0.2l0.1-0.2v0l0,0l0,0l0,0l0,0l0-0.1v0l0,0l0-0.1l0,0l0.1-0.1l0,0
		l0-0.1l0.1-0.2l0,0l0,0l0,0l0-0.1l0,0l0,0l0,0l0,0l0,0l0-0.1l0-0.1l0.2-0.4l0,0l0,0l0.1-0.1l0,0l0,0l0,0l0,0l0,0l0,0l0.1-0.2l0,0
		l0.1-0.1l0,0l0,0l0.1,0l0,0h0l0,0l0.1,0.1l0,0l0,0l0,0l0,0l0,0l0,0l0,0.1l0,0.1l0,0l0,0.1l0,0.1l0,0.1l0,0l-0.1,0.2l0,0l0,0
		l-0.2,0.5l0,0l-0.1,0L28.3,51l0,0l-0.1,0.1l0,0l-0.1,0.1l-0.1,0.1l0,0l0,0l0,0l0,0l0,0.1L28,51.7l0,0.1l0,0.1l0,0L27.8,52l0,0.1
		l0,0l0,0l-0.1,0L27.3,51.9L27.3,51.9L27.3,51.9z M28,51.6L28,51.6L28,51.6L28,51.6L28,51.6L28,51.6z M28.2,51L28.2,51L28.2,51
		L28.2,51L28.2,51z M28.7,49.1L28.7,49.1L28.7,49.1L28.7,49.1L28.7,49.1z"/>
</g>
<g class="st4">
	<path class="st2" d="M29.8,53.1L29.8,53.1l-0.2-0.2l0,0l0,0l-0.1-0.2l0-0.2l0-0.1l0,0l0,0l0,0l0-0.1l0,0l0,0l0-0.2l0-0.1l0.1-0.2
		l0,0l0-0.1l0-0.1l0,0l0,0l0,0l0,0l0,0l0,0l0,0l0,0l0-0.1l0,0l0,0l0-0.1l0-0.1l0,0l0-0.1l0,0l0-0.1l0-0.1l0,0l0-0.1l0,0l0-0.1l0,0
		l0,0l0,0l0,0l0.1-0.1l0,0l0.1,0l0,0l0,0l0,0l0,0l0,0l0,0l0,0l0,0l0,0l0,0l0,0l0,0l0,0l0,0l0,0l0,0l0,0l0,0l0,0l0-0.1l0,0l0.1-0.1
		l0,0l0,0l0-0.1l0-0.1l0,0l0,0l0,0l0,0l0,0l0,0l0.1,0l0,0l0,0l0,0l0,0l0.1,0l0,0l-0.1,0l0,0l0,0l0,0l0.1,0l0,0l0,0l0,0l0,0l0.1,0
		l0.2,0.1l0.2,0.1l0.2,0.1l0.1,0.1l0.1,0.1l0,0l0,0.1l0,0l0,0.1l0,0l0,0l0,0l0,0l0,0l0,0l0,0l0,0.1l0,0l0,0h0l-0.1,0.1l-0.1,0
		l-0.1,0l-0.1,0l-0.1,0l0,0l0,0l-0.1,0L31.2,51l0-0.1l0,0l0-0.1l0-0.1l0-0.1l0,0l0,0l0,0l0,0l0,0l-0.1-0.1l-0.2,0l0,0l0,0l-0.1,0
		l0,0l-0.1,0l-0.1,0l-0.1,0l-0.1,0.2l0,0l-0.1,0.2l0,0.1l0,0l0,0l0,0l0,0l0,0l0,0.1l0,0l0,0l0,0l0,0l0,0l0,0l-0.1,0.3l-0.1,0.2l0,0
		l0,0.1l0,0l0,0L30,52.3l0,0l0,0l0,0.1l0,0l0,0l0,0.1l0,0.1l0,0.1l0.1,0.1l0.2,0.1l0.1,0l0.1-0.2l0,0l0-0.1l0-0.1l0,0l0.1-0.1l0-0.1
		l0.1-0.2l0,0l0,0l0,0l-0.1,0L30.5,52l0,0l0,0l-0.1,0l0,0l0-0.1l0-0.1l0,0l0,0l0,0l0.1,0l0.2,0.1l0.3,0.1l0.1,0.1l0,0l0,0.1l0.1,0.1
		l0,0.1l0,0l0,0l-0.1,0.1l-0.1,0.1l0,0l0,0l0,0.1l0,0l0,0l0,0l0,0.1l0,0l0,0l0,0l0,0l0,0.1l0,0l0,0L31,52.9l-0.1,0l0,0l0,0l0,0.1
		l0,0l0,0l0,0l0,0.1l-0.1,0.1l0,0.1l-0.1,0.1l0,0l-0.1,0l0,0l-0.1,0l0,0l-0.1,0l0,0l-0.1,0l-0.1,0L30,53.3l-0.1-0.1L29.8,53.1z
		 M29.8,51.6L29.8,51.6L29.8,51.6L29.8,51.6z M29.8,51.6L29.8,51.6L29.8,51.6L29.8,51.6L29.8,51.6z M29.8,51.4L29.8,51.4L29.8,51.4
		L29.8,51.4L29.8,51.4z M29.9,51.2L29.9,51.2L29.9,51.2L29.9,51.2L29.9,51.2z M29.9,51.2L29.9,51.2L29.9,51.2L29.9,51.2L29.9,51.2
		L29.9,51.2L29.9,51.2z M29.9,51.1L29.9,51.1L29.9,51.1L29.9,51.1L29.9,51.1z M29.9,51L29.9,51L29.9,51L29.9,51L29.9,51z M30.1,50.8
		L30.1,50.8L30.1,50.8L30.1,50.8L30.1,50.8z M30.1,50.7L30.1,50.7L30.1,50.7L30.1,50.7L30.1,50.7z M30.3,50.5L30.3,50.5L30.3,50.5
		L30.3,50.5L30.3,50.5z M30.9,53.2L30.9,53.2L30.9,53.2L30.9,53.2L30.9,53.2z M30.9,52.9L30.9,52.9L30.9,52.9L30.9,52.9L30.9,52.9z
		 M31,52.7L31,52.7L31,52.7L31,52.7z M31,52.8L31,52.8L31,52.8L31,52.8z M31.1,52.7L31.1,52.7L31.1,52.7L31.1,52.7L31.1,52.7z
		 M31.2,52.2L31.2,52.2L31.2,52.2L31.2,52.2L31.2,52.2z"/>
</g>
<g class="st4">
	<path class="st2" d="M32.2,54L32.2,54l0-0.1l0.1-0.2l0-0.2l0.1-0.2l0,0l0,0l0,0l0,0l0,0l0-0.1l0,0l0,0l0-0.1l0,0l0-0.1l0,0l0-0.1
		l0.1-0.2l0,0l0,0l0,0l0-0.1l0-0.1l0,0l0,0l0,0l0,0l0-0.1l0-0.1l0.2-0.4l0,0l0,0l0.1-0.1l0,0l0,0l0,0l0,0l0,0l0,0l0.1-0.2l0,0l0-0.1
		l0,0l0,0l0.1,0l0,0l0,0l0,0l0.1,0.1l0,0l0,0l0,0l0,0l0,0l0,0l0,0.1l0,0.1l0,0l0,0.1l0,0.1l0,0.1l0,0.1l0,0.2l0,0l0,0l-0.2,0.5l0,0
		l-0.1,0L33.1,53l0,0l0,0.1l0,0L33,53.3l-0.1,0.1l0,0l0,0l0,0l0,0l0,0.1l-0.1,0.1l0,0.1l0,0.1l0,0l0,0.1l0,0l0,0l0,0l-0.1,0L32.2,54
		L32.2,54L32.2,54z M32.8,53.6L32.8,53.6L32.8,53.6L32.8,53.6L32.8,53.6L32.8,53.6z M32.9,53L32.9,53L32.9,53L32.9,53L32.9,53z
		 M33.2,51.1L33.2,51.1L33.2,51.1L33.2,51.1L33.2,51.1z"/>
</g>
<g class="st4">
	<path class="st2" d="M34.3,54.7L34.3,54.7l-0.1-0.1l0-0.1l0-0.1l0.1-0.3l0-0.1l0.2-0.7l0-0.2l0.1-0.4l0,0l0,0l0-0.1l0,0l0,0l0-0.1
		l0,0l0,0l0-0.1l0-0.1l0,0l0,0l0-0.1l0,0l0-0.1l0,0.1l0,0l0,0l0,0l0-0.1l0.1,0l0,0l0,0l0,0l0,0l0,0l0.1,0l0,0l0.1,0l0,0l0,0l0,0l0,0
		l0,0l0,0.1l0,0.1l0,0l0.1,0.5l0,0l0,0.2l0,0.2l0,0.3l0,0l0,0l0,0.1l0,0.1l0,0.4l0,0l0,0.2v0.1l0,0l0.1-0.2l0.1-0.4l0,0l0,0l0-0.1
		l0.1-0.3l0.1-0.2l0.1-0.3l0,0l0.1-0.5l0.1,0l0,0l0.1,0l0,0l0,0l0,0l0,0l0,0l0,0l0,0l0,0l0,0l0,0l0,0.1l-0.1,0.1l-0.1,0.2l0,0.1
		l-0.3,0.9l-0.1,0.1l0,0l0,0.1l0,0l0,0l0,0l0,0.1l0,0l-0.1,0.2l0,0l0,0.1l0,0l-0.1,0.3l0,0l0,0.1L36,54.9l0,0.1l0,0l0,0l0,0l0,0l0,0
		l0,0l0,0l0,0l0,0l0,0l-0.1,0l-0.1-0.1l0,0l-0.1,0l0,0l0-0.5l0-0.1l0-0.2l0-0.1l0-0.1l0-0.1l0-0.1l-0.1-0.3l0-0.1l-0.1-0.3l0-0.1
		l0-0.1l0,0l0,0l0-0.1l0-0.1l0,0l0-0.1l0-0.1l0,0l0,0l0,0l0,0l0,0.1l0,0.1L35,53.2l-0.3,1.1l-0.1,0.2l0,0l0,0l0,0.1l0,0l0,0.1l0,0.1
		l-0.1,0l0,0l0,0l-0.1,0L34.3,54.7L34.3,54.7z M34.4,54.2L34.4,54.2L34.4,54.2L34.4,54.2z M34.8,52.6L34.8,52.6L34.8,52.6L34.8,52.6
		L34.8,52.6z M34.8,52.6L34.8,52.6L34.8,52.6L34.8,52.6z M36.1,54.4L36.1,54.4L36.1,54.4L36.1,54.4L36.1,54.4L36.1,54.4z M36.2,53.7
		L36.2,53.7L36.2,53.7L36.2,53.7L36.2,53.7z M36.2,54.1L36.2,54.1L36.2,54.1L36.2,54.1L36.2,54.1z"/>
</g>
<g class="st4">
	<path class="st2" d="M37.7,55.7l-0.1-0.1l-0.1,0l0-0.1l0-0.1l0.1-0.4l0.1-0.2l0,0l0-0.3l0-0.1l0-0.1l0,0l0-0.1l0-0.1l0,0l0,0l0-0.1
		l0-0.4l0-0.2l0,0l0,0.1l0.1-0.1l0.1-0.3l0.1-0.2l0,0l0.1-0.1l0,0l0,0l0,0l0,0l0,0l0.1,0l0.1,0l0,0l0.1,0l0,0l0,0l0,0l0.1,0l0.3,0.1
		l0,0l0,0l0.2,0.2l0,0.1l-0.1,0.6L39.4,54l0,0.2l0,0.1l0,0.1l0,0.2l0,0.1l0,0l0,0.2l-0.1,0.3l0,0.1l0,0.1l0,0.2l0,0l-0.1,0.3l0,0
		l0,0l-0.1,0l0,0l-0.1,0l0,0l0,0l0,0l0,0l-0.1,0l0,0l0.1-0.3l0.1-0.7l-0.1,0l-0.2,0l-0.2,0l-0.1,0l-0.1-0.1L38.1,55l0,0.2l0,0.1
		l0,0.2l0,0.1l0,0.1l0,0.1l0,0l0,0l-0.1,0l0,0L37.7,55.7L37.7,55.7z M37.8,54.3L37.8,54.3L37.8,54.3L37.8,54.3L37.8,54.3z M38,53.1
		L38,53.1l0,0.1L38,53.1L38,53.1z M38,53L38,53L38,53L38,53L38,53z M38,52.8L38,52.8L38,52.8L38,52.8L38,52.8z M38.1,52.9L38.1,52.9
		l0.1-0.2l0,0l0,0l0,0L38.1,52.9z M38.2,52.6L38.2,52.6L38.2,52.6L38.2,52.6L38.2,52.6z M38.5,54.3l0.2,0.1l0,0l0.1,0l0,0l0-0.3
		l0-0.1l0,0l0-0.2l0,0l0,0l0.1-0.4l0,0l0.1-0.2l0,0L38.8,53l-0.1,0l-0.1,0l-0.1,0l-0.2,0.9l0,0.1l0,0.3l0,0L38.5,54.3z"/>
</g>
<g class="st4">
	<path class="st2" d="M40.9,56.2L40.9,56.2L40.9,56.2l-0.2-0.1l0,0l0-0.1l0-0.2l0-0.1l0-0.3l0-0.1l0-0.1l0-0.3l0-0.1l0.1-0.8l0,0
		l0-0.1l0-0.1l0-0.1l0-0.1l0-0.2l0,0l0-0.1l0,0l0-0.3l0,0l0,0l0,0l0,0l0,0l0,0l0,0l0,0l0.1,0l0,0l0,0l0.1,0l0,0l0.1,0.1l0,0.4l0,0.3
		l0,0.4l0,0.1l0,0.1L41.3,55l0,0l0,0l0,0.1l0,0.2l0,0.1l0,0l0,0l0,0.1l0,0.1l0,0.1l0,0l0,0l0.3,0.1l0,0l0,0l0,0l0.1,0l0,0l0,0l0,0.1
		l0,0l0,0l0,0l0,0l0,0l0,0l0,0l-0.1,0l-0.1,0l-0.4,0l-0.1,0L40.9,56.2L40.9,56.2z M41.1,55.8L41.1,55.8L41.1,55.8L41.1,55.8z
		 M41.2,55.7L41.2,55.7L41.2,55.7L41.2,55.7z M41.2,55.5L41.2,55.5L41.2,55.5L41.2,55.5z"/>
</g>
<g class="st4">
	<path class="st2" d="M45.6,56.7l0-0.3l0,0l0-0.1l0-0.1l0,0l0,0l0,0l0,0l0-0.1l0-0.1l0-0.1l0-0.1l0,0l0.1-0.7l0-0.3l0-0.1l0-0.4
		l0-0.2l0-0.2l0-0.1l0,0l0,0l0,0l0.3,0l0.9,0l0.2,0.1l0.1,0.1l0,0.1l0,0l0,0l0,0l0,0l0,0.1l0,0l0,0v0l0,0l0,0.1l0,0.1l0,0l0,0l0,0
		l0,0.2l0,0l0,0l0,0.1l0,0.1l0,0l0-0.2l0,0l0,0.1l0,0l0,0.1l0,0l0,0l0,0.1l0,0l0,0l0,0l0,0l0,0.1l0,0l-0.1,0v0l0,0l0,0l0,0.1l0,0
		l0,0l0,0l-0.1,0l0,0l0,0l0,0L47,55.2l-0.1,0l0,0l0,0l-0.1,0.1l0,0l0,0l0,0l0,0h0v0l0,0l-0.1,0.1l0,0l0.1,0.1l0,0.1l0,0.1l0,0
		l0.1,0.2l0,0.1l0,0.1l0.2,0.4l0,0.1l0,0l0,0l0,0.1l0,0l0,0l0,0l0,0l-0.1,0l0,0v0l-0.1,0l0,0l-0.1,0l0,0l-0.1-0.3l0-0.1l0-0.1l0-0.1
		l0-0.2l0-0.1l0,0l0-0.1l0-0.1l0,0l0-0.2l0,0l0-0.1l0-0.1l-0.1,0l-0.1,0l0,0.4l0,0l0,0.2l0,0.1l0,0.4l0,0.3l0,0.1l0,0.1l-0.1,0l0,0
		l-0.1,0l-0.1,0L45.6,56.7L45.6,56.7z M45.9,56.1L45.9,56.1l0-0.1l0,0v0l0,0l0,0.1l0,0L45.9,56.1L45.9,56.1z M45.9,54.6l0-0.1l0-0.1
		l0,0L45.9,54.6z M46,54L46,54l0-0.1l0,0L46,54z M46.2,55.1L46.2,55.1l0.3,0l0.1,0l0.1-0.1l0.1-0.2l0-0.1l0-0.1l0-0.3l0-0.1l0-0.2
		l0-0.2l-0.1,0l0,0l-0.3,0l-0.1,0l-0.1,0l0,0.1l0,0.2L46.2,55.1L46.2,55.1L46.2,55.1z M47,55.1L47,55.1L47,55.1L47,55.1L47,55.1z
		 M47.1,56.4L47.1,56.4L47.1,56.4L47.1,56.4L47.1,56.4z M47.1,56.4L47.1,56.4L47.1,56.4L47.1,56.4L47.1,56.4z M47.3,54.8L47.3,54.8
		L47.3,54.8L47.3,54.8L47.3,54.8z"/>
</g>
<g class="st4">
	<path class="st2" d="M48.9,56.7l-0.1,0l0,0l0,0l0,0l0-0.5l0-0.2l0-0.1l0-0.5l0,0l0-0.1l0,0l0-0.1l0-0.2l-0.1-0.5l0-0.3l0,0l0,0
		l0-0.1l0,0l0,0l0,0l0,0l0-0.1l0,0l0,0.1l0,0l0-0.2l0,0v0l0.1,0l0,0l0,0l0.2,0l0.2,0l0.1,0l0.1,0l0.3,0l0.2,0l0.1,0l0,0l0.1,0
		l0.1,0.1l0,0l0,0l0,0l0,0.1l0,0l-0.1,0.1l-0.2,0l-0.2,0l-0.1,0l-0.2,0l-0.1,0l0,0l0,0.1l0,0.1l0,0.2l0,0.2l0,0.2l0.3,0l0.1,0
		l0.2-0.1l0.2,0.1l0,0l0,0l0,0l0,0l0,0l0,0.1l0,0l0,0l0,0.1l-0.1,0.1l-0.1,0l-0.4,0l0,0l-0.2,0l-0.1,0l0,0.1l0,0.2l0,0.2l0.1,0.6
		l0.1,0l0.1,0l0.1,0l0.1,0l0.2,0l0.1,0l0.1,0l0.1,0.1l0,0.1l0,0.2l-0.1,0.1l-0.3,0l0,0l0,0l-0.1,0l-0.1,0l0,0l-0.1,0l-0.1,0l-0.1,0
		l-0.1,0l-0.1,0l0,0L48.9,56.7z M48.7,53.9L48.7,53.9L48.7,53.9L48.7,53.9z"/>
</g>
<g class="st4">
	<path class="st2" d="M52.3,56.5l-0.2-0.1l-0.1,0l-0.1-0.1l-0.1-0.1L51.6,56l0-0.1l0,0l-0.1-0.2l0-0.2l0-0.1l0,0l0,0l0,0l0,0l0-0.2
		l-0.1-0.3l0-0.1l0-0.1l0,0l0,0l0-0.4l0-0.1l0,0l0-0.1l0,0l0,0l0-0.1l0-0.2l0,0l0-0.1l0,0l0-0.1l0,0l0,0l0,0l0-0.1l0.1-0.1l0.1-0.1
		l0.3-0.1l0.2,0l0.1,0l0.3,0l0.1,0l0,0l0.1,0l0.1,0.1l0.1,0.1l0,0.2l0,0.1l0,0l0,0.2L52.6,54l-0.2,0l0,0l0,0l0,0l-0.1-0.3l-0.3,0
		l-0.1,0l0,0.2l0,0.2l0,0.2l0,0.2l0,0.3l0,0.4l0.2,0.9l0,0l0,0.1l0.1,0l0.1,0l0.1,0l0.1,0l0.1,0l-0.1-0.3l0-0.1l0,0l0,0l0.1-0.1
		l0.2,0l0,0l0.2,0l0,0.2l0,0.1l0,0.2l0,0l0,0l0,0.1l0,0l0,0l0,0l0,0L53,56.2l-0.1,0l-0.1,0.1l-0.1,0l0,0l-0.1,0.1l-0.2,0L52.3,56.5
		L52.3,56.5z M51.3,54L51.3,54L51.3,54L51.3,54z M51.4,55L51.4,55L51.4,55L51.4,55z M51.5,55.2L51.5,55.2L51.5,55.2L51.5,55.2z
		 M52.4,56.3L52.4,56.3L52.4,56.3L52.4,56.3L52.4,56.3z M52.4,56.3L52.4,56.3L52.4,56.3L52.4,56.3L52.4,56.3z M52.6,56.3L52.6,56.3
		L52.6,56.3L52.6,56.3L52.6,56.3z M52.6,56.2L52.6,56.2L52.6,56.2L52.6,56.2L52.6,56.2z M53.1,56.1L53.1,56.1L53.1,56.1L53.1,56.1
		L53.1,56.1z"/>
</g>
<g class="st4">
	<path class="st2" d="M54,52.9L54,52.9L54,52.9L54,52.9L54,52.9z M54.7,55.9L54.7,55.9l0-0.1l0-0.2l-0.1-0.2l-0.1-0.3l0,0l0,0l0,0
		l0,0l0,0l0-0.1l0,0l0,0l0-0.1l0,0l0-0.1l0,0l0-0.1l-0.1-0.2l0,0l0,0l0,0l0-0.1l0-0.1l0,0l0,0l0,0l0,0l0-0.1l0-0.1l-0.1-0.5l0,0l0,0
		l0-0.1l0,0l0,0l0,0l0,0l0,0l0,0L54,53l0,0l0-0.1l0,0l0,0l0.1,0l0,0l0,0l0,0l0.1,0l0,0l0,0l0,0l0,0l0.1,0l0,0l0.1,0.1l0,0.1l0,0
		l0,0.1l0,0.1l0,0.1l0,0.1l0.1,0.2l0,0l0,0l0.1,0.5l0,0l0,0.1l0.2,0.6l0,0l0,0.1l0,0l0,0.2l0,0.1l0,0l0,0l0,0l0,0l0.1,0.1l0,0.1
		l0,0.1l0,0.1l0,0l0,0.1l0,0l0,0l0,0l-0.1,0.1L54.7,55.9L54.7,55.9L54.7,55.9z M54.8,54.7L54.8,54.7L54.8,54.7L54.8,54.7L54.8,54.7z
		 M55,55.3L55,55.3L55,55.3L55,55.3L55,55.3L55,55.3z"/>
</g>
<g class="st4">
	<path class="st2" d="M56.9,55.4L56.9,55.4l-0.3-0.6l0,0l-0.5-1.2L56,53.2l0-0.1l0,0l0-0.1l0-0.1l-0.1-0.2l-0.1-0.1l0,0l0-0.2l0,0
		l0,0l0,0l0-0.1l0,0l0,0l0,0l0.1,0l0.1-0.1l0.2-0.1l0.2-0.1l0.2,0l0.2,0l0.1,0l0,0l0,0l0.1,0.1l0.1,0.1l0,0.1l0,0l0,0l0,0l0,0.1
		l0.1,0.1l0,0.1l0,0l0,0l0,0l0,0l0,0.1l0,0l0,0l0,0l0,0.1l0,0l0,0l0,0l0,0l0,0l0,0l0,0l0,0l0,0l0,0.1l0.1,0.2l-0.1,0l0,0l0,0l0,0.1
		l0,0l0,0l0,0l0,0l0,0l0,0l0,0l0.1,0l-0.1,0l0,0.1l-0.1,0.1l0,0.1l0,0l0,0l0,0l0,0l-0.1,0l0,0.1l-0.1,0l0,0l-0.1,0l-0.1,0l-0.1,0
		l0,0l0,0.1l0.1,0.1l0.1,0.2l0,0.1l0,0.1l0,0.1l0,0l0,0l0,0l0,0l0,0l0,0l0,0.1l0,0l0,0l0,0l0,0l0.1,0.1l0,0l0,0l0,0l0,0l0,0.1l0,0.1
		l0,0l0,0l0,0l0,0.1l0,0l0,0.1l-0.1,0.1l0,0l-0.1,0L56.9,55.4L56.9,55.4z M56.1,52.5L56.1,52.5L56.1,52.5L56.1,52.5L56.1,52.5
		L56.1,52.5L56.1,52.5z M56.1,52.7L56.1,52.7L56.1,52.7L56.1,52.7L56.1,52.7z M56.1,52.7L56.1,52.7L56.1,52.7L56.1,52.7L56.1,52.7z
		 M56.2,52.7L56.2,52.7L56.2,52.7L56.2,52.7L56.2,52.7L56.2,52.7z M56.2,52.7L56.2,52.7L56.2,52.7L56.2,52.7z M57.1,53.7L57.1,53.7
		l0.1-0.1l0-0.2L57,53l0-0.1l-0.1-0.2l-0.1-0.2l0-0.1l0,0l0,0l0-0.1l-0.1,0l-0.1,0l0,0l-0.1,0l-0.1,0l-0.1,0l0,0l0,0l0,0l0,0l0,0.1
		l0,0l0,0.1l0.1,0.2l0.1,0.2l0,0.1l0.1,0.2l0.2,0.5L57.1,53.7z M56.3,53.1L56.3,53.1L56.3,53.1L56.3,53.1z M56.3,52.5L56.3,52.5
		L56.3,52.5L56.3,52.5L56.3,52.5z M56.4,53.5L56.4,53.5L56.4,53.5L56.4,53.5z M57,54.4L57,54.4L57,54.4L57,54.4L57,54.4L57,54.4z
		 M57,54.7L57,54.7L57,54.7L57,54.7z M57.1,54.9L57.1,54.9L57.1,54.9L57.1,54.9L57.1,54.9z M57.5,53.3L57.5,53.3L57.5,53.3
		L57.5,53.3L57.5,53.3z M57.6,53.3L57.6,53.3L57.6,53.3L57.6,53.3L57.6,53.3z M57.6,53.3L57.6,53.3L57.6,53.3L57.6,53.3z"/>
</g>
<g class="st4">
	<path class="st2" d="M60.1,53.9L60.1,53.9L59.9,54l0,0l0,0l-0.3-0.4l-0.1-0.2l-0.1-0.1l-0.3-0.4l0-0.1l0,0l0,0L59,52.6l-0.1-0.2
		L58.6,52l-0.2-0.3l0-0.1l0,0l-0.1-0.1l0,0l0,0l0,0l0,0l0-0.1l0,0l0,0.1l0,0l-0.1-0.1l0,0l0,0l0-0.1l0,0l0,0l0.2-0.2l0.2-0.1l0.1,0
		l0.1-0.1l0.2-0.1l0.2-0.2l0.1,0l0,0l0.1,0l0.1,0.1l0,0l0,0.1l0,0l0.1,0.1l0,0l0,0.1l-0.1,0.1l-0.2,0.1l-0.1,0l-0.1,0.1l-0.1,0.1
		l0,0l0.1,0.1l0,0.1l0.1,0.2l0.1,0.2l0.1,0.2l0.2-0.2l0.1-0.1l0.1-0.1l0.2,0l0,0l0,0l0,0l0,0l0,0l0.1,0l0,0l0,0l0,0l0,0.1l0,0
		l-0.3,0.2l0,0l-0.1,0.1l-0.1,0.1l0.1,0.1l0.2,0.2l0.1,0.2l0.4,0.5l0.1-0.1l0.1-0.1l0.1,0l0.1-0.1l0.2-0.1l0.1-0.1l0.1,0l0.1,0l0,0
		l0.1,0.1l0,0.1l-0.2,0.2l0,0l0,0l-0.1,0.1l-0.1,0l0,0l-0.1,0.1l-0.1,0l0,0l-0.1,0.1l-0.1,0.1l0,0L60.1,53.9z M58.3,51.7L58.3,51.7
		L58.3,51.7L58.3,51.7z"/>
</g>
<g class="st4">
	<path class="st5" d="M14.3,35.6c1.4-0.6,2.9-1.1,4.4-1.4l0.4,1.1c-2,0.3-3.4,0.7-4.4,1.2c0.9,1.9,1.2,3.9,1.1,5.9l-1.1,0.1
		c0.2-1.9-0.1-3.6-0.8-5.4c-0.7-1.6-1.6-2.7-2.7-3.3l-2.4,4.6l-0.9-0.5l2.9-5.6l0.7,0.4C12.7,33.4,13.6,34.3,14.3,35.6z"/>
</g>
<g class="st4">
	<path class="st5" d="M17.7,27.5c1.7-0.9,3.2-1.5,4.6-1.9l0.2,1.2c-0.4,0.1-1.1,0.3-1.9,0.6c-0.8,0.3-1.5,0.6-2.1,0.9l3.9,4L21.6,33
		l-7-7.2l0.7-0.7L17.7,27.5z"/>
</g>
<g class="st4">
	<path class="st5" d="M31.7,19.6l0.4,0.9l-8.1,3.9l-0.4-0.9L31.7,19.6z"/>
</g>
<g class="st4">
	<path class="st5" d="M35,15.2c1.2,0.5,2.3,1,3.1,1.6l-0.8,1.1c-0.7-0.6-1.6-1.2-3-1.8L35,15.2z M41.9,16.2l1.1,0.4
		c-0.3,2-1,3.6-2.1,4.8c-1.1,1.2-2.8,2.1-5.1,2.8l-0.5-1c2.2-0.6,3.8-1.5,4.9-2.7C41.1,19.5,41.7,18,41.9,16.2z"/>
</g>
<g class="st4">
	<path class="st5" d="M50.8,20.6c0.9,1.2,1.7,2.5,2.5,3.9l-1,0.7c-0.8-1.8-1.5-3.2-2.2-4c-1.6,1.3-3.5,2.2-5.5,2.5l-0.4-1.1
		c1.9-0.2,3.5-0.9,5-2.1c1.4-1.1,2.2-2.2,2.5-3.5l-5.1-1.2l0.2-1l6.2,1.5l-0.2,0.8C52.5,18.5,51.8,19.6,50.8,20.6z M54.5,15.2
		L54.1,17l-0.9-0.2l0.4-1.8L54.5,15.2z M55.8,15.5l-0.4,1.8l-0.9-0.2l0.4-1.8L55.8,15.5z"/>
</g>
<g class="st4">
	<path class="st5" d="M65.2,25.4l-1.8,2c-0.6,0.7-1.4,1.1-2.3,1.3c-0.9,0.3-2,0.2-3.1-0.1l0.1-1.1c2,0.6,3.5,0.4,4.6-0.8l1.8-2
		L65.2,25.4z M63.1,20.8l6.4,5.8L69,27.2c-0.5,0.6-1.2,1-2,1.1c-1,0.3-2,0.3-2.9,0l-0.1-1c1.6,0.5,3,0.2,4.2-0.7l-5.6-5.1L63.1,20.8
		z"/>
</g>
<g class="st4">
	<path class="st5" d="M72.7,39.6L71.8,40l-3.9-8.1l0.9-0.4L72.7,39.6z"/>
</g>
<g class="st4">
	<path class="st5" d="M74.6,45.6c-0.4,1.9-0.9,3.4-1.5,4.7l-1.1-0.6c0.2-0.4,0.5-1,0.7-1.8c0.3-0.8,0.5-1.6,0.7-2.2L68,46.2l-0.1-1
		l10-0.8l0.1,1L74.6,45.6z"/>
</g>
</svg>
