<svg id="Calque_1" data-name="Calque 1" xmlns="http://www.w3.org/2000/svg" viewBox="0 0 319.39 156.41"><defs><style>.cls-1{opacity:0.2;}.cls-2{fill:none;stroke:#1d1d1b;stroke-miterlimit:10;stroke-width:0.25px;}.cls-3{fill:#010101;}.cls-4{fill:#fff;}</style></defs><title>logo_valhallapiercing</title><g class="cls-1"><ellipse class="cls-2" cx="84.62" cy="78.68" rx="15.04" ry="14.75"/><line class="cls-2" x1="164.21" y1="78.78" x2="4.5" y2="78.78"/><line class="cls-2" x1="84.62" y1="156.41" x2="84.62" y2="0.22"/><line class="cls-2" x1="141.38" y1="134.06" x2="28.3" y2="23.1"/><line class="cls-2" x1="28.16" y1="134.19" x2="141.37" y2="23.1"/><line class="cls-2" x1="16.07" y1="53.96" x2="16.07" y2="102.97"/><line class="cls-2" x1="4.26" y1="66.93" x2="16.07" y2="66.93"/><line class="cls-2" x1="4.26" y1="90.11" x2="16.07" y2="90.11"/><line class="cls-2" x1="2.47" y1="102.33" x2="15.69" y2="102.33"/><ellipse class="cls-2" cx="33.16" cy="27.82" rx="7.14" ry="7"/><line class="cls-2" x1="36.79" y1="41.27" x2="46.53" y2="31.71"/><path class="cls-2" d="M54.14,82.89" transform="translate(-0.76 -1.13)"/><path class="cls-2" d="M35.37,64.47" transform="translate(-0.76 -1.13)"/><polyline class="cls-2" points="14.77 35.56 32.55 52.93 58.58 27.85 40.55 10.24"/><polyline class="cls-2" points="73.02 0.22 73.02 11.43 96.48 11.43 96.48 0"/><line class="cls-2" x1="77.9" y1="24.41" x2="91.29" y2="24.41"/><line class="cls-2" x1="77.75" y1="31.12" x2="91.13" y2="31.12"/><line class="cls-2" x1="78.2" y1="17.92" x2="91.58" y2="17.92"/><polyline class="cls-2" points="133.01 14.83 124.43 23.25 141.19 39.24 149.62 30.98"/><path class="cls-2" d="M122.59,29.09s-4.33,15,15.31,15" transform="translate(-0.76 -1.13)"/><path class="cls-2" d="M104.34,45.55a11.56,11.56,0,0,1,16.11,0,11,11,0,0,1,0,15.82" transform="translate(-0.76 -1.13)"/><path class="cls-2" d="M112.14,68.73a11.18,11.18,0,1,1,0,22.36" transform="translate(-0.76 -1.13)"/><path class="cls-2" d="M148.64,68.73a11.18,11.18,0,1,0,0,22.36" transform="translate(-0.76 -1.13)"/><line class="cls-2" x1="129.75" y1="71.92" x2="129.75" y2="85.05"/><polyline class="cls-2" points="164.43 67.27 153 67.27 153 90.29 164.65 90.29"/><polyline class="cls-2" points="149.4 125.74 141.32 117.82 124.73 134.09 132.97 142.18"/><line class="cls-2" x1="128.52" y1="112.03" x2="119.06" y2="121.31"/><line class="cls-2" x1="123.79" y1="107.17" x2="114.33" y2="116.46"/><line class="cls-2" x1="132.99" y1="116.82" x2="123.52" y2="126.1"/><polyline class="cls-2" points="36.2 142.18 53.93 124.78 37.53 108.7 19.82 125.61"/><line class="cls-2" x1="28.94" y1="124.06" x2="38.54" y2="133.48"/><line class="cls-2" x1="45.47" y1="107.3" x2="55.07" y2="116.72"/><line class="cls-2" x1="35.08" y1="118.03" x2="44.68" y2="127.46"/><path class="cls-2" d="M72.63,109a12,12,0,0,1-16.72,0,11.45,11.45,0,0,1,0-16.41" transform="translate(-0.76 -1.13)"/><path class="cls-2" d="M51.43,62.7a11.53,11.53,0,0,1-.27-16.51A12.08,12.08,0,0,1,68,46.46" transform="translate(-0.76 -1.13)"/><polyline class="cls-2" points="60.98 156.41 60.98 132.63 107.88 132.63 107.88 156.41"/><polyline class="cls-2" points="72.91 150.61 72.91 139.06 96.25 139.06 96.25 150.61"/><line class="cls-2" x1="2.47" y1="54.66" x2="15.69" y2="54.66"/></g><path class="cls-3" d="M230.47,131.19l-9,5.65v11.33a1.21,1.21,0,0,1-2.41,0V124a1.21,1.21,0,0,1,1.22-1.16,1.11,1.11,0,0,1,.63.2l9.55,6.14a1.2,1.2,0,0,1,0,2.06Zm-9-5V134l6.12-3.85Z" transform="translate(-0.76 -1.13)"/><path class="cls-3" d="M244.89,142.12a1.31,1.31,0,0,1-.27.77l-4.79,6a1.23,1.23,0,0,1-1,.47,1.19,1.19,0,0,1-1.19-1.2V127.44L235,130.79a1.16,1.16,0,0,1-.93.47,1.25,1.25,0,0,1-1.22-1.23,1.28,1.28,0,0,1,.27-.76l4.82-6a1.18,1.18,0,0,1,1-.46,1.23,1.23,0,0,1,1.19,1.19v20.74l2.65-3.36a1.31,1.31,0,0,1,1-.47A1.22,1.22,0,0,1,244.89,142.12Z" transform="translate(-0.76 -1.13)"/><path class="cls-3" d="M247.14,137.27l8.06,10.14a1.15,1.15,0,0,1,.27.76,1.24,1.24,0,0,1-1.19,1.2,1.21,1.21,0,0,1-1-.47l-9.59-12.06a1,1,0,0,1-.3-.76,1.06,1.06,0,0,1,.3-.77l9.59-12.06a1.2,1.2,0,0,1,1-.46,1.23,1.23,0,0,1,1.19,1.19,1.18,1.18,0,0,1-.27.77l-8.06,10.13h7.14a1.2,1.2,0,0,1,0,2.39Z" transform="translate(-0.76 -1.13)"/><path class="cls-3" d="M260.63,136.48l8.73,10.93a1.36,1.36,0,0,1,.26.76,1.21,1.21,0,0,1-1.19,1.2,1.23,1.23,0,0,1-1-.47l-7.41-9.33v8.6a1.21,1.21,0,0,1-2.41,0V124a1.2,1.2,0,0,1,1.19-1.16,1.14,1.14,0,0,1,.66.2l9.56,6.14a1.21,1.21,0,0,1,0,2.06Zm-.57-10.3V134l6.12-3.85Z" transform="translate(-0.76 -1.13)"/><path class="cls-3" d="M271,136.08l9,11.33a1.15,1.15,0,0,1,.27.76,1.24,1.24,0,0,1-1.19,1.2,1.21,1.21,0,0,1-1-.47l-9.59-12.06a1,1,0,0,1-.3-.76,1.06,1.06,0,0,1,.3-.77l9.59-12.06a1.2,1.2,0,0,1,1-.46,1.23,1.23,0,0,1,1.19,1.19,1.18,1.18,0,0,1-.27.77Z" transform="translate(-0.76 -1.13)"/><path class="cls-3" d="M291.11,142.12a1.37,1.37,0,0,1-.26.77l-4.8,6a1.2,1.2,0,0,1-2.15-.73V127.44l-2.67,3.35a1.18,1.18,0,0,1-.93.47,1.25,1.25,0,0,1-1.22-1.23,1.34,1.34,0,0,1,.26-.76l4.83-6a1.16,1.16,0,0,1,1-.46,1.23,1.23,0,0,1,1.19,1.19v20.74l2.64-3.36a1.35,1.35,0,0,1,1-.47A1.22,1.22,0,0,1,291.11,142.12Z" transform="translate(-0.76 -1.13)"/><path class="cls-3" d="M305.33,148.17a1.19,1.19,0,0,1-1.19,1.2,1.15,1.15,0,0,1-.92-.47l-7.41-9.3v8.57a1.21,1.21,0,0,1-2.42,0V124a1.2,1.2,0,0,1,2.15-.77l7.41,9.47v-8.54a1.19,1.19,0,0,1,2.38,0Zm-9.52-20.73v8.31l7.14,9v-8.14Z" transform="translate(-0.76 -1.13)"/><path class="cls-3" d="M320.15,148.17a1.24,1.24,0,0,1-1.2,1.2,1.21,1.21,0,0,1-.95-.47l-9.59-12.06a1,1,0,0,1-.3-.76,1.06,1.06,0,0,1,.3-.77L318,123.25a1.2,1.2,0,0,1,.95-.46,1.24,1.24,0,0,1,1.2,1.19,1.18,1.18,0,0,1-.27.77l-9,11.33,6.88,8.64v-8.64a1.21,1.21,0,0,1,2.42,0Z" transform="translate(-0.76 -1.13)"/><path d="M57,109.78l-.11.11c-.4.58-.82,1.17-1.27,1.77s-.91,1.22-1.38,1.87a.8.8,0,0,1-.13.19.67.67,0,0,0-.14.19c-1.15,1.55-2.23,2.94-3.24,4.15s-1.71,1.84-2.11,1.87h-.08a.15.15,0,0,1-.08-.05.28.28,0,0,0-.11-.08l-.1-.08a.05.05,0,0,1-.06-.06.61.61,0,0,1-.27-.16,1.59,1.59,0,0,1-.21-.27L46.15,116,32.7,88.23a2.24,2.24,0,0,1-.22-.38c-.07-.14-.14-.29-.22-.43a11,11,0,0,0-.94-1.58,2.63,2.63,0,0,0-1.49-1,.19.19,0,0,1-.1,0l-.11,0H29.4a1.29,1.29,0,0,0-.4.06l-.41.1a4.34,4.34,0,0,0-.62.28l-.57.32c-.43.26-.83.47-1.19.65s-.61.17-.75,0c0,0-.06-.06-.06-.08V86c0-.22.17-.48.62-.79s1-.63,1.54-1a1.31,1.31,0,0,1,.27-.19l.33-.19.4-.3.36-.24.78-.66c.27-.21.53-.43.78-.65.83-.68,1.63-1.33,2.41-1.92a3.63,3.63,0,0,1,2.18-.9h.06a2.72,2.72,0,0,1,2.32,1.2A17.94,17.94,0,0,1,39,83a.1.1,0,0,0,0,.08.19.19,0,0,1,0,.08l.54,1L52.9,112q1.24-1.68,2.22-3.12c.65-1,1.24-1.89,1.78-2.8.22-.32.41-.64.6-1s.35-.6.54-.89c.39-.73.81-1.47,1.24-2.23s.88-1.59,1.35-2.5c.76-1.41,1.43-2.71,2-3.91s1.14-2.37,1.64-3.52c.33-.65.62-1.32.89-2S65.74,88.7,66,88s.58-1.48.87-2.27.59-1.65.91-2.56l-13.29-.65,5.19-3a.63.63,0,0,0,.22,0,.42.42,0,0,1,.21-.06,2.85,2.85,0,0,1,.43-.16l.44-.11A1.9,1.9,0,0,1,61.6,79h.49a1.1,1.1,0,0,1,.4,0,2.24,2.24,0,0,0,.35,0h.44l11,0Q73.76,80.36,71,86.2t-6.7,12.51q-1.72,2.92-3.54,5.78T57,109.84Z" transform="translate(-0.76 -1.13)"/><path d="M52.59,125.77v.11c.57-.48,1.08-.92,1.51-1.33s.85-.85,1.24-1.28.58-.59.87-.9.56-.6.81-.89c.4-.47.77-1,1.13-1.44l1.19-1.6a13.46,13.46,0,0,0,.92-1.22c.25-.38.49-.75.7-1.12l.11-.21a1,1,0,0,1,.16-.22l1-1.76,1.49-2.64,4-6.89H64.31l4.86-2.28L80.3,82.94q-.7,0-1.29,0c-.4,0-.8,0-1.19-.08H75.5c-.51,0-1,0-1.38,0L72.9,83a8.53,8.53,0,0,0-1.11.08c-.37.06-.78.1-1.21.14l.49-.49c.14-.14.28-.29.43-.43s.37-.36.56-.52a7.26,7.26,0,0,1,.63-.46l.56-.35c.2-.13.43-.27.68-.41s.68-.41,1-.57.58-.32.87-.46A5.85,5.85,0,0,1,77.41,79,15,15,0,0,1,80,78.81l7.35.06L91.05,86l14.21,27.8H110c.33,0,.62,0,.87,0h.76c.21,0,.44-.06.67-.08l.73-.08.59-.11c.18,0,.38-.09.6-.16l.54-.14.59-.19a10.72,10.72,0,0,1-1.4,1.38,19.36,19.36,0,0,1-1.57,1.17,18.19,18.19,0,0,1-2.19,1.28l-1.7.84a5.36,5.36,0,0,1-1.65.38c-.7.07-1.46.11-2.29.11h-.6q-.91,0-1.83-.06c-.62,0-1.16-.07-1.62-.11s-.8-.07-1.08-.1l-.49-.06-7.24-13.68L71.77,104l-6,9.61a11.64,11.64,0,0,1-.67,1.11l-.73,1.06a25.33,25.33,0,0,1-1.68,2.06c-.61.69-1.29,1.39-2.05,2.12-.5.47-1,.9-1.43,1.3s-.89.78-1.32,1.14-1,.84-1.57,1.22-1.13.75-1.78,1.12c-.29.14-.6.3-.92.48s-.67.37-1,.55Zm37.55-24.65L82.63,86.79l-8.92,14.28Z" transform="translate(-0.76 -1.13)"/><path d="M111.73,98.44l-.22-27.8h-6.8l3.83-2.93.22-.11a.73.73,0,0,0,.21-.16,2.32,2.32,0,0,0,.3-.22,1,1,0,0,1,.35-.16A1,1,0,0,1,110,67H111l7.89.22L119,86.82l.17,27.79,9.72.6c.68.07,1.3.12,1.84.14s1.06,0,1.56,0a11.36,11.36,0,0,0,1.65,0c.56,0,1.18-.09,1.87-.16a9.66,9.66,0,0,0,2-.35,9.3,9.3,0,0,0,1.4-.57l.76-.44.86-.48.38.32c-.29.29-.7.65-1.24,1.09s-1.15.88-1.84,1.35c-.39.26-.82.52-1.27.79a13.94,13.94,0,0,1-1.37.73,15,15,0,0,1-2.25.93,14.49,14.49,0,0,1-2.08.48,15.41,15.41,0,0,1-3,.28H125l-13.08-.22Z" transform="translate(-0.76 -1.13)"/><path d="M137.14,98.38V70.59l-9.56-.33,5.78-3.74h11.29v17l3.24-1.41a5.29,5.29,0,0,0,.76-.27,5.29,5.29,0,0,1,.76-.27,57.54,57.54,0,0,1,6-2.17,19.43,19.43,0,0,1,4.92-.92h.05a7.1,7.1,0,0,1,3.06,1A20.75,20.75,0,0,1,167.24,82a29.49,29.49,0,0,1,5.56,6.27,16.21,16.21,0,0,1,2.86,7.85v.21a.43.43,0,0,0,.06.22v1a2.44,2.44,0,0,1-.06.52,17.16,17.16,0,0,1-1.45,5.72,37,37,0,0,1-2.65,5c-.69,1-1.34,2-2,2.74s-1.15,1.37-1.54,1.77L161,120.37l-.62.62c-.24.24-.48.46-.73.68a1.6,1.6,0,0,1-.22.27.73.73,0,0,1-.21.16,17.85,17.85,0,0,1-1.44,1.31,2,2,0,0,1-1.05.54.41.41,0,0,1-.19,0,.45.45,0,0,1-.13-.17c-.08-.21.14-.61.64-1.19l1.68-1.9a.18.18,0,0,1,.05-.11.15.15,0,0,1,.11,0,6.81,6.81,0,0,1,.57-.71c.2-.22.39-.43.57-.65l1.56-1.9a27.85,27.85,0,0,0,4.87-8.28,28.93,28.93,0,0,0,1.67-8.71V99.9a14,14,0,0,0-1.86-7,26.09,26.09,0,0,0-4.08-5.53,15,15,0,0,0-1.87-1.68,19,19,0,0,0-1.7-1.15l-3.4-2a1.44,1.44,0,0,1-.35-.08l-.57-.19-.84-.22c-.3-.07-.6-.12-.89-.16H152a.54.54,0,0,0-.22.05l-.22,0a.76.76,0,0,1-.21,0,8.76,8.76,0,0,0-4.51,2.68,8.27,8.27,0,0,0-2.35,4.65,1,1,0,0,0-.06.35v26.79l-7.24,2.71Z" transform="translate(-0.76 -1.13)"/><path d="M159.4,126.61v.11c.58-.47,1.08-.92,1.52-1.33s.84-.84,1.24-1.28.58-.59.86-.89.56-.61.81-.9q.6-.7,1.14-1.44c.36-.49.75-1,1.19-1.6s.66-.84.92-1.22.48-.75.7-1.11a2.26,2.26,0,0,1,.11-.22.93.93,0,0,1,.16-.22c.29-.5.62-1.09,1-1.76l1.48-2.63,4-6.9h-3.4l4.86-2.28,11.13-19.16c-.47,0-.9,0-1.3,0s-.79,0-1.19-.08h-2.32q-.75,0-1.38.06l-1.21.1a7.11,7.11,0,0,0-1.11.09c-.38,0-.78.1-1.22.13.18-.18.35-.34.49-.49l.43-.43c.18-.18.37-.35.57-.52s.41-.31.62-.46l.57-.35.67-.41,1-.57c.28-.16.57-.31.86-.46a6.27,6.27,0,0,1,1.65-.54,15.16,15.16,0,0,1,2.57-.16l7.34,0,3.73,7.16,14.21,27.8h4.7c.32,0,.61,0,.86,0h.76l.68-.08c.23,0,.47,0,.73-.08l.59-.11a4,4,0,0,0,.59-.16,5.36,5.36,0,0,0,.54-.14c.18-.05.38-.11.6-.19a10.89,10.89,0,0,1-1.41,1.39c-.5.41-1,.8-1.56,1.16a18.4,18.4,0,0,1-2.19,1.28l-1.7.84a5.43,5.43,0,0,1-1.65.38c-.7.07-1.47.11-2.3.11h-.59c-.61,0-1.23,0-1.84-.06l-1.62-.1-1.08-.11-.49-.06-7.23-13.68-19.89-.27-5.94,9.61a11.67,11.67,0,0,1-.68,1.11c-.23.35-.47.7-.72,1.06-.51.69-1.07,1.38-1.68,2.06s-1.3,1.4-2.05,2.12c-.51.47-1,.91-1.43,1.3s-.9.78-1.33,1.14a18.31,18.31,0,0,1-1.56,1.23,19.72,19.72,0,0,1-1.79,1.11c-.29.14-.59.31-.92.49s-.66.36-1,.54ZM197,102l-7.51-14.34-8.91,14.28Z" transform="translate(-0.76 -1.13)"/><path d="M216.87,98.44l-.22-27.8h-6.81l3.84-2.93.22-.11a.73.73,0,0,0,.21-.16,2.32,2.32,0,0,0,.3-.22,1,1,0,0,1,.35-.16.93.93,0,0,1,.41-.11h.94l7.89.22.16,19.65.16,27.79,9.73.6c.68.07,1.29.12,1.84.14s1.06,0,1.56,0a11.36,11.36,0,0,0,1.65,0c.56,0,1.18-.09,1.86-.16a9.65,9.65,0,0,0,2.06-.35,9.3,9.3,0,0,0,1.4-.57l.76-.44.86-.48.38.32c-.29.29-.7.65-1.24,1.09s-1.16.88-1.84,1.35c-.4.26-.82.52-1.27.79a13,13,0,0,1-1.38.73,14.88,14.88,0,0,1-2.24.93,14.49,14.49,0,0,1-2.08.48,15.41,15.41,0,0,1-3,.28h-3.3L217,119.12Z" transform="translate(-0.76 -1.13)"/><path d="M241.72,98.44l-.22-27.8h-6.81l3.84-2.93.22-.11a.73.73,0,0,0,.21-.16,2.32,2.32,0,0,0,.3-.22,1,1,0,0,1,.35-.16A.93.93,0,0,1,240,67H241l7.89.22L249,86.82l.16,27.79,9.73.6c.68.07,1.3.12,1.84.14s1.06,0,1.56,0a11.36,11.36,0,0,0,1.65,0c.56,0,1.18-.09,1.86-.16a9.65,9.65,0,0,0,2.06-.35,9.3,9.3,0,0,0,1.4-.57l.76-.44.86-.48.38.32c-.29.29-.7.65-1.24,1.09s-1.15.88-1.84,1.35c-.4.26-.82.52-1.27.79a13,13,0,0,1-1.38.73,14.88,14.88,0,0,1-2.24.93,14.49,14.49,0,0,1-2.08.48,15.41,15.41,0,0,1-3,.28H255l-13.07-.22Z" transform="translate(-0.76 -1.13)"/><path d="M257.42,126.61v.11c.58-.47,1.08-.92,1.51-1.33s.85-.84,1.25-1.28l.86-.89q.43-.47.81-.9c.4-.47.77-.95,1.13-1.44l1.19-1.6a13.46,13.46,0,0,0,.92-1.22c.25-.38.49-.75.7-1.11a2.26,2.26,0,0,0,.11-.22,1.34,1.34,0,0,1,.16-.22c.29-.5.63-1.09,1-1.76l1.49-2.63,4-6.9h-3.41l4.87-2.28,11.13-19.16c-.47,0-.9,0-1.3,0s-.79,0-1.19-.08h-2.32q-.76,0-1.38.06l-1.22.1a6.89,6.89,0,0,0-1.1.09c-.38,0-.79.1-1.22.13l.49-.49.43-.43c.18-.18.37-.35.57-.52a7.67,7.67,0,0,1,.62-.46l.57-.35c.19-.13.42-.26.67-.41l1-.57.87-.46a6.15,6.15,0,0,1,1.65-.54,15,15,0,0,1,2.56-.16l7.35,0,3.73,7.16,14.21,27.8h4.7c.32,0,.61,0,.86,0h.76l.67-.08c.24,0,.48,0,.73-.08l.6-.11a4.42,4.42,0,0,0,.59-.16,5.36,5.36,0,0,0,.54-.14c.18-.05.38-.11.6-.19a12.32,12.32,0,0,1-1.41,1.39c-.5.41-1,.8-1.57,1.16a17.56,17.56,0,0,1-2.18,1.28l-1.71.84a5.29,5.29,0,0,1-1.64.38c-.71.07-1.47.11-2.3.11h-.59c-.62,0-1.23,0-1.84-.06l-1.62-.1-1.08-.11-.49-.06-7.24-13.68-19.88-.27-5.94,9.61a11.67,11.67,0,0,1-.68,1.11c-.23.35-.48.7-.73,1.06a25.56,25.56,0,0,1-1.67,2.06c-.62.69-1.3,1.4-2.06,2.12-.5.47-1,.91-1.43,1.3s-.89.78-1.32,1.14-1,.85-1.57,1.23a19.51,19.51,0,0,1-1.78,1.11c-.29.14-.6.31-.92.49s-.67.36-1,.54ZM295,102l-7.51-14.34-8.92,14.28Z" transform="translate(-0.76 -1.13)"/><path d="M.76,59.62c.53,1.3,1.55,1.27,2.45,1.24,5.2-.19,10.39-.35,15.58-.7,2.91-.19,5.79-.73,8.69-1.11a1.6,1.6,0,0,1,.87.08,12.77,12.77,0,0,1-1,.92C23.75,62.7,20.16,65.33,16.58,68c-.82.61-1.6,1.26-2.41,1.89.71,1,1.41,2,2.11,3a10.5,10.5,0,0,0,1.24-.26l11.14-4.07a.37.37,0,0,1,.4.06l-.79.64L19,76.16a1.46,1.46,0,0,0-.21.28l3,4.14c1.89-.7,3.79-1.35,5.66-2.09,3-1.18,5.92-2.41,8.88-3.61,6.39-2.61,12.79-5.2,19.19-7.82A6.05,6.05,0,0,1,59.37,67a1.41,1.41,0,0,1,.71,1,6.31,6.31,0,0,0,1.32,2.62,19.71,19.71,0,0,1,2.19,4c.64,1.61,1.24,3.24,1.82,4.87.38,0,.75,0,1.13,0-.4-1.3-.79-2.57-1.16-3.84,0-.16.11-.39.21-.7.28.88.48,1.52.69,2.17l.9.22-.82,1.08,1.13-.08-.69,1h1l0,.14c.6,0,1.21.07,1.82.15-1.37-2.93-2.82-5.82-4.23-8.73-.16-.33-.33-.66-.46-1a1.29,1.29,0,0,1,.92-1.77l.86-.21a1,1,0,0,1,.72,0c.24.12.48.36.72.36,1.52,0,3.05-.11,4.77-.18l-3.11,1.64.06.19,4.92-.71,0,.12-2.12.92.12.36c1.93,0,3.71-1.06,5.75-1L75.7,72l0,.22c.93-.27,1.86-.52,2.78-.82.4-.13.74-.26,1,.24,1.3,2.8,2.62,5.6,3.92,8.41h0a25.58,25.58,0,0,1,4.1,0h0c-1.78-3.28-3.52-6.57-5.27-9.86a2.49,2.49,0,0,1-.11-.4L87,67.26l.07.11-3.55,2.36.26.43,6.42-2.53a1,1,0,0,0,.08.14L86,70.71a4,4,0,0,0,.72-.13C92.45,68,98,65.11,102.88,61a82.58,82.58,0,0,0,6-6.12A7,7,0,0,1,112,52.54a2.58,2.58,0,0,0,1.14-.69c.56-.57,1.34-.42,1.9-.46,1.12-.07,1.14.13,2-.38-.15.25-.22.4-.3.54l-.25.44.18.26c.61-.46,1.24-.87,1.81-1.38s1.14-1.15,1.71-1.72l.21.09c-.21.52-.44,1-.62,1.55a2.72,2.72,0,0,0-.06.7c.19-.07.44-.08.58-.21a41.62,41.62,0,0,1,3.57-3.13L122,51.33a3.66,3.66,0,0,0,2.3-1.13l1.56-1.53,2.21.63,1.55-2.2c0,.46,0,.78,0,1.09l.23.09c.52-1.18,1-2.35,1.57-3.52l.18,0-.84,3.51.29.11q1-2.28,2-4.57l.17,0c0,1.16-.09,2.32-.14,3.48l.24.08c1-2,1.68-4.13,3.06-6.13-.14.88-.24,1.59-.35,2.3l.27.15c.66-.9,1.33-1.8,2.05-2.79l.46.26,2.33-3.84-.17-.1,1.38-.45-.36-.62c1.26-.53,2.32.14,3.43.45l6.86,1.93a5.23,5.23,0,0,0,.69.12l.17-.23a6,6,0,0,0-1-.85c-2.36-1.38-4.76-2.69-7.11-4.1a14.79,14.79,0,0,1-2.76-2.1c-1-1-.94-1.62.19-2.48a14.2,14.2,0,0,1,8.3-2.87,7.19,7.19,0,0,1,5.41,1.84c.35.32.64.7,1.08,1.18a2.74,2.74,0,0,0-.44-2.54c-1.72-3.15-4.51-4.06-7.82-4a14,14,0,0,1-3.37-.4l.55-.28,0-.15c-1.32,0-2.65,0-4,0A6.4,6.4,0,0,1,138.8,21c-2.39-1.31-4.83-2.53-7.26-3.78-.33-.17-.69-.29-1-.44l-2.65-.42c-1.81.26-3.64.48-5.15,1.7-1.17.95-2.31,1.94-3.54,2.79A8.36,8.36,0,0,1,112,22.33c-1.56-.43-3-1.16-4.57-1.71a14.72,14.72,0,0,0-1.86-.42l-6,4.49,4.13,2.53-.38-.63a4.85,4.85,0,0,1,3.13,6,12.41,12.41,0,0,0-.56-2A7.44,7.44,0,0,0,104.78,29a11.54,11.54,0,0,0-1.44-1.36,2,2,0,0,0-.84-.37,11.31,11.31,0,0,1-1.17-.13,18,18,0,0,1-1.74-.73l.16-.57a3.21,3.21,0,0,0-1.12-.16,5.42,5.42,0,0,1-3.7-.69,12.6,12.6,0,0,0-5.13-.83L85.63,24a17.34,17.34,0,0,1,6.48-.52l3.87.26-2.43-3.42a4.12,4.12,0,0,0-.92-.07,64.07,64.07,0,0,0-11.71,2.91c-3,1-6,2.17-9.08,3.17-2.73.91-5.49,1.72-8.26,2.5a80.31,80.31,0,0,0-13,5.23c-.67.33-1.32.7-2,1a20.45,20.45,0,0,0-3.85,2.75,36,36,0,0,1-7.14,4.27c-7.29,3.27-14.56,6.59-21.78,10C10.91,54.45,6.07,57,1.19,59.45,1.05,59.52.91,59.56.76,59.62Zm152-35.73a4.32,4.32,0,0,1,3.48,3.19C155,26,153.4,25.49,152.75,23.89ZM51.56,38.72c-1,1.35-30.52,13.18-32,12.93.24-.13.45-.25.66-.35L40.66,42a23.54,23.54,0,0,1,3.09-1.38c2.33-.65,4.7-1.15,7-1.71C51,38.81,51.18,38.79,51.56,38.72ZM38.66,49.51l.09.28L32.33,52l-.08-.28ZM49,46.66l.68,0C48,47.89,46.48,49,44.94,50c-.08.06-.26,0-.4-.05l-.64-.13C46,48.18,48,46.64,50,45.13a2.5,2.5,0,0,1,.79-.23l.13.23Zm6.35-5A117,117,0,0,0,73.27,36c1.4-.58,2.81-1.1,4.21-1.65l.12.27A115.74,115.74,0,0,1,51,43a1.16,1.16,0,0,1,.65-.61C52.92,42.14,54.17,42,55.39,41.67Zm.52,5.57.09.32c-.52.37-1,.78-1.58,1.12-2.11,1.29-4.22,2.6-6.37,3.84-3,1.72-6.08,3.16-8.69,5.56-1.26,1.15-3,1.7-4.6,2.53l-.15-.22c2.35-1.55,4.67-3.13,7-4.63q6.6-4.2,13.23-8.32A2.87,2.87,0,0,1,55.91,47.24Zm6.46-17.13L57,31.89l-.08-.27,5.39-1.8Zm5.19,2.55c-1.84,1.31-4.09,1.72-6,2.86l-.15-.34,5.95-2.93Zm3.21-.57.12.29A65.15,65.15,0,0,1,62.25,36l-.1-.27ZM76,29.94l-6.15,2.14a13,13,0,0,1,6-2.46C75.92,29.73,76,29.84,76,29.94Zm.38,2.82a5.36,5.36,0,0,1-.9.56q-7.38,2.73-14.79,5.42c-1,.37-2,.7-3.07,1l-.1-.31,18.63-7.15Zm.16.91,2.55-.91.15.39-2.61.79Zm.94-5.13L80,27.85l.11.41-2.54.54Zm9.39,18.78c0,.76-1.38,2.14-2.56,2.48C84.28,49,85.68,47.67,86.86,47.32Zm-.67-3.09-.19-.3,2.45-1.54.19.33Zm-1-21.09c.66-.23,1.21-1.2,2.23-.21Zm2.23,14.78c-.51,1.1-1.76.68-2.61,1.52A2.21,2.21,0,0,1,87.38,37.92Zm4.44-11.13c0,.15-.37.5-.63.63-1.11.54-1.85-.12-2.56-.84v-.34A20,20,0,0,1,91.19,26C91.42,26,91.75,26.47,91.82,26.79Zm2,2c-.84.2-1.67.43-2.51.58-.2,0-.64-.19-.64-.3a1.24,1.24,0,0,1,.29-.9A2.2,2.2,0,0,1,93.8,28.76Zm.84,1.5a7.67,7.67,0,0,1-1.73.74c-.27,0-.64-.35-.93-.59-.06-.05,0-.36,0-.45A2.59,2.59,0,0,1,94.64,30.26Zm-2.06,1.88a8.87,8.87,0,0,1,1.28-.32,2.25,2.25,0,0,1,.08.24l-1.41,1C92.55,32.59,92.49,32.18,92.58,32.14ZM95,33.28a2.33,2.33,0,0,1-.79.89c-.79.58-.94.51-1.17-.71Zm.41,1.39L94.14,37c-.17-.73-.28-1.2-.41-1.78l1.36-.8Zm-.53,10.14L93.1,46.65A1.93,1.93,0,0,1,94.83,44.81Zm1.74-6.05c.69-1.07,1.38-2.11,2.14-3.27C99.84,37,99,38.08,96.57,38.76ZM102,32.51a6.17,6.17,0,0,1-1.79-.64c-.23-.17-.11-.84-.16-1.29C101.26,30.54,101.89,31.15,102,32.51Zm0,2.82L99.6,34.15c.12-.44.25-.93.42-1.52C101,33.41,101.83,34,102,35.33ZM100.65,37l.74.25c0,.09,0,.17,0,.25l-1.49.69c-.07-1.16-.13-2.09-.19-3.11l.59.24c1.47.6,1.47.6.33,1.54C100.65,36.92,100.66,37,100.65,37Zm2.78.77c-.2.6-.39,1.2-.53,1.61l-2.55.06,2.85-1.93Zm-1.11,5.83a.68.68,0,0,1,.62,0c.64.37.6.75-.13,1.68-.19-.39-.39-.72-.52-1.07C102.23,44,102.22,43.7,102.32,43.64Zm3.92-4.43c-.12.83-.22,1.48-.31,2l-1.7.77c-.12-.39-.22-.72-.36-1.16L102.49,42c.06-1.48.11-1.53,1.34-1.78a4.84,4.84,0,0,0,.89-.35C105.2,39.7,105.67,39.48,106.24,39.21Zm.71,3.47c.55.89.3,1.5-.7,1.7.11-.34.22-.67.36-1.08L105.48,43l.81-1.26C106.55,42.1,106.77,42.37,107,42.68Zm1.4-10.63c-.49.46-.76.83-.31,1.4.13.16,0,.55,0,.83l-.4,0c-.12-.95-.24-1.9-.37-2.85l.32-.11ZM109.89,37l-3,.67c.16-.94.47-1.52,1.29-1.5C108.82,36.17,109.57,35.92,109.89,37ZM109,44.18l1.62-1C110.9,44,110.72,44.09,109,44.18Zm11-8.35c.28-.11.62-.07.83-.22s.26-.49.35-.7l2.16-1.17A3.14,3.14,0,0,1,120,35.83Zm2,1.75c0,.08.07.16.1.25a4.54,4.54,0,0,1-3,1l-.09-.3ZM128.6,34c-1,1-2.08,2-3.65,1.83A5.74,5.74,0,0,1,128.6,34Zm-3.42-1.48a8.72,8.72,0,0,1,4.93-1.61C129.49,31.94,126.7,32.87,125.18,32.55Zm.14,5.87-2.43,1.31-.21-.41L125.1,38C125.17,38.13,125.25,38.27,125.32,38.42Zm-1.24-6.65.09.32-3.42,1.14-.08-.26A4.67,4.67,0,0,1,124.08,31.77Zm.11-2.17a4.2,4.2,0,0,1,3.36-.64C126.73,29.67,126.73,29.67,124.19,29.6Zm.78-1.19a2.72,2.72,0,0,1,3.45-.06Zm3-3.2a13.25,13.25,0,0,1,3,.7c0,.11,0,.22,0,.33-1.65.35-3,1.75-5.16,1l1.75-.82-2.36-.37A7.18,7.18,0,0,1,127.93,25.21Zm10.17-4.06c0,.08-.07.15-.1.22a3.56,3.56,0,0,1-.57-.09c-1.22-.44-2.42-1-3.67-1.3a4.35,4.35,0,0,0-2.15,0c-.58.15-1,.76-1.58,1.08s-.48.49-.28.95a9.35,9.35,0,0,1,.34,1.55l-1.7-.27-.5-1.34a5.2,5.2,0,0,0,.35-1.41,1.53,1.53,0,0,1,1.18-1.7,5.76,5.76,0,0,1,4.41.17C135.27,19.66,136.68,20.42,138.1,21.15Zm5.11,1.41c-.35.59-.93.62-1.67.42s-1.81-.3-2.71-.45l0-.36ZM137.33,31a1.49,1.49,0,0,1,.52.07l8.34,4.13,4.08,2c0,.09-.07.19-.11.28-.41-.13-.84-.22-1.24-.39-3.24-1.38-6.47-2.75-9.68-4.19a7.75,7.75,0,0,1-1.78-1.32C137.33,31.54,137.37,31.25,137.33,31Zm-1-3.62c3.79-1.63,7.66-2.82,11.64-2.55-2.17.59-4.55,1.15-6.87,1.9a18,18,0,0,0-3,1.59c-.41.24-.71.34-.63-.34l.88-.22,0-.17-1.95.09Zm-4.84-3.08a1,1,0,0,1,.68.35,1.93,1.93,0,0,0,3.05.35l-.94,0,.65-1.48.57,1,.31-.1c-.43-.67-.85-1.35-1.26-2,.84.21,1.77,1.26,1.65,2-.14.92-.87,1.22-1.65,1.44C133.07,26.33,132.27,25.31,131.48,24.34Zm-3,12a3.73,3.73,0,0,1,3.16-1.87A3.47,3.47,0,0,1,128.44,36.37Zm-2.15,3.72a2.65,2.65,0,0,1,3.22-1.75Zm-2.44,3a4.12,4.12,0,0,1,2.68-1.53l.14.28L124,43.38Zm-3.53.06,2.4-1.33.19.38-2.42,1.3C120.43,43.41,120.38,43.29,120.32,43.18Zm-2.92-1.51c1-.84,2-1.67,3.35-1.67A2.37,2.37,0,0,1,117.4,41.67Zm.16-10.45,2.74-1.36.22.48-2.85,1.17Zm1.18-3.43-.23-.35c.72-.23.76-1.5,2.19-1Zm-1.19-1.71,2.61-.67c0,.13.06.26.1.39l-2.6.68C117.63,26.34,117.59,26.21,117.55,26.08Zm-1.2,7.42c-.92.72-3.9.33-4.82-.76Zm-3.46,11.3c1.13-.89,2.57-1.42,3.15-1L113,45ZM111,33.23l2.86.91C112.52,34.57,111.78,33.86,111,33.23ZM108.91,48a12.77,12.77,0,0,1,2.31-1.69c.25-.14.63-.05,1-.06a2.44,2.44,0,0,0,0,.27Zm-1.33-9.65,1.7-.27C108.91,39,108.72,39,107.58,38.31Zm-.24,7.89-.92,2-.19-.09a7.18,7.18,0,0,0-.12-.81C105.83,46.29,106.13,46,107.34,46.2Zm-2.73,3.95,1.26-1.63C106,49.57,105.68,50.05,104.61,50.15Zm-1.83-3.42a.84.84,0,0,1,.17.05s.12.08.12.12c0,1.18.56,1,1.32.69.11-.06.37.2.56.32-.08.13-.15.26-.24.38l-1,1.39c-.1-.29-.18-.51-.28-.82l-1.26.8A3,3,0,0,1,102.78,46.73Zm-2.58.9c-.21-1.4.62-1.93,1.61-2.37C102,46.11,101.5,46.89,100.2,47.63Zm-.14-5.27c-.09,0-.15-.36-.14-.55,0-1.17.73-1.64,2-1.28-.42.6-.8,1.19-1.25,1.72A.71.71,0,0,1,100.06,42.36Zm-.17,6.33c-.87.74-.61,2.37-2,2.76C97.54,50.21,98,49.62,99.89,48.69Zm-3.73-7.23-.27-.33,2.37-1.79C98,40.62,97,41,96.16,41.46ZM94.91,51.88l.91-1.65C96.67,50.88,96.59,51.36,94.91,51.88ZM95,45.37c.46-.66.06-1.87,1.52-1.88-.42.68-.85,1.36-1.27,2Zm-.28,2.52-2,.39a1.46,1.46,0,0,1,1.52-1C94.39,47.3,94.56,47.65,94.76,47.89Zm-1,4.76.37.14c-.36,1-.71,2-1.07,3l-.41-.15C92.42,54.41,93.56,53.71,93.81,52.65ZM92.13,50a9.47,9.47,0,0,1,1.4-1l.26.21A10.17,10.17,0,0,1,93,50.67c-.17.21-.6.19-.91.28C92.06,50.61,92,50.15,92.13,50ZM90.38,53.9a6.79,6.79,0,0,1,1-1.18c.69,1.15.66,1.83-.08,2.19-.21.1-.65.08-.74-.06A1.19,1.19,0,0,1,90.38,53.9Zm-.95-1.66,1.77-1.61C90.85,52.32,90.5,52.66,89.43,52.24Zm-.19-3.61-1.35-.21-.06-.21,1.44-.89C89.26,47.7,89.25,48.13,89.24,48.63Zm-2,9.22a1.5,1.5,0,0,1,1.53-1.76C89,57.1,88.45,57.77,87.24,57.85Zm-.93-3.8c.14-1.27,1.28-1.31,1.76-2.19C88.21,53.3,87.36,53.64,86.31,54.05ZM85,50.86c.93-.71,1.86-.51,2.7-.68l.29.46a3.85,3.85,0,0,1-.89.29C86.44,51,85.81,50.89,85,50.86Zm-1.54,3.72a5.43,5.43,0,0,1,1.43-1.18c.06,1,.34,2.14-1.17,2.68C83.56,55.51,83.24,54.88,83.42,54.58Zm-2-30.4c-.87.31-1.71.67-2.57,1a7.5,7.5,0,0,1,5.28-1.93C83.13,23.6,82.27,23.86,81.42,24.18ZM70.58,46.72l9.71-2.95A19.84,19.84,0,0,1,70.58,46.72Zm-1.2-2,4.29-1.27,0-.16-1.14.19,0-.13,9.46-3.23.12.36c-3.78,2.72-8.26,3.37-12.58,4.5Zm-3-1.59c.26-.11.47-.21.69-.29,2.32-.9,4.66-1.77,7-2.71s4.75-2,7.14-3a4.42,4.42,0,0,1,1-.13C81.32,38.89,69.07,43.57,66.38,43.08ZM60.55,46.8l4.46,0v.39l-4.47,0ZM56.18,43a215.82,215.82,0,0,0,23.18-7.08C71.88,39.14,64.3,42,56.18,43Zm3,5.14.12.29-3,1.29c0-.08-.06-.15-.08-.22A8.89,8.89,0,0,1,59.18,48.16ZM43.74,60.1,59,52l.1.21a125.92,125.92,0,0,1-15.24,8.14ZM42,59.45a138.62,138.62,0,0,1,17.58-9l.21.41c-1.21.57-2.4,1.17-3.62,1.71-1.71.78-3.47,1.44-5.15,2.29-2.72,1.36-5.38,2.85-8.07,4.26A5.05,5.05,0,0,1,42,59.45ZM34.3,63.61l7.09-3.77c0,.11.11.22.16.32-1.78,1-3.56,1.93-5.35,2.88-.57.3-1.17.53-1.77.8ZM33.18,62.5l5.63-2.88.12.25L33.34,62.8C33.28,62.7,33.23,62.6,33.18,62.5ZM34.82,59c3.72-2.48,7.47-4.9,11.18-7.39,2.51-1.68,5-3.44,7.47-5.13.23-.15.64,0,1,0a3,3,0,0,1-.38.78,4.23,4.23,0,0,1-.83.54c-2.53,1.55-5.09,3-7.57,4.64-5.61,3.65-11.17,7.38-16.75,11.07-.85.57-1.73,1.09-2.6,1.64-.07-.1-.13-.2-.19-.3C29,62.91,31.91,60.94,34.82,59Zm-9.28-3.51,9.87-2.77c0,.13.06.26.1.39l-9.88,2.74ZM23,55.08l6.33-1.78.07.26-6.34,1.75ZM11.61,57.8l8.57-1.51.09.36-8.6,1.48Z" transform="translate(-0.76 -1.13)"/><path d="M97.06,45.79c.6-.43,1.22-.84,1.78-1.32a2,2,0,0,0,.57-.92c0-.12-.29-.54-.37-.51a1.74,1.74,0,0,0-.8.46c-.64.72-1.25,1.48-1.87,2.22l.24.27A3.62,3.62,0,0,0,97.06,45.79Z" transform="translate(-0.76 -1.13)"/><path d="M88.09,25c-.17,0-.34.23-.51.36.18.16.38.47.55.45a19.84,19.84,0,0,0,2-.33v-.31C89.44,25.1,88.77,25,88.09,25Z" transform="translate(-0.76 -1.13)"/><path d="M98.48,52.56c.1-.16,0-.48,0-.72-.24.08-.6.09-.7.25a10.61,10.61,0,0,0-.59,1.48l.36.25A14.68,14.68,0,0,0,98.48,52.56Z" transform="translate(-0.76 -1.13)"/><path d="M89.64,49.71c.06-.13-.1-.37-.15-.56-.18.08-.45.12-.51.25-.19.46-.31,1-.46,1.44l.3.17A14.88,14.88,0,0,0,89.64,49.71Z" transform="translate(-0.76 -1.13)"/><path d="M85.69,56.15a2.72,2.72,0,0,0-.52.68s.2.3.27.28a1.73,1.73,0,0,0,.78-.34,2.17,2.17,0,0,0,.31-.76l-.21-.14A2.57,2.57,0,0,0,85.69,56.15Z" transform="translate(-0.76 -1.13)"/><path d="M82.77,34c-.13,0-.24.22-.3.36s.1.23.2.27c.32.16,1.41-.47,1.64-1C83.73,33.72,83.24,33.82,82.77,34Z" transform="translate(-0.76 -1.13)"/><path d="M81.52,70.56l-.91-.17-.15,1,.52.19Z" transform="translate(-0.76 -1.13)"/><path d="M84.75,43.39l.12.24L87.82,42l-.13-.24Z" transform="translate(-0.76 -1.13)"/><path d="M78,31.39l.15.27c.77.18,1.17-.26,1.47-.89l-.13-.24Z" transform="translate(-0.76 -1.13)"/><path d="M136.77,29.51c-.15-.12-.58.15-.88.24V30l1.08.61.24-.18C137.08,30.13,137,29.69,136.77,29.51Z" transform="translate(-0.76 -1.13)"/><path d="M99.06,46.38l0-.31a2.13,2.13,0,0,0-.84,0c-.47.22-.56.59,0,1Z" transform="translate(-0.76 -1.13)"/><path d="M52.14,54.85,52,54.62l-3.18,1.65.15.23Z" transform="translate(-0.76 -1.13)"/><path d="M58.45,38l.09.25,2.93-1.06-.09-.27Z" transform="translate(-0.76 -1.13)"/><path d="M113.91,31.37v.34l1.77.09,0-.48Z" transform="translate(-0.76 -1.13)"/><path d="M84.87,58.07l-.92.86a2.14,2.14,0,0,0,.3.26c.33-.29.65-.61,1.12-1C85,58.08,84.9,58,84.87,58.07Z" transform="translate(-0.76 -1.13)"/><path d="M92.07,55.91l-1.56.92.13.21C91.75,56.9,92,56.76,92.07,55.91Z" transform="translate(-0.76 -1.13)"/><path d="M93.55,20.33,96,23.75l3.59.94,6-4.49a11.78,11.78,0,0,0-5.89-.82c-1.88.12-3.74.45-5.61.7A2,2,0,0,0,93.55,20.33Z" transform="translate(-0.76 -1.13)"/><path d="M21.81,80.58l-3-4.14c-1,.75-2.11,1.48-3.13,2.25-1.58,1.2-3.15,2.42-4.71,3.64a2,2,0,0,0-.58.55,1,1,0,0,0-.13.79A.82.82,0,0,0,11,84C14.61,82.89,18.21,81.73,21.81,80.58Z" transform="translate(-0.76 -1.13)"/><path d="M16.28,72.85l-2.11-3c-1.65,1.18-3.31,2.33-4.94,3.54a9.84,9.84,0,0,0-1.4,1.34c-.19.22-.4.67-.31.82a1,1,0,0,0,.83.41,17.35,17.35,0,0,0,2.17-.74c1.64-.61,3.28-1.23,4.9-1.87A6.35,6.35,0,0,0,16.28,72.85Z" transform="translate(-0.76 -1.13)"/><path class="cls-4" d="M20.18,56.29,11.61,57.8l.06.33,8.6-1.48Z" transform="translate(-0.76 -1.13)"/><path class="cls-4" d="M23.07,55.31l6.34-1.75-.07-.26L23,55.08Z" transform="translate(-0.76 -1.13)"/></svg>